<svg width="20" height="20" viewBox="0 0 20 20" fill="none" xmlns="http://www.w3.org/2000/svg">
  <rect width="20" height="20" rx="3" fill="black"/>
  <path d="M13.3523 9.83838C13.3523 10.662 13.0678 11.2648 12.4993 11.6468C11.9309 12.0289 11.1415 12.2199 10.1316 12.2199H7.03009V4H9.94675C11.0041 4 11.762 4.15329 12.2194 4.46043C12.6768 4.76753 12.9052 5.25311 12.9052 5.91888C12.9052 6.4296 12.781 6.84367 12.5325 7.16055C12.2841 7.4774 11.8954 7.689 11.3664 7.79597C12.0585 7.8909 12.5623 8.1088 12.8783 8.44911C13.1943 8.78998 13.3523 9.25326 13.3523 9.83894V9.83838ZM11.205 6.28662C11.205 5.97375 11.0894 5.75701 10.8592 5.63633C10.6286 5.51564 10.2708 5.455 9.7859 5.455H8.71253V7.2189H9.73838C10.2353 7.2189 10.6039 7.14968 10.8449 7.01127C11.0854 6.87286 11.2056 6.63094 11.2056 6.28662H11.205ZM11.6344 9.69022C11.6344 9.32188 11.509 9.06167 11.2588 8.90894C11.008 8.75681 10.5392 8.68017 9.85114 8.68017H8.71197V10.7352H9.56493C10.221 10.7352 10.6732 10.7037 10.9216 10.6402C11.1701 10.5767 11.351 10.4698 11.4643 10.3194C11.5777 10.1689 11.6344 9.95902 11.6344 9.68966V9.69022Z" fill="white"/>
  <path d="M13.382 14.4059H7V15.9999H13.382V14.4059Z" fill="#EB212E"/>
</svg>
