<svg xmlns="http://www.w3.org/2000/svg" width="20" height="20" viewBox="0 0 20 20" fill="none">
  <path d="M10 20C15.5228 20 20 15.5228 20 10C20 4.47715 15.5228 0 10 0C4.47715 0 0 4.47715 0 10C0 15.5228 4.47715 20 10 20Z" fill="url(#paint0_linear_27839_1093)"/>
  <path d="M5.31573 14.1659C5.48538 14.3544 5.72101 14.5806 6.02261 14.7974C6.22054 14.9294 6.40904 15.033 6.57869 15.1179C6.57869 15.1179 7.86992 15.6928 9.63241 15.033C10.0377 14.8822 10.3299 14.6466 10.3299 14.6466C10.4807 14.5335 10.5843 14.4204 10.6597 14.3356C10.4335 14.3073 9.08576 14.1376 8.25635 12.9595C7.76625 12.2715 7.68142 11.574 7.66257 11.2347C7.295 11.4609 6.80489 11.8285 6.32421 12.394C5.76813 13.0632 5.47596 13.7229 5.31573 14.1659ZM15.7304 12.3563C15.5985 12.328 15.3723 12.2998 15.099 12.3563C14.7879 12.4223 14.5711 12.5637 14.4675 12.6485C14.2224 11.6966 13.7135 11.2724 13.5155 11.1311C13.1857 10.8954 12.8087 10.7729 12.4694 10.6598C12.0735 10.5278 11.7248 10.4619 11.4797 10.4336C11.6494 10.6315 11.8662 10.9425 12.0358 11.3667C12.4976 12.5165 12.1772 13.5439 12.1206 13.7324C11.8002 14.7126 11.1404 15.2592 10.9048 15.4383C10.7823 15.5326 9.97172 16.1263 8.82186 16.1358C8.02073 16.1452 7.43637 15.8624 7.43637 15.8719C7.43637 15.8719 8.5768 16.4656 10.0565 16.4656C12.1489 16.4656 13.6192 15.2969 13.8454 15.1084C15.0613 14.1094 15.5514 12.903 15.7304 12.3563ZM4.90103 4.16592C4.213 4.29787 3.77002 4.66545 3.59094 4.8351C3.76059 4.85395 4.09047 4.90108 4.42977 5.12728C4.7031 5.30636 4.86333 5.52313 4.94815 5.65509C5.12723 5.46658 5.33458 5.25923 5.57963 5.06131C5.91894 4.77855 6.24881 4.55235 6.55041 4.3827C6.34306 4.27902 5.71158 4.0057 4.90103 4.16592ZM4.68425 13.1857C4.4769 12.7804 4.22242 12.1678 4.0999 11.3667C4.0245 10.8766 3.97737 10.2074 4.10932 9.44396C4.38265 7.804 5.27803 6.73897 5.60791 6.37139C5.82468 6.13576 6.15456 5.80589 6.61639 5.49486C7.85107 4.63718 9.08576 4.47695 9.59471 4.43925C10.443 4.37328 11.0933 4.50523 11.2441 4.54293C12.5353 4.82568 13.4684 5.52313 13.9208 6.00381C14.2507 6.35254 14.5523 6.78609 14.5523 6.79552C14.8256 7.21965 15.0236 7.64377 15.2026 8.1056C15.3911 8.58628 15.6833 9.14236 16.1451 9.26489C16.4279 9.34029 16.918 9.28374 16.984 9.68902C17.0688 10.198 16.2771 10.4901 15.8907 10.5278C15.5419 10.5655 15.2215 10.4901 14.8916 10.3959C14.4298 10.2545 13.9774 10.0943 13.525 9.95292C13.4213 9.91522 13.3082 9.88694 13.2045 9.84924C12.6767 9.67959 12.0735 9.51936 11.2724 9.45339C10.311 9.37799 9.59471 9.50994 9.34024 9.56649C9.00093 9.63246 8.5391 9.75499 8.02073 9.98119C7.69085 10.1226 7.18189 10.377 6.64467 10.7917C6.27709 11.0745 5.72101 11.5646 5.20263 12.3092C4.967 12.6296 4.79735 12.9407 4.68425 13.1857ZM13.5344 8.54858C13.5155 8.68996 13.6004 8.81248 13.7417 8.84076C13.8831 8.85961 14.0056 8.77478 14.0339 8.63341C14.0528 8.49203 13.9679 8.36951 13.8266 8.34123C13.6852 8.32238 13.5532 8.41663 13.5344 8.54858Z" fill="white"/>
  <defs>
    <linearGradient id="paint0_linear_27839_1093" x1="2.33922" y1="3.57172" x2="17.6594" y2="16.4269" gradientUnits="userSpaceOnUse">
      <stop stop-color="#347CFF"/>
      <stop offset="0.33" stop-color="#3D8DD8"/>
      <stop offset="0.66" stop-color="#1AC1E5"/>
      <stop offset="1" stop-color="#0FDAB5"/>
    </linearGradient>
  </defs>
</svg>
