<svg xmlns="http://www.w3.org/2000/svg" width="20" height="20" viewBox="0 0 20 20" fill="none">
  <path d="M12.3018 9.15015C12.8239 9.2104 13.1062 9.3074 13.5977 9.4939C14.0311 9.6584 14.2971 9.74826 14.6719 10.0212C15.1622 10.3784 15.3627 10.69 15.6641 11.2166C15.8772 11.5889 15.9747 11.816 16.0898 12.2292C16.1705 12.5188 16.2295 12.9834 16.2314 12.9988C16.2371 12.9919 16.522 12.647 16.7783 12.4929C17.1057 12.2963 17.5746 12.2115 17.9541 12.1687C18.3156 12.1281 18.6631 12.2292 18.6631 12.2292C18.6631 12.2292 18.4917 12.7902 18.3594 13.1414C18.1483 13.7013 18.0327 14.0224 17.7305 14.5388C17.4164 15.0754 17.1876 15.3471 16.7783 15.8152C16.4249 16.2193 16.2098 16.4333 15.8066 16.7878C15.3872 17.1567 15.1315 17.3416 14.6719 17.6589C14.2275 17.9658 13.9808 18.1485 13.4971 18.3884C12.9968 18.6365 12.7125 18.7888 12.1797 18.9558C11.6122 19.1337 11.2668 19.2196 10.6807 19.3201C10.1709 19.4075 9.91914 19.3986 9.36328 19.4011C8.77612 19.4038 8.39133 19.3608 7.84375 19.2595C7.32676 19.1639 6.95923 19.0787 6.4668 18.8943C6.02589 18.7292 5.37207 18.3884 5.37207 18.3884C5.37207 18.3884 5.97925 18.5055 6.20312 18.5505C6.62456 18.6353 7.11527 18.6336 7.27734 18.6316C7.84864 18.6244 8.55513 18.3944 8.57324 18.3884C8.57324 18.3884 9.27517 18.1824 9.72852 17.9421C10.1298 17.7295 10.3323 17.5657 10.6807 17.2742C11.0883 16.9331 11.3084 16.7225 11.6328 16.3015C12.0005 15.8243 12.19 15.5283 12.4023 14.9646C12.6156 14.3984 12.6613 14.0484 12.7061 13.4451C12.7547 12.789 12.7419 12.4069 12.6055 11.7634C12.4762 11.1539 12.3435 10.8184 12.0586 10.2644C11.8237 9.80784 11.3414 9.16646 11.3291 9.15015C11.342 9.14921 11.9286 9.10712 12.3018 9.15015ZM5.65625 10.2644C5.6586 10.2808 5.79388 11.2201 5.98047 11.8035C6.17671 12.4168 6.34173 12.7948 6.70996 13.323C7.07801 13.851 7.28288 14.094 7.7832 14.4988C8.24738 14.8743 8.52263 15.0339 9.08008 15.2478C9.55641 15.4306 10.376 15.5886 10.3965 15.5925C10.3857 15.6079 9.97724 16.1887 9.64746 16.5037C9.16949 16.96 8.82706 17.1616 8.20898 17.3953C7.36883 17.7128 6.81306 17.712 5.91992 17.6179C5.06381 17.5277 4.56235 17.3932 3.8125 16.9705C3.40308 16.7396 3.10154 16.5626 2.75879 16.241C2.49719 15.9955 2.19141 15.572 2.19141 15.572C2.19316 15.5566 2.33618 14.3118 2.75879 13.5466C3.18348 12.7781 3.6776 11.9967 4.25781 11.3376C4.80139 10.7203 5.65004 10.2677 5.65625 10.2644ZM9.71094 0.460693C10.5756 0.481865 11.1823 0.608175 12.084 0.905029L12.4053 1.01538C13.1145 1.2707 13.5767 1.52558 14.2578 2.00171L14.5557 2.21753C15.2095 2.71025 15.5925 3.14287 16.126 3.86987L16.3555 4.19702C16.8549 4.94665 17.1278 5.61694 17.5059 6.46753L17.5684 6.59155C17.719 6.85977 17.9023 6.97719 18.0264 7.06714L18.1377 7.14136C18.3991 7.30327 18.666 7.37802 18.9736 7.48901L19.1768 7.54565C19.242 7.55934 19.3058 7.56976 19.3691 7.58276C19.4956 7.60878 19.6202 7.6449 19.748 7.73511L19.8672 7.82983C19.9 7.86094 19.9264 7.8934 19.9463 7.92847C19.9858 7.99876 19.9999 8.08129 20 8.19702C20 8.37182 19.9663 8.51646 19.9004 8.64331C19.8509 8.73836 19.7836 8.82348 19.6982 8.90405L19.6074 8.98315C19.394 9.15594 19.2314 9.25797 19.0654 9.32983C18.9826 9.36566 18.8986 9.39419 18.8076 9.41968L18.5049 9.4939C18.4521 9.50568 18.3625 9.51205 18.25 9.5144C18.1367 9.51675 17.9978 9.51432 17.8467 9.50659C17.6196 9.49496 17.362 9.47173 17.1162 9.43433L16.876 9.39233C16.1653 9.25017 15.6343 9.05171 15.1064 8.85132C14.6446 8.67599 14.1843 8.49925 13.6055 8.35718L13.3506 8.29858C12.0822 8.02744 11.2816 7.81401 10.1133 7.83081L9.58789 7.85327C8.40382 7.93204 7.65329 8.06589 6.65625 8.47046L6.21094 8.66187C5.05559 9.18128 4.32875 9.72013 3.50098 10.5378L3.1377 10.906C2.60235 11.4633 2.15762 12.3213 1.84668 13.0417C1.69137 13.4016 1.57024 13.7276 1.4873 13.9626C1.44601 14.0797 1.41393 14.1745 1.39258 14.24C1.38194 14.2726 1.37358 14.2989 1.36816 14.3162C1.36557 14.3244 1.36364 14.3313 1.3623 14.3357C1.36171 14.3376 1.36073 14.3395 1.36035 14.3406V14.3416L1.34473 14.3923L1.32227 14.3445V14.3435L1.32129 14.3416C1.32029 14.3396 1.31803 14.3363 1.31641 14.3328C1.31297 14.3253 1.30801 14.3141 1.30176 14.3005C1.28853 14.2717 1.26955 14.2286 1.24609 14.1765C1.19898 14.0718 1.13351 13.9251 1.0625 13.7576C0.955758 13.5057 0.834214 13.2052 0.738281 12.9275L0.652344 12.6599C0.487104 12.0975 0.405438 11.7209 0.352539 11.239L0.307617 10.7107C0.252858 9.91162 0.267529 9.43242 0.388672 8.64038L0.443359 8.30249C0.573151 7.55471 0.721744 7.06627 1.03809 6.28491L1.29004 5.67651C1.53343 5.1131 1.77372 4.6617 2.21582 4.11206L2.48926 3.77808C3.1106 3.03076 3.64215 2.50405 4.55078 1.91968L5.09082 1.58276C5.59211 1.28248 6.01441 1.08073 6.68262 0.864014L7.03711 0.755615C7.83083 0.525861 8.41393 0.46478 9.32227 0.457764L9.71094 0.460693ZM14.834 5.94897C14.599 5.94898 14.4082 6.13979 14.4082 6.37476C14.4084 6.60955 14.5991 6.79956 14.834 6.79956C15.0687 6.79945 15.2586 6.60948 15.2588 6.37476C15.2588 6.13986 15.0689 5.94909 14.834 5.94897ZM2.17188 0.231201C2.51437 0.184504 2.79847 0.191882 3.20703 0.235107L3.45605 0.27417C3.71454 0.32465 3.99401 0.406791 4.22754 0.484131C4.38294 0.535613 4.51912 0.585233 4.61621 0.621826C4.66441 0.639995 4.70375 0.655257 4.73047 0.665771C4.74358 0.670931 4.75471 0.675645 4.76172 0.678467C4.76478 0.679696 4.76779 0.68072 4.76953 0.681396L4.77148 0.682373H4.77246L4.80762 0.697021L4.77539 0.718506L4.77344 0.719482C4.77191 0.720508 4.76955 0.722401 4.7666 0.724365C4.76061 0.728362 4.75164 0.734295 4.74023 0.741943C4.71736 0.757286 4.68386 0.779322 4.64258 0.807373C4.55984 0.863591 4.44438 0.943403 4.31445 1.03491C4.18454 1.12642 4.03979 1.22997 3.89844 1.33569L3.50098 1.64917C3.24749 1.86318 2.94419 2.16108 2.7041 2.40601C2.58408 2.52845 2.47942 2.63811 2.40527 2.71655C2.3684 2.75556 2.33858 2.78667 2.31836 2.80835C2.30836 2.81907 2.30118 2.82804 2.2959 2.83374L2.28711 2.84253L2.26855 2.86304L2.25488 2.83862L2.25391 2.83667L2.23926 2.81226C2.22927 2.7954 2.21459 2.77076 2.19629 2.74097C2.15908 2.68041 2.10586 2.59627 2.04297 2.50366C1.94818 2.36413 1.83084 2.20436 1.71094 2.073L1.59082 1.9519C1.39768 1.77846 1.25263 1.67473 1.05957 1.573L0.845703 1.46948C0.697219 1.40154 0.495706 1.34108 0.331055 1.29761C0.249106 1.27598 0.176231 1.25782 0.124023 1.24585C0.0982096 1.23993 0.0768788 1.2353 0.0625 1.23218C0.0557016 1.23073 0.0495935 1.23003 0.0458984 1.22925C0.0441275 1.22888 0.0419079 1.22846 0.0410156 1.22827L0.0400391 1.22729L0 1.21948L0.0302734 1.19214H0.03125L0.0351562 1.18823C0.0381561 1.18566 0.0431394 1.18232 0.0488281 1.17749C0.0602666 1.16778 0.0768684 1.15375 0.0976562 1.13647C0.139576 1.10164 0.198535 1.05302 0.266602 0.999756C0.402486 0.893428 0.575554 0.765654 0.722656 0.68335L0.995117 0.543701C1.25117 0.425891 1.47517 0.366202 1.80273 0.296631L2.17188 0.231201Z" fill="url(#paint0_linear_27809_824)"/>
  <defs>
    <linearGradient id="paint0_linear_27809_824" x1="20" y1="9.80043" x2="0" y2="9.80043" gradientUnits="userSpaceOnUse">
      <stop stop-color="#11D8B7"/>
      <stop offset="0.5" stop-color="#24AADB"/>
      <stop offset="1" stop-color="#367CFE"/>
    </linearGradient>
  </defs>
</svg>
