<svg
	id="Layer_2"
	xmlns="http://www.w3.org/2000/svg"
	viewBox="-2 -2 45.8271 44.6062"
>
	<defs>
		<linearGradient id="gradient45" x1="100%" y1="0%" x2="0%" y2="100%">
			<stop offset="0%" style="stop-color:#787ae7;stop-opacity:1" />
			<stop offset="100%" style="stop-color:#4338ca;stop-opacity:1" />
		</linearGradient>
	</defs>
	<rect x="-2" y="-2" width="45.8271" height="44.6062" fill="url(#gradient45)" />
	<g id="Components">
		<g id="e287dc90-06af-484e-b437-479cdacf0c9a_5">
			<path
				d="M19.6301,35.3372c-.5631.0095-1.0881.2376-1.4797.6423l-1.0199,1.0544c-.808.8352-.7853,2.1719.0499,2.9799v.0007c.4084.3952.9371.5917,1.465.5917.5514,0,1.1028-.2148,1.5156-.6416l1.0199-1.0544c.808-.8359.7853-2.1726-.0499-2.9806-.4047-.3916-.9283-.6079-1.5009-.5925Z"
				style="fill: #fff"
			/>
			<path
				d="M8.383,31.319c-.0088-.5631-.2368-1.0881-.6416-1.4797s-.9056-.6079-1.5009-.5932c-.5624.0095-1.0881.2376-1.4797.6423l-1.0199,1.0544c-.808.8359-.786,2.1726.0491,2.9806.4084.3952.9371.5917,1.4657.5917.5514,0,1.1021-.2141,1.5149-.6409l1.0199-1.0551c.3916-.404.602-.9371.5925-1.5002Z"
				style="fill: #fff"
			/>
			<path
				d="M41.2564,9.758c-.6599-1.9812-1.9402-3.8994-3.8055-5.7024-1.8309-1.7744-3.7777-2.9836-5.7867-3.5943-2.0061-.6071-4.0226-.6152-5.9964-.0227-1.9658.5998-3.8253,1.7964-5.5264,3.5577L.5879,24.233c-.8051.8381-.7794,2.1748.0535,2.9762.5426.536,1.3374.7325,2.078.5103.3454-.1041.6482-.2904.899-.5521l10.4443-10.7933c.5155-.5367,1.3763-.5529,1.9182-.0367.1672.1606.2904.3622.3571.5837.1422.4744.0176.9862-.3285,1.3367l-6.4181,6.6366c-.8102.8286-.7904,2.1667.0462,2.985.5455.5265,1.3404.7171,2.0721.4979.3461-.1041.6599-.2962.907-.5543l3.9441-4.0732c.5228-.5345,1.3844-.5477,1.9233-.0301.1664.1591.2896.3608.3571.5829.14.4685.0139.9811-.3285,1.3367l-10.5917,10.9488c-.3894.4018-.5991.9341-.5888,1.4973.0095.5653.239,1.0918.6438,1.4819.3945.3835.9202.5895,1.4599.5895.2046,0,.4106-.0293.6123-.0902.3454-.1034.6599-.2955.9085-.5543l15.7068-16.2398c.2515-.2618.5903-.4091.9539-.4143.3637.0007.7061.1305.9671.3872.1686.1613.2889.3578.3571.5829.14.4678.0169.9796-.3197,1.3338l-5.0476,5.2053c-.8066.8374-.7853,2.1748.0484,2.9821.5507.5301,1.3462.7252,2.0743.5067.3454-.1041.6599-.2962.9078-.5543l11.4166-11.7913c1.7554-1.8258,2.9161-3.7549,3.4499-5.7347.5382-2.0105.4656-4.0365-.2148-6.0177ZM30.1243,5.2105c1.237.4385,2.507,1.2854,3.774,2.515,1.2934,1.256,2.1873,2.504,2.6558,3.7117.4656,1.1798.5411,2.3676.2244,3.5306-.3226,1.1776-1.0573,2.3625-2.1843,3.5232l-2.2569,2.3354-11.4327-11.0639,2.3412-2.4256c1.0991-1.1351,2.2335-1.8844,3.3729-2.2269,1.1321-.3476,2.3134-.3146,3.5056.1005Z"
				style="fill: #fff"
			/>
		</g>
	</g>
</svg>
