<svg xmlns="http://www.w3.org/2000/svg" xmlns:xlink="http://www.w3.org/1999/xlink" width="500" zoomAndPan="magnify" viewBox="0 0 375 374.999991" height="500" preserveAspectRatio="xMidYMid meet" version="1.0"><path fill="#151a2d" d="M 46.875 0 L 328.125 0 C 329.660156 0 331.191406 0.0742188 332.71875 0.226562 C 334.246094 0.375 335.765625 0.601562 337.269531 0.902344 C 338.777344 1.199219 340.261719 1.574219 341.730469 2.019531 C 343.199219 2.464844 344.644531 2.980469 346.0625 3.566406 C 347.480469 4.15625 348.867188 4.8125 350.222656 5.535156 C 351.574219 6.257812 352.890625 7.046875 354.167969 7.898438 C 355.445312 8.753906 356.675781 9.667969 357.863281 10.640625 C 359.050781 11.613281 360.183594 12.644531 361.269531 13.730469 C 362.355469 14.816406 363.386719 15.949219 364.359375 17.136719 C 365.332031 18.324219 366.246094 19.554688 367.101562 20.832031 C 367.953125 22.109375 368.742188 23.425781 369.464844 24.777344 C 370.1875 26.132812 370.84375 27.519531 371.433594 28.9375 C 372.019531 30.355469 372.535156 31.796875 372.980469 33.269531 C 373.425781 34.738281 373.800781 36.222656 374.097656 37.730469 C 374.398438 39.234375 374.625 40.753906 374.773438 42.28125 C 374.925781 43.808594 375 45.339844 375 46.875 L 375 328.125 C 375 329.660156 374.925781 331.191406 374.773438 332.71875 C 374.625 334.246094 374.398438 335.765625 374.097656 337.269531 C 373.800781 338.777344 373.425781 340.261719 372.980469 341.730469 C 372.535156 343.199219 372.019531 344.644531 371.433594 346.0625 C 370.84375 347.480469 370.1875 348.867188 369.464844 350.222656 C 368.742188 351.574219 367.953125 352.890625 367.101562 354.167969 C 366.246094 355.445312 365.332031 356.675781 364.359375 357.863281 C 363.386719 359.050781 362.355469 360.183594 361.269531 361.269531 C 360.183594 362.355469 359.050781 363.386719 357.863281 364.359375 C 356.675781 365.332031 355.445312 366.246094 354.167969 367.101562 C 352.890625 367.953125 351.574219 368.742188 350.222656 369.464844 C 348.867188 370.1875 347.480469 370.84375 346.0625 371.433594 C 344.644531 372.019531 343.199219 372.535156 341.730469 372.980469 C 340.261719 373.425781 338.777344 373.800781 337.269531 374.097656 C 335.765625 374.398438 334.246094 374.625 332.71875 374.773438 C 331.191406 374.925781 329.660156 375 328.125 375 L 46.875 375 C 45.339844 375 43.808594 374.925781 42.28125 374.773438 C 40.753906 374.625 39.234375 374.398438 37.730469 374.097656 C 36.222656 373.800781 34.738281 373.425781 33.269531 372.980469 C 31.796875 372.535156 30.355469 372.019531 28.9375 371.433594 C 27.519531 370.84375 26.132812 370.1875 24.777344 369.464844 C 23.425781 368.742188 22.109375 367.953125 20.832031 367.101562 C 19.554688 366.246094 18.324219 365.332031 17.136719 364.359375 C 15.949219 363.386719 14.816406 362.355469 13.730469 361.269531 C 12.644531 360.183594 11.613281 359.050781 10.640625 357.863281 C 9.667969 356.675781 8.753906 355.445312 7.898438 354.167969 C 7.046875 352.890625 6.257812 351.574219 5.535156 350.222656 C 4.8125 348.867188 4.15625 347.480469 3.566406 346.0625 C 2.980469 344.644531 2.464844 343.199219 2.019531 341.730469 C 1.574219 340.261719 1.199219 338.777344 0.902344 337.269531 C 0.601562 335.765625 0.375 334.246094 0.226562 332.71875 C 0.0742188 331.191406 0 329.660156 0 328.125 L 0 46.875 C 0 45.339844 0.0742188 43.808594 0.226562 42.28125 C 0.375 40.753906 0.601562 39.234375 0.902344 37.730469 C 1.199219 36.222656 1.574219 34.738281 2.019531 33.269531 C 2.464844 31.796875 2.980469 30.355469 3.566406 28.9375 C 4.15625 27.519531 4.8125 26.132812 5.535156 24.777344 C 6.257812 23.425781 7.046875 22.109375 7.898438 20.832031 C 8.753906 19.554688 9.667969 18.324219 10.640625 17.136719 C 11.613281 15.949219 12.644531 14.816406 13.730469 13.730469 C 14.816406 12.644531 15.949219 11.613281 17.136719 10.640625 C 18.324219 9.667969 19.554688 8.753906 20.832031 7.898438 C 22.109375 7.046875 23.425781 6.257812 24.777344 5.535156 C 26.132812 4.8125 27.519531 4.15625 28.9375 3.566406 C 30.355469 2.980469 31.796875 2.464844 33.269531 2.019531 C 34.738281 1.574219 36.222656 1.199219 37.730469 0.902344 C 39.234375 0.601562 40.753906 0.375 42.28125 0.226562 C 43.808594 0.0742188 45.339844 0 46.875 0 Z M 46.875 0 " fill-opacity="1" fill-rule="nonzero"/><path stroke-linecap="round" transform="matrix(11.718749, 0, 0, 11.718749, 0.0000045, 0)" fill="none" stroke-linejoin="round" d="M 10 12.000001 L 6 16.000001 L 10 20.000001 " stroke="#4db8e8" stroke-width="2" stroke-opacity="1" stroke-miterlimit="4"/><path stroke-linecap="round" transform="matrix(11.718749, 0, 0, 11.718749, 0.0000045, 0)" fill="none" stroke-linejoin="round" d="M 22.000001 12.000001 L 26.000001 16.000001 L 22.000001 20.000001 " stroke="#4db8e8" stroke-width="2" stroke-opacity="1" stroke-miterlimit="4"/><path stroke-linecap="round" transform="matrix(11.718749, 0, 0, 11.718749, 0.0000045, 0)" fill="none" stroke-linejoin="round" d="M 18.000001 10.000001 L 14.000001 22.000001 " stroke="#4db8e8" stroke-width="2" stroke-opacity="1" stroke-miterlimit="4"/></svg>