<svg xmlns="http://www.w3.org/2000/svg" width="20" height="20" viewBox="0 0 20 20" fill="none">
  <rect width="20" height="20" rx="4" fill="#10111D"/>
  <path fill-rule="evenodd" clip-rule="evenodd" d="M14.4543 12.1926L15.9402 14.9097C16.0949 15.1654 15.9402 15.3455 15.5817 15.3455L14.2742 15.3965C13.993 15.3965 13.6327 15.6531 13.5308 15.8833L12.8383 17.1663C12.8178 17.2174 12.7825 17.2613 12.7368 17.2922C12.6912 17.3231 12.6373 17.3396 12.5822 17.3396C12.527 17.3396 12.4732 17.3231 12.4275 17.2922C12.3819 17.2613 12.3465 17.2174 12.326 17.1663C12.326 17.1663 11.4033 15.4738 10.8392 14.3719C10.9851 14.3297 11.0967 14.2708 11.1881 14.2225L11.2496 14.1917L14.4534 12.1926H14.4543ZM4.04658 14.9097L5.5334 12.1926L8.71178 14.1917C8.75923 14.2111 8.80317 14.233 8.84886 14.2568C8.92707 14.2972 9.00879 14.3394 9.12127 14.371C8.63566 15.3076 8.14032 16.2391 7.63533 17.1654C7.61465 17.2165 7.57918 17.2603 7.53346 17.2911C7.48775 17.3219 7.43387 17.3384 7.37874 17.3384C7.32361 17.3384 7.26973 17.3219 7.22402 17.2911C7.1783 17.2603 7.14283 17.2165 7.12215 17.1654L6.43059 15.8833C6.32778 15.6276 5.96925 15.3965 5.6863 15.3965L4.37962 15.3455C3.99474 15.3455 3.94465 15.1399 4.04658 14.9097ZM15.2996 9.80775C15.2996 10.5257 14.8638 11.2691 14.2232 11.6285L11.0703 13.3719C10.7353 13.5379 10.3669 13.6256 9.99297 13.6285C9.63445 13.6285 9.24956 13.5766 8.91652 13.3719L5.76363 11.603C5.12215 11.2445 4.68718 10.5011 4.68718 9.78314V6.24536C4.68718 5.52744 5.12303 4.78403 5.76363 4.42551L8.91652 2.65486C9.2232 2.50196 9.60897 2.40002 9.99297 2.40002C10.3524 2.40002 10.6854 2.45099 11.0703 2.65574L14.2232 4.42463C14.9148 4.78491 15.2996 5.47559 15.2996 6.24448V9.80775ZM9.1986 11.9106C9.45431 12.0643 9.7109 12.0898 9.99297 12.0898C10.2742 12.0898 10.5562 12.038 10.7873 11.9106L13.0694 10.6285C13.5562 10.3473 13.8638 9.83411 13.8638 9.29545V6.73218C13.8638 6.14255 13.5817 5.65573 13.0694 5.39914L10.7873 4.11707C10.5062 3.96329 10.275 3.93781 9.99297 3.93781C9.7109 3.93781 9.42883 4.01514 9.1986 4.11707L6.91653 5.39914C6.42971 5.68034 6.12215 6.19352 6.12215 6.73218V9.29545C6.12215 9.83411 6.45519 10.3728 6.91653 10.6285L9.1986 11.9106ZM8.74781 6.90705C8.74675 6.84376 8.72699 6.78221 8.69102 6.73013C8.65505 6.67805 8.60447 6.63778 8.54566 6.61438C8.48685 6.59099 8.42243 6.58552 8.36051 6.59866C8.2986 6.61181 8.24196 6.64298 8.19772 6.68824L7.27593 7.63728C7.21863 7.6966 7.18639 7.77571 7.1859 7.85819C7.18541 7.94066 7.21671 8.02016 7.27329 8.08016L8.19596 9.05467C8.25578 9.11013 8.33448 9.14072 8.41604 9.14021C8.49761 9.1397 8.57592 9.10813 8.63504 9.05192C8.69415 8.99572 8.72963 8.9191 8.73426 8.83767C8.73888 8.75623 8.71231 8.67609 8.65993 8.61355L7.94992 7.86311L8.6573 7.13464C8.71639 7.07374 8.74893 6.9919 8.74781 6.90705ZM11.4297 6.61619C11.3811 6.63631 11.3381 6.66812 11.3047 6.70881C11.2713 6.7495 11.2485 6.7978 11.2382 6.84943C11.228 6.90107 11.2306 6.95443 11.2459 7.0048C11.2612 7.05516 11.2888 7.10097 11.326 7.13816L12.051 7.86311L11.3234 8.61003C11.2927 8.63989 11.2684 8.67558 11.2518 8.71499C11.2351 8.7544 11.2266 8.79674 11.2265 8.83952C11.2265 8.8823 11.235 8.92465 11.2516 8.96408C11.2682 9.00351 11.2925 9.03922 11.3231 9.06912C11.3537 9.09901 11.39 9.12248 11.4298 9.13815C11.4696 9.15382 11.5121 9.16136 11.5549 9.16034C11.5977 9.15933 11.6398 9.14976 11.6788 9.13222C11.7178 9.11468 11.7529 9.0895 11.7821 9.05819L12.7302 8.08367C12.7889 8.02333 12.8215 7.94234 12.821 7.85818C12.8205 7.77401 12.787 7.69341 12.7276 7.63376L11.7786 6.68473C11.7337 6.64007 11.6766 6.60973 11.6145 6.59752C11.5524 6.58532 11.4881 6.59182 11.4297 6.61619ZM10.7531 6.65749C10.7228 6.62791 10.687 6.60461 10.6476 6.58895H10.6485C10.6095 6.57305 10.5678 6.56501 10.5257 6.56529C10.4835 6.56557 10.4419 6.57416 10.4031 6.59057C10.3643 6.60699 10.3292 6.63089 10.2997 6.66092C10.2702 6.69095 10.2469 6.72652 10.2311 6.76557L9.41125 8.79105C9.39544 8.83006 9.38747 8.87179 9.38779 8.91388C9.38811 8.95596 9.39672 8.99757 9.41312 9.03633C9.42952 9.07509 9.45339 9.11024 9.48338 9.13977C9.51336 9.1693 9.54887 9.19264 9.58788 9.20845C9.62688 9.22426 9.66862 9.23223 9.7107 9.23191C9.75279 9.23159 9.7944 9.22299 9.83316 9.20658C9.87191 9.19018 9.90706 9.16631 9.9366 9.13632C9.96613 9.10634 9.98947 9.07083 10.0053 9.03183L10.8251 7.00635C10.8489 6.94759 10.8548 6.88309 10.842 6.82099C10.8292 6.7589 10.7982 6.702 10.7531 6.65749Z" fill="white"/>
</svg>
