<?xml version="1.0" encoding="UTF-8"?>
<svg width="347px" height="291px" viewBox="0 0 347 291" version="1.1" xmlns="http://www.w3.org/2000/svg" xmlns:xlink="http://www.w3.org/1999/xlink">
    <title>separate logo</title>
    <g id="页面-1" stroke="none" stroke-width="1" fill="none" fill-rule="evenodd">
        <g id="Goplus-Brand-Kit" transform="translate(-1437.000000, -1643.000000)" fill="#00E678" fill-rule="nonzero">
            <path d="M1642.54288,1713.01256 L1563.34325,1713.01256 C1514.04793,1713.01256 1474.08619,1753.97321 1474.08619,1804.5 C1474.08619,1855.02619 1514.04793,1895.98684 1563.34325,1895.98684 L1573.40011,1895.98684 L1582.82907,1895.98684 L1621.48587,1895.98684 C1631.38063,1895.98684 1639.40048,1887.76543 1639.40048,1877.62503 C1639.40048,1867.48463 1631.38063,1859.26321 1621.48587,1859.26321 L1583.45813,1859.26321 L1582.82907,1859.26321 L1570.25712,1859.26321 C1537.64227,1859.26321 1511.17237,1834.89901 1511.17237,1804.66562 C1511.17237,1774.43223 1537.64227,1749.67018 1570.25712,1749.67018 L1610.36867,1749.79799 C1610.36867,1749.77459 1610.36984,1749.75059 1610.36984,1749.72659 L1660.13272,1749.72659 C1660.13272,1771.0839 1641.73709,1788.39621 1619.04568,1788.39621 C1618.28495,1788.39621 1617.57103,1788.37401 1616.88988,1788.3362 L1616.88988,1788.39321 L1564.28597,1788.39321 C1555.43458,1788.39321 1548.25856,1795.74814 1548.25856,1804.82163 C1548.25856,1813.89513 1555.43458,1821.25186 1564.28597,1821.25186 L1579.68666,1821.25186 L1582.82907,1821.25186 L1583.45813,1821.25186 L1621.48587,1821.25186 C1651.86241,1821.25186 1676.48608,1846.49095 1676.48608,1877.62503 C1676.48608,1908.75971 1651.86241,1934 1621.48587,1934 L1582.82907,1934 L1563.34325,1934 C1493.56615,1934 1437,1876.02047 1437,1804.5 C1437,1732.97953 1493.56615,1675 1563.34325,1675 L1604.82938,1675 L1642.54288,1675 L1679,1675 C1679,1695.77765 1662.73383,1712.65132 1642.54288,1712.99696 L1642.54288,1713.01256 Z M1780.23832,1694.91981 L1758.01888,1694.91981 L1758.01888,1718.35356 C1758.01888,1720.36738 1756.33499,1722 1754.2578,1722 L1734.19373,1722 C1732.11654,1722 1730.43205,1720.36738 1730.43205,1718.35356 L1730.43205,1694.91981 L1708.76228,1694.91981 C1706.68388,1694.91981 1705,1693.28719 1705,1691.27337 L1705,1673.65027 C1705,1671.63645 1706.68388,1670.00558 1708.76228,1670.00558 L1730.43205,1670.00558 L1730.43205,1646.64644 C1730.43205,1644.63262 1732.11654,1643 1734.19373,1643 L1754.2578,1643 C1756.33499,1643 1758.01888,1644.63262 1758.01888,1646.64644 L1758.01888,1670.00558 L1780.23832,1670.00558 C1782.31551,1670.00558 1784,1671.63645 1784,1673.65027 L1784,1691.27337 C1784,1693.28719 1782.31551,1694.91981 1780.23832,1694.91981" id="separate-logo"></path>
        </g>
    </g>
</svg>