<?xml version="1.0" encoding="utf-8"?>
<!-- Generator: Adobe Illustrator 26.0.0, SVG Export Plug-In . SVG Version: 6.00 Build 0)  -->
<svg version="1.1" id="Layer_1" xmlns="http://www.w3.org/2000/svg" xmlns:xlink="http://www.w3.org/1999/xlink" x="0px" y="0px"
	 viewBox="0 0 2292 1506" style="enable-background:new 0 0 2292 1506;" xml:space="preserve">
<style type="text/css">
	.st0{opacity:0.65;fill:url(#SVGID_1_);}
	.st1{opacity:0.65;fill:url(#SVGID_00000175307644502098133990000011536552799952255138_);}
</style>
<g>
	<linearGradient id="SVGID_1_" gradientUnits="userSpaceOnUse" x1="1146" y1="473.4984" x2="1146" y2="1318.7075">
		<stop  offset="5.586592e-03" style="stop-color:#3F5EFB"/>
		<stop  offset="1" style="stop-color:#FC466B"/>
	</linearGradient>
	<path class="st0" d="M1455.4,703.2H1412h-157c-20.7,0-37.5-16.8-37.5-37.5v-148c0-62.4-80.6-87.5-116-36.1L880,802.9L772,959.5
		c-35.8,52,1.4,122.9,64.5,122.9h181.8c31,0,56.1,25.1,56.1,56.1v129.4c0,62.4,80.6,87.5,116,36.1L1520,826
		C1555.8,774,1518.6,703.2,1455.4,703.2z"/>
	
		<linearGradient id="SVGID_00000113310770691720834870000009522552974727496080_" gradientUnits="userSpaceOnUse" x1="1146" y1="176.4401" x2="1146" y2="1013.1951">
		<stop  offset="5.586592e-03" style="stop-color:#3F5EFB"/>
		<stop  offset="1" style="stop-color:#FC466B"/>
	</linearGradient>
	<path style="opacity:0.65;fill:url(#SVGID_00000113310770691720834870000009522552974727496080_);" d="M1455.4,423.6h-181.8
		c-31,0-56.1-25.1-56.1-56.1V238.1c0-62.4-80.6-87.5-116-36.1L772,680c-35.8,52,1.4,122.9,64.5,122.9H880h157
		c20.7,0,37.5,16.8,37.5,37.5v148c0,62.5,80.6,87.5,116,36.1L1412,703.2l108-156.6C1555.8,494.5,1518.6,423.6,1455.4,423.6z"/>
</g>
</svg>
