<svg width="20" height="20" viewBox="0 0 20 20" fill="none" xmlns="http://www.w3.org/2000/svg">
<rect width="20" height="20" rx="4" fill="#131A2A"/>
<path opacity="0.65" d="M14.2778 9.26018H13.6777H11.5071C11.2209 9.26018 10.9886 9.0279 10.9886 8.74171V6.69546C10.9886 5.83272 9.87422 5.48569 9.38478 6.19634L6.32233 10.6386L4.82912 12.8038C4.33415 13.5227 4.84848 14.503 5.7209 14.503H8.23446C8.66307 14.503 9.0101 14.85 9.0101 15.2786V17.0677C9.0101 17.9304 10.1245 18.2775 10.6139 17.5668L15.1709 10.958C15.6659 10.2391 15.1516 9.26018 14.2778 9.26018Z" fill="url(#paint0_linear_29692_35715)"/>
<path opacity="0.65" d="M14.2778 5.39446H11.7642C11.3356 5.39446 10.9886 5.04742 10.9886 4.61882V2.82974C10.9886 1.967 9.87422 1.61997 9.38478 2.33062L4.82912 8.93943C4.33415 9.65839 4.84848 10.6386 5.7209 10.6386H6.32233H8.49301C8.7792 10.6386 9.01148 10.8709 9.01148 11.1571V13.2034C9.01148 14.0675 10.1259 14.4131 10.6153 13.7025L13.6777 9.2602L15.1709 7.09505C15.6659 6.37472 15.1516 5.39446 14.2778 5.39446Z" fill="url(#paint1_linear_29692_35715)"/>
<defs>
<linearGradient id="paint0_linear_29692_35715" x1="10" y1="6.08433" x2="10" y2="17.7702" gradientUnits="userSpaceOnUse">
<stop offset="0.00558659" stop-color="#3F5EFB"/>
<stop offset="1" stop-color="#FC466B"/>
</linearGradient>
<linearGradient id="paint1_linear_29692_35715" x1="10" y1="1.97723" x2="10" y2="13.5462" gradientUnits="userSpaceOnUse">
<stop offset="0.00558659" stop-color="#3F5EFB"/>
<stop offset="1" stop-color="#FC466B"/>
</linearGradient>
</defs>
</svg>
