<svg xmlns="http://www.w3.org/2000/svg" width="20" height="20" viewBox="0 0 20 20" fill="none">
  <rect width="20" height="20" rx="4" fill="#751DFF"/>
  <path d="M13.6709 6.21484C13.7473 6.17067 13.8426 6.22595 13.8428 6.31445L13.8457 9.9668C13.8458 10.0415 13.8262 10.1149 13.7891 10.1797C13.7517 10.2447 13.6976 10.2992 13.6328 10.3369L6.05566 14.7295C5.99112 14.767 5.91741 14.7871 5.84277 14.7871C5.76809 14.7871 5.69445 14.767 5.62988 14.7295L2.21289 12.7471C2.14817 12.7094 2.09395 12.6557 2.05664 12.5908C2.01935 12.5259 1.99994 12.4518 2 12.377V8.72559C2 8.63686 2.09551 8.58161 2.17188 8.62598L5.62988 10.6318C5.69448 10.6693 5.76811 10.6885 5.84277 10.6885C5.9174 10.6884 5.9911 10.6693 6.05566 10.6318L13.6709 6.21484ZM14.1572 10.8213C14.2318 10.8213 14.3056 10.8406 14.3701 10.8779L17.5195 12.7021C17.596 12.7464 17.596 12.858 17.5195 12.9023L14.3701 14.7295C14.3055 14.767 14.2319 14.7871 14.1572 14.7871C14.0826 14.7871 14.0089 14.767 13.9443 14.7295L10.7959 12.9023C10.7194 12.858 10.7194 12.7465 10.7959 12.7021L13.9453 10.8779C14.0098 10.8407 14.0828 10.8213 14.1572 10.8213ZM14.4688 6.31445C14.4689 6.22598 14.5642 6.17089 14.6406 6.21484L17.7871 8.03906C17.8518 8.07671 17.906 8.13136 17.9434 8.19629C17.9805 8.26109 18 8.33449 18 8.40918V12.0615C17.9998 12.1499 17.9044 12.2052 17.8281 12.1611L14.6816 10.3369C14.6169 10.2993 14.5637 10.2446 14.5264 10.1797C14.4891 10.1148 14.4687 10.0416 14.4688 9.9668V6.31445ZM5.84277 6C5.91738 6.00001 5.99113 6.01919 6.05566 6.05664L9.2041 7.88086C9.28046 7.92511 9.28129 8.0366 9.20508 8.08105L6.05469 9.9082C5.99027 9.94558 5.91725 9.96576 5.84277 9.96582C5.7681 9.96585 5.69447 9.94568 5.62988 9.9082L2.48047 8.08398C2.40422 8.03964 2.40441 7.92922 2.48047 7.88477L5.62988 6.05664C5.69444 6.01912 5.76811 6.00003 5.84277 6Z" fill="white"/>
</svg>
