<svg width="12" height="12" viewBox="0 0 12 12" fill="none" xmlns="http://www.w3.org/2000/svg">
<path fill-rule="evenodd" clip-rule="evenodd" d="M4.78331 0.734905C4.78331 0.428469 4.534 0.180054 4.22646 0.180054H2.9068C2.59925 0.180054 2.34994 0.428469 2.34994 0.734905V2.04981C2.34994 2.35625 2.10063 2.60466 1.79309 2.60466H0.556855C0.249313 2.60466 0 2.85308 0 3.15951V11.2633C0 11.5698 0.249312 11.8182 0.556855 11.8182H1.87652C2.18406 11.8182 2.43337 11.5698 2.43337 11.2633V3.15952C2.43337 2.85308 2.68269 2.60467 2.99023 2.60467H4.22646C4.534 2.60467 4.78331 2.35625 4.78331 2.04982V0.734905ZM9.65006 0.734905C9.65006 0.428469 9.40075 0.180054 9.09321 0.180054H7.77354C7.466 0.180054 7.21669 0.428469 7.21669 0.734904V2.04982C7.21669 2.35625 7.466 2.60467 7.77354 2.60467H9.00977C9.31731 2.60467 9.56663 2.85308 9.56663 3.15952V11.2633C9.56663 11.5698 9.81594 11.8182 10.1235 11.8182H11.4431C11.7507 11.8182 12 11.5698 12 11.2633V3.15951C12 2.85308 11.7507 2.60466 11.4431 2.60466H10.2069C9.89937 2.60466 9.65006 2.35625 9.65006 2.04981V0.734905ZM7.21669 5.37631C7.21669 5.06988 6.96738 4.82146 6.65983 4.82146H5.34017C5.03263 4.82146 4.78332 5.06988 4.78332 5.37631V8.97729C4.78332 9.28372 5.03263 9.53214 5.34017 9.53214H6.65983C6.96738 9.53214 7.21669 9.28372 7.21669 8.97729V5.37631Z" fill="#8686FF"/>
</svg>
