<svg xmlns:xlink="http://www.w3.org/1999/xlink" viewBox="0 0 40 40" fill="none" xmlns="http://www.w3.org/2000/svg" class="size-max" width="120"  height="120" ><circle cx="20" cy="20" r="20" fill="#EBEBEB"></circle><path d="M20.0786 12.9864C21.9478 12.9864 23.529 13.9914 24.0294 15.3625H27.9823C27.4777 11.8514 24.1268 9.13086 20.0786 9.13086C15.6816 9.13086 12.1055 12.3387 12.1055 16.283C12.1055 20.2273 15.6816 23.4395 20.0786 23.4395V19.584C17.8086 19.584 15.961 18.1025 15.961 16.283C15.961 14.4636 17.8086 12.9842 20.0786 12.9842V12.9864Z" fill="#1C1C1C"></path><path d="M20.0779 17.0041V20.8596C22.3479 20.8596 24.1955 22.3412 24.1955 24.1606C24.1955 25.9801 22.3479 27.4616 20.0779 27.4616C18.2801 27.4616 16.7531 26.5324 16.1921 25.2436H12.1958C12.7806 28.6768 16.0925 31.315 20.0779 31.315C24.4749 31.315 28.051 28.1049 28.051 24.1585C28.051 20.212 24.4749 17.002 20.0779 17.002V17.0041Z" fill="#1C1C1C"></path></svg>