<svg width="68" height="24" viewBox="0 0 68 24" fill="none" xmlns="http://www.w3.org/2000/svg">
<g clip-path="url(#clip0_11795_12595)">
<g clip-path="url(#clip1_11795_12595)">
<mask id="mask0_11795_12595" style="mask-type:luminance" maskUnits="userSpaceOnUse" x="0" y="0" width="69" height="24">
<path d="M68.2751 0H0.275302C0.123257 0 0 0.123257 0 0.275302V23.6759C0 23.8281 0.123257 23.9513 0.275302 23.9513H68.2751C68.4272 23.9513 68.5505 23.8281 68.5505 23.6759V0.275302C68.5505 0.123257 68.4272 0 68.2751 0Z" fill="white"/>
</mask>
<g mask="url(#mask0_11795_12595)">
<path d="M68.2751 0H0.275302C0.123257 0 0 0.123257 0 0.275302V23.6759C0 23.8281 0.123257 23.9513 0.275302 23.9513H68.2751C68.4272 23.9513 68.5505 23.8281 68.5505 23.6759V0.275302C68.5505 0.123257 68.4272 0 68.2751 0Z" fill="#0054FA" stroke="#0054FA" stroke-width="27.4615"/>
</g>
<path d="M58.345 5.3158L59.4551 11.8526H59.4903V5.3158H61.305V18.3543H59.4374L57.9574 10.7249H57.9222V18.3543H56.1074V5.3158H58.345Z" fill="white"/>
<path d="M51.4551 18.3543V5.3158H53.5695V18.3543H51.4551Z" fill="white"/>
<path d="M45.2313 5.3158H47.6629L49.2311 18.3543H47.1696L46.9405 15.5175H45.848L45.619 18.3543H43.6633L45.2313 5.3158ZM46.2005 11.1126L45.9891 13.7907H46.7995L46.5704 11.1126L46.412 8.8573H46.359L46.2005 11.1126Z" fill="white"/>
<path d="M39.3521 18.3543V12.6631H38.2245V18.3543H36.1101V5.3158H38.2245V10.8835H39.3521V5.3158H41.4488V18.3543H39.3521Z" fill="white"/>
<path d="M33.6739 13.0678V15.8693C33.6739 17.5608 32.8283 18.4946 31.2249 18.4946C29.6216 18.4946 28.6348 17.5608 28.6348 15.8693V7.79961C28.6348 6.10814 29.6216 5.17432 31.2249 5.17432C32.8283 5.17432 33.6739 6.10814 33.6739 7.79961V10.4954H31.7006V7.64103C31.7006 7.09484 31.5597 6.77768 31.2249 6.77768C30.8725 6.77768 30.7315 7.09484 30.7315 7.64103V16.0456C30.7315 16.5741 30.8725 16.8912 31.2249 16.8912C31.5597 16.8912 31.7006 16.5741 31.7006 16.0456V13.0678H33.6739Z" fill="white"/>
<path d="M22.3657 18.3543V5.3158H26.4534V7.0425H24.4624V10.9011H26.2421V12.6279H24.4624V16.6275H26.4534V18.3543H22.3657Z" fill="white"/>
<path d="M16.8838 18.3543H14.7871V5.3158H17.5357C19.0334 5.3158 19.9496 6.19676 19.9496 7.78252V10.9892C19.9496 12.5574 19.0334 13.4383 17.5357 13.4383H16.8838V18.3543ZM16.9015 11.8702H17.3596C17.712 11.8702 17.8529 11.5531 17.8529 10.9892V7.78252C17.8529 7.20107 17.712 6.88392 17.3596 6.88392H16.9015V11.8702Z" fill="white"/>
<path d="M8.56495 5.3158H10.9964L12.5646 18.3543H10.5031L10.274 15.5175H9.18163L8.95257 18.3543H6.99683L8.56495 5.3158ZM9.53402 11.1126L9.32258 13.7907H10.1331L9.90403 11.1126L9.74546 8.8573H9.69259L9.53402 11.1126Z" fill="white"/>
</g>
</g>
<defs>
<clipPath id="clip0_11795_12595">
<rect width="68" height="24" fill="white"/>
</clipPath>
<clipPath id="clip1_11795_12595">
<rect width="68" height="24" fill="white"/>
</clipPath>
</defs>
</svg>
