<svg width="960" height="192" viewBox="0 0 960 192" fill="none" xmlns="http://www.w3.org/2000/svg">
<path d="M178.092 89.9095C174.75 40.7781 132.225 3.67019 83.1079 7.01173C58.6333 8.67488 37.1494 20.0727 22.1503 37.1467L22.1046 37.1161C21.9978 37.2535 21.9062 37.3908 21.8147 37.5281C6.9224 54.7088 -1.45449 77.5351 0.20868 102.009C0.361265 104.344 0.635917 106.632 0.971603 108.906C0.971603 109.013 1.00212 109.104 1.01738 109.211C1.24626 110.706 1.50565 112.202 1.79556 113.667C1.79556 113.697 1.79556 113.728 1.81082 113.743C2.08547 115.07 2.37538 116.398 2.71107 117.71C13.0105 158.77 51.4771 187.852 95.2078 184.876C144.325 181.535 181.449 139.01 178.107 89.879L178.092 89.9095ZM158.683 91.237C159.095 97.2792 158.714 103.199 157.63 108.906C157.63 108.875 157.6 108.845 157.6 108.814C151.13 93.0222 138.343 81.609 127.113 75.3074C129.387 48.5445 120.308 37.2535 110.024 35.4225C109.749 35.3615 109.459 35.3157 109.185 35.2852C101.021 34.2323 93.5599 39.9999 92.5224 48.1631C91.4695 56.3262 97.2372 63.7875 105.4 64.825C106.118 64.9166 106.82 64.9471 107.506 64.9318C107.552 65.8321 107.582 66.7933 107.582 67.8004C98.0764 65.4506 89.196 64.9776 81.0938 65.71C78.0573 65.9084 75.0362 66.2898 72.015 66.8544C73.022 57.8215 76.4247 47.6596 83.0011 40.2441C89.3639 33.0575 98.8241 28.953 109.139 30.0058C111.092 30.2042 113.182 30.6924 115.059 31.318C115.151 31.3486 115.242 31.3791 115.318 31.3943C139.213 41.1291 156.806 63.818 158.668 91.237H158.683ZM96.5353 104.847C96.5353 104.847 96.5353 104.863 96.5201 104.878C94.3991 107.945 91.8662 110.966 88.8908 113.895C84.4354 109.165 80.8649 104.054 78.1489 98.7745C78.0116 98.4846 77.859 98.2252 77.7216 97.9353C77.7216 97.9353 77.7216 97.92 77.7216 97.9048C76.1348 94.5327 74.7768 90.825 73.7239 86.7816C80.0562 85.2863 86.2664 84.737 92.2019 85.0269C92.5224 85.0421 92.8275 85.0574 93.1479 85.0726H93.1785C96.9015 85.3778 100.777 86.0644 104.79 87.163C102.913 93.3884 100.289 99.0491 97.0694 104.039C96.9015 104.298 96.7337 104.557 96.5506 104.832L96.5353 104.847ZM66.0794 30.1889C66.0794 30.1889 66.0489 30.2347 66.0337 30.25C55.5816 43.7382 52.1027 60.507 52.2553 73.3849C27.9333 84.798 22.7149 98.3015 26.2549 108.128C26.3464 108.402 26.4532 108.662 26.56 108.921C29.7338 116.505 38.4616 120.09 46.0451 116.916C53.6285 113.743 57.2143 105.015 54.0405 97.4318C53.7659 96.7757 53.4302 96.1501 53.0792 95.555C53.8422 95.0515 54.6661 94.548 55.5511 94.0292C58.2671 103.444 62.2801 111.393 66.9644 118.046C68.6581 120.563 70.4891 122.989 72.488 125.324C64.1569 128.97 53.6591 131.107 43.9394 129.123C34.5402 127.201 26.2549 121.067 21.9978 111.607C21.1891 109.806 20.5635 107.762 20.1667 105.824C19.9226 104.13 19.7242 102.421 19.6022 100.682C17.4355 68.7464 37.241 40.3204 66.0794 30.1889ZM93.8804 165.483C74.9141 166.78 57.1838 160.311 43.7868 148.806C60.6932 151.11 76.9587 145.739 88.0364 139.163C110.085 154.528 124.397 152.3 131.142 144.32C131.325 144.107 131.508 143.878 131.676 143.649C136.665 137.103 135.399 127.765 128.853 122.776C122.307 117.786 112.969 119.053 107.979 125.598C107.552 126.163 107.17 126.773 106.835 127.384C106.026 126.972 105.172 126.514 104.302 126.01C111.107 118.946 115.944 111.485 119.362 104.1C120.705 101.368 121.88 98.5609 122.902 95.6618C130.226 101.063 137.336 109.074 140.48 118.488C143.516 127.582 142.356 137.835 136.284 146.243C135.139 147.83 133.674 149.401 132.194 150.713C132.179 150.729 132.149 150.759 132.133 150.774C121.513 159.121 108.361 164.492 93.8956 165.468L93.8804 165.483Z" fill="url(#paint0_linear_0_106)"/>
<path style="mix-blend-mode:overlay" opacity="0.9" d="M110.024 35.4071C109.75 35.3461 109.46 35.3003 109.185 35.2698C107.735 35.0867 106.316 35.1172 104.958 35.3461C113.488 39.9846 119.698 52.9083 116.433 78.42C115.349 86.873 112.832 94.8988 109.216 102.284C106.271 108.631 102.273 115.024 96.902 121.173C99.4807 123.111 101.998 124.729 104.302 126.041C111.108 118.976 115.945 111.515 119.362 104.13C122.994 96.7603 125.496 88.7192 126.58 80.2662C130.471 49.9024 120.919 37.3602 110.024 35.4224V35.4071Z" fill="url(#paint1_radial_0_106)"/>
<g style="mix-blend-mode:overlay" opacity="0.8">
<path d="M116.433 78.4047C119.698 52.9083 113.488 39.9693 104.958 35.3308C104.623 35.3766 104.302 35.4529 103.967 35.5292C112.313 40.3355 118.325 53.2439 115.105 78.4047C114.022 86.8577 111.504 94.8835 107.888 102.269C105.05 108.402 101.205 114.582 96.0931 120.548C96.3678 120.761 96.6272 120.96 96.9018 121.158C102.273 115.009 106.271 108.601 109.215 102.269C112.847 94.8988 115.349 86.8577 116.433 78.4047Z" fill="white"/>
</g>
<path style="mix-blend-mode:overlay" opacity="0.5" d="M84.0083 136.249C83.1996 135.638 82.4367 134.997 81.6585 134.357C69.0703 139.605 51.6299 142.901 34.2963 138.873C37.1343 142.489 40.2928 145.831 43.7718 148.806C60.6781 151.11 76.9437 145.739 88.0213 139.163C86.7091 138.247 85.3663 137.271 83.9931 136.233L84.0083 136.249Z" fill="url(#paint2_radial_0_106)"/>
<path style="mix-blend-mode:overlay" opacity="0.6" d="M81.6733 134.356C81.2918 134.036 80.8951 133.716 80.5289 133.395C67.8491 138.461 50.3171 141.497 33.0293 137.179C33.4565 137.744 33.8838 138.324 34.311 138.873C51.6294 142.901 69.085 139.605 81.6733 134.356Z" fill="url(#paint3_linear_0_106)"/>
<path style="mix-blend-mode:overlay" opacity="0.9" d="M26.27 108.143C26.3616 108.418 26.4684 108.677 26.5752 108.936C27.1398 110.279 27.8722 111.484 28.7572 112.568C28.513 102.864 36.6 91.008 60.3116 81.0902C68.1697 77.8096 76.3788 75.9634 84.5878 75.4141C91.5457 74.7885 99.0986 75.0479 107.109 76.6348C107.491 73.4305 107.643 70.4399 107.613 67.8003C98.1068 65.4353 89.2112 64.9775 81.1089 65.7099C72.9151 66.2592 64.6908 68.1054 56.8327 71.386C28.5893 83.1958 22.5012 97.7368 26.27 108.158V108.143Z" fill="url(#paint4_radial_0_106)"/>
<g style="mix-blend-mode:overlay" opacity="0.8">
<path d="M60.312 81.1054C36.6004 91.0232 28.5134 102.879 28.7575 112.583C28.9712 112.842 29.2 113.087 29.4289 113.331C29.4137 103.703 37.5922 92.0455 60.9834 82.2498C68.8415 78.9693 77.0506 77.123 85.2596 76.5737C91.9886 75.9634 99.2669 76.2075 106.988 77.6418C107.033 77.3061 107.079 76.9704 107.11 76.6347C99.099 75.0632 91.5461 74.7885 84.5882 75.4141C76.3944 75.9634 68.1701 77.8096 60.312 81.0901V81.1054Z" fill="white"/>
</g>
<path style="mix-blend-mode:overlay" opacity="0.4" d="M126.61 80.251C126.488 81.258 126.32 82.2345 126.152 83.2263C136.985 91.4963 148.567 104.969 153.754 121.982C155.463 117.71 156.776 113.3 157.615 108.799C151.16 93.0068 138.374 81.6089 127.144 75.3073C127.006 76.9094 126.838 78.542 126.625 80.251H126.61Z" fill="url(#paint5_radial_0_106)"/>
<path style="mix-blend-mode:overlay" opacity="0.5" d="M126.152 83.2263C126.061 83.7145 125.984 84.2181 125.893 84.7063C136.619 93.1594 148.017 106.815 152.915 123.95C153.205 123.294 153.48 122.638 153.739 121.982C148.552 104.969 136.986 91.5115 126.137 83.2263H126.152Z" fill="url(#paint6_linear_0_106)"/>
<path style="mix-blend-mode:overlay" opacity="0.9" d="M131.141 144.305C131.324 144.091 131.507 143.862 131.675 143.633C132.56 142.474 133.231 141.223 133.735 139.941C125.45 145.007 111.152 143.923 90.6909 128.345C83.9161 123.188 78.2095 116.993 73.6319 110.157C69.6037 104.435 66.0637 97.7826 63.424 90.0467C60.4639 91.3132 57.7937 92.6864 55.5049 94.0291C58.2209 103.443 62.2644 111.378 66.9487 118.03C71.5263 124.866 77.2329 131.045 84.0077 136.218C108.36 154.772 124 152.773 131.126 144.305H131.141Z" fill="url(#paint7_radial_0_106)"/>
<g style="mix-blend-mode:overlay" opacity="0.8">
<path d="M90.7064 128.345C111.153 143.923 125.465 145.007 133.751 139.941C133.873 139.621 133.979 139.3 134.071 138.995C125.74 143.832 111.549 142.565 91.3778 127.2C84.6031 122.043 78.8964 115.848 74.3189 109.013C70.4279 103.489 66.9948 97.0655 64.3856 89.6653C64.0652 89.8026 63.76 89.9247 63.4548 90.062C66.0945 97.7979 69.6345 104.45 73.6627 110.172C78.2403 117.008 83.9469 123.188 90.7217 128.36L90.7064 128.345Z" fill="white"/>
</g>
<path style="mix-blend-mode:overlay" opacity="0.3" d="M56.8179 71.3555C57.7487 70.974 58.6794 70.6231 59.6255 70.2721C61.3649 56.7534 67.2394 39.9846 79.3852 26.9999C74.8381 27.656 70.3674 28.7241 66.034 30.2346C55.582 43.7229 52.103 60.4916 52.2556 73.3695C53.7052 72.6829 55.2158 72.0116 56.8027 71.3555H56.8179Z" fill="url(#paint8_radial_0_106)"/>
<path style="mix-blend-mode:overlay" opacity="0.4" d="M59.6249 70.2721C60.0979 70.1043 60.5556 69.9212 61.0287 69.7533C62.9817 56.2346 69.1156 39.5421 81.4902 26.7252C80.7884 26.8015 80.0865 26.8931 79.3846 26.9846C67.2388 39.9846 61.3643 56.7381 59.6249 70.2569V70.2721Z" fill="url(#paint9_linear_0_106)"/>
<path style="mix-blend-mode:multiply" opacity="0.4" d="M83.1083 7.01164C58.6337 8.67479 37.1498 20.0727 22.1507 37.1466C22.0439 37.2686 21.9219 37.406 21.8151 37.528C24.7294 40.4271 34.2812 46.1337 38.1416 48.5139C45.7403 40.3508 55.2769 33.9729 66.0951 30.1888C66.8428 29.2123 67.6362 28.251 68.4602 27.3203C78.5308 15.9529 92.2786 9.95647 108.239 9.95647C110.009 9.95647 113.625 10.2464 113.701 10.2464C104.028 7.46939 93.7282 6.27925 83.1083 7.01164Z" fill="url(#paint10_linear_0_106)"/>
<path style="mix-blend-mode:multiply" opacity="0.4" d="M93.8802 165.498C74.914 166.795 57.1836 160.326 43.7867 148.821C42.5355 148.653 41.2843 148.455 40.0331 148.196C25.1561 145.159 13.0714 136.249 5.10652 122.44C4.22152 120.899 3.42808 119.342 2.71094 117.74C13.0104 158.8 51.477 187.882 95.1924 184.907C95.3908 180.406 94.0633 169.954 93.865 165.498H93.8802Z" fill="url(#paint11_linear_0_106)"/>
<path style="mix-blend-mode:multiply" opacity="0.4" d="M178.092 89.9094C175.346 89.6347 161.979 90.6875 158.683 91.2368C159.095 97.2791 158.714 103.199 157.63 108.906C158.088 110.035 158.531 111.195 158.927 112.369C163.734 126.773 162.055 141.68 154.091 155.504C153.221 157.015 152.275 158.464 151.283 159.853C151.268 159.883 151.237 159.914 151.222 159.929C151.222 159.929 151.268 159.899 151.283 159.868C169.395 142.245 179.938 117.099 178.092 89.9246V89.9094Z" fill="url(#paint12_linear_0_106)"/>
<path style="mix-blend-mode:multiply" opacity="0.5" d="M109.154 29.9905C111.107 30.1888 113.198 30.6771 115.075 31.3027C115.166 31.3332 115.258 31.3637 115.334 31.379C123.024 34.5069 130.058 38.9928 136.131 44.5315C136.131 44.5315 136.162 44.5468 136.177 44.5621C139.107 41.2205 144.737 37.5433 144.737 37.5433C144.737 37.5433 136.116 28.7241 122.917 25.9776C113.686 24.055 92.8582 22.2088 79.7207 44.5621C79.7207 44.5621 79.7665 44.5163 79.8428 44.44C80.8193 42.9752 81.8416 41.5409 83.0165 40.2287C89.3793 33.0421 98.8396 28.9377 109.154 29.9905Z" fill="url(#paint13_linear_0_106)"/>
<path style="mix-blend-mode:multiply" opacity="0.5" d="M136.284 146.258C135.139 147.845 133.674 149.416 132.194 150.729C132.133 150.79 132.057 150.851 131.996 150.912C125.435 156.008 118.035 159.853 110.207 162.34C110.192 162.34 110.176 162.34 110.161 162.355C111.595 166.567 111.962 173.28 111.962 173.28C111.962 173.28 123.909 170.229 132.881 160.173C139.152 153.139 151.176 136.02 138.389 113.468C138.389 113.468 138.405 113.544 138.435 113.636C139.229 115.207 139.946 116.825 140.495 118.488C143.531 127.582 142.372 137.835 136.299 146.243L136.284 146.258Z" fill="url(#paint14_linear_0_106)"/>
<path style="mix-blend-mode:multiply" opacity="0.5" d="M22.0285 111.637C21.2198 109.837 20.5942 107.792 20.1975 105.854C20.1822 105.763 20.1517 105.671 20.1364 105.58C19.0073 97.3554 19.3735 89.0244 21.1283 80.9986C21.1283 80.9834 21.1283 80.9681 21.1283 80.9528C16.7643 80.0984 10.7678 77.0467 10.7678 77.0467C10.7678 77.0467 7.44141 88.9329 11.668 101.719C14.6281 110.676 23.4323 129.642 49.3564 129.84C49.3564 129.84 49.2801 129.825 49.1886 129.794C47.4338 129.687 45.6791 129.504 43.9549 129.153C34.5557 127.231 26.2704 121.097 22.0132 111.637H22.0285Z" fill="url(#paint15_linear_0_106)"/>
<path style="mix-blend-mode:multiply" opacity="0.6" d="M105.401 64.8097C106.118 64.9012 106.82 64.9317 107.506 64.9165C107.506 64.9165 107.033 55.6547 105.904 50.8942C104.76 46.1489 103.082 42.9904 101.251 41.2052C99.923 39.9235 95.7575 38.3367 92.5227 48.1325C91.4699 56.2956 97.2376 63.7568 105.401 64.7944V64.8097Z" fill="url(#paint16_linear_0_106)"/>
<path style="mix-blend-mode:multiply" opacity="0.5" d="M54.0556 97.4622C53.781 96.8061 53.4453 96.1805 53.0943 95.5855C53.0943 95.5855 45.2973 100.621 41.7573 103.977C38.2173 107.334 36.3253 110.371 35.6997 112.858C35.2572 114.643 35.9591 119.037 46.0602 116.947C53.6436 113.773 57.2294 105.046 54.0556 97.4622Z" fill="url(#paint17_linear_0_106)"/>
<path style="mix-blend-mode:multiply" opacity="0.6" d="M107.994 125.583C107.567 126.148 107.186 126.758 106.85 127.368C106.85 127.368 115.105 131.595 119.789 132.983C124.474 134.372 128.044 134.494 130.501 133.792C132.271 133.288 135.719 130.466 128.868 122.776C122.322 117.786 112.984 119.053 107.994 125.598V125.583Z" fill="url(#paint18_linear_0_106)"/>
<path style="mix-blend-mode:multiply" opacity="0.3" d="M104.79 87.1782C102.913 93.4035 100.289 99.0643 97.0694 104.054C96.9016 104.313 96.7337 104.573 96.5506 104.847C96.5506 104.847 96.5506 104.862 96.5354 104.878C94.4144 107.945 91.8815 110.966 88.9061 113.895C90.9508 116.062 93.148 118.168 95.5741 120.166C98.6258 122.562 101.601 124.5 104.302 126.026C111.107 118.961 115.944 111.5 119.362 104.115C120.705 101.384 121.88 98.576 122.902 95.677C119.759 93.373 116.585 91.5268 113.655 90.2756C110.634 88.9786 107.674 87.9716 104.775 87.1782H104.79Z" fill="url(#paint19_linear_0_106)"/>
<path style="mix-blend-mode:multiply" opacity="0.3" d="M43.7868 148.821C60.6932 151.125 76.9587 145.754 88.0364 139.178C86.7241 138.263 85.3814 137.286 84.0081 136.249C79.7358 132.983 75.8906 129.321 72.4727 125.339C64.1416 128.986 53.6438 131.122 43.9242 129.138C34.525 127.216 26.2396 121.082 21.9825 111.622C21.1738 109.821 20.5482 107.777 20.1515 105.839C22.6081 123.081 31.3054 138.125 43.7716 148.821H43.7868Z" fill="url(#paint20_linear_0_106)"/>
<path style="mix-blend-mode:multiply" opacity="0.3" d="M88.9059 113.895C84.4504 109.165 80.8799 104.054 78.1639 98.7744C78.0266 98.4845 77.874 98.2251 77.7367 97.9352C77.7367 97.9352 77.7367 97.92 77.7367 97.9047C76.1498 94.5326 74.7918 90.8249 73.739 86.7815C70.8399 87.4681 67.9255 88.3226 64.9959 89.4212C61.3949 90.8554 58.2364 92.4728 55.5662 94.0291C58.2822 103.443 62.2951 111.393 66.9795 118.046C68.6732 120.563 70.5042 122.989 72.5031 125.324C76.0735 123.767 79.2625 121.921 81.8107 120.014C84.4352 118.046 86.785 115.986 88.9212 113.88L88.9059 113.895Z" fill="url(#paint21_linear_0_106)"/>
<path style="mix-blend-mode:multiply" opacity="0.3" d="M66.034 30.2499C55.582 43.7381 52.103 60.5069 52.2556 73.3848C53.7052 72.6982 55.231 72.0268 56.8179 71.3554C61.7769 69.2803 66.8732 67.785 72.0153 66.8238C73.0224 57.7909 76.425 47.629 83.0014 40.2135C89.3642 33.0269 98.8244 28.9224 109.139 29.9752C111.092 30.1736 113.183 30.6618 115.059 31.2874C115.151 31.318 115.243 31.3485 115.319 31.3637C105.813 27.4881 95.315 25.6572 84.4052 26.4048C77.9967 26.8473 71.8627 28.1442 66.0645 30.1888C66.0493 30.2041 66.034 30.2346 66.0188 30.2499H66.034Z" fill="url(#paint22_linear_0_106)"/>
<path style="mix-blend-mode:multiply" opacity="0.3" d="M157.615 108.784C151.146 92.9916 138.359 81.5785 127.129 75.2768C126.991 76.8789 126.824 78.5268 126.595 80.251C125.908 85.5761 124.657 90.7334 122.917 95.677C130.242 101.078 137.352 109.089 140.495 118.503C143.532 127.597 142.372 137.851 136.299 146.258C135.155 147.845 133.69 149.416 132.21 150.729C132.195 150.744 132.164 150.774 132.149 150.79C145.241 140.506 154.502 125.675 157.676 108.891C157.676 108.86 157.646 108.83 157.646 108.799L157.615 108.784Z" fill="url(#paint23_linear_0_106)"/>
<path style="mix-blend-mode:multiply" opacity="0.3" d="M71.9693 77.5655C72.366 80.8308 72.9611 83.8824 73.724 86.7815C80.0562 85.2861 86.2664 84.7369 92.202 85.0268C92.5224 85.042 92.8276 85.0573 93.148 85.0725H93.1785C96.9016 85.3777 100.777 86.0643 104.79 87.1629C105.645 84.3096 106.362 81.3495 106.881 78.2674C107.445 74.4223 107.613 70.8672 107.598 67.7697C98.0917 65.42 89.2113 64.947 81.1091 65.6794C78.0726 65.8777 75.0515 66.2592 72.0303 66.8237C71.6031 70.6993 71.5878 74.3765 71.9845 77.5502L71.9693 77.5655Z" fill="url(#paint24_linear_0_106)"/>
<path d="M445.972 70.1857L434.424 102.355H434.513L446.038 70.3798L445.972 70.1857Z" fill="white"/>
<path d="M243.802 78.2228L252.466 102.356H235.1L230.718 114.519H256.897L264.318 135.135H280.919L250.652 59.2205L243.802 78.2228Z" fill="white"/>
<path d="M229.376 102.355L240.918 70.1856L240.962 70.3076L245.838 56.7853H233.086L201.948 135.135H217.589L229.409 102.355H229.376Z" fill="white"/>
<path d="M331.226 94.7739C327.443 92.5442 322.429 90.4642 316.173 88.5396C312.601 87.3749 309.8 86.2933 307.77 85.2894C305.74 84.2966 304.331 83.1595 303.543 81.8894C302.75 80.6192 302.356 79.1217 302.356 77.4023C302.356 74.3739 303.527 72.0388 305.862 70.3915C308.197 68.7387 311.464 67.9178 315.657 67.9178C319.096 67.9178 322.684 68.4336 326.428 69.4653C330.172 70.4969 333.489 71.9057 336.378 73.6917L338.542 61.0124C335.585 59.2264 331.997 57.801 327.77 56.7361C323.544 55.6711 319.334 55.1387 315.141 55.1387C309.434 55.1387 304.486 56.0649 300.293 57.923C296.1 59.7811 292.855 62.4268 290.553 65.86C288.252 69.2989 287.098 73.3533 287.098 78.0235C287.098 82.0114 287.874 85.4613 289.416 88.3843C290.964 91.3073 293.487 93.831 296.993 95.9608C300.498 98.0907 305.102 100.015 310.809 101.735C314.936 102.972 318.131 104.142 320.399 105.24C322.668 106.338 324.248 107.558 325.141 108.901C326.034 110.243 326.484 111.84 326.484 113.693C326.484 116.927 325.158 119.45 322.512 121.269C319.867 123.089 316.206 123.998 311.53 123.998C307.476 123.998 303.233 123.366 298.801 122.09C294.369 120.82 290.503 119.189 287.203 117.193L285.761 130.282C287.686 131.591 290.093 132.723 292.977 133.682C295.867 134.648 298.973 135.402 302.306 135.951C305.64 136.5 308.957 136.777 312.257 136.777C321.536 136.777 328.819 134.664 334.11 130.438C339.401 126.211 342.047 120.354 342.047 112.861C342.047 108.873 341.187 105.423 339.468 102.5C337.748 99.5771 334.997 97.0035 331.22 94.7683L331.226 94.7739Z" fill="white"/>
<path d="M413.497 56.7853H347.211V69.5644H413.497V56.7853Z" fill="white"/>
<path d="M388.238 74.9175H372.464V135.136H388.238V74.9175Z" fill="white"/>
<path d="M434.424 102.355L445.972 70.1856L446.038 70.3797L450.941 56.7853H438.134L407.002 135.135H422.671L430.092 114.519H430.125L434.513 102.355H434.424Z" fill="white"/>
<path d="M448.878 78.2889L457.519 102.355H440.203L435.816 114.519H461.951L469.372 135.135H485.973L455.733 59.2866L448.878 78.2889Z" fill="white"/>
<path d="M537.001 103.381C540.783 101.252 543.873 98.3841 546.28 94.7733C548.687 91.1681 549.891 86.9583 549.891 82.144C549.891 76.9192 548.72 72.421 546.385 68.6383C544.045 64.8611 540.717 61.9381 536.385 59.8748C532.053 57.8115 526.9 56.7799 520.921 56.7799H515.441V68.6383H518.858C529.308 68.6383 534.527 73.1032 534.527 82.0386C534.527 90.974 529.13 95.4389 518.342 95.4389H515.441V107.292H523.495L539.99 135.124H557.617L536.995 103.37L537.001 103.381Z" fill="white"/>
<path d="M510.089 56.7853H495.147V135.135H510.089V56.7853Z" fill="white"/>
<path d="M579.991 136.151V128.299L611.856 87.8174V87.2812H581.025V77.3235H626.141V85.6727L595.502 125.657V126.193H627.214V136.151H579.991Z" fill="white"/>
<path d="M637.329 136.151V57.7144H649.163V95.1708H650.121L683.02 57.7144H697.918L666.283 93.0261L698.033 136.151H683.786L658.432 101.107L649.163 111.754V136.151H637.329Z" fill="white"/>
<path d="M720.834 137.453C717.107 137.453 713.736 136.764 710.724 135.385C707.711 133.98 705.323 131.951 703.562 129.295C701.825 126.64 700.957 123.384 700.957 119.529C700.957 116.21 701.596 113.478 702.872 111.333C704.149 109.188 705.872 107.49 708.043 106.239C710.213 104.988 712.638 104.043 715.319 103.405C718 102.767 720.732 102.282 723.515 101.95C727.039 101.541 729.899 101.209 732.094 100.954C734.29 100.673 735.886 100.226 736.882 99.6135C737.878 99.0007 738.375 98.0049 738.375 96.6262V96.3581C738.375 93.0133 737.431 90.4217 735.541 88.5834C733.677 86.745 730.894 85.8259 727.192 85.8259C723.337 85.8259 720.298 86.6812 718.077 88.3919C715.881 90.077 714.362 91.9537 713.519 94.0218L702.757 91.5707C704.034 87.9961 705.898 85.1109 708.349 82.9151C710.826 80.6938 713.673 79.0852 716.89 78.0894C720.107 77.0681 723.49 76.5575 727.039 76.5575C729.388 76.5575 731.877 76.8384 734.507 77.4001C737.163 77.9363 739.639 78.932 741.937 80.3874C744.261 81.8428 746.163 83.9237 747.644 86.6301C749.125 89.3111 749.865 92.7963 749.865 97.0858V136.151H738.682V128.108H738.222C737.482 129.589 736.371 131.044 734.89 132.474C733.409 133.904 731.507 135.091 729.184 136.036C726.86 136.981 724.077 137.453 720.834 137.453ZM723.324 128.261C726.49 128.261 729.196 127.636 731.443 126.385C733.716 125.133 735.439 123.499 736.614 121.482C737.814 119.44 738.414 117.257 738.414 114.933V107.35C738.005 107.758 737.214 108.141 736.039 108.499C734.89 108.831 733.575 109.124 732.094 109.38C730.613 109.61 729.171 109.827 727.767 110.031C726.362 110.21 725.188 110.363 724.243 110.49C722.022 110.771 719.992 111.244 718.154 111.907C716.341 112.571 714.885 113.529 713.787 114.78C712.715 116.005 712.179 117.64 712.179 119.682C712.179 122.516 713.226 124.661 715.319 126.116C717.413 127.546 720.081 128.261 723.324 128.261Z" fill="white"/>
<path d="M788.264 77.3235V86.5152H756.131V77.3235H788.264ZM764.748 63.2294H776.2V118.878C776.2 121.099 776.532 122.772 777.196 123.895C777.86 124.993 778.715 125.746 779.762 126.155C780.834 126.538 781.996 126.729 783.247 126.729C784.166 126.729 784.97 126.665 785.66 126.538C786.349 126.41 786.885 126.308 787.268 126.231L789.336 135.691C788.673 135.947 787.728 136.202 786.502 136.457C785.277 136.738 783.745 136.891 781.906 136.917C778.894 136.968 776.085 136.432 773.481 135.308C770.876 134.185 768.77 132.449 767.161 130.1C765.553 127.751 764.748 124.801 764.748 121.252V63.2294Z" fill="white"/>
<path d="M813.737 137.453C810.009 137.453 806.639 136.764 803.626 135.385C800.613 133.98 798.226 131.951 796.464 129.295C794.728 126.64 793.86 123.384 793.86 119.529C793.86 116.21 794.498 113.478 795.775 111.333C797.052 109.188 798.775 107.49 800.945 106.239C803.116 104.988 805.541 104.043 808.222 103.405C810.903 102.767 813.635 102.282 816.418 101.95C819.942 101.541 822.801 101.209 824.997 100.954C827.193 100.673 828.789 100.226 829.784 99.6135C830.78 99.0007 831.278 98.0049 831.278 96.6262V96.3581C831.278 93.0133 830.333 90.4217 828.444 88.5834C826.58 86.745 823.797 85.8259 820.095 85.8259C816.239 85.8259 813.201 86.6812 810.98 88.3919C808.784 90.077 807.265 91.9537 806.422 94.0218L795.66 91.5707C796.937 87.9961 798.801 85.1109 801.252 82.9151C803.728 80.6938 806.575 79.0852 809.792 78.0894C813.009 77.0681 816.393 76.5575 819.942 76.5575C822.291 76.5575 824.78 76.8384 827.41 77.4001C830.065 77.9363 832.542 78.932 834.84 80.3874C837.163 81.8428 839.066 83.9237 840.546 86.6301C842.027 89.3111 842.768 92.7963 842.768 97.0858V136.151H831.585V128.108H831.125C830.384 129.589 829.274 131.044 827.793 132.474C826.312 133.904 824.41 135.091 822.086 136.036C819.763 136.981 816.98 137.453 813.737 137.453ZM816.227 128.261C819.393 128.261 822.099 127.636 824.346 126.385C826.618 125.133 828.342 123.499 829.516 121.482C830.716 119.44 831.316 117.257 831.316 114.933V107.35C830.908 107.758 830.116 108.141 828.942 108.499C827.793 108.831 826.478 109.124 824.997 109.38C823.516 109.61 822.074 109.827 820.669 110.031C819.265 110.21 818.09 110.363 817.146 110.49C814.924 110.771 812.895 111.244 811.056 111.907C809.243 112.571 807.788 113.529 806.69 114.78C805.618 116.005 805.082 117.64 805.082 119.682C805.082 122.516 806.128 124.661 808.222 126.116C810.316 127.546 812.984 128.261 816.227 128.261Z" fill="white"/>
<path d="M865.158 101.222V136.151H853.706V77.3235H864.698V86.8982H865.426C866.779 83.7832 868.898 81.281 871.784 79.3916C874.694 77.5022 878.358 76.5575 882.775 76.5575C886.784 76.5575 890.295 77.4001 893.308 79.0852C896.32 80.7449 898.657 83.2215 900.316 86.5152C901.976 89.8089 902.806 93.8814 902.806 98.7326V136.151H891.354V100.111C891.354 95.8474 890.244 92.5154 888.022 90.1153C885.801 87.6897 882.75 86.4769 878.869 86.4769C876.213 86.4769 873.852 87.0514 871.784 88.2004C869.741 89.3494 868.12 91.0345 866.92 93.2559C865.745 95.4517 865.158 98.1071 865.158 101.222Z" fill="white"/>
<path d="M930.969 137.453C927.242 137.453 923.871 136.764 920.858 135.385C917.846 133.98 915.458 131.951 913.696 129.295C911.96 126.64 911.092 123.384 911.092 119.529C911.092 116.21 911.73 113.478 913.007 111.333C914.284 109.188 916.007 107.49 918.177 106.239C920.348 104.988 922.773 104.043 925.454 103.405C928.135 102.767 930.867 102.282 933.65 101.95C937.174 101.541 940.033 101.209 942.229 100.954C944.425 100.673 946.021 100.226 947.017 99.6135C948.012 99.0007 948.51 98.0049 948.51 96.6262V96.3581C948.51 93.0133 947.566 90.4217 945.676 88.5834C943.812 86.745 941.029 85.8259 937.327 85.8259C933.472 85.8259 930.433 86.6812 928.212 88.3919C926.016 90.077 924.497 91.9537 923.654 94.0218L912.892 91.5707C914.169 87.9961 916.033 85.1109 918.484 82.9151C920.961 80.6938 923.807 79.0852 927.025 78.0894C930.242 77.0681 933.625 76.5575 937.174 76.5575C939.523 76.5575 942.012 76.8384 944.642 77.4001C947.297 77.9363 949.774 78.932 952.072 80.3874C954.396 81.8428 956.298 83.9237 957.779 86.6301C959.26 89.3111 960 92.7963 960 97.0858V136.151H948.817V128.108H948.357C947.617 129.589 946.506 131.044 945.025 132.474C943.544 133.904 941.642 135.091 939.318 136.036C936.995 136.981 934.212 137.453 930.969 137.453ZM933.459 128.261C936.625 128.261 939.331 127.636 941.578 126.385C943.851 125.133 945.574 123.499 946.749 121.482C947.949 119.44 948.549 117.257 948.549 114.933V107.35C948.14 107.758 947.349 108.141 946.174 108.499C945.025 108.831 943.71 109.124 942.229 109.38C940.748 109.61 939.306 109.827 937.901 110.031C936.497 110.21 935.323 110.363 934.378 110.49C932.157 110.771 930.127 111.244 928.288 111.907C926.476 112.571 925.02 113.529 923.922 114.78C922.85 116.005 922.314 117.64 922.314 119.682C922.314 122.516 923.361 124.661 925.454 126.116C927.548 127.546 930.216 128.261 933.459 128.261Z" fill="white"/>
<defs>
<linearGradient id="paint0_linear_0_106" x1="28.3148" y1="156.801" x2="141.988" y2="43.1106" gradientUnits="userSpaceOnUse">
<stop stop-color="#E6007A"/>
<stop offset="0.21" stop-color="#703AC2"/>
<stop offset="0.46" stop-color="#0070EB"/>
<stop offset="0.77" stop-color="#0297FB"/>
<stop offset="1" stop-color="#0AE2FF"/>
</linearGradient>
<radialGradient id="paint1_radial_0_106" cx="0" cy="0" r="1" gradientUnits="userSpaceOnUse" gradientTransform="translate(114.571 77.9012) scale(33.9043 33.9037)">
<stop stop-color="white"/>
<stop offset="1" stop-color="white" stop-opacity="0"/>
</radialGradient>
<radialGradient id="paint2_radial_0_106" cx="0" cy="0" r="1" gradientUnits="userSpaceOnUse" gradientTransform="translate(64.4622 140.795) scale(19.7292 19.7288)">
<stop stop-color="white"/>
<stop offset="1" stop-color="white" stop-opacity="0"/>
</radialGradient>
<linearGradient id="paint3_linear_0_106" x1="34.8603" y1="137.454" x2="53.8724" y2="137.195" gradientUnits="userSpaceOnUse">
<stop stop-color="white" stop-opacity="0"/>
<stop offset="1" stop-color="white"/>
</linearGradient>
<radialGradient id="paint4_radial_0_106" cx="0" cy="0" r="1" gradientUnits="userSpaceOnUse" gradientTransform="translate(60.8231 82.9656) rotate(-120) scale(33.9038 33.9041)">
<stop stop-color="white"/>
<stop offset="1" stop-color="white" stop-opacity="0"/>
</radialGradient>
<radialGradient id="paint5_radial_0_106" cx="0" cy="0" r="1" gradientUnits="userSpaceOnUse" gradientTransform="translate(140.346 94.9132) rotate(-120) scale(19.7289 19.7291)">
<stop stop-color="white"/>
<stop offset="1" stop-color="white" stop-opacity="0"/>
</radialGradient>
<linearGradient id="paint6_linear_0_106" x1="152.246" y1="122.206" x2="142.515" y2="105.871" gradientUnits="userSpaceOnUse">
<stop stop-color="white" stop-opacity="0"/>
<stop offset="1" stop-color="white"/>
</linearGradient>
<radialGradient id="paint7_radial_0_106" cx="0" cy="0" r="1" gradientUnits="userSpaceOnUse" gradientTransform="translate(90.468 125.412) rotate(120) scale(33.9039 33.9041)">
<stop stop-color="white"/>
<stop offset="1" stop-color="white" stop-opacity="0"/>
</radialGradient>
<radialGradient id="paint8_radial_0_106" cx="0" cy="0" r="1" gradientUnits="userSpaceOnUse" gradientTransform="translate(62.6616 52.15) rotate(120) scale(19.7289 19.7291)">
<stop stop-color="white"/>
<stop offset="1" stop-color="white" stop-opacity="0"/>
</radialGradient>
<linearGradient id="paint9_linear_0_106" x1="80.3424" y1="28.178" x2="71.0745" y2="44.7801" gradientUnits="userSpaceOnUse">
<stop stop-color="white" stop-opacity="0"/>
<stop offset="1" stop-color="white"/>
</linearGradient>
<linearGradient id="paint10_linear_0_106" x1="84.4815" y1="19.737" x2="55.4295" y2="28.1903" gradientUnits="userSpaceOnUse">
<stop stop-color="#231F20"/>
<stop offset="1" stop-color="white"/>
</linearGradient>
<linearGradient id="paint11_linear_0_106" x1="29.5963" y1="130.511" x2="53.8874" y2="155.871" gradientUnits="userSpaceOnUse">
<stop stop-color="#231F20"/>
<stop offset="1" stop-color="white"/>
</linearGradient>
<linearGradient id="paint12_linear_0_106" x1="159.965" y1="126.697" x2="168.418" y2="101.002" gradientUnits="userSpaceOnUse">
<stop stop-color="#231F20"/>
<stop offset="1" stop-color="white"/>
</linearGradient>
<linearGradient id="paint13_linear_0_106" x1="97.7104" y1="34.4459" x2="136.65" y2="43.357" gradientUnits="userSpaceOnUse">
<stop stop-color="#231F20"/>
<stop offset="1" stop-color="white"/>
</linearGradient>
<linearGradient id="paint14_linear_0_106" x1="138.155" y1="134.117" x2="110.948" y2="163.39" gradientUnits="userSpaceOnUse">
<stop stop-color="#231F20"/>
<stop offset="1" stop-color="white"/>
</linearGradient>
<linearGradient id="paint15_linear_0_106" x1="31.5985" y1="119.32" x2="19.8594" y2="81.1351" gradientUnits="userSpaceOnUse">
<stop stop-color="#231F20"/>
<stop offset="1" stop-color="white"/>
</linearGradient>
<linearGradient id="paint16_linear_0_106" x1="106.225" y1="48.8038" x2="93.9114" y2="61.1326" gradientUnits="userSpaceOnUse">
<stop stop-color="#231F20"/>
<stop offset="1" stop-color="white"/>
</linearGradient>
<linearGradient id="paint17_linear_0_106" x1="39.7891" y1="104.729" x2="56.6174" y2="109.25" gradientUnits="userSpaceOnUse">
<stop stop-color="#231F20"/>
<stop offset="1" stop-color="white"/>
</linearGradient>
<linearGradient id="paint18_linear_0_106" x1="121.435" y1="134.305" x2="116.928" y2="117.484" gradientUnits="userSpaceOnUse">
<stop stop-color="#231F20"/>
<stop offset="1" stop-color="white"/>
</linearGradient>
<linearGradient id="paint19_linear_0_106" x1="95.8182" y1="119.342" x2="103.218" y2="109.135" gradientUnits="userSpaceOnUse">
<stop stop-color="#231F20"/>
<stop offset="1" stop-color="white"/>
</linearGradient>
<linearGradient id="paint20_linear_0_106" x1="70.3671" y1="114.918" x2="55.5817" y2="121.967" gradientUnits="userSpaceOnUse">
<stop stop-color="#231F20"/>
<stop offset="1" stop-color="white"/>
</linearGradient>
<linearGradient id="paint21_linear_0_106" x1="64.9959" y1="90.3061" x2="69.5733" y2="99.812" gradientUnits="userSpaceOnUse">
<stop stop-color="#231F20"/>
<stop offset="1" stop-color="white"/>
</linearGradient>
<linearGradient id="paint22_linear_0_106" x1="86.282" y1="60.9494" x2="83.1236" y2="50.0397" gradientUnits="userSpaceOnUse">
<stop stop-color="#231F20"/>
<stop offset="1" stop-color="white"/>
</linearGradient>
<linearGradient id="paint23_linear_0_106" x1="120.43" y1="110.92" x2="129.585" y2="113.026" gradientUnits="userSpaceOnUse">
<stop stop-color="#231F20"/>
<stop offset="1" stop-color="white"/>
</linearGradient>
<linearGradient id="paint24_linear_0_106" x1="106.072" y1="79.9916" x2="94.4602" y2="77.8859" gradientUnits="userSpaceOnUse">
<stop stop-color="#231F20"/>
<stop offset="1" stop-color="white"/>
</linearGradient>
</defs>
</svg>
