<svg width="960" height="192" viewBox="0 0 960 192" fill="none" xmlns="http://www.w3.org/2000/svg">
<path d="M189.4 89.5365C185.846 37.2854 140.621 -2.17871 88.385 1.37501C62.3564 3.14376 39.5083 15.2654 23.5568 33.4234L23.5081 33.391C23.3945 33.537 23.2972 33.683 23.1998 33.8291C7.36195 52.1007 -1.54685 76.3764 0.221931 102.405C0.384204 104.887 0.676296 107.321 1.0333 109.739C1.0333 109.853 1.06575 109.95 1.08198 110.064C1.32539 111.654 1.60125 113.244 1.90957 114.802C1.90957 114.834 1.90957 114.867 1.9258 114.883C2.21789 116.295 2.52621 117.707 2.88321 119.102C13.8367 162.769 54.7457 193.698 101.253 190.534C153.489 186.98 192.97 141.755 189.416 89.5041L189.4 89.5365ZM168.759 90.9483C169.197 97.3742 168.791 103.67 167.639 109.739C167.639 109.707 167.607 109.674 167.607 109.642C160.726 92.8468 147.128 80.709 135.185 74.0072C137.602 45.545 127.947 33.537 117.01 31.5898C116.718 31.5248 116.41 31.4762 116.117 31.4437C107.436 30.324 99.5007 36.4579 98.3972 45.1393C97.2775 53.8208 103.411 61.7558 112.093 62.8593C112.856 62.9566 113.602 62.9891 114.332 62.9728C114.381 63.9302 114.414 64.9525 114.414 66.0235C104.304 63.5246 94.8597 63.0215 86.243 63.8004C83.0137 64.0114 79.8007 64.4171 76.5877 65.0175C77.6587 55.411 81.2774 44.6038 88.2714 36.7175C95.0382 29.0746 105.099 24.7095 116.069 25.8292C118.146 26.0401 120.369 26.5594 122.365 27.2247C122.462 27.2571 122.56 27.2896 122.641 27.3058C148.053 37.6587 166.763 61.7883 168.743 90.9483H168.759ZM102.665 105.423C102.665 105.423 102.665 105.439 102.649 105.455C100.393 108.717 97.6995 111.93 94.5351 115.045C89.7968 110.015 85.9996 104.579 83.1111 98.9644C82.9651 98.6561 82.8028 98.3802 82.6567 98.0719C82.6567 98.0719 82.6567 98.0557 82.6567 98.0395C80.9691 94.4533 79.5249 90.5101 78.4052 86.21C85.1395 84.6197 91.744 84.0356 98.0565 84.3439C98.3972 84.3601 98.7218 84.3763 99.0626 84.3925H99.095C103.054 84.7171 107.176 85.4473 111.444 86.6156C109.448 93.2363 106.657 99.2565 103.233 104.563C103.054 104.839 102.876 105.114 102.681 105.407L102.665 105.423ZM70.2753 26.0239C70.2753 26.0239 70.2428 26.0726 70.2266 26.0888C59.1109 40.4335 55.4111 58.267 55.5733 71.9626C29.707 84.1005 24.1572 98.4614 27.922 108.912C28.0193 109.204 28.1329 109.48 28.2465 109.755C31.6218 117.82 40.9038 121.634 48.9688 118.258C57.0338 114.883 60.8472 105.601 57.4719 97.5364C57.1798 96.8387 56.8228 96.1734 56.4496 95.5405C57.261 95.005 58.1372 94.4695 59.0784 93.9178C61.9669 103.93 66.2347 112.384 71.2165 119.459C73.0177 122.137 74.965 124.717 77.0908 127.199C68.2306 131.078 57.0662 133.35 46.7294 131.24C36.7334 129.195 27.922 122.672 23.3945 112.611C22.5345 110.697 21.8692 108.522 21.4473 106.461C21.1876 104.66 20.9767 102.843 20.8469 100.993C18.5426 67.0296 39.6056 36.7986 70.2753 26.0239ZM99.8415 169.909C79.6709 171.288 60.8148 164.408 46.5672 152.173C64.547 154.623 81.8454 148.911 93.6264 141.917C117.075 158.258 132.296 155.889 139.469 147.402C139.663 147.175 139.858 146.932 140.037 146.688C145.343 139.727 143.996 129.796 137.034 124.49C130.073 119.183 120.142 120.53 114.836 127.492C114.381 128.092 113.975 128.741 113.618 129.39C112.758 128.952 111.85 128.465 110.925 127.93C118.162 120.417 123.306 112.482 126.941 104.628C128.369 101.723 129.619 98.7373 130.706 95.6541C138.495 101.398 146.057 109.918 149.4 119.93C152.629 129.601 151.396 140.506 144.937 149.447C143.72 151.134 142.162 152.806 140.588 154.201C140.572 154.217 140.54 154.25 140.523 154.266C129.229 163.142 115.241 168.854 99.8577 169.893L99.8415 169.909Z" fill="url(#paint0_linear_0_238)"/>
<path style="mix-blend-mode:overlay" opacity="0.9" d="M117.01 31.5736C116.718 31.5087 116.41 31.46 116.118 31.4275C114.576 31.2328 113.067 31.2653 111.623 31.5087C120.694 36.4417 127.299 50.186 123.826 77.3176C122.674 86.3074 119.996 94.8428 116.15 102.697C113.019 109.447 108.767 116.246 103.055 122.786C105.797 124.847 108.475 126.567 110.925 127.962C118.163 120.449 123.307 112.514 126.942 104.66C130.804 96.8225 133.465 88.2709 134.617 79.2811C138.755 46.9893 128.597 33.6506 117.01 31.5898V31.5736Z" fill="url(#paint1_radial_0_238)"/>
<g style="mix-blend-mode:overlay" opacity="0.8">
<path d="M123.826 77.3014C127.298 50.186 120.694 36.4255 111.623 31.4924C111.266 31.5411 110.925 31.6223 110.568 31.7034C119.444 36.8149 125.838 50.543 122.414 77.3014C121.262 86.2911 118.584 94.8266 114.738 102.68C111.72 109.204 107.631 115.776 102.195 122.12C102.487 122.348 102.763 122.559 103.055 122.77C108.767 116.23 113.018 109.415 116.15 102.68C120.012 94.8428 122.674 86.2911 123.826 77.3014Z" fill="white"/>
</g>
<path style="mix-blend-mode:overlay" opacity="0.5" d="M89.3425 138.818C88.4825 138.169 87.6711 137.487 86.8435 136.806C73.456 142.388 54.9081 145.893 36.4739 141.609C39.4922 145.455 42.8512 149.009 46.5511 152.173C64.531 154.623 81.8293 148.911 93.6103 141.917C92.2148 140.944 90.7868 139.905 89.3263 138.802L89.3425 138.818Z" fill="url(#paint2_radial_0_238)"/>
<path style="mix-blend-mode:overlay" opacity="0.6" d="M86.8593 136.806C86.4536 136.465 86.0317 136.124 85.6422 135.784C72.1573 141.171 53.5121 144.4 35.1266 139.808C35.581 140.408 36.0353 141.025 36.4897 141.609C54.9077 145.893 73.4718 142.388 86.8593 136.806Z" fill="url(#paint3_linear_0_238)"/>
<path style="mix-blend-mode:overlay" opacity="0.9" d="M27.9381 108.928C28.0355 109.22 28.1491 109.496 28.2627 109.772C28.8631 111.2 29.642 112.482 30.5832 113.634C30.3235 103.313 38.924 90.7049 64.1413 80.1573C72.4983 76.6685 81.2286 74.7051 89.9589 74.1209C97.3586 73.4556 105.391 73.7314 113.91 75.4191C114.316 72.0114 114.478 68.8309 114.446 66.0236C104.336 63.5084 94.8758 63.0216 86.2591 63.8005C77.545 64.3847 68.7985 66.3481 60.4414 69.837C30.4047 82.3967 23.93 97.861 27.9381 108.944V108.928Z" fill="url(#paint4_radial_0_238)"/>
<g style="mix-blend-mode:overlay" opacity="0.8">
<path d="M64.1416 80.1736C38.9243 90.7211 30.3239 103.33 30.5835 113.65C30.8107 113.926 31.0541 114.185 31.2975 114.445C31.2813 104.206 39.9791 91.8083 64.8556 81.3906C73.2127 77.9018 81.943 75.9383 90.6733 75.3541C97.8295 74.705 105.57 74.9647 113.781 76.49C113.83 76.133 113.878 75.776 113.911 75.419C105.391 73.7477 97.3589 73.4556 89.9593 74.1209C81.2452 74.705 72.4987 76.6685 64.1416 80.1573V80.1736Z" fill="white"/>
</g>
<path style="mix-blend-mode:overlay" opacity="0.4" d="M134.649 79.2649C134.519 80.3359 134.341 81.3744 134.162 82.4291C145.683 91.2242 158 105.553 163.517 123.646C165.335 119.102 166.73 114.413 167.623 109.626C160.759 92.8307 147.16 80.7091 135.217 74.0073C135.071 75.7111 134.892 77.4474 134.665 79.2649H134.649Z" fill="url(#paint5_radial_0_238)"/>
<path style="mix-blend-mode:overlay" opacity="0.5" d="M134.162 82.4291C134.065 82.9484 133.984 83.4839 133.886 84.0031C145.294 92.9929 157.416 107.516 162.625 125.739C162.933 125.041 163.225 124.344 163.501 123.646C157.984 105.553 145.684 91.2404 134.146 82.4291H134.162Z" fill="url(#paint6_linear_0_238)"/>
<path style="mix-blend-mode:overlay" opacity="0.9" d="M139.468 147.386C139.663 147.159 139.858 146.915 140.036 146.672C140.977 145.439 141.691 144.108 142.227 142.745C133.415 148.132 118.21 146.98 96.4494 130.413C89.2445 124.928 83.1755 118.34 78.3073 111.07C74.0232 104.985 70.2585 97.9097 67.4512 89.6826C64.3031 91.0295 61.4633 92.4899 59.0292 93.9179C61.9177 103.93 66.2179 112.368 71.1997 119.443C76.0679 126.713 82.1369 133.285 89.3418 138.786C115.241 158.518 131.874 156.392 139.452 147.386H139.468Z" fill="url(#paint7_radial_0_238)"/>
<g style="mix-blend-mode:overlay" opacity="0.8">
<path d="M96.466 130.413C118.211 146.98 133.432 148.132 142.243 142.745C142.373 142.404 142.487 142.064 142.584 141.739C133.724 146.883 118.633 145.536 97.18 129.195C89.9751 123.711 83.9061 117.123 79.0379 109.853C74.8999 103.979 71.2487 97.1471 68.4739 89.2769C68.1331 89.423 67.8086 89.5528 67.484 89.6988C70.2913 97.926 74.0561 105.001 78.3401 111.086C83.2083 118.356 89.2773 124.928 96.4822 130.429L96.466 130.413Z" fill="white"/>
</g>
<path style="mix-blend-mode:overlay" opacity="0.3" d="M60.4257 69.8045C61.4155 69.3988 62.4054 69.0256 63.4115 68.6524C65.2614 54.2752 71.5089 36.4417 84.4259 22.6325C79.5901 23.3303 74.8355 24.4662 70.227 26.0726C59.1112 40.4174 55.4114 58.2509 55.5737 71.9465C57.1153 71.2163 58.7218 70.5023 60.4094 69.8045H60.4257Z" fill="url(#paint8_radial_0_238)"/>
<path style="mix-blend-mode:overlay" opacity="0.4" d="M63.4108 68.6524C63.9139 68.4739 64.4007 68.2792 64.9037 68.1007C66.9808 53.7235 73.5042 35.9711 86.6646 22.3404C85.9181 22.4215 85.1717 22.5189 84.4252 22.6163C71.5083 36.4417 65.2607 54.259 63.4108 68.6362V68.6524Z" fill="url(#paint9_linear_0_238)"/>
<path style="mix-blend-mode:multiply" opacity="0.4" d="M88.3854 1.37507C62.3568 3.14382 39.5087 15.2654 23.5572 33.4235C23.4436 33.5533 23.3138 33.6993 23.2002 33.8292C26.2996 36.9123 36.458 42.9812 40.5635 45.5126C48.6447 36.8312 58.7868 30.0483 70.2919 26.0239C71.0871 24.9854 71.9309 23.9631 72.8072 22.9733C83.5172 10.8841 98.138 4.50689 115.112 4.50689C116.994 4.50689 120.84 4.8152 120.921 4.8152C110.633 1.86188 99.6796 0.596172 88.3854 1.37507Z" fill="url(#paint10_linear_0_238)"/>
<path style="mix-blend-mode:multiply" opacity="0.4" d="M99.8413 169.925C79.6708 171.305 60.8146 164.424 46.567 152.189C45.2364 152.011 43.9058 151.8 42.5751 151.524C26.7535 148.295 13.9014 138.818 5.43078 124.133C4.48959 122.494 3.64577 120.839 2.88309 119.135C13.8365 162.802 54.7456 193.73 101.237 190.566C101.448 185.779 100.036 174.664 99.8251 169.925H99.8413Z" fill="url(#paint11_linear_0_238)"/>
<path style="mix-blend-mode:multiply" opacity="0.4" d="M189.4 89.5366C186.479 89.2445 172.264 90.3641 168.759 90.9483C169.197 97.3742 168.792 103.67 167.639 109.739C168.126 110.94 168.597 112.173 169.019 113.423C174.13 128.741 172.345 144.595 163.875 159.297C162.95 160.903 161.944 162.445 160.889 163.921C160.873 163.954 160.84 163.986 160.824 164.002C160.824 164.002 160.873 163.97 160.889 163.938C180.151 145.195 191.364 118.453 189.4 89.5528V89.5366Z" fill="url(#paint12_linear_0_238)"/>
<path style="mix-blend-mode:multiply" opacity="0.5" d="M116.085 25.813C118.162 26.0239 120.385 26.5432 122.381 27.2085C122.479 27.241 122.576 27.2734 122.657 27.2897C130.836 30.6162 138.317 35.3869 144.775 41.2774C144.775 41.2774 144.808 41.2936 144.824 41.3098C147.939 37.7561 153.927 33.8454 153.927 33.8454C153.927 33.8454 144.759 24.4662 130.722 21.5453C120.905 19.5007 98.7544 17.5372 84.7827 41.3098C84.7827 41.3098 84.8313 41.2611 84.9125 41.18C85.951 39.6222 87.0383 38.0969 88.2878 36.7013C95.0546 29.0584 105.115 24.6933 116.085 25.813Z" fill="url(#paint13_linear_0_238)"/>
<path style="mix-blend-mode:multiply" opacity="0.5" d="M144.937 149.463C143.72 151.151 142.162 152.822 140.588 154.218C140.523 154.282 140.442 154.347 140.377 154.412C133.4 159.832 125.529 163.921 117.205 166.566C117.188 166.566 117.172 166.566 117.156 166.583C118.681 171.061 119.071 178.201 119.071 178.201C119.071 178.201 131.777 174.956 141.318 164.262C147.988 156.781 160.775 138.575 147.177 114.591C147.177 114.591 147.193 114.672 147.225 114.77C148.069 116.441 148.832 118.161 149.416 119.93C152.645 129.601 151.412 140.506 144.953 149.447L144.937 149.463Z" fill="url(#paint14_linear_0_238)"/>
<path style="mix-blend-mode:multiply" opacity="0.5" d="M23.4273 112.644C22.5672 110.729 21.9019 108.555 21.48 106.494C21.4638 106.396 21.4313 106.299 21.4151 106.202C20.2143 97.4554 20.6037 88.5954 22.4699 80.06C22.4699 80.0438 22.4699 80.0275 22.4699 80.0113C17.8288 79.1026 11.4515 75.8572 11.4515 75.8572C11.4515 75.8572 7.91395 88.498 12.4089 102.096C15.557 111.622 24.9202 131.792 52.4904 132.003C52.4904 132.003 52.4093 131.987 52.3119 131.954C50.4458 131.84 48.5796 131.646 46.7459 131.273C36.7499 129.228 27.9385 122.705 23.411 112.644H23.4273Z" fill="url(#paint15_linear_0_238)"/>
<path style="mix-blend-mode:multiply" opacity="0.6" d="M112.093 62.8431C112.856 62.9404 113.603 62.9729 114.333 62.9567C114.333 62.9567 113.83 53.1069 112.629 48.044C111.412 42.9974 109.627 39.6384 107.68 37.7398C106.268 36.3768 101.838 34.6892 98.3976 45.1069C97.2779 53.7884 103.412 61.7234 112.093 62.8269V62.8431Z" fill="url(#paint16_linear_0_238)"/>
<path style="mix-blend-mode:multiply" opacity="0.5" d="M57.488 97.569C57.1959 96.8712 56.8389 96.2059 56.4657 95.5731C56.4657 95.5731 48.1735 100.928 44.4088 104.498C40.644 108.068 38.6318 111.297 37.9665 113.942C37.4959 115.841 38.2424 120.514 48.9849 118.291C57.0498 114.916 60.8633 105.634 57.488 97.569Z" fill="url(#paint17_linear_0_238)"/>
<path style="mix-blend-mode:multiply" opacity="0.6" d="M114.852 127.475C114.397 128.076 113.992 128.725 113.635 129.374C113.635 129.374 122.414 133.869 127.395 135.346C132.377 136.822 136.174 136.952 138.787 136.206C140.669 135.67 144.337 132.668 137.051 124.49C130.089 119.183 120.158 120.53 114.852 127.492V127.475Z" fill="url(#paint18_linear_0_238)"/>
<path style="mix-blend-mode:multiply" opacity="0.3" d="M111.444 86.6319C109.448 93.2526 106.657 99.2728 103.233 104.579C103.054 104.855 102.876 105.131 102.681 105.423C102.681 105.423 102.681 105.439 102.665 105.455C100.409 108.717 97.7157 111.93 94.5514 115.045C96.7258 117.35 99.0626 119.589 101.643 121.715C104.888 124.262 108.052 126.323 110.925 127.946C118.162 120.433 123.306 112.498 126.941 104.644C128.369 101.739 129.619 98.7535 130.706 95.6704C127.363 93.2201 123.988 91.2566 120.872 89.926C117.659 88.5467 114.511 87.4757 111.428 86.6319H111.444Z" fill="url(#paint19_linear_0_238)"/>
<path style="mix-blend-mode:multiply" opacity="0.3" d="M46.5671 152.189C64.547 154.639 81.8453 148.928 93.6264 141.934C92.2308 140.96 90.8028 139.922 89.3424 138.818C84.7987 135.346 80.7094 131.451 77.0745 127.216C68.2144 131.094 57.05 133.366 46.7132 131.256C36.7171 129.212 27.9057 122.688 23.3783 112.628C22.5182 110.713 21.8529 108.538 21.431 106.478C24.0436 124.814 33.2932 140.814 46.5509 152.189H46.5671Z" fill="url(#paint20_linear_0_238)"/>
<path style="mix-blend-mode:multiply" opacity="0.3" d="M94.5511 115.046C89.8127 110.015 86.0156 104.579 83.1271 98.9645C82.981 98.6562 82.8188 98.3803 82.6727 98.072C82.6727 98.072 82.6727 98.0558 82.6727 98.0396C80.9851 94.4534 79.5409 90.5102 78.4212 86.21C75.338 86.9403 72.2386 87.849 69.1229 89.0173C65.2933 90.5427 61.9342 92.2627 59.0944 93.9179C61.9829 103.93 66.2507 112.384 71.2325 119.459C73.0337 122.137 74.981 124.717 77.1068 127.2C80.9039 125.544 84.2955 123.581 87.0054 121.553C89.7965 119.459 92.2955 117.269 94.5673 115.029L94.5511 115.046Z" fill="url(#paint21_linear_0_238)"/>
<path style="mix-blend-mode:multiply" opacity="0.3" d="M70.227 26.0889C59.1112 40.4336 55.4114 58.2671 55.5737 71.9627C57.1153 71.2325 58.738 70.5185 60.4257 69.8045C65.6995 67.5976 71.1195 66.0074 76.5881 64.9851C77.6591 55.3787 81.2778 44.5715 88.2717 36.6851C95.0385 29.0422 105.099 24.6771 116.069 25.7968C118.146 26.0077 120.369 26.527 122.365 27.1923C122.463 27.2248 122.56 27.2572 122.641 27.2734C112.532 23.1518 101.367 21.2045 89.7647 21.9996C82.9492 22.4702 76.4258 23.8495 70.2594 26.024C70.2432 26.0402 70.227 26.0726 70.2107 26.0889H70.227Z" fill="url(#paint22_linear_0_238)"/>
<path style="mix-blend-mode:multiply" opacity="0.3" d="M167.623 109.609C160.743 92.8145 147.144 80.6767 135.201 73.9749C135.055 75.6787 134.876 77.4312 134.633 79.2649C133.903 84.9281 132.572 90.4129 130.722 95.6704C138.511 101.415 146.073 109.934 149.416 119.946C152.645 129.617 151.412 140.522 144.954 149.463C143.737 151.151 142.179 152.822 140.605 154.218C140.589 154.234 140.556 154.266 140.54 154.283C154.463 143.345 164.313 127.573 167.688 109.723C167.688 109.691 167.656 109.658 167.656 109.626L167.623 109.609Z" fill="url(#paint23_linear_0_238)"/>
<path style="mix-blend-mode:multiply" opacity="0.3" d="M76.5391 76.4089C76.961 79.8815 77.5939 83.1269 78.4052 86.21C85.1396 84.6198 91.7441 84.0356 98.0565 84.3439C98.3973 84.3601 98.7219 84.3764 99.0626 84.3926H99.0951C103.055 84.7171 107.176 85.4473 111.444 86.6157C112.353 83.5812 113.115 80.4332 113.667 77.1553C114.268 73.0661 114.446 69.2852 114.43 65.9911C104.32 63.4922 94.876 62.9891 86.2593 63.768C83.03 63.979 79.817 64.3846 76.604 64.985C76.1496 69.1067 76.1334 73.0174 76.5553 76.3927L76.5391 76.4089Z" fill="url(#paint24_linear_0_238)"/>
<path d="M474.289 68.5605L462.008 102.773H462.103L474.36 68.7669L474.289 68.5605Z" fill="white"/>
<path d="M259.283 77.1079L268.496 102.773H250.028L245.368 115.709H273.21L281.102 137.634H298.757L266.568 56.8991L259.283 77.1079Z" fill="white"/>
<path d="M243.94 102.773L256.215 68.5604L256.263 68.6902L261.448 54.3092H247.887L214.771 137.634H231.406L243.976 102.773H243.94Z" fill="white"/>
<path d="M352.257 94.7099C348.235 92.3386 342.902 90.1266 336.249 88.0798C332.45 86.8411 329.471 85.6908 327.312 84.6232C325.153 83.5673 323.655 82.3581 322.817 81.0073C321.974 79.6565 321.555 78.0639 321.555 76.2353C321.555 73.0146 322.8 70.5313 325.283 68.7794C327.766 67.0216 331.241 66.1486 335.7 66.1486C339.357 66.1486 343.174 66.6971 347.155 67.7943C351.137 68.8914 354.664 70.3897 357.737 72.2891L360.038 58.8047C356.894 56.9053 353.077 55.3894 348.583 54.2568C344.088 53.1243 339.611 52.558 335.151 52.558C329.082 52.558 323.82 53.5431 319.361 55.5192C314.901 57.4952 311.451 60.3089 309.003 63.9601C306.555 67.6173 305.328 71.9292 305.328 76.8959C305.328 81.1371 306.154 84.806 307.793 87.9146C309.439 91.0232 312.123 93.7071 315.851 95.9722C319.579 98.2373 324.475 100.284 330.544 102.113C334.933 103.428 338.331 104.673 340.743 105.841C343.156 107.009 344.837 108.306 345.787 109.734C346.736 111.161 347.214 112.86 347.214 114.83C347.214 118.269 345.804 120.953 342.991 122.888C340.177 124.823 336.284 125.79 331.311 125.79C326.999 125.79 322.487 125.118 317.774 123.761C313.061 122.41 308.949 120.676 305.44 118.552L303.906 132.473C305.953 133.865 308.513 135.069 311.58 136.089C314.654 137.115 317.957 137.918 321.502 138.502C325.047 139.086 328.574 139.381 332.084 139.381C341.953 139.381 349.697 137.133 355.325 132.638C360.952 128.144 363.766 121.915 363.766 113.945C363.766 109.704 362.852 106.035 361.023 102.927C359.194 99.8181 356.269 97.0812 352.252 94.704L352.257 94.7099Z" fill="white"/>
<path d="M439.752 54.3092H369.257V67.8997H439.752V54.3092Z" fill="white"/>
<path d="M412.89 73.5928H396.114V137.635H412.89V73.5928Z" fill="white"/>
<path d="M462.008 102.773L474.289 68.5604L474.36 68.7668L479.574 54.3092H465.954L432.845 137.634H449.509L457.401 115.708H457.437L462.103 102.773H462.008Z" fill="white"/>
<path d="M477.38 77.1782L486.57 102.773H468.155L463.489 115.708H491.283L499.176 137.634H516.831L484.671 56.9694L477.38 77.1782Z" fill="white"/>
<path d="M571.098 103.864C575.121 101.599 578.407 98.5493 580.967 94.7093C583.527 90.8752 584.807 86.3981 584.807 81.278C584.807 75.7215 583.562 70.9377 581.079 66.9148C578.59 62.8978 575.051 59.7892 570.444 57.5949C565.837 55.4006 560.357 54.3034 553.998 54.3034H548.17V66.9148H551.804C562.917 66.9148 568.468 71.6632 568.468 81.166C568.468 90.6687 562.728 95.4172 551.255 95.4172H548.17V108.023H556.735L574.278 137.622H593.024L571.093 103.852L571.098 103.864Z" fill="white"/>
<path d="M542.478 54.3092H526.587V137.634H542.478V54.3092Z" fill="white"/>
<path d="M617.309 138.483V130.133L651.197 87.0807V86.5105H618.408V75.9205H666.389V84.7998L633.805 127.323V127.893H667.53V138.483H617.309Z" fill="white"/>
<path d="M678.287 138.483V55.0663H690.873V94.9011H691.891L726.879 55.0663H742.723L709.08 92.6201L742.846 138.483H727.694L700.73 101.214L690.873 112.538V138.483H678.287Z" fill="white"/>
<path d="M751.994 161.944C750.175 161.944 748.519 161.795 747.025 161.496C745.532 161.225 744.418 160.926 743.685 160.6L746.618 150.621C748.844 151.218 750.827 151.476 752.564 151.395C754.302 151.313 755.837 150.662 757.167 149.44C758.525 148.218 759.72 146.222 760.751 143.452L762.258 139.298L739.368 75.9205H752.402L768.246 124.472H768.898L784.742 75.9205H797.816L772.034 146.833C770.839 150.091 769.318 152.848 767.472 155.101C765.626 157.382 763.426 159.093 760.874 160.233C758.321 161.374 755.361 161.944 751.994 161.944Z" fill="white"/>
<path d="M828.899 139.746C823.033 139.746 817.915 138.402 813.543 135.713C809.171 133.025 805.777 129.264 803.36 124.431C800.944 119.598 799.735 113.95 799.735 107.487C799.735 100.997 800.944 95.322 803.36 90.4614C805.777 85.6009 809.171 81.8265 813.543 79.1382C817.915 76.45 823.033 75.1059 828.899 75.1059C834.764 75.1059 839.882 76.45 844.254 79.1382C848.626 81.8265 852.02 85.6009 854.437 90.4614C856.854 95.322 858.062 100.997 858.062 107.487C858.062 113.95 856.854 119.598 854.437 124.431C852.02 129.264 848.626 133.025 844.254 135.713C839.882 138.402 834.764 139.746 828.899 139.746ZM828.939 129.522C832.741 129.522 835.891 128.518 838.389 126.508C840.887 124.499 842.734 121.824 843.928 118.484C845.15 115.144 845.761 111.465 845.761 107.446C845.761 103.455 845.15 99.7888 843.928 96.4489C842.734 93.0818 840.887 90.3799 838.389 88.3434C835.891 86.3069 832.741 85.2886 828.939 85.2886C825.111 85.2886 821.934 86.3069 819.408 88.3434C816.91 90.3799 815.05 93.0818 813.828 96.4489C812.633 99.7888 812.036 103.455 812.036 107.446C812.036 111.465 812.633 115.144 813.828 118.484C815.05 121.824 816.91 124.499 819.408 126.508C821.934 128.518 825.111 129.522 828.939 129.522Z" fill="white"/>
<path d="M896.272 75.9205V85.6959H862.099V75.9205H896.272ZM871.263 60.9315H883.442V120.114C883.442 122.476 883.795 124.254 884.501 125.449C885.207 126.617 886.116 127.418 887.23 127.852C888.37 128.26 889.606 128.463 890.936 128.463C891.914 128.463 892.769 128.395 893.502 128.26C894.235 128.124 894.806 128.015 895.213 127.934L897.412 137.994C896.706 138.266 895.702 138.537 894.398 138.809C893.095 139.108 891.466 139.271 889.511 139.298C886.307 139.352 883.32 138.782 880.55 137.587C877.78 136.392 875.54 134.546 873.829 132.048C872.119 129.549 871.263 126.413 871.263 122.639V60.9315Z" fill="white"/>
<path d="M930.837 139.746C924.971 139.746 919.853 138.402 915.481 135.713C911.109 133.025 907.715 129.264 905.298 124.431C902.882 119.598 901.673 113.95 901.673 107.487C901.673 100.997 902.882 95.322 905.298 90.4614C907.715 85.6009 911.109 81.8265 915.481 79.1382C919.853 76.45 924.971 75.1059 930.837 75.1059C936.702 75.1059 941.82 76.45 946.192 79.1382C950.564 81.8265 953.958 85.6009 956.375 90.4614C958.792 95.322 960 100.997 960 107.487C960 113.95 958.792 119.598 956.375 124.431C953.958 129.264 950.564 133.025 946.192 135.713C941.82 138.402 936.702 139.746 930.837 139.746ZM930.877 129.522C934.679 129.522 937.829 128.518 940.327 126.508C942.825 124.499 944.672 121.824 945.866 118.484C947.088 115.144 947.699 111.465 947.699 107.446C947.699 103.455 947.088 99.7888 945.866 96.4489C944.672 93.0818 942.825 90.3799 940.327 88.3434C937.829 86.3069 934.679 85.2886 930.877 85.2886C927.049 85.2886 923.872 86.3069 921.346 88.3434C918.848 90.3799 916.988 93.0818 915.766 96.4489C914.571 99.7888 913.974 103.455 913.974 107.446C913.974 111.465 914.571 115.144 915.766 118.484C916.988 121.824 918.848 124.499 921.346 126.508C923.872 128.518 927.049 129.522 930.877 129.522Z" fill="white"/>
<defs>
<linearGradient id="paint0_linear_0_238" x1="30.1127" y1="160.676" x2="151.004" y2="39.7661" gradientUnits="userSpaceOnUse">
<stop stop-color="#E6007A"/>
<stop offset="0.21" stop-color="#703AC2"/>
<stop offset="0.46" stop-color="#0070EB"/>
<stop offset="0.77" stop-color="#0297FB"/>
<stop offset="1" stop-color="#0AE2FF"/>
</linearGradient>
<radialGradient id="paint1_radial_0_238" cx="0" cy="0" r="1" gradientUnits="userSpaceOnUse" gradientTransform="translate(121.846 76.7659) scale(36.0571 36.0565)">
<stop stop-color="white"/>
<stop offset="1" stop-color="white" stop-opacity="0"/>
</radialGradient>
<radialGradient id="paint2_radial_0_238" cx="0" cy="0" r="1" gradientUnits="userSpaceOnUse" gradientTransform="translate(68.5553 143.654) scale(20.9819 20.9816)">
<stop stop-color="white"/>
<stop offset="1" stop-color="white" stop-opacity="0"/>
</radialGradient>
<linearGradient id="paint3_linear_0_238" x1="37.0739" y1="140.1" x2="57.2931" y2="139.824" gradientUnits="userSpaceOnUse">
<stop stop-color="white" stop-opacity="0"/>
<stop offset="1" stop-color="white"/>
</linearGradient>
<radialGradient id="paint4_radial_0_238" cx="0" cy="0" r="1" gradientUnits="userSpaceOnUse" gradientTransform="translate(64.6852 82.1519) rotate(-120) scale(36.0566 36.057)">
<stop stop-color="white"/>
<stop offset="1" stop-color="white" stop-opacity="0"/>
</radialGradient>
<radialGradient id="paint5_radial_0_238" cx="0" cy="0" r="1" gradientUnits="userSpaceOnUse" gradientTransform="translate(149.258 94.8581) rotate(-120) scale(20.9817 20.9818)">
<stop stop-color="white"/>
<stop offset="1" stop-color="white" stop-opacity="0"/>
</radialGradient>
<linearGradient id="paint6_linear_0_238" x1="161.913" y1="123.884" x2="151.565" y2="106.512" gradientUnits="userSpaceOnUse">
<stop stop-color="white" stop-opacity="0"/>
<stop offset="1" stop-color="white"/>
</linearGradient>
<radialGradient id="paint7_radial_0_238" cx="0" cy="0" r="1" gradientUnits="userSpaceOnUse" gradientTransform="translate(96.2124 127.293) rotate(120) scale(36.0566 36.057)">
<stop stop-color="white"/>
<stop offset="1" stop-color="white" stop-opacity="0"/>
</radialGradient>
<radialGradient id="paint8_radial_0_238" cx="0" cy="0" r="1" gradientUnits="userSpaceOnUse" gradientTransform="translate(66.6404 49.3796) rotate(120) scale(20.9817 20.9818)">
<stop stop-color="white"/>
<stop offset="1" stop-color="white" stop-opacity="0"/>
</radialGradient>
<linearGradient id="paint9_linear_0_238" x1="85.4438" y1="23.8854" x2="75.5874" y2="41.5417" gradientUnits="userSpaceOnUse">
<stop stop-color="white" stop-opacity="0"/>
<stop offset="1" stop-color="white"/>
</linearGradient>
<linearGradient id="paint10_linear_0_238" x1="89.8458" y1="14.9084" x2="58.9491" y2="23.8985" gradientUnits="userSpaceOnUse">
<stop stop-color="#231F20"/>
<stop offset="1" stop-color="white"/>
</linearGradient>
<linearGradient id="paint11_linear_0_238" x1="31.4756" y1="132.717" x2="57.3091" y2="159.687" gradientUnits="userSpaceOnUse">
<stop stop-color="#231F20"/>
<stop offset="1" stop-color="white"/>
</linearGradient>
<linearGradient id="paint12_linear_0_238" x1="170.122" y1="128.66" x2="179.112" y2="101.334" gradientUnits="userSpaceOnUse">
<stop stop-color="#231F20"/>
<stop offset="1" stop-color="white"/>
</linearGradient>
<linearGradient id="paint13_linear_0_238" x1="103.915" y1="30.5513" x2="145.327" y2="40.0282" gradientUnits="userSpaceOnUse">
<stop stop-color="#231F20"/>
<stop offset="1" stop-color="white"/>
</linearGradient>
<linearGradient id="paint14_linear_0_238" x1="146.928" y1="136.552" x2="117.993" y2="167.683" gradientUnits="userSpaceOnUse">
<stop stop-color="#231F20"/>
<stop offset="1" stop-color="white"/>
</linearGradient>
<linearGradient id="paint15_linear_0_238" x1="33.6049" y1="120.815" x2="21.1204" y2="80.2051" gradientUnits="userSpaceOnUse">
<stop stop-color="#231F20"/>
<stop offset="1" stop-color="white"/>
</linearGradient>
<linearGradient id="paint16_linear_0_238" x1="112.97" y1="45.8209" x2="99.8745" y2="58.9326" gradientUnits="userSpaceOnUse">
<stop stop-color="#231F20"/>
<stop offset="1" stop-color="white"/>
</linearGradient>
<linearGradient id="paint17_linear_0_238" x1="42.3156" y1="105.297" x2="60.2124" y2="110.105" gradientUnits="userSpaceOnUse">
<stop stop-color="#231F20"/>
<stop offset="1" stop-color="white"/>
</linearGradient>
<linearGradient id="paint18_linear_0_238" x1="129.146" y1="136.751" x2="124.353" y2="118.863" gradientUnits="userSpaceOnUse">
<stop stop-color="#231F20"/>
<stop offset="1" stop-color="white"/>
</linearGradient>
<linearGradient id="paint19_linear_0_238" x1="101.902" y1="120.839" x2="109.772" y2="109.983" gradientUnits="userSpaceOnUse">
<stop stop-color="#231F20"/>
<stop offset="1" stop-color="white"/>
</linearGradient>
<linearGradient id="paint20_linear_0_238" x1="74.8351" y1="116.133" x2="59.111" y2="123.63" gradientUnits="userSpaceOnUse">
<stop stop-color="#231F20"/>
<stop offset="1" stop-color="white"/>
</linearGradient>
<linearGradient id="paint21_linear_0_238" x1="69.1229" y1="89.9585" x2="73.991" y2="100.068" gradientUnits="userSpaceOnUse">
<stop stop-color="#231F20"/>
<stop offset="1" stop-color="white"/>
</linearGradient>
<linearGradient id="paint22_linear_0_238" x1="91.7606" y1="58.7377" x2="88.4017" y2="47.1353" gradientUnits="userSpaceOnUse">
<stop stop-color="#231F20"/>
<stop offset="1" stop-color="white"/>
</linearGradient>
<linearGradient id="paint23_linear_0_238" x1="128.077" y1="111.881" x2="137.814" y2="114.121" gradientUnits="userSpaceOnUse">
<stop stop-color="#231F20"/>
<stop offset="1" stop-color="white"/>
</linearGradient>
<linearGradient id="paint24_linear_0_238" x1="112.807" y1="78.989" x2="100.458" y2="76.7496" gradientUnits="userSpaceOnUse">
<stop stop-color="#231F20"/>
<stop offset="1" stop-color="white"/>
</linearGradient>
</defs>
</svg>
