<svg width="960" height="192" viewBox="0 0 960 192" fill="none" xmlns="http://www.w3.org/2000/svg">
<path d="M187.247 89.3816C183.733 37.7246 139.022 -1.29083 87.38 2.22248C61.6473 3.97112 39.0591 15.9549 23.289 33.9065L23.2408 33.8744C23.1285 34.0188 23.0323 34.1632 22.936 34.3075C7.27825 52.3714 -1.52926 76.3711 0.219408 102.103C0.379836 104.558 0.668606 106.964 1.02155 109.355C1.02155 109.467 1.05363 109.563 1.06968 109.675C1.31032 111.248 1.58305 112.82 1.88786 114.36C1.88786 114.392 1.88786 114.424 1.9039 114.44C2.19267 115.836 2.49749 117.231 2.85043 118.611C13.6793 161.782 54.1233 192.359 100.102 189.23C151.744 185.717 190.776 141.006 187.263 89.3495L187.247 89.3816ZM166.84 90.7773C167.273 97.1301 166.872 103.355 165.733 109.355C165.733 109.322 165.701 109.29 165.701 109.258C158.899 92.6542 145.455 80.6544 133.647 74.0289C136.038 45.8903 126.492 34.0188 115.68 32.0937C115.391 32.0295 115.086 31.9814 114.797 31.9493C106.214 30.8424 98.3693 36.9064 97.2784 45.4892C96.1715 54.072 102.236 61.9167 110.819 63.0076C111.573 63.1039 112.311 63.136 113.032 63.1199C113.081 64.0664 113.113 65.0771 113.113 66.1359C103.118 63.6654 93.7811 63.1681 85.2624 63.9381C82.0698 64.1467 78.8934 64.5477 75.7169 65.1413C76.7757 55.6441 80.3533 44.9598 87.2677 37.1631C93.9576 29.6071 103.904 25.2916 114.749 26.3986C116.803 26.6071 119 27.1205 120.974 27.7782C121.07 27.8103 121.166 27.8424 121.246 27.8585C146.369 38.0936 164.867 61.9488 166.824 90.7773H166.84ZM101.498 105.087C101.498 105.087 101.498 105.103 101.482 105.119C99.2517 108.344 96.5886 111.52 93.4602 114.6C88.7757 109.627 85.0217 104.253 82.1661 98.7023C82.0217 98.3975 81.8613 98.1247 81.7169 97.8199C81.7169 97.8199 81.7169 97.8039 81.7169 97.7879C80.0484 94.2424 78.6206 90.3441 77.5137 86.0928C84.1714 84.5207 90.7009 83.9431 96.9415 84.248C97.2784 84.264 97.5993 84.28 97.9362 84.2961H97.9683C101.883 84.6169 105.958 85.3388 110.177 86.4939C108.204 93.0393 105.444 98.991 102.059 104.237C101.883 104.51 101.706 104.782 101.514 105.071L101.498 105.087ZM69.4762 26.5911C69.4762 26.5911 69.4441 26.6392 69.4281 26.6553C58.4388 40.8369 54.781 58.4676 54.9414 72.0075C29.3692 84.0073 23.8826 98.205 27.6045 108.536C27.7007 108.825 27.813 109.098 27.9253 109.371C31.2622 117.344 40.4387 121.114 48.412 117.777C56.3853 114.44 60.1554 105.264 56.8185 97.2905C56.5297 96.6007 56.1767 95.943 55.8078 95.3173C56.6099 94.7879 57.4762 94.2585 58.4067 93.713C61.2623 103.611 65.4816 111.969 70.4067 118.964C72.1875 121.611 74.1126 124.162 76.2142 126.616C67.4548 130.45 56.4174 132.696 46.1981 130.611C36.3157 128.59 27.6045 122.14 23.1285 112.194C22.2783 110.301 21.6205 108.151 21.2034 106.114C20.9467 104.333 20.7382 102.536 20.6098 100.708C18.3317 67.1306 39.1553 37.2433 69.4762 26.5911ZM98.7062 168.84C78.765 170.204 60.1233 163.402 46.0377 151.306C63.8131 153.728 80.9148 148.081 92.5618 141.167C115.744 157.322 130.792 154.979 137.883 146.589C138.075 146.365 138.268 146.124 138.444 145.883C143.69 139.001 142.359 129.183 135.476 123.937C128.594 118.691 118.776 120.023 113.53 126.905C113.081 127.499 112.68 128.14 112.327 128.782C111.476 128.349 110.578 127.868 109.663 127.338C116.819 119.911 121.904 112.066 125.498 104.301C126.91 101.43 128.145 98.4777 129.22 95.4296C136.92 101.109 144.396 109.531 147.701 119.429C150.894 128.991 149.674 139.771 143.289 148.611C142.086 150.279 140.546 151.931 138.99 153.311C138.974 153.327 138.942 153.359 138.926 153.375C127.76 162.151 113.931 167.797 98.7223 168.824L98.7062 168.84Z" fill="url(#paint0_linear_0_63)"/>
<path style="mix-blend-mode:overlay" opacity="0.9" d="M115.68 32.0777C115.391 32.0135 115.086 31.9654 114.798 31.9333C113.274 31.7408 111.782 31.7728 110.354 32.0135C119.322 36.8904 125.851 50.4784 122.418 77.3016C121.279 86.1891 118.632 94.6275 114.83 102.392C111.733 109.066 107.53 115.788 101.883 122.253C104.594 124.29 107.241 125.991 109.664 127.37C116.819 119.943 121.905 112.098 125.498 104.333C129.316 96.5847 131.947 88.1303 133.086 79.2427C137.177 47.3181 127.135 34.1311 115.68 32.0937V32.0777Z" fill="url(#paint1_radial_0_63)"/>
<g style="mix-blend-mode:overlay" opacity="0.8">
<path d="M122.418 77.2855C125.851 50.4784 119.322 36.8744 110.354 31.9974C110.001 32.0456 109.664 32.1258 109.311 32.206C118.086 37.2594 124.407 50.8314 121.022 77.2855C119.883 86.1731 117.236 94.6114 113.434 102.376C110.45 108.825 106.407 115.322 101.033 121.595C101.321 121.82 101.594 122.028 101.883 122.237C107.53 115.772 111.733 109.034 114.83 102.376C118.648 94.6275 121.279 86.1731 122.418 77.2855Z" fill="white"/>
</g>
<path style="mix-blend-mode:overlay" opacity="0.5" d="M88.3267 138.103C87.4764 137.461 86.6743 136.787 85.8561 136.114C72.6208 141.632 54.2838 145.097 36.0592 140.862C39.0432 144.664 42.364 148.177 46.0218 151.306C63.7972 153.728 80.8989 148.081 92.5459 141.167C91.1663 140.204 89.7545 139.178 88.3106 138.087L88.3267 138.103Z" fill="url(#paint2_radial_0_63)"/>
<path style="mix-blend-mode:overlay" opacity="0.6" d="M85.8717 136.113C85.4706 135.777 85.0535 135.44 84.6685 135.103C71.3369 140.429 52.9037 143.621 34.7272 139.081C35.1764 139.675 35.6256 140.285 36.0748 140.862C54.2834 145.097 72.6363 141.632 85.8717 136.113Z" fill="url(#paint3_linear_0_63)"/>
<path style="mix-blend-mode:overlay" opacity="0.9" d="M27.6204 108.552C27.7166 108.841 27.8289 109.114 27.9412 109.387C28.5348 110.798 29.3049 112.066 30.2354 113.205C29.9787 103.002 38.4814 90.5367 63.4119 80.109C71.674 76.6599 80.305 74.7187 88.936 74.1412C96.2515 73.4834 104.193 73.7562 112.615 75.4246C113.016 72.0557 113.177 68.9113 113.145 66.136C103.15 63.6494 93.797 63.1681 85.2783 63.9381C76.6633 64.5157 68.0162 66.4568 59.7541 69.906C30.0589 82.3229 23.6578 97.6114 27.6204 108.568V108.552Z" fill="url(#paint4_radial_0_63)"/>
<g style="mix-blend-mode:overlay" opacity="0.8">
<path d="M63.4123 80.125C38.4817 90.5527 29.979 103.018 30.2357 113.221C30.4603 113.494 30.701 113.75 30.9416 114.007C30.9256 103.884 39.5245 91.6275 64.1181 81.3282C72.3802 77.8791 81.0112 75.9379 89.6423 75.3604C96.7171 74.7187 104.37 74.9754 112.487 76.4834C112.535 76.1304 112.583 75.7775 112.616 75.4246C104.193 73.7722 96.2519 73.4834 88.9364 74.1412C80.3214 74.7187 71.6743 76.6598 63.4123 80.109V80.125Z" fill="white"/>
</g>
<path style="mix-blend-mode:overlay" opacity="0.4" d="M133.118 79.2267C132.99 80.2855 132.813 81.3122 132.637 82.355C144.027 91.05 156.203 105.216 161.658 123.103C163.455 118.611 164.835 113.975 165.717 109.242C158.931 92.6382 145.487 80.6545 133.679 74.0289C133.535 75.7134 133.359 77.4299 133.134 79.2267H133.118Z" fill="url(#paint5_radial_0_63)"/>
<path style="mix-blend-mode:overlay" opacity="0.5" d="M132.637 82.3549C132.541 82.8683 132.46 83.3977 132.364 83.9111C143.642 92.7986 155.626 107.157 160.776 125.172C161.081 124.483 161.37 123.793 161.642 123.103C156.188 105.216 144.027 91.066 132.621 82.3549H132.637Z" fill="url(#paint6_linear_0_63)"/>
<path style="mix-blend-mode:overlay" opacity="0.9" d="M137.882 146.573C138.075 146.349 138.267 146.108 138.444 145.867C139.374 144.648 140.08 143.333 140.61 141.985C131.898 147.311 116.866 146.172 95.3528 129.793C88.2297 124.37 82.2297 117.857 77.4169 110.67C73.1816 104.654 69.4597 97.6596 66.6843 89.526C63.5719 90.8575 60.7645 92.3013 58.358 93.7131C61.2137 103.611 65.465 111.953 70.3901 118.948C75.203 126.135 81.203 132.632 88.326 138.071C113.93 157.578 130.374 155.477 137.866 146.573H137.882Z" fill="url(#paint7_radial_0_63)"/>
<g style="mix-blend-mode:overlay" opacity="0.8">
<path d="M95.3691 129.793C116.867 146.172 131.915 147.311 140.626 141.985C140.754 141.648 140.867 141.311 140.963 140.99C132.203 146.076 117.284 144.744 96.075 128.59C88.952 123.167 82.952 116.654 78.1392 109.467C74.0482 103.659 70.4386 96.9055 67.6953 89.1249C67.3584 89.2693 67.0375 89.3976 66.7167 89.542C69.4921 97.6756 73.214 104.67 77.4493 110.686C82.2622 117.873 88.2622 124.37 95.3852 129.809L95.3691 129.793Z" fill="white"/>
</g>
<path style="mix-blend-mode:overlay" opacity="0.3" d="M59.7386 69.8739C60.7172 69.4728 61.6958 69.1039 62.6905 68.7349C64.5194 54.5212 70.6958 36.8904 83.4659 23.2383C78.6852 23.9281 73.9846 25.0511 69.4284 26.6393C58.4391 40.8209 54.7814 58.4516 54.9418 71.9915C56.4659 71.2696 58.0541 70.5637 59.7225 69.8739H59.7386Z" fill="url(#paint8_radial_0_63)"/>
<path style="mix-blend-mode:overlay" opacity="0.4" d="M62.6898 68.7349C63.1871 68.5584 63.6684 68.3659 64.1658 68.1894C66.2192 53.9757 72.6684 36.4252 85.6792 22.9495C84.9412 23.0297 84.2032 23.1259 83.4653 23.2222C70.6952 36.8904 64.5187 54.5051 62.6898 68.7188V68.7349Z" fill="url(#paint9_linear_0_63)"/>
<path style="mix-blend-mode:multiply" opacity="0.4" d="M87.3804 2.22251C61.6477 3.97115 39.0594 15.9549 23.2893 33.9065C23.177 34.0349 23.0487 34.1792 22.9364 34.3076C26.0006 37.3557 36.0434 43.3556 40.1022 45.8582C48.0915 37.2755 58.1183 30.5697 69.4926 26.5911C70.2787 25.5644 71.113 24.5537 71.9793 23.5751C82.5675 11.6234 97.0221 5.31872 113.803 5.31872C115.664 5.31872 119.466 5.62353 119.546 5.62353C109.375 2.70379 98.5462 1.45247 87.3804 2.22251Z" fill="url(#paint10_linear_0_63)"/>
<path style="mix-blend-mode:multiply" opacity="0.4" d="M98.7061 168.856C78.7649 170.22 60.1232 163.418 46.0376 151.322C44.7221 151.145 43.4066 150.937 42.0911 150.664C26.4493 147.472 13.7434 138.103 5.36906 123.584C4.43858 121.964 3.60435 120.328 2.85034 118.643C13.6792 161.814 54.1232 192.391 100.086 189.262C100.294 184.53 98.8987 173.541 98.6901 168.856H98.7061Z" fill="url(#paint11_linear_0_63)"/>
<path style="mix-blend-mode:multiply" opacity="0.4" d="M187.247 89.3816C184.359 89.0928 170.306 90.1997 166.84 90.7773C167.273 97.1301 166.872 103.355 165.733 109.355C166.215 110.542 166.68 111.761 167.097 112.996C172.15 128.14 170.386 143.814 162.011 158.348C161.097 159.937 160.102 161.461 159.06 162.921C159.043 162.953 159.011 162.985 158.995 163.001C158.995 163.001 159.043 162.969 159.06 162.937C178.102 144.407 189.188 117.969 187.247 89.3976V89.3816Z" fill="url(#paint12_linear_0_63)"/>
<path style="mix-blend-mode:multiply" opacity="0.5" d="M114.765 26.3826C116.819 26.5911 119.017 27.1045 120.99 27.7622C121.086 27.7943 121.182 27.8264 121.263 27.8424C129.348 31.1312 136.744 35.8477 143.129 41.6711C143.129 41.6711 143.161 41.6871 143.177 41.7032C146.257 38.1899 152.177 34.3236 152.177 34.3236C152.177 34.3236 143.113 25.051 129.236 22.1634C119.53 20.142 97.6316 18.2009 83.8187 41.7032C83.8187 41.7032 83.8669 41.6551 83.9471 41.5749C84.9738 40.0348 86.0487 38.5268 87.284 37.1471C93.9738 29.5911 103.92 25.2756 114.765 26.3826Z" fill="url(#paint13_linear_0_63)"/>
<path style="mix-blend-mode:multiply" opacity="0.5" d="M143.289 148.627C142.086 150.295 140.546 151.947 138.99 153.327C138.926 153.391 138.845 153.455 138.781 153.52C131.883 158.878 124.102 162.921 115.872 165.536C115.856 165.536 115.84 165.536 115.824 165.552C117.332 169.979 117.717 177.038 117.717 177.038C117.717 177.038 130.278 173.83 139.712 163.257C146.305 155.862 158.947 137.862 145.503 114.151C145.503 114.151 145.519 114.231 145.551 114.328C146.385 115.98 147.139 117.681 147.717 119.429C150.91 128.991 149.69 139.771 143.305 148.611L143.289 148.627Z" fill="url(#paint14_linear_0_63)"/>
<path style="mix-blend-mode:multiply" opacity="0.5" d="M23.1609 112.226C22.3106 110.333 21.6529 108.183 21.2358 106.146C21.2197 106.05 21.1876 105.954 21.1716 105.857C19.9844 97.2103 20.3695 88.4511 22.2144 80.0128C22.2144 79.9967 22.2144 79.9807 22.2144 79.9646C17.6261 79.0662 11.3213 75.8577 11.3213 75.8577C11.3213 75.8577 7.82399 88.3549 12.2678 101.799C15.3802 111.215 24.6369 131.156 51.8936 131.365C51.8936 131.365 51.8134 131.349 51.7171 131.317C49.8722 131.204 48.0273 131.012 46.2144 130.643C36.3321 128.622 27.6208 122.173 23.1449 112.226H23.1609Z" fill="url(#paint15_linear_0_63)"/>
<path style="mix-blend-mode:multiply" opacity="0.6" d="M110.819 62.9916C111.573 63.0879 112.311 63.12 113.033 63.1039C113.033 63.1039 112.535 53.3661 111.348 48.3608C110.145 43.3716 108.38 40.0508 106.455 38.1738C105.059 36.8262 100.68 35.1578 97.2787 45.4571C96.1717 54.0399 102.236 61.8847 110.819 62.9756V62.9916Z" fill="url(#paint16_linear_0_63)"/>
<path style="mix-blend-mode:multiply" opacity="0.5" d="M56.8342 97.3227C56.5455 96.6328 56.1925 95.9751 55.8235 95.3494C55.8235 95.3494 47.6257 100.643 43.9037 104.173C40.1818 107.702 38.1925 110.895 37.5347 113.51C37.0695 115.387 37.8075 120.007 48.4278 117.809C56.4011 114.472 60.1711 105.296 56.8342 97.3227Z" fill="url(#paint17_linear_0_63)"/>
<path style="mix-blend-mode:multiply" opacity="0.6" d="M113.546 126.889C113.097 127.483 112.695 128.124 112.343 128.766C112.343 128.766 121.022 133.21 125.947 134.67C130.872 136.13 134.626 136.258 137.209 135.52C139.07 134.991 142.696 132.023 135.492 123.937C128.61 118.691 118.792 120.023 113.546 126.905V126.889Z" fill="url(#paint18_linear_0_63)"/>
<path style="mix-blend-mode:multiply" opacity="0.3" d="M110.177 86.51C108.204 93.0553 105.444 99.0071 102.059 104.253C101.883 104.526 101.706 104.798 101.514 105.087C101.514 105.087 101.514 105.103 101.498 105.119C99.2678 108.344 96.6047 111.52 93.4763 114.6C95.6261 116.878 97.9362 119.092 100.487 121.194C103.696 123.713 106.824 125.75 109.664 127.354C116.819 119.927 121.904 112.082 125.498 104.317C126.91 101.446 128.145 98.4938 129.22 95.4457C125.915 93.0232 122.578 91.0821 119.498 89.7666C116.321 88.403 113.209 87.3442 110.161 86.51H110.177Z" fill="url(#paint19_linear_0_63)"/>
<path style="mix-blend-mode:multiply" opacity="0.3" d="M46.0377 151.322C63.8131 153.744 80.9148 148.097 92.5619 141.183C91.1822 140.22 89.7704 139.194 88.3266 138.103C83.8346 134.67 79.7918 130.819 76.1982 126.632C67.4388 130.467 56.4014 132.712 46.1821 130.627C36.2997 128.606 27.5885 122.156 23.1125 112.21C22.2622 110.317 21.6045 108.167 21.1874 106.13C23.7703 124.258 32.9147 140.076 46.0217 151.322H46.0377Z" fill="url(#paint20_linear_0_63)"/>
<path style="mix-blend-mode:multiply" opacity="0.3" d="M93.476 114.6C88.7915 109.627 85.0375 104.253 82.1819 98.7023C82.0375 98.3975 81.8771 98.1248 81.7327 97.82C81.7327 97.82 81.7327 97.8039 81.7327 97.7879C80.0642 94.2425 78.6364 90.3442 77.5295 86.0929C74.4813 86.8148 71.4172 87.7132 68.3369 88.8683C64.5508 90.3763 61.23 92.0768 58.4225 93.7131C61.2781 103.611 65.4974 111.97 70.4225 118.964C72.2033 121.611 74.1284 124.162 76.23 126.616C79.984 124.98 83.337 123.039 86.0161 121.034C88.7755 118.964 91.2461 116.798 93.4921 114.584L93.476 114.6Z" fill="url(#paint21_linear_0_63)"/>
<path style="mix-blend-mode:multiply" opacity="0.3" d="M69.4284 26.6553C58.4391 40.8369 54.7814 58.4676 54.9418 72.0075C56.4659 71.2856 58.0701 70.5798 59.7386 69.8739C64.9525 67.6921 70.3108 66.1199 75.7172 65.1093C76.7761 55.6121 80.3536 44.9277 87.2681 37.1311C93.9579 29.575 103.904 25.2596 114.749 26.3665C116.803 26.5751 119.001 27.0884 120.974 27.7462C121.07 27.7783 121.167 27.8104 121.247 27.8264C111.252 23.7516 100.215 21.8265 88.744 22.6126C82.006 23.0778 75.5568 24.4414 69.4605 26.5911C69.4445 26.6072 69.4285 26.6393 69.4124 26.6553H69.4284Z" fill="url(#paint22_linear_0_63)"/>
<path style="mix-blend-mode:multiply" opacity="0.3" d="M165.717 109.226C158.915 92.6222 145.471 80.6224 133.664 73.9968C133.519 75.6813 133.343 77.4139 133.102 79.2267C132.38 84.8256 131.065 90.2479 129.236 95.4457C136.937 101.125 144.412 109.547 147.717 119.445C150.91 129.007 149.691 139.787 143.306 148.627C142.102 150.295 140.562 151.948 139.006 153.327C138.99 153.343 138.958 153.375 138.942 153.391C152.707 142.579 162.445 126.985 165.781 109.339C165.781 109.306 165.749 109.274 165.749 109.242L165.717 109.226Z" fill="url(#paint23_linear_0_63)"/>
<path style="mix-blend-mode:multiply" opacity="0.3" d="M75.6689 76.4032C76.086 79.8363 76.7117 83.0448 77.5138 86.0929C84.1716 84.5207 90.701 83.9432 96.9416 84.248C97.2785 84.264 97.5994 84.28 97.9363 84.2961H97.9684C101.883 84.6169 105.958 85.3389 110.177 86.4939C111.075 83.494 111.829 80.3817 112.375 77.1411C112.968 73.0984 113.145 69.3605 113.129 66.1039C103.134 63.6333 93.7973 63.136 85.2785 63.906C82.086 64.1146 78.9095 64.5156 75.733 65.1092C75.2838 69.184 75.2678 73.0503 75.6849 76.3871L75.6689 76.4032Z" fill="url(#paint24_linear_0_63)"/>
<path d="M468.897 68.644L456.755 102.467H456.849L468.967 68.8481L468.897 68.644Z" fill="white"/>
<path d="M256.335 77.0943L265.444 102.468H247.185L242.578 115.256H270.103L277.906 136.932H295.36L263.537 57.1152L256.335 77.0943Z" fill="white"/>
<path d="M241.167 102.467L253.302 68.6439L253.349 68.7722L258.475 54.5548H245.068L212.329 136.932H228.775L241.202 102.467H241.167Z" fill="white"/>
<path d="M348.252 94.4961C344.275 92.1518 339.003 89.965 332.425 87.9414C328.67 86.7168 325.725 85.5796 323.59 84.5241C321.456 83.4803 319.975 82.2848 319.147 80.9493C318.313 79.6139 317.899 78.0394 317.899 76.2316C317.899 73.0475 319.129 70.5924 321.584 68.8604C324.039 67.1226 327.474 66.2596 331.883 66.2596C335.499 66.2596 339.272 66.8019 343.208 67.8866C347.144 68.9712 350.632 70.4525 353.67 72.3302L355.944 58.9992C352.836 57.1214 349.063 55.6227 344.619 54.503C340.175 53.3834 335.749 52.8235 331.341 52.8235C325.34 52.8235 320.138 53.7974 315.729 55.751C311.321 57.7046 307.909 60.4863 305.489 64.096C303.069 67.7116 301.856 71.9745 301.856 76.8847C301.856 81.0776 302.672 84.7049 304.294 87.7781C305.921 90.8514 308.574 93.5048 312.26 95.7441C315.945 97.9834 320.785 100.007 326.786 101.815C331.125 103.115 334.484 104.346 336.869 105.5C339.254 106.655 340.916 107.938 341.855 109.349C342.794 110.76 343.266 112.44 343.266 114.388C343.266 117.788 341.872 120.441 339.091 122.354C336.309 124.266 332.46 125.223 327.544 125.223C323.281 125.223 318.82 124.558 314.161 123.217C309.501 121.881 305.437 120.167 301.967 118.067L300.451 131.83C302.474 133.206 305.005 134.396 308.038 135.405C311.076 136.42 314.341 137.213 317.846 137.79C321.351 138.367 324.838 138.659 328.308 138.659C338.064 138.659 345.721 136.437 351.285 131.993C356.848 127.55 359.63 121.391 359.63 113.513C359.63 109.32 358.726 105.693 356.918 102.62C355.11 99.5463 352.218 96.8404 348.246 94.4903L348.252 94.4961Z" fill="white"/>
<path d="M434.752 54.5548H365.059V67.9908H434.752V54.5548Z" fill="white"/>
<path d="M408.195 73.6191H391.61V136.933H408.195V73.6191Z" fill="white"/>
<path d="M456.755 102.467L468.896 68.6439L468.966 68.8481L474.121 54.5548H460.656L427.924 136.932H444.398L452.2 115.256H452.236L456.848 102.467H456.755Z" fill="white"/>
<path d="M471.952 77.1638L481.038 102.467H462.832L458.219 115.256H485.697L493.5 136.932H510.954L479.16 57.1847L471.952 77.1638Z" fill="white"/>
<path d="M564.605 103.546C568.582 101.307 571.83 98.2919 574.361 94.4955C576.892 90.705 578.157 86.2788 578.157 81.217C578.157 75.7236 576.927 70.9942 574.472 67.017C572.011 63.0457 568.512 59.9725 563.957 57.8031C559.403 55.6338 553.985 54.5491 547.699 54.5491H541.937V67.017H545.53C556.516 67.017 562.004 71.7115 562.004 81.1062C562.004 90.5009 556.33 95.1953 544.987 95.1953H541.937V107.657H550.405L567.748 136.92H586.281L564.599 103.534L564.605 103.546Z" fill="white"/>
<path d="M536.31 54.5548H520.6V136.932H536.31V54.5548Z" fill="white"/>
<path d="M627.247 126.102L659.353 84.2115V75.4612H612.089V85.8946H644.393V86.4592L611.012 128.873V137.1H660.482V126.667H627.258V126.102H627.247ZM724.295 75.4612H709.931L685.374 101.545H684.328V54.9183H672.327V137.09H684.328V115.219L690.287 109.26L711.248 137.09H725.979L699.341 101.911L724.295 75.4612ZM746.312 101.263H782.746V90.6305H746.312V65.5922H785.433V54.9183H733.914V137.09H785.914V126.416H746.312V101.263ZM830.763 121.847H829.843L806.969 54.9183H793.566L823.142 137.09H837.464L867.04 54.9183H853.637L830.763 121.847ZM944.946 54.9183L918.789 118.795H917.827L891.67 54.9183H876.626V137.09H888.419V77.5834H889.182L913.415 136.964H923.211L947.444 77.6148H948.208V137.079H960V54.9078H944.956L944.946 54.9183Z" fill="white"/>
<defs>
<linearGradient id="paint0_linear_0_63" x1="29.7703" y1="159.712" x2="149.287" y2="40.177" gradientUnits="userSpaceOnUse">
<stop stop-color="#E6007A"/>
<stop offset="0.21" stop-color="#703AC2"/>
<stop offset="0.46" stop-color="#0070EB"/>
<stop offset="0.77" stop-color="#0297FB"/>
<stop offset="1" stop-color="#0AE2FF"/>
</linearGradient>
<radialGradient id="paint1_radial_0_63" cx="0" cy="0" r="1" gradientUnits="userSpaceOnUse" gradientTransform="translate(120.461 76.7561) scale(35.6471 35.6465)">
<stop stop-color="white"/>
<stop offset="1" stop-color="white" stop-opacity="0"/>
</radialGradient>
<radialGradient id="paint2_radial_0_63" cx="0" cy="0" r="1" gradientUnits="userSpaceOnUse" gradientTransform="translate(67.7758 142.883) scale(20.7434 20.743)">
<stop stop-color="white"/>
<stop offset="1" stop-color="white" stop-opacity="0"/>
</radialGradient>
<linearGradient id="paint3_linear_0_63" x1="36.6523" y1="139.37" x2="56.6417" y2="139.097" gradientUnits="userSpaceOnUse">
<stop stop-color="white" stop-opacity="0"/>
<stop offset="1" stop-color="white"/>
</linearGradient>
<radialGradient id="paint4_radial_0_63" cx="0" cy="0" r="1" gradientUnits="userSpaceOnUse" gradientTransform="translate(63.9497 82.0809) rotate(-120) scale(35.6467 35.647)">
<stop stop-color="white"/>
<stop offset="1" stop-color="white" stop-opacity="0"/>
</radialGradient>
<radialGradient id="paint5_radial_0_63" cx="0" cy="0" r="1" gradientUnits="userSpaceOnUse" gradientTransform="translate(147.561 94.6427) rotate(-120) scale(20.7431 20.7433)">
<stop stop-color="white"/>
<stop offset="1" stop-color="white" stop-opacity="0"/>
</radialGradient>
<linearGradient id="paint6_linear_0_63" x1="160.072" y1="123.338" x2="149.841" y2="106.164" gradientUnits="userSpaceOnUse">
<stop stop-color="white" stop-opacity="0"/>
<stop offset="1" stop-color="white"/>
</linearGradient>
<radialGradient id="paint7_radial_0_63" cx="0" cy="0" r="1" gradientUnits="userSpaceOnUse" gradientTransform="translate(95.1184 126.709) rotate(120) scale(35.6467 35.647)">
<stop stop-color="white"/>
<stop offset="1" stop-color="white" stop-opacity="0"/>
</radialGradient>
<radialGradient id="paint8_radial_0_63" cx="0" cy="0" r="1" gradientUnits="userSpaceOnUse" gradientTransform="translate(65.8827 49.6812) rotate(120) scale(20.7431 20.7433)">
<stop stop-color="white"/>
<stop offset="1" stop-color="white" stop-opacity="0"/>
</radialGradient>
<linearGradient id="paint9_linear_0_63" x1="84.4723" y1="24.4769" x2="74.728" y2="41.9324" gradientUnits="userSpaceOnUse">
<stop stop-color="white" stop-opacity="0"/>
<stop offset="1" stop-color="white"/>
</linearGradient>
<linearGradient id="paint10_linear_0_63" x1="88.8242" y1="15.602" x2="58.2788" y2="24.4898" gradientUnits="userSpaceOnUse">
<stop stop-color="#231F20"/>
<stop offset="1" stop-color="white"/>
</linearGradient>
<linearGradient id="paint11_linear_0_63" x1="31.1178" y1="132.071" x2="56.6575" y2="158.734" gradientUnits="userSpaceOnUse">
<stop stop-color="#231F20"/>
<stop offset="1" stop-color="white"/>
</linearGradient>
<linearGradient id="paint12_linear_0_63" x1="168.188" y1="128.06" x2="177.075" y2="101.044" gradientUnits="userSpaceOnUse">
<stop stop-color="#231F20"/>
<stop offset="1" stop-color="white"/>
</linearGradient>
<linearGradient id="paint13_linear_0_63" x1="102.733" y1="31.067" x2="143.674" y2="40.4361" gradientUnits="userSpaceOnUse">
<stop stop-color="#231F20"/>
<stop offset="1" stop-color="white"/>
</linearGradient>
<linearGradient id="paint14_linear_0_63" x1="145.257" y1="135.862" x2="116.651" y2="166.64" gradientUnits="userSpaceOnUse">
<stop stop-color="#231F20"/>
<stop offset="1" stop-color="white"/>
</linearGradient>
<linearGradient id="paint15_linear_0_63" x1="33.2228" y1="120.304" x2="20.8803" y2="80.1562" gradientUnits="userSpaceOnUse">
<stop stop-color="#231F20"/>
<stop offset="1" stop-color="white"/>
</linearGradient>
<linearGradient id="paint16_linear_0_63" x1="111.685" y1="46.163" x2="98.7388" y2="59.1256" gradientUnits="userSpaceOnUse">
<stop stop-color="#231F20"/>
<stop offset="1" stop-color="white"/>
</linearGradient>
<linearGradient id="paint17_linear_0_63" x1="41.8344" y1="104.963" x2="59.5277" y2="109.716" gradientUnits="userSpaceOnUse">
<stop stop-color="#231F20"/>
<stop offset="1" stop-color="white"/>
</linearGradient>
<linearGradient id="paint18_linear_0_63" x1="127.678" y1="136.059" x2="122.939" y2="118.374" gradientUnits="userSpaceOnUse">
<stop stop-color="#231F20"/>
<stop offset="1" stop-color="white"/>
</linearGradient>
<linearGradient id="paint19_linear_0_63" x1="100.744" y1="120.328" x2="108.524" y2="109.595" gradientUnits="userSpaceOnUse">
<stop stop-color="#231F20"/>
<stop offset="1" stop-color="white"/>
</linearGradient>
<linearGradient id="paint20_linear_0_63" x1="73.9843" y1="115.675" x2="58.4389" y2="123.087" gradientUnits="userSpaceOnUse">
<stop stop-color="#231F20"/>
<stop offset="1" stop-color="white"/>
</linearGradient>
<linearGradient id="paint21_linear_0_63" x1="68.3369" y1="89.7987" x2="73.1497" y2="99.7933" gradientUnits="userSpaceOnUse">
<stop stop-color="#231F20"/>
<stop offset="1" stop-color="white"/>
</linearGradient>
<linearGradient id="paint22_linear_0_63" x1="90.7173" y1="58.9329" x2="87.3965" y2="47.4624" gradientUnits="userSpaceOnUse">
<stop stop-color="#231F20"/>
<stop offset="1" stop-color="white"/>
</linearGradient>
<linearGradient id="paint23_linear_0_63" x1="126.621" y1="111.472" x2="136.247" y2="113.686" gradientUnits="userSpaceOnUse">
<stop stop-color="#231F20"/>
<stop offset="1" stop-color="white"/>
</linearGradient>
<linearGradient id="paint24_linear_0_63" x1="111.525" y1="78.9539" x2="99.316" y2="76.74" gradientUnits="userSpaceOnUse">
<stop stop-color="#231F20"/>
<stop offset="1" stop-color="white"/>
</linearGradient>
</defs>
</svg>
