<svg width="75" height="24" viewBox="0 0 75 24" fill="none" xmlns="http://www.w3.org/2000/svg">
<g clip-path="url(#clip0_10011_55970)">
<g clip-path="url(#clip1_10011_55970)">
<path d="M23.9691 11.1859C23.5199 4.57309 17.7959 -0.421308 11.1851 0.0278922C7.89187 0.252292 4.99987 1.78629 2.98147 4.08429L2.97547 4.08029C2.96107 4.09869 2.94867 4.11709 2.93627 4.13549C0.931867 6.44789 -0.196133 9.52029 0.0278666 12.8143C0.0486666 13.1287 0.0854666 13.4367 0.130667 13.7423C0.130667 13.7571 0.134667 13.7691 0.136667 13.7835C0.167467 13.9847 0.202667 14.1863 0.241467 14.3835C0.278245 14.5658 0.319323 14.7472 0.364667 14.9275C1.75107 20.4539 6.92827 24.3679 12.8139 23.9675C19.4247 23.5179 24.4211 17.7943 23.9715 11.1819L23.9691 11.1859ZM21.3571 11.3643C21.4127 12.1779 21.3611 12.9747 21.2155 13.7427C21.2155 13.7387 21.2115 13.7347 21.2115 13.7303C20.3403 11.6047 18.6195 10.0687 17.1079 9.22029C17.4139 5.61829 16.1919 4.09869 14.8079 3.85229C14.5397 3.80191 14.2641 3.80689 13.9979 3.86691C13.7317 3.92693 13.4806 4.04073 13.26 4.20132C13.0394 4.36191 12.8539 4.5659 12.715 4.80077C12.5761 5.03563 12.4867 5.29641 12.4523 5.56709C12.4186 5.8282 12.4367 6.0934 12.5056 6.3475C12.5745 6.6016 12.6929 6.8396 12.8539 7.04789C13.015 7.25619 13.2155 7.43067 13.444 7.56135C13.6726 7.69204 13.9247 7.77636 14.1859 7.80949C14.2823 7.82189 14.3767 7.82589 14.4691 7.82389C14.4758 7.95245 14.4793 8.08116 14.4795 8.20989C13.1999 7.89389 12.0047 7.82989 10.9143 7.92869C10.5042 7.95559 10.0962 8.00702 9.69227 8.08269C9.82827 6.86669 10.2859 5.49909 11.1711 4.50109C12.0271 3.53389 13.3007 2.98149 14.6887 3.12309C14.9519 3.14989 15.2331 3.21549 15.4855 3.29989C15.4979 3.30389 15.5103 3.30789 15.5207 3.30989C18.7367 4.62029 21.1047 7.67389 21.3551 11.3643H21.3571ZM12.9927 13.1963C12.9927 13.1963 12.9927 13.1983 12.9907 13.2003C12.6873 13.6363 12.3435 14.0428 11.9639 14.4143C11.3889 13.807 10.9022 13.1219 10.5179 12.3791C10.4995 12.3399 10.4791 12.3051 10.4603 12.2659V12.2619C10.2351 11.7805 10.055 11.2793 9.92227 10.7647C10.7743 10.5635 11.6103 10.4895 12.4095 10.5287L12.5367 10.5347H12.5407C13.0419 10.5759 13.5635 10.6683 14.1035 10.8163C13.8528 11.6592 13.4792 12.4604 12.9947 13.1943L12.9927 13.1963ZM8.89347 3.14789L8.88747 3.15589C7.48067 4.97149 7.01227 7.22829 7.03307 8.96149C3.75947 10.4975 3.05707 12.3151 3.53347 13.6375C3.54547 13.6747 3.56027 13.7095 3.57467 13.7447C3.77992 14.235 4.17142 14.6237 4.66315 14.8255C5.15489 15.0272 5.7066 15.0255 6.19707 14.8207C6.68735 14.6154 7.07609 14.2239 7.27785 13.7322C7.47962 13.2405 7.47789 12.6888 7.27307 12.1983C7.23579 12.1112 7.19262 12.0267 7.14387 11.9455C7.24667 11.8775 7.35747 11.8103 7.47667 11.7403C7.84187 13.0075 8.38227 14.0775 9.01267 14.9727C9.24067 15.3115 9.48707 15.6379 9.75587 15.9523C8.63467 16.4431 7.22187 16.7307 5.91347 16.4635C4.64867 16.2051 3.53347 15.3795 2.96067 14.1059C2.85094 13.8561 2.76833 13.5953 2.71427 13.3279C2.68049 13.0982 2.65514 12.8674 2.63827 12.6359C2.34627 8.33749 5.01227 4.51149 8.89347 3.14789ZM12.6351 21.3575C10.0827 21.5319 7.69627 20.6615 5.89307 19.1127C8.16867 19.4231 10.3579 18.6999 11.8491 17.8151C14.8163 19.8831 16.7427 19.5831 17.6503 18.5091C17.8281 18.3018 17.9617 18.0604 18.0428 17.7996C18.1239 17.5388 18.1509 17.2642 18.122 16.9926C18.0932 16.7211 18.0092 16.4582 17.8751 16.2203C17.741 15.9824 17.5597 15.7744 17.3423 15.6091C17.1329 15.4495 16.8941 15.3327 16.6395 15.2654C16.385 15.1981 16.1196 15.1816 15.8587 15.2169C15.5978 15.2522 15.3464 15.3385 15.1189 15.471C14.8913 15.6035 14.6921 15.7796 14.5327 15.9891C14.4755 16.0651 14.4239 16.1475 14.3787 16.2295C14.2699 16.1739 14.1547 16.1123 14.0379 16.0447C14.8739 15.1821 15.5591 14.1852 16.0647 13.0955C16.2457 12.7267 16.4048 12.3475 16.5411 11.9599C17.5271 12.6871 18.4839 13.7651 18.9071 15.0319C19.3159 16.2559 19.1595 17.6359 18.3423 18.7679C18.1808 18.9875 17.9963 19.1892 17.7919 19.3695L17.7839 19.3775C16.3071 20.5407 14.5131 21.2302 12.6375 21.3555L12.6351 21.3575Z" fill="url(#paint0_linear_10011_55970)"/>
<path style="mix-blend-mode:overlay" opacity="0.9" d="M14.808 3.85037C14.5829 3.80763 14.352 3.80492 14.126 3.84237C15.2744 4.46637 16.11 6.20597 15.6708 9.63957C15.5254 10.7562 15.1973 11.8414 14.6996 12.8516C14.2707 13.7734 13.7126 14.6293 13.042 15.3936C13.3599 15.6327 13.6925 15.8515 14.038 16.0488C14.8742 15.1864 15.5594 14.1895 16.0652 13.1C16.564 12.0903 16.8922 11.0049 17.0364 9.88797C17.5604 5.80117 16.2748 4.11317 14.8084 3.85197L14.808 3.85037Z" fill="url(#paint1_radial_10011_55970)"/>
<g style="mix-blend-mode:overlay" opacity="0.8">
<path d="M15.6703 9.63763C16.1099 6.20563 15.2739 4.46443 14.1259 3.84003C14.0807 3.84603 14.0379 3.85643 13.9923 3.86683C15.1159 4.51363 15.9247 6.25083 15.4915 9.63763C15.3461 10.7543 15.018 11.8395 14.5203 12.8496C14.107 13.7388 13.5727 14.5667 12.9327 15.3096C12.9695 15.3384 13.0047 15.3652 13.0415 15.3916C13.7115 14.6269 14.2695 13.7709 14.6987 12.8492C15.1977 11.8395 15.526 10.7546 15.6703 9.63763Z" fill="white"/>
</g>
<path style="mix-blend-mode:overlay" opacity="0.5" d="M11.3064 17.4228C11.1976 17.3408 11.0948 17.2544 10.9904 17.168C9.296 17.8748 6.9484 18.318 4.6156 17.776C4.99551 18.2626 5.42266 18.7103 5.8908 19.1128C8.1664 19.4232 10.3556 18.7 11.8468 17.8152C11.6635 17.6871 11.4827 17.5556 11.3044 17.4208L11.3064 17.4228Z" fill="url(#paint2_radial_10011_55970)"/>
<path style="mix-blend-mode:overlay" opacity="0.6" d="M10.992 17.168C10.9408 17.1248 10.8876 17.082 10.8384 17.0388C9.13159 17.7204 6.77199 18.1292 4.44519 17.548C4.50279 17.624 4.56039 17.702 4.61759 17.776C6.94879 18.318 9.29759 17.8748 10.992 17.168Z" fill="url(#paint3_linear_10011_55970)"/>
<path style="mix-blend-mode:overlay" opacity="0.9" d="M3.53558 13.64C3.54758 13.6768 3.56238 13.712 3.57678 13.7468C3.65278 13.9276 3.75118 14.0896 3.87038 14.2356C3.83758 12.9296 4.92598 11.3336 8.11718 9.9988C9.15688 9.56636 10.2607 9.30823 11.3844 9.2348C12.3974 9.14447 13.4182 9.19983 14.4156 9.3992C14.4672 8.968 14.4876 8.5656 14.4836 8.21C13.3187 7.91676 12.1128 7.82169 10.9164 7.9288C9.79263 8.00241 8.68867 8.26053 7.64878 8.6928C3.84798 10.2824 3.02838 12.2396 3.53598 13.642V13.64H3.53558Z" fill="url(#paint4_radial_10011_55970)"/>
<g style="mix-blend-mode:overlay" opacity="0.8">
<path d="M8.11716 10.0008C4.92596 11.336 3.83716 12.9316 3.87036 14.2376C3.89916 14.2724 3.92996 14.3056 3.96076 14.3384C3.95836 13.0424 5.05916 11.4736 8.20756 10.1548C9.24726 9.72236 10.3511 9.46423 11.4748 9.39078C12.4516 9.30438 13.4356 9.35284 14.3992 9.53478C14.4056 9.48971 14.4111 9.4445 14.4156 9.39918C13.4181 9.20097 12.3974 9.14575 11.3844 9.23518C10.2608 9.30884 9.15693 9.56696 8.11716 9.99918V10.0008Z" fill="white"/>
</g>
<path style="mix-blend-mode:overlay" opacity="0.4" d="M17.0404 9.886C17.0244 10.0216 17.0016 10.1528 16.9788 10.2864C18.4368 11.3996 19.9956 13.2128 20.694 15.5024C20.9248 14.9295 21.0988 14.3353 21.2136 13.7284C20.3448 11.6028 18.624 10.0684 17.1124 9.2204C17.094 9.4364 17.0712 9.656 17.0424 9.886H17.0404Z" fill="url(#paint5_radial_10011_55970)"/>
<path style="mix-blend-mode:overlay" opacity="0.5" d="M16.9788 10.2864C16.9664 10.352 16.956 10.42 16.9436 10.4856C18.3876 11.6232 19.9216 13.4616 20.5808 15.7676C20.6196 15.6796 20.6568 15.5908 20.6916 15.5028C19.9936 13.2128 18.4368 11.4016 16.9764 10.2864H16.9788Z" fill="url(#paint6_linear_10011_55970)"/>
<path style="mix-blend-mode:overlay" opacity="0.9" d="M17.6505 18.5072C17.7989 18.3324 17.9169 18.1339 17.9997 17.92C16.8845 18.6016 14.9597 18.456 12.2061 16.3588C11.3109 15.6751 10.5351 14.8479 9.91006 13.9108C9.32524 13.0789 8.86254 12.1675 8.53606 11.2044C8.13766 11.3748 7.77846 11.5596 7.47046 11.7404C7.79966 12.8957 8.3202 13.9876 9.01046 14.9708C9.62646 15.8908 10.3945 16.7228 11.3065 17.4188C14.5841 19.916 16.6893 19.6468 17.6481 18.5068H17.6505V18.5072Z" fill="url(#paint7_radial_10011_55970)"/>
<g style="mix-blend-mode:overlay" opacity="0.8">
<path d="M12.208 16.3592C14.9596 18.4556 16.886 18.6016 18.0008 17.9196C18.0172 17.8768 18.0316 17.8336 18.044 17.7924C16.9228 18.4436 15.0128 18.2728 12.298 16.2052C11.4029 15.5214 10.6271 14.6943 10.002 13.7572C9.43881 12.9548 8.98897 12.0785 8.66524 11.1532C8.62204 11.1716 8.58124 11.188 8.54004 11.2064C8.86636 12.1696 9.32892 13.0811 9.91364 13.9132C10.5296 14.8332 11.2976 15.6652 12.2096 16.3612L12.2076 16.3592H12.208Z" fill="white"/>
</g>
<path style="mix-blend-mode:overlay" opacity="0.3" d="M7.64676 8.68881C7.77196 8.63721 7.89716 8.59001 8.02436 8.54281C8.25876 6.72321 9.04916 4.46641 10.6844 2.71881C10.0724 2.80681 9.47036 2.95081 8.88716 3.15401C7.47996 4.96961 7.01196 7.22641 7.03276 8.96001C7.22756 8.86801 7.43116 8.77721 7.64476 8.68921L7.64676 8.68881Z" fill="url(#paint8_radial_10011_55970)"/>
<path style="mix-blend-mode:overlay" opacity="0.4" d="M8.02405 8.54278C8.08805 8.52038 8.14965 8.49558 8.21325 8.47318C8.47605 6.65318 9.30165 4.40678 10.9672 2.68158C10.8728 2.69198 10.778 2.70438 10.6836 2.71678C9.04885 4.46638 8.25845 6.72118 8.02445 8.54078V8.54278H8.02405Z" fill="url(#paint9_linear_10011_55970)"/>
<path style="mix-blend-mode:multiply" opacity="0.4" d="M11.1852 0.0284267C7.89123 0.252427 5.00004 1.78643 2.98124 4.08443L2.93604 4.13563C3.32804 4.52603 4.61364 5.29403 5.13323 5.61443C6.16863 4.49896 7.46011 3.65244 8.89603 3.14803C8.99683 3.01643 9.10323 2.88723 9.21443 2.76203C10.5696 1.23203 12.42 0.424827 14.568 0.424827C14.8064 0.424827 15.2932 0.464027 15.3032 0.464027C13.9667 0.0795373 12.5731 -0.0680228 11.1856 0.0280267L11.1852 0.0284267Z" fill="url(#paint10_linear_10011_55970)"/>
<path style="mix-blend-mode:multiply" opacity="0.4" d="M12.6351 21.3596C10.0827 21.534 7.69635 20.6636 5.89315 19.1152C5.7238 19.093 5.55529 19.0649 5.38795 19.0308C3.38555 18.622 1.75915 17.4228 0.687146 15.5644C0.569106 15.359 0.461503 15.1478 0.364746 14.9316C1.75115 20.458 6.92835 24.3724 12.8119 23.9716C12.8387 23.366 12.6599 21.9596 12.6331 21.3596H12.6351Z" fill="url(#paint11_linear_10011_55970)"/>
<path style="mix-blend-mode:multiply" opacity="0.4" d="M23.9695 11.186C23.5999 11.1488 21.8008 11.2908 21.3576 11.3644C21.4128 12.178 21.3616 12.9748 21.2156 13.7428C21.2772 13.8948 21.3367 14.0508 21.3899 14.2088C22.0371 16.1476 21.8111 18.154 20.7391 20.0144C20.6205 20.2193 20.4917 20.4183 20.3531 20.6104C20.3531 20.6104 20.3591 20.606 20.3611 20.602C22.7991 18.23 24.2179 14.8456 23.9695 11.188V11.186Z" fill="url(#paint12_linear_10011_55970)"/>
<path style="mix-blend-mode:multiply" opacity="0.5" d="M14.6912 3.12118C14.954 3.14798 15.2352 3.21358 15.488 3.29798C15.5 3.30198 15.5128 3.30598 15.5228 3.30798C16.553 3.72844 17.5006 4.32781 18.322 5.07838C18.322 5.07838 18.326 5.08038 18.328 5.08238C18.7224 4.63278 19.48 4.13798 19.48 4.13798C19.48 4.13798 18.32 2.95078 16.5436 2.58118C15.3012 2.32238 12.498 2.07398 10.7296 5.08238L10.746 5.06638C10.8776 4.86878 11.0152 4.67598 11.1732 4.49918C12.0296 3.53198 13.3028 2.97918 14.6912 3.12118Z" fill="url(#paint13_linear_10011_55970)"/>
<path style="mix-blend-mode:multiply" opacity="0.5" d="M18.3424 18.77C18.181 18.9896 17.9964 19.1913 17.792 19.3716C17.784 19.3796 17.7736 19.388 17.7652 19.3964C16.886 20.0778 15.8932 20.5985 14.8328 20.9344C14.8308 20.9344 14.8288 20.9344 14.8264 20.9364C15.0196 21.5032 15.0688 22.4068 15.0688 22.4068C15.0688 22.4068 16.6768 21.9964 17.8848 20.6428C18.7288 19.696 20.3468 17.392 18.6256 14.3568C18.6256 14.3568 18.628 14.3668 18.632 14.3792C18.7388 14.5912 18.8352 14.8084 18.9092 15.0324C19.318 16.2564 19.1616 17.6364 18.3444 18.768L18.3424 18.77Z" fill="url(#paint14_linear_10011_55970)"/>
<path style="mix-blend-mode:multiply" opacity="0.5" d="M2.96524 14.1104C2.85534 13.8605 2.7726 13.5995 2.71844 13.332C2.71644 13.32 2.71244 13.3072 2.71044 13.2948C2.55844 12.188 2.60764 11.0668 2.84404 9.98677V9.98037C2.25644 9.86517 1.44964 9.45477 1.44964 9.45477C1.44964 9.45477 1.00164 11.0548 1.57084 12.7756C1.96924 13.9808 3.15404 16.5336 6.64284 16.5604C6.64284 16.5604 6.63284 16.558 6.62044 16.554C6.38444 16.5396 6.14844 16.5152 5.91644 16.468C4.65124 16.2092 3.53604 15.3836 2.96284 14.1104H2.96524Z" fill="url(#paint15_linear_10011_55970)"/>
<path style="mix-blend-mode:multiply" opacity="0.6" d="M14.186 7.80803C14.2824 7.82003 14.3768 7.82403 14.4692 7.82203C14.4692 7.82203 14.4056 6.57563 14.2536 5.93483C14.0996 5.29603 13.8736 4.87083 13.6272 4.63083C13.4488 4.45843 12.888 4.24443 12.4528 5.56283C12.419 5.82394 12.4371 6.08915 12.506 6.34327C12.5749 6.59739 12.6932 6.83543 12.8542 7.04376C13.0152 7.25209 13.2157 7.42661 13.4442 7.55735C13.6727 7.68808 13.9248 7.77245 14.186 7.80563V7.80763V7.80803Z" fill="url(#paint16_linear_10011_55970)"/>
<path style="mix-blend-mode:multiply" opacity="0.5" d="M7.27603 12.2024C7.2386 12.1154 7.1953 12.0311 7.14643 11.95C7.14643 11.95 6.09683 12.6276 5.62043 13.0792C5.14403 13.5312 4.88923 13.94 4.80523 14.2744C4.74563 14.5148 4.84003 15.1064 6.19963 14.8248C6.68992 14.6196 7.07866 14.2281 7.28042 13.7363C7.48218 13.2446 7.48046 12.6929 7.27563 12.2024H7.27603Z" fill="url(#paint17_linear_10011_55970)"/>
<path style="mix-blend-mode:multiply" opacity="0.6" d="M14.5352 15.9872C14.4776 16.0632 14.4264 16.1456 14.3812 16.2272C14.3812 16.2272 15.4924 16.7964 16.1228 16.9832C16.7532 17.1704 17.2336 17.1868 17.5644 17.092C17.8028 17.0244 18.2668 16.6444 17.3444 15.6096C17.135 15.4501 16.8963 15.3333 16.6418 15.266C16.3872 15.1988 16.122 15.1823 15.8611 15.2176C15.6002 15.2529 15.3489 15.3392 15.1214 15.4717C14.8939 15.6042 14.6947 15.7802 14.5352 15.9896V15.9872Z" fill="url(#paint18_linear_10011_55970)"/>
<path style="mix-blend-mode:multiply" opacity="0.3" d="M14.104 10.8184C13.852 11.6564 13.4984 12.4184 13.0652 13.0896C13.0424 13.1244 13.02 13.1596 12.9952 13.1964C12.9952 13.1964 12.9952 13.1984 12.9932 13.2004C12.6898 13.6364 12.3461 14.0429 11.9664 14.4144C12.2416 14.706 12.5372 14.9892 12.864 15.2584C13.2351 15.5503 13.6277 15.8139 14.0384 16.0468C14.8746 15.1844 15.5599 14.1876 16.0656 13.098C16.2465 12.7291 16.4055 12.3497 16.5416 11.962C16.1188 11.652 15.6916 11.4036 15.2976 11.2352C14.9092 11.0688 14.5097 10.9295 14.102 10.8184H14.1044H14.104Z" fill="url(#paint19_linear_10011_55970)"/>
<path style="mix-blend-mode:multiply" opacity="0.3" d="M5.8936 19.1152C8.1688 19.4252 10.358 18.7024 11.8492 17.8172C11.6659 17.6892 11.4851 17.5577 11.3068 17.4228C10.7397 16.989 10.2195 16.497 9.7548 15.9548C8.6332 16.4452 7.2204 16.7328 5.912 16.4656C4.6472 16.2072 3.532 15.3816 2.9588 14.1084C2.84905 13.8585 2.76644 13.5976 2.7124 13.33C3.0432 15.6504 4.2136 17.6752 5.8916 19.1148L5.8936 19.1152Z" fill="url(#paint20_linear_10011_55970)"/>
<path style="mix-blend-mode:multiply" opacity="0.3" d="M11.966 14.414C11.3912 13.8067 10.9046 13.1218 10.5204 12.3792C10.502 12.34 10.4812 12.3052 10.4628 12.266V12.262C10.2376 11.7806 10.0575 11.2794 9.92476 10.7648C9.53436 10.8572 9.14236 10.9724 8.74796 11.1204C8.31012 11.2953 7.88589 11.5026 7.47876 11.7404C7.84436 13.0076 8.38436 14.0776 9.01476 14.9728C9.24276 15.3116 9.48956 15.638 9.75876 15.9524C10.2388 15.7428 10.6684 15.4944 11.0108 15.2376C11.3481 14.9843 11.6679 14.7084 11.968 14.412L11.966 14.414Z" fill="url(#paint21_linear_10011_55970)"/>
<path style="mix-blend-mode:multiply" opacity="0.3" d="M8.88802 3.15597C7.48122 4.97157 7.01282 7.22837 7.03362 8.96157C7.23636 8.86637 7.44107 8.77542 7.64762 8.68877C8.3059 8.41379 8.99146 8.20931 9.69282 8.07877C9.82882 6.86277 10.2864 5.49517 11.1716 4.49717C12.0276 3.52997 13.3012 2.97717 14.6896 3.11917C14.9524 3.14597 15.2336 3.21157 15.4864 3.29597C15.4984 3.29997 15.5108 3.30397 15.5212 3.30597C14.2034 2.76825 12.7799 2.53999 11.36 2.63877C10.4976 2.69837 9.67202 2.87277 8.89162 3.14797C8.88962 3.14997 8.88762 3.15397 8.88562 3.15597H8.88802Z" fill="url(#paint22_linear_10011_55970)"/>
<path style="mix-blend-mode:multiply" opacity="0.3" d="M21.2136 13.7264C20.3432 11.6008 18.622 10.0644 17.1104 9.21643C17.092 9.43243 17.0696 9.65403 17.0384 9.88603C16.9467 10.5935 16.7809 11.2893 16.5436 11.962C17.5296 12.6892 18.4864 13.7672 18.9096 15.0344C19.318 16.2584 19.162 17.6384 18.3448 18.77C18.1833 18.9897 17.9988 19.1913 17.7944 19.3716L17.7864 19.3796C19.5484 17.9956 20.7944 15.9996 21.222 13.7408C21.222 13.7368 21.218 13.7324 21.218 13.7284L21.2136 13.7264Z" fill="url(#paint23_linear_10011_55970)"/>
<path style="mix-blend-mode:multiply" opacity="0.3" d="M9.68635 9.52443C9.7366 9.9428 9.81545 10.3572 9.92235 10.7648C10.7747 10.5636 11.6103 10.4896 12.4095 10.5288L12.5367 10.5348H12.5407C13.0419 10.576 13.5635 10.6684 14.1039 10.8164C14.2187 10.4324 14.3155 10.0336 14.3851 9.61883C14.4611 9.10163 14.4835 8.62282 14.4815 8.20602C13.2023 7.89002 12.0071 7.82603 10.9167 7.92483C10.5067 7.95171 10.0986 8.00313 9.69475 8.07883C9.63715 8.60043 9.63475 9.09522 9.68835 9.52282L9.68635 9.52443Z" fill="url(#paint24_linear_10011_55970)"/>
<path d="M60.1708 8.91241L58.6264 13.2108H58.6388L60.1792 8.93721L60.1708 8.91241ZM32.7568 8.91241L31.2128 13.2108H31.2188L32.7628 8.92681L32.7568 8.91241ZM33.1428 9.98641L34.3008 13.2108H31.9784L31.3928 14.8372H34.8924L35.8844 17.5952H38.1044L34.0588 7.44641L33.1428 9.98641Z" fill="#1C1E21"/>
<path d="M31.2124 13.2108L32.7568 8.91238L32.7632 8.92678L33.414 7.11958H31.7096L27.5468 17.596H29.6376L31.2188 13.2112L31.2124 13.2108ZM44.8308 12.1984C44.3256 11.9004 43.654 11.6212 42.818 11.3644C42.3396 11.2084 41.9656 11.0644 41.6948 10.9312C41.4236 10.7976 41.2348 10.646 41.13 10.4776C41.0252 10.3068 40.972 10.1076 40.972 9.87758C40.972 9.47318 41.128 9.16118 41.44 8.94158C41.7524 8.72158 42.1896 8.61078 42.7504 8.61078C43.2104 8.61078 43.6888 8.68038 44.19 8.81798C44.6908 8.95558 45.1344 9.14438 45.5208 9.38278L45.8104 7.68838C45.416 7.45038 44.9352 7.25918 44.3708 7.11558C43.8189 6.97515 43.2518 6.9034 42.6824 6.90198C41.9208 6.90198 41.2572 7.02518 40.6988 7.27398C40.138 7.52198 39.7048 7.87558 39.3968 8.33558C39.0888 8.79558 38.9348 9.33758 38.9348 9.96198C38.9348 10.496 39.0372 10.956 39.2448 11.346C39.452 11.7364 39.7888 12.0752 40.2572 12.3584C40.7252 12.644 41.3416 12.9008 42.1032 13.1304C42.6536 13.2972 43.0808 13.4532 43.3848 13.5988C43.6888 13.7448 43.9004 13.9092 44.0196 14.0876C44.1384 14.2664 44.198 14.4796 44.198 14.7284C44.198 15.1596 44.0216 15.4984 43.6684 15.7408C43.3152 15.9832 42.8244 16.1064 42.2 16.1064C41.6576 16.1064 41.0908 16.0224 40.4976 15.8516C39.904 15.6812 39.3884 15.4636 38.9468 15.1968L38.754 16.9464C39.0104 17.1208 39.3332 17.2728 39.7192 17.4004C40.1052 17.5296 40.52 17.6304 40.9656 17.7044C41.4112 17.778 41.8548 17.8152 42.2964 17.8152C43.5368 17.8152 44.5104 17.5316 45.2188 16.9672C45.9252 16.402 46.2804 15.6196 46.2804 14.6176C46.2804 14.0856 46.1656 13.6236 45.9356 13.2336C45.7056 12.8432 45.338 12.498 44.8328 12.2004L44.8308 12.1984ZM55.828 7.11998H46.9664V8.82798H55.828V7.11998ZM52.4512 9.54318H50.342V17.5932H52.4512V9.54318ZM58.6268 13.2108L60.1712 8.91238L60.1791 8.93718L60.8344 7.11958H59.1216L54.9608 17.5956H57.0556L58.0476 14.8372H58.0516L58.6392 13.2108H58.6268ZM60.5588 9.99478L61.7132 13.2108H59.3984L58.8132 14.8372H62.3064L63.2984 17.5952H65.5184L61.4748 7.45438L60.5588 9.99478ZM72.3383 13.3504C72.8373 13.0711 73.2625 12.6768 73.5788 12.2004C73.9012 11.7176 74.0616 11.1552 74.0616 10.5124C74.0616 9.81398 73.9056 9.21238 73.5932 8.70718C73.2812 8.20198 72.8356 7.81158 72.2564 7.53638C71.6772 7.26118 70.9891 7.12358 70.1884 7.12358H69.4552V8.70918H69.9112C71.3076 8.70918 72.0056 9.30678 72.0056 10.5C72.0056 11.6932 71.2848 12.2908 69.8412 12.2908H69.4532V13.876H70.5292L72.7348 17.5972H75.0924L72.3364 13.3524L72.3383 13.3504ZM68.7427 7.11998H66.7444V17.5932H68.7427V7.11998Z" fill="#1C1E21"/>
</g>
</g>
<defs>
<linearGradient id="paint0_linear_10011_55970" x1="3.81067" y1="20.1891" x2="19.1103" y2="4.88749" gradientUnits="userSpaceOnUse">
<stop stop-color="#E6007A"/>
<stop offset="0.21" stop-color="#703AC2"/>
<stop offset="0.46" stop-color="#0070EB"/>
<stop offset="0.77" stop-color="#0297FB"/>
<stop offset="1" stop-color="#0AE2FF"/>
</linearGradient>
<radialGradient id="paint1_radial_10011_55970" cx="0" cy="0" r="1" gradientUnits="userSpaceOnUse" gradientTransform="translate(15.42 9.56957) scale(4.5632)">
<stop stop-color="white"/>
<stop offset="1" stop-color="white" stop-opacity="0"/>
</radialGradient>
<radialGradient id="paint2_radial_10011_55970" cx="0" cy="0" r="1" gradientUnits="userSpaceOnUse" gradientTransform="translate(8.676 18.0348) scale(2.65535 2.65536)">
<stop stop-color="white"/>
<stop offset="1" stop-color="white" stop-opacity="0"/>
</radialGradient>
<linearGradient id="paint3_linear_10011_55970" x1="4.69159" y1="17.5852" x2="7.25079" y2="17.55" gradientUnits="userSpaceOnUse">
<stop stop-color="white" stop-opacity="0"/>
<stop offset="1" stop-color="white"/>
</linearGradient>
<radialGradient id="paint4_radial_10011_55970" cx="0" cy="0" r="1" gradientUnits="userSpaceOnUse" gradientTransform="translate(8.18568 10.2508) rotate(-120) scale(4.5632)">
<stop stop-color="white"/>
<stop offset="1" stop-color="white" stop-opacity="0"/>
</radialGradient>
<radialGradient id="paint5_radial_10011_55970" cx="0" cy="0" r="1" gradientUnits="userSpaceOnUse" gradientTransform="translate(18.889 11.8592) rotate(-120) scale(2.65535)">
<stop stop-color="white"/>
<stop offset="1" stop-color="white" stop-opacity="0"/>
</radialGradient>
<linearGradient id="paint6_linear_10011_55970" x1="20.4908" y1="15.5328" x2="19.1808" y2="13.3344" gradientUnits="userSpaceOnUse">
<stop stop-color="white" stop-opacity="0"/>
<stop offset="1" stop-color="white"/>
</linearGradient>
<radialGradient id="paint7_radial_10011_55970" cx="0" cy="0" r="1" gradientUnits="userSpaceOnUse" gradientTransform="translate(12.1763 15.9644) rotate(120) scale(4.5632)">
<stop stop-color="white"/>
<stop offset="1" stop-color="white" stop-opacity="0"/>
</radialGradient>
<radialGradient id="paint8_radial_10011_55970" cx="0" cy="0" r="1" gradientUnits="userSpaceOnUse" gradientTransform="translate(8.43293 6.10404) rotate(120) scale(2.65535)">
<stop stop-color="white"/>
<stop offset="1" stop-color="white" stop-opacity="0"/>
</radialGradient>
<linearGradient id="paint9_linear_10011_55970" x1="10.8128" y1="2.87718" x2="9.56525" y2="5.11198" gradientUnits="userSpaceOnUse">
<stop stop-color="white" stop-opacity="0"/>
<stop offset="1" stop-color="white"/>
</linearGradient>
<linearGradient id="paint10_linear_10011_55970" x1="11.3704" y1="1.74123" x2="7.46003" y2="2.87883" gradientUnits="userSpaceOnUse">
<stop stop-color="#231F20"/>
<stop offset="1" stop-color="white"/>
</linearGradient>
<linearGradient id="paint11_linear_10011_55970" x1="3.98315" y1="16.6508" x2="7.25275" y2="20.0636" gradientUnits="userSpaceOnUse">
<stop stop-color="#231F20"/>
<stop offset="1" stop-color="white"/>
</linearGradient>
<linearGradient id="paint12_linear_10011_55970" x1="21.5299" y1="16.1372" x2="22.6675" y2="12.6788" gradientUnits="userSpaceOnUse">
<stop stop-color="#231F20"/>
<stop offset="1" stop-color="white"/>
</linearGradient>
<linearGradient id="paint13_linear_10011_55970" x1="13.1508" y1="3.72078" x2="18.392" y2="4.92038" gradientUnits="userSpaceOnUse">
<stop stop-color="#231F20"/>
<stop offset="1" stop-color="white"/>
</linearGradient>
<linearGradient id="paint14_linear_10011_55970" x1="18.5944" y1="17.136" x2="14.9324" y2="21.076" gradientUnits="userSpaceOnUse">
<stop stop-color="#231F20"/>
<stop offset="1" stop-color="white"/>
</linearGradient>
<linearGradient id="paint15_linear_10011_55970" x1="4.25324" y1="15.1444" x2="2.67324" y2="10.0048" gradientUnits="userSpaceOnUse">
<stop stop-color="#231F20"/>
<stop offset="1" stop-color="white"/>
</linearGradient>
<linearGradient id="paint16_linear_10011_55970" x1="14.2968" y1="5.65323" x2="12.6396" y2="7.31283" gradientUnits="userSpaceOnUse">
<stop stop-color="#231F20"/>
<stop offset="1" stop-color="white"/>
</linearGradient>
<linearGradient id="paint17_linear_10011_55970" x1="5.35563" y1="13.1804" x2="7.62043" y2="13.7888" gradientUnits="userSpaceOnUse">
<stop stop-color="#231F20"/>
<stop offset="1" stop-color="white"/>
</linearGradient>
<linearGradient id="paint18_linear_10011_55970" x1="16.3444" y1="17.1612" x2="15.7376" y2="14.8972" gradientUnits="userSpaceOnUse">
<stop stop-color="#231F20"/>
<stop offset="1" stop-color="white"/>
</linearGradient>
<linearGradient id="paint19_linear_10011_55970" x1="12.8968" y1="15.1472" x2="13.8928" y2="13.7736" gradientUnits="userSpaceOnUse">
<stop stop-color="#231F20"/>
<stop offset="1" stop-color="white"/>
</linearGradient>
<linearGradient id="paint20_linear_10011_55970" x1="9.4712" y1="14.552" x2="7.4812" y2="15.5008" gradientUnits="userSpaceOnUse">
<stop stop-color="#231F20"/>
<stop offset="1" stop-color="white"/>
</linearGradient>
<linearGradient id="paint21_linear_10011_55970" x1="8.74796" y1="11.2392" x2="9.36396" y2="12.5188" gradientUnits="userSpaceOnUse">
<stop stop-color="#231F20"/>
<stop offset="1" stop-color="white"/>
</linearGradient>
<linearGradient id="paint22_linear_10011_55970" x1="11.6132" y1="7.28797" x2="11.188" y2="5.81957" gradientUnits="userSpaceOnUse">
<stop stop-color="#231F20"/>
<stop offset="1" stop-color="white"/>
</linearGradient>
<linearGradient id="paint23_linear_10011_55970" x1="16.2092" y1="14.0136" x2="17.4412" y2="14.2972" gradientUnits="userSpaceOnUse">
<stop stop-color="#231F20"/>
<stop offset="1" stop-color="white"/>
</linearGradient>
<linearGradient id="paint24_linear_10011_55970" x1="14.2763" y1="9.85123" x2="12.7135" y2="9.56763" gradientUnits="userSpaceOnUse">
<stop stop-color="#231F20"/>
<stop offset="1" stop-color="white"/>
</linearGradient>
<clipPath id="clip0_10011_55970">
<rect width="75" height="24" fill="white"/>
</clipPath>
<clipPath id="clip1_10011_55970">
<rect width="75.2" height="24" fill="white"/>
</clipPath>
</defs>
</svg>
