<svg xmlns="http://www.w3.org/2000/svg" fill="none" viewBox="0 0 111 24">
  <g clip-path="url(#awaji-light_svg__a)">
    <path fill="#000" d="M18.098 1.02a3.483 3.483 0 0 1 4.926 0l8.517 8.517a3.483 3.483 0 0 1 0 4.925l-8.517 8.517a3.483 3.483 0 0 1-4.926 0l-.49-.49a.436.436 0 0 1 0-.616l1.026-1.026c.17-.17.446-.17.616 0l.49.49c.453.454 1.19.454 1.642 0l8.517-8.516a1.162 1.162 0 0 0 0-1.643l-8.517-8.516a1.162 1.162 0 0 0-1.642 0l-8.517 8.516a1.162 1.162 0 0 0 0 1.643l5.057 5.057 5.057-5.057a1.162 1.162 0 0 0 0-1.643l-3.604-3.602a.581.581 0 0 1 0-.822l.821-.82a.58.58 0 0 1 .82 0l3.605 3.603a3.483 3.483 0 0 1 0 4.925l-8.516 8.517a3.483 3.483 0 0 1-4.926 0L1.02 14.463a3.483 3.483 0 0 1 0-4.926L9.537 1.02a3.483 3.483 0 0 1 4.925 0l1.818 1.818 1.818-1.818Zm41.33 17.578c.235 0 .353.12.353.359v2.546c0 .287-.047.54-.14.758-.093.22-.24.39-.443.511-.199.118-.46.177-.784.177-.413 0-.727-.096-.942-.286-.21-.195-.342-.456-.394-.784-.02-.117 0-.208.06-.273.061-.069.154-.104.28-.104.109 0 .19.029.243.085a.68.68 0 0 1 .133.25c.082.283.288.424.62.424.218 0 .382-.06.492-.181.11-.122.164-.314.164-.577v-2.546c0-.24.12-.359.358-.359Zm29.188-.11c.287 0 .55.054.79.159.243.105.453.253.632.443.08.09.107.18.079.274a.361.361 0 0 1-.164.206l-.03.018a.372.372 0 0 1-.225.037.436.436 0 0 1-.268-.127 1.034 1.034 0 0 0-.364-.238 1.144 1.144 0 0 0-.45-.085c-.251 0-.472.065-.662.195-.19.125-.338.306-.444.54-.1.232-.151.503-.151.814 0 .308.05.58.151.815.106.23.253.411.444.54.19.126.41.19.662.19.32 0 .591-.108.814-.323a.46.46 0 0 1 .25-.134.419.419 0 0 1 .242.036l.012.013c.085.04.144.109.177.206.036.093.016.184-.06.273a1.842 1.842 0 0 1-.633.45 1.998 1.998 0 0 1-.802.159 1.97 1.97 0 0 1-1.032-.274 1.89 1.89 0 0 1-.706-.772c-.17-.336-.254-.73-.254-1.179 0-.453.085-.847.255-1.178a1.878 1.878 0 0 1 1.737-1.057Zm-47.612.11c.243 0 .365.11.365.328 0 .215-.123.322-.365.322h-.912v3.245c0 .239-.117.358-.352.358-.239 0-.358-.12-.359-.358v-3.245h-.923c-.239 0-.359-.107-.359-.322 0-.218.12-.328.359-.328h2.546Zm2.806 0c.223 0 .334.112.334.334v1.355h1.932v-1.355c0-.223.114-.334.34-.334h.037c.222 0 .334.111.334.334v3.585c0 .223-.112.334-.334.334h-.036c-.227 0-.341-.111-.341-.334v-1.58h-1.932v1.58c0 .223-.111.334-.334.334h-.03c-.223 0-.335-.111-.335-.334v-3.585c0-.223.112-.334.335-.334h.03Zm7.804 0c.239 0 .358.11.358.328 0 .215-.12.322-.358.322h-1.786v1.106h1.597c.24 0 .359.11.359.328 0 .219-.12.328-.359.328h-1.597v1.19h1.852c.24 0 .359.108.359.323 0 .219-.12.328-.359.328h-2.193c-.239 0-.358-.12-.358-.358v-3.536c0-.24.119-.359.358-.359h2.127Zm12.039 0c.194 0 .322.089.383.267l1.38 3.603c.044.117.042.21-.006.28-.045.068-.126.103-.243.103h-.117c-.19 0-.315-.091-.376-.273l-.237-.662h-1.635l-.236.662c-.06.182-.187.273-.377.273h-.098c-.117 0-.197-.035-.242-.103-.044-.07-.044-.162 0-.28l1.373-3.603c.061-.178.189-.267.383-.267h.048Zm5.829 0c.397 0 .71.093.941.28.235.186.353.5.353.94 0 .442-.118.759-.353.95-.23.19-.544.284-.941.284h-1.246v1.44c0 .24-.118.36-.353.36-.23 0-.345-.12-.345-.36v-3.535c0-.24.12-.359.358-.359h1.586Zm4.53 0c.194 0 .321.089.382.267l1.38 3.603c.044.118.042.21-.007.28-.044.068-.126.103-.243.103h-.115c-.19 0-.316-.091-.376-.273l-.237-.662H73.16l-.237.662c-.06.182-.186.273-.377.273h-.097c-.118 0-.199-.035-.243-.103-.045-.07-.045-.163 0-.28l1.373-3.603c.06-.178.188-.267.383-.267h.048Zm4.309 0c.182 0 .326.079.431.236l1.847 2.784v-2.661c0-.118.031-.207.092-.268a.375.375 0 0 1 .267-.09c.234 0 .352.119.352.358v3.536c0 .239-.111.358-.334.358h-.06a.485.485 0 0 1-.432-.237l-1.89-2.867v2.746c0 .239-.117.358-.352.358-.231 0-.346-.12-.346-.358v-3.536c0-.24.115-.359.346-.359h.079Zm14.444 0c.223 0 .334.111.334.334v1.355h1.933v-1.355c0-.222.113-.334.34-.334h.037c.222 0 .334.111.334.334v3.585c0 .223-.112.334-.334.334h-.037c-.227 0-.34-.111-.34-.334v-1.58h-1.933v1.58c0 .223-.11.334-.334.334h-.03c-.223 0-.334-.111-.334-.334v-3.585c0-.223.111-.334.334-.334h.03Zm6.906 0c.194 0 .322.089.382.267l1.379 3.603c.045.118.043.21-.006.28-.044.068-.125.103-.243.103h-.115c-.19 0-.316-.091-.377-.273l-.237-.662H98.82l-.237.662c-.061.182-.187.273-.377.273h-.097c-.118 0-.199-.035-.243-.103-.045-.07-.045-.162 0-.28l1.373-3.603c.06-.178.188-.267.383-.267h.049Zm4.23 0c.235 0 .352.12.352.359v3.536c0 .239-.117.358-.352.358-.231 0-.347-.12-.347-.358v-3.536c0-.24.116-.359.347-.359Zm3.122 0c.182 0 .325.079.431.236l1.847 2.784v-2.661c0-.118.03-.207.091-.268a.376.376 0 0 1 .268-.09c.235 0 .352.119.352.358v3.536c0 .239-.111.358-.334.358h-.06a.484.484 0 0 1-.432-.237l-1.89-2.867v2.746c0 .239-.117.358-.352.358-.231 0-.347-.12-.347-.358v-3.536c0-.24.116-.359.347-.359h.079ZM12.82 2.662a1.161 1.161 0 0 0-1.642 0l-8.516 8.516a1.162 1.162 0 0 0 0 1.643l8.516 8.516a1.16 1.16 0 0 0 1.642 0l1.818-1.818-5.056-5.056a3.483 3.483 0 0 1 0-4.926l5.056-5.057-1.818-1.818Zm50.214 18.603h1.179l-.583-1.658-.596 1.658Zm10.358 0h1.179l-.584-1.658-.595 1.658Zm25.658 0h1.179l-.583-1.658-.596 1.658Zm-30.814-.869h1.148c.207 0 .367-.044.48-.133.114-.089.17-.238.17-.444 0-.202-.056-.348-.17-.438-.113-.089-.273-.133-.48-.133h-1.148v1.148Zm3.357-18.89c.32 0 .58.26.58.58v5.671c0 .768.226 1.387.675 1.859.45.46 1.042.691 1.777.691.734 0 1.327-.23 1.777-.691.45-.472.674-1.091.674-1.859V2.086c0-.321.26-.58.58-.58h1.225c.321 0 .58.259.58.58v5.671c0 .922-.202 1.739-.608 2.452a4.153 4.153 0 0 1-1.694 1.645c-.735.395-1.58.592-2.534.592-.954 0-1.799-.197-2.534-.592a4.264 4.264 0 0 1-1.71-1.645c-.395-.713-.593-1.53-.593-2.452V2.086c0-.32.26-.58.58-.58h1.225Zm-14.403 0c.32 0 .58.259.58.58v9.533c0 .32-.26.58-.58.58h-1.225a.58.58 0 0 1-.58-.58V2.086c0-.321.26-.58.58-.58h1.225Zm10.401 0c.32 0 .58.259.58.58v1.327a.581.581 0 0 1-.158.4l-5.912 6.247h5.654c.321 0 .582.26.582.581v.978c0 .32-.261.58-.582.58h-7.953a.58.58 0 0 1-.58-.58v-1.332a.58.58 0 0 1 .153-.393l5.754-6.25H60.13a.581.581 0 0 1-.58-.58v-.978c0-.321.26-.58.58-.58h7.46Zm27.53 0c.32 0 .58.259.58.58v9.533c0 .32-.26.58-.58.58h-1.225a.58.58 0 0 1-.58-.58V2.086c0-.321.26-.58.58-.58h1.225Zm3.982 0c.32 0 .58.259.58.58v3.746l3.694-4.133a.58.58 0 0 1 .432-.194h1.472a.58.58 0 0 1 .43.971l-3.724 4.097 4.091 4.663a.58.58 0 0 1-.437.963H104.3a.58.58 0 0 1-.429-.19l-4.188-4.614v4.224c0 .32-.26.58-.58.58H97.88a.58.58 0 0 1-.582-.58V2.086c0-.321.26-.58.582-.58h1.224Zm10.35 0c.32 0 .581.259.581.58v9.533c0 .32-.261.58-.581.58h-1.225a.58.58 0 0 1-.58-.58V2.086c0-.32.26-.58.58-.58h1.225Zm-26.59 0c.32 0 .58.259.58.58v3.363h5.89V2.086c0-.321.261-.58.582-.58h1.224c.32 0 .58.259.58.58v9.516c0 .32-.26.581-.58.581h-1.224a.582.582 0 0 1-.581-.58V7.586h-5.89v4.015c0 .32-.26.581-.581.581h-1.225a.58.58 0 0 1-.58-.58V2.085c0-.321.26-.58.58-.58h1.225Zm-33.22-.29c1.337 0 2.363.372 3.076 1.118.713.745 1.07 1.826 1.07 3.24v6.002c0 .32-.26.58-.58.58h-1.226a.58.58 0 0 1-.58-.58V5.312c0-.581-.181-1.053-.543-1.415-.362-.362-.834-.543-1.415-.543-.581 0-1.053.181-1.415.543-.362.362-.543.834-.543 1.415v6.264c0 .32-.26.58-.58.58h-1.225a.58.58 0 0 1-.58-.58V5.312c0-.581-.182-1.053-.544-1.415-.362-.362-.833-.543-1.414-.543s-1.053.181-1.415.543c-.362.362-.543.834-.543 1.415v6.264c0 .32-.26.58-.58.58H39.38a.58.58 0 0 1-.58-.58V5.575c0-1.415.362-2.496 1.086-3.241.724-.746 1.76-1.119 3.11-1.119 1.327 0 2.429.45 3.306 1.349.878-.9 1.991-1.349 3.34-1.349Z"/>
  </g>
  <defs>
    <clipPath id="awaji-light_svg__a">
      <path fill="#fff" d="M0 0h111v24H0z"/>
    </clipPath>
  </defs>
</svg>
