<svg xmlns="http://www.w3.org/2000/svg" fill="none" viewBox="0 0 111 24">
  <path fill="#fff" d="M18.1 1.02a3.483 3.483 0 0 1 4.925 0l8.517 8.518a3.483 3.483 0 0 1 0 4.925l-8.517 8.517a3.483 3.483 0 0 1-4.926 0l-.491-.491a.435.435 0 0 1 0-.616l1.026-1.026c.17-.17.446-.17.616 0l.49.491a1.161 1.161 0 0 0 1.642 0l8.518-8.517a1.161 1.161 0 0 0 0-1.642l-8.518-8.516a1.16 1.16 0 0 0-1.641 0l-8.517 8.516a1.16 1.16 0 0 0 0 1.642l5.057 5.056 5.056-5.056a1.16 1.16 0 0 0 0-1.642l-3.603-3.603a.58.58 0 0 1 0-.822l.82-.82a.581.581 0 0 1 .822 0l3.603 3.604a3.483 3.483 0 0 1 0 4.925l-8.517 8.517a3.483 3.483 0 0 1-4.925 0L1.02 14.463a3.483 3.483 0 0 1 0-4.925L9.537 1.02a3.484 3.484 0 0 1 4.925 0l1.819 1.818 1.818-1.817Zm41.33 17.578c.234 0 .352.12.352.358v2.546c0 .288-.047.542-.14.76a1.07 1.07 0 0 1-.443.51c-.199.118-.46.177-.784.177-.413 0-.727-.095-.942-.286-.21-.194-.343-.456-.395-.784-.02-.117 0-.208.06-.273.061-.069.155-.104.28-.104.11 0 .19.03.243.086.052.057.097.14.133.25.082.283.289.424.62.424.22 0 .383-.06.493-.183.109-.121.164-.314.164-.577v-2.546c0-.238.12-.358.358-.358Zm29.187-.11c.287 0 .55.053.79.159.243.105.453.253.632.443.08.09.107.18.079.274a.362.362 0 0 1-.164.207l-.03.018a.374.374 0 0 1-.226.036.436.436 0 0 1-.267-.128 1.03 1.03 0 0 0-.365-.236 1.139 1.139 0 0 0-.45-.086c-.25 0-.471.065-.661.195-.19.125-.338.306-.444.54-.1.232-.152.503-.152.815 0 .308.051.58.152.814.106.231.253.411.444.54.19.126.41.189.662.189.32 0 .591-.107.814-.321a.46.46 0 0 1 .25-.134.42.42 0 0 1 .242.036l.012.012c.085.04.144.11.177.207.036.093.015.184-.062.273a1.84 1.84 0 0 1-.632.45c-.242.105-.51.158-.801.158-.385 0-.73-.091-1.034-.274-.3-.182-.534-.44-.704-.771-.17-.337-.255-.73-.255-1.179 0-.454.085-.847.255-1.179.17-.336.405-.596.704-.778.304-.186.649-.28 1.034-.28Zm-47.613.11c.243 0 .365.11.365.328 0 .215-.122.322-.365.323h-.91v3.244c0 .239-.119.359-.353.359-.24 0-.359-.12-.359-.36v-3.244h-.923c-.24 0-.359-.107-.359-.322 0-.218.12-.328.358-.328h2.546Zm2.806 0c.223 0 .334.112.334.335v1.355h1.933v-1.355c0-.223.113-.335.34-.335h.037c.222 0 .334.112.334.335v3.584c0 .223-.112.335-.334.335h-.038c-.226 0-.34-.112-.34-.335v-1.58h-1.932v1.58c0 .223-.111.335-.334.335h-.03c-.223 0-.334-.112-.334-.335v-3.584c0-.223.111-.335.334-.335h.03Zm7.804 0c.239 0 .358.11.358.328 0 .215-.12.323-.358.323h-1.786v1.105h1.598c.239 0 .359.11.359.328 0 .219-.12.328-.359.328h-1.598v1.192h1.853c.24 0 .359.107.359.322 0 .218-.12.328-.359.328h-2.193c-.24 0-.359-.12-.359-.36v-3.536c0-.238.12-.358.359-.358h2.126Zm12.04 0c.194 0 .322.09.383.268l1.378 3.603c.045.117.043.21-.005.28-.045.068-.126.103-.243.103h-.116c-.19 0-.316-.091-.377-.274l-.236-.662h-1.635l-.237.662c-.06.182-.186.274-.376.274h-.098c-.117 0-.198-.035-.243-.104-.044-.068-.044-.162 0-.279l1.373-3.603c.06-.178.189-.268.383-.268h.049Zm5.828 0c.397 0 .712.094.942.28.235.187.352.5.352.942 0 .44-.117.757-.352.947-.23.19-.545.286-.942.286h-1.245v1.44c0 .239-.118.359-.353.359-.23 0-.346-.12-.346-.36v-3.536c0-.238.12-.358.358-.358h1.586Zm4.53 0c.195 0 .322.09.383.268l1.379 3.603c.044.117.043.21-.006.28-.044.068-.126.103-.243.103h-.115c-.19 0-.317-.091-.377-.274l-.238-.662h-1.633l-.238.662c-.06.183-.186.274-.377.274h-.096c-.118 0-.199-.035-.243-.104-.045-.068-.045-.162 0-.279l1.373-3.603c.06-.178.188-.268.382-.268h.05Zm4.31 0c.182 0 .325.08.43.237L80.6 21.62v-2.663c0-.117.03-.205.09-.266a.376.376 0 0 1 .269-.092c.234 0 .352.12.352.358v3.537c0 .239-.111.359-.334.359h-.062a.484.484 0 0 1-.43-.237l-1.89-2.868v2.746c0 .239-.118.359-.352.359-.231 0-.347-.12-.347-.36v-3.536c0-.238.116-.358.347-.358h.079Zm14.444 0c.223 0 .334.112.334.335v1.355h1.933v-1.355c0-.223.113-.335.34-.335h.036c.222 0 .335.112.335.335v3.584c0 .223-.112.335-.335.335h-.036c-.227 0-.34-.112-.34-.335v-1.58H93.1v1.58c0 .223-.111.335-.334.335h-.03c-.223 0-.335-.112-.335-.335v-3.584c0-.223.112-.335.335-.335h.03Zm6.904 0c.195 0 .323.09.383.268l1.38 3.603c.045.117.043.21-.006.28-.044.068-.126.103-.243.103h-.116c-.19 0-.315-.091-.376-.274l-.237-.662H98.82l-.236.662c-.061.183-.187.274-.377.274h-.098c-.117 0-.199-.035-.243-.104-.045-.068-.045-.162 0-.279l1.374-3.603c.06-.178.188-.268.383-.268h.047Zm4.231 0c.235 0 .352.12.352.358v3.537c0 .239-.117.359-.352.359-.231 0-.346-.12-.346-.36v-3.536c0-.238.115-.358.346-.358Zm3.122 0c.182 0 .326.08.432.237l1.846 2.784v-2.663c0-.117.031-.205.092-.266a.377.377 0 0 1 .268-.092c.234 0 .351.12.351.358v3.537c0 .239-.111.359-.334.359h-.06a.484.484 0 0 1-.432-.237l-1.89-2.868v2.746c0 .239-.117.359-.352.359-.231 0-.346-.12-.346-.36v-3.536c0-.238.115-.358.346-.358h.079ZM12.821 2.663a1.16 1.16 0 0 0-1.642 0l-8.517 8.516a1.161 1.161 0 0 0 0 1.642l8.517 8.517a1.161 1.161 0 0 0 1.642 0l1.818-1.818-5.056-5.057a3.483 3.483 0 0 1 0-4.925l5.056-5.057-1.818-1.818Zm50.213 18.603h1.178l-.583-1.66-.595 1.66Zm10.358 0h1.179l-.583-1.66-.596 1.66Zm25.66 0h1.178l-.583-1.66-.596 1.66Zm-30.815-.87h1.148c.207 0 .366-.044.48-.133.113-.089.17-.237.17-.443 0-.203-.057-.349-.17-.438-.114-.089-.273-.134-.48-.134h-1.148v1.149Zm3.356-18.89c.32 0 .581.26.581.58v5.671c0 .768.224 1.388.674 1.86.45.46 1.043.691 1.778.691.734 0 1.326-.23 1.776-.691.45-.472.675-1.092.675-1.86v-5.67c0-.321.26-.581.58-.582h1.224c.321 0 .581.26.581.581v5.671c0 .922-.202 1.74-.608 2.452a4.153 4.153 0 0 1-1.695 1.645c-.735.395-1.58.593-2.534.593-.954 0-1.799-.198-2.534-.593a4.263 4.263 0 0 1-1.71-1.645c-.395-.713-.592-1.53-.592-2.452v-5.67c0-.321.26-.582.58-.582h1.224Zm-14.403 0c.32 0 .581.26.581.58v9.534c0 .32-.26.58-.581.58h-1.225a.58.58 0 0 1-.58-.58V2.086c0-.32.26-.58.58-.58h1.225Zm10.401 0c.32 0 .581.26.581.58v1.328a.58.58 0 0 1-.159.398l-5.912 6.249h5.655c.32 0 .58.26.58.58v.979c0 .32-.26.58-.58.58h-7.954a.58.58 0 0 1-.58-.58v-1.332c0-.146.055-.287.154-.394l5.752-6.25h-4.997a.58.58 0 0 1-.58-.58v-.978c0-.32.26-.58.58-.58h7.46Zm27.53 0c.321 0 .58.26.58.58v9.534c0 .32-.259.58-.58.58h-1.224a.58.58 0 0 1-.581-.58V2.086c0-.32.26-.58.581-.58h1.225Zm3.982 0c.32 0 .581.26.581.58v3.746l3.693-4.132a.583.583 0 0 1 .433-.195h1.472a.58.58 0 0 1 .429.971l-3.724 4.097 4.091 4.664a.58.58 0 0 1-.436.963h-1.341a.58.58 0 0 1-.43-.19l-4.187-4.614v4.224c0 .32-.26.58-.581.58h-1.225a.58.58 0 0 1-.58-.58V2.086c0-.32.26-.58.58-.58h1.225Zm10.351 0c.32 0 .58.26.58.58v9.534c0 .32-.26.58-.58.58h-1.225a.58.58 0 0 1-.58-.58V2.086a.58.58 0 0 1 .58-.58h1.225Zm-26.59 0c.32 0 .58.26.58.58V5.45h5.89V2.086c0-.32.26-.58.58-.58h1.225c.32 0 .581.26.581.58v9.517c0 .32-.26.58-.58.58h-1.225a.58.58 0 0 1-.58-.58V7.588h-5.891v4.015c0 .32-.26.58-.58.58h-1.225a.58.58 0 0 1-.58-.58V2.086c0-.32.26-.58.58-.58h1.225Zm-33.22-.29c1.337 0 2.362.373 3.075 1.118.713.746 1.07 1.827 1.07 3.242v6c0 .32-.26.58-.58.58h-1.225a.58.58 0 0 1-.58-.58V5.312c0-.581-.181-1.053-.543-1.415-.362-.362-.834-.543-1.415-.543-.581 0-1.053.181-1.415.543-.362.362-.543.834-.543 1.415v6.264c0 .32-.26.58-.58.58h-1.226c-.32 0-.58-.26-.58-.58V5.312c0-.581-.181-1.053-.543-1.415-.362-.362-.834-.543-1.415-.543-.581 0-1.053.181-1.415.543-.362.362-.543.834-.543 1.415v6.264a.58.58 0 0 1-.58.58h-1.225a.582.582 0 0 1-.58-.58v-6c0-1.415.361-2.496 1.085-3.242.724-.745 1.76-1.119 3.11-1.119 1.327 0 2.43.45 3.307 1.35.878-.9 1.99-1.35 3.34-1.35Z"/>
</svg>
