<svg xmlns="http://www.w3.org/2000/svg" fill="none" viewBox="0 0 96 24">
  <g fill="#fff" clip-path="url(#base-dark_svg__a)">
    <path d="M0 7.384c0-.458 0-.687.086-.863a.85.85 0 0 1 .388-.387c.176-.087.405-.087.863-.087h14.25c.458 0 .687 0 .863.087a.85.85 0 0 1 .387.387c.087.176.087.405.087.863v14.25c0 .458 0 .687-.087.863a.85.85 0 0 1-.387.388c-.176.086-.405.086-.863.086H1.337c-.458 0-.687 0-.863-.086a.85.85 0 0 1-.388-.388C0 22.321 0 22.092 0 21.634zm28.15 1.161h.613c1.089-1.872 3.131-2.588 4.97-2.588 4.595 0 7.694 3.677 7.694 8.852 0 5.276-3.405 9.191-7.933 9.191-1.872 0-3.676-.681-4.731-2.485h-.614v1.974h-4.254V0h4.254zm23.288-2.588c4.357 0 7.252 2.111 7.252 6.23v8.306c0 1.055.101 2.519.17 2.928v.068h-4.086a28 28 0 0 1-.034-1.702h-.613C53.072 23.49 51.234 24 49.191 24c-3.268 0-5.923-1.975-5.923-5.209 0-3.812 2.928-5.038 6.468-5.412l5.004-.51v-.954c0-1.464-1.192-2.485-3.303-2.485-2.008 0-3.165.885-3.54 2.213h-4.084c.408-3.234 3.097-5.686 7.624-5.686m17.248 0c3.95 0 6.57 1.84 7.285 5.04h-4.085c-.477-1.26-1.736-1.771-3.166-1.771-1.736 0-2.86.749-2.86 1.804 0 1.09.886 1.43 2.724 1.736l1.804.306c3.302.545 5.821 1.907 5.821 5.21 0 3.607-2.996 5.718-7.183 5.718-4.289 0-7.353-2.145-7.83-5.515h4.188c.476 1.498 2.043 2.145 3.677 2.145 1.667 0 3.03-.715 3.03-1.975s-1.294-1.6-3.065-1.906l-1.803-.307c-3.405-.578-5.516-2.008-5.516-5.072 0-3.336 2.928-5.413 6.98-5.413m18.108 0c5.31 0 8.375 3.95 8.375 9.158v.75h-12.97c.204 2.824 2.178 4.492 4.56 4.492 1.975 0 3.167-.68 3.746-1.872h4.357C93.977 21.685 90.811 24 86.76 24c-5.243 0-8.715-3.575-8.715-9.056 0-5.378 3.677-8.987 8.749-8.987M50.995 16.136c-2.314.272-3.438.953-3.438 2.45 0 1.397 1.158 2.214 2.792 2.214 2.791 0 4.391-2.11 4.391-4.255v-.852zM32.575 9.77c-2.553 0-4.426 2.042-4.426 5.208 0 3.165 1.873 5.208 4.426 5.209 2.621 0 4.494-2.146 4.494-5.21S35.162 9.77 32.575 9.77m54.185-.34c-2.213 0-4.085 1.293-4.493 3.608h8.749c-.341-2.28-2.146-3.608-4.256-3.608"/>
  </g>
  <defs>
    <clipPath id="base-dark_svg__a">
      <path fill="#fff" d="M0 0h96v24H0z"/>
    </clipPath>
  </defs>
</svg>
