<svg xmlns="http://www.w3.org/2000/svg" fill="none" viewBox="0 0 127 24">
  <g clip-path="url(#berachain-light_svg__a)">
    <path fill="#000" d="M19.582.236H3.945A3.945 3.945 0 0 0 0 4.182v15.636a3.945 3.945 0 0 0 3.945 3.946h15.637a3.945 3.945 0 0 0 3.945-3.946V4.182A3.945 3.945 0 0 0 19.582.236Z"/>
    <path fill="#814625" d="M19.582.236H3.945A3.945 3.945 0 0 0 0 4.182v15.636a3.945 3.945 0 0 0 3.945 3.946h15.637a3.945 3.945 0 0 0 3.945-3.946V4.182A3.945 3.945 0 0 0 19.582.236Z"/>
    <path fill="#fff" d="M15.384 14.47v-.935c.542-.197.936-.81.936-1.535 0-.725-.394-1.34-.936-1.535V9.53c.51-.185.89-.74.933-1.412h-.62v.286c0 .22-.127.413-.313.51v-.133a.357.357 0 0 0-.359-.355h-.031c-.198 0-.36.16-.36.355v.133a.576.576 0 0 1-.311-.51v-.286h-.62c.042.672.422 1.227.932 1.412v.935c-.54.195-.936.808-.936 1.535 0 .727.394 1.34.936 1.535v.934c-.51.186-.89.741-.932 1.413h.62v-.286c0-.22.126-.414.312-.51v.133c0 .195.16.354.359.354h.031c.198 0 .36-.159.36-.354v-.134c.185.097.311.29.311.511v.286h.62c-.041-.672-.422-1.227-.931-1.413Zm-1.061-2.062v-.818c0-.22.126-.414.312-.51v.132c0 .196.16.355.359.355h.031c.198 0 .36-.16.36-.355v-.133a.576.576 0 0 1 .311.51v.82a.578.578 0 0 1-.312.51v-.133a.357.357 0 0 0-.359-.355h-.031a.358.358 0 0 0-.36.355v.133a.579.579 0 0 1-.311-.51Zm4.867.088v-.995c.541-.197.936-.81.936-1.535 0-.725-.395-1.34-.936-1.535v-.313h-.748v.313c-.541.198-.936.81-.936 1.535 0 .725.395 1.34.936 1.535v.995c-.541.198-.936.81-.936 1.535 0 .726.395 1.34.936 1.536v.313h.748v-.313c.541-.198.936-.81.936-1.536 0-.725-.395-1.337-.936-1.535Zm-1.062-2.121v-.819c0-.22.127-.413.312-.51v.133c0 .195.161.355.36.355h.03c.197 0 .358-.16.358-.355v-.133a.576.576 0 0 1 .312.51v.819c0 .22-.126.413-.312.51v-.133a.357.357 0 0 0-.359-.355h-.031c-.198 0-.36.16-.36.355v.133a.58.58 0 0 1-.31-.51Zm1.374 4.067c0 .22-.126.413-.312.51v-.195a.357.357 0 0 0-.359-.355h-.03a.358.358 0 0 0-.359.355v.195a.576.576 0 0 1-.312-.51v-.819c0-.22.126-.413.312-.51v.07c0 .196.161.355.36.355h.03c.199 0 .36-.159.36-.354v-.071a.576.576 0 0 1 .312.51v.819h-.002Zm-8.442-3.235a.61.61 0 0 0-.03-.114c.005-.008 1.168-1.61.091-2.6-1.076-.99-2.332.302-2.34.309-.199-.062-.4-.1-.6-.118h-.002c-.41-.067-.985 0-.985 0A2.895 2.895 0 0 0 6.6 8.8c-.007-.007-1.264-1.298-2.34-.308-1.075.99.087 2.592.092 2.6a.918.918 0 0 0-.03.114c-.116.685-.91.896-.91 2.09 0 1.217.83 2.176 2.522 2.176h.694c.003.003.271.38.825.403 0 0 .128.014.422.003.587 0 .873-.4.875-.405h.693c1.693 0 2.522-.958 2.522-2.175.005-1.192-.789-1.405-.904-2.09Z"/>
    <path fill="#000" d="M33.768 13.075c-.046.437-.046 3.475-.046 3.475.53.07 1.013.092 1.565.092 1.841 0 2.624-.76 2.624-1.795 0-1.197-.99-1.841-2.762-1.841-.552 0-.967.046-1.38.07Zm-.184-6.26c-.023.484-.023 3.268-.023 3.268.253.023.53.023.99.023 1.68 0 2.531-.598 2.531-1.68 0-1.265-1.427-1.68-2.44-1.68-.46 0-.828.046-1.058.07Zm5.684 4.488v.138c1.45.3 2.97 1.634 2.97 3.958 0 3.107-2.394 4.465-6.445 4.465-2.186 0-5.891-.184-6.006-.276-.115-.092-.253-15.511-.184-15.695.069-.184 4.28-.277 4.625-.277 3.683 0 6.928 1.013 6.928 4.373 0 1.864-.783 2.739-1.887 3.314Zm7.266 3.728c0 1.22.874 1.98 2.462 1.98 1.243 0 2.095-.438 2.693-.806.23.23 1.174 2.14 1.197 2.485-.622.576-2.21 1.312-4.074 1.312-4.165 0-5.845-2.784-5.845-5.73 0-3.107 1.933-6.007 5.546-6.007 3.06 0 4.925 2.302 4.925 4.88 0 .713-.069 1.31-.207 1.771-1.15.161-5.316.161-6.697.115Zm-.023-2.117 3.613-.069c.046-1.128-.53-2.002-1.634-2.002-1.197 0-1.98.897-1.98 2.071Zm15.854-4.488c.368.207-.092 3.383-.483 3.844-.368-.092-1.128-.253-1.611-.23-1.059.023-1.611.759-1.75 1.772-.045.506.139 5.868.047 5.937-.046.092-3.774.138-3.843 0-.07-.092-.07-10.632.023-11.07.207-.368 3.383-.483 3.59-.276.023.484 0 1.45 0 1.588.851-1.496 2.485-1.795 4.027-1.565Zm.608 2.279c.023-.392 1.542-2.555 4.626-2.555 2.853 0 5.063 1.68 5.063 5.04 0 2.463-.115 6.283-.184 6.421-.07.138-2.97 0-2.97 0l-.206-.99c-.161.162-1.128 1.266-2.946 1.266-2.509 0-3.567-1.473-3.567-3.475 0-2.071 1.818-3.383 4.12-3.383 1.058 0 1.702.3 2.14.621.023-.99.069-2.347-2.003-2.347-1.427 0-2.094 1.013-2.301 1.036-.207 0-1.795-1.381-1.772-1.634Zm2.9 5.638c0 .76.644 1.289 1.495 1.289 1.013 0 1.52-.599 1.52-1.289 0-.805-.668-1.312-1.52-1.312-.897 0-1.495.576-1.495 1.312Zm11.622-2.14c0 2.21 1.541 2.6 2.531 2.6 1.059 0 2.163-.69 2.44-.828.23-.07 1.081 1.588 1.38 2.232-.598.99-2.186 1.818-3.958 1.818-4.327 0-6.03-3.107-6.03-6.006 0-2.9 2.233-5.754 5.961-5.754 2.44 0 3.935.99 4.004 1.22.07.276-.575 2.9-.99 3.038-.16.023-1.357-1.013-2.692-1.013-1.634 0-2.646.92-2.646 2.693Zm7.628-11.714c.138-.138 3.544-.437 3.636.069.07.575-.046 6.467-.115 7.042.506-.69 1.404-1.38 3.015-1.38 3.13 0 4.695 1.978 4.695 4.947 0 1.542-.184 6.053-.323 6.49-.115.207-3.52.184-3.567.138-.046-.253.023-5.408.023-6.237 0-.966-.529-2.094-1.726-2.094-1.265 0-1.956.99-1.956 1.887 0 .783-.023 6.375-.092 6.444-.069.092-3.498.046-3.567-.092-.07-.138-.138-15.948-.023-17.214Zm12.563 8.216c.023-.392 1.542-2.555 4.626-2.555 2.853 0 5.063 1.68 5.063 5.04 0 2.463-.116 6.283-.185 6.421-.069.138-2.968 0-2.968 0l-.207-.99c-.162.162-1.128 1.266-2.946 1.266-2.509 0-3.567-1.473-3.567-3.475 0-2.071 1.818-3.383 4.119-3.383 1.059 0 1.703.3 2.14.621.023-.99.069-2.347-2.002-2.347-1.427 0-2.094 1.013-2.301 1.036-.207 0-1.795-1.381-1.772-1.634Zm2.9 5.638c0 .76.644 1.289 1.495 1.289 1.013 0 1.519-.599 1.519-1.289 0-.805-.667-1.312-1.519-1.312-.897 0-1.495.576-1.495 1.312Zm8.607-7.963c.138-.23 3.636-.092 3.728 0 .069.092-.115 11.139-.184 11.3-.092.161-3.383.092-3.429.023-.046-.069-.253-11.07-.115-11.323Zm-.138-3.659c0-1.243.368-2.14 2.025-2.14 1.243 0 2.117.851 2.117 2.278 0 1.013-.874 1.795-2.117 1.795-1.197 0-2.025-.667-2.025-1.933Zm5.767 3.935c.208-.299 3.43-.437 3.637-.23-.023.484-.046 1.243-.069 1.381.506-.76 1.634-1.61 3.498-1.61 2.508 0 4.073 2.001 4.073 4.97 0 1.542-.092 5.431-.184 6.559-.023.23-3.475.184-3.544.138-.092-.046.023-5.477.023-6.306 0-1.242-.552-2.117-1.749-2.117-1.266 0-2.025.99-2.025 1.887 0 .783-.023 6.306-.092 6.398-.069.092-3.429.046-3.498-.092-.047-.092-.139-6.099-.07-10.978Z"/>
  </g>
  <defs>
    <clipPath id="berachain-light_svg__a">
      <path fill="#fff" d="M0 0h127v24H0z"/>
    </clipPath>
  </defs>
</svg>
