<svg xmlns="http://www.w3.org/2000/svg" data-name="Layer 2" viewBox="0 0 385.01 86.23">
  <path d="M341.49 46.15h-7.87v28.99h7.87V46.15Zm-229.34 4.97c3.77 0 5.26.95 5.26 3.35s-1.45 3.36-5.26 3.36h-3.98v-6.71h3.98Zm-3.97 11.72h4.85c3.4 0 5.01 1.16 5.01 3.64s-1.66 3.69-5.05 3.69h-4.8v-7.33Zm7.21-16.69h-15.08v28.99h15.24c6.83 0 10.77-3.15 10.77-8.53 0-3.81-2.78-6.46-7.12-6.83 3.89-.7 6.01-2.98 6.01-6.5 0-4.8-3.23-7.12-9.81-7.12m2.73-14.96c0 2.46-1.64 3.65-5 3.65h-4.75v-7.26h4.79c3.36 0 4.96 1.15 4.96 3.61m-.61-11.88c0 2.42-1.43 3.32-5.2 3.32h-3.94V16h3.94c3.73 0 5.2.94 5.2 3.32m1.76 5.24c3.85-.7 5.95-2.95 5.95-6.43 0-4.75-3.2-7.05-9.72-7.05h-14.92v28.69h15.08c6.76 0 10.66-3.12 10.66-8.44 0-3.77-2.75-6.39-7.05-6.76m10.41 15.2h22.18v-5.04h-14.39V11.08h-7.79v28.69Zm-.06 35.37h22.4v-5.09h-14.54V46.16h-7.87v28.99Zm31.23-14.49c0-6.46 2.24-10.19 6.13-10.19s6.13 3.73 6.13 10.19-2.19 10.19-6.13 10.19-6.13-3.77-6.13-10.19m-8.29 0c0 9.19 5.67 15.16 14.41 15.16s14.41-5.97 14.41-15.16-5.67-15.16-14.41-15.16-14.41 5.92-14.41 15.16m19.49-33.13h-7.09l3.73-10.94 3.36 10.94Zm12.01 12.25-9.59-28.69h-10.94l-10.08 28.69h7.38l2.46-7.22h10.33l2.25 7.22h8.2Zm8.01-14.34c0-6.35 2.09-10.08 5.78-10.08 2.5 0 4.14 1.64 4.75 4.26h8.12c-1.03-5.61-5.53-9.18-12.79-9.18-8.44 0-14.06 5.9-14.06 15s5.62 15 14.02 15c7.34 0 11.64-3.2 13.08-9.76h-8.12c-.53 3.2-2.21 4.84-5 4.84-3.61 0-5.78-3.73-5.78-10.08m.5 35.22c0-6.42 2.11-10.19 5.84-10.19 2.53 0 4.18 1.66 4.8 4.31h8.2c-1.03-5.67-5.59-9.28-12.92-9.28-8.53 0-14.2 5.96-14.2 15.16s5.67 15.16 14.16 15.16c7.41 0 11.76-3.23 13.21-9.86h-8.2c-.54 3.23-2.24 4.89-5.05 4.89-3.64 0-5.84-3.77-5.84-10.19m48.52-20.88-11.72-15.7 11.19-12.99h-8.61l-9.71 11.6v-11.6h-7.79v28.69h7.79V26.86l9.02 12.91h9.84Zm-10.84 19.51 11.31-13.13h-8.7l-9.81 11.72V46.15h-7.87v28.99h7.87V62.09l9.11 13.05h9.94l-11.84-15.86Zm20.88-43.16h16.03v-5.04h-23.81v28.69h7.79V28.46h13.57v-5.04h-13.57v-7.3Zm-2.49 44.53c0-6.42 2.11-10.19 5.84-10.19 2.53 0 4.18 1.66 4.8 4.31h8.2c-1.03-5.67-5.59-9.28-12.92-9.28-8.53 0-14.2 5.96-14.2 15.16s5.67 15.16 14.16 15.16c7.41 0 11.76-3.23 13.21-9.86h-8.2c-.54 3.23-2.24 4.89-5.05 4.89-3.64 0-5.84-3.77-5.84-10.19m40.2-35.22c0 6.35-2.17 10.08-6.07 10.08s-6.07-3.73-6.07-10.08 2.21-10.08 6.07-10.08 6.07 3.69 6.07 10.08m8.2 0c0-9.14-5.61-15-14.26-15s-14.26 5.86-14.26 15 5.62 15 14.26 15 14.26-5.9 14.26-15m-7.36 49.71h7.87V46.15h-7.87v11.64h-10.56V46.15h-7.87v28.99h7.87V62.88h10.56v12.26Zm21.95-12.38 3.77-11.06 3.4 11.06h-7.16Zm-1.46-16.61-10.19 28.99h7.45l2.49-7.29h10.44l2.28 7.29h8.28l-9.69-28.99h-11.06Zm7.01-26.91c0 2.71-1.76 3.36-4.47 3.36h-4.55V16h4.59c2.67 0 4.43.45 4.43 3.24m.65 20.53h8.4v-.21c-.9-1.93-.94-4.22-.94-6.6v-1.6c0-4.26-1.39-6.35-5.33-6.84 3.69-.78 5.74-2.91 5.74-6.39 0-5.33-4.59-7.05-10.66-7.05h-14.68v28.69h7.79V27.64H313c3.77 0 4.22 1.11 4.22 4.59v1.72c0 2.87.33 4.51.62 5.82m25.91-23.65h8.4v-5.04h-24.59v5.04h8.4v23.65h7.79V16.12Zm21.8 48.59-11.8-18.55h-8.37v28.99h6.21V56.23l11.8 18.92h8.36V46.16h-6.21v18.55Zm-2.44-50.88h4.09v-2.75h-12.3v2.75h4.04v11.59h4.18V13.83Zm21.9 11.6V11.08h-6.26l-2.35 9.37-2.04-9.37h-5.86v14.35h3.11V14.15l2.58 11.28h3.91l2.89-11.77v11.77h4.04ZM62.78 55.64c-.67.73-.66 1.88.02 2.56 1.15 1.15 2.3 2.3 3.44 3.48.36.33.82.5 1.28.5s.95-.17 1.32-.52c1.08-1.11 2.18-2.22 3.3-3.33l.12-.12c.68-.68.69-1.83 0-2.58-1.15-1.11-2.3-2.26-3.41-3.41-.7-.7-1.91-.7-2.62 0-1.11 1.15-2.26 2.3-3.41 3.41l-.02.03Zm4.95-15.78h4.83c1.01 0 1.84-.82 1.84-1.84v-4.84c0-1.01-.82-1.84-1.84-1.84h-4.83c-1.01 0-1.84.82-1.84 1.84v4.84c0 1.01.82 1.84 1.84 1.84M48.17 74.4h4.87c.99 0 1.8-.82 1.8-1.84v-4.83c0-1.01-.81-1.84-1.8-1.84h-4.87c-.99 0-1.8.83-1.8 1.84v4.83c0 1.01.81 1.84 1.8 1.84m-9.87 4.26v5.54c0 1.12.91 2.02 2.02 2.02h5.58c1.1 0 1.99-.91 1.99-2.02v-5.54c0-1.12-.89-2.02-1.99-2.02h-5.58c-1.12 0-2.02.91-2.02 2.02m-2.37-18.78c-.59.65-.58 1.7.03 2.3.67.64 1.32 1.3 1.96 1.95l.99 1c.32.29.72.44 1.13.44s.83-.15 1.17-.46c.47-.47.95-.96 1.42-1.44.49-.5.98-1.01 1.46-1.48.32-.29.5-.69.51-1.12 0-.45-.17-.89-.49-1.21l-2.9-2.9c-.62-.63-1.69-.63-2.32 0l-.16.16c-.91.91-1.82 1.82-2.77 2.73l-.03.03Zm-11.36 6.34c-.35.35-.54.81-.54 1.3s.19.96.55 1.31c.77.74 1.52 1.51 2.28 2.27l1.15 1.16c.36.33.82.5 1.28.5s.93-.17 1.27-.51l3.42-3.42c.35-.35.54-.81.54-1.31 0-.49-.19-.96-.54-1.3l-3.42-3.42c-.66-.66-1.84-.68-2.57 0l-1.13 1.14c-.76.77-1.51 1.53-2.28 2.27Zm5.75-8.92c.91 0 1.65-.72 1.65-1.61v-4.13c0-.9-.76-1.65-1.65-1.65h-4.13c-.89 0-1.62.74-1.62 1.65v4.13c0 .89.73 1.61 1.62 1.61h4.13ZM9.59 45.9v-5.58c0-1.12-.91-2.02-2.02-2.02H1.99c-1.1 0-1.99.91-1.99 2.02v5.58c0 1.08.91 1.99 1.99 1.99h5.58c1.12 0 2.02-.89 2.02-1.99m1.02 22.9c-.75.8-.74 2.07.02 2.83.89.87 1.77 1.75 2.64 2.63l1.3 1.31c.38.38.9.6 1.43.6h.03c.53 0 1.02-.23 1.36-.59.9-.88 1.79-1.78 2.68-2.67l1.25-1.26c.39-.36.6-.85.61-1.38 0-.54-.21-1.08-.6-1.47l-1.24-1.24c-.89-.9-1.79-1.81-2.71-2.69-.73-.73-2.04-.75-2.83 0l-1.32 1.33c-.86.87-1.73 1.75-2.62 2.61l-.02.02Zm9.69-15.76v-4.87c0-1.01-.79-1.8-1.8-1.8h-4.83c-1.01 0-1.84.81-1.84 1.8v4.87c0 .99.82 1.8 1.84 1.8h4.83c1.01 0 1.8-.79 1.8-1.8m1.04-35.63c.38-.36.59-.85.6-1.37 0-.54-.21-1.08-.6-1.47-1.3-1.3-2.61-2.61-3.93-3.89-.73-.79-2-.87-2.93.06-1.27 1.27-2.55 2.55-3.88 3.84-.74.8-.74 2.06.02 2.82l3.94 3.94c.38.38.9.6 1.43.6h.03a1.92 1.92 0 0 0 1.36-.59c1.34-1.3 2.64-2.61 3.94-3.95m2.07 13.17c.34-.32.54-.76.55-1.24 0-.5-.19-.98-.53-1.33-.75-.77-1.51-1.52-2.27-2.28l-1.15-1.15c-.7-.7-1.87-.7-2.57 0L14 27.99c-.35.35-.55.84-.54 1.34 0 .49.21.93.54 1.24l1.15 1.16c.76.76 1.51 1.52 2.27 2.26.36.36.83.54 1.29.54s.92-.18 1.28-.54c1.15-1.12 2.31-2.27 3.42-3.42m5.86 8.32-2.93-2.94c-.58-.59-1.64-.63-2.32 0-.93.96-1.86 1.89-2.79 2.82l-.11.11c-.65.65-.65 1.66 0 2.31l2.9 2.9c.31.31.73.49 1.17.49h.04c.44-.01.84-.19 1.1-.48 1.01-.97 1.98-1.94 2.95-2.91.65-.65.65-1.66 0-2.31m5.39-14.3h-4.13c-.91 0-1.65.72-1.65 1.61v4.13c0 .9.76 1.65 1.65 1.65h4.13c.89 0 1.62-.74 1.62-1.65v-4.13c0-.89-.73-1.61-1.62-1.61m3.35-12.76h-4.83c-1.01 0-1.84.83-1.84 1.84v4.83c0 .99.82 1.8 1.84 1.8h4.83c1.01 0 1.84-.81 1.84-1.8v-4.83c0-1.01-.82-1.84-1.84-1.84m9.87-4.26V1.99C47.89.91 46.98 0 45.9 0h-5.58C39.2 0 38.3.89 38.3 1.99v5.58c0 1.12.91 2.02 2.02 2.02h5.58c1.1 0 1.99-.91 1.99-2.02m2.35 18.76c.31-.29.48-.68.49-1.11a1.7 1.7 0 0 0-.48-1.21l-2.9-2.9c-.63-.63-1.72-.63-2.35 0l-2.9 2.9c-.32.32-.5.76-.49 1.21.01.44.19.84.48 1.1.93.97 1.87 1.9 2.8 2.84l.11.1c.31.31.73.49 1.18.49s.86-.17 1.23-.54c.95-.95 1.89-1.89 2.84-2.88m5.43 27.93h-4.13c-.91 0-1.65.72-1.65 1.61V60c0 .9.76 1.65 1.65 1.65h4.13c.89 0 1.61-.74 1.61-1.65v-4.13c0-.89-.73-1.61-1.61-1.61m.19-17.97H60c.91 0 1.65-.73 1.65-1.62v-4.13c0-.89-.76-1.65-1.65-1.65h-4.13c-.89 0-1.61.74-1.61 1.65v4.13c0 .89.72 1.62 1.61 1.62m5.81-16.34c.65-.71.65-1.83-.02-2.56-.57-.57-1.14-1.13-1.72-1.7-.58-.57-1.16-1.14-1.73-1.71-.65-.71-1.89-.72-2.6 0-.72.75-1.47 1.49-2.21 2.22l-1.2 1.19a1.81 1.81 0 0 0 0 2.58l3.42 3.42c.35.35.82.54 1.3.54h.04c.49 0 .93-.21 1.23-.53 1.08-1.04 2.15-2.11 3.22-3.18l.26-.26Zm3.44 25.08c-.65-.67-1.31-1.33-1.97-1.97l-.98-.97c-.63-.63-1.69-.63-2.31 0-.97.97-1.94 1.94-2.88 2.92-.32.29-.5.69-.51 1.12-.01.45.17.89.49 1.21l2.9 2.9c.32.32.74.49 1.15.49s.83-.16 1.16-.49c.49-.49.99-.99 1.49-1.48.49-.47.97-.95 1.46-1.44.58-.64.58-1.69-.02-2.29m10.46-27.62c.38-.36.59-.85.6-1.37 0-.54-.21-1.08-.6-1.47-.67-.67-1.34-1.33-2.01-2-.65-.64-1.29-1.27-1.93-1.91-.77-.77-2.07-.77-2.84 0-.62.62-1.26 1.25-1.89 1.87-.69.68-1.37 1.35-2.07 2.05-.75.8-.74 2.07 0 2.81.88.9 1.77 1.79 2.66 2.67l1.29 1.28c.4.4.9.59 1.42.59s1.02-.2 1.42-.59l1.29-1.28c.89-.88 1.78-1.76 2.65-2.66m.01 54.23c.38-.36.6-.84.61-1.37 0-.54-.21-1.08-.6-1.47l-3.96-3.95c-.77-.72-2.03-.73-2.82.01l-3.96 3.95c-.75.8-.74 2.07.02 2.82l3.94 3.94c.4.4.91.6 1.42.6s1.02-.2 1.42-.6l3.93-3.94ZM86.23 45.9v-5.58c0-1.12-.91-2.02-2.02-2.02h-5.54c-1.12 0-2.02.91-2.02 2.02v5.58c0 1.1.91 1.99 2.02 1.99h5.54c1.12 0 2.02-.89 2.02-1.99" data-name="Ebene 1" style="fill:#fff"/>
</svg>
