<svg width="84" height="24" viewBox="0 0 84 24" fill="none" xmlns="http://www.w3.org/2000/svg">
<g clip-path="url(#clip0_11306_10528)">
<path d="M0.388436 10.8133C0.913448 10.8133 1.43846 10.8133 1.96399 10.8133C2.18469 10.8133 2.36333 10.9919 2.36333 11.2125C2.36333 11.7373 2.36333 12.2622 2.36333 12.7875C2.36333 12.9972 2.18469 13.1758 1.96399 13.1758C1.43898 13.1758 0.913968 13.1758 0.388436 13.1758C0.178639 13.1758 0 12.9972 0 12.7875C0 12.2627 0 11.7378 0 11.2125C0 10.9919 0.178639 10.8133 0.388436 10.8133ZM3.68599 13.0917C4.13778 13.0917 4.58905 13.0917 5.05123 13.0917C5.24025 13.0917 5.38722 13.2386 5.38722 13.4276C5.38722 13.8896 5.38722 14.3407 5.38722 14.8027C5.38722 14.9917 5.24025 15.1386 5.05123 15.1386C4.58905 15.1386 4.13778 15.1386 3.68599 15.1386C3.49697 15.1386 3.33962 14.9917 3.33962 14.8027C3.33962 14.3407 3.33962 13.8896 3.33962 13.4276C3.33962 13.2386 3.49697 13.0917 3.68599 13.0917ZM7.22554 14.0889C7.61397 14.0889 8.00293 14.0889 8.39137 14.0889C8.54871 14.0889 8.68529 14.2255 8.68529 14.3828C8.68529 14.7711 8.68529 15.1599 8.68529 15.5482C8.68529 15.7055 8.54871 15.8316 8.39137 15.8316C8.00293 15.8316 7.61397 15.8316 7.22554 15.8316C7.06819 15.8316 6.942 15.7055 6.942 15.5482C6.942 15.1599 6.942 14.7711 6.942 14.3828C6.942 14.2255 7.06819 14.0889 7.22554 14.0889ZM4.62073 2.96055C4.99878 3.32809 5.36644 3.69562 5.73411 4.06316C5.89146 4.22045 5.89146 4.47275 5.73411 4.61966C5.36644 4.99758 4.99878 5.36511 4.62073 5.73265C4.47377 5.88995 4.22139 5.88995 4.06404 5.73265C3.69638 5.36511 3.32871 4.99758 2.95066 4.61966C2.8037 4.47275 2.8037 4.22045 2.95066 4.06316C3.32871 3.69562 3.69638 3.32809 4.06404 2.96055C4.22191 2.80273 4.47377 2.80273 4.62073 2.96055ZM5.34567 6.88666C5.67127 7.21215 5.99687 7.52725 6.31209 7.85274C6.44867 7.98927 6.44867 8.2099 6.31209 8.33553C5.99687 8.66101 5.67127 8.9865 5.34567 9.30161C5.2091 9.43814 4.9993 9.43814 4.86272 9.30161C4.53712 8.9865 4.22191 8.66101 3.89631 8.33553C3.75973 8.20938 3.75973 7.98927 3.89631 7.85274C4.22191 7.52725 4.53712 7.21215 4.86272 6.88666C4.99878 6.75065 5.2091 6.75065 5.34567 6.88666ZM7.14141 10.0995C7.42495 10.3829 7.6981 10.656 7.97125 10.9291C8.08654 11.0443 8.08654 11.2229 7.97125 11.3386C7.6981 11.6117 7.42495 11.8848 7.14141 12.1573C7.03651 12.2725 6.84749 12.2725 6.73168 12.1573C6.45853 11.8842 6.18538 11.6112 5.91275 11.3386C5.79746 11.2234 5.79746 11.0448 5.91275 10.9291C6.1859 10.656 6.45905 10.3829 6.73168 10.0995C6.84749 9.99464 7.03651 9.99464 7.14141 10.0995ZM13.1804 0.388303C13.1804 0.913134 13.1804 1.43797 13.1804 1.96332C13.1804 2.18394 13.0017 2.36252 12.7919 2.36252C12.2669 2.36252 11.7419 2.36252 11.2164 2.36252C10.9957 2.36252 10.817 2.18394 10.817 1.96332C10.817 1.43848 10.817 0.913653 10.817 0.388303C10.817 0.178578 10.9957 0 11.2164 0C11.7414 0 12.2664 0 12.7919 0C13.0017 0 13.1804 0.178059 13.1804 0.388303ZM10.912 3.68472C10.912 4.13636 10.912 4.58747 10.912 5.04949C10.912 5.23845 10.7547 5.38536 10.5657 5.38536C10.1139 5.38536 9.65223 5.38536 9.20044 5.38536C9.01141 5.38536 8.85406 5.23845 8.85406 5.04949C8.85406 4.58747 8.85406 4.13636 8.85406 3.68472C8.85406 3.49576 9.01141 3.33847 9.20044 3.33847C9.65223 3.33847 10.1139 3.33847 10.5657 3.33847C10.7542 3.33847 10.912 3.49576 10.912 3.68472ZM9.90357 7.22305C9.90357 7.61135 9.90357 8.00017 9.90357 8.38848C9.90357 8.54577 9.77738 8.6823 9.62003 8.6823C9.23159 8.6823 8.84264 8.6823 8.4542 8.6823C8.29685 8.6823 8.16028 8.54577 8.16028 8.38848C8.16028 8.00017 8.16028 7.61135 8.16028 7.22305C8.16028 7.06576 8.29685 6.93961 8.4542 6.93961C8.84264 6.93961 9.23159 6.93961 9.62003 6.93961C9.77738 6.93961 9.90357 7.06524 9.90357 7.22305ZM21.0467 4.61914C20.679 4.99706 20.301 5.3646 19.9333 5.73213C19.776 5.88943 19.534 5.88943 19.3766 5.73213C19.009 5.3646 18.6309 4.99706 18.2633 4.61914C18.1163 4.47223 18.1163 4.21993 18.2633 4.06264C18.6309 3.6951 19.009 3.32757 19.3766 2.96003C19.534 2.80273 19.776 2.80273 19.9333 2.96003C20.301 3.32757 20.679 3.6951 21.0467 4.06264C21.2041 4.22045 21.2041 4.47223 21.0467 4.61914ZM17.1187 5.34383C16.7931 5.66932 16.4675 5.99481 16.1419 6.30992C16.0157 6.44644 15.7955 6.44644 15.659 6.30992C15.3438 5.99481 15.0182 5.66932 14.6926 5.34383C14.556 5.2073 14.556 4.99758 14.6926 4.86105C15.0182 4.53556 15.3438 4.22045 15.659 3.89497C15.7955 3.75844 16.0162 3.75844 16.1419 3.89497C16.4675 4.22045 16.7931 4.53556 17.1187 4.86105C17.2449 4.99706 17.2449 5.2073 17.1187 5.34383ZM13.8944 7.13895C13.6212 7.42239 13.3481 7.69545 13.0755 7.96851C12.9602 8.08375 12.7711 8.08375 12.6553 7.96851C12.3822 7.69545 12.109 7.42239 11.8364 7.13895C11.7211 7.03409 11.7211 6.84513 11.8364 6.72937C12.1096 6.45631 12.3827 6.18325 12.6553 5.91071C12.7706 5.79547 12.9596 5.79547 13.0755 5.91071C13.3486 6.18377 13.6218 6.45683 13.8944 6.72937C14.0102 6.84513 14.0102 7.03409 13.8944 7.13895ZM23.6089 13.1758C23.0839 13.1758 22.5589 13.1758 22.0443 13.1758C21.8236 13.1758 21.6449 12.9972 21.6449 12.7875C21.6449 12.2627 21.6449 11.7378 21.6449 11.2125C21.6449 10.9919 21.8236 10.8133 22.0443 10.8133C22.5589 10.8133 23.0839 10.8133 23.6089 10.8133C23.8296 10.8133 24.0083 10.9919 24.0083 11.2125C24.0083 11.7373 24.0083 12.2622 24.0083 12.7875C24.0083 12.9972 23.8296 13.1758 23.6089 13.1758ZM20.3218 10.9078C19.87 10.9078 19.4083 10.9078 18.9565 10.9078C18.7675 10.9078 18.6102 10.7505 18.6102 10.5615C18.6102 10.1099 18.6102 9.64838 18.6102 9.19675C18.6102 9.00779 18.7675 8.85049 18.9565 8.85049C19.4083 8.85049 19.87 8.85049 20.3218 8.85049C20.5108 8.85049 20.6681 9.00779 20.6681 9.19675C20.6681 9.64838 20.6681 10.1099 20.6681 10.5615C20.6687 10.7505 20.5108 10.9078 20.3218 10.9078ZM16.7723 9.90016C16.3839 9.90016 15.995 9.90016 15.6065 9.90016C15.4492 9.90016 15.323 9.77401 15.323 9.61672C15.323 9.22841 15.323 8.83959 15.323 8.45129C15.323 8.294 15.4492 8.15747 15.6065 8.15747C15.995 8.15747 16.3839 8.15747 16.7723 8.15747C16.9297 8.15747 17.0663 8.294 17.0663 8.45129C17.0663 8.83959 17.0663 9.22841 17.0663 9.61672C17.0663 9.77401 16.9297 9.90016 16.7723 9.90016ZM19.3766 21.0389C19.009 20.6714 18.6309 20.2935 18.2633 19.9259C18.1163 19.779 18.1163 19.5267 18.2633 19.3694C18.6309 19.0019 19.009 18.624 19.3766 18.2564C19.534 18.1095 19.776 18.1095 19.9333 18.2564C20.301 18.624 20.679 19.0019 21.0467 19.3694C21.2041 19.5267 21.2041 19.779 21.0467 19.9259C20.679 20.2935 20.301 20.6714 19.9333 21.0389C19.776 21.1967 19.534 21.1967 19.3766 21.0389ZM18.6522 17.1128C18.337 16.7873 18.0114 16.4618 17.6858 16.1364C17.5596 16.0102 17.5596 15.7901 17.6858 15.6536C18.0114 15.3385 18.337 15.013 18.6522 14.6875C18.7888 14.551 19.0095 14.551 19.1461 14.6875C19.4613 15.013 19.7869 15.3385 20.1125 15.6536C20.2387 15.7901 20.2387 16.0107 20.1125 16.1364C19.7869 16.4618 19.4613 16.7873 19.1461 17.1128C19.009 17.2384 18.7888 17.2384 18.6522 17.1128ZM16.856 13.8896C16.5828 13.6165 16.3097 13.3435 16.037 13.0709C15.9217 12.9557 15.9217 12.7667 16.037 12.6614C16.3102 12.3779 16.5833 12.1049 16.856 11.8318C16.9712 11.7166 17.1499 11.7166 17.2657 11.8318C17.5388 12.1049 17.8224 12.3779 18.0955 12.6614C18.2004 12.7662 18.2004 12.9552 18.0955 13.0709C17.8224 13.344 17.5388 13.6171 17.2657 13.8896C17.1504 14.0048 16.9718 14.0048 16.856 13.8896ZM10.8175 23.6008C10.8175 23.076 10.8175 22.5511 10.8175 22.0367C10.8175 21.8161 10.9962 21.6375 11.2169 21.6375C11.7419 21.6375 12.2669 21.6375 12.7924 21.6375C13.0022 21.6375 13.1809 21.8161 13.1809 22.0367C13.1809 22.5511 13.1809 23.076 13.1809 23.6008C13.1809 23.8214 13.0022 24 12.7924 24C12.2674 24 11.7424 24 11.2169 24C10.9957 24 10.8175 23.8214 10.8175 23.6008ZM13.0962 20.3148C13.0962 19.8631 13.0962 19.4016 13.0962 18.95C13.0962 18.761 13.2432 18.6037 13.4322 18.6037C13.8944 18.6037 14.3457 18.6037 14.8078 18.6037C14.9969 18.6037 15.1438 18.761 15.1438 18.95C15.1438 19.4016 15.1438 19.8631 15.1438 20.3148C15.1438 20.5037 14.9969 20.661 14.8078 20.661C14.3457 20.661 13.8944 20.661 13.4322 20.661C13.2432 20.661 13.0962 20.5037 13.0962 20.3148ZM14.0938 16.766C14.0938 16.3777 14.0938 15.9889 14.0938 15.6006C14.0938 15.4433 14.2304 15.3172 14.3877 15.3172C14.7762 15.3172 15.1651 15.3172 15.5536 15.3172C15.7109 15.3172 15.8371 15.4433 15.8371 15.6006C15.8371 15.9889 15.8371 16.3777 15.8371 16.766C15.8371 16.9233 15.7109 17.0599 15.5536 17.0599C15.1651 17.0599 14.7762 17.0599 14.3877 17.0599C14.2304 17.0604 14.0938 16.9239 14.0938 16.766ZM2.95118 19.37C3.32923 19.0024 3.6969 18.6245 4.06456 18.257C4.22191 18.1101 4.47429 18.1101 4.62125 18.257C4.9993 18.6245 5.36696 19.0024 5.73463 19.37C5.89198 19.5273 5.89198 19.7795 5.73463 19.9265C5.36696 20.294 4.9993 20.6719 4.62125 21.0395C4.47429 21.1967 4.22191 21.1967 4.06456 21.0395C3.6969 20.6719 3.32923 20.294 2.95118 19.9265C2.80422 19.7795 2.80422 19.5273 2.95118 19.37ZM6.88955 18.6453C7.21515 18.3302 7.53037 18.0047 7.85597 17.6792C7.99254 17.553 8.21325 17.553 8.33892 17.6792C8.66452 18.0047 8.99012 18.3302 9.30533 18.6453C9.44191 18.7818 9.44191 19.0024 9.30533 19.139C8.99012 19.4541 8.66452 19.7795 8.33892 20.105C8.21273 20.2312 7.99254 20.2312 7.85597 20.105C7.53037 19.7795 7.21515 19.4541 6.88955 19.139C6.75297 19.0024 6.75297 18.7818 6.88955 18.6453ZM10.103 16.8501C10.3865 16.5771 10.6597 16.304 10.9328 16.0315C11.0481 15.9162 11.2267 15.9162 11.3425 16.0315C11.6157 16.3046 11.8889 16.5776 12.1615 16.8501C12.2768 16.9654 12.2768 17.1544 12.1615 17.2597C11.8883 17.5328 11.6152 17.8162 11.3425 18.0893C11.2273 18.1942 11.0486 18.1942 10.9328 18.0893C10.6597 17.8162 10.3865 17.5328 10.103 17.2597C9.99808 17.1549 9.99808 16.9654 10.103 16.8501Z" fill="url(#paint0_linear_11306_10528)"/>
<path fill-rule="evenodd" clip-rule="evenodd" d="M30.7267 9.17775C31.0874 8.99082 31.2612 8.68368 31.2612 8.28274C31.2612 7.92209 31.1145 7.64137 30.8469 7.41415C30.5661 7.18693 30.2053 7.07992 29.7514 7.07992H27.6V11.4883H29.8716C30.3527 11.4883 30.7267 11.3813 30.9943 11.154C31.2751 10.94 31.4085 10.6329 31.4085 10.2326C31.4085 9.75241 31.1813 9.40497 30.7267 9.17775ZM29.7514 7.9756C29.8981 7.9756 30.0051 8.01589 30.0989 8.09581C30.1789 8.17573 30.2324 8.28274 30.2324 8.41617C30.2324 8.53638 30.1789 8.64339 30.0989 8.73652C30.0051 8.81644 29.8987 8.86995 29.7514 8.86995H28.6288V7.98815L29.7514 7.9756ZM29.8716 10.5939H28.6288V9.6857H29.8716C30.0322 9.6857 30.1525 9.72599 30.2456 9.80591C30.3256 9.88583 30.3791 10.006 30.3791 10.1401C30.3791 10.2742 30.3256 10.3806 30.2324 10.4744C30.1525 10.5536 30.0322 10.5939 29.8716 10.5939ZM34.7222 10.5272V7.08058H33.6802V11.4889H36.8069V10.5272H34.7222ZM42.2456 11.4889H43.3279L41.6978 7.08058H40.3214L38.6914 11.4889H39.7737L40.0809 10.6474H41.9383L42.2456 11.4889ZM40.4153 9.73854L41.0033 8.08194L41.6046 9.73854H40.4153ZM47.3505 11.5821C47.9254 11.5821 48.4064 11.4354 48.7804 11.1415C49.1544 10.8476 49.3949 10.5001 49.4887 10.1263L48.4732 9.85941C48.4064 10.0596 48.273 10.2333 48.0721 10.3806C47.8719 10.5272 47.6175 10.5946 47.3373 10.5946C46.9633 10.5946 46.6693 10.4744 46.4288 10.2075C46.2015 9.95387 46.0812 9.64672 46.0812 9.28608C46.0812 8.91222 46.2015 8.60508 46.4288 8.36465C46.6561 8.111 46.9633 7.97758 47.3241 7.97758C47.6181 7.97758 47.8587 8.0575 48.0727 8.2048C48.273 8.35143 48.4071 8.52515 48.4599 8.72595L49.4887 8.48552C49.3949 8.08458 49.1544 7.75102 48.7672 7.44387C48.3932 7.14994 47.8983 7.0033 47.3241 7.0033C46.6561 7.0033 46.1083 7.21731 45.6669 7.65788C45.2262 8.09845 45.0121 8.64669 45.0121 9.2874C45.0121 9.94198 45.2262 10.4896 45.6802 10.9308C46.1209 11.3581 46.6693 11.5854 47.3373 11.5854H47.3505V11.5821ZM54.5534 11.4889H55.8227L54.0056 8.99082L55.6892 7.08058H54.3664L52.776 9.00403V7.08058H51.734V11.4889H52.776V10.3799L53.3237 9.76562L54.5534 11.4889ZM61.2211 8.0291V7.08058H57.9338V11.4889H58.9758V9.84554H60.8867V8.91024H58.9758V8.0291H61.2211ZM65.4975 11.5821C66.1655 11.5821 66.7132 11.3548 67.1678 10.9275C67.6086 10.4869 67.8227 9.93868 67.8227 9.2841C67.8227 8.62951 67.6086 8.09515 67.1678 7.65458C66.7132 7.21401 66.1655 7 65.4975 7C64.8294 7 64.2678 7.21401 63.8271 7.65458C63.3864 8.09515 63.1591 8.64339 63.1591 9.29797C63.1591 9.95255 63.3864 10.4869 63.8271 10.9275C64.2685 11.3687 64.8294 11.5821 65.4975 11.5821ZM65.4975 10.6203C65.1103 10.6203 64.8024 10.4869 64.5757 10.2465C64.3352 9.99284 64.2149 9.67182 64.2149 9.29797C64.2149 8.9109 64.3352 8.58988 64.5757 8.33624C64.803 8.09581 65.1103 7.96239 65.4975 7.96239C65.8715 7.96239 66.1787 8.09581 66.4192 8.33624C66.6465 8.58988 66.7668 8.9109 66.7668 9.29797C66.7668 9.67182 66.6465 9.99284 66.4192 10.2465C66.1794 10.4869 65.8715 10.6203 65.4975 10.6203ZM72.847 11.4889H74.0496L72.9937 9.91292C73.2745 9.7927 73.5018 9.60577 73.6485 9.36534C73.8091 9.12491 73.889 8.8574 73.889 8.56412C73.889 8.17706 73.7423 7.82962 73.4615 7.53569C73.1675 7.22854 72.7935 7.08124 72.3257 7.08124H70.1207V11.4896H71.1495V10.047H71.9114L72.847 11.4889ZM71.1502 8.01523H72.286C72.4466 8.01523 72.5933 8.06873 72.7003 8.17573C72.8206 8.28274 72.8741 8.41617 72.8741 8.5628C72.8741 8.72331 72.8074 8.85674 72.7003 8.96374C72.5801 9.07075 72.4334 9.12425 72.2457 9.12425H71.1502V8.01523ZM79.8226 7.08058H75.9737V8.0291H77.3771V11.4889H78.4191V8.0291H79.8226V7.08058ZM29.3844 14.2598V13.9253H27.6V16.3428H29.3747V16.0083H27.9804V15.2722H29.1992V14.9571H27.9804V14.2598H29.3844ZM32.9628 16.3423L32.0462 15.1291L32.9435 13.9253H32.485L31.7926 14.8522L31.1003 13.9253H30.6418L31.5289 15.1291L30.6124 16.3423H31.0805L31.7921 15.4059L32.5038 16.3423H32.9628ZM35.3127 16.3901C35.6054 16.3901 35.859 16.323 36.0634 16.1704C36.2683 16.0272 36.4144 15.8552 36.4829 15.645L36.1121 15.5496C36.0537 15.6927 35.9559 15.8075 35.8194 15.903C35.6733 15.9984 35.5075 16.0461 35.3122 16.0461C35.0393 16.0461 34.8248 15.9507 34.6589 15.7787C34.4931 15.5973 34.415 15.387 34.415 15.1291C34.415 14.8806 34.4931 14.6703 34.6589 14.4984C34.8248 14.3264 35.0393 14.2404 35.3122 14.2404C35.507 14.2404 35.6729 14.2787 35.8194 14.3741C35.9559 14.4695 36.0533 14.5938 36.1121 14.7374L36.4829 14.642C36.4144 14.4317 36.2683 14.2503 36.0634 14.1067C35.8585 13.9635 35.6049 13.887 35.3031 13.887C34.9323 13.887 34.6305 14.0018 34.3865 14.2404C34.1426 14.4795 34.0158 14.7851 34.0158 15.1385C34.0158 15.4919 34.1426 15.7976 34.3865 16.0367C34.6401 16.2757 34.9424 16.4 35.3127 16.4V16.3901ZM39.5444 13.9253V14.9382H38.2571V13.9253H37.8671V16.3428H38.2571V15.2822H39.5444V16.3428H39.9248V13.9253H39.5444ZM43.2496 16.3423H43.6493L42.6744 13.9248H42.187L41.202 16.3423H41.6017L41.8456 15.7593H43.0158L43.2496 16.3423ZM41.9724 15.4253L42.431 14.2787L42.8895 15.4253H41.9724ZM46.6333 13.9253V15.6833L45.2582 13.9253H44.9366V16.3428H45.3267V14.5943L46.6916 16.3428H47.0132V13.9253H46.6333ZM50.9527 15.0336H49.6948V15.3587L50.5627 15.3492C50.5434 15.5595 50.4556 15.7315 50.3091 15.8557C50.163 15.98 49.9677 16.0371 49.7339 16.0371C49.4513 16.0371 49.217 15.9512 49.0512 15.7697C48.8757 15.5978 48.7879 15.3781 48.7879 15.1296C48.7879 14.881 48.8757 14.6708 49.0415 14.4894C49.2074 14.3174 49.4316 14.2314 49.6948 14.2314C49.8896 14.2314 50.0555 14.2697 50.202 14.3557C50.3385 14.4417 50.4359 14.5565 50.5043 14.6996L50.865 14.6042C50.7772 14.3939 50.6408 14.222 50.4262 14.0788C50.2213 13.9451 49.9778 13.878 49.6948 13.878C49.3241 13.878 49.0222 14.0023 48.7783 14.2413C48.5247 14.4804 48.4075 14.7766 48.4075 15.13C48.4075 15.4834 48.5247 15.7891 48.7783 16.0282C49.0222 16.2672 49.3342 16.3915 49.7146 16.3915C50.0752 16.3915 50.3679 16.2866 50.6017 16.0764C50.8356 15.8661 50.9527 15.5793 50.9527 15.2259V15.0336ZM54.1218 14.2598V13.9253H52.3471V16.3428H54.1218V16.0083H52.7178V15.2722H53.9463V14.9571H52.7178V14.2598H54.1218ZM58.139 13.9253V15.6833L56.774 13.9253H56.4524V16.3428H56.8328V14.5943L58.2079 16.3428H58.5295V13.9253H58.139ZM61.8056 14.2598V13.9253H60.0309V16.3428H61.8056V16.0083H60.4016V15.2722H61.6301V14.9571H60.4016V14.2598H61.8056ZM65.1695 13.9253H63.0437V14.2598H63.9116V16.3428H64.3016V14.2598H65.1695V13.9253ZM69.3038 13.9253L68.7286 15.817L68.1534 13.9253H67.8121L67.2369 15.8269L66.6708 13.9253H66.2615L67.032 16.3428H67.4316L67.9876 14.5466L68.5338 16.3428H68.9431L69.7035 13.9253H69.3038ZM72.0828 16.3901C72.4536 16.3901 72.7554 16.2753 72.9994 16.0267C73.2433 15.7877 73.3701 15.4915 73.3701 15.1286C73.3701 14.7752 73.2433 14.479 72.9994 14.2399C72.7554 14.0009 72.4531 13.8865 72.0828 13.8865C71.712 13.8865 71.4102 14.0013 71.1663 14.2399C70.9223 14.479 70.7955 14.7752 70.7955 15.1381C70.7955 15.4915 70.9223 15.7877 71.1663 16.0267C71.4097 16.2757 71.7217 16.3901 72.0828 16.3901ZM72.0828 16.0461C71.8196 16.0461 71.605 15.9601 71.4392 15.7787C71.2637 15.6067 71.1856 15.387 71.1856 15.1291C71.1856 14.8806 71.2637 14.6609 71.4392 14.4889C71.605 14.3169 71.8196 14.231 72.0828 14.231C72.3461 14.231 72.5606 14.3169 72.7361 14.4889C72.902 14.6703 72.9897 14.8806 72.9897 15.1291C72.9897 15.387 72.902 15.6067 72.7361 15.7882C72.5703 15.9601 72.3557 16.0461 72.0828 16.0461ZM76.3729 16.3423H76.8116L76.1776 15.4154C76.3531 15.3677 76.4992 15.2817 76.597 15.1385C76.7041 15.0048 76.7533 14.8518 76.7533 14.6892C76.7533 14.4884 76.6752 14.307 76.5291 14.1539C76.383 14.0009 76.1877 13.9248 75.9442 13.9248H74.7645V16.3423H75.1449V15.4442H75.7687L76.3729 16.3423ZM75.1444 14.2598H75.9341C76.0706 14.2598 76.1781 14.298 76.2557 14.384C76.3434 14.47 76.3825 14.5749 76.3825 14.6897C76.3825 14.8045 76.3434 14.8999 76.2557 14.9859C76.1679 15.0719 76.0609 15.1102 75.9143 15.1102H75.1439L75.1444 14.2598ZM79.8635 16.3423H80.3317L79.2493 14.9949L80.2439 13.9248H79.7565L78.5767 15.2146V13.9248H78.1963V16.3423H78.5767V15.7116L78.9962 15.2623L79.8635 16.3423ZM81.1343 7H82.2806V7.15861H81.8126V8.14634H81.6023V7.15861H81.1343V7ZM82.3952 7L82.6054 7.00006V7.0017L82.6244 7.0017L82.8964 7.39025L83.0198 7.56637L83.1431 7.39019L83.4152 7.00164L83.427 7.00149V7L83.5387 7.00003L83.5413 7L83.5413 7.00004L83.6373 7.00006V7.15868V8.14641H83.4269L83.427 7.2613L83.323 7.40987L83.2231 7.55246L83.0641 7.77953H82.9754L82.8164 7.55252L82.7166 7.40993L82.6055 7.2513L82.6054 7.2511V8.14641H82.3951L82.3952 7.15861V7Z" fill="url(#paint1_linear_11306_10528)"/>
</g>
<defs>
<linearGradient id="paint0_linear_11306_10528" x1="-7.7895e-05" y1="11.9998" x2="24.0082" y2="11.9998" gradientUnits="userSpaceOnUse">
<stop stop-color="#0194FE"/>
<stop offset="1" stop-color="#2ADFF3"/>
</linearGradient>
<linearGradient id="paint1_linear_11306_10528" x1="38.2261" y1="13.1304" x2="87.4351" y2="12.053" gradientUnits="userSpaceOnUse">
<stop stop-color="#0194FE"/>
<stop offset="1" stop-color="#2ADFF3"/>
</linearGradient>
<clipPath id="clip0_11306_10528">
<rect width="84" height="24" fill="white"/>
</clipPath>
</defs>
</svg>
