<svg width="1648" height="420" viewBox="0 0 1648 420" fill="none" xmlns="http://www.w3.org/2000/svg">
<path d="M488.704 415H441.682C426.705 415 416.243 400.102 421.279 385.941L551.524 19.4436C554.6 10.7843 562.774 5 571.927 5H628.561C637.728 5 645.909 10.7912 648.978 19.4643L778.73 385.961C783.745 400.123 773.283 414.993 758.313 414.993H709.695C700.371 414.993 692.087 409.002 689.141 400.123L670.32 343.435C667.374 334.556 659.091 328.565 649.766 328.565H548.996C539.719 328.565 531.47 334.501 528.483 343.318L509.217 400.24C506.229 409.057 497.98 414.993 488.704 414.993V415ZM588.665 165.682L559.41 253.224H639.989L610.741 165.682C608.534 158.667 606.321 151.465 604.115 144.072C601.909 136.692 600.436 130.591 599.703 125.79C598.963 130.598 597.579 136.595 595.565 143.797C593.537 150.998 591.235 158.295 588.665 165.682Z" fill="black"/>
<path d="M902.947 415H859.743C847.734 415 838 405.234 838 393.184V26.8233C838 14.7734 847.734 5.00688 859.743 5.00688H909.953C918.85 5.00688 926.856 10.4472 930.146 18.7487L1043.44 303.972C1044.43 306.448 1047.92 306.454 1048.91 303.972L1162.73 18.7075C1166.03 10.4266 1174.03 5 1182.92 5H1234.26C1246.27 5 1256 14.7665 1256 26.8164V393.177C1256 405.227 1246.27 414.993 1234.26 414.993H1191.05C1179.04 414.993 1169.3 405.227 1169.3 393.177V274.266C1169.3 259.864 1169.48 247.862 1169.85 238.254C1170.21 228.653 1170.68 220.248 1171.23 213.047C1171.49 209.656 1166.77 208.576 1165.55 211.754L1092.4 401.072C1089.16 409.47 1081.11 415 1072.13 415H1020.23C1011.24 415 1003.18 409.443 999.94 401.024L928.008 213.645C926.781 210.447 922.017 211.561 922.332 214.973C923.079 222.985 923.586 231.301 923.861 239.925C924.416 257.649 924.69 277.788 924.69 300.312V393.184C924.69 405.234 914.957 415 902.947 415Z" fill="black"/>
<path d="M1630.54 70.0996C1618.9 49.5965 1602.63 33.6259 1581.75 22.1742C1560.87 10.7293 1536.38 5 1508.3 5H1363.83C1351.77 5 1342 14.7667 1342 26.8168V393.183C1342 405.233 1351.77 415 1363.83 415H1409.97C1422.03 415 1431.8 405.233 1431.8 393.183V300.517C1431.8 288.467 1441.57 278.7 1453.63 278.7H1508.3C1536.38 278.7 1560.87 272.978 1581.75 261.519C1602.62 250.074 1618.89 234.09 1630.54 213.594C1642.17 193.091 1648 169.183 1648 141.843C1648 114.503 1642.18 90.5958 1630.54 70.0927V70.0996ZM1537.13 184.789C1526.41 194.212 1510.15 198.916 1488.35 198.916H1453.64C1441.59 198.916 1431.82 189.15 1431.82 177.099V106.601C1431.82 94.5506 1441.59 84.7839 1453.64 84.7839H1488.35C1510.16 84.7839 1526.41 89.4884 1537.13 98.9112C1547.85 108.334 1553.21 122.647 1553.21 141.85C1553.21 161.053 1547.85 175.366 1537.13 184.789Z" fill="black"/>
<path d="M386.03 296.547L340.679 261.18C333.064 255.242 321.982 257.703 317.5 266.266C306.369 287.503 288.926 305 268.941 316.938L221.41 269.276C218.854 266.713 215.386 265.27 211.767 265.27C208.148 265.27 204.68 266.713 202.124 269.276L151.557 319.983C112.237 299.097 85.3839 257.641 85.3839 210C85.3839 141.418 141.029 85.6192 209.423 85.6192C250.785 85.6192 290.414 103.68 316.609 147.088C321.303 154.868 331.632 156.936 338.945 151.562L382.953 119.219C389.484 114.422 391.218 105.371 386.914 98.4916C348.739 37.3871 281.984 0 209.423 0C93.9442 0 0 94.2031 0 210C0 325.797 93.9442 420 209.423 420C248.9 420 287.364 408.914 320.666 387.953C349.13 370.029 372.83 345.569 389.841 316.691C393.802 309.969 392.185 301.337 386.037 296.547H386.03ZM179.445 330.69L211.76 298.286L242.389 329C231.478 332.505 220.32 334.381 209.423 334.381C199.087 334.381 189.054 333.096 179.445 330.697V330.69ZM208.477 177.802C208.429 178.826 208.422 192.434 242.431 215.677C267.803 233.023 255.919 267.579 250.724 278.939C248.325 271.867 244.192 262.246 236.934 252.198C228.209 240.109 218.518 232.336 211.753 227.738C204.639 232.109 192.967 240.618 183.605 255.243C177.937 264.101 174.818 272.534 173.036 278.939L173.016 278.905C162.667 251.002 166.333 237.064 171.679 229.491C175.874 223.546 183.495 215.333 183.495 215.333C190.15 208.694 197.175 202.234 203.933 189.1C208.086 181.025 208.45 178.214 208.477 177.795V177.802Z" fill="#111111"/>
<path d="M183.393 215.477C183.393 215.477 175.754 223.684 171.54 229.624C166.177 237.192 162.505 251.119 172.88 279C113.736 227.289 174.641 174.514 173.424 178.531C168.899 193.468 183.386 215.477 183.386 215.477H183.393ZM197.818 199.222C199.888 196.29 201.923 193.001 203.869 189.23C208.421 180.42 208.434 177.872 208.434 177.872C208.434 177.872 206.997 191.62 242.489 215.786C267.943 233.119 256.021 267.648 250.809 279C250.809 279 280.849 259.868 276.586 227.55C271.463 188.674 250.403 192.183 234.754 163.389C220.157 136.531 245.088 115.015 245.088 115.015C245.088 115.015 211.714 113.223 196.436 148.267C180.334 185.192 197.811 199.229 197.811 199.229L197.818 199.222Z" fill="#FF6D01"/>
</svg>
