<svg xmlns="http://www.w3.org/2000/svg" fill="none" viewBox="0 0 73 24">
  <g clip-path="url(#celestia-eden-dark_svg__a)">
    <path fill="#fff" d="M9.497.266c6.481-1.38 12.853 2.759 14.232 9.245l.006.037a12.129 12.129 0 0 1-.566 6.846 4.43 4.43 0 0 1-.19.457 12.09 12.09 0 0 1-.667 1.289c-3.394 5.696-10.761 7.56-16.454 4.164-5.692-3.397-7.555-10.77-4.16-16.466.1-.189.215-.369.343-.54A12 12 0 0 1 9.497.266Zm2.168 19.584a.232.232 0 0 0-.296-.13 22.417 22.417 0 0 1-3.695 1.09c-.483.097-.972.163-1.463.199h-.083a.15.15 0 0 0-.118.067.149.149 0 0 0 .045.205 10.916 10.916 0 0 0 5.94 1.738c.355 0 .711-.017 1.066-.051l.353-.04h-.002a.176.176 0 0 0 .088-.307c-.7-.596-1.326-1.532-1.835-2.771Zm1.067-.69-.023.01a.232.232 0 0 0-.123.3c.753 1.835 1.77 2.896 2.789 2.915.938.017 1.904-.852 2.69-2.398h-.002a.188.188 0 0 0-.174-.272 9.72 9.72 0 0 1-.48.027 7.581 7.581 0 0 1-.42.008 15.247 15.247 0 0 1-4.1-.6.228.228 0 0 0-.157.01Zm7.164.165a7.23 7.23 0 0 1-.456.131.127.127 0 0 0-.083.072 8.93 8.93 0 0 1-.191.448l-.047.107a.122.122 0 0 0 .191.143 9.545 9.545 0 0 0 .714-.694.123.123 0 0 0 .035-.152.121.121 0 0 0-.163-.055ZM15.704 1.783c-.864 0-1.752.747-2.497 2.082a.271.271 0 0 0 .14.387 20.837 20.837 0 0 1 5.097 2.83c.25.19.418.466.474.774.044.25.084.502.119.756a.716.716 0 0 1-.54.795c-1.909.46-4.136 1.34-6.365 2.512a.184.184 0 0 1-.268-.168c.007-.228.017-.508.026-.647a.324.324 0 0 1 .177-.275c2.254-1.148 4.494-2.003 6.422-2.444a19.001 19.001 0 0 0-3.438-2.28 19.731 19.731 0 0 0-1.983-.896l-.074-.028-.078-.03-.246-.092-.023-.007c-.315-.113-.63-.217-.944-.312l-.068-.02-.09-.027a14.318 14.318 0 0 0-3.943-.597c-.13 0-.26.002-.387.007-2.03.07-3.562.702-4.385 1.792-.098.148-.194.297-.285.449l-.005.01c-.716 1.372-.416 3.195.843 5.13a13.566 13.566 0 0 0 2.494 2.807.557.557 0 0 0 .71.015 30.299 30.299 0 0 1 3.435-2.35.807.807 0 0 0 .393-.658c.096-2.14.454-4.162 1.033-5.865a.277.277 0 0 1 .345-.174c.14.044.281.091.424.138a.28.28 0 0 1 .173.353c-.532 1.57-.864 3.435-.972 5.42-.015.277-.03.56-.03.84v.781c.011 1.552.193 3.098.54 4.611l.015.066a.48.48 0 0 1-.279.56c-.2.084-.4.164-.599.242a.952.952 0 0 1-.74-.02c-.42-.186-.831-.402-1.253-.618a20.582 20.582 0 0 1-2.67-1.657 16.394 16.394 0 0 1-1.164-.928 14.614 14.614 0 0 1-2.682-3.024A9.16 9.16 0 0 1 1.443 9.7a.109.109 0 0 0-.113-.103.109.109 0 0 0-.103.113c-.16.756-.24 1.526-.24 2.298A10.945 10.945 0 0 0 2.8 18.066a.259.259 0 0 0 .45-.035c.293-.65.833-1.373 1.589-2.152l.058-.06a.379.379 0 0 1 .508-.027l.18.146a.379.379 0 0 1 .034.564c-1.518 1.536-1.817 2.548-1.586 2.985l-.002.002c.241.443 1.265.767 3.456.347 1-.2 1.984-.477 2.943-.827l.035-.014.295-.108.066-.025.244-.092.109-.04.082-.032c.487-.19.98-.4 1.48-.627l.139-.062.028-.013a35.643 35.643 0 0 0 1.82-.9 31.105 31.105 0 0 0 4.904-3.183c.05-.573.082-1.158.092-1.752.017-.915-.018-1.83-.107-2.741l-.018-.019.013-.008a21.09 21.09 0 0 0-.207-1.536 15.297 15.297 0 0 0-.887-3.159c-.752-1.835-1.768-2.896-2.788-2.915h-.026Zm3.692 13.719a.124.124 0 0 0-.172-.027 34.11 34.11 0 0 1-4.03 2.497l-.626.323a.126.126 0 0 0-.067.089.125.125 0 0 0 .1.144c.912.174 1.842.248 2.771.222a9.421 9.421 0 0 0 1.034-.092v.001a.407.407 0 0 0 .324-.273c.305-.91.535-1.843.689-2.79a.127.127 0 0 0-.023-.094Zm2.736-2.162a.265.265 0 0 0-.374.002c-.287.284-.6.573-.934.863a.83.83 0 0 0-.283.528 20.87 20.87 0 0 1-.605 3.118.236.236 0 0 0 .011.159c.054.118.194.17.312.117.813-.383 1.421-.933 1.784-1.632.01-.018.018-.037.027-.056a9.53 9.53 0 0 0 .167-.4h.001c.26-.768.244-1.649-.04-2.59a.266.266 0 0 0-.066-.11ZM10.4 12.889a28.666 28.666 0 0 0-3.352 2.324A19.483 19.483 0 0 0 9.53 16.75c.459.234.92.45 1.381.648a22.64 22.64 0 0 1-.51-4.51Zm28.668-4.347h-7.861v2.813h6.32v1.569h-6.32v2.812h7.86v1.542h-9.414V7h9.415v1.542ZM48.624 7c.341 0 .656.083.942.25a1.852 1.852 0 0 1 .926 1.606v6.566c0 .341-.084.654-.25.936a1.87 1.87 0 0 1-1.618.92h-8.401V7h8.4Zm12.553 1.542h-7.86v2.813h6.32v1.569h-6.32v2.812h7.86v1.542h-9.415V7h9.415v1.542Zm9.842 6.651V7h1.553v10.278h-1.84l-6.89-8.207v8.207h-1.538V7h1.84l6.874 8.193ZM42.106 8.547a.32.32 0 0 0-.242.106.352.352 0 0 0-.1.25v6.48c0 .094.033.177.1.249a.32.32 0 0 0 .242.106h6.476c.104 0 .19-.035.257-.106a.354.354 0 0 0 .1-.25v-6.48a.353.353 0 0 0-.357-.355h-6.476Zm-21.272 2.388a.128.128 0 0 0-.126.13h-.001c.01.367.012.737.009 1.114-.003.178-.007.36-.015.54a.109.109 0 0 0 .034.089.11.11 0 0 0 .153-.006l.165-.167c.15-.148.29-.294.419-.438a.276.276 0 0 0 .035-.324 10.815 10.815 0 0 0-.567-.887.13.13 0 0 0-.106-.051Zm2.157 1.135c0-.069-.07-.079-.118-.016l-.04.053a.166.166 0 0 0-.019.166l.038.087a.07.07 0 0 0 .062.042.069.069 0 0 0 .07-.066h.007a2.676 2.676 0 0 0 0-.266Zm-1.954-3.029a.184.184 0 0 0-.138.304c.41.466.787.961 1.127 1.481l.042.066a.225.225 0 0 0 .385-.012l.005-.002c.34-.611.38-1.046.24-1.297-.159-.296-.675-.54-1.661-.54ZM19.438 4a.118.118 0 0 0-.06.155l.07.163c.42 1.058.729 2.156.92 3.278a.556.556 0 0 0 .559.456c.356-.01.713.015 1.064.075a.185.185 0 0 0 .205-.252 10.994 10.994 0 0 0-2.424-3.652l-.205-.2A.118.118 0 0 0 19.438 4ZM11.991.997A10.916 10.916 0 0 0 5.604 3.04a.125.125 0 0 0-.047.117c.01.068.072.115.14.106.491-.09.99-.141 1.49-.157a14.92 14.92 0 0 1 4.529.596.516.516 0 0 0 .591-.249c.473-.865 1.007-1.532 1.58-1.983a.185.185 0 0 0-.084-.324A11.153 11.153 0 0 0 11.99.997Z"/>
  </g>
  <defs>
    <clipPath id="celestia-eden-dark_svg__a">
      <path fill="#fff" d="M0 0h73v24H0z"/>
    </clipPath>
  </defs>
</svg>
