<svg xmlns="http://www.w3.org/2000/svg" fill="none" viewBox="0 0 73 24">
  <g clip-path="url(#celestia-eden-light_svg__a)">
    <path fill="#075833" d="M9.497.265c6.482-1.38 12.854 2.76 14.233 9.246l.006.036a12.13 12.13 0 0 1-.567 6.846 4.429 4.429 0 0 1-.19.457 11.93 11.93 0 0 1-.666 1.29c-3.395 5.697-10.762 7.56-16.455 4.163-5.692-3.397-7.554-10.768-4.16-16.465.1-.188.215-.369.343-.54.432-.638.924-1.234 1.469-1.779A12 12 0 0 1 9.497.265Zm2.169 19.585a.233.233 0 0 0-.297-.13 22.51 22.51 0 0 1-3.695 1.091c-.483.097-.972.162-1.463.197h-.083a.148.148 0 0 0-.073.273 10.915 10.915 0 0 0 5.94 1.738c.474 0 .948-.03 1.42-.09h-.003a.176.176 0 0 0 .088-.307c-.7-.596-1.325-1.533-1.834-2.772Zm1.066-.69-.023.01a.232.232 0 0 0-.123.3c.753 1.835 1.77 2.897 2.789 2.915.938.018 1.905-.851 2.691-2.397h-.002a.187.187 0 0 0-.174-.273 9.709 9.709 0 0 1-.482.028 7.581 7.581 0 0 1-.42.008 15.252 15.252 0 0 1-4.1-.602.228.228 0 0 0-.156.01Zm7.165.166c-.148.047-.3.09-.457.13a.128.128 0 0 0-.083.072 8.934 8.934 0 0 1-.191.447l-.047.108a.122.122 0 0 0 .191.143 9.574 9.574 0 0 0 .715-.694.123.123 0 0 0 .036-.153.122.122 0 0 0-.165-.053ZM15.704 1.783c-.864 0-1.75.747-2.496 2.083a.27.27 0 0 0 .14.386 20.851 20.851 0 0 1 5.096 2.83c.25.19.42.466.475.775.044.249.083.501.118.756a.716.716 0 0 1-.539.795c-1.909.46-4.136 1.338-6.366 2.51a.182.182 0 0 1-.268-.166c.007-.229.018-.51.027-.649a.324.324 0 0 1 .177-.274c2.254-1.149 4.494-2.002 6.421-2.444a19.001 19.001 0 0 0-3.438-2.28 19.74 19.74 0 0 0-1.983-.897l-.074-.028-.078-.03-.246-.09-.022-.009c-.315-.113-.63-.216-.944-.31l-.07-.02-.09-.027a14.318 14.318 0 0 0-3.941-.599c-.131 0-.26.003-.388.007-2.03.07-3.562.703-4.385 1.792-.098.148-.194.297-.285.45l-.005.009c-.716 1.373-.416 3.196.843 5.13a13.56 13.56 0 0 0 2.494 2.807.557.557 0 0 0 .71.015 30.283 30.283 0 0 1 3.436-2.35.805.805 0 0 0 .392-.657c.096-2.14.455-4.162 1.034-5.866a.276.276 0 0 1 .344-.173c.14.044.282.09.424.138.145.05.222.208.173.353-.532 1.57-.863 3.435-.971 5.42-.016.278-.031.559-.031.84v.78c.011 1.553.193 3.099.54 4.612l.015.066a.479.479 0 0 1-.279.559c-.2.084-.4.165-.599.243a.952.952 0 0 1-.74-.02c-.42-.186-.831-.403-1.253-.619a20.572 20.572 0 0 1-2.67-1.657 16.398 16.398 0 0 1-1.164-.928 14.612 14.612 0 0 1-2.682-3.022A9.162 9.162 0 0 1 1.443 9.7a.109.109 0 0 0-.113-.104.109.109 0 0 0-.102.113 11.07 11.07 0 0 0-.24 2.297 10.947 10.947 0 0 0 1.812 6.06.26.26 0 0 0 .451-.036c.293-.65.833-1.371 1.588-2.15l.058-.06a.379.379 0 0 1 .508-.027l.18.144a.378.378 0 0 1 .034.563c-1.518 1.538-1.816 2.55-1.586 2.987l-.002.002c.241.443 1.266.767 3.457.347 1-.2 1.984-.478 2.942-.828l.036-.013.294-.108.066-.024.244-.094.109-.04.082-.031c.487-.19.98-.4 1.48-.626l.139-.063.028-.013a35.616 35.616 0 0 0 1.82-.9 31.11 31.11 0 0 0 4.904-3.183 23.938 23.938 0 0 0-.015-4.493L19.6 9.4l.013-.008a21.09 21.09 0 0 0-.207-1.535 15.295 15.295 0 0 0-.886-3.158c-.753-1.836-1.77-2.898-2.788-2.916h-.027Zm3.692 13.72a.124.124 0 0 0-.172-.029 34.104 34.104 0 0 1-4.03 2.497l-.626.324a.125.125 0 0 0-.067.088.125.125 0 0 0 .1.146c.912.173 1.842.246 2.771.22a9.42 9.42 0 0 0 1.034-.091.407.407 0 0 0 .325-.273c.304-.91.534-1.843.688-2.79a.125.125 0 0 0-.023-.093Zm2.736-2.163a.265.265 0 0 0-.374.001c-.287.284-.6.574-.934.865a.83.83 0 0 0-.282.528 20.863 20.863 0 0 1-.607 3.117.235.235 0 0 0 .012.158c.054.118.194.172.312.118.813-.383 1.421-.934 1.784-1.632l.027-.055.167-.401h.001c.26-.768.244-1.648-.04-2.59a.263.263 0 0 0-.066-.109ZM10.4 12.888a28.651 28.651 0 0 0-3.352 2.324A19.512 19.512 0 0 0 9.53 16.75c.458.234.918.45 1.38.648a22.639 22.639 0 0 1-.51-4.51Zm28.668-4.346h-7.861v2.813h6.32v1.57h-6.32v2.812h7.86v1.542h-9.414V7h9.415v1.542ZM48.624 7c.342 0 .656.083.942.25.286.166.51.39.676.671.166.282.25.594.25.936v6.565c0 .342-.084.654-.25.936a1.87 1.87 0 0 1-.676.672 1.838 1.838 0 0 1-.942.249h-8.401V7h8.401Zm12.553 1.542h-7.86v2.813h6.32v1.57h-6.32v2.812h7.86v1.542h-9.415V7h9.415v1.542Zm9.842 6.652V7h1.553v10.28h-1.84l-6.89-8.207v8.207h-1.538V7h1.84l6.875 8.194ZM42.106 8.547a.319.319 0 0 0-.242.107.353.353 0 0 0-.1.249v6.48c0 .095.033.178.1.25a.32.32 0 0 0 .242.106h6.476a.354.354 0 0 0 .356-.355V8.902a.354.354 0 0 0-.356-.356h-6.476Zm-21.272 2.387a.129.129 0 0 0-.126.13h-.001c.01.367.012.739.009 1.115-.003.178-.007.36-.015.54a.11.11 0 0 0 .034.09.11.11 0 0 0 .153-.008l.165-.166c.15-.148.29-.294.419-.438a.275.275 0 0 0 .035-.323 9.411 9.411 0 0 0-.568-.887.13.13 0 0 0-.105-.053Zm2.157 1.137c0-.07-.07-.08-.118-.017l-.04.053a.165.165 0 0 0-.018.165l.037.089a.07.07 0 0 0 .062.042.07.07 0 0 0 .071-.067h.006a2.704 2.704 0 0 0 0-.265Zm-1.954-3.03a.184.184 0 0 0-.138.303c.41.466.787.962 1.127 1.482l.042.066a.226.226 0 0 0 .385-.012l.005-.003c.34-.61.38-1.046.24-1.296-.159-.296-.675-.54-1.66-.54ZM19.44 4a.117.117 0 0 0-.06.154l.068.163a16.15 16.15 0 0 1 .921 3.278.556.556 0 0 0 .559.456c.356-.009.713.016 1.064.075a.186.186 0 0 0 .205-.253 10.99 10.99 0 0 0-2.628-3.851.119.119 0 0 0-.13-.022ZM11.99.997A10.917 10.917 0 0 0 5.604 3.04h.001a.124.124 0 0 0 .09.223c.493-.09.992-.143 1.492-.159a14.951 14.951 0 0 1 4.529.597.516.516 0 0 0 .592-.25c.472-.864 1.006-1.532 1.58-1.983a.184.184 0 0 0-.085-.323A11.15 11.15 0 0 0 11.99.997Z"/>
  </g>
  <defs>
    <clipPath id="celestia-eden-light_svg__a">
      <path fill="#fff" d="M0 0h73v24H0z"/>
    </clipPath>
  </defs>
</svg>
