<svg xmlns="http://www.w3.org/2000/svg" fill="none" viewBox="0 0 80 24">
  <g clip-path="url(#datanet-dark_svg__a)">
    <path fill="#F8F8F6" d="M3.504 0c.21 0 .314.108.314.325v10.318c0 .217-.105.326-.314.326h-.21c-.42 0-.63.217-.63.651v5.864c0 .435.21.652.63.652h.943c.42 0 .63-.217.63-.652v-6.19c0-.217.105-.325.315-.325H6.44c.42 0 .63-.218.63-.653V.326c0-.218.105-.326.315-.326h1.678c.21 0 .315.108.315.325v10.318c0 .217-.105.326-.315.326H7.7c-.42 0-.629.217-.629.651v5.864c0 .435.315.652.63.652h1.992c.42 0 .63-.217.63-.652v-6.19c0-.217.105-.325.315-.325h2.727c.21 0 .315.108.315.325v6.19c0 .435.314.652.629.652H16.3c.42 0 .63-.217.63-.652V11.62c0-.434-.21-.651-.63-.651h-1.363c-.21 0-.316-.11-.316-.326V.325c0-.217.106-.325.316-.325h1.677c.21 0 .316.108.316.325v9.991c0 .435.209.653.629.653h1.258c.21 0 .315.108.315.325v6.19c0 .435.21.652.63.652h.946c.42 0 .629-.217.629-.652V11.62c0-.434-.21-.651-.629-.651h-.21c-.21 0-.314-.11-.314-.326V.325c0-.217.104-.325.314-.325h.986c.21 0 .315.108.315.325v9.991c0 .435.21.653.629.653h.105c.21 0 .315.108.315.325v6.19c0 .435.21.652.628.652h.21c.21 0 .315.109.315.326v5.213c0 .217-.105.325-.314.325h-.986c-.21 0-.315-.108-.315-.325v-4.888c0-.434-.21-.651-.525-.651-.314 0-.524.217-.524.651v4.888c0 .217-.105.325-.315.325h-1.575c-.21 0-.315-.108-.315-.325v-4.888c0-.434-.21-.651-.63-.651h-.943c-.42 0-.63.217-.63.651v4.888c0 .217-.105.325-.315.325h-2.622c-.21 0-.314-.108-.314-.325v-4.888c0-.434-.21-.651-.63-.651H10.95c-.42 0-.63.217-.63.651v4.888c0 .217-.104.325-.314.325H7.385c-.21 0-.315-.108-.315-.325v-4.888c0-.434-.21-.651-.63-.651h-.944c-.42 0-.629.217-.629.651v4.888c0 .217-.105.325-.314.325H2.979c-.21 0-.315-.108-.315-.325v-4.888c0-.434-.21-.651-.524-.651-.315 0-.525.217-.525.651v4.888c0 .217-.105.325-.314.325H.314C.104 24 0 23.892 0 23.675v-5.213c0-.217.105-.326.314-.326h.21c.42 0 .63-.217.63-.652v-6.19c0-.217.105-.325.315-.325h.104c.42 0 .63-.218.63-.653V.326c0-.218.105-.326.315-.326h.986Zm39.098 18.778c0 .306.088.545.266.715.178.164.413.245.704.245.228 0 .437-.05.63-.15.16-.08.326-.207.5-.379v-2.873l-.757-.331v-.426h1.782v3.509c0 .206.053.345.16.416.114.07.327.106.64.106v.427l-1.408.48h-.374v-.92a5.279 5.279 0 0 1-.47.483 2.055 2.055 0 0 1-.575.352 1.856 1.856 0 0 1-.682.118c-.441 0-.79-.142-1.046-.427-.256-.284-.384-.687-.384-1.206v-2.581l-.758-.331v-.426h1.772v3.2Zm-4.286-3.36c.441.001.843.11 1.206.331.37.213.661.516.875.907.213.384.319.821.319 1.312 0 .47-.106.9-.32 1.29-.213.392-.505.701-.874.928a2.222 2.222 0 0 1-1.206.342c-.447 0-.856-.107-1.226-.32a2.366 2.366 0 0 1-.875-.917 2.72 2.72 0 0 1-.32-1.323c0-.47.107-.9.32-1.29.213-.391.505-.698.875-.918.37-.228.779-.341 1.226-.341Zm32.666 0c.441 0 .844.11 1.207.331.37.213.66.516.874.907.213.384.32.821.32 1.312 0 .47-.107.9-.32 1.29-.214.392-.505.701-.874.928a2.226 2.226 0 0 1-1.207.342c-.447 0-.856-.107-1.226-.32-.37-.22-.66-.526-.874-.917a2.72 2.72 0 0 1-.32-1.323c0-.47.107-.9.32-1.29.213-.391.504-.698.874-.918.37-.228.779-.341 1.226-.341Zm-14.014 3.67c0 .206.053.345.16.416.114.07.33.106.65.106v.427l-1.407.48h-.374v-.814c-.18.22-.367.4-.565.537a1.69 1.69 0 0 1-.96.278c-.384 0-.729-.104-1.035-.31a2.224 2.224 0 0 1-.725-.864 2.894 2.894 0 0 1-.256-1.227c0-.512.11-.974.331-1.387.22-.412.523-.736.906-.97a2.387 2.387 0 0 1 1.27-.352 1.959 1.959 0 0 1 .992.255V14.15l-.811-.181v-.341l1.568-.576h.256v6.037Zm2.964-3.701c.47 0 .839.153 1.109.459.277.298.416.707.416 1.226v2.283c0 .135.026.238.075.31.057.07.146.105.267.105a.431.431 0 0 0 .213-.052c.064-.036.143-.096.235-.182l.085.288c-.192.256-.366.437-.522.544a.87.87 0 0 1-.492.15c-.284 0-.5-.1-.65-.3a1.182 1.182 0 0 1-.205-.527c-.196.26-.386.454-.573.582a1.351 1.351 0 0 1-.769.245c-.327 0-.594-.104-.8-.31a1.076 1.076 0 0 1-.298-.778c0-.3.095-.552.287-.758.193-.206.492-.391.897-.555l1.237-.493v-.402c0-.32-.079-.57-.235-.747-.157-.178-.38-.267-.672-.267-.22 0-.43.064-.629.192-.199.121-.391.316-.576.586l-.373-.266c.291-.47.6-.807.928-1.013.327-.213.675-.32 1.045-.32Zm3.973.192h1.525v.64h-1.525v2.57c0 .306.067.537.202.693.136.15.335.225.598.225.135 0 .27-.028.405-.085.143-.057.281-.143.416-.257l.171.236a2.59 2.59 0 0 1-.64.66c-.235.164-.49.246-.768.246-.44 0-.79-.124-1.046-.373-.249-.256-.37-.63-.362-1.12l.032-2.795h-.81v-.63h.564l.992-1.205h.246v1.195Zm-27.715-.118h-.523c-.085-.377-.181-.657-.288-.842a.893.893 0 0 0-.46-.395c-.198-.079-.49-.118-.874-.118h-1.803v2.412h1.313c.206 0 .36-.022.459-.065a.387.387 0 0 0 .223-.223c.05-.114.078-.278.085-.492l.011-.287h.523v2.741h-.523l-.01-.298c-.008-.22-.036-.389-.086-.502a.387.387 0 0 0-.223-.245c-.1-.05-.253-.075-.46-.075h-1.312v2.08c0 .192.03.342.086.449.064.099.181.174.352.223.177.05.441.074.79.074v.502h-3.265v-.502c.341 0 .58-.053.715-.16.142-.113.213-.302.213-.564v-4.48c0-.264-.075-.449-.224-.555-.142-.114-.38-.171-.715-.171v-.501h5.761l.235 1.994Zm13.915-.063c.462 0 .82.146 1.077.437.263.291.394.711.394 1.259v2.378c0 .185.05.313.15.384.106.064.302.096.587.096v.448H49.87v-.448c.27 0 .452-.032.544-.096.1-.063.148-.185.148-.363v-2.26c0-.335-.08-.588-.245-.758-.163-.178-.409-.267-.736-.267-.234 0-.448.05-.64.15a2.03 2.03 0 0 0-.48.367v2.747c0 .185.05.313.15.384.1.064.289.096.566.096v.448H46.69v-.448c.207 0 .363-.018.47-.054a.39.39 0 0 0 .225-.212c.043-.107.063-.268.063-.48V16.58l-.704-.191v-.331l1.387-.577h.33v.885c.282-.326.526-.565.736-.714.25-.17.552-.255.907-.255Zm17.462 4.074c0 .185.05.313.15.384.1.064.292.096.576.096v.448h-2.496v-.448c.206 0 .362-.018.469-.054a.39.39 0 0 0 .224-.212c.043-.107.064-.268.064-.48V16.58l-.704-.191v-.331l1.386-.577h.331v3.99Zm9.545-4.075c.462 0 .821.146 1.078.438.262.291.394.711.394 1.259v2.378c0 .185.05.313.15.384.106.064.302.096.586.096v.448h-2.443v-.448c.27 0 .451-.032.544-.096.1-.063.15-.185.15-.363v-2.26c0-.335-.082-.588-.246-.758-.163-.178-.41-.267-.736-.267-.234 0-.448.05-.64.15a2.03 2.03 0 0 0-.48.367v2.747c0 .185.05.313.15.384.099.064.287.096.565.096v.448h-2.486v-.448c.206 0 .363-.018.47-.054a.39.39 0 0 0 .224-.212c.042-.107.064-.268.064-.48V16.58l-.704-.191v-.331l1.387-.577h.33v.885c.281-.326.526-.565.736-.714.249-.17.552-.255.907-.255Zm-38.902.577c-.37 0-.662.156-.875.468-.206.313-.31.755-.31 1.324 0 .69.125 1.23.373 1.62.256.392.602.588 1.036.588.362 0 .647-.157.853-.47.206-.32.31-.764.31-1.333 0-.683-.13-1.22-.385-1.61-.249-.391-.583-.587-1.002-.587Zm32.666 0c-.37 0-.66.156-.874.468-.206.313-.31.755-.31 1.324 0 .69.125 1.23.373 1.62.257.392.602.588 1.036.588.362 0 .647-.157.853-.47.206-.32.309-.765.309-1.333 0-.683-.128-1.22-.384-1.61-.249-.392-.584-.587-1.003-.587Zm-11.147 2.39c-.248.056-.434.151-.554.286a.687.687 0 0 0-.182.492c0 .192.06.341.182.448.12.1.27.148.447.148.272 0 .546-.12.822-.361v-1.16l-.715.146Zm-4.905-2.423a1.11 1.11 0 0 0-.949.49c-.234.328-.352.77-.352 1.324 0 .59.138 1.067.415 1.43.285.355.677.533 1.174.533.17 0 .327-.033.47-.097.109-.047.233-.12.373-.22v-1.966l-.005-.171c-.022-.389-.124-.698-.305-.928-.198-.263-.472-.394-.82-.395Zm12.748-1.293h-1.055v-1.14h1.055v1.14Zm-22.62-8.851c.384 0 .719.085 1.003.256.292.163.516.402.672.715.163.312.246.682.246 1.109v.054H43.63v.095c0 .576.146 1.046.437 1.409.299.362.719.544 1.26.544.29 0 .55-.069.778-.204.227-.135.43-.33.608-.586l.288.224c-.49 1.003-1.195 1.504-2.112 1.504-.47 0-.875-.11-1.216-.33a2.12 2.12 0 0 1-.78-.897 3.038 3.038 0 0 1-.266-1.29c0-.484.1-.925.299-1.323.206-.398.487-.71.843-.938.355-.228.75-.342 1.183-.342Zm13.73-.01c.469 0 .839.152 1.109.458.277.299.417.708.417 1.227v2.283c0 .135.025.237.074.308.057.072.146.108.267.108.078 0 .15-.018.214-.054.064-.035.142-.096.234-.181l.085.288c-.192.255-.366.437-.522.544-.15.099-.313.149-.49.149-.285 0-.503-.1-.652-.299a1.18 1.18 0 0 1-.205-.526c-.196.259-.386.453-.573.58a1.35 1.35 0 0 1-.769.245c-.327 0-.594-.102-.8-.309a1.077 1.077 0 0 1-.298-.779c0-.298.096-.55.287-.757.193-.206.492-.39.897-.554l1.237-.495v-.402c0-.32-.078-.568-.234-.746-.157-.178-.382-.268-.673-.268-.22 0-.43.065-.629.193-.199.12-.39.316-.576.587l-.373-.267c.292-.47.6-.807.928-1.014.327-.213.675-.32 1.045-.32Zm7.891 0c.47 0 .84.152 1.11.458.277.299.416.708.416 1.227v2.283c0 .135.025.237.075.308.057.072.145.108.266.108a.432.432 0 0 0 .213-.054c.064-.035.142-.096.235-.181l.086.288c-.192.255-.367.437-.523.544a.87.87 0 0 1-.491.149c-.284 0-.501-.1-.65-.299a1.18 1.18 0 0 1-.206-.526c-.195.26-.386.453-.574.58a1.347 1.347 0 0 1-.767.245c-.327 0-.594-.103-.8-.309a1.077 1.077 0 0 1-.299-.779c0-.298.096-.55.288-.757.192-.206.49-.39.896-.554l1.238-.495v-.402c0-.32-.08-.568-.235-.746-.157-.178-.38-.268-.672-.268-.22 0-.43.065-.63.193-.198.12-.39.316-.575.587L64.6 7.12c.291-.47.601-.807.928-1.014.327-.213.676-.32 1.045-.32Zm-3.918.192h1.526v.64h-1.526v2.57c0 .306.067.537.202.694.136.15.335.223.598.223.135 0 .27-.028.405-.085.142-.056.281-.142.416-.255l.171.234a2.586 2.586 0 0 1-.64.661c-.235.164-.49.245-.768.245-.44 0-.79-.124-1.046-.373-.248-.256-.37-.63-.362-1.12l.032-2.795h-.81V5.99h.565l.991-1.205h.246V5.98ZM36.53 5.786h-.522a2.877 2.877 0 0 0-.192-.704.763.763 0 0 0-.33-.394c-.15-.093-.356-.14-.619-.14H33.79v5.025c0 .256.075.441.225.555.149.114.405.17.767.17v.502h-3.083v-.501c.363 0 .616-.054.758-.16.15-.114.224-.303.224-.566V4.55h-1.013c-.263 0-.47.046-.62.138a.815.815 0 0 0-.34.395c-.072.17-.136.406-.192.704h-.512l.074-1.92h6.368l.085 1.92Zm2.121.982c.281-.327.526-.567.737-.715.248-.17.55-.256.906-.256.462 0 .821.146 1.077.437.263.292.396.712.396 1.26v2.378c0 .192.05.32.149.384.107.064.306.095.597.096v.448H40.06v-.448c.27 0 .451-.032.543-.096.1-.064.15-.185.15-.362V7.632c0-.327-.082-.58-.245-.757-.164-.178-.406-.268-.726-.268-.234 0-.447.054-.64.16a2.357 2.357 0 0 0-.49.377v2.728c0 .185.05.313.149.384.1.064.288.096.565.096v.448h-2.485v-.448c.206 0 .363-.018.47-.053a.39.39 0 0 0 .223-.214c.043-.107.065-.266.065-.48V4.55l-.801-.18v-.343l1.557-.576h.256v3.318Zm13.933-2.902c.74 0 1.383.135 1.93.405.555.27.982.659 1.28 1.164.3.504.448 1.102.448 1.792 0 .71-.156 1.336-.469 1.877a3.22 3.22 0 0 1-1.344 1.248c-.576.298-1.252.448-2.027.448h-3.008v-.501c.342 0 .58-.054.715-.16.142-.114.213-.303.213-.566v-4.48c0-.263-.07-.448-.213-.555-.142-.114-.38-.17-.715-.17v-.502h3.19Zm-1.152 6.326h.8c.888 0 1.572-.26 2.048-.779.477-.519.714-1.234.714-2.143 0-.89-.224-1.576-.672-2.06-.448-.483-1.095-.725-1.941-.725l-.95-.01v5.717Zm7.047-1.43c-.249.058-.433.154-.554.289a.686.686 0 0 0-.182.49c0 .192.061.342.182.448.12.1.27.15.448.15.272 0 .545-.122.821-.362v-1.16l-.715.146Zm7.892 0c-.249.058-.434.154-.555.289a.685.685 0 0 0-.181.49c0 .192.06.342.181.448.121.1.27.15.448.15.272 0 .545-.122.822-.362V8.615l-.715.148ZM44.782 6.31c-.341-.008-.618.135-.832.426a1.645 1.645 0 0 0-.283.703h2.09c-.022-.342-.112-.61-.27-.8-.171-.22-.406-.33-.705-.33Z"/>
  </g>
  <defs>
    <clipPath id="datanet-dark_svg__a">
      <path fill="#fff" d="M0 0h79.32v24H0z"/>
    </clipPath>
  </defs>
</svg>
