<svg width="107" height="24" viewBox="0 0 107 24" fill="none" xmlns="http://www.w3.org/2000/svg">
<g clip-path="url(#clip0_11604_49901)">
<g clip-path="url(#clip1_11604_49901)">
<path fill-rule="evenodd" clip-rule="evenodd" d="M14.1703 0C19.353 0 20.7581 0.121123 22.8654 0.363371C23.8368 0.475305 24.6146 1.1987 24.5423 2.17855L23.7661 12.7609C23.5232 12.8313 23.2583 12.9203 22.9612 13.0201C21.4042 13.543 18.9635 14.3627 14.1703 14.3627C9.3771 14.3627 6.93636 13.543 5.37936 13.0201C5.08201 12.9202 4.81686 12.8311 4.57375 12.7607L3.79754 2.17855C3.72608 1.1987 4.50219 0.457762 5.47522 0.363371C7.55676 0.161219 9.72391 0 14.1703 0ZM4.94569 17.8315C4.68549 17.6001 4.50306 17.4033 4.39071 17.2672C4.30096 17.1578 4.24777 17.0241 4.24029 16.8821L4.12592 14.797C3.37192 14.3829 2.59424 13.9158 2.59424 13.9158C1.36942 13.2518 0.00250017 14.2057 7.30961e-06 15.6049C-0.00414742 17.8695 1.76329 20.1951 4.14731 21.6611C6.83545 23.3142 10.8481 24 14.1711 24C17.4941 24 21.5067 23.3142 24.1949 21.6611C26.5789 20.1951 28.3463 17.8687 28.3422 15.6049C28.3397 14.2057 26.9727 13.2518 25.7479 13.9158C25.7479 13.9158 24.9689 14.3841 24.2143 14.7985L24.1009 16.8637C24.0918 17.0174 24.0353 17.1636 23.9372 17.2814C23.2866 18.0616 20.5079 20.6795 14.1694 20.6795C9.04589 20.6795 6.22602 18.9467 5.00186 17.8809C4.9827 17.8642 4.96406 17.8478 4.94569 17.8315ZM36.5472 4.20755C36.5472 3.45727 37.1554 2.84906 37.9057 2.84906H44.2071C44.5834 2.84906 44.9428 3.00511 45.1997 3.28001L47.502 5.74373C47.7371 5.99534 47.8679 6.32688 47.8679 6.67126V15.5552C47.8679 15.8995 47.7371 16.2311 47.502 16.4827L45.1997 18.9464C44.9428 19.2213 44.5834 19.3774 44.2071 19.3774H37.9057C37.1554 19.3774 36.5472 18.7691 36.5472 18.0189V4.20755ZM43.0487 16.6384C43.311 16.6384 43.5604 16.5247 43.7324 16.3267L44.4825 15.4633C44.6257 15.2985 44.7045 15.0876 44.7045 14.8693V7.40089C44.7045 7.1565 44.6057 6.92249 44.4306 6.752L43.3011 5.65223C43.2588 5.61106 43.2022 5.58803 43.1432 5.58803H40.6163C40.1161 5.58803 39.7106 5.99351 39.7106 6.49369V15.7327C39.7106 16.2329 40.1161 16.6384 40.6163 16.6384H43.0487ZM52.0755 2.84906C51.5753 2.84906 51.1698 3.25454 51.1698 3.75472V18.4717C51.1698 18.9719 51.5753 19.3774 52.0755 19.3774H60.9065C61.7813 19.3774 62.4906 18.6681 62.4906 17.7933C62.4906 16.9184 61.7813 16.2092 60.9065 16.2092H55.2838C54.7836 16.2092 54.3781 15.8037 54.3781 15.3035V13.5439C54.3781 13.0438 54.7836 12.6383 55.2838 12.6383H59.1622C60.024 12.6383 60.7226 11.9396 60.7226 11.0778C60.7226 10.216 60.024 9.5173 59.1622 9.5173H55.2838C54.7836 9.5173 54.3781 9.11182 54.3781 8.61164V6.92291C54.3781 6.42273 54.7836 6.01725 55.2838 6.01725H60.9065C61.7813 6.01725 62.4906 5.30803 62.4906 4.43315C62.4906 3.55828 61.7813 2.84906 60.9065 2.84906H52.0755ZM65.3396 15.67C65.3396 16.0163 65.4719 16.3495 65.7093 16.6016L67.9221 18.9504C68.1788 19.2229 68.5365 19.3774 68.9109 19.3774H73.3766C73.7148 19.3774 74.0407 19.2513 74.2908 19.0237L76.5906 16.9315C76.7792 16.7598 76.8868 16.5166 76.8868 16.2616V11.566C76.8868 10.5657 76.0758 9.75472 75.0755 9.75472H72.1237C71.253 9.75472 70.5472 10.4605 70.5472 11.3312C70.5472 12.2019 71.253 12.9077 72.1237 12.9077H73.3408C73.5909 12.9077 73.7936 13.1104 73.7936 13.3605V14.9224C73.7936 15.1371 73.7173 15.3448 73.5784 15.5085L73.0826 16.0925C72.9105 16.2951 72.6581 16.412 72.3922 16.412H69.9989C69.7111 16.412 69.4405 16.2752 69.2698 16.0436L68.7329 15.3151C68.6182 15.1594 68.5563 14.9712 68.5563 14.7778V6.85822L69.5001 5.86865C69.671 5.68944 69.9078 5.58803 70.1555 5.58803H72.3585L73.8121 6.82052C74.3385 7.26687 75.116 7.24755 75.6196 6.7756L75.766 6.63839C76.3615 6.08031 76.334 5.12684 75.7073 4.60401L73.8558 3.0593C73.6929 2.92346 73.4876 2.84906 73.2756 2.84906H68.6892C68.2936 2.84906 67.9176 3.02154 67.6595 3.32143L65.6684 5.63519C65.4563 5.88169 65.3396 6.1961 65.3396 6.52131V15.67ZM96.2641 2.84906C95.5139 2.84906 94.9057 3.45727 94.9057 4.20755V18.0189C94.9057 18.7691 95.5139 19.3774 96.2641 19.3774H96.8302C97.5805 19.3774 98.1887 18.7691 98.1887 18.0189V10.8868L103.171 18.7462C103.42 19.1392 103.853 19.3774 104.318 19.3774H104.868C105.618 19.3774 106.226 18.7691 106.226 18.0189V4.20755C106.226 3.45727 105.618 2.84906 104.868 2.84906H104.297C103.548 2.84906 102.941 3.454 102.938 4.20216L102.908 11.8518L97.7397 3.49314C97.4922 3.09275 97.055 2.84906 96.5843 2.84906H96.2641ZM80.283 3.75472C80.283 3.25454 80.6885 2.84906 81.1887 2.84906H90.0197C90.8945 2.84906 91.6038 3.55828 91.6038 4.43315C91.6038 5.30803 90.8945 6.01725 90.0197 6.01725H84.397C83.8968 6.01725 83.4913 6.42273 83.4913 6.92291V8.61164C83.4913 9.11182 83.8968 9.5173 84.397 9.5173H88.2754C89.1372 9.5173 89.8359 10.216 89.8359 11.0778C89.8359 11.9396 89.1372 12.6383 88.2754 12.6383H84.397C83.8968 12.6383 83.4913 13.0438 83.4913 13.5439V15.3035C83.4913 15.8037 83.8968 16.2092 84.397 16.2092H90.0197C90.8945 16.2092 91.6038 16.9184 91.6038 17.7933C91.6038 18.6681 90.8945 19.3774 90.0197 19.3774H81.1887C80.6885 19.3774 80.283 18.9719 80.283 18.4717V3.75472Z" fill="#8B5CF6"/>
</g>
</g>
<defs>
<clipPath id="clip0_11604_49901">
<rect width="106.226" height="24" fill="white"/>
</clipPath>
<clipPath id="clip1_11604_49901">
<rect width="106.226" height="24" fill="white"/>
</clipPath>
</defs>
</svg>
