<svg width="186" height="24" viewBox="0 0 186 24" fill="none" xmlns="http://www.w3.org/2000/svg">
<g transform="translate(0.10,0.00) scale(0.193548)">
<path d="M128.936 71.992L81.5415 0.19551C81.3068 -0.152074 80.7659 -0.00895089 80.7455 0.410194C80.6332 2.2299 79.1024 11.9316 68.1824 11.9316C59.324 11.9316 55.2316 10.3368 46.1078 10.3368C42.9543 10.3368 39.1986 12.1258 37.2289 15.1212L33.5039 20.7643L69.1622 74.7625H83.1132C87.226 74.7625 91.0633 76.8275 93.329 80.2625L101.84 93.1742H130.845V78.3303C130.845 76.0812 130.181 73.873 128.936 71.992ZM90.0428 41.2411C84.3175 38.9204 79.8576 28.7383 79.8576 28.7383C91.4307 28.7383 99.2278 42.5496 99.2278 42.5496C99.2278 42.5496 95.7783 43.5617 90.053 41.2411H90.0428Z" fill="url(#paint0_linear_2378_96568)"/>
<path d="M86.0483 120.765H33.6733C29.9074 120.765 26.4069 118.884 24.325 115.735L2.03601 81.9682C-0.67867 77.8585 -0.67867 72.5323 2.03601 68.4226L26.8355 30.8938H26.8457L86.0483 120.775V120.765Z" fill="url(#paint1_linear_2378_96568)"/>
<path d="M170 10.3075H211.302C241.185 10.3075 262.933 33.6572 262.933 65.625C262.933 97.5928 241.185 120.789 211.302 120.789H170V10.3075ZM243.215 65.625C243.215 41.0179 228.04 28.331 209.731 28.331H189.085V102.766H209.731C228.04 102.766 243.215 90.0686 243.215 65.625ZM271.455 80.0397C271.455 54.9623 287.886 37.726 311.665 37.726C335.444 37.726 352.028 53.3981 352.028 76.9012V77.2181C352.028 80.6633 351.712 83.8018 351.406 86.4598H290.233C291.019 99.6273 299.459 107.928 312.92 107.928C322.616 107.928 329.188 103.543 331.852 96.1718H350.783C346.721 113.101 332.638 123.13 312.614 123.13C287.58 123.13 271.465 106.364 271.465 80.0397H271.455ZM311.665 52.611C299.622 52.611 291.488 60.1352 290.233 72.5154H332.944C332.474 60.4521 324.34 52.611 311.665 52.611ZM361.999 40.0774H379.522V52.4576C383.431 43.6861 390.473 38.3496 400.801 38.3496C402.995 38.3496 405.18 38.6666 406.435 39.1368V57.467C405.026 57.15 402.363 56.8433 400.179 56.8433C387.197 56.8433 380.308 66.0851 380.308 81.6038V120.779H362.01V40.0876L361.999 40.0774ZM415.324 18.9257C415.324 12.9758 420.335 7.80286 426.428 7.80286C432.521 7.80286 437.531 12.9758 437.531 18.9257C437.531 25.1924 432.521 30.212 426.428 30.212C420.335 30.212 415.324 25.1924 415.324 18.9257ZM417.355 40.0774H435.664V120.779H417.355V40.0876V40.0774ZM445.186 40.0774H465.679L479.446 78.6289L487.111 99.9442C489.774 92.8902 492.428 85.8362 494.928 78.6289L508.696 40.0774H529.189L496.49 120.779H477.875L445.176 40.0774H445.186ZM528.372 80.0397C528.372 54.9623 544.803 37.726 568.583 37.726C592.362 37.726 608.946 53.3981 608.946 76.9012V77.2181C608.946 80.6633 608.63 83.8018 608.323 86.4598H547.151C547.936 99.6273 556.377 107.928 569.838 107.928C579.533 107.928 586.106 103.543 588.769 96.1718H607.701C603.639 113.101 589.555 123.13 569.532 123.13C544.497 123.13 528.382 106.364 528.382 80.0397H528.372ZM568.583 52.611C556.54 52.611 548.406 60.1352 547.151 72.5154H589.861C589.392 60.4521 581.258 52.611 568.583 52.611Z" fill="#EAEBEA"/>
<path d="M633.837 121.641C627.028 121.64 621.612 116.853 621.613 109.596C621.614 102.648 627.186 97.7071 633.84 97.7079C640.495 97.7086 645.91 102.65 645.91 109.599C645.909 116.701 640.492 121.642 633.837 121.641Z" fill="#EAEBEA"/>
<path d="M659.314 119.791L700.33 62.9737L662.576 10.934L685.325 10.9365L698.477 30.0846C705.439 39.6587 709.617 45.6811 712.093 49.2327C714.569 45.6816 718.439 39.8146 725.713 29.9333L738.715 10.9426L761.463 10.9452L724.007 62.3587L764.855 119.803L741.952 119.8L728.955 100.498C721.219 89.6886 716.422 82.5853 712.09 76.2541L695.219 100.34L682.063 119.794L659.314 119.791Z" fill="#EAEBEA"/>
<path d="M808.985 119.808L808.99 76.4195L770.619 10.9462L791.82 10.9487L811.161 45.075L818.432 58.0461L825.707 45.0766L845.055 10.9547L866.257 10.9571L827.87 76.4217L827.865 119.81L808.985 119.808Z" fill="#EAEBEA"/>
<path d="M873.492 119.815L873.494 102.522L934.166 28.4129L876.443 28.4064L876.445 10.9583L957.535 10.9675L957.534 28.4156L897.017 102.524L960.001 102.532L959.999 119.825L873.492 119.815Z" fill="#EAEBEA"/>
<defs>
<linearGradient id="paint0_linear_2378_96568" x1="82.1743" y1="93.1742" x2="82.1743" y2="0.00127731" gradientUnits="userSpaceOnUse">
<stop stop-color="#FCB124"/>
<stop offset="1" stop-color="#F63E58"/>
</linearGradient>
<linearGradient id="paint1_linear_2378_96568" x1="43.0318" y1="120.775" x2="43.0318" y2="30.8734" gradientUnits="userSpaceOnUse">
<stop stop-color="#FCB124"/>
<stop offset="1" stop-color="#F63E58"/>
</linearGradient>
</defs>
</g>
</svg>
