<svg width="196" height="40" viewBox="0 0 196 40" fill="none" xmlns="http://www.w3.org/2000/svg">
<path d="M19.9885 26.5188L24.5129 30.9444V39.483C23.0586 39.8206 21.5417 39.9999 19.9839 40H19.9747C18.4231 40 16.9139 39.822 15.4642 39.4876L15.4619 30.9444L19.9885 26.5188Z" fill="#00A6F2"/>
<path fill-rule="evenodd" clip-rule="evenodd" d="M101.108 2.51149C110.762 2.51149 118.591 10.346 118.591 20.0092C118.591 29.6723 110.762 37.5069 101.108 37.5069C91.4532 37.5063 83.6259 29.672 83.6259 20.0092C83.6259 10.3464 91.4532 2.51204 101.108 2.51149ZM101.108 8.81434C95.1475 8.81491 90.3171 13.828 90.3171 20.0092C90.3171 26.1904 95.1475 31.2058 101.108 31.2063C107.068 31.2063 111.9 26.1924 111.9 20.0092C111.9 13.826 107.068 8.81434 101.108 8.81434Z" fill="#00A6F2"/>
<path d="M30.9398 24.5611L36.9462 30.5767C36.2464 31.7011 35.435 32.7522 34.5313 33.7132L33.6742 34.5703C32.717 35.4718 31.6696 36.2825 30.5492 36.983L24.5427 30.9697C27.43 29.765 29.7394 27.4509 30.9398 24.5611Z" fill="#00A6F2"/>
<path d="M9.01884 24.5588C10.2194 27.4499 12.528 29.759 15.4136 30.9651L9.40717 36.9784C8.18005 36.212 7.04502 35.3151 6.01563 34.3084L5.68474 33.9798C4.67607 32.9467 3.77958 31.8046 3.01241 30.5722L9.01884 24.5588Z" fill="#00A6F2"/>
<path d="M139.759 28.5524L149.55 3.10202H156.887V36.8176H150.627V16.3994L142.672 36.8199H136.845L128.883 16.3833V36.8176H122.624V3.10202H129.968L139.759 28.5524Z" fill="#00A6F2"/>
<path fill-rule="evenodd" clip-rule="evenodd" d="M181.206 3.10202L195.294 36.8199H188.366L186.066 31.1788H169.387L167.086 36.8199H160.156L174.244 3.10202H181.206ZM171.707 25.4894H183.745L177.725 10.733L171.707 25.4894Z" fill="#00A6F2"/>
<path fill-rule="evenodd" clip-rule="evenodd" d="M62.3828 3.10202C65.9952 3.10202 69.4562 3.78766 72.0267 5.15855C74.6121 6.52943 76.812 8.48629 78.1365 11.0271C79.4758 13.5677 80.147 16.5604 80.1471 20.0046C80.1471 23.4489 79.4774 26.4105 78.1365 28.9361C76.8137 31.4619 74.8579 33.4092 72.2725 34.7817C69.702 36.1375 65.9969 36.8153 62.3828 36.8153L47.7298 36.8176V3.10202H62.3828ZM53.989 31.1558H62.5368C64.7778 31.1558 67.0163 30.715 68.5984 29.8346C70.1938 28.9391 71.6356 27.6508 72.4885 25.972C73.3411 24.2918 73.7683 22.3038 73.7684 20.0046C73.7684 17.7047 73.3415 15.6724 72.4885 13.9936C71.6357 12.3152 70.1951 11.0343 68.5984 10.154C67.0029 9.25844 64.7571 8.80974 62.5161 8.80974H53.989V31.1558Z" fill="#00A6F2"/>
<path d="M19.9885 15.455C22.4973 15.455 24.5307 17.4892 24.5313 20C24.5313 22.5113 22.4976 24.5473 19.9885 24.5473C17.4794 24.5473 15.4458 22.5113 15.4458 20C15.4463 17.4892 17.4797 15.455 19.9885 15.455Z" fill="#00A6F2"/>
<path d="M9.04871 15.4756L13.4812 20.0046L9.04871 24.5335H0.505515C0.210604 23.2585 0.0376639 21.9365 0 20.5813V19.4279C0.0376828 18.073 0.210678 16.7528 0.505515 15.4779L9.04871 15.4756Z" fill="#00A6F2"/>
<path d="M39.4485 15.4756C39.7843 16.9312 39.9655 18.4509 39.9655 20.0069C39.9655 21.5631 39.7865 23.0794 39.4508 24.5335H30.9237L26.3534 20.0046L30.9237 15.4756H39.4485Z" fill="#00A6F2"/>
<path d="M9.41636 3.0239L15.4251 9.03722C12.538 10.2387 10.227 12.5485 9.02344 15.4366L3.01471 9.42555C4.63243 6.83435 6.82588 4.64153 9.41636 3.0239Z" fill="#00A6F2"/>
<path d="M30.5423 3.0239C33.1328 4.63996 35.3262 6.83434 36.9439 9.42555L30.9352 15.4366C29.7316 12.5485 27.4207 10.2387 24.5336 9.03722L30.5423 3.0239Z" fill="#00A6F2"/>
<path d="M19.9816 0C21.5397 2.18273e-05 23.0568 0.179392 24.5129 0.517004V9.0579L19.9885 13.5869L15.4619 9.0579V0.514706C16.9149 0.178608 18.4234 0 19.9816 0Z" fill="#00A6F2"/>
</svg>
