<?xml version="1.0" encoding="utf-8"?>
<!-- Generator: Adobe Illustrator 27.9.0, SVG Export Plug-In . SVG Version: 6.00 Build 0)  -->
<svg version="1.1" id="Layer_1" xmlns="http://www.w3.org/2000/svg" xmlns:xlink="http://www.w3.org/1999/xlink" x="0px" y="0px"
	 viewBox="0 0 3408.3 1458.6" style="enable-background:new 0 0 3408.3 1458.6;" xml:space="preserve">
<style type="text/css">
	.st0{fill:#FFFFFF;}
	.st1{fill:#FF2E29;}
</style>
<g>
	<path class="st0" d="M1602.8,601.1h-322.6c-20.4,0-37,16.6-37,36.9v174.6c0,20.3,16.6,36.9,37,36.9s37-16.6,37-36.9V674.9h285.7
		c68.6,0,124.5,55.7,124.5,124.2s-55.8,124.3-124.5,124.3h-322.7c-20.4,0-37,16.6-37,36.9s16.6,36.9,37,36.9h322.7
		c109.4,0,198.4-88.8,198.4-198.1C1801.2,689.9,1712.2,601.1,1602.8,601.1z"/>
	<path class="st0" d="M2300.2,601.1h-206c-109.5,0-198.5,88.8-198.5,197.9c0,109.2,89,198.1,198.5,198.1h206
		c109.5,0,198.5-88.8,198.5-198.1C2498.7,689.9,2409.7,601.1,2300.2,601.1z M2300.2,923.3h-206c-68.7,0-124.5-55.7-124.5-124.3
		c0-68.5,55.9-124.2,124.5-124.2h206c68.7,0,124.5,55.7,124.5,124.2S2368.9,923.3,2300.2,923.3z"/>
	<path class="st0" d="M3033.6,762.1h-322.8c-24.5,0-43.7-19.2-43.7-43.6c0-24.5,19.2-43.6,43.7-43.6H3082c20.4,0,37-16.6,37-36.9
		s-16.6-36.9-37-36.9h-371.2c-64.8,0-117.6,52.7-117.6,117.4s52.8,117.4,117.6,117.4h322.8c24.5,0,43.7,19.2,43.7,43.7
		s-19.2,43.6-43.7,43.6h-403.4c-20.4,0-37,16.6-37,36.9s16.6,36.9,37,36.9h403.5c64.8,0,117.6-52.7,117.6-117.4
		C3151.2,814.8,3098.4,762.1,3033.6,762.1z"/>
</g>
<path class="st1" d="M1058.7,711.3c-12.4-68-42.3-130-84.7-181.1C901.4,442.7,791.8,387,669.2,387H362.6
	c-49.5,0.6-89.4,40.9-89.4,90.6v610.8c0,49.6,39.9,89.9,89.4,90.6h306.6c122.6,0,232.2-55.7,304.8-143.2
	c42.4-51.1,72.2-113.1,84.7-181.1c4.3-23.2,6.4-47.2,6.4-71.6C1065.1,758.4,1062.9,734.5,1058.7,711.3z M670.3,1035.7H668
	c-24.9-0.1-48.9-3.8-71.6-10.6c-40.9-12.3-77.4-34.6-106.7-64.1c-19.7-19.9-36.1-43-48.4-68.5c-5.8-12.1-10.7-24.8-14.6-37.9
	c-6.7-22.7-10.3-46.8-10.3-71.6s3.6-48.9,10.3-71.6c2-6.7,4.2-13.2,6.7-19.7c2.3-6.1,11-5.8,13,0.4c2.1,6.5,4.5,13,7.1,19.2
	c11.2,26.8,27.3,51,47.2,71.6c23.5,24.4,52.3,43.7,84.5,56.1l0,0c5.9,2.3,11.8,4.3,17.9,6.1c20.9,6.1,43.1,9.4,66,9.4
	c50,0,90.6,40.5,90.6,90.6C759.7,994.8,719.8,1035.1,670.3,1035.7z M911.6,854.6c-2,6.7-4.2,13.2-6.7,19.7c-2.3,6.1-11,5.8-13-0.4
	c-2.1-6.5-4.5-13-7.1-19.2c-11.2-26.8-27.3-51-47.2-71.6c-42.5-44.1-102.3-71.6-168.4-71.6c-22,0-42.1-7.8-57.8-20.8
	c-20-16.6-32.8-41.7-32.8-69.7c0-24,9.4-45.9,24.6-62.1c16.3-17.3,39.3-28.2,64.8-28.5h2.3c99.8,0.4,186,58.8,226.7,143.2
	c5.8,12.1,10.7,24.8,14.6,37.9c6.7,22.7,10.3,46.8,10.3,71.6S918.3,831.9,911.6,854.6z"/>
</svg>
