<svg id="Layer_1" data-name="Layer 1" xmlns="http://www.w3.org/2000/svg" viewBox="0 0 2900.65 496.67"><defs><style>.cls-1{fill:#ff2e29;}</style></defs><path class="cls-1" d="M496.53,248.26a254.54,254.54,0,0,1-3.93,45A248.38,248.38,0,0,1,248.41,496.67H56.9a47.72,47.72,0,0,1-6.4-.58L172.74,373.85a146.59,146.59,0,0,0,75.67,21c80.76,0,146.69-65.63,146.69-146.69A146.63,146.63,0,0,0,248.41,101.43c-80.77,0-146.69,65.63-146.69,146.69a146.73,146.73,0,0,0,18.92,72.32L0,441.08V56.9A56.8,56.8,0,0,1,56.9,0H248.41A248.38,248.38,0,0,1,492.6,203.44,278.93,278.93,0,0,1,496.53,248.26Z"/><path class="cls-1" d="M321,248.26a72.77,72.77,0,1,1-72.77-72.76A72.89,72.89,0,0,1,321,248.26Z"/><path class="cls-1" d="M846.31,123.32H643.86A22.94,22.94,0,0,0,621,146.23V267.67a22.91,22.91,0,0,0,45.82,0V169.13H846.31a78.32,78.32,0,1,1,0,156.64H643.86a22.91,22.91,0,1,0,0,45.82H846.31A124.48,124.48,0,0,0,970.49,247.42C970.49,179,914.78,123.32,846.31,123.32Z"/><path class="cls-1" d="M1246.33,123.32H1117.17C1048.7,123.32,993,179,993,247.42a124.48,124.48,0,0,0,124.17,124.17h129.16a124.48,124.48,0,0,0,124.18-124.17C1370.51,179,1314.8,123.32,1246.33,123.32Zm0,202.45H1117.17a78.32,78.32,0,1,1,0-156.64h129.16a78.32,78.32,0,1,1,0,156.64Z"/><path d="M1669.05,224.51H1466.52a27.69,27.69,0,0,1,0-55.38h232.87a22.91,22.91,0,1,0,0-45.81H1466.52a73.5,73.5,0,0,0,0,147h202.53a27.73,27.73,0,0,1,0,55.45H1415.92a22.91,22.91,0,0,0,0,45.82h253.13a73.54,73.54,0,0,0,0-147.08Z"/><path d="M1903.22,169.13h202.45a22.91,22.91,0,1,0,0-45.81H1903.22c-68.47,0-124.17,55.67-124.17,124.1a124.48,124.48,0,0,0,124.17,124.17h202.45a22.91,22.91,0,0,0,0-45.82H1903.22a78.32,78.32,0,1,1,0-156.64Z"/><path d="M2357.29,131.37a25.38,25.38,0,0,0-16.64-8.05v0h-.8a25.25,25.25,0,0,0-17.45,8.06L2150.29,333.83a25.73,25.73,0,0,0-5.47,14.85,25.25,25.25,0,0,0,8.06,17.45,25.75,25.75,0,0,0,14.85,5.47,25.26,25.26,0,0,0,17.45-8.07l154.67-182,154.66,182A25.26,25.26,0,0,0,2512,371.6a25.73,25.73,0,0,0,14.85-5.47,25.26,25.26,0,0,0,8.07-17.45,25.8,25.8,0,0,0-5.47-14.85Z"/><path d="M2877.74,123.32a22.93,22.93,0,0,0-22.91,22.91V305.9l-268.1-178.73a26,26,0,0,0-12.71-3.85h-.18a23,23,0,0,0-22.73,22.91V348.68A22.94,22.94,0,0,0,2574,371.59h0a22.94,22.94,0,0,0,22.91-22.91V189L2865,367.74a26.1,26.1,0,0,0,12.71,3.85,23,23,0,0,0,22.91-22.91V146.23A22.93,22.93,0,0,0,2877.74,123.32Z"/></svg>