<svg width="118" height="24" viewBox="0 0 118 24" fill="none" xmlns="http://www.w3.org/2000/svg">
<g clip-path="url(#clip0_10771_6184)">
<path d="M0.260986 10.7448L7.32992 7.76495L14.1813 10.8209L7.31905 0L0.260986 10.7448ZM0.282737 14.0509L7.3408 18.14L14.5402 14.0509L7.40605 23.98L0.282737 14.0509Z" fill="#4AD7A7"/>
<path d="M7.36257 9.22217L0 12.3216L7.36257 16.4107L14.5185 12.4086L7.36257 9.22217Z" fill="#4AD7A7"/>
<path fill-rule="evenodd" clip-rule="evenodd" d="M68.074 16.6716C68.0068 16.6716 67.9396 16.6548 67.8724 16.6212C67.7839 16.5753 67.698 16.5248 67.6148 16.47C67.4503 16.3622 67.2759 16.2703 67.094 16.1956C66.9332 16.132 66.7412 16.1004 66.5172 16.1004C66.0092 16.1004 65.6156 16.272 65.3356 16.6156C65.0556 16.9592 64.9156 17.4372 64.9156 18.0496C64.9156 18.6624 65.0536 19.1348 65.33 19.4672C65.606 19.7996 65.998 19.9656 66.506 19.9656C66.73 19.9656 66.9276 19.932 67.0996 19.8648C67.2829 19.7917 67.4592 19.7017 67.626 19.596C67.708 19.5436 67.79 19.4988 67.8724 19.4616C67.9544 19.424 68.0292 19.4056 68.0964 19.4056C68.2008 19.4056 68.2868 19.4484 68.354 19.5344C68.4212 19.62 68.4548 19.7268 68.4548 19.8536C68.4548 19.9584 68.4268 20.0536 68.3708 20.1392C68.3148 20.2252 68.2196 20.3128 68.0852 20.4028C67.844 20.5596 67.5793 20.6768 67.3012 20.75C67.0057 20.8316 66.7005 20.8731 66.394 20.8732C65.8636 20.8732 65.3988 20.7576 64.9996 20.526C64.6 20.2944 64.29 19.9656 64.07 19.54C63.8496 19.114 63.7396 18.6212 63.7396 18.0608C63.7396 17.4936 63.8532 16.9928 64.0812 16.5596C64.2972 16.1387 64.6295 15.7887 65.0388 15.5512C65.4492 15.3124 65.9196 15.1928 66.45 15.1928C66.7336 15.1928 67.0192 15.234 67.3068 15.316C67.5772 15.391 67.8355 15.5041 68.074 15.652C68.3128 15.8164 68.4324 16.0068 68.4324 16.2236C68.4324 16.3504 68.3988 16.4568 68.3316 16.5428C68.3021 16.5833 68.2633 16.6162 68.2184 16.6386C68.1736 16.661 68.1241 16.6723 68.074 16.6716ZM67.6712 9.65082C67.5068 9.65082 67.3724 9.60401 67.268 9.51081C67.1632 9.41721 67.1108 9.28481 67.1108 9.11281V6.21121C67.1108 5.75561 67.0288 5.42521 66.8644 5.21961C66.7004 5.01401 66.4428 4.91162 66.092 4.91162C65.6812 4.91162 65.3564 5.05161 65.1176 5.33161C64.8784 5.61161 64.7592 5.99441 64.7592 6.48001V9.11281C64.7592 9.28481 64.7068 9.41721 64.6024 9.51081C64.4976 9.60401 64.3596 9.65082 64.1876 9.65082C64.0236 9.65082 63.8892 9.60401 63.7844 9.51081C63.68 9.41721 63.6276 9.28481 63.6276 9.11281V6.21121C63.6276 5.75561 63.5456 5.42521 63.3812 5.21961C63.2172 5.01401 62.9596 4.91162 62.6088 4.91162C62.198 4.91162 61.8712 5.05161 61.6284 5.33161C61.386 5.61161 61.2648 5.99441 61.2648 6.48001V9.11281C61.2648 9.28481 61.2124 9.41721 61.108 9.51081C61.0032 9.60401 60.8688 9.65082 60.7048 9.65082C60.5404 9.65082 60.404 9.60401 60.296 9.51081C60.1876 9.41721 60.1336 9.28481 60.1336 9.11281V4.55281C60.1336 4.38881 60.1896 4.25801 60.3016 4.16082C60.4136 4.06361 60.548 4.01521 60.7048 4.01521C60.8616 4.01521 60.9904 4.06201 61.0908 4.15521C61.192 4.24881 61.2424 4.37761 61.2424 4.54161V4.95641C61.4064 4.64241 61.634 4.40361 61.9256 4.23921C62.2164 4.07521 62.5524 3.99281 62.9332 3.99281C63.3516 3.99281 63.6968 4.07881 63.9692 4.25041C64.242 4.42241 64.4456 4.68721 64.58 5.04601C64.7435 4.72529 64.9963 4.45871 65.308 4.27841C65.6288 4.08801 65.9948 3.99281 66.4056 3.99281C67.63 3.99281 68.2424 4.72841 68.2424 6.20001V9.11281C68.2424 9.28481 68.19 9.41721 68.0856 9.51081C67.9808 9.60401 67.8428 9.65082 67.6712 9.65082ZM59.9652 13.938C59.8384 14.0576 59.6668 14.1172 59.45 14.1172C59.2336 14.1172 59.062 14.0576 58.9348 13.938C58.808 13.8184 58.7444 13.6616 58.7444 13.4672C58.7444 13.2732 58.808 13.1184 58.9348 13.0024C59.062 12.8864 59.2336 12.8288 59.45 12.8288C59.6592 12.8288 59.8292 12.8864 59.9596 13.0024C60.0904 13.1184 60.1556 13.2732 60.1556 13.4672C60.1556 13.6616 60.092 13.8184 59.9652 13.938ZM57.9832 9.65082C57.8264 9.65082 57.6992 9.60401 57.6024 9.51081C57.5052 9.41721 57.4568 9.29201 57.4568 9.13521V8.70961C57.295 9.01312 57.0477 9.26248 56.7456 9.42681C56.4432 9.59121 56.1052 9.67321 55.732 9.67321C54.4028 9.67321 53.7384 8.94122 53.7384 7.47721V4.56401C53.7384 4.39241 53.7888 4.25801 53.8896 4.16082C53.9904 4.06361 54.1304 4.01521 54.3096 4.01521C54.4812 4.01521 54.6176 4.06361 54.7184 4.16082C54.8192 4.25801 54.8696 4.39241 54.8696 4.56401V7.46601C54.8696 7.90682 54.9592 8.23161 55.1384 8.44081C55.3176 8.65001 55.5936 8.75441 55.9672 8.75441C56.4076 8.75441 56.7604 8.61281 57.0256 8.32881C57.2904 8.04481 57.4232 7.66761 57.4232 7.19721V4.56401C57.4232 4.40001 57.4752 4.26721 57.58 4.16641C57.6844 4.06561 57.8224 4.01521 57.9944 4.01521C58.166 4.01521 58.3024 4.06361 58.4032 4.16082C58.504 4.25801 58.5544 4.39241 58.5544 4.56401V9.12401C58.5544 9.28121 58.502 9.40801 58.3976 9.50521C58.2928 9.60202 58.1548 9.65082 57.9832 9.65082ZM54.6568 15.652C54.9032 15.8164 55.0264 16.0068 55.0264 16.2236C55.0264 16.3432 54.9908 16.444 54.9196 16.526C54.8488 16.6084 54.7648 16.6492 54.668 16.6492C54.6008 16.6492 54.5336 16.6344 54.4664 16.6044C54.374 16.5612 54.2842 16.5126 54.1976 16.4588C54.0172 16.3498 53.828 16.2561 53.632 16.1788C53.4564 16.1112 53.238 16.0776 52.9768 16.0776C52.6628 16.0776 52.4108 16.1452 52.2208 16.2796C52.03 16.414 51.9348 16.5972 51.9348 16.8284C51.9348 17.0376 52.0228 17.2 52.1984 17.316C52.3736 17.4316 52.704 17.542 53.1896 17.6464C53.6896 17.7512 54.0816 17.8704 54.3652 18.0048C54.6492 18.1392 54.8524 18.3056 54.976 18.5036C55.0988 18.7016 55.1608 18.9536 55.1608 19.2596C55.1608 19.7452 54.9572 20.1356 54.5504 20.4304C54.1432 20.7256 53.6 20.8732 52.9208 20.8732C52.1592 20.8732 51.5356 20.7164 51.0504 20.4028C50.916 20.3204 50.8204 20.2344 50.7648 20.1448C50.7082 20.0542 50.6789 19.9492 50.6804 19.8424C50.6804 19.7228 50.7144 19.622 50.7816 19.54C50.8118 19.5008 50.8508 19.4691 50.8955 19.4477C50.9401 19.4262 50.9892 19.4155 51.0388 19.4164C51.136 19.4164 51.2892 19.4764 51.4984 19.596C51.7224 19.7156 51.9404 19.8124 52.1536 19.8872C52.366 19.962 52.6332 19.9992 52.954 19.9992C53.3124 19.9992 53.5928 19.936 53.7944 19.8088C53.996 19.682 54.0964 19.5024 54.0964 19.2708C54.0964 19.1216 54.0576 19.002 53.9788 18.9124C53.9004 18.8228 53.7644 18.7428 53.5704 18.6716C53.376 18.6008 53.0884 18.524 52.7076 18.442C52.0508 18.3 51.5784 18.1076 51.2908 17.8648C51.0036 17.6224 50.8596 17.2916 50.8596 16.8732C50.8596 16.5524 50.9532 16.2628 51.14 16.0048C51.3264 15.7472 51.584 15.5476 51.9124 15.4056C52.2412 15.2636 52.6144 15.1928 53.0328 15.1928C53.3279 15.1924 53.6218 15.2319 53.9064 15.3104C54.1738 15.3815 54.4275 15.497 54.6568 15.652ZM52.1144 7.05121H48.6536C48.7284 8.20921 49.2844 8.78801 50.3224 8.78801C50.5984 8.78801 50.8376 8.75081 51.0392 8.67601C51.2583 8.5934 51.4715 8.49611 51.6776 8.38481C51.7375 8.34997 51.7992 8.31819 51.8624 8.28962C51.9632 8.24082 52.0472 8.21681 52.1144 8.21681C52.2188 8.21681 52.3048 8.25761 52.372 8.34001C52.4392 8.42201 52.4728 8.52681 52.4728 8.65361C52.4728 8.87041 52.3384 9.05322 52.0696 9.20241C51.8004 9.35531 51.5124 9.47218 51.2128 9.55001C50.9225 9.62938 50.6232 9.6708 50.3224 9.67321C49.4564 9.67321 48.7732 9.42121 48.2728 8.91681C47.7724 8.41281 47.5224 7.72361 47.5224 6.84961C47.5224 6.28961 47.6324 5.79281 47.8528 5.35961C48.0732 4.92641 48.3828 4.59041 48.7824 4.35121C49.182 4.11241 49.6356 3.99281 50.1432 3.99281C50.8748 3.99281 51.4536 4.22801 51.8792 4.69841C52.3048 5.16921 52.5176 5.80401 52.5176 6.60321C52.5176 6.90201 52.3832 7.05121 52.1144 7.05121ZM51.1568 5.23081C50.9216 4.95801 50.5912 4.82201 50.1656 4.82201C49.7324 4.82201 49.3852 4.96001 49.124 5.23641C48.8628 5.51281 48.706 5.90121 48.6536 6.40161H51.5432C51.5208 5.89361 51.392 5.50361 51.1568 5.23081ZM45.0584 20.8732C44.2968 20.8732 43.6732 20.7164 43.188 20.4028C43.0536 20.3204 42.9584 20.2344 42.9024 20.1448C42.846 20.0541 42.8169 19.9492 42.8184 19.8424C42.8184 19.7228 42.852 19.622 42.9192 19.54C42.9495 19.5007 42.9885 19.4691 43.0333 19.4476C43.078 19.4261 43.1272 19.4155 43.1768 19.4164C43.2736 19.4164 43.4268 19.4764 43.636 19.596C43.86 19.7156 44.0784 19.8124 44.2912 19.8872C44.504 19.962 44.7708 19.9992 45.092 19.9992C45.4504 19.9992 45.7304 19.936 45.932 19.8088C46.1336 19.682 46.2344 19.5024 46.2344 19.2708C46.2344 19.1216 46.1952 19.002 46.1168 18.9124C46.0384 18.8228 45.902 18.7428 45.708 18.6716C45.5136 18.6008 45.2264 18.524 44.8456 18.442C44.1884 18.3 43.716 18.1076 43.4288 17.8648C43.1412 17.6224 42.9976 17.2916 42.9976 16.8732C42.9976 16.5524 43.0908 16.2628 43.2776 16.0048C43.464 15.7472 43.7216 15.5476 44.0504 15.4056C44.3788 15.2636 44.752 15.1928 45.1704 15.1928C45.4655 15.1924 45.7594 15.2319 46.044 15.3104C46.3114 15.3815 46.5651 15.497 46.7944 15.652C47.0408 15.8164 47.164 16.0068 47.164 16.2236C47.164 16.3432 47.1284 16.444 47.0576 16.526C46.9864 16.6084 46.9024 16.6492 46.8056 16.6492C46.7384 16.6492 46.6712 16.6344 46.604 16.6044C46.5116 16.5612 46.4218 16.5126 46.3352 16.4588C46.1548 16.3498 45.9656 16.2561 45.7696 16.1788C45.594 16.1112 45.3756 16.0776 45.1144 16.0776C44.8008 16.0776 44.5488 16.1452 44.3584 16.2796C44.168 16.414 44.0728 16.5972 44.0728 16.8284C44.0728 17.0376 44.1604 17.2 44.336 17.316C44.5112 17.4316 44.8416 17.542 45.3272 17.6464C45.8272 17.7512 46.2192 17.8704 46.5032 18.0048C46.7868 18.1392 46.9904 18.3056 47.1136 18.5036C47.2368 18.7016 47.2984 18.9536 47.2984 19.2596C47.2984 19.7452 47.0948 20.1356 46.688 20.4304C46.2808 20.7256 45.7376 20.8732 45.0584 20.8732ZM46.7048 4.99001L46.3688 5.02361C45.8984 5.06841 45.5492 5.23281 45.3216 5.51641C45.0936 5.80041 44.98 6.14401 44.98 6.54721V9.11281C44.98 9.29201 44.9276 9.42681 44.8232 9.51641C44.7184 9.60601 44.584 9.65082 44.42 9.65082C44.2556 9.65082 44.1192 9.60601 44.0112 9.51641C43.9028 9.42681 43.8488 9.29201 43.8488 9.11281V4.55281C43.8488 4.38121 43.9028 4.24881 44.0112 4.15521C44.1192 4.06201 44.2556 4.01521 44.42 4.01521C44.5692 4.01521 44.6944 4.06201 44.7952 4.15521C44.896 4.24881 44.9464 4.37761 44.9464 4.54161V5.07962C45.0956 4.75082 45.312 4.50081 45.596 4.32881C45.8796 4.15721 46.2008 4.05641 46.5592 4.02641L46.716 4.01521C47.0744 3.99281 47.2536 4.14601 47.2536 4.47441C47.2536 4.63881 47.2124 4.76201 47.1304 4.84401C47.048 4.92641 46.9064 4.97481 46.7048 4.99001ZM42.2024 7.05121H38.7416C38.8164 8.20921 39.3728 8.78801 40.4104 8.78801C40.6868 8.78801 40.9256 8.75081 41.1272 8.67601C41.3463 8.5934 41.5595 8.49611 41.7656 8.38481C41.8255 8.34997 41.8872 8.31819 41.9504 8.28962C42.0512 8.24082 42.1352 8.21681 42.2024 8.21681C42.3068 8.21681 42.3928 8.25761 42.46 8.34001C42.5272 8.42201 42.5608 8.52681 42.5608 8.65361C42.5608 8.87041 42.4264 9.05322 42.1576 9.20241C41.8884 9.35531 41.6004 9.47218 41.3008 9.55001C41.0105 9.62941 40.7112 9.67082 40.4104 9.67321C39.5444 9.67321 38.8612 9.42121 38.3608 8.91681C37.8608 8.41281 37.6104 7.72361 37.6104 6.84961C37.6104 6.28961 37.7208 5.79281 37.9408 5.35961C38.1612 4.92641 38.4708 4.59041 38.8704 4.35121C39.27 4.11241 39.7236 3.99281 40.2312 3.99281C40.9628 3.99281 41.5416 4.22801 41.9672 4.69841C42.3928 5.16921 42.6056 5.80401 42.6056 6.60321C42.6056 6.90201 42.4712 7.05121 42.2024 7.05121ZM41.2448 5.23081C41.0096 4.95801 40.6792 4.82201 40.2536 4.82201C39.8204 4.82201 39.4736 4.96001 39.212 5.23641C38.9508 5.51281 38.794 5.90121 38.7416 6.40161H41.6312C41.6088 5.89361 41.48 5.50361 41.2448 5.23081ZM38.6128 15.7416C38.9672 16.1076 39.1448 16.6644 39.1448 17.4112V20.3128C39.1448 20.4848 39.096 20.6172 38.9992 20.7108C38.902 20.804 38.7676 20.8508 38.596 20.8508C38.4316 20.8508 38.3008 20.802 38.204 20.7052C38.1068 20.608 38.0584 20.4772 38.0584 20.3128V19.8984C37.9164 20.212 37.7056 20.4528 37.4256 20.6212C37.1456 20.7892 36.8188 20.8732 36.4456 20.8732C36.0872 20.8732 35.7584 20.8004 35.46 20.6548C35.1612 20.5092 34.928 20.3056 34.76 20.044C34.5922 19.7836 34.5046 19.4797 34.508 19.17C34.508 18.7744 34.6104 18.4624 34.816 18.2348C35.0212 18.0068 35.3608 17.8444 35.8352 17.7472C36.3092 17.6504 36.9608 17.6016 37.7896 17.6016H38.0472V17.2768C38.0472 16.8584 37.9612 16.556 37.7896 16.3692C37.6176 16.1824 37.3416 16.0892 36.9608 16.0892C36.6992 16.0892 36.4528 16.1228 36.2216 16.19C35.99 16.2572 35.736 16.3544 35.46 16.4812C35.2584 16.5932 35.1164 16.6492 35.0344 16.6492C34.9823 16.6507 34.9305 16.6405 34.883 16.6191C34.8355 16.5978 34.7934 16.5659 34.76 16.526C34.6888 16.444 34.6536 16.3392 34.6536 16.2124C34.6536 16.1004 34.6852 16.0012 34.7488 15.9152C34.812 15.8296 34.9148 15.7456 35.0568 15.6632C35.318 15.5216 35.624 15.4076 35.9752 15.3216C36.3085 15.2381 36.6507 15.1948 36.9944 15.1928C37.7184 15.1928 38.258 15.376 38.6128 15.7416ZM37.8456 18.24C37.2632 18.24 36.8152 18.2664 36.5016 18.3188C36.188 18.3708 35.964 18.4588 35.8296 18.582C35.6952 18.7052 35.628 18.8828 35.628 19.114C35.628 19.3828 35.7248 19.6032 35.9192 19.7752C36.1132 19.9472 36.356 20.0328 36.6472 20.0328C37.0576 20.0328 37.3936 19.8928 37.6552 19.6128C37.9164 19.3324 38.0472 18.9724 38.0472 18.5316V18.24H37.8456ZM35.8076 9.65082C35.6356 9.65082 35.4996 9.60202 35.3988 9.50521C35.298 9.40801 35.2476 9.27721 35.2476 9.11281V6.21121C35.2476 5.76281 35.156 5.43441 34.9732 5.22521C34.79 5.01601 34.5044 4.91162 34.1164 4.91162C33.6608 4.91162 33.2948 5.05321 33.0188 5.33721C32.7424 5.62121 32.6044 6.00201 32.6044 6.48001V9.11281C32.6044 9.27721 32.554 9.40801 32.4532 9.50521C32.3524 9.60202 32.216 9.65082 32.0444 9.65082C31.8724 9.65082 31.7344 9.60202 31.63 9.50521C31.5252 9.40801 31.4732 9.27721 31.4732 9.11281V2.17761C31.4732 2.01361 31.5272 1.88281 31.6356 1.78561C31.7436 1.68841 31.8836 1.64001 32.0556 1.64001C32.2196 1.64001 32.3524 1.68681 32.4532 1.78001C32.554 1.87361 32.6044 1.99841 32.6044 2.15521V4.95641C32.7817 4.65128 33.0419 4.40262 33.3548 4.23921C33.6684 4.07521 34.0268 3.99281 34.43 3.99281C35.7292 3.99281 36.3788 4.72841 36.3788 6.20001V9.11281C36.3788 9.27721 36.3264 9.40801 36.222 9.50521C36.1172 9.60202 35.9792 9.65082 35.8076 9.65082ZM29.2164 8.48561C29.362 8.65001 29.584 8.74321 29.8828 8.76561L30.1964 8.78801C30.3604 8.80321 30.478 8.84601 30.5492 8.91681C30.62 8.98801 30.6556 9.08681 30.6556 9.21361C30.6556 9.36321 30.5976 9.47721 30.482 9.55561C30.366 9.63401 30.1964 9.66562 29.9724 9.65082L29.67 9.62841C29.0652 9.58361 28.6132 9.39881 28.3148 9.07361C28.016 8.74881 27.8668 8.26881 27.8668 7.63401V5.00121H27.1948C26.866 5.00121 26.702 4.85561 26.702 4.56401C26.702 4.42961 26.7448 4.32322 26.8308 4.24481C26.9164 4.16641 27.038 4.12721 27.1948 4.12721H27.8668V2.97321C27.8668 2.80161 27.9172 2.66681 28.018 2.56961C28.1188 2.47281 28.2548 2.42401 28.4268 2.42401C28.5984 2.42401 28.7364 2.47281 28.8412 2.56961C28.9456 2.66681 28.998 2.80161 28.998 2.97321V4.12721H30.1068C30.2636 4.12721 30.3848 4.16641 30.4708 4.24481C30.5564 4.32322 30.5996 4.42961 30.5996 4.56401C30.5996 4.70601 30.5564 4.81441 30.4708 4.88921C30.3848 4.96361 30.2636 5.00121 30.1068 5.00121H28.998V7.71241C28.998 8.06361 29.0708 8.32121 29.2164 8.48561ZM25.9292 7.05121H22.4684C22.5428 8.20921 23.0992 8.78801 24.1372 8.78801C24.4132 8.78801 24.6524 8.75081 24.854 8.67601C25.0731 8.5934 25.2863 8.49611 25.4924 8.38481C25.5523 8.34997 25.614 8.31819 25.6772 8.28962C25.778 8.24082 25.862 8.21681 25.9292 8.21681C26.0336 8.21681 26.1196 8.25761 26.1868 8.34001C26.254 8.42201 26.2876 8.52681 26.2876 8.65361C26.2876 8.87041 26.1532 9.05322 25.8844 9.20241C25.6152 9.35518 25.3271 9.47203 25.0276 9.55001C24.7373 9.62938 24.438 9.6708 24.1372 9.67321C23.2708 9.67321 22.5876 9.42121 22.0876 8.91681C21.5872 8.41281 21.3372 7.72361 21.3372 6.84961C21.3372 6.28961 21.4472 5.79281 21.6676 5.35961C21.8876 4.92641 22.1976 4.59041 22.5972 4.35121C22.9964 4.11241 23.45 3.99281 23.958 3.99281C24.6896 3.99281 25.2684 4.22801 25.694 4.69841C26.1196 5.16921 26.3324 5.80401 26.3324 6.60321C26.3324 6.90201 26.198 7.05121 25.9292 7.05121ZM24.9716 5.23081C24.7364 4.95801 24.406 4.82201 23.9804 4.82201C23.5472 4.82201 23.2 4.96001 22.9388 5.23641C22.6772 5.51281 22.5204 5.90121 22.4684 6.40161H25.358C25.3356 5.89361 25.2068 5.50361 24.9716 5.23081ZM22.6364 15.5512C23.0468 15.3124 23.5172 15.1928 24.0476 15.1928C24.3312 15.1928 24.6168 15.234 24.9044 15.316C25.1748 15.391 25.4331 15.5041 25.6716 15.652C25.9104 15.8164 26.03 16.0068 26.03 16.2236C26.03 16.3504 25.9964 16.4568 25.9292 16.5428C25.8997 16.5833 25.8609 16.6162 25.816 16.6386C25.7712 16.661 25.7217 16.6723 25.6716 16.6716C25.6044 16.6716 25.5372 16.6548 25.47 16.6212C25.3815 16.5753 25.2956 16.5248 25.2124 16.47C25.0479 16.3622 24.8735 16.2703 24.6916 16.1956C24.5308 16.132 24.3388 16.1004 24.1148 16.1004C23.6068 16.1004 23.2132 16.272 22.9332 16.6156C22.6532 16.9592 22.5132 17.4372 22.5132 18.0496C22.5132 18.6624 22.6512 19.1348 22.9276 19.4672C23.2036 19.7996 23.5956 19.9656 24.1036 19.9656C24.3276 19.9656 24.5252 19.932 24.6972 19.8648C24.8805 19.7917 25.0568 19.7017 25.2236 19.596C25.3056 19.5436 25.3876 19.4988 25.47 19.4616C25.552 19.424 25.6268 19.4056 25.694 19.4056C25.7984 19.4056 25.8844 19.4484 25.9516 19.5344C26.0188 19.62 26.0524 19.7268 26.0524 19.8536C26.0524 19.9584 26.0244 20.0536 25.9684 20.1392C25.9124 20.2252 25.8172 20.3128 25.6828 20.4028C25.4416 20.5596 25.1769 20.6768 24.8988 20.75C24.6033 20.8316 24.2981 20.8731 23.9916 20.8732C23.4612 20.8732 22.9964 20.7576 22.5972 20.526C22.1976 20.2944 21.8876 19.9656 21.6676 19.54C21.4472 19.114 21.3372 18.6212 21.3372 18.0608C21.3372 17.4936 21.4508 16.9928 21.6788 16.5596C21.8948 16.1387 22.2271 15.7887 22.6364 15.5512ZM30.0952 12.84C30.2596 12.84 30.394 12.8864 30.4984 12.98C30.6032 13.0732 30.6552 13.2096 30.6552 13.3888V20.3128C30.6552 20.4924 30.6032 20.6268 30.4984 20.7164C30.394 20.806 30.2596 20.8508 30.0952 20.8508C29.9312 20.8508 29.7948 20.806 29.6864 20.7164C29.578 20.6268 29.524 20.4924 29.524 20.3128V13.3888C29.524 13.2096 29.578 13.0732 29.6864 12.98C29.7948 12.8864 29.9312 12.84 30.0952 12.84ZM59.45 15.2152C59.6144 15.2152 59.7488 15.262 59.8532 15.3552C59.958 15.4488 60.01 15.5848 60.01 15.764V20.3128C60.01 20.4924 59.958 20.6268 59.8532 20.7164C59.7488 20.806 59.6144 20.8508 59.45 20.8508C59.286 20.8508 59.1496 20.806 59.0412 20.7164C58.9332 20.6268 58.8788 20.4924 58.8788 20.3128V15.764C58.8788 15.5848 58.9332 15.4488 59.0412 15.3552C59.1496 15.262 59.286 15.2152 59.45 15.2152Z" fill="white"/>
</g>
<defs>
<clipPath id="clip0_10771_6184">
<rect width="68.8" height="24" fill="white"/>
</clipPath>
</defs>
</svg>
