<svg width="85" height="24" viewBox="0 0 85 24" fill="none" xmlns="http://www.w3.org/2000/svg">
<g clip-path="url(#clip0_11699_34023)">
<path d="M12.1851 9.39641C11.9285 9.39641 11.6714 9.29822 11.4756 9.1024C11.0834 8.71075 11.0834 8.075 11.4756 7.68335L14.0707 5.08826C14.4623 4.69661 15.0981 4.69661 15.4897 5.08826C15.8819 5.47991 15.8819 6.11567 15.4897 6.50731L12.8946 9.1024C12.6988 9.29822 12.4417 9.39641 12.1851 9.39641Z" fill="#38FF9C"/>
<path d="M10.3038 20.6072C4.62222 20.6072 0 15.9849 0 10.3038C0 4.62276 4.62222 0 10.3038 0C15.9855 0 20.6077 4.62222 20.6077 10.3038C20.6077 15.9855 15.9855 20.6077 10.3038 20.6077V20.6072ZM10.3038 2.00707C5.72936 2.00707 2.00707 5.72882 2.00707 10.3038C2.00707 14.8789 5.72882 18.6006 10.3038 18.6006C14.8789 18.6006 18.6006 14.8789 18.6006 10.3038C18.6006 5.72882 14.8783 2.00707 10.3038 2.00707Z" fill="#38FF9C"/>
<path d="M5.827 15.7343C5.57042 15.7343 5.3133 15.6361 5.11747 15.4403C4.72582 15.0486 4.72528 14.4129 5.11747 14.0212L7.71255 11.4261C8.1042 11.0345 8.73996 11.0339 9.13161 11.4261C9.52325 11.8183 9.5238 12.4535 9.13161 12.8452L6.53652 15.4403C6.3407 15.6361 6.08358 15.7343 5.827 15.7343Z" fill="#38FF9C"/>
<path d="M10.0793 6.69137C8.28538 6.81993 6.83486 8.26285 6.71335 10.0578C6.70684 10.1549 6.66453 10.2466 6.5951 10.3155L5.13754 11.7752C5.05508 11.8582 4.91242 11.8208 4.88258 11.7074C4.76433 11.2556 4.6911 10.7706 4.6911 10.2884C4.6911 7.18554 7.21512 4.66152 10.3179 4.66152C10.8235 4.66152 11.3139 4.72879 11.7804 4.85409C11.8748 4.87959 11.9057 4.99784 11.8368 5.06727L10.3304 6.57474C10.2632 6.64201 10.1742 6.68378 10.0793 6.69083V6.69137Z" fill="#38FF9C"/>
<path d="M13.9979 10.2517L15.5054 8.74535C15.5743 8.67646 15.6931 8.70737 15.7186 8.80176C15.8444 9.26827 15.9112 9.75864 15.9112 10.2642C15.9112 13.367 13.3871 15.891 10.2843 15.891C9.80263 15.891 9.31768 15.8178 8.86528 15.6996C8.7519 15.6697 8.71502 15.5276 8.79747 15.4446L10.2572 13.987C10.3261 13.9182 10.4178 13.8758 10.5149 13.8688C12.3104 13.7473 13.7528 12.2968 13.8813 10.5029C13.8884 10.408 13.9301 10.319 13.9974 10.2517H13.9979Z" fill="#38FF9C"/>
<path d="M24.7308 15.5983V5.42197H31.5879V7.19579H26.8822V9.62054H31.2348V11.3944H26.8822V13.824H31.6075V15.5978H24.7303L24.7308 15.5983Z" fill="white"/>
<path d="M36.642 7.96607V9.55599H32.0458V7.96607H36.642ZM33.0889 6.13747H35.2055V13.2528C35.2055 13.4481 35.2354 13.6 35.295 13.7074C35.3547 13.8153 35.4383 13.8907 35.5462 13.9336C35.6536 13.9764 35.7789 13.9981 35.9216 13.9981C36.0208 13.9981 36.1201 13.9889 36.2199 13.971C36.3192 13.9531 36.3957 13.9384 36.4483 13.9287L36.7814 15.504C36.675 15.537 36.5264 15.5761 36.3344 15.6206C36.1424 15.6651 35.9086 15.6927 35.6335 15.7025C35.1231 15.7226 34.6772 15.6542 34.2942 15.4985C33.9118 15.3429 33.614 15.1009 33.4024 14.7733C33.1903 14.4451 33.0862 14.0312 33.0894 13.5311V6.13747H33.0889Z" fill="white"/>
<path d="M39.8832 11.1861V15.5983H37.7665V5.42197H39.8235V9.31243H39.913C40.085 8.86219 40.3632 8.50852 40.7478 8.25139C41.1319 7.99482 41.6141 7.86626 42.194 7.86626C42.724 7.86626 43.1867 7.98125 43.5827 8.2118C43.9787 8.44234 44.2868 8.77161 44.507 9.20068C44.7272 9.62976 44.8357 10.1424 44.8325 10.7385V15.5983H42.7158V11.1161C42.7191 10.6458 42.6008 10.2796 42.3605 10.0182C42.1202 9.75669 41.785 9.62542 41.3543 9.62542C41.0663 9.62542 40.8118 9.68672 40.5916 9.80931C40.3714 9.93191 40.1989 10.1098 40.0747 10.3436C39.9504 10.5774 39.8864 10.8579 39.8832 11.1861Z" fill="white"/>
<path d="M49.8263 15.7473C49.0413 15.7473 48.366 15.5873 47.8013 15.2678C47.2366 14.9483 46.8015 14.4943 46.4967 13.9063C46.1918 13.3182 46.0394 12.6217 46.0394 11.8167C46.0394 11.0117 46.1918 10.3429 46.4967 9.74947C46.8015 9.15657 47.2312 8.6944 47.7861 8.36296C48.341 8.03153 48.9925 7.86608 49.7416 7.86608C50.245 7.86608 50.7148 7.94636 51.1504 8.10693C51.586 8.26749 51.9668 8.50888 52.2933 8.83001C52.6193 9.15114 52.8737 9.55473 53.056 10.0402C53.2383 10.5257 53.3294 11.0931 53.3294 11.7419V12.3234H46.8845V11.0117H51.337C51.337 10.7069 51.2708 10.4373 51.1384 10.2019C51.0061 9.96699 50.8227 9.78201 50.5895 9.64803C50.3562 9.51404 50.085 9.44678 49.7769 9.44678C49.4688 9.44678 49.1715 9.52055 48.9247 9.6681C48.6779 9.81565 48.4848 10.0126 48.3459 10.2594C48.2065 10.5062 48.1354 10.7801 48.1322 11.0817V12.3288C48.1322 12.7064 48.2027 13.0329 48.3432 13.3079C48.4842 13.583 48.6839 13.7951 48.9421 13.9437C49.2003 14.0929 49.5068 14.1672 49.8615 14.1672C50.0969 14.1672 50.3117 14.1341 50.5076 14.0679C50.7029 14.0017 50.8705 13.9025 51.0093 13.7696C51.1488 13.6372 51.2545 13.475 51.3272 13.2824L53.2849 13.4115C53.1857 13.8819 52.9828 14.2919 52.6763 14.6413C52.3698 14.9906 51.9754 15.2624 51.4937 15.456C51.0121 15.6497 50.456 15.7468 49.8268 15.7468L49.8263 15.7473Z" fill="white"/>
<path d="M54.5863 15.5982V7.96589H56.6383V9.29761H56.7181C56.857 8.82405 57.0908 8.46549 57.4189 8.22193C57.7466 7.97837 58.1247 7.85686 58.5516 7.85686C58.6573 7.85686 58.7718 7.86337 58.8944 7.87693C59.017 7.89049 59.1244 7.90839 59.2177 7.93172V9.81022C59.1184 9.78039 58.9807 9.75381 58.8054 9.73048C58.6297 9.70716 58.4691 9.69577 58.3237 9.69577C58.0124 9.69577 57.7346 9.76303 57.4916 9.89702C57.2481 10.031 57.056 10.2176 56.915 10.4563C56.774 10.695 56.704 10.97 56.704 11.2814V15.5993H54.5873L54.5863 15.5982Z" fill="white"/>
<path d="M62.3031 5.42197V15.5983H60.1865V5.42197H62.3031Z" fill="white"/>
<path d="M63.8773 15.5982V7.96588H65.994V15.5982H63.8773Z" fill="white"/>
<path d="M69.6816 15.5982H67.5649V7.96589H69.5823V9.31225H69.6718C69.8405 8.86853 70.1242 8.51648 70.5213 8.2561C70.9189 7.99627 71.4006 7.86608 71.9674 7.86608C72.4974 7.86608 72.9596 7.98216 73.3539 8.21379C73.7483 8.44596 74.0548 8.77631 74.2734 9.20485C74.492 9.63392 74.601 10.1449 74.601 10.7378V15.5976H72.4844V11.1154C72.4877 10.6483 72.3683 10.2832 72.1264 10.0196C71.8845 9.75652 71.5514 9.6247 71.1277 9.6247C70.8429 9.6247 70.5918 9.686 70.3748 9.80859C70.1578 9.93119 69.9886 10.1091 69.8682 10.3429C69.7472 10.5767 69.6848 10.8572 69.6816 11.1853V15.5982Z" fill="white"/>
<path d="M76.1253 15.5983V5.42197H78.2419V15.5983H76.1253ZM78.0434 13.402L78.0483 10.8628H78.3564L80.8012 7.96607H83.2308L79.9463 11.8023H79.4445L78.0434 13.4025V13.402ZM80.8956 15.5983L78.6498 12.2742L80.0613 10.7787L83.3757 15.5983H80.8956Z" fill="white"/>
<path d="M64.9362 7.00954C65.5297 7.00954 66.0108 6.52843 66.0108 5.93495C66.0108 5.34146 65.5297 4.86035 64.9362 4.86035C64.3427 4.86035 63.8616 5.34146 63.8616 5.93495C63.8616 6.52843 64.3427 7.00954 64.9362 7.00954Z" fill="white"/>
<path d="M58.2538 22.6664V17.9245H61.449V18.7511H59.2564V19.881H61.2846V20.7076H59.2564V21.8398H61.4583V22.6664H58.2538Z" fill="#38FF9C"/>
<path d="M62.9214 19.11L63.5744 20.3533L64.2435 19.11H65.2553L64.225 20.8882L65.2831 22.6664H64.2759L63.5744 21.4369L62.8844 22.6664H61.8656L62.9214 20.8882L61.9027 19.11H62.9214Z" fill="#38FF9C"/>
<path d="M65.7107 24V19.11H66.6832V19.7073H66.7271C66.7704 19.6116 66.8329 19.5144 66.9147 19.4156C66.998 19.3153 67.1061 19.2319 67.2388 19.1655C67.3731 19.0976 67.5398 19.0637 67.739 19.0637C67.9983 19.0637 68.2375 19.1316 68.4567 19.2674C68.6759 19.4017 68.8511 19.6047 68.9823 19.8764C69.1135 20.1465 69.1791 20.4853 69.1791 20.8928C69.1791 21.2895 69.1151 21.6244 68.9869 21.8977C68.8604 22.1693 68.6875 22.3754 68.4683 22.5159C68.2506 22.6548 68.0068 22.7242 67.7366 22.7242C67.5452 22.7242 67.3824 22.6926 67.2481 22.6293C67.1154 22.566 67.0065 22.4865 66.9216 22.3908C66.8367 22.2936 66.7719 22.1956 66.7271 22.0968H66.697V24H65.7107ZM66.6762 20.8882C66.6762 21.0996 66.7055 21.2841 66.7642 21.4415C66.8228 21.599 66.9077 21.7217 67.0189 21.8097C67.13 21.8961 67.2651 21.9393 67.4241 21.9393C67.5846 21.9393 67.7204 21.8953 67.8316 21.8074C67.9427 21.7178 68.0268 21.5943 68.0839 21.4369C68.1426 21.2779 68.1719 21.095 68.1719 20.8882C68.1719 20.6829 68.1434 20.5023 68.0863 20.3464C68.0291 20.1905 67.945 20.0685 67.8339 19.9805C67.7227 19.8926 67.5861 19.8486 67.4241 19.8486C67.2635 19.8486 67.1277 19.891 67.0166 19.9759C66.907 20.0608 66.8228 20.1812 66.7642 20.3371C66.7055 20.493 66.6762 20.6767 66.6762 20.8882Z" fill="#38FF9C"/>
<path d="M70.6926 17.9245V22.6664H69.7063V17.9245H70.6926Z" fill="#38FF9C"/>
<path d="M72.9592 22.7358C72.5995 22.7358 72.2885 22.6594 72.0261 22.5066C71.7652 22.3522 71.5638 22.1377 71.4218 21.8629C71.2798 21.5866 71.2088 21.2663 71.2088 20.9021C71.2088 20.5347 71.2798 20.2136 71.4218 19.9389C71.5638 19.6626 71.7652 19.448 72.0261 19.2952C72.2885 19.1408 72.5995 19.0637 72.9592 19.0637C73.3188 19.0637 73.6291 19.1408 73.89 19.2952C74.1524 19.448 74.3546 19.6626 74.4966 19.9389C74.6386 20.2136 74.7096 20.5347 74.7096 20.9021C74.7096 21.2663 74.6386 21.5866 74.4966 21.8629C74.3546 22.1377 74.1524 22.3522 73.89 22.5066C73.6291 22.6594 73.3188 22.7358 72.9592 22.7358ZM72.9638 21.9717C73.1274 21.9717 73.264 21.9254 73.3736 21.8328C73.4832 21.7387 73.5658 21.6106 73.6214 21.4485C73.6785 21.2864 73.707 21.1019 73.707 20.8951C73.707 20.6883 73.6785 20.5038 73.6214 20.3417C73.5658 20.1797 73.4832 20.0515 73.3736 19.9574C73.264 19.8632 73.1274 19.8161 72.9638 19.8161C72.7987 19.8161 72.6597 19.8632 72.547 19.9574C72.4359 20.0515 72.3518 20.1797 72.2947 20.3417C72.2391 20.5038 72.2113 20.6883 72.2113 20.8951C72.2113 21.1019 72.2391 21.2864 72.2947 21.4485C72.3518 21.6106 72.4359 21.7387 72.547 21.8328C72.6597 21.9254 72.7987 21.9717 72.9638 21.9717Z" fill="#38FF9C"/>
<path d="M75.2205 22.6664V19.11H76.1768V19.7305H76.2138C76.2787 19.5098 76.3875 19.343 76.5403 19.2304C76.6931 19.1161 76.8691 19.059 77.0682 19.059C77.1176 19.059 77.1708 19.0621 77.228 19.0683C77.2851 19.0745 77.3352 19.083 77.3785 19.0938V19.969C77.3322 19.9551 77.2681 19.9427 77.1863 19.9319C77.1045 19.9211 77.0296 19.9157 76.9617 19.9157C76.8166 19.9157 76.6869 19.9474 76.5727 20.0106C76.46 20.0724 76.3705 20.1588 76.3041 20.27C76.2393 20.3811 76.2069 20.5092 76.2069 20.6543V22.6664H75.2205Z" fill="#38FF9C"/>
<path d="M79.2132 22.7358C78.8474 22.7358 78.5325 22.6617 78.2686 22.5135C78.0061 22.3638 77.8039 22.1523 77.6619 21.8791C77.5199 21.6044 77.4489 21.2795 77.4489 20.9044C77.4489 20.5385 77.5199 20.2175 77.6619 19.9412C77.8039 19.6649 78.0038 19.4496 78.2616 19.2952C78.5209 19.1408 78.825 19.0637 79.1739 19.0637C79.4085 19.0637 79.6269 19.1015 79.8291 19.1771C80.0329 19.2512 80.2104 19.3631 80.3616 19.5128C80.5144 19.6626 80.6333 19.8509 80.7182 20.0778C80.8031 20.3031 80.8455 20.5671 80.8455 20.8696V21.1405H77.8425V20.5293H79.9171C79.9171 20.3873 79.8862 20.2615 79.8245 20.1519C79.7627 20.0423 79.6771 19.9566 79.5675 19.8949C79.4594 19.8316 79.3336 19.7999 79.1901 19.7999C79.0403 19.7999 78.9076 19.8347 78.7918 19.9041C78.6776 19.9721 78.5881 20.0639 78.5232 20.1797C78.4584 20.2939 78.4252 20.4212 78.4237 20.5617V21.1428C78.4237 21.3188 78.4561 21.4709 78.5209 21.599C78.5873 21.7271 78.6807 21.8259 78.8011 21.8953C78.9215 21.9648 79.0643 21.9995 79.2294 21.9995C79.339 21.9995 79.4394 21.9841 79.5304 21.9532C79.6215 21.9224 79.6994 21.876 79.7643 21.8143C79.8291 21.7526 79.8785 21.6769 79.9125 21.5874L80.8247 21.6476C80.7784 21.8668 80.6835 22.0582 80.5399 22.2218C80.3979 22.3839 80.2142 22.5105 79.9889 22.6015C79.765 22.6911 79.5065 22.7358 79.2132 22.7358Z" fill="#38FF9C"/>
<path d="M81.3588 22.6664V19.11H82.315V19.7305H82.3521C82.4169 19.5098 82.5257 19.343 82.6786 19.2304C82.8314 19.1161 83.0073 19.059 83.2065 19.059C83.2559 19.059 83.3091 19.0621 83.3662 19.0683C83.4233 19.0745 83.4735 19.083 83.5167 19.0938V19.969C83.4704 19.9551 83.4064 19.9427 83.3245 19.9319C83.2427 19.9211 83.1679 19.9157 83.1 19.9157C82.9549 19.9157 82.8252 19.9474 82.711 20.0106C82.5983 20.0724 82.5088 20.1588 82.4424 20.27C82.3776 20.3811 82.3451 20.5092 82.3451 20.6543V22.6664H81.3588Z" fill="#38FF9C"/>
</g>
<defs>
<clipPath id="clip0_11699_34023">
<rect width="85" height="24" fill="white"/>
</clipPath>
</defs>
</svg>
