<svg width="94" height="24" viewBox="0 0 94 24" fill="none" xmlns="http://www.w3.org/2000/svg">
<g clip-path="url(#clip0_11220_6286)">
<path d="M86.9496 15.1779L86.9439 12.769H87.2737L90.4121 9.36801H92.8171L88.9566 13.5352H88.5302L86.9496 15.1779ZM85.0734 17.8347V6.54578H87.1315V17.8347H85.0734ZM90.5543 17.8347L87.7115 13.9817L89.0988 12.5761L93.0161 17.8347H90.5543Z" fill="#101112"/>
<path d="M77.7752 12.8736V17.8345H75.717V9.36781H77.6843V10.8065H77.7866C77.9875 10.3324 78.3078 9.95578 78.7475 9.67649C79.1909 9.39721 79.7387 9.25757 80.3906 9.25757C80.9933 9.25757 81.5182 9.38251 81.9655 9.6324C82.4166 9.88228 82.7653 10.2442 83.0117 10.7183C83.2618 11.1923 83.385 11.7674 83.3812 12.4436V17.8345H81.323V12.7523C81.323 12.1864 81.1714 11.7436 80.8682 11.4239C80.5688 11.1041 80.1537 10.9443 79.623 10.9443C79.263 10.9443 78.9427 11.0215 78.6622 11.1758C78.3855 11.3265 78.1675 11.5451 78.0083 11.8318C77.8529 12.1184 77.7752 12.4657 77.7752 12.8736Z" fill="#101112"/>
<path d="M71.9428 17.8347V9.36794H74.001V17.8347H71.9428ZM72.9775 8.16629C72.6516 8.16629 72.3711 8.06156 72.1361 7.85209C71.9011 7.63896 71.7836 7.38356 71.7836 7.0859C71.7836 6.78457 71.9011 6.52917 72.1361 6.31971C72.3711 6.10657 72.6516 6 72.9775 6C73.3073 6 73.5878 6.10657 73.819 6.31971C74.054 6.52917 74.1715 6.78457 74.1715 7.0859C74.1715 7.38356 74.054 7.63896 73.819 7.85209C73.5878 8.06156 73.3073 8.16629 72.9775 8.16629Z" fill="#101112"/>
<path d="M70.2265 6.54578V17.8347H68.1683V6.54578H70.2265Z" fill="#101112"/>
<path d="M62.2207 17.8347V9.36797H64.2163V10.7791H64.3073C64.4665 10.2903 64.7394 9.91368 65.126 9.64909C65.5165 9.38083 65.9618 9.2467 66.4622 9.2467C66.5759 9.2467 66.7028 9.25222 66.8431 9.26324C66.9871 9.27059 67.1065 9.28345 67.2013 9.30183V11.1374C67.1141 11.108 66.9758 11.0823 66.7862 11.0602C66.6005 11.0345 66.4205 11.0216 66.2461 11.0216C65.8709 11.0216 65.5335 11.1006 65.2341 11.2587C64.9384 11.413 64.7053 11.628 64.5347 11.9036C64.3642 12.1792 64.2789 12.4971 64.2789 12.8572V17.8347H62.2207Z" fill="#101112"/>
<path d="M56.9966 17.9999C56.121 17.9999 55.3648 17.8235 54.728 17.4707C54.095 17.1143 53.608 16.6108 53.2668 15.9604C52.9257 15.3063 52.7551 14.5364 52.7551 13.6508C52.7551 12.7799 52.9257 12.0155 53.2668 11.3577C53.6118 10.6962 54.0931 10.1818 54.711 9.8143C55.3288 9.44315 56.0547 9.25757 56.8886 9.25757C57.4268 9.25757 57.9347 9.34209 58.4123 9.51113C58.8937 9.67649 59.3182 9.93373 59.6859 10.2828C60.0573 10.6319 60.3492 11.0766 60.5615 11.6168C60.7737 12.1533 60.8798 12.7927 60.8798 13.535V14.1469H53.7217V12.8019H58.9069C58.9032 12.4197 58.8179 12.0798 58.6511 11.7821C58.4843 11.4808 58.2512 11.2438 57.9518 11.0711C57.6561 10.8984 57.3112 10.812 56.917 10.812C56.4963 10.812 56.1267 10.9112 55.8083 11.1097C55.4899 11.3044 55.2416 11.5617 55.0635 11.8814C54.8891 12.1974 54.8 12.5447 54.7963 12.9232V14.0973C54.7963 14.5897 54.8891 15.0123 55.0749 15.3651C55.2606 15.7142 55.5202 15.9824 55.8538 16.1698C56.1873 16.3536 56.5777 16.4455 57.025 16.4455C57.3245 16.4455 57.5955 16.405 57.8381 16.3242C58.0806 16.2397 58.291 16.1166 58.4692 15.9549C58.6473 15.7932 58.7819 15.5929 58.8728 15.354L60.7946 15.5635C60.6733 16.0559 60.4421 16.4859 60.1009 16.8534C59.7636 17.2172 59.3315 17.5001 58.8046 17.7022C58.2777 17.9007 57.6751 17.9999 56.9966 17.9999Z" fill="#101112"/>
<path d="M45.7697 12.8738V17.8347H43.7115V6.54578H45.7243V10.8067H45.8266C46.0313 10.329 46.3478 9.9523 46.7761 9.6767C47.2082 9.39741 47.7578 9.25777 48.4249 9.25777C49.0314 9.25777 49.5601 9.38088 50.0112 9.62709C50.4622 9.8733 50.811 10.2334 51.0573 10.7075C51.3075 11.1815 51.4326 11.7603 51.4326 12.4438V17.8347H49.3744V12.7525C49.3744 12.1829 49.2228 11.7401 48.9196 11.4241C48.6201 11.1044 48.1994 10.9445 47.6574 10.9445C47.2935 10.9445 46.9675 11.0217 46.6794 11.176C46.3952 11.3267 46.1715 11.5453 46.0085 11.832C45.8493 12.1186 45.7697 12.4659 45.7697 12.8738Z" fill="#101112"/>
<path d="M42.2028 9.36784V10.9112H37.1824V9.36784H42.2028ZM38.4218 7.33936H40.48V15.2879C40.48 15.5562 40.5217 15.762 40.6051 15.9053C40.6923 16.0449 40.806 16.1405 40.9462 16.1919C41.0865 16.2434 41.2419 16.2691 41.4125 16.2691C41.5413 16.2691 41.6588 16.2599 41.765 16.2415C41.8749 16.2232 41.9583 16.2066 42.0151 16.1919L42.362 17.7519C42.252 17.7886 42.0947 17.829 41.89 17.8731C41.6892 17.9172 41.4428 17.943 41.1509 17.9503C40.6354 17.965 40.1711 17.8897 39.7579 17.7243C39.3448 17.5553 39.0169 17.2944 38.7743 16.9416C38.5355 16.5888 38.418 16.1478 38.4218 15.6187V7.33936Z" fill="#101112"/>
<path d="M28.608 17.8347V6.54578H36.1812V8.26007H30.7174V11.3248H35.7889V13.0391H30.7174V16.1204H36.2267V17.8347H28.608Z" fill="#101112"/>
<g clip-path="url(#clip1_11220_6286)">
<path d="M20.5873 20.2935C25.1546 15.564 25.023 8.02748 20.2935 3.46023C15.564 -1.10702 8.02743 -0.97547 3.46017 3.75406C-1.10708 8.48359 -0.97553 16.0201 3.754 20.5874C8.48353 25.1546 16.0201 25.0231 20.5873 20.2935Z" fill="#B6FEDA"/>
<path d="M19.0117 18.7719C22.7386 14.9126 22.6312 8.76279 18.7719 5.03592C14.9126 1.30904 8.76283 1.41638 5.03595 5.27568C1.30907 9.13497 1.41642 15.2848 5.27571 19.0117C9.13501 22.7385 15.2848 22.6312 19.0117 18.7719Z" fill="#171717"/>
<path fill-rule="evenodd" clip-rule="evenodd" d="M17.8344 9.16008C19.0081 11.5417 18.6329 14.5027 16.6824 16.5226C14.7319 18.5424 11.7858 19.0206 9.36459 17.9308L11.1174 16.1157C12.4926 16.4189 13.9883 16.022 15.0382 14.9347C16.0881 13.8475 16.4326 12.3389 16.0816 10.9752L17.8344 9.16008ZM14.683 6.1168L12.9302 7.93189C11.555 7.6287 10.0594 8.0256 9.00945 9.11284C7.9595 10.2001 7.61502 11.7087 7.96602 13.0724L6.21321 14.8875C5.03954 12.5058 5.41469 9.54489 7.36521 7.52503C9.31573 5.50522 12.2618 5.02699 14.683 6.1168Z" fill="#B6FEDA"/>
<path fill-rule="evenodd" clip-rule="evenodd" d="M6.03426 16.1696C5.48616 16.7372 5.50197 17.6415 6.0695 18.1896C6.63702 18.7377 7.5414 18.7219 8.0895 18.1544L10.802 15.3455C11.35 14.7779 11.3343 13.8735 10.7667 13.3255C10.1992 12.7774 9.29478 12.7932 8.74673 13.3607L6.03426 16.1696ZM13.1793 8.77069C12.6312 9.33821 12.647 10.2426 13.2145 10.7907C13.7821 11.3387 14.6865 11.323 15.2345 10.7554L17.947 7.94659C18.4951 7.37902 18.4793 6.47464 17.9118 5.92659C17.3442 5.3785 16.4398 5.39431 15.8918 5.96183L13.1793 8.77069Z" fill="#B6FEDA"/>
</g>
</g>
<defs>
<clipPath id="clip0_11220_6286">
<rect width="94" height="24" fill="white"/>
</clipPath>
<clipPath id="clip1_11220_6286">
<rect width="24" height="24" fill="white"/>
</clipPath>
</defs>
</svg>
