<svg xmlns="http://www.w3.org/2000/svg" fill="none" viewBox="0 0 145 24">
  <g clip-path="url(#flow-dark_svg__a)">
    <mask id="flow-dark_svg__b" width="24" height="24" x="0" y="0" maskUnits="userSpaceOnUse" style="mask-type:luminance">
      <path fill="#fff" d="M24 0H0v24h24V0Z"/>
    </mask>
    <g mask="url(#flow-dark_svg__b)">
      <path fill="#00EF8B" d="M11.94 23.84c6.572 0 11.9-5.328 11.9-11.9S18.512.04 11.94.04.04 5.368.04 11.94s5.328 11.9 11.9 11.9Z"/>
      <path fill="#fff" d="M17.14 10.052h-3.364v3.362h3.363v-3.362Z"/>
      <path fill="#fff" d="M10.418 14.673a1.262 1.262 0 1 1-1.262-1.261h1.262v-3.36H9.156a4.625 4.625 0 0 0-4.534 5.523 4.621 4.621 0 0 0 6.303 3.368 4.623 4.623 0 0 0 2.854-4.27v-1.261h-3.36v1.261Z"/>
      <path fill="#fff" d="M15.037 8.372h3.783V5.01h-3.783a4.629 4.629 0 0 0-4.623 4.622v.421h3.361v-.421a1.261 1.261 0 0 1 1.262-1.26Z"/>
      <path fill="#00EF8B" d="M10.414 13.412h3.361v-3.36h-3.36v3.36Z"/>
    </g>
    <path fill="#F3FFFA" d="M98.855 7.95c.918 0 1.728.228 2.428.688.701.459 1.248 1.11 1.641 1.953s.59 1.837.59 2.983c0 1.155-.197 2.157-.59 3.004-.393.843-.938 1.496-1.634 1.96-.696.46-1.498.69-2.407.69-.7 0-1.262-.117-1.684-.35-.42-.236-.745-.503-.972-.8a10.755 10.755 0 0 1-.526-.754h-.142v5.767h-1.676v-15h1.619v1.733h.2c.122-.19.292-.43.51-.724.222-.299.54-.564.952-.796.417-.237.98-.355 1.69-.355ZM47.5 8.175c1.103 0 2.055.237 2.855.71a4.741 4.741 0 0 1 1.862 1.974c.435.843.653 1.829.653 2.955 0 1.118-.218 2.1-.653 2.948a4.8 4.8 0 0 1-1.861 1.974c-.8.469-1.753.703-2.856.703s-2.057-.234-2.861-.703a4.814 4.814 0 0 1-1.855-1.974c-.435-.848-.653-1.83-.653-2.948 0-1.127.218-2.112.653-2.955a4.755 4.755 0 0 1 1.855-1.973c.804-.474 1.758-.711 2.861-.711ZM34.462 4c.464 0 .887.035 1.27.106.389.071.678.135.868.192l-.54 2.273a3.789 3.789 0 0 0-.44-.106 2.746 2.746 0 0 0-.526-.05c-.445 0-.756.104-.93.313-.176.203-.264.49-.264.859v.731h2.174v2.273H33.9v8.636h-3.018v-8.636H29.34V8.318h1.54V7.53c0-.79.155-1.447.463-1.968.312-.52.738-.911 1.278-1.171S33.775 4 34.462 4Zm6.086 15.227h-3.026V4.682h3.026v14.545Zm17.55-3.58h.1l1.761-7.329h3.005l1.789 7.287h.093l1.662-7.287h3.053L66.6 19.228h-3.203l-1.875-6.862h-.135l-1.875 6.861h-3.197L53.347 8.318h3.061l1.69 7.33Zm18.84-7.698c.568 0 1.13.095 1.683.284.554.19 1.058.497 1.513.923.454.422.816.98 1.086 1.676.27.696.405 1.553.405 2.571v.71h-7.922c.024.726.164 1.349.422 1.868a3.074 3.074 0 0 0 1.2 1.3c.512.294 1.106.44 1.783.44.44 0 .838-.06 1.193-.184.36-.128.67-.317.93-.568.26-.256.462-.574.604-.952l1.62.455a3.593 3.593 0 0 1-.86 1.449 4.19 4.19 0 0 1-1.492.966c-.591.227-1.256.34-1.995.34-1.05 0-1.958-.232-2.72-.696-.758-.468-1.342-1.122-1.754-1.96-.407-.843-.612-1.823-.612-2.94 0-1.118.205-2.103.612-2.955.412-.857.985-1.525 1.719-2.003.738-.483 1.6-.724 2.585-.724Zm37.51 0c.985 0 1.847.235 2.585.703.743.47 1.322 1.127 1.734 1.974.416.848.625 1.84.625 2.976 0 1.127-.209 2.112-.625 2.955-.412.842-.99 1.499-1.734 1.967-.738.47-1.6.703-2.585.703-.985 0-1.849-.234-2.593-.703-.738-.468-1.315-1.125-1.732-1.967-.412-.843-.618-1.828-.618-2.954 0-1.137.206-2.13.618-2.977.417-.847.994-1.505 1.732-1.974.744-.468 1.608-.703 2.593-.703Zm18.214 0c.568 0 1.13.095 1.684.284.554.19 1.058.497 1.512.923.455.422.817.98 1.087 1.676s.405 1.553.405 2.571v.71h-7.921c.024.726.163 1.349.421 1.868a3.066 3.066 0 0 0 1.201 1.3c.511.294 1.105.44 1.782.44.44 0 .838-.06 1.193-.184.36-.128.671-.317.931-.568a2.59 2.59 0 0 0 .604-.952l1.619.455a3.593 3.593 0 0 1-.86 1.449 4.182 4.182 0 0 1-1.491.966c-.592.227-1.257.34-1.996.34-1.051 0-1.957-.232-2.72-.696a4.677 4.677 0 0 1-1.755-1.96c-.407-.843-.61-1.823-.61-2.94 0-1.118.203-2.103.61-2.955.412-.857.985-1.525 1.719-2.003.739-.483 1.6-.724 2.585-.724Zm-45.316 4.602 2.613-4.46h1.932l-3.523 5.455L91.891 19h-1.932l-2.613-4.233L84.73 19H82.8l3.466-5.454L82.8 8.09h1.931l2.615 4.46Zm20 6.449h-1.676V4.455h1.676V19Zm19.239-11.072c.184.004.324.012.419.021v1.704a5.117 5.117 0 0 0-.391-.063 3.836 3.836 0 0 0-.632-.05c-.53 0-1.003.112-1.419.334-.412.218-.739.52-.981.908a2.45 2.45 0 0 0-.355 1.315V19h-1.676V8.09h1.619v1.648h.114c.199-.54.559-.977 1.079-1.313a3.18 3.18 0 0 1 1.762-.504c.123 0 .277.002.461.007Zm17.95 0c.185.004.324.012.419.021v1.704a5.047 5.047 0 0 0-.391-.063 3.83 3.83 0 0 0-.631-.05c-.531 0-1.005.111-1.421.334a2.52 2.52 0 0 0-.98.908 2.459 2.459 0 0 0-.355 1.315V19H139.5V8.09h1.619v1.648h.113c.199-.54.56-.977 1.08-1.313a3.179 3.179 0 0 1 1.761-.504c.123 0 .278.002.462.007Zm-45.88 1.526c-.681 0-1.255.173-1.719.519-.463.34-.814.819-1.05 1.434-.237.611-.356 1.325-.356 2.139 0 .824.121 1.55.363 2.18.241.625.594 1.115 1.058 1.47.464.35 1.032.526 1.704.526.7 0 1.285-.185 1.754-.554.474-.374.829-.876 1.066-1.506.241-.634.362-1.34.362-2.116 0-.767-.118-1.459-.355-2.074-.232-.62-.585-1.111-1.058-1.471-.469-.365-1.059-.547-1.769-.547Zm15.793 0c-.748 0-1.363.195-1.846.583a3.435 3.435 0 0 0-1.073 1.526 5.855 5.855 0 0 0-.348 2.04c0 .729.116 1.406.348 2.03.232.626.59 1.13 1.073 1.514.482.383 1.098.575 1.846.575s1.364-.192 1.847-.576c.483-.383.84-.887 1.072-1.512a5.792 5.792 0 0 0 .348-2.032c0-.729-.116-1.409-.348-2.039-.232-.629-.589-1.138-1.072-1.526-.483-.388-1.099-.583-1.847-.583Zm-66.933 1.03c-.507 0-.933.145-1.279.434-.34.289-.599.682-.774 1.179-.17.497-.256 1.063-.256 1.697 0 .634.085 1.2.256 1.697.175.497.433.891.774 1.18.346.284.772.426 1.279.426.501 0 .92-.142 1.257-.426.336-.289.589-.683.76-1.18.174-.497.263-1.063.263-1.697 0-.635-.089-1.2-.264-1.697-.17-.497-.423-.89-.76-1.179-.336-.289-.755-.434-1.256-.434Zm29.422-1.03c-.667 0-1.245.167-1.733.498a3.27 3.27 0 0 0-1.114 1.278c-.223.45-.35.929-.382 1.435h6.213c0-.615-.124-1.165-.37-1.648a2.784 2.784 0 0 0-1.036-1.143c-.445-.28-.971-.42-1.578-.42Zm55.725 0c-.667 0-1.245.167-1.732.498a3.277 3.277 0 0 0-1.116 1.278 3.73 3.73 0 0 0-.381 1.435h6.213c0-.615-.123-1.165-.37-1.648a2.777 2.777 0 0 0-1.037-1.143c-.445-.28-.971-.42-1.577-.42Z"/>
  </g>
  <defs>
    <clipPath id="flow-dark_svg__a">
      <path fill="#fff" d="M0 0h145v24H0z"/>
    </clipPath>
  </defs>
</svg>
