<svg width="117" height="24" viewBox="0 0 117 24" fill="none" xmlns="http://www.w3.org/2000/svg">
<g clip-path="url(#clip0_11786_15709)">
<path fill-rule="evenodd" clip-rule="evenodd" d="M0 24H24V11.9267H14.5386L17.99 18.5497H15.8046L11.2071 9.74125H23.9867V0H11.3404C5.07718 0 0 5.07718 0 11.3537V24ZM37.6591 24H50.3054V14.1788L37.5258 18.7762V16.5908L50.3054 11.9933V8.71516H37.5258V6.52971H50.3054V0H26.3054V12.6463C26.3054 18.9095 31.3826 24 37.6591 24ZM79.7157 15.2715H66.9361V0H90.9362V9.72793L78.1566 5.13048V7.31594L90.9362 11.9134V12.6463C90.9362 18.9228 85.8456 24 79.5825 24H66.9361V17.457H79.7157V15.2715ZM93.0016 0V11.9933H99.0383V23.9867H110.965V11.9933H117.002V11.3404C117.002 5.0905 111.911 0 105.648 0H93.0016ZM52.5575 24V11.3537C52.5575 5.07718 57.648 0 63.9111 0H64.6307V24H52.5575Z" fill="#FF36A0"/>
</g>
<defs>
<clipPath id="clip0_11786_15709">
<rect width="117" height="24" fill="white"/>
</clipPath>
</defs>
</svg>
