<?xml version="1.0" encoding="utf-8"?>
<!-- Generator: Adobe Illustrator 27.6.1, SVG Export Plug-In . SVG Version: 6.00 Build 0)  -->
<svg version="1.1" xmlns="http://www.w3.org/2000/svg" xmlns:xlink="http://www.w3.org/1999/xlink" x="0px" y="0px"
	 viewBox="0 0 116.2 38.4" style="enable-background:new 0 0 116.2 38.4;" xml:space="preserve">
<style type="text/css">
	.st0{clip-path:url(#SVGID_00000098912990910700381470000016577441882751302800_);}
	.st1{fill:#FB43FF;}
	.st2{fill:url(#SVGID_00000114035099825554042610000003555151391792311694_);}
	.st3{fill:url(#SVGID_00000172436557744989096480000011366986257469357192_);}
	.st4{fill:url(#SVGID_00000050644375230670185580000012153088632077221274_);}
	.st5{fill:url(#SVGID_00000115481132759835356090000014961914638199838390_);}
	.st6{fill:url(#SVGID_00000049915385522105631770000013817055657066742162_);}
	.st7{fill-rule:evenodd;clip-rule:evenodd;fill:#FFFFFF;}
</style>
<g id="Layer_2">
	<g>
		<defs>
			<path id="SVGID_1_" d="M19.9,3L19.9,3c8.7,0,15.8,7.1,15.8,15.8l0,0c0,8.7-7.1,15.8-15.8,15.8l0,0c-8.7,0-15.8-7.1-15.8-15.8l0,0
				C4.1,10.1,11.2,3,19.9,3z"/>
		</defs>
		<clipPath id="SVGID_00000131332510120521303090000004670272837644481460_">
			<use xlink:href="#SVGID_1_"  style="overflow:visible;"/>
		</clipPath>
		<g style="clip-path:url(#SVGID_00000131332510120521303090000004670272837644481460_);">
			<path class="st1" d="M19.9,3L19.9,3c8.7,0,15.8,7.1,15.8,15.8l0,0c0,8.7-7.1,15.8-15.8,15.8l0,0c-8.7,0-15.8-7.1-15.8-15.8l0,0
				C4.1,10.1,11.2,3,19.9,3z"/>
			
				<linearGradient id="SVGID_00000115514377416132922660000011929659238854013856_" gradientUnits="userSpaceOnUse" x1="12.5851" y1="32.241" x2="26.5883" y2="6.8099" gradientTransform="matrix(1 0 0 -1 0 37.7763)">
				<stop  offset="0" style="stop-color:#FF9FB2"/>
				<stop  offset="1" style="stop-color:#A3C9FF"/>
			</linearGradient>
			<path style="fill:url(#SVGID_00000115514377416132922660000011929659238854013856_);" d="M19.9,3L19.9,3
				c8.7,0,15.8,7.1,15.8,15.8l0,0c0,8.7-7.1,15.8-15.8,15.8l0,0c-8.7,0-15.8-7.1-15.8-15.8l0,0C4.1,10.1,11.2,3,19.9,3z"/>
			
				<linearGradient id="SVGID_00000065039178633370845000000009557008300099631290_" gradientUnits="userSpaceOnUse" x1="15.4484" y1="35.6854" x2="26.1351" y2="-4.4979" gradientTransform="matrix(1 0 0 -1 0 37.7763)">
				<stop  offset="0" style="stop-color:#FFD1A8"/>
				<stop  offset="0.9991" style="stop-color:#FF7284"/>
			</linearGradient>
			<path style="fill:url(#SVGID_00000065039178633370845000000009557008300099631290_);" d="M19.9,3L19.9,3
				c8.7,0,15.8,7.1,15.8,15.8l0,0c0,8.7-7.1,15.8-15.8,15.8l0,0c-8.7,0-15.8-7.1-15.8-15.8l0,0C4.1,10.1,11.2,3,19.9,3z"/>
			
				<radialGradient id="SVGID_00000005950906234710963390000009106400951307574169_" cx="-510.9517" cy="599.3223" r="0.2354" gradientTransform="matrix(-36.3777 21.0255 25.1263 43.4728 -33622.6445 -15299.6201)" gradientUnits="userSpaceOnUse">
				<stop  offset="0.1168" style="stop-color:#846C6B"/>
				<stop  offset="0.7344" style="stop-color:#1C0008"/>
				<stop  offset="1" style="stop-color:#5F4A48"/>
			</radialGradient>
			<path style="fill:url(#SVGID_00000005950906234710963390000009106400951307574169_);" d="M25.6,15.6c0,0.3-0.3,0.5-0.5,0.4
				c-0.7-0.1-1.3-0.1-1.9,0c-1.3,0.1-2.3,0.5-3.3,0.9l0,0c-0.1,0-0.1,0-0.2,0.1c-1,0.4-2,0.7-3.1,0.7c-0.4,0-0.9,0-1.5-0.1
				c-0.5-0.1-0.8-0.4-0.9-0.9c-0.1-0.4-0.1-0.7-0.1-1.1c0-3.1,2.5-5.7,5.7-5.7C23.1,9.9,25.6,12.4,25.6,15.6
				C25.6,15.6,25.6,15.6,25.6,15.6z"/>
			
				<linearGradient id="SVGID_00000163049896205595525110000008979401044784255376_" gradientUnits="userSpaceOnUse" x1="20.2398" y1="20.5548" x2="20.2398" y2="8.3181" gradientTransform="matrix(1 0 0 -1 0 37.7763)">
				<stop  offset="0" style="stop-color:#866767"/>
				<stop  offset="0.4688" style="stop-color:#180208"/>
				<stop  offset="1" style="stop-color:#2E1015"/>
			</linearGradient>
			<path style="fill:url(#SVGID_00000163049896205595525110000008979401044784255376_);" d="M14.7,18.4c-0.4-0.1-0.8,0.4-0.6,0.7
				l5.6,10.2c0.1,0.2,0.3,0.2,0.4,0l6.2-11.2c0.2-0.4,0-0.9-0.4-1c-1-0.2-1.8-0.2-2.5-0.1c-1.1,0.1-2.1,0.5-3.1,0.8
				c-0.1,0-0.1,0-0.2,0.1c-1,0.4-2.1,0.8-3.4,0.8C16.1,18.6,15.5,18.6,14.7,18.4z"/>
			
				<linearGradient id="SVGID_00000045603713811506665040000011865902540232199813_" gradientUnits="userSpaceOnUse" x1="23.1653" y1="20.8534" x2="23.1653" y2="7.5033" gradientTransform="matrix(1 0 0 -1 0 37.7763)">
				<stop  offset="0" style="stop-color:#A77874"/>
				<stop  offset="1" style="stop-color:#090404"/>
			</linearGradient>
			<path style="fill:url(#SVGID_00000045603713811506665040000011865902540232199813_);" d="M19.9,18.1c0-0.1,0.1-0.2,0.2-0.3
				c0.1,0,0.1,0,0.2-0.1c1-0.4,1.9-0.7,3.1-0.8c0.7-0.1,1.6-0.1,2.5,0.1c0.4,0.1,0.7,0.6,0.4,1l-6.2,11.2c0,0.1-0.1,0.1-0.2,0.1
				V18.1z"/>
		</g>
	</g>
</g>
<g id="Layer_1">
	<path class="st7" d="M50.9,11.1c-0.9-0.3-1.7-0.4-2.5-0.4c-1.5,0-2.9,0.4-4.2,1c-1.3,0.7-2.2,1.6-2.9,2.9s-1,2.7-1,4.3
		s0.4,3,1.1,4.3c0.7,1.3,1.7,2.2,2.9,2.9c1.2,0.7,2.5,1.1,4.1,1.1c1.4,0,2.7-0.3,3.8-0.9c1.1-0.6,2-1.5,2.7-2.7s1-2.6,1-4.3v-0.7
		c0-0.1,0-0.2,0-0.3v-0.1c0-0.1-0.1-0.3-0.3-0.3H49c-0.1,0-0.3,0.1-0.3,0.3v2.3c0,0.1,0.1,0.3,0.3,0.3h3c0.1,0,0.2,0.1,0.2,0.2
		c-0.1,0.3-0.2,0.7-0.3,0.9c-0.3,0.7-0.7,1.1-1.3,1.5c-0.6,0.3-1.3,0.5-2.3,0.5c-0.8,0-1.5-0.3-2.2-0.6c-0.7-0.4-1.2-1-1.6-1.8
		c-0.4-0.8-0.6-1.6-0.6-2.7c0-1,0.2-1.9,0.6-2.7c0.4-0.8,0.9-1.4,1.6-1.8c0.7-0.4,1.5-0.6,2.3-0.6c0.8,0,1.5,0.2,2.2,0.5
		c0.5,0.5,1,1,1.5,1.6c0.1,0.1,0.3,0.2,0.4,0.1l2.4-1.6c0.1-0.1,0.2-0.2,0.1-0.4c-0.4-0.7-1-1.2-1.6-1.7
		C52.5,11.7,51.8,11.3,50.9,11.1z M71.2,11.6l2.8-0.7c0.2,0,0.3,0.1,0.3,0.3v15.6c0,0.1-0.1,0.3-0.3,0.3h-2.8
		c-0.1,0-0.3-0.1-0.3-0.3v-15C71,11.7,71.1,11.6,71.2,11.6z M104.6,18.2c0.4-0.3,0.9-0.4,1.4-0.4c0.6,0,1,0.2,1.4,0.4
		c0.4,0.2,0.7,0.6,1,1.1s0.4,1.1,0.4,1.8c0,0.7-0.1,1.3-0.4,1.8c-0.2,0.5-0.5,0.9-1,1.1c-0.4,0.3-0.9,0.4-1.4,0.4s-1-0.1-1.4-0.4
		s-0.7-0.6-1-1.1s-0.4-1.1-0.4-1.8c0-0.7,0.1-1.3,0.4-1.8S104.2,18.4,104.6,18.2z M109.2,15.6c-0.9-0.5-2-0.8-3.2-0.8
		c-1.1,0-2.2,0.3-3.2,0.8s-1.6,1.3-2.2,2.2c-0.6,1-0.8,2-0.8,3.2c0,1.2,0.3,2.3,0.8,3.2c0.5,1,1.3,1.7,2.2,2.2c1,0.5,2,0.8,3.2,0.8
		s2.2-0.3,3.2-0.8s1.7-1.3,2.2-2.2s0.8-2,0.8-3.2c0-1.2-0.3-2.3-0.8-3.2C110.9,16.8,110.1,16.1,109.2,15.6z M85.2,25.8
		C85.2,25.7,85.3,25.8,85.2,25.8l0.1,0.9c0,0.1,0.1,0.3,0.3,0.3h2.8c0.1,0,0.3-0.1,0.3-0.3V15.5c0-0.1-0.1-0.3-0.3-0.3h-2.8
		c-0.1,0-0.3,0.1-0.3,0.3v1c0,0.1-0.1,0.1-0.2,0.1c-0.2-0.2-0.4-0.4-0.6-0.6c-0.7-0.7-1.7-1-2.8-1c-1,0-1.9,0.3-2.7,0.8
		c-0.8,0.5-1.4,1.3-1.8,2.2c-0.4,1-0.6,2-0.6,3.2c0,1.1,0.2,2.2,0.6,3.2s1,1.6,1.8,2.2s1.7,0.8,2.7,0.8c1.2,0,2.1-0.4,2.9-0.9
		C84.9,26.2,85.1,26,85.2,25.8z M84,23.9c-0.4,0.3-0.9,0.4-1.4,0.4s-1-0.1-1.4-0.4s-0.7-0.6-1-1.1c-0.2-0.5-0.3-1.1-0.3-1.7
		s0.1-1.1,0.3-1.6c0.3-0.4,0.6-0.8,1-1.1c0.4-0.3,0.9-0.4,1.4-0.4s1,0.1,1.4,0.4c0.4,0.3,0.7,0.6,1,1.1c0.2,0.4,0.3,1,0.3,1.6
		s-0.1,1.2-0.3,1.7C84.7,23.3,84.4,23.6,84,23.9z M96,17.8C96,17.8,95.9,17.8,96,17.8l-0.1,4.6c0,1.1,0.4,1.6,1.3,1.6h1
		c0.1,0,0.3,0.1,0.3,0.3v2.4c0,0.1-0.1,0.3-0.3,0.3h-1.4c-1.3,0-2.4-0.4-3.1-1.1c-0.8-0.8-1.1-1.8-1.1-3.2V18c0,0,0-0.1-0.1-0.1h-2
		c-0.2,0-0.3-0.2-0.3-0.4l0.7-2.1c0-0.1,0.1-0.2,0.3-0.2h1.3c0,0,0.1,0,0.1-0.1v-3.2c0-0.1,0.1-0.2,0.2-0.3l2.9-0.8
		c0.1,0,0.2,0.1,0.2,0.2v4c0,0,0,0.1,0.1,0.1h2.3c0.2,0,0.3,0.2,0.3,0.4l-0.7,2.1c0,0.1-0.1,0.2-0.3,0.2H96z M63.3,14.8
		c1.1,0,2.1,0.3,2.9,0.8s1.5,1.3,2,2.2c0.5,1,0.7,2,0.7,3.2v0.6c0,0.1-0.1,0.3-0.3,0.3h-7.5c-0.1,0-0.2,0.1-0.2,0.2
		c0.1,0.3,0.1,0.6,0.2,0.8c0.3,0.5,0.6,0.9,1,1.1c0.4,0.2,0.9,0.4,1.5,0.4c0.6,0,1.1-0.1,1.5-0.3c0.4-0.2,0.7-0.4,1-0.8
		c0.1-0.1,0.3-0.1,0.4,0l1.9,1.6c0.1,0.1,0.1,0.3,0,0.4c-0.5,0.7-1.2,1.2-2,1.5c-0.9,0.4-1.8,0.6-2.9,0.6c-1.2,0-2.3-0.3-3.2-0.8
		c-1-0.5-1.7-1.3-2.2-2.2c-0.5-1-0.8-2-0.8-3.2c0-1.2,0.3-2.3,0.8-3.2c0.5-1,1.2-1.6,2.1-2.2C61.2,15.1,62.2,14.8,63.3,14.8z
		 M61.2,19.6c-0.1,0-0.2-0.1-0.2-0.2c0.1-0.5,0.3-0.8,0.5-1.1c0.4-0.6,1-0.9,1.8-0.9c0.8,0,1.4,0.3,1.8,0.9c0.2,0.3,0.3,0.7,0.5,1.1
		c0,0.1-0.1,0.2-0.2,0.2H61.2z"/>
</g>
</svg>
