<?xml version="1.0" encoding="UTF-8"?><svg id="Layer_1" xmlns="http://www.w3.org/2000/svg" viewBox="0 0 339.16 135.24"><defs><style>.cls-1{fill:#010101;stroke-width:0px;}</style></defs><path class="cls-1" d="M164.5,47.16v-15.34h21.48v71.59h-21.48v-15.96c0-5.87-4.76-10.64-10.64-10.64h0c-5.87,0-10.64,4.76-10.64,10.64v15.96h-21.48V31.82h21.48v15.34c0,5.87,4.76,10.64,10.64,10.64h0c5.87,0,10.64-4.76,10.64-10.64Z"/><path class="cls-1" d="M230.47,31.82c5.79,0,10.93,1.01,15.39,3.02,4.46,2.01,7.96,4.89,10.48,8.64,2.52,3.75,3.78,8.15,3.78,13.19s-1.26,9.44-3.78,13.19c-2.52,3.75-6.02,6.63-10.48,8.64-4.47,2.01-9.6,3.02-15.39,3.02h-7.06v21.89h-21.48V31.82h28.54ZM228.83,64.24c3,0,5.3-.7,6.9-2.1,1.6-1.4,2.4-3.22,2.4-5.47s-.8-4.09-2.4-5.52c-1.6-1.43-3.9-2.15-6.9-2.15h-5.42v15.24h5.42Z"/><path class="cls-1" d="M299,31.82c5.79,0,10.93,1.01,15.39,3.02,4.46,2.01,7.96,4.89,10.48,8.64,2.52,3.75,3.78,8.15,3.78,13.19s-1.26,9.44-3.78,13.19c-2.52,3.75-6.02,6.63-10.48,8.64-4.47,2.01-9.6,3.02-15.39,3.02h-7.06v21.89h-21.48V31.82h28.54ZM297.36,64.24c3,0,5.3-.7,6.9-2.1,1.6-1.4,2.4-3.22,2.4-5.47s-.8-4.09-2.4-5.52c-1.6-1.43-3.9-2.15-6.9-2.15h-5.42v15.24h5.42Z"/><path class="cls-1" d="M76.88,67.62c7.13-6.79,11.73-16.21,12.2-26.7.04-.97-.76-1.78-1.74-1.78h-18.29c-.88,0-1.64.65-1.72,1.52-.77,9-8.35,16.09-17.55,16.09s-16.78-7.09-17.55-16.09c-.08-.87-.84-1.52-1.72-1.52H12.24c-.97,0-1.78.81-1.74,1.78.47,10.48,5.07,19.91,12.2,26.7-7.13,6.79-11.73,16.21-12.2,26.7-.04.97.76,1.78,1.74,1.78h18.29c.88,0,1.64-.65,1.72-1.52.77-9,8.35-16.09,17.55-16.09s16.78,7.09,17.55,16.09c.08.87.84,1.52,1.72,1.52h18.29c.97,0,1.78-.81,1.74-1.78-.47-10.48-5.07-19.91-12.2-26.7Z"/><circle class="cls-1" cx="21.32" cy="113.88" r="10.86"/><circle class="cls-1" cx="78.27" cy="113.88" r="10.86"/><circle class="cls-1" cx="21.32" cy="21.36" r="10.86"/><circle class="cls-1" cx="78.27" cy="21.36" r="10.86"/></svg>