<svg width="73" height="24" viewBox="0 0 73 24" fill="none" xmlns="http://www.w3.org/2000/svg">
<g clip-path="url(#clip0_11775_7152)">
<g clip-path="url(#clip1_11775_7152)">
<path d="M35.3856 2.1358V22.5426H38.838V10.6955C38.838 7.28932 40.718 4.91104 44.092 4.91104C47.0834 4.91104 48.8852 6.77362 48.8852 10.5767V22.5426H52.3357V10.061C52.3357 3.91862 49.1913 1.54211 44.8572 1.54211C42.2119 1.54211 39.8727 2.77024 38.7597 4.75154V2.1358H35.3856Z" fill="#7132F5"/>
<path d="M55.0576 22.5425V2.13751H58.5082V11.4876L67.7884 2.13574H72.2373L64.1449 10.2205L72.6965 22.5425H68.6702L61.8056 12.6767L58.5082 15.9252V22.5425H55.0576Z" fill="#7132F5"/>
<path d="M28.429 22.5425V2.09851H31.9351V22.5425H28.429Z" fill="#7132F5"/>
<path fill-rule="evenodd" clip-rule="evenodd" d="M24 12C24 5.37258 18.6274 -2.89694e-07 12 0C5.37258 2.89694e-07 -2.89694e-07 5.37258 0 12C2.89694e-07 18.6274 5.37258 24 12 24C18.6274 24 24 18.6274 24 12ZM13.7127 20.981C13.7127 21.7951 13.0446 22.4568 12.0962 22.4758C12.0699 22.476 12.0436 22.4761 12.0173 22.4762H11.9827C6.20482 22.4669 1.52381 17.7801 1.52381 12C1.52381 6.21418 6.21416 1.52383 12 1.52383C12.0312 1.52383 12.0624 1.52397 12.0935 1.52424C13.1637 1.5433 13.7127 2.20498 13.7127 3.01902C13.7127 3.8475 12.9803 4.45715 12.2045 4.45715C11.4285 4.45715 11.3905 4.45715 10.6478 4.51666C9.90502 4.57618 9.13702 5.18582 9.13702 6.01186C9.13702 6.8428 9.81207 7.51196 10.6478 7.51196H17.2346C18.0679 7.51196 18.7429 8.18112 18.7429 9.00716C18.7429 9.83319 18.0679 10.5023 17.2346 10.5023H7.08915C6.25343 10.5023 5.57843 11.174 5.57843 12.0024C5.57843 12.8285 6.25343 13.4977 7.08915 13.4977H12.2045C13.0378 13.4977 13.7127 14.1668 13.7127 14.9953C13.7127 15.8213 13.0378 16.4905 12.2045 16.4905H10.6478C9.81207 16.4905 9.13702 17.1597 9.13702 17.9857C9.13702 18.8142 9.82883 19.419 10.6478 19.4809C10.7123 19.4858 10.7714 19.4903 10.8257 19.4945C11.1139 19.5164 11.2714 19.5284 11.4291 19.535C11.619 19.5429 11.8092 19.5429 12.2286 19.5429C13.0618 19.5429 13.7127 20.1549 13.7127 20.981Z" fill="#7132F5"/>
</g>
</g>
<defs>
<clipPath id="clip0_11775_7152">
<rect width="72.6982" height="24" fill="white"/>
</clipPath>
<clipPath id="clip1_11775_7152">
<rect width="72.6982" height="24" fill="white"/>
</clipPath>
</defs>
</svg>
