<svg xmlns="http://www.w3.org/2000/svg" fill="none" viewBox="0 0 138 24">
  <path fill="#80FFEA" d="m10.789 9.596-2.29 2.29 2.498 2.498 2.29-2.29-2.498-2.498Z"/>
  <path fill="#929497" d="M22 12c0-3.647-2.55-5.76-4.394-6.535C17.09 4.274 15.276 1 11 1 7.353 1 5.24 3.55 4.465 5.393 3.275 5.911 0 7.721 0 12c0 3.647 2.55 5.76 4.393 6.535C4.911 19.726 6.723 23 11 23c3.647 0 5.76-2.55 6.535-4.393C18.725 18.09 22 16.279 22 12V12Zm-11.05 2.157-1.037-1.015c-.354-.36-.827-.822-1.114-1.137l1.193-1.239c.328-.32.746-.649 1.035-.91l.503.488c.57.582 1.119 1.194 1.554 1.677l-.54.574a48.03 48.03 0 0 1-1.594 1.562Z"/>
  <path fill="url(#japan-dark_svg__a)" d="M4.449 18.558s1.603.508 3.215.454c2.097-.07 3.285-1.206 3.285-1.206s1.066.682 1.59.857c.524.174 1.572.21 1.572.21s-1.377 1.793-4.263 1.887c-3.774.122-5.399-2.202-5.399-2.202Z"/>
  <path fill="url(#japan-dark_svg__b)" d="M17.568 18.612s.508-1.602.454-3.215c-.07-2.097-1.205-3.285-1.205-3.285s.561-1.051.736-1.575c.175-.524.33-1.704.33-1.704s1.793 1.494 1.887 4.38c.122 3.774-2.202 5.4-2.202 5.4Z"/>
  <path fill="url(#japan-dark_svg__c)" d="M17.465 5.492s-1.602-.508-3.215-.454c-2.096.07-3.285 1.205-3.285 1.205s-1.066-.68-1.59-.856c-.524-.175-1.572-.21-1.572-.21s1.377-1.793 4.263-1.886c3.775-.123 5.4 2.201 5.4 2.201Z"/>
  <path fill="url(#japan-dark_svg__d)" d="M3.957 8.382c.07 2.096 1.297 3.691 1.297 3.691s-.681 1.066-.856 1.59c-.175.524-.21 1.572-.21 1.572s-1.793-1.377-1.887-4.263C2.18 7.198 4.49 5.376 4.49 5.376c-.398 1.061-.57 1.886-.533 3.006Z"/>
  <path fill="url(#japan-dark_svg__e)" d="M11.001 17.789s0 .297.996.612c.996.314 2.123.446 2.123.446s.522-.542.831-1.23c.341-.761.401-1.392.401-1.392s-.647.061-1.135-.043c-.343-.074-.874-.28-.874-.28l-2.341 1.888-.001-.001Z"/>
  <path fill="url(#japan-dark_svg__f)" d="M15.168 7.68s.078 1.101-.314 1.914c-.394.813-.603.996-.603.996l1.992 2.123s1.049-1.153 1.31-2.175c.262-1.022.315-1.652.315-1.652s-.445-.55-1.285-.838c-.838-.289-1.415-.367-1.415-.367Z"/>
  <path fill="url(#japan-dark_svg__g)" d="m8.721 8.1 2.316-1.93s-.554-.499-1.497-.76c-.944-.263-1.632-.323-1.632-.323s-.593.588-.869 1.32c-.276.73-.318 1.376-.318 1.376s.48.003.899.056c.42.053 1.101.262 1.101.262V8.1Z"/>
  <path fill="#90908F" d="m5.156 11.979 1.94 2.332s-.236.524-.262.944c-.026.42-.078 1.048-.078 1.048s-.708-.078-1.337-.34c-.63-.262-1.308-.87-1.308-.87s.107-1.259.317-1.678c.21-.42.729-1.436.729-1.436Z"/>
  <path fill="url(#japan-dark_svg__h)" d="M13.045 12.058s.786.838 1.049 1.101c.261.262.838 1.1.838 1.1l-1.59 1.643s-1.187-.699-1.45-.909c-.262-.21-.944-.891-.944-.891l2.097-2.044Z"/>
  <path fill="url(#japan-dark_svg__i)" d="M11.08 9.781s.642-.635 1.008-.897c.367-.262 1.115-.81 1.115-.81l1.572 1.546s-.472.891-.866 1.389c-.393.497-.786.917-.786.917L11.08 9.781Z"/>
  <path fill="url(#japan-dark_svg__j)" d="m5.157 11.979 1.94 2.332s-.219.367-.219.786c0 .42-.07 1.118-.07 1.118s-1.049-.175-1.712-.49c-.664-.313-.958-.602-.958-.602s.091-1.534.405-1.988c.315-.454.614-1.157.614-1.157Z"/>
  <path fill="url(#japan-dark_svg__k)" d="M7.017 9.716s.595.91.909 1.188c.314.28.874 1.101.874 1.101l2.131-2.184s-.733-.698-.979-.943c-.244-.244-1.293-.874-1.293-.874L7.018 9.716Z"/>
  <path fill="url(#japan-dark_svg__l)" d="M8.772 15.962s.6-.468 1.15-.888c.55-.419 1.025-.972 1.025-.972l-2.149-2.097-.908 1-.795 1.307 1.677 1.651Z"/>
  <path stroke="#80FFEA" stroke-linecap="round" stroke-linejoin="round" stroke-width=".116" d="M15.092 17.274c.174-.572.492-2.321-.394-3.44l-1.615-1.813M9.165 15.7c-1.118.885-2.868.567-3.44.393M4.393 18.534l.53.192c1.13.345 4.082.782 6.078-.938M16.786 12.037c1.72 1.995 1.286 4.908.941 6.04M3.997 8.955c-.13-1.25.086-2.41.275-3.033.051-.167.116-.345.193-.529"/>
  <path stroke="#80FFEA" stroke-linecap="round" stroke-linejoin="round" stroke-width=".116" d="M10.963 17.786s3.162-2.04 5.59-5.418c1.316-1.832 1.316-3.31 1.309-3.493-.768-.693-1.572-.962-1.587-.968a5.129 5.129 0 0 0-1.057-.186c0 .002.086 1.768-1.112 3.163-2.57 2.99-4.94 4.815-4.94 4.815"/>
  <path stroke="#80FFEA" stroke-linecap="round" stroke-linejoin="round" stroke-width=".116" d="M16.988 8.243s.174 1.932-1.218 3.63c-2.597 3.155-5.406 5.356-5.406 5.356"/>
  <path stroke="#80FFEA" stroke-linecap="round" stroke-linejoin="round" stroke-width=".116" d="m9.525 16.588.24-.194s2.694-1.899 5.222-5.016c1.269-1.568 1.17-3.276 1.134-3.513M5.214 11.963c-1.719-1.996-1.286-4.909-.94-6.04a5.47 5.47 0 0 1 .192-.53M6.907 6.725c-.174.572-.492 2.322.394 3.44"/>
  <path stroke="#80FFEA" stroke-linecap="round" stroke-linejoin="round" stroke-width=".116" d="M12.835 8.3c1.118-.885 2.868-.567 3.44-.393M17.606 5.466a5.614 5.614 0 0 0-.529-.193c-1.131-.345-4.044-.778-6.04.941M18.002 15.044a8.155 8.155 0 0 1-.275 3.033 5.74 5.74 0 0 1-.193.53M5.214 11.963s2.18 2.979 5.418 5.59c1.849 1.49 3.492 1.308 3.492 1.308.694-.768.963-1.571.968-1.587.067-.216.153-.6.187-1.057-.002 0-1.769.186-3.163-1.012-2.99-2.57-4.815-5.04-4.815-5.04"/>
  <path stroke="#80FFEA" stroke-linecap="round" stroke-linejoin="round" stroke-width=".116" d="M14.756 17.988s-1.932.175-3.63-1.218c-3.155-2.596-5.276-5.491-5.276-5.491"/>
  <path stroke="#80FFEA" stroke-linecap="round" stroke-linejoin="round" stroke-width=".116" d="M15.134 17.12c-.238.037-1.967.163-3.513-1.133-3.073-2.583-5.226-5.526-5.226-5.526"/>
  <path stroke="#80FFEA" stroke-linecap="round" stroke-linejoin="round" stroke-width=".116" d="M11.037 6.214s-3.095 2.09-5.59 5.418c-1.53 2.04-1.31 3.352-1.31 3.493.768.693 1.572.962 1.587.968.216.066.601.152 1.057.186 0-.002-.089-1.88 1.11-3.274C10.46 10.014 12.834 8.3 12.834 8.3"/>
  <path stroke="#80FFEA" stroke-linecap="round" stroke-linejoin="round" stroke-width=".116" d="M5.012 15.756s-.145-1.909 1.218-3.63c2.54-3.2 5.406-5.356 5.406-5.356"/>
  <path stroke="#80FFEA" stroke-linecap="round" stroke-linejoin="round" stroke-width=".116" d="M5.879 16.134c-.037-.238-.107-1.923 1.134-3.513 2.42-3.103 5.508-5.154 5.508-5.154"/>
  <path stroke="#80FFEA" stroke-linecap="round" stroke-linejoin="round" stroke-width=".116" d="M13.084 12.02c.335-.356.677-.736 1.021-1.136.309-.36.59-.843.743-1.216-.913-.995-2.08-2.093-3.48-3.22-1.849-1.49-3.493-1.31-3.493-1.31a4.957 4.957 0 0 0-.967 1.586 5.13 5.13 0 0 0-.187 1.057c.002 0 1.769-.185 3.163 1.013 1.363 1.171 2.383 2.321 3.2 3.227Z"/>
  <path stroke="#80FFEA" stroke-linecap="round" stroke-linejoin="round" stroke-width=".116" d="M7.243 6.011s1.932-.174 3.63 1.219c1.394 1.147 4.508 4.508 5.392 5.478"/>
  <path stroke="#80FFEA" stroke-linecap="round" stroke-linejoin="round" stroke-width=".116" d="M6.865 6.879c.238-.037 1.968-.163 3.514 1.133 1.368 1.151 4.492 4.51 5.341 5.445M14.849 9.668l1.937 2.368"/>
  <path fill="#fff" d="M31.508 13.255c0 .4-.072.78-.213 1.138-.142.358-.377.65-.704.874-.328.225-.767.336-1.319.336-.489 0-.898-.093-1.225-.283a2.025 2.025 0 0 1-.751-.725 2.274 2.274 0 0 1-.31-.906h.806c.027.18.1.36.217.538.117.18.283.328.497.446.214.117.483.175.806.175.324 0 .562-.05.752-.15.19-.1.331-.234.424-.4a1.7 1.7 0 0 0 .19-.532c.035-.19.053-.37.053-.543V8.67h.777v4.585ZM43.622 8.67c.732 0 1.308.199 1.729.595.42.397.63.933.63 1.61s-.21 1.212-.63 1.61c-.421.397-.997.595-1.729.595h-2.309v2.442h-.776V8.67h3.085Zm-4.281 6.851h-.86l-.838-1.987h-3.395l-.839 1.987h-.86l2.91-6.851h.973l2.909 6.851Zm13.386 0h-.859l-.839-1.987h-3.394l-.84 1.987h-.858l2.909-6.851h.971l2.91 6.851Zm6.213-1.086V8.67h.776v6.851h-.9l-4.233-5.786v5.786h-.776V8.67h.9l4.233 5.765Zm9.886-6.098c.607 0 1.108.092 1.5.274.394.182.689.423.885.719.196.297.306.618.326.962h-.797c-.042-.346-.214-.636-.517-.874-.303-.239-.77-.358-1.397-.358-.386 0-.701.04-.942.115-.242.076-.426.174-.554.294a.956.956 0 0 0-.259.376 1.155 1.155 0 0 0-.068.373c0 .229.085.413.254.553.17.142.394.259.673.352.279.093.587.179.926.254.338.076.675.16 1.01.254.335.093.64.21.921.351.28.142.504.323.674.543.17.22.253.503.253.849 0 .635-.242 1.123-.724 1.465-.483.341-1.146.512-1.987.512v.005c-.677 0-1.225-.092-1.646-.274-.42-.183-.737-.436-.947-.761a2.343 2.343 0 0 1-.367-1.098h.807c.02.332.131.6.332.802.2.204.463.355.79.45a3.81 3.81 0 0 0 1.084.146c.58 0 1.038-.102 1.376-.306a.993.993 0 0 0 .507-.906.742.742 0 0 0-.253-.586 2.009 2.009 0 0 0-.673-.366 9.584 9.584 0 0 0-.917-.265 39.746 39.746 0 0 1-1-.253 5.005 5.005 0 0 1-.921-.342 1.91 1.91 0 0 1-.673-.533c-.17-.218-.253-.494-.253-.833 0-.56.215-1.015.648-1.367.43-.352 1.074-.527 1.93-.527Zm38.713 0c.518 0 .983.092 1.398.274.413.182.765.433 1.054.75.289.317.507.688.653 1.108h-.818a2.165 2.165 0 0 0-.818-1.004c-.372-.249-.843-.372-1.407-.372-.565 0-1.024.122-1.413.367-.39.244-.685.574-.884.987a3.16 3.16 0 0 0-.302 1.398c0 .517.1.974.302 1.391.199.418.494.748.884.993s.861.367 1.413.367c.551 0 1.035-.123 1.407-.372.372-.248.645-.583.818-1.005h.818a3.227 3.227 0 0 1-.653 1.103 3.08 3.08 0 0 1-1.054.756 3.44 3.44 0 0 1-1.398.274v.001c-.683 0-1.273-.156-1.769-.47a3.114 3.114 0 0 1-1.143-1.268 3.913 3.913 0 0 1-.399-1.77c0-.65.132-1.24.399-1.77a3.127 3.127 0 0 1 1.143-1.268c.497-.313 1.087-.47 1.769-.47Zm-31.443 3.335 2.287-3.251h.854v6.852h-.736V9.601l-2.405 3.261-2.446-3.26v5.671h-.735V8.421h.854l2.327 3.25Zm10.968 3.601h-.86l-.839-1.987h-3.394l-.838 1.987h-.86l2.909-6.852h.972l2.91 6.852Zm12.834-6.117h-2.391v6.117h-.776V9.156h-2.392v-.735h5.56v.735Zm-8.508-.735c.703 0 1.264.194 1.682.58.418.386.626.907.626 1.562 0 .442-.084.795-.254 1.056a1.7 1.7 0 0 1-.635.596 3.263 3.263 0 0 1-.767.293l1.8 2.764h-.92l-1.655-2.629h-2.382v2.63h-.777V8.42h3.282Zm21.931 3.04h3.985V8.419h.775v6.852h-.775v-3.054h-3.985v3.054h-.776V8.42h.776v3.042Zm12.947 3.81h-.86l-.838-1.987h-3.394l-.839 1.987h-.859l2.909-6.852h.972l2.909 6.852Zm2.515 0h-.776V8.42h.776v6.852Zm7.628-1.088V8.42h.777v6.852h-.901l-4.232-5.786v5.786h-.777V8.42h.901l4.232 5.764ZM34.548 12.82h2.794l-1.398-3.344-1.396 3.344Zm13.386 0h2.794L49.33 9.476l-1.397 3.344Zm34.337-.249h2.793l-1.396-3.344-1.398 3.344Zm39.204 0h2.795l-1.398-3.345-1.397 3.344Zm-80.161-.216h2.256c.538 0 .946-.132 1.221-.394.275-.263.414-.625.414-1.087 0-.463-.137-.815-.414-1.077-.276-.263-.683-.394-1.22-.394h-2.258v2.952Zm47.57-.445h2.372c.248 0 .5-.04.756-.114.254-.077.47-.212.646-.409.176-.196.264-.472.264-.824 0-.434-.148-.777-.445-1.03-.298-.251-.69-.377-1.18-.377h-2.412v2.754Z"/>
  <defs>
    <linearGradient id="japan-dark_svg__a" x1="14.111" x2="4.449" y1="19.285" y2="19.285" gradientUnits="userSpaceOnUse">
      <stop stop-color="#454545"/>
      <stop offset="1" stop-color="#454545" stop-opacity="0"/>
    </linearGradient>
    <linearGradient id="japan-dark_svg__b" x1="18.296" x2="18.296" y1="8.834" y2="18.612" gradientUnits="userSpaceOnUse">
      <stop stop-color="#454545"/>
      <stop offset="1" stop-color="#454545" stop-opacity="0"/>
    </linearGradient>
    <linearGradient id="japan-dark_svg__c" x1="7.803" x2="17.465" y1="4.765" y2="4.765" gradientUnits="userSpaceOnUse">
      <stop stop-color="#454545"/>
      <stop offset="1" stop-color="#454545" stop-opacity="0"/>
    </linearGradient>
    <linearGradient id="japan-dark_svg__d" x1="3.776" x2="3.776" y1="16.164" y2="8.977" gradientUnits="userSpaceOnUse">
      <stop stop-color="#454545"/>
      <stop offset="1" stop-color="#454545" stop-opacity="0"/>
    </linearGradient>
    <linearGradient id="japan-dark_svg__e" x1="12.518" x2="13.622" y1="16.358" y2="17.497" gradientUnits="userSpaceOnUse">
      <stop stop-color="#464646"/>
      <stop offset="1" stop-color="#90908F"/>
    </linearGradient>
    <linearGradient id="japan-dark_svg__f" x1="16.673" x2="15.704" y1="8.312" y2="10.855" gradientUnits="userSpaceOnUse">
      <stop stop-color="#464646"/>
      <stop offset="1" stop-color="#90908F"/>
    </linearGradient>
    <linearGradient id="japan-dark_svg__g" x1="7.325" x2="10.257" y1="5.781" y2="8.031" gradientUnits="userSpaceOnUse">
      <stop stop-color="#464646"/>
      <stop offset="1" stop-color="#90908F"/>
    </linearGradient>
    <linearGradient id="japan-dark_svg__h" x1="14.262" x2="12.742" y1="12.585" y2="14.42" gradientUnits="userSpaceOnUse">
      <stop stop-color="#464646"/>
      <stop offset="1" stop-color="#90908F"/>
    </linearGradient>
    <linearGradient id="japan-dark_svg__i" x1="12.234" x2="13.075" y1="8.818" y2="9.889" gradientUnits="userSpaceOnUse">
      <stop stop-color="#464646"/>
      <stop offset="1" stop-color="#90908F"/>
    </linearGradient>
    <linearGradient id="japan-dark_svg__j" x1="6.7" x2="5.532" y1="13.232" y2="14.64" gradientUnits="userSpaceOnUse">
      <stop stop-color="#464646"/>
      <stop offset="1" stop-color="#90908F"/>
    </linearGradient>
    <linearGradient id="japan-dark_svg__k" x1="6.429" x2="8.749" y1="12.487" y2="10.009" gradientUnits="userSpaceOnUse">
      <stop stop-color="#464646"/>
      <stop offset="1" stop-color="#90908F"/>
    </linearGradient>
    <linearGradient id="japan-dark_svg__l" x1="12.009" x2="8.594" y1="17.372" y2="13.753" gradientUnits="userSpaceOnUse">
      <stop stop-color="#464646"/>
      <stop offset="1" stop-color="#90908F"/>
    </linearGradient>
  </defs>
</svg>
