<svg xmlns="http://www.w3.org/2000/svg" fill="none" viewBox="0 0 80 24">
  <g clip-path="url(#japan-light_svg__a)">
    <path fill="#000" d="M23.682 19.201c.206 0 .308.108.308.322v2.913c0 .475-.116.855-.348 1.141-.229.282-.602.423-1.122.423-.447 0-.786-.11-1.019-.33-.233-.223-.374-.525-.423-.905-.027-.22.074-.329.302-.329.094 0 .163.025.208.074.05.049.09.125.121.228.072.439.342.657.811.657.287 0 .5-.077.638-.234.139-.156.208-.398.208-.725v-2.913c0-.102.028-.181.081-.235a.317.317 0 0 1 .235-.087Zm32.383-.114c.326 0 .624.06.892.182.268.12.499.293.691.516.072.076.094.155.068.235a.342.342 0 0 1-.14.188l-.028.014a.34.34 0 0 1-.201.04.4.4 0 0 1-.229-.114c-.264-.3-.615-.45-1.053-.45a1.44 1.44 0 0 0-.805.228 1.534 1.534 0 0 0-.537.644c-.13.273-.195.6-.195.98 0 .376.065.703.195.98.13.273.309.486.537.638.232.152.5.227.805.227.43 0 .78-.149 1.053-.449a.394.394 0 0 1 .215-.114.359.359 0 0 1 .215.04l.014.007a.31.31 0 0 1 .154.181c.026.081.006.159-.06.235a2.019 2.019 0 0 1-.699.523c-.268.121-.566.182-.892.182-.425 0-.801-.1-1.127-.302a2.101 2.101 0 0 1-.773-.852c-.183-.367-.274-.8-.274-1.296 0-.497.09-.928.274-1.295.188-.371.446-.658.773-.86a2.071 2.071 0 0 1 1.127-.308ZM3.248 19.2c.21 0 .315.097.315.29 0 .191-.105.287-.315.287H2.094v3.8c0 .214-.1.321-.302.321-.21 0-.315-.107-.315-.322v-3.799H.322c-.214 0-.322-.096-.322-.288 0-.192.107-.289.322-.289h2.926Zm3.053 0c.192 0 .288.099.288.295v1.652h2.355v-1.652c0-.197.097-.295.29-.295h.04c.192 0 .288.098.289.295v4.108c0 .196-.097.295-.29.295h-.04c-.192 0-.289-.099-.289-.296v-1.885H6.59v1.886c0 .196-.096.295-.288.295h-.034c-.193 0-.288-.099-.288-.296v-4.107c0-.196.095-.295.288-.295H6.3Zm8.68 0c.215 0 .323.097.323.29 0 .191-.108.287-.323.287h-2.107v1.43h1.9c.21 0 .315.098.315.295 0 .192-.105.289-.316.289h-1.899v1.53h2.188c.215 0 .323.096.323.288 0 .193-.108.29-.322.29h-2.484c-.21 0-.315-.108-.315-.323v-4.054c0-.214.105-.322.315-.322h2.402Zm13.368 0a.33.33 0 0 1 .335.229l1.61 4.134c.037.102.036.185 0 .247-.035.059-.104.088-.207.088h-.1c-.17 0-.283-.078-.337-.235l-.362-.966h-1.94l-.368.966a.32.32 0 0 1-.33.235h-.087c-.099 0-.168-.03-.208-.088-.036-.062-.036-.145 0-.247l1.61-4.134a.33.33 0 0 1 .336-.229h.048Zm6.471 0c.443 0 .785.103 1.027.309.246.206.369.533.369.98 0 .452-.123.783-.37.993-.24.21-.583.316-1.026.316h-1.49v1.778c0 .215-.103.322-.308.322-.202 0-.302-.107-.302-.322v-4.06c0-.21.105-.316.315-.316h1.785Zm5.037 0a.33.33 0 0 1 .336.229l1.61 4.134c.037.102.036.185 0 .247-.035.059-.105.088-.207.088h-.1c-.171 0-.283-.078-.337-.235l-.362-.966h-1.94l-.369.966a.32.32 0 0 1-.329.235h-.087c-.098 0-.168-.03-.208-.088-.035-.062-.036-.145 0-.247l1.61-4.134a.33.33 0 0 1 .337-.229h.046Zm4.74 0c.162 0 .289.07.383.208l2.268 3.41v-3.296c0-.214.106-.322.317-.322.2 0 .301.108.301.322v4.054c0 .215-.099.322-.296.322h-.047c-.174 0-.301-.07-.381-.208l-2.303-3.476v3.362c0 .215-.103.322-.309.322-.201 0-.302-.107-.302-.322v-4.054c0-.214.101-.322.302-.322h.068Zm16.038 0c.192 0 .288.099.288.295v1.652h2.356v-1.652c0-.197.096-.295.288-.295h.04c.193 0 .29.098.29.295v4.108c0 .196-.097.295-.29.295h-.04c-.192 0-.288-.099-.288-.296v-1.885h-2.356v1.886c0 .196-.096.295-.288.295H60.6c-.193 0-.288-.099-.288-.296v-4.107c0-.196.096-.295.288-.295h.034Zm7.668 0a.33.33 0 0 1 .336.229l1.61 4.134c.036.102.036.185 0 .247-.036.059-.105.088-.208.088h-.1c-.17 0-.283-.078-.337-.235l-.362-.966h-1.94l-.368.966a.32.32 0 0 1-.33.235h-.086c-.099 0-.168-.03-.208-.088-.036-.062-.036-.145 0-.247l1.61-4.134c.058-.152.17-.229.336-.229h.047Zm4.673 0c.205 0 .308.108.308.322v4.054c0 .215-.103.322-.308.322-.202 0-.302-.107-.302-.322v-4.054c0-.214.1-.322.302-.322Zm3.39 0c.16 0 .288.07.382.208l2.269 3.41v-3.296c0-.214.105-.322.315-.322.201 0 .303.108.303.322v4.054c0 .215-.1.322-.296.322h-.047c-.174 0-.302-.069-.383-.208l-2.302-3.476v3.362c0 .215-.102.322-.308.322-.202 0-.302-.107-.302-.322v-4.054c0-.214.1-.322.302-.322h.067Zm-48.81 2.92h1.524l-.752-2.04-.771 2.04Zm11.51 0h1.523l-.752-2.04-.772 2.04Zm28.445 0h1.523l-.752-2.04-.771 2.04Zm-34.18-.906h1.415c.268 0 .473-.056.611-.168.143-.116.214-.302.214-.557 0-.25-.07-.432-.214-.544-.138-.112-.343-.168-.61-.168H33.33v1.437ZM36.755.32c.354 0 .64.288.64.642v6.265c0 .848.249 1.532.746 2.053.496.51 1.15.763 1.962.763s1.467-.254 1.963-.763c.497-.52.745-1.205.745-2.053V.962c0-.354.288-.642.642-.642h1.353c.354 0 .64.288.64.642v6.265c0 1.017-.223 1.92-.672 2.708a4.588 4.588 0 0 1-1.872 1.817c-.811.436-1.745.654-2.798.654-1.054 0-1.988-.218-2.8-.654a4.708 4.708 0 0 1-1.889-1.817c-.436-.788-.654-1.69-.654-2.708V.962c0-.354.287-.642.641-.642h1.353Zm-15.91 0c.355 0 .641.288.641.642v10.53a.641.641 0 0 1-.64.642h-1.353a.642.642 0 0 1-.642-.642V.962c0-.354.288-.642.642-.642h1.353Zm11.49 0c.354 0 .64.288.64.642v1.466a.641.641 0 0 1-.174.44l-6.53 6.903h6.246c.354 0 .641.287.641.641v1.08a.642.642 0 0 1-.641.642H23.73a.641.641 0 0 1-.64-.642v-1.47c0-.161.06-.317.169-.435l6.355-6.903h-5.52a.642.642 0 0 1-.64-.642V.962c0-.354.287-.642.64-.642h8.24Zm30.408 0c.354 0 .642.288.642.642v10.53a.642.642 0 0 1-.642.642h-1.352a.642.642 0 0 1-.642-.642V.962c0-.354.288-.642.642-.642h1.352Zm4.399 0c.354 0 .641.288.641.642V5.1l4.08-4.567a.642.642 0 0 1 .478-.214h1.626c.556 0 .849.662.474 1.074l-4.114 4.524 4.519 5.151a.641.641 0 0 1-.482 1.065h-1.481a.642.642 0 0 1-.475-.211l-4.625-5.096v4.665a.642.642 0 0 1-.641.642H65.79a.642.642 0 0 1-.642-.642V.962c0-.354.288-.642.642-.642h1.353Zm11.432 0c.355 0 .642.288.642.642v10.53a.642.642 0 0 1-.642.642h-1.352a.642.642 0 0 1-.641-.642V.962c0-.354.287-.641.64-.642h1.353Zm-29.37 0c.354 0 .64.288.64.642v3.715h6.507V.962c0-.354.287-.642.641-.642h1.353c.354 0 .641.288.641.642v10.512a.642.642 0 0 1-.641.641h-1.353a.642.642 0 0 1-.641-.641V7.039h-6.506v4.435a.641.641 0 0 1-.64.641h-1.354a.642.642 0 0 1-.641-.641V.962c0-.354.287-.642.642-.642h1.352ZM12.51 0c1.478 0 2.61.412 3.398 1.236.787.824 1.18 2.018 1.18 3.58v6.628a.64.64 0 0 1-.64.641h-1.352a.641.641 0 0 1-.642-.64v-6.92c0-.642-.2-1.163-.6-1.563-.4-.4-.92-.6-1.562-.6s-1.164.2-1.563.6c-.4.4-.6.921-.6 1.563v6.92c0 .353-.288.64-.642.64H8.135a.64.64 0 0 1-.64-.64v-6.92c0-.642-.2-1.163-.6-1.563-.4-.4-.922-.6-1.564-.6s-1.163.2-1.562.6c-.4.4-.6.921-.6 1.563v6.92c0 .353-.288.64-.642.64H1.175a.641.641 0 0 1-.642-.64V4.815c0-1.562.4-2.756 1.2-3.58C2.531.412 3.677 0 5.167 0 6.634 0 7.851.497 8.82 1.49 9.79.497 11.02 0 12.51 0Z"/>
  </g>
  <defs>
    <clipPath id="japan-light_svg__a">
      <path fill="#fff" d="M0 0h80v24H0z"/>
    </clipPath>
  </defs>
</svg>
