<svg width="62" height="24" viewBox="0 0 62 24" fill="none" xmlns="http://www.w3.org/2000/svg">
<g clip-path="url(#clip0_11638_4362)">
<path d="M18.8507 18.8503C25.7176 17.1052 25.7149 6.89004 18.8493 5.14899C17.1096 -1.71926 6.88903 -1.71385 5.15068 5.15034C-1.71757 6.8914 -1.71622 17.1133 5.15068 18.8503C6.89173 25.7186 17.1123 25.7145 18.8507 18.8503ZM21.519 7.45508C24.9038 10.6749 23.4412 16.7321 19.0129 18.0961C19.067 17.7514 19.0967 17.4026 19.0994 17.0539C23.5034 15.3547 23.5034 8.64867 19.0994 6.94817C19.0953 6.60077 19.0656 6.25202 19.0102 5.90597C19.928 6.21011 20.7904 6.72783 21.5177 7.45643L21.519 7.45508ZM17.0691 11.9997C17.8342 11.2211 18.383 10.3073 18.7155 9.33536C20.6188 10.5263 20.6201 13.4731 18.7155 14.664C18.3843 13.6934 17.8328 12.7756 17.0691 11.9997ZM16.6689 15.844C17.9153 20.3832 11.8459 23.8261 8.60035 20.3738C6.54028 18.3921 6.84037 14.914 9.0302 13.1473C9.31272 12.8715 9.89938 12.2727 10.1765 11.9997C10.8943 11.2832 11.7594 10.4168 12.4758 9.70033C13.2612 8.93119 14.0858 7.94035 15.1334 7.55781C15.032 8.14988 14.7643 8.73518 14.321 9.19478C14.2966 9.21911 14.2682 9.24479 14.2439 9.26912C13.1436 10.3695 11.9459 11.5685 10.8456 12.6674C10.3874 13.127 9.72771 13.784 9.26946 14.2436C7.77443 15.6913 7.77308 18.2583 9.26946 19.7019C12.8651 23.184 18.1816 18.0068 14.8022 14.322L14.7738 14.2922L15.4429 13.6231C16.058 14.2544 16.4648 15.0073 16.6676 15.8413L16.6689 15.844ZM4.92899 16.3266C1.36442 14.7221 1.36578 9.28264 4.92764 7.67676C4.95873 8.00794 5.01145 8.33777 5.0885 8.66354C2.55261 10.0545 2.55397 13.9516 5.0885 15.3425C5.01145 15.667 4.95873 15.9968 4.92899 16.328V16.3266ZM4.77219 14.253C3.34744 12.8607 3.60563 10.4073 5.2818 9.33671C5.61298 10.3073 6.16449 11.2251 6.92958 12.001C6.16449 12.7796 5.61568 13.6934 5.28315 14.6667C5.10202 14.5491 4.9317 14.4098 4.77219 14.2517V14.253ZM9.70473 9.22587C9.24243 8.77033 8.96667 8.16474 8.86259 7.56186C9.4114 7.78761 9.92506 8.11878 10.3738 8.55675L9.70473 9.22587ZM8.82339 6.82516C8.84366 6.50885 8.9099 6.19389 9.02345 5.8938C9.93588 6.18984 10.7929 6.69539 11.5201 7.40912L10.8524 8.07688C10.2576 7.49698 9.56279 7.07929 8.82339 6.82381V6.82516ZM11.9986 6.93195C11.22 6.16686 10.3063 5.61805 9.33435 5.28552C10.5252 3.38225 13.4721 3.3809 14.663 5.28552C13.6924 5.61669 12.7732 6.16956 11.9986 6.9333V6.93195ZM14.7292 4.29739C11.1308 0.813923 5.8198 5.99248 9.19512 9.67735L9.22486 9.70844L8.55574 10.3776C4.25852 5.81405 10.8848 -0.735183 15.3983 3.62827C17.2597 5.43015 17.261 8.62164 15.3983 10.4249C14.2993 11.5238 13.1017 12.7215 12.0014 13.8218C11.0362 14.7248 10.1224 15.9562 8.86529 16.4402C8.96667 15.8467 9.23567 15.2682 9.67634 14.8059H9.67769C10.8037 13.6812 12.027 12.4593 13.153 11.3319C13.6126 10.8723 14.2709 10.2154 14.7292 9.75576C16.2256 8.31073 16.2242 5.7397 14.7292 4.29739ZM14.2953 14.7775C14.3169 14.7991 14.3358 14.8181 14.3588 14.8383C14.7792 15.2993 15.0387 15.8589 15.1361 16.4415C14.5886 16.2144 14.0736 15.8846 13.6262 15.448L14.2953 14.7789V14.7775ZM15.1753 17.1782C15.1563 17.4959 15.0901 17.8095 14.9752 18.1096C14.0641 17.8122 13.2058 17.308 12.4785 16.5943L13.1463 15.9265C13.7411 16.5064 14.4359 16.9241 15.1739 17.1782H15.1753ZM11.9689 17.1012L12 17.0714C12.7786 17.8365 13.6924 18.3853 14.6643 18.7179C13.4721 20.6225 10.5252 20.6238 9.333 18.7179C10.2927 18.3894 11.1944 17.8514 11.9676 17.1012H11.9689ZM19.7023 9.27183C19.459 9.02851 19.1927 8.82575 18.9088 8.66219C18.9858 8.33642 19.0399 8.00794 19.0697 7.67541C22.6315 9.28264 22.6315 14.718 19.0697 16.3253C19.0399 15.9941 18.9858 15.6643 18.9088 15.3385C21.0757 14.1219 21.4893 11.0075 19.7009 9.27183H19.7023ZM7.45406 2.48198C13.9614 -3.5644 22.6964 6.05331 16.1147 12.001C15.5794 12.5363 14.8346 13.2811 14.2993 13.8164C12.661 15.3128 11.2133 17.4378 9.0275 18.1082C8.91125 17.8095 8.84637 17.4945 8.82744 17.1769C9.55333 16.9241 10.2373 16.5159 10.824 15.9522C12.5029 14.2733 14.2453 12.5323 15.9241 10.8534C18.0045 8.77844 17.9815 5.19495 15.8768 3.14975C10.6618 -1.80036 3.19199 5.58831 8.07587 10.8561L7.4081 11.5238C4.95738 9.08799 4.97901 4.89621 7.45541 2.48198H7.45406ZM2.47962 16.547C-0.905166 13.3284 0.557429 7.26718 4.98847 5.90597C4.9344 6.25067 4.90466 6.59942 4.89925 6.94817C0.493896 8.64732 0.495248 15.3588 4.9006 17.0552C4.90331 17.404 4.93305 17.7527 4.98847 18.0974C4.06928 17.7919 3.20821 17.2769 2.47827 16.547H2.47962ZM7.45541 21.5214C4.76813 18.9179 5.04795 14.3814 7.88527 12.001C8.42056 11.4657 9.16538 10.7209 9.70067 10.1843C11.3403 8.68922 12.784 6.56022 14.9725 5.89245C15.0874 6.19254 15.1536 6.50615 15.1726 6.82381C14.4142 7.0847 13.6937 7.52537 13.0963 8.12419C11.9959 9.22452 10.7983 10.4235 9.69797 11.5225C8.64496 12.612 7.27022 13.6907 6.82144 15.1763C4.86546 20.5319 11.8838 24.9589 15.8741 20.8509C17.9801 18.8044 18.0031 15.2222 15.9214 13.1473L16.5892 12.4795C22.3395 18.6462 13.5653 27.3339 7.45136 21.5214H7.45541Z" fill="url(#paint0_linear_11638_4362)"/>
<path fill-rule="evenodd" clip-rule="evenodd" d="M35.8943 7.615H37.1451V16.3882H35.8943V7.615ZM31.5068 11.5128C31.432 11.4092 31.413 11.2808 31.4462 11.1652C31.4657 11.0971 31.5034 11.0334 31.5585 10.9819L35.1646 7.615H33.3832L30.7694 10.1367L29.2521 11.6006H29.1257V7.615H27.875V16.3882H29.1257V13.6054C29.1257 13.3819 29.2185 13.1683 29.3819 13.0158L30.0761 12.3676C30.1435 12.3046 30.226 12.2696 30.3103 12.2611C30.4307 12.2489 30.5546 12.291 30.6426 12.3833C30.6564 12.3977 30.6692 12.4132 30.681 12.43L33.4717 16.3882H35.0256L31.5068 11.5128ZM44.1359 15.0219C44.1359 15.0636 44.1021 15.0973 44.0605 15.0973C44.0517 15.0973 44.0431 15.0958 44.0351 15.0929C44.0152 15.0858 43.9987 15.0704 43.9905 15.05L41.0027 7.615H38.8677V16.3882H40.1184V8.98131C40.1184 8.93967 40.1521 8.90592 40.1938 8.90592C40.2026 8.90592 40.2111 8.90745 40.2191 8.9103C40.2391 8.91742 40.2555 8.9328 40.2637 8.9532L43.2515 16.3882H45.3866V7.615H44.1359V15.0219ZM46.4269 7.615V8.73046H48.8787C48.9776 8.73046 49.0682 8.76604 49.1383 8.8251C49.2262 8.8991 49.2821 9.00994 49.2821 9.13382V16.3882H50.5328V9.13382C50.5328 9.00994 50.5886 8.8991 50.6765 8.8251C50.7467 8.76604 50.8373 8.73046 50.9361 8.73046H53.388V7.615H46.4269ZM53.4849 9.94056C53.1652 10.5577 52.9846 11.2586 52.9846 12.0016C52.9846 14.48 54.9937 16.4891 57.4721 16.4891C59.9504 16.4891 61.9595 14.48 61.9595 12.0016C61.9595 9.52326 59.9504 7.51416 57.4721 7.51416C56.3786 7.51416 55.3766 7.90522 54.5981 8.5551C54.5304 8.61163 54.4643 8.67011 54.4001 8.73046C54.0307 9.07748 53.7201 9.48636 53.4849 9.94056ZM57.4721 15.279C59.2821 15.279 60.7494 13.8117 60.7494 12.0016C60.7494 10.1916 59.2821 8.72426 57.4721 8.72426C55.662 8.72426 54.1947 10.1916 54.1947 12.0016C54.1947 13.8117 55.662 15.279 57.4721 15.279Z" fill="url(#paint1_linear_11638_4362)"/>
</g>
<defs>
<linearGradient id="paint0_linear_11638_4362" x1="1.50868" y1="24" x2="23.9997" y2="24" gradientUnits="userSpaceOnUse">
<stop stop-color="#CCCCCC"/>
<stop offset="0.171875" stop-color="#BDBDBD"/>
<stop offset="1" stop-color="#AFAFAF"/>
</linearGradient>
<linearGradient id="paint1_linear_11638_4362" x1="30.0176" y1="16.4891" x2="61.9595" y2="16.4891" gradientUnits="userSpaceOnUse">
<stop stop-color="#CCCCCC"/>
<stop offset="0.171875" stop-color="#BDBDBD"/>
<stop offset="1" stop-color="#AFAFAF"/>
</linearGradient>
<clipPath id="clip0_11638_4362">
<rect width="61.9595" height="24" fill="white"/>
</clipPath>
</defs>
</svg>
