<svg width="64" height="24" viewBox="0 0 64 24" fill="none" xmlns="http://www.w3.org/2000/svg">
<g clip-path="url(#clip0_11638_4373)">
<path d="M18.7209 18.8503C25.5406 17.1052 25.5379 6.89004 18.7196 5.14899C16.9919 -1.71926 6.84162 -1.71385 5.11523 5.15034C-1.70575 6.8914 -1.7044 17.1133 5.11523 18.8503C6.8443 25.7186 16.9945 25.7145 18.7209 18.8503ZM21.3709 7.45508C24.7324 10.6749 23.2799 16.7321 18.882 18.0961C18.9357 17.7514 18.9653 17.4026 18.9679 17.0539C23.3416 15.3547 23.3416 8.64867 18.9679 6.94817C18.9639 6.60077 18.9344 6.25202 18.8793 5.90597C19.7909 6.21011 20.6473 6.72783 21.3696 7.45643L21.3709 7.45508ZM16.9516 11.9997C17.7114 11.2211 18.2564 10.3073 18.5867 9.33536C20.4769 10.5263 20.4782 13.4731 18.5867 14.664C18.2578 13.6934 17.7101 12.7756 16.9516 11.9997ZM16.5542 15.844C17.792 20.3832 11.7644 23.8261 8.54115 20.3738C6.49527 18.3921 6.79329 14.914 8.96805 13.1473C9.24862 12.8715 9.83125 12.2727 10.1064 11.9997C10.8193 11.2832 11.6785 10.4168 12.39 9.70033C13.1699 8.93119 13.9888 7.94035 15.0292 7.55781C14.9285 8.14988 14.6627 8.73518 14.2224 9.19478C14.1982 9.21911 14.17 9.24479 14.1459 9.26912C13.0531 10.3695 11.8637 11.5685 10.771 12.6674C10.3159 13.127 9.66076 13.784 9.20567 14.2436C7.72092 15.6913 7.71958 18.2583 9.20567 19.7019C12.7766 23.184 18.0564 18.0068 14.7003 14.322L14.6721 14.2922L15.3366 13.6231C15.9474 14.2544 16.3515 15.0073 16.5529 15.8413L16.5542 15.844ZM4.89507 16.3266C1.35503 14.7221 1.35638 9.28264 4.89372 7.67676C4.9246 8.00794 4.97696 8.33777 5.05348 8.66354C2.53504 10.0545 2.53639 13.9516 5.05348 15.3425C4.97696 15.667 4.9246 15.9968 4.89507 16.328V16.3266ZM4.73934 14.253C3.3244 12.8607 3.58081 10.4073 5.24545 9.33671C5.57435 10.3073 6.12206 11.2251 6.88189 12.001C6.12206 12.7796 5.57703 13.6934 5.24679 14.6667C5.0669 14.5491 4.89775 14.4098 4.73934 14.2517V14.253ZM9.63793 9.22587C9.17882 8.77033 8.90496 8.16474 8.80159 7.56186C9.34662 7.78761 9.85675 8.11878 10.3024 8.55675L9.63793 9.22587ZM8.76266 6.82516C8.78279 6.50885 8.84858 6.19389 8.96134 5.8938C9.86749 6.18984 10.7186 6.69539 11.4408 7.40912L10.7777 8.07688C10.187 7.49698 9.49698 7.07929 8.76266 6.82381V6.82516ZM11.9161 6.93195C11.1428 6.16686 10.2353 5.61805 9.2701 5.28552C10.4528 3.38225 13.3793 3.3809 14.562 5.28552C13.5982 5.61669 12.6853 6.16956 11.9161 6.9333V6.93195ZM14.6278 4.29739C11.0542 0.813923 5.77974 5.99248 9.13183 9.67735L9.16137 9.70844L8.49685 10.3776C4.22921 5.81405 10.8099 -0.735183 15.2923 3.62827C17.1409 5.43015 17.1422 8.62164 15.2923 10.4249C14.2009 11.5238 13.0115 12.7215 11.9188 13.8218C10.9602 14.7248 10.0528 15.9562 8.80427 16.4402C8.90496 15.8467 9.1721 15.2682 9.60974 14.8059H9.61109C10.7293 13.6812 11.9443 12.4593 13.0625 11.3319C13.519 10.8723 14.1727 10.2154 14.6278 9.75576C16.1139 8.31073 16.1126 5.7397 14.6278 4.29739ZM14.1969 14.7775C14.2184 14.7991 14.2372 14.8181 14.26 14.8383C14.6775 15.2993 14.9352 15.8589 15.0319 16.4415C14.4882 16.2144 13.9767 15.8846 13.5324 15.448L14.1969 14.7789V14.7775ZM15.0708 17.1782C15.052 17.4959 14.9862 17.8095 14.8721 18.1096C13.9673 17.8122 13.1149 17.308 12.3926 16.5943L13.0558 15.9265C13.6465 16.5064 14.3365 16.9241 15.0695 17.1782H15.0708ZM11.8865 17.1012L11.9174 17.0714C12.6907 17.8365 13.5982 18.3853 14.5634 18.7179C13.3793 20.6225 10.4528 20.6238 9.26876 18.7179C10.2219 18.3894 11.1173 17.8514 11.8852 17.1012H11.8865ZM19.5667 9.27183C19.325 9.02851 19.0606 8.82575 18.7787 8.66219C18.8552 8.33642 18.9089 8.00794 18.9384 7.67541C22.4758 9.28264 22.4758 14.718 18.9384 16.3253C18.9089 15.9941 18.8552 15.6643 18.7787 15.3385C20.9306 14.1219 21.3414 11.0075 19.5653 9.27183H19.5667ZM7.40276 2.48198C13.8653 -3.5644 22.5402 6.05331 16.0038 12.001C15.4722 12.5363 14.7325 13.2811 14.2009 13.8164C12.5739 15.3128 11.1361 17.4378 8.96537 18.1082C8.84992 17.8095 8.78548 17.4945 8.76669 17.1769C9.48758 16.9241 10.1669 16.5159 10.7495 15.9522C12.4168 14.2733 14.1472 12.5323 15.8145 10.8534C17.8806 8.77844 17.8577 5.19495 15.7675 3.14975C10.5884 -1.80036 3.17002 5.58831 8.02029 10.8561L7.35712 11.5238C4.92326 9.08799 4.94474 4.89621 7.4041 2.48198H7.40276ZM2.46255 16.547C-0.898937 13.3284 0.553592 7.26718 4.95413 5.90597C4.90044 6.25067 4.8709 6.59942 4.86553 6.94817C0.490497 8.64732 0.491839 15.3588 4.86688 17.0552C4.86956 17.404 4.89909 17.7527 4.95413 18.0974C4.04127 17.7919 3.18613 17.2769 2.46121 16.547H2.46255ZM7.4041 21.5214C4.73532 18.9179 5.0132 14.3814 7.831 12.001C8.36261 11.4657 9.1023 10.7209 9.63391 10.1843C11.2623 8.68922 12.696 6.56022 14.8695 5.89245C14.9836 6.19254 15.0493 6.50615 15.0681 6.82381C14.315 7.0847 13.5995 7.52537 13.0061 8.12419C11.9134 9.22452 10.724 10.4235 9.63122 11.5225C8.58546 12.612 7.22019 13.6907 6.77449 15.1763C4.83197 20.5319 11.802 24.9589 15.7649 20.8509C17.8564 18.8044 17.8792 15.2222 15.8119 13.1473L16.475 12.4795C22.1858 18.6462 13.472 27.3339 7.40007 21.5214H7.4041Z" fill="#0D0D0D"/>
<path fill-rule="evenodd" clip-rule="evenodd" d="M37.7763 7.71234H39.0214V16.2876H37.7763V7.71234ZM33.4085 11.5222C33.334 11.4209 33.3152 11.2954 33.3482 11.1825C33.3676 11.1158 33.4052 11.0536 33.46 11.0033L37.0498 7.71234H35.2765L32.6744 10.1772L31.1639 11.608H31.0382V7.71234H29.7931V16.2876H31.0382V13.5676C31.0382 13.3491 31.1305 13.1404 31.2932 12.9912L31.9842 12.3577C32.0514 12.2962 32.1335 12.2619 32.2174 12.2536C32.3373 12.2417 32.4606 12.2828 32.5483 12.373C32.5619 12.3871 32.5747 12.4023 32.5865 12.4187L35.3646 16.2876H36.9115L33.4085 11.5222ZM45.9807 14.9521C45.9807 14.9928 45.9471 15.0258 45.9057 15.0258C45.8969 15.0258 45.8884 15.0243 45.8805 15.0215C45.8606 15.0146 45.8442 14.9996 45.8361 14.9796L42.8617 7.71234H40.7363V16.2876H41.9814V9.04781C41.9814 9.00712 42.015 8.97413 42.0564 8.97413C42.0652 8.97413 42.0737 8.97562 42.0816 8.97841C42.1015 8.98537 42.1179 9.0004 42.126 9.02034L45.1004 16.2876H47.2258V7.71234H45.9807V14.9521ZM48.2614 7.71234V8.80262H50.7022C50.8006 8.80262 50.8908 8.8374 50.9607 8.89513C51.0482 8.96746 51.1038 9.0758 51.1038 9.19689V16.2876H52.3488V9.19689C52.3488 9.0758 52.4044 8.96746 52.4919 8.89513C52.5618 8.8374 52.652 8.80262 52.7504 8.80262H55.1912V7.71234H48.2614ZM55.2876 9.98542C54.9694 10.5887 54.7896 11.2737 54.7896 12C54.7896 14.4224 56.7897 16.3862 59.2569 16.3862C61.7241 16.3862 63.7241 14.4224 63.7241 12C63.7241 9.57754 61.7241 7.61377 59.2569 7.61377C58.1684 7.61377 57.1708 7.99601 56.3958 8.63123C56.3284 8.68647 56.2627 8.74363 56.1988 8.80262C55.831 9.14182 55.5218 9.54147 55.2876 9.98542ZM59.2569 15.2034C61.0588 15.2034 62.5195 13.7692 62.5195 12C62.5195 10.2308 61.0588 8.79657 59.2569 8.79657C57.455 8.79657 55.9943 10.2308 55.9943 12C55.9943 13.7692 57.455 15.2034 59.2569 15.2034Z" fill="#0D0D0D"/>
</g>
<defs>
<clipPath id="clip0_11638_4373">
<rect width="63.7241" height="24" fill="white"/>
</clipPath>
</defs>
</svg>
