<svg width="63" height="24" viewBox="0 0 63 24" fill="none" xmlns="http://www.w3.org/2000/svg">
<path d="M20.994 22.5965C21.7553 21.802 22.2528 20.7237 22.3948 19.56C22.4211 19.3439 22.4943 18.7489 22.5973 17.9156C24.1954 4.95351 24.1954 4.80879 24.1954 4.60873C24.1954 4.55948 24.1945 4.50848 24.1928 4.45749C24.1516 3.17784 23.5634 1.96357 22.5794 1.125C21.58 0.273362 20.258 -0.12413 18.9519 0.0340817L4.05836 1.84241C2.18193 2.07036 0.610132 3.43063 0.146835 5.22763C0.0495296 5.60465 0 5.99426 0 6.38565C0 6.43535 0.000876628 6.48638 0.00262989 6.53909C0.0574195 8.2036 1.03749 9.7068 2.5602 10.4621C4.27489 11.2654 7.7319 12.1938 9.7858 14.2362C11.8397 16.2785 12.7681 19.7117 13.5759 21.4163L13.5816 21.4272C14.3443 22.9557 15.8653 23.9407 17.5519 23.9974C17.6053 23.9991 17.6588 24 17.7119 24C18.9606 24 20.1261 23.5014 20.9935 22.5957L20.994 22.5965Z" fill="url(#paint0_linear_11932_20936)"/>
<path opacity="0.4" d="M14.7317 19.3625C14.7317 20.9991 16.0712 22.3276 17.7114 22.3276C19.3515 22.3276 20.6958 20.9944 20.6958 19.3625C20.6958 17.7307 19.3564 16.3975 17.7114 16.3975C16.0668 16.3975 14.7317 17.7307 14.7317 19.3625Z" fill="white"/>
<path opacity="0.4" d="M16.519 4.63706C16.519 6.27368 17.8586 7.60213 19.4987 7.60213C21.1389 7.60213 22.4832 6.26887 22.4832 4.63706C22.4832 3.00525 21.1437 1.672 19.4987 1.672C17.8542 1.672 16.519 3.00525 16.519 4.63706Z" fill="white"/>
<path opacity="0.4" d="M1.71265 6.41441C1.71265 8.05103 3.05214 9.37949 4.69713 9.37949C6.34215 9.37949 7.67681 8.04622 7.67681 6.41441C7.67681 4.7826 6.33729 3.44934 4.69713 3.44934C3.05696 3.44934 1.71265 4.7826 1.71265 6.41441Z" fill="white"/>
<path d="M31.9226 19.2666V4.39784H34.0467V10.7489L39.9942 4.39784H42.6493L36.0859 11.3224L42.7555 19.2666H40.1004L34.2591 12.3632L34.0467 12.5756V19.2666H31.9226ZM43.1045 19.2666V8.73101H45.2286V19.2666H43.1045ZM44.1666 6.84056C43.7559 6.84056 43.4161 6.71311 43.147 6.45822C42.8779 6.18918 42.7434 5.86347 42.7434 5.48113C42.7434 5.09879 42.8779 4.78018 43.147 4.52528C43.4161 4.25623 43.7559 4.1217 44.1666 4.1217C44.5631 4.1217 44.8958 4.25623 45.1649 4.52528C45.434 4.78018 45.5685 5.09879 45.5685 5.48113C45.5685 5.86347 45.434 6.18918 45.1649 6.45822C44.8958 6.71311 44.5631 6.84056 44.1666 6.84056ZM50.6832 19.2666C50.0177 19.2666 49.4371 19.1604 48.9415 18.9479C48.4458 18.7355 48.0635 18.3815 47.7945 17.8859C47.5254 17.3902 47.3909 16.7176 47.3909 15.868V10.3453H45.5642V8.73101H47.3909L47.6458 6.09712H49.515V8.73101H52.5312V10.3453H49.515V15.8892C49.515 16.5406 49.6353 16.9867 49.8761 17.2274C50.131 17.454 50.577 17.5673 51.2143 17.5673H52.3825V19.2666H50.6832ZM57.2478 19.5215C56.2143 19.5215 55.3008 19.2949 54.5078 18.8417C53.7148 18.3744 53.0917 17.7301 52.6386 16.9088C52.1854 16.0875 51.9589 15.1246 51.9589 14.02C51.9589 12.9155 52.1784 11.9525 52.6174 11.1312C53.0705 10.2957 53.6935 9.64437 54.4866 9.17707C55.2937 8.70977 56.221 8.47611 57.2691 8.47611C58.3172 8.47611 59.216 8.70977 59.9667 9.17707C60.7174 9.63023 61.2976 10.232 61.7085 10.9826C62.1333 11.7331 62.3457 12.5685 62.3457 13.489C62.3457 13.6306 62.3384 13.7864 62.3244 13.9563C62.3244 14.1262 62.3172 14.3033 62.3032 14.4873H53.5095V13.0005H60.2216C60.1791 12.1083 59.8817 11.4145 59.3295 10.9188C58.7772 10.409 58.0835 10.1542 57.2478 10.1542C56.6671 10.1542 56.1293 10.2816 55.6336 10.5365C55.1521 10.7772 54.7627 11.1525 54.4653 11.6623C54.1821 12.1721 54.0405 12.8164 54.0405 13.5952V14.19C54.0405 14.9688 54.1892 15.6272 54.4866 16.1654C54.7839 16.6893 55.1734 17.0858 55.6548 17.3549C56.1506 17.6239 56.6743 17.7584 57.2266 17.7584C57.9063 17.7584 58.4658 17.6098 58.9046 17.3124C59.358 17.0009 59.6906 16.5831 59.903 16.0592H62.0271C61.8432 16.7247 61.5313 17.3195 61.0925 17.8434C60.6537 18.3532 60.1081 18.7639 59.4569 19.0754C58.8197 19.3728 58.0835 19.5215 57.2478 19.5215Z" fill="black"/>
<defs>
<linearGradient id="paint0_linear_11932_20936" x1="5.11462" y1="16.0984" x2="20.5423" y2="-2.01231" gradientUnits="userSpaceOnUse">
<stop stop-color="#9B8564"/>
<stop offset="1" stop-color="#DBD5C7"/>
</linearGradient>
</defs>
</svg>
