<svg width="63" height="24" viewBox="0 0 63 24" fill="none" xmlns="http://www.w3.org/2000/svg">
<g clip-path="url(#clip0_11932_20923)">
<path d="M18.9512 0.0340873C20.2573 -0.124124 21.5798 0.273264 22.5791 1.12491C23.5631 1.96341 24.1511 3.17741 24.1924 4.45694C24.1941 4.50788 24.1953 4.5591 24.1953 4.60831C24.1953 4.80835 24.1957 4.95327 22.5977 17.9149C22.4947 18.748 22.4208 19.3431 22.3945 19.5595C22.2525 20.7231 21.7545 21.8021 20.9932 22.5966V22.5956C20.1258 23.501 18.9604 23.9999 17.7119 23.9999C17.6589 23.9999 17.6052 23.9988 17.5518 23.997C15.8652 23.9403 14.3447 22.955 13.582 21.4267L13.5762 21.4159C12.7684 19.7114 11.8397 16.2785 9.78613 14.2362C7.73235 12.194 4.27536 11.265 2.56055 10.4618C1.03799 9.70654 0.0578085 8.20331 0.00292969 6.53897C0.00117788 6.48628 0 6.43434 0 6.38467C5.90462e-05 5.99361 0.0492741 5.60416 0.146484 5.22745C0.609791 3.43049 2.18219 2.07062 4.05859 1.84268L18.9512 0.0340873ZM17.7119 16.3974C16.0676 16.3974 14.7328 17.7307 14.7324 19.3622C14.7325 20.9988 16.0718 22.328 17.7119 22.328C19.3519 22.3279 20.6962 20.9939 20.6963 19.3622C20.6959 17.7308 19.3566 16.3976 17.7119 16.3974ZM57.2686 8.47549C58.3166 8.47549 59.2161 8.70937 59.9668 9.17667C60.7174 9.62979 61.2972 10.2319 61.708 10.9823C62.1328 11.7329 62.3457 12.5687 62.3457 13.4892C62.3457 13.6306 62.3382 13.7862 62.3242 13.956C62.3242 14.1259 62.3167 14.3031 62.3027 14.4872H54.0479C54.0815 15.1376 54.2276 15.6968 54.4863 16.1649C54.7836 16.6888 55.173 17.0854 55.6543 17.3544C56.1502 17.6234 56.6743 17.7587 57.2266 17.7587C57.9061 17.7587 58.4656 17.6097 58.9043 17.3124C59.3576 17.0009 59.6899 16.5824 59.9023 16.0585H62.0273C61.8434 16.7241 61.5316 17.3197 61.0928 17.8437C60.654 18.3534 60.1081 18.7636 59.457 19.0751C58.8199 19.3724 58.0836 19.5213 57.248 19.5214C56.2146 19.5214 55.3008 19.2947 54.5078 18.8417C53.7149 18.3744 53.0918 17.7294 52.6387 16.9081C52.1856 16.0869 51.959 15.1239 51.959 14.0194C51.959 12.9151 52.1783 11.952 52.6172 11.1308C53.0703 10.2954 53.6935 9.64391 54.4863 9.17667C55.2934 8.70948 56.2207 8.47555 57.2686 8.47549ZM34.0469 10.7489L39.9941 4.39737H42.6494L36.0859 11.3222L42.7549 19.2665H40.1006L34.2588 12.3632L34.0469 12.5751V19.2665H31.9229V4.39737H34.0469V10.7489ZM45.2285 19.2665H43.1045V8.73038H45.2285V19.2665ZM49.5146 8.73038H52.5312V10.3456H49.5146V15.8886C49.5146 16.5399 49.6352 16.9867 49.876 17.2274C50.1309 17.4539 50.5769 17.5673 51.2139 17.5673H52.3818V19.2665H50.6826C50.0173 19.2665 49.4368 19.1604 48.9414 18.9481C48.4458 18.7357 48.063 18.3813 47.7939 17.8856C47.5249 17.3901 47.3907 16.7175 47.3906 15.8681V10.3456H45.5635V8.73038H47.3906L47.6455 6.09659H49.5146V8.73038ZM57.248 10.1542C56.6673 10.1542 56.1287 10.2811 55.6328 10.536C55.1515 10.7768 54.7622 11.1523 54.4648 11.662C54.2573 12.0357 54.1267 12.4817 54.0713 12.9999H60.2217C60.1791 12.1079 59.8813 11.4144 59.3291 10.9189C58.7769 10.4091 58.0835 10.1543 57.248 10.1542ZM4.69727 3.44815C3.05727 3.44826 1.71301 4.78233 1.71289 6.41397C1.71321 8.05026 3.05256 9.3787 4.69727 9.37881C6.34202 9.37879 7.67645 8.04549 7.67676 6.41397C7.67665 4.78229 6.33731 3.44818 4.69727 3.44815ZM19.499 1.67178C17.8545 1.6718 16.5197 3.00591 16.5195 4.6376C16.5198 6.27394 17.859 7.60243 19.499 7.60245C21.1389 7.60228 22.4831 6.26909 22.4834 4.6376C22.4832 3.00599 21.1438 1.67192 19.499 1.67178ZM44.166 4.12198C44.5625 4.12198 44.896 4.25625 45.165 4.5253C45.4339 4.78015 45.5684 5.09915 45.5684 5.48135C45.5683 5.86341 45.4338 6.18902 45.165 6.45792C44.896 6.71281 44.5625 6.84073 44.166 6.84073C43.7555 6.84066 43.4154 6.71274 43.1465 6.45792C42.8777 6.18901 42.7433 5.86342 42.7432 5.48135C42.7432 5.09913 42.8776 4.78015 43.1465 4.5253C43.4154 4.25632 43.7555 4.12205 44.166 4.12198Z" fill="white"/>
</g>
<defs>
<clipPath id="clip0_11932_20923">
<rect width="63" height="24" fill="white"/>
</clipPath>
</defs>
</svg>
