<svg width="97" height="24" viewBox="0 0 97 24" fill="none" xmlns="http://www.w3.org/2000/svg">
<g clip-path="url(#clip0_11932_20936)">
<path d="M48.2395 5.35164C48.2395 4.4491 48.9023 3.84741 49.8441 3.84741C50.7858 3.84741 51.4486 4.4491 51.4486 5.35164C51.4486 6.25418 50.7858 6.87767 49.8441 6.87767C48.9023 6.87767 48.2395 6.29778 48.2395 5.35164ZM48.5403 8.34701H51.1476V18.8373H48.5403V8.34701Z" fill="#1E1E1E"/>
<path d="M43.448 18.8853L39.4803 12.6591L37.8627 14.4903V18.8853H35.1899V4.83716H37.8627V10.7581H37.9848L43.1166 4.83716H46.3431L41.2723 10.6142L46.5436 18.8853H43.448Z" fill="#1E1E1E"/>
<path d="M55.63 15.3754V10.5663H53.7422V8.35132H54.9543C55.4164 8.35132 55.7172 8.05047 55.7172 7.54907V5.41699H58.2418V8.32952H60.8099V10.5663H58.2418V15.1749C58.2418 16.0599 58.6821 16.5134 59.685 16.5134H60.7488V18.8853H59.1444C56.9556 18.8853 55.63 17.6427 55.63 15.3711V15.3754Z" fill="#1E1E1E"/>
<path d="M70.7767 15.5325C70.2405 16.3652 69.4687 17.041 68.0866 17.041C66.3993 17.041 65.3267 16.0033 65.2481 14.3945H73.1399V13.5486C73.1399 10.5795 71.2956 8.06799 67.8991 8.06799C64.8078 8.06799 62.5798 10.3352 62.5798 13.6663C62.5798 16.8187 64.895 19.147 68.0038 19.147C70.2972 19.147 71.9234 18.1965 72.7606 16.6878L70.7767 15.5325ZM67.9035 10.1957C69.3772 10.1957 70.441 11.0677 70.5587 12.4935H65.2481C65.4052 11.168 66.4865 10.1957 67.9035 10.1957Z" fill="#1E1E1E"/>
<path d="M84.6491 4.84497H88.0007L93.0171 18.8921H90.1886L89.2035 16.1244H83.3633L82.4001 18.8921H79.6499L84.6491 4.84497ZM88.4409 13.7317L86.3749 7.81304H86.2137L84.1478 13.7317H88.4409Z" fill="#1E1E1E"/>
<path d="M94.5947 4.84497H97.2622V18.8921H94.5947V4.84497Z" fill="#1E1E1E"/>
<path opacity="0.2" d="M21.2144 2.78943L2.7854 5.00851" stroke="url(#paint0_linear_11932_20936)" stroke-width="5.57548" stroke-miterlimit="10"/>
<path opacity="0.2" d="M21.2143 2.78943L18.9905 21.3398" stroke="url(#paint1_linear_11932_20936)" stroke-width="5.57548" stroke-miterlimit="10"/>
<path opacity="0.2" d="M2.7854 5.00854L13.6779 10.3246" stroke="url(#paint2_linear_11932_20936)" stroke-width="5.57548" stroke-miterlimit="10"/>
<path opacity="0.2" d="M18.9905 21.3396L13.678 10.3245" stroke="url(#paint3_linear_11932_20936)" stroke-width="5.57548" stroke-miterlimit="10"/>
<path d="M2.78552 7.79796C1.24791 7.79796 0 6.54583 0 5.01296C0 3.4801 1.25236 2.22351 2.78552 2.22351C4.31866 2.22351 5.57102 3.47564 5.57102 5.01296C5.57102 6.55029 4.31866 7.79796 2.78552 7.79796Z" fill="#975EEB"/>
<path d="M21.2145 5.57445C19.6768 5.57445 18.429 4.32232 18.429 2.78946C18.429 1.25659 19.6814 0 21.2145 0C22.7476 0 24 1.25215 24 2.78946C24 4.32678 22.7476 5.57445 21.2145 5.57445Z" fill="#00AAFF"/>
<path d="M18.9904 24C17.4528 24 16.2048 22.7478 16.2048 21.2106C16.2048 19.6731 17.4573 18.4255 18.9904 18.4255C20.5236 18.4255 21.7759 19.6777 21.7759 21.2106C21.7759 22.7434 20.5236 24 18.9904 24Z" fill="#FF4053"/>
<path d="M13.6779 13.1093C12.1403 13.1093 10.8923 11.8573 10.8923 10.3245C10.8923 8.79156 12.1448 7.53943 13.6779 7.53943C15.2111 7.53943 16.4679 8.79156 16.4679 10.3245C16.4679 11.8573 15.2155 13.1093 13.6779 13.1093Z" fill="#04E062"/>
</g>
<defs>
<linearGradient id="paint0_linear_11932_20936" x1="2.7854" y1="3.89896" x2="21.2144" y2="3.89896" gradientUnits="userSpaceOnUse">
<stop stop-color="#975EEB"/>
<stop offset="1" stop-color="#00AAFF"/>
</linearGradient>
<linearGradient id="paint1_linear_11932_20936" x1="21.3926" y1="2.67358" x2="19.165" y2="21.3888" gradientUnits="userSpaceOnUse">
<stop stop-color="#00AAFF"/>
<stop offset="1" stop-color="#FF4053"/>
</linearGradient>
<linearGradient id="paint2_linear_11932_20936" x1="2.67398" y1="4.9016" x2="13.8153" y2="10.2503" gradientUnits="userSpaceOnUse">
<stop stop-color="#975EEB"/>
<stop offset="1" stop-color="#04E062"/>
</linearGradient>
<linearGradient id="paint3_linear_11932_20936" x1="13.8161" y1="10.2487" x2="18.7171" y2="21.3893" gradientUnits="userSpaceOnUse">
<stop stop-color="#04E062"/>
<stop offset="1" stop-color="#FF4053"/>
</linearGradient>
<clipPath id="clip0_11932_20936">
<rect width="97" height="24" fill="white"/>
</clipPath>
</defs>
</svg>
