<?xml version="1.0" encoding="utf-8"?>
<!-- Generator: Adobe Illustrator 28.1.0, SVG Export Plug-In . SVG Version: 6.00 Build 0)  -->
<svg version="1.1" id="Layer_1" xmlns="http://www.w3.org/2000/svg" xmlns:xlink="http://www.w3.org/1999/xlink" x="0px" y="0px"
	 viewBox="0 0 500 200" style="enable-background:new 0 0 500 200;" xml:space="preserve">
<style type="text/css">
	.st0{fill:#FFFFFF;}
</style>
<g>
	<g>
		<path class="st0" d="M209.8,182.1c0,0.4,0.3,0.7,0.7,0.7h26.8h39.3c0.4,0,0.7-0.3,0.7-0.7v-26.3c0-0.4-0.3-0.7-0.7-0.7h-38.5
			c-0.4,0-0.7-0.3-0.7-0.7l-0.1-85.8c0-0.6-0.8-0.9-1.2-0.5L210,97.5c-0.1,0.1-0.2,0.3-0.2,0.5V182.1"/>
		<path class="st0" d="M315.3,182l-0.1-80.3c0-0.6-0.8-0.9-1.2-0.4l-26.1,29.3c-0.1,0.1-0.2,0.3-0.2,0.5v51c0,0.4,0.3,0.7,0.7,0.7
			l26.2,0C315,182.7,315.3,182.4,315.3,182"/>
		<path class="st0" d="M456.9,141.7c-0.2-0.2-0.2-0.5,0-0.8l26.9-40c0.3-0.4,0-1.1-0.6-1.1H453c-0.2,0-0.5,0.1-0.6,0.3l-19.9,32.2
			c-0.4,0.6-1.3,0.3-1.3-0.4l0-63.5c0-0.6-0.8-0.9-1.2-0.4L404,97.5c-0.1,0.1-0.2,0.3-0.2,0.5v84.1c0,0.4,0.3,0.7,0.7,0.7h26.1
			c0.4,0,0.7-0.3,0.7-0.7l0.1-27l0-5.3c0-0.7,0.9-0.9,1.2-0.4l22,33c0.1,0.2,0.3,0.3,0.6,0.3h29.1c0.5,0,0.9-0.6,0.6-1.1
			L456.9,141.7z"/>
		<path class="st0" d="M365.9,130.6c-6.8-1.6-12.1-2.8-12.1-6.5c0-2.9,2.6-4.6,6.8-4.6c4.4,0,7.8,2.1,10.3,6.4
			c0.2,0.3,0.5,0.4,0.9,0.3l20.7-9.3c0.4-0.2,0.5-0.6,0.3-1c-6.4-11.7-17.4-17.6-32.8-17.6c-22.5,0-32.6,13.6-32.6,27.1
			c0,18.5,16.4,22.7,28.4,25.8c7,1.8,12,3.1,12,6.6c0,2.3-1.4,5.1-8.1,5.1c-6.2,0-10.6-2.7-13-8.2c-0.2-0.4-0.6-0.5-0.9-0.3
			l-21.5,10.8c-0.3,0.2-0.5,0.6-0.3,0.9c6.3,12.2,18,18.1,35.9,18.1c17,0,35.1-7.1,35.1-27.1C394.8,137.3,378.1,133.4,365.9,130.6"
			/>
	</g>
	<g>
		<path class="st0" d="M75.8,191.7l24-27c0.4-0.4,0.1-1.1-0.5-1.1H72.9c-0.2,0-0.4-0.1-0.5-0.2L50,138.2c-0.2-0.2-0.2-0.5-0.1-0.8
			l37.4-64.3c0.1-0.2,0.1-0.5,0-0.7L71.8,45.6c-0.3-0.4-0.9-0.4-1.2,0l-55.5,95.3c-0.1,0.3-0.1,0.6,0.1,0.8l44.5,50
			c0.1,0.1,0.3,0.2,0.5,0.2h15.1C75.5,191.9,75.7,191.8,75.8,191.7"/>
		<path class="st0" d="M92.3,8.4L76.7,35.2c-0.1,0.2-0.1,0.5,0,0.7l16.2,27.8l42.9,73.7c0.1,0.3,0.1,0.6-0.1,0.8l-22.6,25.4h0
			l-24.2,27.2c-0.4,0.4-0.1,1.1,0.5,1.1h36.1c0.2,0,0.4-0.1,0.5-0.2l44.5-50c0.2-0.2,0.2-0.5,0.1-0.8L93.5,8.4
			C93.2,8,92.5,8,92.3,8.4"/>
	</g>
</g>
</svg>
