<svg xmlns="http://www.w3.org/2000/svg" fill="none" viewBox="0 0 134 24">
  <mask id="mega-eth-dark_svg__a" width="134" height="17" x="0" y="3" maskUnits="userSpaceOnUse" style="mask-type:luminance">
    <path fill="#fff" d="M134 3H0v16.826h134V3Z"/>
  </mask>
  <g fill="#DED9D9" mask="url(#mega-eth-dark_svg__a)">
    <path d="M130.295 6.935h-.008l-.63-1.85h-.834v2.651c.143-.076.306-.14.484-.192V5.89l.008-.212.738 1.746c.096-.008.123-.01.221-.01.099 0 .124.004.22.01l.738-1.766.008.213v1.674c.176.052.339.116.484.192v-2.65h-.834l-.596 1.85h.001ZM129.605 8.745a.324.324 0 1 0 0-.648.324.324 0 0 0 0 .648ZM130.944 8.745a.324.324 0 1 0 0-.648.324.324 0 0 0 0 .648Z"/>
    <path d="M130.274 3a3.728 3.728 0 0 0-3.726 3.722 3.728 3.728 0 0 0 3.726 3.723A3.728 3.728 0 0 0 134 6.722 3.728 3.728 0 0 0 130.274 3Zm0 6.948a3.23 3.23 0 0 1-3.229-3.226 3.23 3.23 0 0 1 3.229-3.226 3.23 3.23 0 0 1 3.229 3.226 3.23 3.23 0 0 1-3.229 3.226ZM18.035 7.124v12.683H11.14v-4.231l-2.13 2.534-2.114-2.517v4.214H0V7.124h6.897v.017L9.01 9.658l2.13-2.526v-.01h6.897l-.002.002ZM26.329 9.658v2.545h9.018v2.535h-9.018v2.534h9.018v2.535H19.432V7.124h15.915v2.534h-9.018ZM52.427 7.141v2.535h-7.7a1.31 1.31 0 0 0-.928.38c-.26.247-.39.545-.39.893l-.007 5.273c.011.324.129.58.353.768.217.183.506.277.866.282h.911v-5.051h6.897v7.605H37.956c-.395 0-.733-.135-1.016-.406a1.28 1.28 0 0 1-.424-.971V8.52c0-.384.142-.706.424-.972.283-.27.621-.406 1.017-.406h14.472l-.002-.002ZM64.327 17.272h-3.182l-.53 2.535h-6.897l2.651-12.683H69.1l2.653 12.683h-6.897l-.53-2.535h.002Zm-.53-2.534-1.061-5.08-1.062 5.08h2.123ZM79.94 9.658v2.545h9.018v2.535H79.94v2.534h9.018v2.535H73.043V7.124h15.915v2.534H79.94ZM106.075 9.658h-4.51v10.15H94.67V9.657h-4.51V7.124h15.915v2.534ZM125.348 7.124v12.683h-6.895v-5.07h-4.243v5.07h-6.897V7.124h6.897v5.079h4.243v-5.08h6.895Z"/>
  </g>
</svg>
