<svg xmlns="http://www.w3.org/2000/svg" fill="none" viewBox="0 0 138 24">
  <path fill="#dfd9d9" d="M18.418 7.048V20h-7.043v-4.321l-2.176 2.589-2.158-2.57V20H0V7.048h7.043v.017l2.158 2.57 2.176-2.58v-.01h7.043zm35.317 2.587h-7.863q-.561.008-.948.388a1.21 1.21 0 0 0-.398.912l-.007 5.384q.017.495.36.785.333.28.885.288h.93v-5.16h7.043V20H38.958q-.605 0-1.038-.415-.432-.404-.433-.992V8.455q0-.587.433-.993a1.45 1.45 0 0 1 1.038-.414h14.777zm-17.656 0H26.87v2.598h9.21v2.59h-9.21v2.587h9.21V20H19.826V7.047H36.08zm37.482 10.364H66.52l-.542-2.589H62.73L62.19 20h-7.044l2.708-12.952h13zm17.66-10.364h-9.208v2.598h9.209v2.59h-9.21v2.587h9.21V20H74.97V7.047h16.252zm17.66 0h-4.605v10.364h-7.042V9.635H92.63V7.047h16.252zm8.451 2.598h4.334V7.047h7.041v12.952h-7.041v-5.177h-4.334V20h-7.043V7.047h7.043zm-54.061 2.59h2.168l-1.084-5.188zM134.322 4a3.083 3.083 0 1 1 0 6.166 3.083 3.083 0 0 1 0-6.166m0 .49a2.594 2.594 0 0 0 0 5.187 2.594 2.594 0 0 0 2.593-2.593 2.6 2.6 0 0 0-2.593-2.594m-.561 3.715a.28.28 0 1 1 0 .56.28.28 0 0 1 0-.56m1.12 0a.28.28 0 1 1 0 .56.28.28 0 0 1 0-.56m-1.131-3.084c.155.437.558 1.673.588 1.743.007-.034.414-1.383.529-1.735h.856v3.076c-.106-.061-.213-.122-.327-.191-.08-.042-.154-.089-.235-.123a103.35 103.35 0 0 0-.032-1.812c-.115.356-.512 1.613-.545 1.648h-.529s-.513-1.521-.539-1.594c-.008.586-.015 1.172-.035 1.777a9 9 0 0 1-.561.287V5.121zM53.737 7.048h-.002v-.002z"/>
</svg>
