<svg width="127" height="24" viewBox="0 0 127 24" fill="none" xmlns="http://www.w3.org/2000/svg">
<g clip-path="url(#clip0_11788_59028)">
<path d="M36.7755 6.32381L39.2928 13.386L41.982 6.32381H43.3224V18.833H42.3257V13.2915L42.3943 7.78434L39.6195 15.0699H38.9491L36.389 7.91322L36.4576 13.2915V18.833H35.4526V6.32381H36.7755ZM50.1834 19.0048C49.5418 19.0048 48.9547 18.8845 48.4222 18.644C47.8893 18.4034 47.4342 18.0769 47.0562 17.6645C46.6723 17.2464 46.3744 16.7624 46.1626 16.2126C45.9506 15.657 45.8447 15.067 45.8447 14.4427V14.0733C45.8447 13.4146 45.9506 12.7989 46.1626 12.2261C46.3802 11.6476 46.6779 11.1465 47.0562 10.7226C47.4227 10.3045 47.8579 9.97516 48.362 9.7346C48.8659 9.48833 49.4101 9.36516 49.9943 9.36516C50.6072 9.36516 51.1512 9.47686 51.6266 9.70023C52.1022 9.91789 52.5031 10.2186 52.8295 10.6023C53.1559 10.9918 53.4022 11.4472 53.5685 11.9684C53.7345 12.4839 53.8204 13.0366 53.826 13.6265V14.2537H46.867V14.5372C46.8899 15.0298 46.9817 15.488 47.1421 15.9119C47.3022 16.3357 47.5286 16.7109 47.8207 17.0374C48.1072 17.3696 48.4535 17.6359 48.8603 17.8364C49.2726 18.0311 49.728 18.1285 50.2263 18.1285C50.799 18.1342 51.3175 18.0283 51.7814 17.8106C52.2453 17.5929 52.6433 17.2779 52.9755 16.8655L53.6198 17.3552C53.2705 17.8478 52.8037 18.2459 52.2195 18.5495C51.6354 18.853 50.9565 19.0048 50.1834 19.0048ZM49.9943 10.2501C49.5705 10.2501 49.1837 10.3303 48.8345 10.4906C48.4852 10.6453 48.1788 10.8601 47.9151 11.135C47.6518 11.4157 47.4342 11.7479 47.2623 12.1316C47.0905 12.5154 46.9729 12.9306 46.9098 13.3774H52.8037V13.2829C52.8037 12.9049 52.7351 12.5297 52.5975 12.1574C52.4659 11.7851 52.2826 11.4586 52.0477 11.178C51.8072 10.8973 51.5151 10.6739 51.1714 10.5078C50.8277 10.336 50.4354 10.2501 49.9943 10.2501ZM60.1802 7.15715V9.53701H63.6254V10.3876H60.1802V16.2126C60.1861 16.5734 60.2404 16.8741 60.3436 17.1147C60.4465 17.3552 60.5899 17.5471 60.7732 17.6903C60.9565 17.8392 61.1711 17.9452 61.4175 18.0082C61.6638 18.0712 61.9272 18.1027 62.2078 18.1027C62.3741 18.1027 62.5401 18.097 62.706 18.0855C62.8723 18.0683 63.0354 18.0512 63.1958 18.034C63.316 18.0168 63.4336 17.9996 63.548 17.9824C63.6685 17.9595 63.7714 17.9395 63.8574 17.9223L64.0119 18.7041C63.909 18.7556 63.7887 18.7986 63.6512 18.833C63.5195 18.8673 63.3791 18.896 63.2301 18.9189C63.0412 18.9533 62.8436 18.9762 62.6374 18.9876C62.4368 18.9991 62.2365 19.0048 62.036 19.0048C61.6236 19.0048 61.2398 18.9533 60.8846 18.8502C60.5354 18.7528 60.2319 18.5924 59.9741 18.369C59.7163 18.1514 59.5131 17.865 59.3641 17.5099C59.221 17.1548 59.1465 16.7223 59.1406 16.2126V10.3876H56.5547V9.53701H59.1406V7.15715H60.1802ZM73.6826 18.833C73.6196 18.6268 73.5709 18.4063 73.5366 18.1714C73.5078 17.9366 73.4879 17.6989 73.4764 17.4583C73.2987 17.6932 73.0896 17.908 72.8492 18.1027C72.6143 18.2917 72.3565 18.4521 72.0759 18.5838C71.7896 18.7213 71.4858 18.8244 71.1653 18.8931C70.85 18.9676 70.5207 19.0048 70.1773 19.0048C69.7477 19.0048 69.3439 18.9418 68.9659 18.8158C68.5879 18.6898 68.2612 18.5122 67.9864 18.2831C67.7113 18.054 67.4937 17.7791 67.3333 17.4583C67.1729 17.1319 67.0929 16.7682 67.0929 16.3672C67.0929 15.8346 67.2102 15.3821 67.4451 15.0098C67.6855 14.6375 68.0063 14.331 68.4072 14.0905C68.8025 13.8614 69.2635 13.6953 69.7905 13.5922C70.3175 13.4833 70.8703 13.4261 71.4486 13.4204H73.4676V12.3722C73.4621 12.0228 73.3932 11.7164 73.2615 11.4529C73.1298 11.1837 72.9495 10.9603 72.7201 10.7828C72.4911 10.6052 72.219 10.4706 71.904 10.379C71.5949 10.2816 71.2597 10.2329 70.8987 10.2329C70.5668 10.2329 70.2489 10.2759 69.9451 10.3618C69.6415 10.4477 69.3723 10.5709 69.1377 10.7312C68.9084 10.8916 68.7195 11.0892 68.5706 11.324C68.4275 11.5531 68.353 11.8138 68.3471 12.1058L67.3163 12.0972C67.3333 11.7021 67.4395 11.3384 67.6342 11.0061C67.8289 10.6739 68.0893 10.3847 68.416 10.1384C68.7424 9.89783 69.1204 9.70883 69.55 9.57138C69.9852 9.4339 70.4492 9.36516 70.9418 9.36516C71.4345 9.36516 71.8955 9.42818 72.3251 9.55419C72.7547 9.6802 73.1298 9.86633 73.4506 10.1126C73.7656 10.3704 74.0146 10.6883 74.1978 11.0663C74.387 11.4443 74.4844 11.8853 74.4902 12.3894V16.8827C74.4902 17.1977 74.5157 17.5127 74.5674 17.8278C74.6248 18.1428 74.6935 18.4435 74.7735 18.7299L74.7823 18.833H73.6826ZM70.2888 18.0855C70.6498 18.0912 70.9934 18.0512 71.3198 17.9652C71.6462 17.8736 71.9471 17.7476 72.2219 17.5872C72.497 17.4268 72.7404 17.235 72.9521 17.0116C73.1641 16.7882 73.336 16.539 73.4676 16.2641V14.2194H71.5949C71.0849 14.2251 70.6011 14.268 70.1427 14.3482C69.6847 14.4284 69.2923 14.5716 68.9659 14.7778C68.7022 14.9439 68.4932 15.1501 68.3386 15.3964C68.1896 15.637 68.1151 15.9291 68.1151 16.2727C68.1151 16.5534 68.1726 16.8054 68.287 17.0288C68.4017 17.2521 68.5562 17.4412 68.7509 17.5958C68.9456 17.7562 69.175 17.8793 69.4383 17.9652C69.7075 18.0454 69.9911 18.0855 70.2888 18.0855ZM85.3806 14.2795C85.3747 14.6632 85.3433 15.0441 85.2861 15.4221C85.2287 15.7945 85.1401 16.1496 85.0196 16.4875C84.8823 16.877 84.7017 17.235 84.4785 17.5614C84.2609 17.8822 84.0002 18.1571 83.6967 18.3862C83.4275 18.5752 83.1295 18.7241 82.8031 18.833C82.4768 18.9475 82.1157 19.0048 81.7204 19.0048C81.377 19.0048 81.0504 18.9619 80.7413 18.8759C80.4374 18.7957 80.1542 18.6783 79.8905 18.5237C79.6902 18.4091 79.504 18.2774 79.3322 18.1285C79.1659 17.9738 79.0172 17.802 78.8852 17.613L78.8424 18.833H77.8888V5.63647H78.9111V10.8257C79.0545 10.6138 79.2204 10.4191 79.4096 10.2415C79.5984 10.064 79.8017 9.91217 80.0196 9.78616C80.2656 9.65443 80.5292 9.55132 80.8099 9.47686C81.0905 9.4024 81.3885 9.36516 81.7034 9.36516C82.1272 9.36516 82.5137 9.42531 82.8633 9.5456C83.2125 9.66586 83.5219 9.83196 83.7911 10.0439C84.0489 10.2501 84.275 10.4964 84.4697 10.7828C84.6644 11.0634 84.8307 11.3727 84.9682 11.7106C85.1055 12.0657 85.2058 12.4467 85.2688 12.8533C85.3375 13.26 85.3747 13.6752 85.3806 14.0991V14.2795ZM84.3495 14.0991C84.3439 13.7955 84.321 13.4919 84.2809 13.1884C84.2407 12.8791 84.1776 12.5841 84.0917 12.3035C83.9888 11.9942 83.8542 11.7078 83.6879 11.4443C83.5278 11.1751 83.3272 10.9517 83.0867 10.7742C82.8861 10.6195 82.6542 10.4964 82.3908 10.4048C82.1331 10.3131 81.841 10.2673 81.5143 10.2673C81.1993 10.2673 80.9043 10.3131 80.6295 10.4048C80.3603 10.4964 80.1169 10.6224 79.899 10.7828C79.6759 10.9489 79.4782 11.1465 79.3064 11.3756C79.1404 11.5989 79.0084 11.8453 78.9111 12.1144V16.4016C79.0143 16.6651 79.1545 16.9028 79.3322 17.1147C79.5096 17.3209 79.7131 17.4984 79.9421 17.6473C80.1656 17.7963 80.4119 17.9108 80.6808 17.991C80.9559 18.0655 81.2395 18.1027 81.5316 18.1027C81.8638 18.1027 82.1615 18.0569 82.4251 17.9652C82.6943 17.8679 82.9292 17.7333 83.1295 17.5614C83.3586 17.3782 83.5533 17.1548 83.7137 16.8913C83.8741 16.6278 84.0031 16.3414 84.1005 16.0321C84.1864 15.7572 84.2465 15.4709 84.2809 15.173C84.321 14.8752 84.3439 14.5773 84.3495 14.2795V14.0991ZM94.7589 18.833C94.6958 18.6268 94.6471 18.4063 94.6128 18.1714C94.5841 17.9366 94.5642 17.6989 94.5527 17.4583C94.375 17.6932 94.1659 17.908 93.9254 18.1027C93.6905 18.2917 93.4328 18.4521 93.1521 18.5838C92.8659 18.7213 92.5624 18.8244 92.2416 18.8931C91.9266 18.9676 91.5973 19.0048 91.2536 19.0048C90.824 19.0048 90.4202 18.9418 90.0422 18.8158C89.6641 18.6898 89.3378 18.5122 89.0627 18.2831C88.7879 18.054 88.57 17.7791 88.4099 17.4583C88.2495 17.1319 88.1691 16.7682 88.1691 16.3672C88.1691 15.8346 88.2867 15.3821 88.5213 15.0098C88.7621 14.6375 89.0826 14.331 89.4838 14.0905C89.8788 13.8614 90.3401 13.6953 90.8668 13.5922C91.3938 13.4833 91.9466 13.4261 92.5252 13.4204H94.5442V12.3722C94.5383 12.0228 94.4697 11.7164 94.3378 11.4529C94.2061 11.1837 94.0257 10.9603 93.7967 10.7828C93.5674 10.6052 93.2955 10.4706 92.9803 10.379C92.6712 10.2816 92.336 10.2329 91.9753 10.2329C91.643 10.2329 91.3251 10.2759 91.0216 10.3618C90.7181 10.4477 90.4489 10.5709 90.214 10.7312C89.985 10.8916 89.7958 11.0892 89.6468 11.324C89.5037 11.5531 89.4293 11.8138 89.4237 12.1058L88.3926 12.0972C88.4099 11.7021 88.5158 11.3384 88.7105 11.0061C88.9052 10.6739 89.1659 10.3847 89.4923 10.1384C89.8187 9.89783 90.1967 9.70883 90.6263 9.57138C91.0618 9.4339 91.5257 9.36516 92.0181 9.36516C92.5108 9.36516 92.9718 9.42818 93.4014 9.55419C93.831 9.6802 94.2061 9.86633 94.5269 10.1126C94.8419 10.3704 95.0911 10.6883 95.2744 11.0663C95.4633 11.4443 95.5606 11.8853 95.5665 12.3894V16.8827C95.5665 17.1977 95.5923 17.5127 95.6439 17.8278C95.7011 18.1428 95.7697 18.4435 95.8501 18.7299L95.8586 18.833H94.7589ZM91.3653 18.0855C91.726 18.0912 92.0697 18.0512 92.3961 17.9652C92.7228 17.8736 93.0234 17.7476 93.2982 17.5872C93.5732 17.4268 93.8166 17.235 94.0287 17.0116C94.2404 16.7882 94.4122 16.539 94.5442 16.2641V14.2194H92.6712C92.1615 14.2251 91.6773 14.268 91.2193 14.3482C90.7609 14.4284 90.3685 14.5716 90.0422 14.7778C89.7788 14.9439 89.5697 15.1501 89.4149 15.3964C89.2659 15.637 89.1917 15.9291 89.1917 16.2727C89.1917 16.5534 89.2489 16.8054 89.3636 17.0288C89.4779 17.2521 89.6325 17.4412 89.8275 17.5958C90.0222 17.7562 90.2512 17.8793 90.5146 17.9652C90.7838 18.0454 91.0674 18.0855 91.3653 18.0855ZM105.391 16.4617C105.391 16.1925 105.329 15.9577 105.203 15.7572C105.076 15.551 104.902 15.3763 104.679 15.2331C104.432 15.0728 104.132 14.9353 103.776 14.8208C103.427 14.7062 103.066 14.6088 102.694 14.5287C102.218 14.4313 101.783 14.3196 101.388 14.1936C100.993 14.0676 100.623 13.9043 100.28 13.7039C99.9589 13.5148 99.6982 13.2743 99.4979 12.9822C99.3032 12.6843 99.2058 12.3235 99.2058 11.8997C99.2058 11.4987 99.3032 11.1407 99.4979 10.8257C99.6982 10.5107 99.9648 10.2415 100.297 10.0181C100.612 9.81193 100.979 9.65155 101.396 9.53701C101.82 9.42246 102.256 9.36516 102.702 9.36516C103.201 9.36516 103.667 9.42818 104.103 9.55419C104.544 9.67446 104.93 9.85202 105.263 10.0869C105.589 10.3274 105.85 10.6195 106.045 10.9632C106.239 11.3068 106.345 11.6992 106.362 12.1402H105.331C105.326 11.8424 105.245 11.576 105.091 11.3412C104.942 11.1064 104.747 10.9088 104.507 10.7484C104.26 10.588 103.98 10.4649 103.665 10.379C103.355 10.293 103.035 10.2501 102.702 10.2501C102.387 10.2501 102.081 10.2845 101.783 10.3532C101.491 10.4162 101.23 10.5164 101.001 10.6539C100.767 10.7856 100.577 10.9546 100.434 11.1608C100.297 11.3613 100.228 11.5961 100.228 11.8653C100.228 12.1345 100.288 12.3693 100.408 12.5698C100.535 12.7645 100.718 12.9306 100.958 13.0681C101.199 13.2113 101.488 13.3316 101.826 13.4289C102.164 13.5206 102.516 13.6036 102.883 13.6781C103.352 13.7755 103.799 13.8958 104.223 14.0389C104.653 14.1764 105.031 14.3482 105.357 14.5544C105.684 14.7663 105.941 15.0241 106.13 15.3277C106.319 15.6255 106.414 15.9863 106.414 16.4102C106.414 16.8111 106.322 17.1691 106.139 17.4841C105.956 17.7991 105.718 18.0597 105.426 18.2659C105.071 18.518 104.658 18.7041 104.189 18.8244C103.719 18.9447 103.244 19.0048 102.763 19.0048C102.236 19.0048 101.737 18.9389 101.268 18.8072C100.798 18.6755 100.391 18.4893 100.048 18.2487C99.6926 18.0139 99.412 17.7247 99.2058 17.381C99.0052 17.0374 98.8964 16.6507 98.8791 16.2212H99.9017C99.936 16.5877 100.045 16.8942 100.228 17.1404C100.417 17.3868 100.649 17.5815 100.924 17.7247C101.187 17.8736 101.48 17.9795 101.8 18.0426C102.127 18.0998 102.447 18.1285 102.763 18.1285C103.169 18.1285 103.553 18.0798 103.914 17.9824C104.275 17.8793 104.587 17.7275 104.85 17.5271C105.022 17.3896 105.154 17.235 105.245 17.0631C105.343 16.8856 105.391 16.6851 105.391 16.4617ZM113.413 19.0048C112.771 19.0048 112.184 18.8845 111.651 18.644C111.118 18.4034 110.663 18.0769 110.285 17.6645C109.901 17.2464 109.603 16.7624 109.392 16.2126C109.18 15.657 109.074 15.067 109.074 14.4427V14.0733C109.074 13.4146 109.18 12.7989 109.392 12.2261C109.609 11.6476 109.907 11.1465 110.285 10.7226C110.652 10.3045 111.087 9.97516 111.591 9.7346C112.095 9.48833 112.639 9.36516 113.223 9.36516C113.836 9.36516 114.38 9.47686 114.856 9.70023C115.331 9.91789 115.732 10.2186 116.059 10.6023C116.385 10.9918 116.631 11.4472 116.798 11.9684C116.964 12.4839 117.05 13.0366 117.055 13.6265V14.2537H110.096V14.5372C110.119 15.0298 110.211 15.488 110.371 15.9119C110.531 16.3357 110.758 16.7109 111.05 17.0374C111.336 17.3696 111.683 17.6359 112.089 17.8364C112.502 18.0311 112.957 18.1285 113.455 18.1285C114.028 18.1342 114.547 18.0283 115.011 17.8106C115.474 17.5929 115.872 17.2779 116.205 16.8655L116.849 17.3552C116.5 17.8478 116.033 18.2459 115.449 18.5495C114.864 18.853 114.186 19.0048 113.413 19.0048ZM113.223 10.2501C112.8 10.2501 112.413 10.3303 112.064 10.4906C111.714 10.6453 111.408 10.8601 111.144 11.135C110.881 11.4157 110.663 11.7479 110.491 12.1316C110.32 12.5154 110.202 12.9306 110.139 13.3774H116.033V13.2829C116.033 12.9049 115.964 12.5297 115.827 12.1574C115.695 11.7851 115.512 11.4586 115.277 11.178C115.036 10.8973 114.744 10.6739 114.401 10.5078C114.057 10.336 113.664 10.2501 113.223 10.2501ZM119.681 14.0991C119.681 13.4862 119.755 12.8991 119.904 12.3378C120.059 11.7708 120.282 11.2725 120.574 10.8429C120.878 10.3962 121.262 10.0382 121.725 9.76897C122.189 9.49976 122.739 9.36516 123.375 9.36516C123.959 9.36516 124.489 9.49405 124.964 9.75179C125.44 10.0038 125.829 10.3532 126.133 10.7999V5.63647H127.155V18.833H126.201L126.167 17.6473C125.847 18.0884 125.44 18.4263 124.947 18.6612C124.455 18.8902 123.925 19.0048 123.358 19.0048C122.745 19.0048 122.206 18.8702 121.742 18.601C121.284 18.3318 120.901 17.9767 120.591 17.5357C120.294 17.1004 120.067 16.5992 119.913 16.0321C119.758 15.4651 119.681 14.8809 119.681 14.2795V14.0991ZM120.712 14.2795C120.712 14.7434 120.76 15.2016 120.858 15.6541C120.961 16.1009 121.121 16.5075 121.339 16.8741C121.568 17.235 121.86 17.5299 122.215 17.759C122.576 17.9881 123.02 18.1027 123.547 18.1027C124.12 18.1027 124.638 17.9595 125.102 17.6731C125.566 17.3868 125.909 16.9915 126.133 16.4875V12.0285C125.921 11.5016 125.589 11.0777 125.136 10.757C124.689 10.4305 124.165 10.2673 123.564 10.2673C123.031 10.2673 122.582 10.3818 122.215 10.6109C121.854 10.84 121.562 11.1379 121.339 11.5045C121.121 11.871 120.961 12.2805 120.858 12.733C120.76 13.1855 120.712 13.6409 120.712 14.0991V14.2795Z" fill="white"/>
<path d="M13.1818 12.1136L26.3637 17.0569L13.1818 22L0 17.0569L13.1818 12.1136Z" fill="#4B4B4B"/>
<path d="M13.1818 7.00012L26.3637 12.0001L13.1818 17.0001L0 12.0001L13.1818 7.00012Z" fill="#989898"/>
<path d="M13.1818 2L26.3637 6.94317L13.1818 11.8864L0 6.94317L13.1818 2Z" fill="white"/>
</g>
<defs>
<clipPath id="clip0_11788_59028">
<rect width="127" height="24" fill="white"/>
</clipPath>
</defs>
</svg>
