<svg width="127" height="24" viewBox="0 0 127 24" fill="none" xmlns="http://www.w3.org/2000/svg">
<g clip-path="url(#clip0_11788_59057)">
<path d="M13.1818 12.1136L26.3636 17.0568L13.1818 22L0 17.0568L13.1818 12.1136Z" fill="#CECECE"/>
<path d="M13.1818 7L26.3636 12L13.1818 17L0 12L13.1818 7Z" fill="#989898"/>
<path d="M13.1818 2L26.3636 6.9432L13.1818 11.8864L0 6.9432L13.1818 2Z" fill="#3D3D3D"/>
<path d="M36.7753 6.20637L39.2926 13.2685L41.9817 6.20637H43.3222V18.7155H42.3254V13.174L42.394 7.6669L39.6193 14.9525H38.9489L36.3888 7.79579L36.4574 13.174V18.7155H35.4524V6.20637H36.7753ZM50.1832 18.8873C49.5415 18.8873 48.9544 18.7671 48.4219 18.5265C47.889 18.286 47.4339 17.9595 47.0559 17.5471C46.672 17.129 46.3741 16.645 46.1624 16.0951C45.9503 15.5395 45.8445 14.9496 45.8445 14.3253V13.9558C45.8445 13.2972 45.9503 12.6814 46.1624 12.1087C46.38 11.5302 46.6776 11.029 47.0559 10.6052C47.4225 10.1871 47.8577 9.85772 48.3618 9.61717C48.8656 9.37089 49.4099 9.24772 49.994 9.24772C50.6069 9.24772 51.1509 9.35942 51.6263 9.5828C52.1019 9.80045 52.5028 10.1012 52.8292 10.4849C53.1556 10.8744 53.4019 11.3297 53.5682 11.8509C53.7342 12.3664 53.8201 12.9192 53.8257 13.5091V14.1363H46.8668V14.4198C46.8896 14.9124 46.9814 15.3706 47.1418 15.7944C47.302 16.2183 47.5283 16.5934 47.8204 16.9199C48.1069 17.2521 48.4533 17.5185 48.86 17.7189C49.2723 17.9136 49.7278 18.011 50.226 18.011C50.7987 18.0168 51.3172 17.9108 51.7811 17.6931C52.2451 17.4755 52.643 17.1605 52.9753 16.7481L53.6195 17.2378C53.2703 17.7304 52.8034 18.1284 52.2193 18.432C51.6351 18.7356 50.9562 18.8873 50.1832 18.8873ZM49.994 10.1327C49.5703 10.1327 49.1835 10.2129 48.8342 10.3732C48.4849 10.5279 48.1785 10.7427 47.9149 11.0176C47.6515 11.2982 47.4339 11.6304 47.2621 12.0142C47.0902 12.3979 46.9726 12.8132 46.9096 13.26H52.8034V13.1654C52.8034 12.7874 52.7348 12.4123 52.5973 12.04C52.4656 11.6677 52.2823 11.3412 52.0474 11.0605C51.8069 10.7799 51.5149 10.5565 51.1712 10.3904C50.8275 10.2186 50.4351 10.1327 49.994 10.1327ZM60.18 7.03972V9.41957H63.6251V10.2701H60.18V16.0951C60.1858 16.456 60.2401 16.7567 60.3433 16.9972C60.4462 17.2378 60.5896 17.4297 60.7729 17.5729C60.9562 17.7218 61.1709 17.8278 61.4172 17.8907C61.6635 17.9537 61.9269 17.9853 62.2075 17.9853C62.3738 17.9853 62.5398 17.9795 62.7058 17.9681C62.872 17.9509 63.0351 17.9337 63.1955 17.9165C63.3157 17.8993 63.4333 17.8822 63.5477 17.865C63.6682 17.8421 63.7712 17.822 63.8571 17.8048L64.0116 18.5866C63.9087 18.6382 63.7885 18.6812 63.6509 18.7155C63.5193 18.7499 63.3788 18.7785 63.2298 18.8014C63.041 18.8358 62.8433 18.8587 62.6371 18.8702C62.4366 18.8816 62.2363 18.8873 62.0357 18.8873C61.6234 18.8873 61.2395 18.8358 60.8844 18.7327C60.5351 18.6353 60.2316 18.475 59.9738 18.2516C59.716 18.0339 59.5128 17.7475 59.3638 17.3924C59.2207 17.0373 59.1462 16.6049 59.1404 16.0951V10.2701H56.5544V9.41957H59.1404V7.03972H60.18ZM73.6823 18.7155C73.6193 18.5093 73.5706 18.2888 73.5363 18.054C73.5075 17.8192 73.4876 17.5814 73.4761 17.3409C73.2984 17.5757 73.0893 17.7905 72.8489 17.9853C72.614 18.1743 72.3562 18.3346 72.0756 18.4664C71.7893 18.6038 71.4855 18.7069 71.165 18.7757C70.8498 18.8501 70.5204 18.8873 70.177 18.8873C69.7474 18.8873 69.3436 18.8244 68.9656 18.6983C68.5876 18.5723 68.2609 18.3948 67.9861 18.1657C67.711 17.9366 67.4934 17.6616 67.333 17.3409C67.1726 17.0144 67.0926 16.6507 67.0926 16.2498C67.0926 15.7171 67.2099 15.2646 67.4448 14.8923C67.6852 14.52 68.0061 14.2136 68.4069 13.973C68.8022 13.7439 69.2632 13.5778 69.7902 13.4747C70.3172 13.3659 70.87 13.3086 71.4483 13.3029H73.4673V12.2548C73.4618 11.9053 73.3929 11.5989 73.2612 11.3355C73.1295 11.0663 72.9492 10.8429 72.7198 10.6653C72.4908 10.4878 72.2187 10.3532 71.9037 10.2615C71.5946 10.1641 71.2594 10.1155 70.8984 10.1155C70.5665 10.1155 70.2486 10.1584 69.9448 10.2444C69.6413 10.3302 69.372 10.4534 69.1374 10.6138C68.9081 10.7741 68.7193 10.9718 68.5703 11.2066C68.4272 11.4357 68.3527 11.6963 68.3468 11.9884L67.316 11.9798C67.333 11.5846 67.4392 11.2209 67.6339 10.8887C67.8286 10.5565 68.089 10.2673 68.4157 10.021C68.7421 9.78039 69.1201 9.59139 69.5497 9.45394C69.9849 9.31646 70.4489 9.24772 70.9415 9.24772C71.4342 9.24772 71.8952 9.31074 72.3248 9.43676C72.7544 9.56277 73.1295 9.7489 73.4503 9.9952C73.7653 10.2529 74.0143 10.5708 74.1975 10.9488C74.3867 11.3269 74.4841 11.7679 74.4899 12.2719V16.7653C74.4899 17.0803 74.5154 17.3953 74.5671 17.7103C74.6245 18.0253 74.6932 18.3261 74.7732 18.6124L74.782 18.7155H73.6823ZM70.2885 17.9681C70.6495 17.9738 70.9932 17.9337 71.3195 17.8478C71.6459 17.7561 71.9468 17.6301 72.2216 17.4698C72.4967 17.3094 72.7401 17.1175 72.9518 16.8941C73.1638 16.6707 73.3357 16.4216 73.4673 16.1467V14.1019H71.5946C71.0846 14.1076 70.6008 14.1506 70.1424 14.2308C69.6844 14.311 69.292 14.4542 68.9656 14.6604C68.702 14.8265 68.4929 15.0327 68.3383 15.2789C68.1893 15.5195 68.1149 15.8116 68.1149 16.1553C68.1149 16.4359 68.1723 16.6879 68.2867 16.9113C68.4014 17.1347 68.5559 17.3237 68.7506 17.4783C68.9453 17.6387 69.1747 17.7619 69.438 17.8478C69.7072 17.928 69.9908 17.9681 70.2885 17.9681ZM85.3802 14.1621C85.3744 14.5458 85.343 14.9267 85.2858 15.3047C85.2283 15.677 85.1398 16.0321 85.0193 16.3701C84.882 16.7595 84.7014 17.1175 84.4782 17.444C84.2606 17.7647 83.9999 18.0397 83.6964 18.2688C83.4272 18.4578 83.1292 18.6067 82.8028 18.7155C82.4764 18.8301 82.1154 18.8873 81.7201 18.8873C81.3767 18.8873 81.05 18.8444 80.741 18.7585C80.4371 18.6783 80.1539 18.5609 79.8902 18.4062C79.6899 18.2917 79.5037 18.16 79.3319 18.011C79.1656 17.8564 79.0169 17.6846 78.8849 17.4955L78.8421 18.7155H77.8885V5.51904H78.9108V10.7083C79.0542 10.4964 79.2201 10.3016 79.4093 10.1241C79.5981 9.94652 79.8014 9.79473 80.0193 9.66872C80.2653 9.53699 80.5289 9.43388 80.8096 9.35942C81.0902 9.28497 81.3882 9.24772 81.7031 9.24772C82.1269 9.24772 82.5134 9.30787 82.8629 9.42816C83.2122 9.54843 83.5216 9.71453 83.7908 9.92646C84.0486 10.1326 84.2747 10.379 84.4694 10.6653C84.6641 10.946 84.8304 11.2553 84.9679 11.5932C85.1052 11.9483 85.2055 12.3292 85.2685 12.7359C85.3371 13.1425 85.3744 13.5578 85.3802 13.9816V14.1621ZM84.3492 13.9816C84.3436 13.6781 84.3207 13.3745 84.2805 13.0709C84.2404 12.7617 84.1773 12.4667 84.0914 12.186C83.9885 11.8767 83.8539 11.5903 83.6876 11.3269C83.5275 11.0577 83.3269 10.8343 83.0864 10.6567C82.8858 10.5021 82.6539 10.379 82.3905 10.2873C82.1327 10.1957 81.8407 10.1498 81.514 10.1498C81.199 10.1498 80.904 10.1957 80.6292 10.2873C80.36 10.379 80.1166 10.505 79.8987 10.6653C79.6756 10.8314 79.4779 11.029 79.3061 11.2581C79.1401 11.4815 79.0081 11.7278 78.9108 11.997V16.2841C79.014 16.5476 79.1541 16.7853 79.3319 16.9972C79.5093 17.2034 79.7128 17.381 79.9418 17.5299C80.1653 17.6788 80.4116 17.7934 80.6805 17.8736C80.9556 17.948 81.2392 17.9853 81.5313 17.9853C81.8635 17.9853 82.1612 17.9394 82.4248 17.8478C82.694 17.7504 82.9289 17.6158 83.1292 17.444C83.3583 17.2607 83.553 17.0373 83.7134 16.7739C83.8738 16.5104 84.0028 16.224 84.1002 15.9147C84.1861 15.6398 84.2462 15.3534 84.2805 15.0556C84.3207 14.7577 84.3436 14.4599 84.3492 14.1621V13.9816ZM94.7585 18.7155C94.6955 18.5093 94.6468 18.2888 94.6125 18.054C94.5838 17.8192 94.5638 17.5814 94.5524 17.3409C94.3747 17.5757 94.1656 17.7905 93.9251 17.9853C93.6902 18.1743 93.4324 18.3346 93.1518 18.4664C92.8656 18.6038 92.5621 18.7069 92.2412 18.7757C91.9263 18.8501 91.597 18.8873 91.2533 18.8873C90.8237 18.8873 90.4198 18.8244 90.0418 18.6983C89.6638 18.5723 89.3374 18.3948 89.0624 18.1657C88.7876 17.9366 88.5697 17.6616 88.4096 17.3409C88.2492 17.0144 88.1688 16.6507 88.1688 16.2498C88.1688 15.7171 88.2864 15.2646 88.521 14.8923C88.7618 14.52 89.0823 14.2136 89.4835 13.973C89.8785 13.7439 90.3398 13.5778 90.8665 13.4747C91.3934 13.3659 91.9462 13.3086 92.5248 13.3029H94.5439V12.2548C94.538 11.9053 94.4694 11.5989 94.3374 11.3355C94.2058 11.0663 94.0254 10.8429 93.7964 10.6653C93.5671 10.4878 93.2952 10.3532 92.98 10.2615C92.6709 10.1641 92.3357 10.1155 91.975 10.1155C91.6427 10.1155 91.3248 10.1584 91.0213 10.2444C90.7178 10.3302 90.4486 10.4534 90.2137 10.6138C89.9847 10.7741 89.7955 10.9718 89.6465 11.2066C89.5034 11.4357 89.4289 11.6963 89.4234 11.9884L88.3923 11.9798C88.4096 11.5846 88.5154 11.2209 88.7102 10.8887C88.9049 10.5565 89.1656 10.2673 89.492 10.021C89.8184 9.78039 90.1964 9.59139 90.626 9.45394C91.0615 9.31646 91.5254 9.24772 92.0178 9.24772C92.5105 9.24772 92.9715 9.31074 93.4011 9.43676C93.8307 9.56277 94.2058 9.7489 94.5266 9.9952C94.8415 10.2529 95.0908 10.5708 95.2741 10.9488C95.463 11.3269 95.5603 11.7679 95.5662 12.2719V16.7653C95.5662 17.0803 95.592 17.3953 95.6436 17.7103C95.7008 18.0253 95.7694 18.3261 95.8497 18.6124L95.8583 18.7155H94.7585ZM91.365 17.9681C91.7257 17.9738 92.0694 17.9337 92.3958 17.8478C92.7225 17.7561 93.0231 17.6301 93.2978 17.4698C93.5729 17.3094 93.8163 17.1175 94.0283 16.8941C94.2401 16.6707 94.4119 16.4216 94.5439 16.1467V14.1019H92.6709C92.1612 14.1076 91.677 14.1506 91.219 14.2308C90.7606 14.311 90.3682 14.4542 90.0418 14.6604C89.7785 14.8265 89.5694 15.0327 89.4146 15.2789C89.2656 15.5195 89.1914 15.8116 89.1914 16.1553C89.1914 16.4359 89.2486 16.6879 89.3632 16.9113C89.4776 17.1347 89.6322 17.3237 89.8272 17.4783C90.0219 17.6387 90.2509 17.7619 90.5143 17.8478C90.7835 17.928 91.0671 17.9681 91.365 17.9681ZM105.391 16.3443C105.391 16.0751 105.328 15.8402 105.202 15.6398C105.076 15.4336 104.901 15.2589 104.678 15.1157C104.432 14.9553 104.131 14.8179 103.776 14.7033C103.427 14.5888 103.066 14.4914 102.693 14.4112C102.218 14.3138 101.783 14.2022 101.388 14.0761C100.992 13.9501 100.623 13.7869 100.279 13.5864C99.9586 13.3974 99.6978 13.1568 99.4976 12.8647C99.3028 12.5669 99.2055 12.2061 99.2055 11.7822C99.2055 11.3813 99.3028 11.0233 99.4976 10.7083C99.6978 10.3933 99.9644 10.1241 100.296 9.90069C100.612 9.6945 100.978 9.53412 101.396 9.41957C101.82 9.30503 102.255 9.24772 102.702 9.24772C103.2 9.24772 103.667 9.31074 104.103 9.43676C104.544 9.55702 104.93 9.73459 105.262 9.96942C105.589 10.21 105.849 10.5021 106.044 10.8458C106.239 11.1894 106.345 11.5817 106.362 12.0228H105.331C105.325 11.7249 105.245 11.4586 105.091 11.2238C104.942 10.9889 104.747 10.7913 104.506 10.6309C104.26 10.4706 103.979 10.3474 103.664 10.2615C103.355 10.1756 103.034 10.1327 102.702 10.1327C102.387 10.1327 102.081 10.167 101.783 10.2358C101.491 10.2987 101.23 10.399 101.001 10.5365C100.766 10.6682 100.577 10.8372 100.434 11.0434C100.296 11.2438 100.228 11.4787 100.228 11.7478C100.228 12.017 100.288 12.2519 100.408 12.4524C100.534 12.6471 100.717 12.8132 100.958 12.9507C101.199 13.0939 101.488 13.2141 101.826 13.3115C102.164 13.4031 102.516 13.4862 102.883 13.5607C103.352 13.658 103.799 13.7783 104.223 13.9215C104.652 14.059 105.03 14.2308 105.357 14.437C105.683 14.6489 105.941 14.9066 106.13 15.2102C106.319 15.508 106.414 15.8689 106.414 16.2927C106.414 16.6937 106.322 17.0517 106.139 17.3667C105.955 17.6817 105.718 17.9423 105.426 18.1485C105.071 18.4005 104.658 18.5866 104.188 18.7069C103.719 18.8272 103.243 18.8873 102.762 18.8873C102.235 18.8873 101.737 18.8215 101.267 18.6897C100.798 18.558 100.391 18.3719 100.047 18.1313C99.6923 17.8965 99.4116 17.6072 99.2055 17.2636C99.0049 16.9199 98.8961 16.5333 98.8788 16.1037H99.9014C99.9357 16.4703 100.044 16.7767 100.228 17.023C100.417 17.2693 100.649 17.464 100.924 17.6072C101.187 17.7561 101.479 17.8621 101.8 17.9251C102.127 17.9824 102.447 18.011 102.762 18.011C103.169 18.011 103.553 17.9623 103.913 17.865C104.274 17.7619 104.586 17.6101 104.85 17.4096C105.022 17.2722 105.154 17.1175 105.245 16.9457C105.342 16.7681 105.391 16.5677 105.391 16.3443ZM113.412 18.8873C112.771 18.8873 112.183 18.7671 111.651 18.5265C111.118 18.286 110.663 17.9595 110.285 17.5471C109.901 17.129 109.603 16.645 109.391 16.0951C109.179 15.5395 109.074 14.9496 109.074 14.3253V13.9558C109.074 13.2972 109.179 12.6814 109.391 12.1087C109.609 11.5302 109.907 11.029 110.285 10.6052C110.651 10.1871 111.087 9.85772 111.591 9.61717C112.095 9.37089 112.639 9.24772 113.223 9.24772C113.836 9.24772 114.38 9.35942 114.855 9.5828C115.331 9.80045 115.732 10.1012 116.058 10.4849C116.385 10.8744 116.631 11.3297 116.797 11.8509C116.963 12.3664 117.049 12.9192 117.055 13.5091V14.1363H110.096V14.4198C110.119 14.9124 110.21 15.3706 110.371 15.7944C110.531 16.2183 110.757 16.5934 111.049 16.9199C111.336 17.2521 111.682 17.5185 112.089 17.7189C112.501 17.9136 112.957 18.011 113.455 18.011C114.028 18.0168 114.546 17.9108 115.01 17.6931C115.474 17.4755 115.872 17.1605 116.204 16.7481L116.849 17.2378C116.499 17.7304 116.032 18.1284 115.448 18.432C114.864 18.7356 114.185 18.8873 113.412 18.8873ZM113.223 10.1327C112.799 10.1327 112.413 10.2129 112.063 10.3732C111.714 10.5279 111.408 10.7427 111.144 11.0176C110.881 11.2982 110.663 11.6304 110.491 12.0142C110.319 12.3979 110.202 12.8132 110.139 13.26H116.032V13.1654C116.032 12.7874 115.964 12.4123 115.826 12.04C115.695 11.6677 115.511 11.3412 115.276 11.0605C115.036 10.7799 114.744 10.5565 114.4 10.3904C114.056 10.2186 113.664 10.1327 113.223 10.1327ZM119.68 13.9816C119.68 13.3688 119.755 12.7817 119.904 12.2204C120.058 11.6534 120.282 11.1551 120.574 10.7255C120.877 10.2787 121.261 9.92074 121.725 9.65154C122.189 9.38233 122.739 9.24772 123.375 9.24772C123.959 9.24772 124.489 9.37661 124.964 9.63435C125.439 9.88637 125.829 10.2358 126.132 10.6825V5.51904H127.155V18.7155H126.201L126.167 17.5299C125.846 17.9709 125.439 18.3089 124.947 18.5437C124.454 18.7728 123.925 18.8873 123.357 18.8873C122.744 18.8873 122.206 18.7528 121.742 18.4836C121.284 18.2144 120.9 17.8592 120.591 17.4182C120.293 16.9829 120.067 16.4817 119.912 15.9147C119.758 15.3477 119.68 14.7634 119.68 14.1621V13.9816ZM120.711 14.1621C120.711 14.626 120.76 15.0842 120.857 15.5367C120.96 15.9834 121.121 16.3901 121.338 16.7567C121.568 17.1175 121.86 17.4125 122.215 17.6416C122.576 17.8707 123.02 17.9853 123.547 17.9853C124.119 17.9853 124.637 17.8421 125.101 17.5557C125.566 17.2693 125.909 16.8741 126.132 16.3701V11.9111C125.92 11.3841 125.588 10.9603 125.136 10.6395C124.689 10.3131 124.165 10.1498 123.564 10.1498C123.031 10.1498 122.581 10.2644 122.215 10.4935C121.854 10.7226 121.562 11.0205 121.338 11.387C121.121 11.7536 120.96 12.1631 120.857 12.6156C120.76 13.0681 120.711 13.5234 120.711 13.9816V14.1621Z" fill="black"/>
</g>
<defs>
<clipPath id="clip0_11788_59057">
<rect width="127" height="24" fill="white"/>
</clipPath>
</defs>
</svg>
