<svg width="5000" height="1000" viewBox="0 0 5000 1000" fill="none" xmlns="http://www.w3.org/2000/svg">
<path d="M1512.04 302.438L1597.88 543.258L1689.58 302.438H1735.29V729H1701.3V540.035L1703.64 352.242L1609.02 600.68H1586.16L1498.86 356.637L1501.2 540.035V729H1466.93V302.438H1512.04ZM1969.25 734.859C1947.37 734.859 1927.35 730.758 1909.19 722.555C1891.02 714.352 1875.5 703.219 1862.61 689.156C1849.52 674.898 1839.36 658.395 1832.14 639.645C1824.91 620.699 1821.3 600.582 1821.3 579.293V566.695C1821.3 544.234 1824.91 523.238 1832.14 503.707C1839.56 483.98 1849.71 466.891 1862.61 452.438C1875.11 438.18 1889.95 426.949 1907.14 418.746C1924.32 410.348 1942.88 406.148 1962.8 406.148C1983.7 406.148 2002.25 409.957 2018.46 417.574C2034.68 424.996 2048.35 435.25 2059.48 448.336C2070.61 461.617 2079.01 477.145 2084.68 494.918C2090.34 512.496 2093.27 531.344 2093.46 551.461V572.848H1856.16V582.516C1856.94 599.312 1860.07 614.938 1865.54 629.391C1871 643.844 1878.72 656.637 1888.68 667.77C1898.45 679.098 1910.26 688.18 1924.13 695.016C1938.19 701.656 1953.72 704.977 1970.71 704.977C1990.24 705.172 2007.92 701.559 2023.74 694.137C2039.56 686.715 2053.13 675.973 2064.46 661.91L2086.43 678.609C2074.52 695.406 2058.6 708.98 2038.68 719.332C2018.76 729.684 1995.61 734.859 1969.25 734.859ZM1962.8 436.324C1948.35 436.324 1935.16 439.059 1923.25 444.527C1911.34 449.801 1900.89 457.125 1891.9 466.5C1882.92 476.07 1875.5 487.398 1869.64 500.484C1863.78 513.57 1859.77 527.73 1857.62 542.965H2058.6V539.742C2058.6 526.852 2056.26 514.059 2051.57 501.363C2047.08 488.668 2040.83 477.535 2032.82 467.965C2024.62 458.395 2014.66 450.777 2002.94 445.113C1991.22 439.254 1977.84 436.324 1962.8 436.324ZM2310.14 330.855V412.008H2427.62V441.012H2310.14V639.645C2310.34 651.949 2312.19 662.203 2315.71 670.406C2319.22 678.609 2324.11 685.152 2330.36 690.035C2336.61 695.113 2343.93 698.727 2352.33 700.875C2360.73 703.023 2369.71 704.098 2379.28 704.098C2384.95 704.098 2390.61 703.902 2396.27 703.512C2401.94 702.926 2407.5 702.34 2412.97 701.754C2417.07 701.168 2421.08 700.582 2424.98 699.996C2429.09 699.215 2432.6 698.531 2435.53 697.945L2440.8 724.605C2437.29 726.363 2433.19 727.828 2428.5 729C2424.01 730.172 2419.22 731.148 2414.14 731.93C2407.7 733.102 2400.96 733.883 2393.93 734.273C2387.09 734.664 2380.26 734.859 2373.42 734.859C2359.36 734.859 2346.27 733.102 2334.16 729.586C2322.25 726.266 2311.9 720.797 2303.11 713.18C2294.32 705.758 2287.39 695.992 2282.31 683.883C2277.43 671.773 2274.89 657.027 2274.69 639.645V441.012H2186.51V412.008H2274.69V330.855H2310.14ZM2770.57 729C2768.42 721.969 2766.76 714.449 2765.59 706.441C2764.61 698.434 2763.93 690.328 2763.54 682.125C2757.48 690.133 2750.35 697.457 2742.15 704.098C2734.14 710.543 2725.35 716.012 2715.78 720.504C2706.02 725.191 2695.66 728.707 2684.73 731.051C2673.98 733.59 2662.75 734.859 2651.04 734.859C2636.39 734.859 2622.62 732.711 2609.73 728.414C2596.84 724.117 2585.7 718.062 2576.33 710.25C2566.95 702.438 2559.53 693.062 2554.06 682.125C2548.59 670.992 2545.86 658.59 2545.86 644.918C2545.86 626.754 2549.86 611.324 2557.87 598.629C2566.07 585.934 2577.01 575.484 2590.68 567.281C2604.16 559.469 2619.88 553.805 2637.85 550.289C2655.82 546.578 2674.67 544.625 2694.39 544.43H2763.24V508.688C2763.05 496.773 2760.7 486.324 2756.21 477.34C2751.72 468.16 2745.57 460.543 2737.75 454.488C2729.94 448.434 2720.66 443.844 2709.92 440.719C2699.38 437.398 2687.95 435.738 2675.64 435.738C2664.32 435.738 2653.48 437.203 2643.12 440.133C2632.77 443.062 2623.59 447.262 2615.59 452.73C2607.77 458.199 2601.33 464.938 2596.25 472.945C2591.37 480.758 2588.83 489.645 2588.63 499.605L2553.48 499.312C2554.06 485.836 2557.68 473.434 2564.32 462.105C2570.96 450.777 2579.84 440.914 2590.98 432.516C2602.11 424.312 2615 417.867 2629.65 413.18C2644.49 408.492 2660.31 406.148 2677.11 406.148C2693.91 406.148 2709.63 408.297 2724.28 412.594C2738.93 416.891 2751.72 423.238 2762.66 431.637C2773.4 440.426 2781.89 451.266 2788.14 464.156C2794.59 477.047 2797.91 492.086 2798.11 509.273V662.496C2798.11 673.238 2798.98 683.98 2800.74 694.723C2802.7 705.465 2805.04 715.719 2807.77 725.484L2808.07 729H2770.57ZM2654.84 703.512C2667.15 703.707 2678.87 702.34 2690 699.41C2701.13 696.285 2711.39 691.988 2720.76 686.52C2730.14 681.051 2738.44 674.508 2745.66 666.891C2752.89 659.273 2758.75 650.777 2763.24 641.402V571.676H2699.38C2681.99 571.871 2665.49 573.336 2649.86 576.07C2634.24 578.805 2620.86 583.688 2609.73 590.719C2600.74 596.383 2593.61 603.414 2588.34 611.812C2583.26 620.016 2580.72 629.977 2580.72 641.695C2580.72 651.266 2582.68 659.859 2586.58 667.477C2590.49 675.094 2595.76 681.539 2602.4 686.812C2609.04 692.281 2616.86 696.48 2625.84 699.41C2635.02 702.145 2644.69 703.512 2654.84 703.512ZM3169.47 573.727C3169.27 586.812 3168.2 599.801 3166.25 612.691C3164.29 625.387 3161.27 637.496 3157.16 649.02C3152.48 662.301 3146.32 674.508 3138.71 685.641C3131.29 696.578 3122.4 705.953 3112.05 713.766C3102.87 720.211 3092.71 725.289 3081.58 729C3070.45 732.906 3058.14 734.859 3044.66 734.859C3032.95 734.859 3021.81 733.395 3011.27 730.465C3000.91 727.73 2991.25 723.727 2982.26 718.453C2975.43 714.547 2969.08 710.055 2963.22 704.977C2957.55 699.703 2952.48 693.844 2947.98 687.398L2946.52 729H2914V279H2948.86V455.953C2953.75 448.727 2959.41 442.086 2965.86 436.031C2972.3 429.977 2979.23 424.801 2986.66 420.504C2995.05 416.012 3004.04 412.496 3013.61 409.957C3023.18 407.418 3033.34 406.148 3044.08 406.148C3058.53 406.148 3071.71 408.199 3083.63 412.301C3095.54 416.402 3106.09 422.066 3115.27 429.293C3124.06 436.324 3131.77 444.723 3138.41 454.488C3145.05 464.059 3150.72 474.605 3155.41 486.129C3160.09 498.238 3163.51 511.227 3165.66 525.094C3168 538.961 3169.27 553.121 3169.47 567.574V573.727ZM3134.31 567.574C3134.12 557.223 3133.34 546.871 3131.97 536.52C3130.6 525.973 3128.45 515.914 3125.52 506.344C3122.01 495.797 3117.42 486.031 3111.75 477.047C3106.29 467.867 3099.45 460.25 3091.25 454.195C3084.41 448.922 3076.5 444.723 3067.52 441.598C3058.73 438.473 3048.77 436.91 3037.63 436.91C3026.89 436.91 3016.83 438.473 3007.46 441.598C2998.28 444.723 2989.98 449.02 2982.55 454.488C2974.94 460.152 2968.2 466.891 2962.34 474.703C2956.68 482.32 2952.18 490.719 2948.86 499.898V646.09C2952.38 655.074 2957.16 663.18 2963.22 670.406C2969.27 677.438 2976.21 683.492 2984.02 688.57C2991.64 693.648 3000.04 697.555 3009.21 700.289C3018.59 702.828 3028.26 704.098 3038.22 704.098C3049.55 704.098 3059.7 702.535 3068.69 699.41C3077.87 696.09 3085.88 691.5 3092.71 685.641C3100.52 679.391 3107.16 671.773 3112.63 662.789C3118.1 653.805 3122.5 644.039 3125.82 633.492C3128.75 624.117 3130.8 614.352 3131.97 604.195C3133.34 594.039 3134.12 583.883 3134.31 573.727V567.574ZM3489.27 729C3487.12 721.969 3485.46 714.449 3484.29 706.441C3483.31 698.434 3482.63 690.328 3482.24 682.125C3476.18 690.133 3469.05 697.457 3460.85 704.098C3452.84 710.543 3444.05 716.012 3434.48 720.504C3424.72 725.191 3414.37 728.707 3403.43 731.051C3392.69 733.59 3381.46 734.859 3369.74 734.859C3355.09 734.859 3341.32 732.711 3328.43 728.414C3315.54 724.117 3304.41 718.062 3295.03 710.25C3285.66 702.438 3278.23 693.062 3272.77 682.125C3267.3 670.992 3264.56 658.59 3264.56 644.918C3264.56 626.754 3268.57 611.324 3276.57 598.629C3284.78 585.934 3295.71 575.484 3309.39 567.281C3322.86 559.469 3338.59 553.805 3356.55 550.289C3374.52 546.578 3393.37 544.625 3413.1 544.43H3481.95V508.688C3481.75 496.773 3479.41 486.324 3474.91 477.34C3470.42 468.16 3464.27 460.543 3456.46 454.488C3448.64 448.434 3439.37 443.844 3428.62 440.719C3418.08 437.398 3406.65 435.738 3394.35 435.738C3383.02 435.738 3372.18 437.203 3361.83 440.133C3351.48 443.062 3342.3 447.262 3334.29 452.73C3326.48 458.199 3320.03 464.938 3314.95 472.945C3310.07 480.758 3307.53 489.645 3307.34 499.605L3272.18 499.312C3272.77 485.836 3276.38 473.434 3283.02 462.105C3289.66 450.777 3298.55 440.914 3309.68 432.516C3320.81 424.312 3333.7 417.867 3348.35 413.18C3363.2 408.492 3379.02 406.148 3395.81 406.148C3412.61 406.148 3428.33 408.297 3442.98 412.594C3457.63 416.891 3470.42 423.238 3481.36 431.637C3492.1 440.426 3500.6 451.266 3506.85 464.156C3513.29 477.047 3516.61 492.086 3516.81 509.273V662.496C3516.81 673.238 3517.69 683.98 3519.45 694.723C3521.4 705.465 3523.74 715.719 3526.48 725.484L3526.77 729H3489.27ZM3373.55 703.512C3385.85 703.707 3397.57 702.34 3408.7 699.41C3419.84 696.285 3430.09 691.988 3439.46 686.52C3448.84 681.051 3457.14 674.508 3464.37 666.891C3471.59 659.273 3477.45 650.777 3481.95 641.402V571.676H3418.08C3400.7 571.871 3384.19 573.336 3368.57 576.07C3352.94 578.805 3339.56 583.688 3328.43 590.719C3319.45 596.383 3312.32 603.414 3307.04 611.812C3301.96 620.016 3299.43 629.977 3299.43 641.695C3299.43 651.266 3301.38 659.859 3305.29 667.477C3309.19 675.094 3314.46 681.539 3321.11 686.812C3327.75 692.281 3335.56 696.48 3344.54 699.41C3353.72 702.145 3363.39 703.512 3373.55 703.512ZM3851.84 648.141C3851.84 638.961 3849.7 630.953 3845.4 624.117C3841.1 617.086 3835.14 611.129 3827.53 606.246C3819.13 600.777 3808.88 596.09 3796.77 592.184C3784.85 588.277 3772.55 584.957 3759.85 582.223C3743.64 578.902 3728.8 575.094 3715.32 570.797C3701.84 566.5 3689.25 560.934 3677.53 554.098C3666.59 547.652 3657.7 539.449 3650.87 529.488C3644.23 519.332 3640.91 507.027 3640.91 492.574C3640.91 478.902 3644.23 466.695 3650.87 455.953C3657.7 445.211 3666.79 436.031 3678.11 428.414C3688.86 421.383 3701.36 415.914 3715.61 412.008C3730.07 408.102 3744.91 406.148 3760.14 406.148C3777.14 406.148 3793.05 408.297 3807.9 412.594C3822.94 416.695 3836.12 422.75 3847.45 430.758C3858.58 438.961 3867.47 448.922 3874.11 460.641C3880.75 472.359 3884.36 485.738 3884.95 500.777H3849.79C3849.6 490.621 3846.86 481.539 3841.59 473.531C3836.51 465.523 3829.87 458.785 3821.67 453.316C3813.27 447.848 3803.7 443.648 3792.96 440.719C3782.41 437.789 3771.47 436.324 3760.14 436.324C3749.4 436.324 3738.95 437.496 3728.8 439.84C3718.84 441.988 3709.95 445.406 3702.14 450.094C3694.13 454.586 3687.68 460.348 3682.8 467.379C3678.11 474.215 3675.77 482.223 3675.77 491.402C3675.77 500.582 3677.82 508.59 3681.92 515.426C3686.22 522.066 3692.47 527.73 3700.67 532.418C3708.88 537.301 3718.74 541.402 3730.26 544.723C3741.79 547.848 3753.8 550.68 3766.3 553.219C3782.31 556.539 3797.55 560.641 3812 565.523C3826.65 570.211 3839.54 576.07 3850.67 583.102C3861.8 590.328 3870.59 599.117 3877.04 609.469C3883.48 619.625 3886.71 631.93 3886.71 646.383C3886.71 660.055 3883.58 672.262 3877.33 683.004C3871.08 693.746 3862.98 702.633 3853.02 709.664C3840.91 718.258 3826.84 724.605 3810.83 728.707C3794.81 732.809 3778.6 734.859 3762.2 734.859C3744.23 734.859 3727.23 732.613 3711.22 728.121C3695.2 723.629 3681.34 717.281 3669.62 709.078C3657.51 701.07 3647.94 691.207 3640.91 679.488C3634.07 667.77 3630.36 654.586 3629.77 639.938H3664.64C3665.81 652.438 3669.52 662.887 3675.77 671.285C3682.21 679.684 3690.12 686.324 3699.5 691.207C3708.48 696.285 3718.45 699.898 3729.38 702.047C3740.52 704 3751.45 704.977 3762.2 704.977C3776.06 704.977 3789.15 703.316 3801.45 699.996C3813.76 696.48 3824.4 691.305 3833.39 684.469C3839.25 679.781 3843.74 674.508 3846.86 668.648C3850.18 662.594 3851.84 655.758 3851.84 648.141ZM4125.36 734.859C4103.48 734.859 4083.46 730.758 4065.3 722.555C4047.13 714.352 4031.61 703.219 4018.71 689.156C4005.63 674.898 3995.47 658.395 3988.25 639.645C3981.02 620.699 3977.41 600.582 3977.41 579.293V566.695C3977.41 544.234 3981.02 523.238 3988.25 503.707C3995.67 483.98 4005.82 466.891 4018.71 452.438C4031.21 438.18 4046.06 426.949 4063.25 418.746C4080.43 410.348 4098.99 406.148 4118.91 406.148C4139.81 406.148 4158.36 409.957 4174.57 417.574C4190.79 424.996 4204.46 435.25 4215.59 448.336C4226.72 461.617 4235.12 477.145 4240.79 494.918C4246.45 512.496 4249.38 531.344 4249.57 551.461V572.848H4012.27V582.516C4013.05 599.312 4016.18 614.938 4021.64 629.391C4027.11 643.844 4034.83 656.637 4044.79 667.77C4054.55 679.098 4066.37 688.18 4080.24 695.016C4094.3 701.656 4109.83 704.977 4126.82 704.977C4146.35 705.172 4164.03 701.559 4179.85 694.137C4195.67 686.715 4209.24 675.973 4220.57 661.91L4242.54 678.609C4230.63 695.406 4214.71 708.98 4194.79 719.332C4174.87 729.684 4151.72 734.859 4125.36 734.859ZM4118.91 436.324C4104.46 436.324 4091.27 439.059 4079.36 444.527C4067.45 449.801 4057 457.125 4048.01 466.5C4039.03 476.07 4031.61 487.398 4025.75 500.484C4019.89 513.57 4015.88 527.73 4013.73 542.965H4214.71V539.742C4214.71 526.852 4212.37 514.059 4207.68 501.363C4203.19 488.668 4196.94 477.535 4188.93 467.965C4180.73 458.395 4170.77 450.777 4159.05 445.113C4147.33 439.254 4133.95 436.324 4118.91 436.324ZM4339.1 567.574C4339.1 546.676 4341.64 526.656 4346.72 507.516C4351.99 488.18 4359.61 471.188 4369.57 456.539C4379.92 441.305 4393.01 429.098 4408.83 419.918C4424.65 410.738 4443.4 406.148 4465.08 406.148C4485 406.148 4503.07 410.543 4519.28 419.332C4535.49 427.926 4548.77 439.84 4559.12 455.074V279H4593.98V729H4561.46L4560.29 688.57C4549.36 703.609 4535.49 715.133 4518.69 723.141C4501.89 730.953 4483.83 734.859 4464.49 734.859C4443.59 734.859 4425.23 730.27 4409.41 721.09C4393.79 711.91 4380.7 699.801 4370.16 684.762C4360 669.918 4352.29 652.828 4347.01 633.492C4341.74 614.156 4339.1 594.234 4339.1 573.727V567.574ZM4374.26 573.727C4374.26 589.547 4375.92 605.172 4379.24 620.602C4382.75 635.836 4388.22 649.703 4395.64 662.203C4403.46 674.508 4413.42 684.566 4425.53 692.379C4437.83 700.191 4452.97 704.098 4470.94 704.098C4490.47 704.098 4508.14 699.215 4523.96 689.449C4539.79 679.684 4551.5 666.207 4559.12 649.02V496.969C4551.89 479 4540.57 464.547 4525.14 453.609C4509.9 442.477 4492.03 436.91 4471.52 436.91C4453.36 436.91 4438.03 440.816 4425.53 448.629C4413.22 456.441 4403.26 466.598 4395.64 479.098C4388.22 491.598 4382.75 505.562 4379.24 520.992C4375.92 536.422 4374.26 551.949 4374.26 567.574V573.727Z" fill="white"/>
<path d="M707.5 499.875L1157 668.438L707.5 837L258 668.438L707.5 499.875Z" fill="#4B4B4B"/>
<path d="M707.5 325.5L1157 496L707.5 666.5L258 496L707.5 325.5Z" fill="#989898"/>
<path d="M707.5 155L1157 323.562L707.5 492.125L258 323.562L707.5 155Z" fill="white"/>
</svg>
