<svg xmlns="http://www.w3.org/2000/svg" fill="none" viewBox="0 0 138 24">
  <path fill="#2A2A2A" d="M132.559 8.229c.756 0 1.431.157 2.024.471.606.314 1.077.78 1.414 1.397.338.616.506 1.361.506 2.234v5.673h-1.972v-5.377c0-.86-.215-1.518-.646-1.972-.431-.465-1.018-.698-1.763-.698-.744 0-1.338.233-1.78.698-.431.454-.646 1.111-.646 1.973v5.376h-1.99V8.386h1.99v1.1a3.304 3.304 0 0 1 1.239-.926 4.052 4.052 0 0 1 1.624-.331ZM124.466 7.112c-.361 0-.663-.123-.908-.367a1.235 1.235 0 0 1-.367-.908c0-.36.123-.663.367-.907.245-.245.547-.367.908-.367.349 0 .645.122.89.367.244.244.367.547.367.907 0 .361-.123.664-.367.908a1.213 1.213 0 0 1-.89.367Zm.977 1.274v9.618h-1.989V8.386h1.989ZM111.31 13.151c0-.966.197-1.821.593-2.566.407-.745.954-1.32 1.641-1.728a4.393 4.393 0 0 1 2.304-.628c.756 0 1.414.151 1.973.454.569.29 1.023.657 1.361 1.1V8.385h2.007v9.618h-2.007v-1.431c-.338.453-.797.831-1.379 1.134-.582.303-1.245.454-1.99.454a4.27 4.27 0 0 1-2.269-.629 4.659 4.659 0 0 1-1.641-1.78c-.396-.768-.593-1.635-.593-2.6Zm7.872.035c0-.663-.14-1.24-.419-1.728a2.824 2.824 0 0 0-1.065-1.117 2.806 2.806 0 0 0-1.431-.384c-.512 0-.989.128-1.431.384-.442.244-.803.61-1.083 1.1-.267.477-.401 1.047-.401 1.71 0 .664.134 1.245.401 1.746.28.5.641.884 1.083 1.152a2.866 2.866 0 0 0 2.862 0 2.824 2.824 0 0 0 1.065-1.117c.279-.5.419-1.083.419-1.746ZM105.96 8.229c.733 0 1.386.157 1.955.471.583.314 1.036.78 1.362 1.396.338.617.506 1.362.506 2.235v5.673h-1.972v-5.377c0-.86-.215-1.518-.646-1.972-.431-.465-1.018-.698-1.763-.698-.744 0-1.338.232-1.78.698-.431.454-.646 1.111-.646 1.972v5.377h-1.99V5.087h1.99v4.416a3.346 3.346 0 0 1 1.274-.943 4.354 4.354 0 0 1 1.71-.331ZM87.17 11.912c0-1.187.274-2.252.82-3.194a5.921 5.921 0 0 1 2.253-2.2 6.277 6.277 0 0 1 3.124-.803c1.291 0 2.438.32 3.439.96 1.012.629 1.745 1.525 2.199 2.688h-2.391c-.314-.64-.75-1.117-1.31-1.43-.558-.315-1.204-.472-1.937-.472-.803 0-1.518.18-2.147.54a3.825 3.825 0 0 0-1.484 1.554c-.349.675-.523 1.46-.523 2.357 0 .896.174 1.681.523 2.356.361.675.856 1.199 1.484 1.571.629.361 1.344.542 2.147.542.733 0 1.379-.158 1.938-.472.558-.314.995-.791 1.309-1.431h2.39c-.453 1.164-1.186 2.06-2.198 2.688-1 .628-2.148.943-3.44.943-1.14 0-2.18-.262-3.123-.786a6.052 6.052 0 0 1-2.252-2.217c-.547-.942-.82-2.007-.82-3.194ZM71.505 13.151c0-.966.198-1.821.593-2.566.407-.745.955-1.32 1.641-1.728a4.394 4.394 0 0 1 2.304-.628c.757 0 1.414.151 1.973.454.57.29 1.024.657 1.361 1.1V8.385h2.008v9.618h-2.008v-1.431c-.337.453-.797.831-1.38 1.134-.58.303-1.244.454-1.989.454-.826 0-1.582-.21-2.269-.629a4.664 4.664 0 0 1-1.64-1.78c-.397-.768-.594-1.635-.594-2.6Zm7.872.035c0-.663-.14-1.24-.419-1.728a2.816 2.816 0 0 0-1.065-1.117 2.806 2.806 0 0 0-1.431-.384c-.512 0-.989.128-1.431.384-.442.244-.803.61-1.083 1.1-.267.477-.4 1.047-.4 1.71 0 .664.133 1.245.4 1.746.28.5.64.884 1.083 1.152.453.256.931.384 1.43.384.513 0 .99-.128 1.432-.384a2.816 2.816 0 0 0 1.065-1.117c.28-.5.42-1.083.42-1.746ZM61.388 13.186c0-.989.197-1.856.593-2.6a4.328 4.328 0 0 1 1.676-1.746c.71-.408 1.524-.611 2.444-.611 1.163 0 2.123.28 2.88.838.767.547 1.285 1.332 1.553 2.356h-2.147a2.27 2.27 0 0 0-.838-1.117c-.384-.268-.867-.401-1.449-.401-.814 0-1.466.29-1.955.872-.477.57-.715 1.373-.715 2.41 0 1.035.238 1.844.715 2.426.49.581 1.14.872 1.956.872 1.151 0 1.914-.506 2.286-1.518h2.147c-.28.977-.803 1.757-1.571 2.339-.768.57-1.722.855-2.862.855-.92 0-1.735-.204-2.444-.611a4.48 4.48 0 0 1-1.676-1.745c-.396-.757-.593-1.63-.593-2.619ZM55.441 18.16c-.907 0-1.728-.203-2.46-.61a4.53 4.53 0 0 1-1.729-1.745c-.419-.757-.628-1.63-.628-2.619 0-.977.215-1.844.646-2.6a4.461 4.461 0 0 1 1.763-1.746c.744-.408 1.576-.611 2.496-.611.919 0 1.751.203 2.496.61.745.408 1.332.99 1.763 1.746.43.757.646 1.624.646 2.601 0 .978-.221 1.845-.664 2.601a4.638 4.638 0 0 1-1.815 1.763c-.756.407-1.594.61-2.514.61Zm0-1.727c.512 0 .99-.122 1.432-.367.454-.244.82-.61 1.1-1.1.279-.488.418-1.082.418-1.78s-.134-1.286-.401-1.763c-.268-.489-.623-.855-1.065-1.1a2.913 2.913 0 0 0-1.431-.366c-.512 0-.99.122-1.432.366-.43.245-.773.611-1.03 1.1-.255.477-.383 1.065-.383 1.763 0 1.036.261 1.839.785 2.409.535.559 1.205.838 2.007.838ZM49.003 5.872v12.132h-1.99V9.695l-3.7 8.309h-1.38l-3.717-8.309v8.309h-1.99V5.872h2.147l4.26 9.514 4.24-9.514h2.13Z"/>
  <path fill="#EF61B4" d="M19.354 14.02c.263-.945-.366-1.904-1.405-2.143-1.04-.24-2.095.332-2.358 1.277-.263.945.366 1.904 1.405 2.143 1.04.24 2.095-.333 2.358-1.277Z"/>
  <path fill="#EF61B4" d="M27.36 19.593c-.23.127-.46.17-.69.17-.483 0-.965-.233-1.218-.655L17.729 6.816 10.006 19.11c-.391.61-1.242.822-1.908.463-.667-.358-.897-1.138-.506-1.75l4.827-7.674-2.092-3.332L2.604 19.11c-.253.421-.735.653-1.218.653-.23 0-.483-.063-.69-.169-.666-.358-.896-1.138-.505-1.75l8.941-14.21C9.385 3.232 9.845 3 10.35 3c.506 0 .966.253 1.219.633l2.505 3.963 2.505-3.963c.253-.401.713-.633 1.219-.633.506 0 .965.253 1.218.633l8.942 14.21c.39.612.16 1.392-.506 1.75h-.092Z"/>
</svg>
