<svg xmlns="http://www.w3.org/2000/svg" fill="none" viewBox="0 0 94 24">
  <g clip-path="url(#mode-dark_svg__a)">
    <path fill="#DFFE00" d="M39.217.576C45.89.576 51.3 5.734 51.3 12.096c0 6.362-5.41 11.52-12.083 11.52-6.674 0-12.083-5.158-12.083-11.52 0-6.362 5.41-11.52 12.083-11.52ZM7.197 1.639l4.463 11.969v3.51h1.464v-3.51l4.464-11.969h7.196v20.908h-4.83V12.128l1.93-5.941-1.374-.465-6.279 16.831H10.56L4.28 5.722l-1.375.465 1.926 5.941v10.42H0V1.638h7.196Zm54.344 0c1.759 0 3.423.188 5.004.562 1.58.374 2.956.977 4.136 1.816 1.18.839 2.114 1.924 2.804 3.265.69 1.34 1.037 2.965 1.037 4.873 0 1.694-.335 3.185-1.008 4.472a9.767 9.767 0 0 1-2.711 3.248c-1.136.877-2.449 1.54-3.935 1.994a15.909 15.909 0 0 1-4.676.678h-7.897V1.64h7.246Zm31.91 0v4.254H82.824v3.9h9.513v4.253h-9.513v4.248H93.45v4.253H77.994V1.64H93.45ZM59.125 5.893v12.406h2.51c1.113 0 2.148-.106 3.111-.325.963-.22 1.793-.578 2.494-1.08a5.208 5.208 0 0 0 1.658-1.977c.407-.817.608-1.816.602-3.003 0-1.02-.207-1.913-.607-2.671a5.401 5.401 0 0 0-1.625-1.875c-.68-.492-1.48-.861-2.399-1.107a11.14 11.14 0 0 0-2.894-.368h-2.85Z"/>
  </g>
  <defs>
    <clipPath id="mode-dark_svg__a">
      <path fill="#fff" d="M0 0h94v24H0z"/>
    </clipPath>
  </defs>
</svg>
