<svg xmlns="http://www.w3.org/2000/svg" fill="none" viewBox="0 0 132 24">
  <path fill="#9B9BFF" d="M8.055 1c.494 0 .894.4.894.895V4.58c0 .494-.4.894-.894.895H5.638c-.643 0-1.163.52-1.163 1.163v15.84c0 .495-.4.896-.895.896H.895A.895.895 0 0 1 0 22.479V6.369c0-.494.4-.894.895-.894h2.417c.642 0 1.162-.521 1.163-1.163V1.895c0-.494.4-.895.894-.895h2.686Zm8.949 0c.494 0 .895.4.895.895v2.433c.01.635.526 1.146 1.162 1.147h2.418c.494 0 .895.4.895.895v16.108a.896.896 0 0 1-.895.896h-2.685a.896.896 0 0 1-.896-.895V6.638c0-.643-.52-1.163-1.163-1.163H14.32a.895.895 0 0 1-.895-.895V1.895c0-.495.401-.895.895-.895h2.685Zm91.975 7.584c.531 0 1.06.062 1.585.187a4.46 4.46 0 0 1 1.442.616c.435.282.785.667 1.048 1.155.267.488.401 1.097.401 1.828v7.259a.115.115 0 0 1-.115.115h-2.266a.116.116 0 0 1-.115-.115v-1.346a.053.053 0 0 0-.054-.053.055.055 0 0 0-.047.029 3.172 3.172 0 0 1-.652.832 3.208 3.208 0 0 1-1.068.639c-.426.157-.926.236-1.499.236-.698 0-1.328-.125-1.887-.373a3.08 3.08 0 0 1-1.319-1.118c-.321-.493-.481-1.1-.481-1.823 0-.621.114-1.135.344-1.542.229-.406.543-.731.939-.975a4.747 4.747 0 0 1 1.342-.552 10.932 10.932 0 0 1 1.556-.28 62.033 62.033 0 0 0 1.571-.179c.402-.057.693-.144.875-.259.186-.12.279-.303.279-.552v-.043c0-.54-.16-.959-.48-1.255-.32-.297-.782-.445-1.384-.445-.636 0-1.141.139-1.514.416-.338.255-.576.553-.712.893a.122.122 0 0 1-.128.076l-2.199-.311a.113.113 0 0 1-.092-.146 3.814 3.814 0 0 1 .908-1.552 4.12 4.12 0 0 1 1.614-1.018 6.176 6.176 0 0 1 2.108-.344Zm-23.764 0c.894 0 1.685.164 2.374.494a4.058 4.058 0 0 1 1.657 1.385c.39.562.62 1.214.693 1.956a.114.114 0 0 1-.114.124h-2.263a.12.12 0 0 1-.115-.094c-.11-.49-.342-.9-.697-1.233-.373-.359-.873-.538-1.499-.538-.53 0-.997.143-1.398.43-.402.282-.715.689-.94 1.22-.22.53-.33 1.166-.33 1.907 0 .751.11 1.397.33 1.937.22.535.528.95.925 1.241.402.287.873.43 1.413.43.382 0 .724-.072 1.025-.215.306-.148.562-.361.768-.639.19-.255.323-.561.403-.918a.119.119 0 0 1 .115-.093h2.262c.067 0 .12.058.114.124a4.293 4.293 0 0 1-.677 1.949 4.08 4.08 0 0 1-1.621 1.406c-.684.335-1.488.502-2.41.502-1.1 0-2.045-.242-2.834-.725a4.838 4.838 0 0 1-1.814-2c-.42-.856-.63-1.842-.63-2.956 0-1.118.213-2.106.644-2.962.43-.86 1.038-1.53 1.822-2.008.789-.483 1.721-.724 2.797-.724Zm-33.802.144c.064 0 .115.051.115.115v6.497c0 .698.191 1.253.574 1.664.382.411.884.617 1.505.617.383 0 .754-.094 1.113-.28.358-.187.652-.464.882-.832.234-.373.351-.84.351-1.399V8.843c0-.064.052-.115.115-.115h2.367c.063 0 .115.051.115.115v10.786a.115.115 0 0 1-.115.115h-2.288a.116.116 0 0 1-.115-.115v-1.777a.069.069 0 0 0-.068-.066.07.07 0 0 0-.065.042l-.02.044a3.348 3.348 0 0 1-.072.157c-.021.042-.044.082-.066.122-.016.03-.032.059-.049.087-.024.042-.051.083-.078.123-.017.027-.034.055-.052.081l-.06.078a3.24 3.24 0 0 1-.24.29l-.011.012a3.567 3.567 0 0 1-.56.477c-.565.392-1.26.588-2.088.588-.721 0-1.36-.16-1.915-.48-.55-.326-.98-.796-1.29-1.413-.311-.621-.466-1.373-.466-2.253V8.843c0-.064.051-.115.115-.115h2.366ZM63.575 4.52c.064 0 .115.051.115.115v14.993a.115.115 0 0 1-.115.115H61.45a.115.115 0 0 1-.115-.115l.006-12.767a.115.115 0 0 0-.115-.115h-1.11A.116.116 0 0 1 60 6.632V4.636c0-.064.052-.115.115-.115h3.46ZM77.64 8.727c.063 0 .115.051.115.115v10.787a.115.115 0 0 1-.115.115h-2.367a.116.116 0 0 1-.115-.115V8.842c0-.064.052-.115.115-.115h2.367Zm16.865-3.672c.064 0 .115.051.115.115v5.35a.078.078 0 0 0 .15.03 3.179 3.179 0 0 1 1.177-1.421c.545-.363 1.239-.545 2.08-.545.765 0 1.432.16 2.001.48.569.32 1.01.789 1.321 1.406.315.616.472 1.37.472 2.26v6.899a.115.115 0 0 1-.115.115h-2.365a.116.116 0 0 1-.115-.115V13.13c0-.741-.192-1.318-.575-1.729-.377-.416-.908-.624-1.591-.624-.46 0-.871.1-1.235.301a2.11 2.11 0 0 0-.846.854c-.2.373-.301.825-.301 1.356v6.34a.115.115 0 0 1-.115.115h-2.366a.116.116 0 0 1-.115-.115V5.169c0-.063.052-.114.115-.114h2.308Zm24.042 3.672c.064 0 .115.051.115.115v10.787a.115.115 0 0 1-.115.115h-2.366a.116.116 0 0 1-.116-.115V8.842c0-.064.052-.115.116-.115h2.366Zm8.681-.143c.76 0 1.422.162 1.986.487a3.285 3.285 0 0 1 1.319 1.413c.316.617.472 1.366.467 2.245v6.9a.115.115 0 0 1-.115.115h-2.366a.116.116 0 0 1-.116-.115V13.13c0-.736-.191-1.313-.573-1.729-.378-.416-.902-.624-1.571-.624-.454 0-.858.1-1.212.301-.349.196-.625.48-.825.854-.196.373-.294.825-.294 1.356v6.34a.116.116 0 0 1-.116.115h-2.365a.116.116 0 0 1-.115-.115V8.843c0-.064.052-.115.115-.115h2.251c.064 0 .115.051.115.115v1.678a.078.078 0 0 0 .15.03 3.14 3.14 0 0 1 1.191-1.422c.56-.363 1.251-.545 2.074-.545Zm-93.307-3.53c.047 0 .089.029.106.072l.084.205.005.01 2.142 5.23 2.07 5.052a.128.128 0 0 0 .233 0l2.072-5.053 2.141-5.23c.002-.002.003-.006.004-.009l.085-.205a.115.115 0 0 1 .107-.071h3.063c.064 0 .115.051.115.115v14.458a.115.115 0 0 1-.115.115H43.71a.116.116 0 0 1-.115-.115V9.733a.081.081 0 0 0-.081-.08.083.083 0 0 0-.077.05l-4.008 9.925a.116.116 0 0 1-.108.072H37.57a.116.116 0 0 1-.107-.072l-4.01-9.947a.08.08 0 0 0-.156.03v9.917a.116.116 0 0 1-.115.115h-2.324a.116.116 0 0 1-.115-.115V5.17c0-.064.052-.115.115-.115h3.064Zm36.363.583c.064 0 .115.051.115.115v2.84c0 .063.052.115.116.115h2.525c.064 0 .115.052.115.115v1.892a.116.116 0 0 1-.115.115h-2.525a.115.115 0 0 0-.116.115v5.465c0 .715.224 1.062.979 1.062h1.75c.065 0 .116.051.116.115v1.96a.115.115 0 0 1-.115.115h-2.425c-1.707-.003-2.66-.926-2.66-2.563v-6.144a.115.115 0 0 0-.115-.115h-1.814a.116.116 0 0 1-.115-.115V8.822c0-.063.052-.115.115-.115h1.814a.115.115 0 0 0 .115-.115v-2.84c0-.064.052-.115.115-.115h2.125Zm-56.86 12.368c0 .494-.4.894-.895.894H9.844a.896.896 0 0 1-.895-.894v-3.58h4.475v3.58Zm97.442-3.268c0-.097-.122-.163-.213-.127a2.244 2.244 0 0 1-.203.07 5.892 5.892 0 0 1-.645.151c-.239.043-.477.08-.711.114l-.61.086a4.54 4.54 0 0 0-1.04.259c-.305.12-.547.287-.724.502-.177.21-.265.483-.265.817 0 .478.175.84.524 1.083.349.244.793.367 1.333.367.522 0 .974-.104 1.356-.309.382-.21.676-.488.882-.832.21-.344.316-.72.316-1.126v-1.055ZM12.529 9.95c.494 0 .894.4.895.895v3.58H8.949v-3.58c0-.494.401-.894.895-.895h2.685Zm63.935-5.604c.416 0 .77.138 1.061.416.297.272.445.605.445.997 0 .387-.148.72-.445.997a1.499 1.499 0 0 1-1.061.408c-.411 0-.765-.136-1.062-.408a1.319 1.319 0 0 1-.444-.997c0-.392.148-.725.444-.997a1.5 1.5 0 0 1 1.062-.416Zm40.907 0c.416 0 .77.138 1.062.416.296.272.444.605.444.997 0 .387-.148.72-.444.997a1.5 1.5 0 0 1-1.062.408c-.411 0-.765-.136-1.061-.408a1.317 1.317 0 0 1-.445-.997c0-.392.148-.725.445-.997.296-.278.65-.416 1.061-.416Z"/>
</svg>
