<svg xmlns="http://www.w3.org/2000/svg" fill="none" viewBox="0 0 140 24">
  <path fill="#9B9BFF" d="M7.36 1.865c.535 0 .97.433.97.966v2.29a.968.968 0 0 1-.97.966H5.206a.968.968 0 0 0-.97.967V21.17a.968.968 0 0 1-.97.966H.97A.968.968 0 0 1 0 21.17V7.054c0-.534.434-.967.97-.967h2.152c.536 0 .97-.432.97-.966v-2.29c0-.533.434-.966.97-.966h2.297Zm8.474 0c.535 0 .97.433.97.966v2.29c0 .534.434.966.97.966h2.152c.535 0 .97.433.97.967V21.17a.968.968 0 0 1-.97.966h-2.298a.968.968 0 0 1-.97-.966V7.054a.968.968 0 0 0-.97-.967h-2.152a.968.968 0 0 1-.97-.966v-2.29c0-.533.435-.966.97-.966h2.298Zm51.88 6.311c2.586 0 4.624 1.388 4.953 4.225h-2.258c-.219-1.433-1.205-2.07-2.214-2.07H67.1c-1.403 0-2.543 1.591-2.543 3.574 0 1.982 1.14 3.594 2.543 3.594h1.095a2.193 2.193 0 0 0 1.516-.606c.414-.392.671-.93.72-1.51h2.258c-.313 2.798-2.367 4.254-5.01 4.254-3.213-.02-5.427-2.385-5.427-5.752 0-3.366 2.24-5.709 5.462-5.709Zm34.102 0c2.587 0 4.626 1.388 4.955 4.225h-2.258c-.219-1.433-1.206-2.07-2.214-2.07h-1.096c-1.406 0-2.546 1.591-2.546 3.574 0 1.982 1.14 3.594 2.546 3.594h1.096a2.192 2.192 0 0 0 1.515-.606c.414-.392.672-.93.721-1.51h2.257c-.313 2.798-2.367 4.254-5.01 4.254-3.21-.02-5.426-2.385-5.426-5.752 0-3.366 2.235-5.709 5.46-5.709Zm21.854 6.714c0 1.57.767 2.502 1.775 2.502h1.253c1.074 0 2.038-1.024 2.038-2.502V8.497h2.305v10.805h-2.238v-1.478c-.627 1.114-1.732 1.797-3.42 1.797-2.524-.003-4.014-1.527-4.014-4.325V8.497h2.301v6.393ZM55.132 8.176c3.244 0 5.611 2.412 5.611 5.733 0 3.32-2.345 5.708-5.611 5.709-3.266 0-5.593-2.411-5.593-5.71 0-3.298 2.349-5.732 5.593-5.732Zm58.712 0c3.244 0 5.615 2.411 5.615 5.733 0 3.32-2.346 5.709-5.615 5.709s-5.589-2.411-5.589-5.71c0-3.298 2.345-5.732 5.589-5.732Zm-23.472-.01c2.677 0 4.3 1.115 4.384 3.594h-2.214c-.11-.932-.483-1.592-1.622-1.592h-1.318c-.987 0-1.448.546-1.448 1.251 0 .705.44 1.183 1.381 1.32l2.46.324c1.993.25 2.914 1.365 2.914 3.094 0 2.229-1.425 3.458-4.58 3.458-3.054.003-4.535-1.203-4.62-3.569h2.214c.11.956.68 1.57 1.879 1.57h1.45c1.03 0 1.512-.546 1.512-1.274s-.395-1.16-1.337-1.3l-2.436-.325c-2.06-.25-2.981-1.524-2.981-3.184 0-2.184 1.566-3.367 4.362-3.367Zm46.822.331h2.718v2.093h-2.718v5.505c0 .705.22 1.047.965 1.047H140v2.16h-2.505c-1.684-.003-2.624-.912-2.624-2.527V10.6h-2.017V8.497h2.017V5.47h2.323v3.028Zm-99.817-3.76c2.674 0 4.121 1.457 4.121 3.552a3.343 3.343 0 0 1-.492 1.854c-.34.552-.834.984-1.415 1.24v.069a3.595 3.595 0 0 1 1.868 1.385 3.82 3.82 0 0 1 .675 2.277c0 2.343-1.566 4.185-4.407 4.185h-6.662V4.738h6.312Zm10.01 14.552h-2.322L45.07 6.47H43.75V4.273h3.639v15.016Zm29.683-6.733h1.67l3.112-4.071h2.63l-3.837 5.027 4.012 5.777h-2.761l-3.354-4.776H77.07v4.776H74.77V4.273h2.301v8.283ZM11.597 9.949c.535 0 .97.433.97.966v6.272a.969.969 0 0 1-.97.967H9.299a.968.968 0 0 1-.97-.967v-6.272c0-.533.434-.966.97-.966h2.298Zm42.92.384c-1.424 0-2.673 1.626-2.673 3.576 0 1.949 1.25 3.547 2.674 3.547h1.252c1.425 0 2.674-1.569 2.674-3.547 0-1.98-1.252-3.576-2.674-3.576h-1.252Zm58.713 0c-1.424 0-2.673 1.626-2.673 3.576 0 1.949 1.255 3.547 2.679 3.547h1.247c1.425 0 2.677-1.569 2.677-3.547 0-1.98-1.252-3.575-2.677-3.576h-1.253Zm-79.814 6.964h4.29c1.205 0 2.082-.955 2.082-2.343 0-1.387-.877-2.32-2.082-2.32h-4.29v4.663Zm0-6.641h4.005c1.008 0 1.731-.774 1.731-1.95 0-1.177-.723-1.95-1.731-1.95h-4.005v3.9Z"/>
</svg>
