<svg xmlns="http://www.w3.org/2000/svg" fill="none" viewBox="0 0 142 24">
  <g clip-path="url(#optimism-superchain_svg__a)">
    <g clip-path="url(#optimism-superchain_svg__b)">
      <path fill="#FA8900" d="M13.57 3.618a.187.187 0 0 1 .317 0c.285.463.907 1.43 1.48 2 .574.57 1.546 1.19 2.012 1.472a.185.185 0 0 1 0 .315c-.466.283-1.438.902-2.011 1.472-.574.57-1.196 1.537-1.481 2a.187.187 0 0 1-.316 0c-.285-.463-.908-1.43-1.481-2-.573-.57-1.546-1.19-2.012-1.472a.185.185 0 0 1 0-.315c.466-.283 1.439-.902 2.012-1.472s1.196-1.537 1.48-2Z"/>
    </g>
    <g clip-path="url(#optimism-superchain_svg__c)">
      <path fill="#584DCB" d="M12.59 13.032a.178.178 0 0 1 .254-.068l.789.503a.179.179 0 0 0 .192 0l.788-.503a.179.179 0 0 1 .255.068l.43.828a.178.178 0 0 0 .166.095l.936-.043c.105-.005.19.08.186.185l-.044.93a.177.177 0 0 0 .096.166l.832.428a.176.176 0 0 1 .069.252l-.506.784a.176.176 0 0 0 0 .192l.506.784a.176.176 0 0 1-.069.252l-.832.428a.177.177 0 0 0-.096.166l.044.93a.178.178 0 0 1-.186.185l-.936-.043a.178.178 0 0 0-.166.095l-.43.828a.179.179 0 0 1-.255.067l-.788-.502a.179.179 0 0 0-.192 0l-.789.502a.178.178 0 0 1-.254-.067l-.43-.828a.178.178 0 0 0-.167-.095l-.935.043a.177.177 0 0 1-.186-.185l.043-.93a.177.177 0 0 0-.096-.166l-.832-.428a.176.176 0 0 1-.068-.252l.505-.784a.176.176 0 0 0 0-.192l-.505-.784a.176.176 0 0 1 .068-.252l.832-.428a.177.177 0 0 0 .096-.166l-.043-.93a.177.177 0 0 1 .186-.185l.935.043a.178.178 0 0 0 .167-.095l.43-.828Z"/>
    </g>
    <g clip-path="url(#optimism-superchain_svg__d)">
      <path fill="#39D551" d="M4.425 19.85a.178.178 0 0 1-.308 0L.511 13.657a.177.177 0 0 1 .154-.265h7.213c.137 0 .223.147.154.265l-3.607 6.195Z"/>
    </g>
    <g clip-path="url(#optimism-superchain_svg__e)">
      <path fill="#FF0420" d="M3.132 3.526a.178.178 0 0 1 .255-.067l.788.502a.179.179 0 0 0 .192 0l.789-.502a.178.178 0 0 1 .254.067l.43.828a.178.178 0 0 0 .166.095l.936-.043a.177.177 0 0 1 .186.185l-.043.93a.177.177 0 0 0 .096.166l.832.428a.176.176 0 0 1 .068.252l-.506.785a.176.176 0 0 0 0 .19l.506.785a.176.176 0 0 1-.068.253l-.832.427a.177.177 0 0 0-.096.166l.043.93a.177.177 0 0 1-.186.185l-.936-.043a.178.178 0 0 0-.166.095l-.43.828a.179.179 0 0 1-.254.068l-.789-.503a.179.179 0 0 0-.192 0l-.788.503a.179.179 0 0 1-.255-.068l-.43-.828a.178.178 0 0 0-.166-.095l-.936.043a.178.178 0 0 1-.186-.185l.044-.93a.177.177 0 0 0-.096-.166L.529 8.38a.176.176 0 0 1-.068-.253l.506-.784a.176.176 0 0 0 0-.191L.46 6.367a.176.176 0 0 1 .068-.252l.833-.428a.177.177 0 0 0 .096-.165l-.044-.93a.177.177 0 0 1 .186-.186l.936.043a.178.178 0 0 0 .166-.095l.43-.828Z"/>
    </g>
  </g>
  <path fill="#000" d="M58.85 5.978c.82 0 1.56.15 2.22.452a4.9 4.9 0 0 1 1.724 1.27 5.188 5.188 0 0 1 1.099 1.897c.258.718.387 1.507.387 2.369v.496a7.65 7.65 0 0 1-.366 2.392 5.582 5.582 0 0 1-1.077 1.918 4.92 4.92 0 0 1-1.702 1.291c-.66.302-1.422.454-2.284.454-.89 0-1.695-.18-2.413-.54a4.15 4.15 0 0 1-1.465-1.307v5.768h-3.448V6.322h2.737v2.971a5.45 5.45 0 0 1 .366-.86c.43-.818 1.013-1.428 1.745-1.83.733-.417 1.558-.625 2.478-.625ZM30.313 1.927c1.236 0 2.292.215 3.168.646.89.417 1.573 1.013 2.047 1.788.474.762.711 1.66.711 2.694h-3.447c0-.388-.094-.74-.28-1.056a2.052 2.052 0 0 0-.841-.797c-.36-.2-.812-.302-1.358-.302-.516 0-.954.086-1.313.258-.345.173-.604.41-.776.712a1.808 1.808 0 0 0-.258.947c0 .446.157.834.474 1.164.316.33.833.524 1.551.582l1.206.108c1.15.1 2.162.352 3.038.754.877.388 1.559.927 2.047 1.616.503.675.754 1.501.754 2.478 0 1.005-.265 1.889-.797 2.65-.517.747-1.257 1.328-2.22 1.745-.962.416-2.111.625-3.447.625-1.422 0-2.62-.223-3.597-.668-.977-.46-1.717-1.078-2.22-1.853-.503-.79-.754-1.696-.754-2.715h3.426c0 .402.108.776.323 1.12.23.345.575.625 1.034.84.46.202 1.056.302 1.788.302.661 0 1.214-.086 1.66-.258.445-.173.782-.41 1.012-.711.23-.316.345-.675.345-1.077 0-.503-.216-.899-.647-1.186-.43-.302-1.127-.495-2.09-.581l-1.184-.108c-1.566-.13-2.815-.618-3.749-1.465-.934-.848-1.4-1.968-1.4-3.362 0-1.005.237-1.874.71-2.606.489-.733 1.164-1.293 2.026-1.68.862-.403 1.881-.604 3.058-.604Zm40.823 3.986c1.264 0 2.326.287 3.188.861.876.56 1.544 1.3 2.004 2.22.46.905.69 1.896.69 2.973v1.164h-8.624c.05.35.13.673.243.97.2.516.517.918.948 1.206.43.287.99.431 1.68.431.632 0 1.15-.123 1.551-.367.402-.244.675-.545.819-.904h3.168a4.977 4.977 0 0 1-1.013 2.111 5.134 5.134 0 0 1-1.896 1.444c-.762.344-1.638.517-2.63.517-1.005 0-1.895-.173-2.67-.518a5.71 5.71 0 0 1-1.918-1.378 6.623 6.623 0 0 1-1.163-1.961 6.687 6.687 0 0 1-.388-2.24v-.431c0-.79.13-1.545.388-2.263a6.279 6.279 0 0 1 1.163-1.96A5.301 5.301 0 0 1 68.55 6.43c.761-.345 1.623-.517 2.585-.517Zm20.813 0c1.063 0 2.004.209 2.823.625a4.91 4.91 0 0 1 1.96 1.702c.489.733.761 1.573.819 2.52h-3.382a2.11 2.11 0 0 0-.647-1.335c-.359-.374-.883-.56-1.573-.56-.574 0-1.055.144-1.443.43-.374.288-.654.683-.84 1.185-.188.503-.28 1.1-.28 1.789 0 .631.085 1.206.258 1.723.172.503.445.898.819 1.186.388.272.89.409 1.508.409.46 0 .848-.08 1.164-.237.33-.173.588-.403.775-.69a2.29 2.29 0 0 0 .366-1.034h3.362c-.043.977-.317 1.839-.82 2.586a5.204 5.204 0 0 1-2.003 1.724c-.833.402-1.781.603-2.844.603-1.02 0-1.91-.166-2.672-.496a5.534 5.534 0 0 1-1.874-1.379 5.708 5.708 0 0 1-1.12-1.938 7.11 7.11 0 0 1-.367-2.263v-.41c0-.804.13-1.572.388-2.305a5.918 5.918 0 0 1 1.142-1.982 5.3 5.3 0 0 1 1.874-1.358c.761-.33 1.63-.495 2.607-.495Zm-50.301 7.434c0 .631.179 1.134.538 1.508.359.373.84.56 1.443.56.617 0 1.12-.194 1.509-.582.388-.388.58-.913.58-1.573V6.322h3.449V18.13H46.43v-2.74a5.843 5.843 0 0 1-.238.758c-.301.79-.754 1.378-1.357 1.766-.603.388-1.35.582-2.241.582h-.15c-1.365 0-2.414-.438-3.146-1.314-.733-.89-1.099-2.227-1.099-4.008V6.322h3.448v7.025Zm74.9-7.22c1.206.001 2.219.174 3.038.519.833.344 1.465.868 1.895 1.572.431.69.647 1.58.647 2.672v7.239h-2.736v-2.275c-.096.303-.219.58-.367.832-.316.56-.761.99-1.336 1.293-.56.301-1.249.452-2.068.452-.847 0-1.595-.15-2.241-.453a3.525 3.525 0 0 1-1.486-1.293c-.359-.574-.539-1.256-.539-2.046.001-.862.222-1.566.667-2.112.446-.56 1.071-.97 1.875-1.228.805-.273 1.731-.41 2.78-.41h2.133v-.042c0-.604-.144-1.056-.431-1.358-.287-.301-.747-.452-1.379-.452a64.421 64.421 0 0 0-2.844.086c-.546.029-1.042.057-1.487.086V6.301c.33-.029.719-.058 1.164-.087a44.23 44.23 0 0 1 2.715-.086ZM85.765 9.146h-.862c-.948 0-1.68.258-2.198.775-.517.503-.775 1.236-.775 2.198v6.012h-3.448V6.322h2.737v3.897c.13-1.112.461-2.01.991-2.69.718-.905 1.753-1.357 3.103-1.357h.452v2.973Zm16.705-.857c.299-.736.722-1.298 1.27-1.685.589-.431 1.329-.647 2.22-.647h.15c1.307 0 2.306.467 2.995 1.4.69.92 1.035 2.27 1.035 4.051v6.723h-3.448V11.19c0-.646-.194-1.163-.582-1.55-.373-.403-.868-.604-1.486-.604-.646 0-1.171.209-1.573.625-.388.417-.581.97-.581 1.66v6.808h-3.448V2.4h3.448v5.887Zm25.771 9.842h-3.448V8.864h-1.572V6.322h5.02V18.13Zm9.241-12.174c1.379 0 2.429.453 3.147 1.357.733.891 1.099 2.249 1.099 4.073v6.743h-3.447v-6.94c0-.632-.187-1.148-.561-1.55-.373-.403-.876-.604-1.508-.604-.646 0-1.171.209-1.573.625-.388.402-.581.933-.581 1.594v6.873h-3.448V6.322h2.737v2.952c.068-.325.154-.627.257-.905.316-.804.791-1.407 1.423-1.81.632-.402 1.401-.603 2.306-.603h.149Zm-20.828 6.852c-.603 0-1.07.15-1.4.452-.316.287-.474.683-.474 1.185 0 .474.158.862.474 1.163.33.288.797.431 1.4.431a2.6 2.6 0 0 0 1.034-.193c.316-.144.575-.381.776-.711.201-.33.316-.79.345-1.38v-.947h-2.155ZM57.882 8.843a3.08 3.08 0 0 0-1.466.366c-.46.244-.833.597-1.12 1.057-.273.445-.41.99-.41 1.636v.798c0 .618.144 1.149.431 1.594.302.43.683.761 1.142.991.46.23.934.345 1.423.345.589 0 1.098-.144 1.53-.43.444-.288.79-.69 1.033-1.208.244-.517.367-1.113.367-1.788s-.122-1.264-.367-1.767a2.771 2.771 0 0 0-1.012-1.163c-.431-.287-.948-.431-1.551-.431Zm13.253-.13c-.603 0-1.113.137-1.53.41-.416.273-.732.676-.948 1.207a3.945 3.945 0 0 0-.238.84h5.324a4.065 4.065 0 0 0-.238-.905c-.201-.503-.503-.883-.905-1.142-.388-.273-.876-.41-1.465-.41Zm54.994-7.152c.646 0 1.12.172 1.422.517.316.33.474.76.474 1.292 0 .517-.158.948-.474 1.293-.302.33-.776.496-1.422.496-.646 0-1.128-.166-1.444-.496-.301-.345-.452-.776-.452-1.293 0-.531.151-.962.452-1.292.316-.345.798-.517 1.444-.517Z"/>
  <defs>
    <clipPath id="optimism-superchain_svg__a">
      <path fill="#fff" d="M0 3h18v18H0z"/>
    </clipPath>
    <clipPath id="optimism-superchain_svg__b">
      <path fill="#fff" d="M9.458 3H18v8.494H9.458z"/>
    </clipPath>
    <clipPath id="optimism-superchain_svg__c">
      <path fill="#fff" d="M9.458 12.506H18V21H9.458z"/>
    </clipPath>
    <clipPath id="optimism-superchain_svg__d">
      <path fill="#fff" d="M0 12.506h8.542V21H0z"/>
    </clipPath>
    <clipPath id="optimism-superchain_svg__e">
      <path fill="#fff" d="M0 3h8.542v8.494H0z"/>
    </clipPath>
  </defs>
</svg>
