<svg xmlns="http://www.w3.org/2000/svg" fill="none" viewBox="0 0 1188 237.64705882352942" style="max-height: 500px" width="1188" height="237.64705882352942">
<path fill="url(#paint0_linear_1131_87703)" d="M83.8686 7.40904C83.2409 3.70273 88.459 2.20464 89.893 5.67947L92.6891 12.4549C92.7764 12.6665 92.843 12.8808 92.8901 13.0957C99.5955 11.479 106.35 10.6647 113.039 10.6015C113.032 10.3803 113.044 10.155 113.078 9.92732L114.144 2.69372C114.693 -1.02515 120.118 -0.837431 120.408 2.91045L120.973 10.2005C120.99 10.4308 120.987 10.6571 120.965 10.878C127.768 11.4175 134.452 12.7288 140.894 14.756C140.956 14.5438 141.037 14.3337 141.14 14.1277L144.396 7.565C146.066 4.19758 151.168 6.05274 150.286 9.70681L148.566 16.8284C148.513 17.0517 148.44 17.265 148.351 17.4672C154.611 20.0584 160.576 23.3497 166.121 27.2846C166.242 27.1086 166.381 26.9402 166.536 26.7814L171.661 21.5459C174.29 18.8596 178.569 22.2006 176.601 25.4032L172.765 31.6445C172.651 31.83 172.524 32.0016 172.386 32.1594C178.021 36.9573 183.105 42.4855 187.475 48.6719C187.464 48.0739 187.461 47.48 187.457 46.8964L187.457 46.7934C187.444 43.8275 190.126 41.5478 193.165 41.1228C194.617 40.9302 196.093 41.2248 197.36 41.9606C198.627 42.6964 199.614 43.8319 200.167 45.189C201.897 49.5892 202.189 54.4239 201.001 59.0003C200.904 59.4132 200.79 59.8259 200.66 60.2936L200.66 60.2938C200.611 60.4716 200.56 60.6574 200.506 60.8542C204.948 63.3581 208.432 67.2684 210.407 71.9694C211.995 75.755 210.489 79.6214 206.991 81.1566C205.187 81.9314 203.422 81.727 201.805 80.8798C203.234 87.1719 203.96 93.5014 204.026 99.7735C204.213 99.7728 204.402 99.7861 204.594 99.8143L211.827 100.881C215.546 101.429 215.358 106.855 211.61 107.145L204.321 107.709C204.13 107.724 203.941 107.724 203.756 107.711C203.222 114.523 201.914 121.217 199.888 127.669C200.058 127.725 200.227 127.794 200.394 127.876L206.956 131.132C210.323 132.803 208.468 137.905 204.814 137.022L197.693 135.303C197.514 135.26 197.342 135.205 197.176 135.139C194.584 141.409 191.289 147.385 187.349 152.939C187.485 153.04 187.615 153.151 187.74 153.273L192.975 158.397C195.661 161.027 192.32 165.306 189.117 163.337L182.877 159.502C182.732 159.413 182.596 159.316 182.468 159.212C178.101 164.341 173.129 169.013 167.607 173.106C167.7 173.24 167.786 173.381 167.864 173.53L171.252 180.008C172.995 183.339 168.495 186.376 166.057 183.514L161.317 177.949C161.207 177.82 161.108 177.687 161.019 177.549C156.353 180.404 151.36 182.872 146.066 184.895C144.907 185.337 143.745 185.755 142.58 186.147C142.627 186.301 142.664 186.459 142.692 186.622L143.916 193.848C144.543 197.554 139.325 199.052 137.891 195.577L135.095 188.803C135.034 188.653 134.982 188.502 134.941 188.351C128.22 189.973 121.45 190.789 114.746 190.851C114.743 191.009 114.73 191.17 114.706 191.331L113.64 198.563C113.091 202.282 107.666 202.094 107.376 198.346L106.812 191.058C106.799 190.894 106.797 190.731 106.805 190.572C99.9879 190.028 93.2896 188.71 86.8354 186.672C86.7824 186.827 86.7187 186.98 86.6439 187.131L83.3886 193.692C81.7179 197.059 76.6158 195.204 77.4981 191.55L79.2173 184.43C79.2574 184.264 79.3077 184.104 79.3673 183.949C73.0992 181.347 67.1268 178.042 61.5773 174.091C61.4774 174.225 61.3674 174.354 61.2471 174.477L56.1233 179.711C53.4938 182.397 49.2147 179.056 51.183 175.854L55.0183 169.614C55.1081 169.467 55.206 169.33 55.3111 169.201C50.1907 164.827 45.528 159.85 41.4443 154.322C41.302 154.424 41.1508 154.517 40.9908 154.601L34.5129 157.989C31.1819 159.731 28.1447 155.231 31.0063 152.794L36.5714 148.053C36.7127 147.933 36.86 147.825 37.012 147.729C34.7769 144.064 32.78 140.197 31.0496 136.141L18.3307 153.002C16.933 154.855 14.2108 155.054 12.7235 153.272C0.393318 138.501 -0.895058 118.586 0.400741 106.893C0.666316 104.496 3.1817 103.172 5.40328 104.109L24.508 112.169C24.0481 108.6 23.8074 105.032 23.778 101.483C23.5846 101.485 23.3883 101.472 23.1901 101.443L15.9573 100.376C12.2385 99.8278 12.4262 94.4021 16.1741 94.1121L23.4632 93.548C23.6671 93.5322 23.8679 93.5328 24.0645 93.5484C24.613 86.7426 25.934 80.0555 27.9717 73.612C27.7756 73.5521 27.5814 73.4753 27.3908 73.3807L20.8286 70.125C17.4612 68.4543 19.3163 63.3521 22.9704 64.2345L30.0914 65.9539C30.3019 66.0048 30.5034 66.072 30.6952 66.1538C33.296 59.8969 36.5969 53.935 40.5412 48.3947C40.3677 48.2744 40.2015 48.1377 40.0448 47.9842L34.8096 42.8597C32.1232 40.2302 35.4642 35.9511 38.6668 37.9194L44.9079 41.7552C45.0944 41.8699 45.2671 41.9977 45.4256 42.1366C49.7921 37.0239 54.7608 32.3675 60.2778 28.288C60.1452 28.1154 60.0254 27.9287 59.9205 27.7281L56.5317 21.2493C54.7894 17.9183 59.2892 14.8811 61.7267 17.7427L66.4679 23.3087C66.6171 23.4838 66.7471 23.6681 66.8584 23.8592C71.5036 21.0235 76.4725 18.5703 81.7392 16.5577C82.9109 16.11 84.0862 15.6883 85.2644 15.2924C85.1891 15.0834 85.1312 14.8644 85.0926 14.6366L83.8686 7.40904ZM41.4175 128.427C56.7155 168.461 101.57 188.513 141.603 173.215C181.263 158.059 201.312 113.894 186.807 74.1467C181.998 78.1855 176.229 81.845 169.519 84.3041C154.467 89.821 142.973 92.2248 133.273 93.1759C122.243 108.347 103.488 114.676 94.4136 115.979L95.5698 93.2619C89.6608 93.5078 83.3117 94.2856 75.8869 96.193C61.945 99.7747 48.9587 105.616 37.1715 112.399C37.9943 117.773 39.3978 123.142 41.4175 128.427ZM61.1954 130.375C57.4779 131.037 53.9279 128.559 53.2664 124.842C52.6048 121.124 55.0822 117.574 58.7997 116.912C62.5173 116.251 66.0672 118.728 66.7288 122.446C67.3903 126.164 64.913 129.714 61.1954 130.375ZM92.7162 131.202C90.2899 131.634 87.973 130.017 87.5412 127.59C87.1094 125.164 88.7263 122.847 91.1526 122.415C93.5789 121.983 95.8959 123.6 96.3277 126.027C96.7594 128.453 95.1425 130.77 92.7162 131.202ZM132.74 129.638C130.314 130.07 127.997 128.453 127.565 126.027C127.133 123.6 128.75 121.283 131.176 120.852C133.603 120.42 135.92 122.037 136.351 124.463C136.783 126.889 135.166 129.206 132.74 129.638ZM141.074 151.012C141.506 153.438 143.823 155.055 146.249 154.623C148.675 154.191 150.292 151.874 149.86 149.448C149.429 147.022 147.112 145.405 144.685 145.837C142.259 146.268 140.642 148.585 141.074 151.012ZM94.2999 161.907C91.8736 162.339 89.5566 160.722 89.1248 158.296C88.6931 155.869 90.31 153.552 92.7363 153.121C95.1626 152.689 97.4795 154.306 97.9113 156.732C98.3431 159.159 96.7262 161.475 94.2999 161.907ZM70.2179 143.047C70.6497 145.474 72.9666 147.091 75.3929 146.659C77.8192 146.227 79.4361 143.91 79.0043 141.484C78.5725 139.057 76.2556 137.441 73.8293 137.872C71.403 138.304 69.7861 140.621 70.2179 143.047ZM113.788 144.485C111.361 144.917 109.045 143.3 108.613 140.873C108.181 138.447 109.798 136.13 112.224 135.698C114.65 135.266 116.967 136.883 117.399 139.31C117.831 141.736 116.214 144.053 113.788 144.485ZM151.879 126.231C152.541 129.949 156.09 132.426 159.808 131.765C163.526 131.103 166.003 127.553 165.341 123.836C164.68 120.118 161.13 117.641 157.412 118.302C153.695 118.964 151.217 122.514 151.879 126.231ZM113.608 160.885C114.27 164.603 117.82 167.08 121.538 166.418C125.255 165.757 127.732 162.207 127.071 158.489C126.409 154.772 122.859 152.294 119.142 152.956C115.424 153.617 112.947 157.167 113.608 160.885ZM165.883 55.9749C167.252 61.9868 163.703 67.9205 157.958 69.2282C152.212 70.5359 146.445 66.7224 145.077 60.7105C143.709 54.6986 147.257 48.7649 153.003 47.4572C158.748 46.1495 164.515 49.963 165.883 55.9749Z" clip-rule="evenodd" fill-rule="evenodd"/>
<path fill="#4A98EA" d="M158.395 64.0052C160.983 63.4163 162.529 60.5182 161.85 57.5322C161.17 54.5461 158.521 52.6029 155.934 53.1919C153.346 53.7809 151.799 56.679 152.479 59.665C153.159 62.651 155.807 64.5942 158.395 64.0052Z"/>
<path fill="black" d="M518.058 50.5001C518.058 22.9177 538.723 0.557635 564.215 0.557617V24.9527C551.175 24.9527 540.604 36.3907 540.604 50.5001V50.5013H564.215V74.8963H540.604V150.386H518.058V50.5001ZM504.762 1.28232C479.27 1.28232 458.605 23.6415 458.605 51.2233L458.604 151.109H481.15V51.2248C481.15 37.1154 491.722 25.6774 504.762 25.6774V1.28232ZM289.166 126.713C302.206 126.713 312.777 115.275 312.777 101.166C312.777 87.0562 302.206 75.6182 289.166 75.6182C276.125 75.6182 265.554 87.0562 265.554 101.166C265.554 115.275 276.125 126.713 289.166 126.713ZM289.166 151.108C280.538 151.108 272.462 148.547 265.554 144.088V200.693H243.008V101.166C243.008 73.5832 263.674 51.2232 289.166 51.2232C314.658 51.2232 335.323 73.5832 335.323 101.166C335.323 128.748 314.658 151.108 289.166 151.108ZM437.775 51.2232H415.229V101.165C415.228 115.274 404.658 126.712 391.618 126.712C378.578 126.712 368.007 115.274 368.007 101.165V101.163V51.2233H345.46V101.163V101.165C345.461 128.747 366.126 151.107 391.618 151.107C417.11 151.107 437.776 128.747 437.776 101.164L437.775 51.2232ZM481.151 51.2243V75.6193H504.763V51.2243H481.151ZM652.043 69.051C656.275 74.7167 659.28 81.2743 660.903 88.2446C660.903 88.2446 661.409 90.3619 661.804 93.7831C662.199 97.2042 662.301 100.441 662.301 100.441L662.301 100.443C662.301 104.65 661.819 108.736 660.914 112.64H651.747V112.641H595.389C599.39 120.595 607.184 125.993 616.142 125.993C622.152 125.993 627.637 123.564 631.805 119.563L646.759 137.818C638.856 145.396 628.791 149.814 618.243 150.334C607.694 150.853 597.3 147.444 588.793 140.674C580.287 133.904 574.183 124.183 571.5 113.132C568.817 102.082 569.717 90.3701 574.05 79.9507C578.383 69.5313 585.886 61.0343 595.309 55.8772C604.732 50.7201 615.504 49.2147 625.828 51.612C636.153 54.0094 645.405 60.1647 652.043 69.051ZM595.389 88.2463C599.391 80.2926 607.184 74.8948 616.142 74.8948C625.101 74.8948 632.894 80.2926 636.895 88.2463H595.389ZM694.982 101.162C694.982 87.08 705.512 75.6591 718.518 75.6148V51.2197C693.061 51.264 672.436 73.607 672.436 101.162L694.982 101.162ZM672.436 151.106H694.982V101.165L672.436 101.165V151.106Z" clip-rule="evenodd" fill-rule="evenodd"/>
<path fill="url(#paint1_linear_1131_87703)" d="M747.003 150.92L747.003 50.334L755.003 50.334L755.003 150.92L747.003 150.92Z" clip-rule="evenodd" fill-rule="evenodd"/>
<path fill="url(#paint2_linear_1131_87703)" d="M1170.78 50.2999C1165.95 50.2999 1161.97 48.903 1158.85 46.1091C1155.85 43.2078 1154.34 39.6617 1154.34 35.4708C1154.34 31.1725 1155.85 27.6264 1158.85 24.8325C1161.97 21.9311 1165.95 20.4805 1170.78 20.4805C1175.51 20.4805 1179.38 21.9311 1182.39 24.8325C1185.5 27.6264 1187.06 31.1725 1187.06 35.4708C1187.06 39.6617 1185.5 43.2078 1182.39 46.1091C1179.38 48.903 1175.51 50.2999 1170.78 50.2999ZM1184.48 59.6488V149.591H1156.92V59.6488H1184.48Z"/>
<path fill="url(#paint3_linear_1131_87703)" d="M1142.43 36.4365V58.5191H1096.33V82.3746H1130.83V103.812H1096.33V149.589H1068.77V36.4365H1142.43Z"/>
<path fill="url(#paint4_linear_1131_87703)" d="M1035.09 50.2999C1030.26 50.2999 1026.28 48.903 1023.17 46.1091C1020.16 43.2078 1018.65 39.6617 1018.65 35.4708C1018.65 31.1725 1020.16 27.6264 1023.17 24.8325C1026.28 21.9311 1030.26 20.4805 1035.09 20.4805C1039.82 20.4805 1043.69 21.9311 1046.7 24.8325C1049.82 27.6264 1051.37 31.1725 1051.37 35.4708C1051.37 39.6617 1049.82 43.2078 1046.7 46.1091C1043.69 48.903 1039.82 50.2999 1035.09 50.2999ZM1048.79 59.6488V149.591H1021.23V59.6488H1048.79Z"/>
<path fill="url(#paint5_linear_1131_87703)" d="M967.424 58.6821C977.955 58.6821 986.337 62.1208 992.57 68.9981C998.91 75.7679 1002.08 85.1167 1002.08 97.0445V149.591H974.678V100.752C974.678 94.7341 973.12 90.0597 970.003 86.7286C966.887 83.3974 962.696 81.7318 957.431 81.7318C952.165 81.7318 947.975 83.3974 944.858 86.7286C941.742 90.0597 940.184 94.7341 940.184 100.752V149.591H912.621V59.6492H940.184V71.577C942.978 67.6011 946.739 64.4848 951.467 62.2282C956.195 59.8642 961.514 58.6821 967.424 58.6821Z"/>
<path fill="url(#paint6_linear_1131_87703)" d="M826.051 36.4365V104.135C826.051 110.905 827.716 116.116 831.047 119.77C834.379 123.423 839.268 125.25 845.715 125.25C852.163 125.25 857.106 123.423 860.545 119.77C863.983 116.116 865.703 110.905 865.703 104.135V36.4365H893.265V103.974C893.265 114.075 891.116 122.618 886.818 129.602C882.52 136.587 876.717 141.852 869.41 145.399C862.21 148.945 854.151 150.718 845.232 150.718C836.313 150.718 828.307 148.998 821.215 145.56C814.23 142.014 808.696 136.748 804.613 129.763C800.529 122.671 798.488 114.075 798.488 103.974V36.4365H826.051Z"/>
<defs>
<linearGradient gradientUnits="userSpaceOnUse" y2="143.344" x2="213.773" y1="-4.17265e-06" x1="125.66" id="paint0_linear_1131_87703">
<stop stop-color="#874FFF" offset="0.0677083"/>
<stop stop-color="#36AFE2" offset="0.463542"/>
<stop stop-color="#41FF54" offset="0.859375"/>
</linearGradient>
<linearGradient gradientUnits="userSpaceOnUse" y2="150.92" x2="746.503" y1="50.334" x1="746.503" id="paint1_linear_1131_87703">
<stop stop-color="#884FFF"/>
<stop stop-color="#4A98EA" offset="0.465034"/>
<stop stop-color="#41FF54" offset="1"/>
</linearGradient>
<linearGradient gradientUnits="userSpaceOnUse" y2="628.271" x2="671.311" y1="47.9769" x1="1195.02" id="paint2_linear_1131_87703">
<stop stop-color="#00D1FF"/>
<stop stop-color="#B7FE21" offset="1"/>
</linearGradient>
<linearGradient gradientUnits="userSpaceOnUse" y2="628.27" x2="671.311" y1="47.9755" x1="1195.02" id="paint3_linear_1131_87703">
<stop stop-color="#00D1FF"/>
<stop stop-color="#B7FE21" offset="1"/>
</linearGradient>
<linearGradient gradientUnits="userSpaceOnUse" y2="628.271" x2="671.309" y1="47.9769" x1="1195.02" id="paint4_linear_1131_87703">
<stop stop-color="#00D1FF"/>
<stop stop-color="#B7FE21" offset="1"/>
</linearGradient>
<linearGradient gradientUnits="userSpaceOnUse" y2="628.272" x2="671.311" y1="47.9774" x1="1195.02" id="paint5_linear_1131_87703">
<stop stop-color="#00D1FF"/>
<stop stop-color="#B7FE21" offset="1"/>
</linearGradient>
<linearGradient gradientUnits="userSpaceOnUse" y2="628.27" x2="671.31" y1="47.9755" x1="1195.02" id="paint6_linear_1131_87703">
<stop stop-color="#00D1FF"/>
<stop stop-color="#B7FE21" offset="1"/>
</linearGradient>
</defs>
</svg>