<svg xmlns="http://www.w3.org/2000/svg" fill="none" viewBox="0 0 164 24">
  <g fill="#1C180D" clip-path="url(#robinhood-light_svg__a)">
    <path d="M39.445 8.876c-2.922 0-4.712 1.99-4.712 5.49 0 3.483 1.79 5.474 4.712 5.474 2.95 0 4.698-1.99 4.698-5.474 0-3.5-1.748-5.49-4.698-5.49Zm0 9.365c-1.848 0-2.592-1.598-2.592-3.86.014-2.293.744-3.876 2.592-3.876s2.593 1.583 2.593 3.86c0 2.263-.745 3.876-2.593 3.876ZM31.581 12.918c-.157-.06-.215-.166-.215-.302 0-.105.086-.226.2-.302 1.118-.573 1.791-1.643 1.791-3.121 0-2.594-1.547-4.163-4.655-4.163h-5.356v14.614h2.12V13.61h3.423c1.618 0 2.162.724 2.205 1.9l.2 4.133h2.092l-.215-4.283c-.086-1.418-.616-2.066-1.59-2.443Zm-3.022-1.04h-3.094V6.81h3.094c1.604 0 2.592.83 2.592 2.533 0 1.72-.988 2.534-2.592 2.534ZM109.955 9.932c0 .211-.115.317-.258.317-.1 0-.186-.06-.258-.15 0 0-.014-.016-.043-.016-.716-.8-1.49-1.206-2.707-1.206-2.163 0-3.924 1.75-3.924 5.49s1.761 5.474 3.924 5.474c1.261 0 2.105-.438 2.807-1.312l.043-.046c.086-.09.158-.15.258-.15.143 0 .258.105.258.316v.996h1.905V4.533h-2.005v5.4Zm-2.507 8.31c-1.847 0-2.592-1.599-2.592-3.86 0-2.278.745-3.861 2.592-3.861 1.862 0 2.592 1.583 2.592 3.86 0 2.247-.73 3.861-2.592 3.861ZM66.213 8.876c-1.446 0-2.291.694-2.921 1.584-.086.105-.158.21-.301.21-.144 0-.258-.105-.258-.316V9.087h-1.89v10.557h2.004v-5.821c0-1.886.96-3.228 2.464-3.228 1.418 0 2.12.86 2.12 2.73v6.334h2.005v-6.892c0-2.428-1.046-3.891-3.223-3.891ZM76.927 8.877c-1.346 0-2.22.633-2.807 1.432-.086.106-.158.212-.3.212-.144 0-.259-.106-.259-.317v-5.67h-2.005v15.11h2.005v-5.82c0-1.886.96-3.228 2.464-3.228 1.418 0 2.12.86 2.12 2.73v6.334h2.005v-6.892c0-2.429-1.046-3.891-3.223-3.891ZM86.408 8.876c-2.922 0-4.712 1.99-4.712 5.49 0 3.483 1.79 5.474 4.712 5.474 2.95 0 4.698-1.99 4.698-5.474-.014-3.5-1.747-5.49-4.698-5.49Zm0 9.365c-1.847 0-2.592-1.598-2.592-3.86 0-2.278.745-3.861 2.592-3.861 1.848 0 2.593 1.583 2.593 3.86-.014 2.248-.745 3.861-2.593 3.861ZM96.921 8.876c-2.922 0-4.712 1.99-4.712 5.49 0 3.483 1.79 5.474 4.712 5.474 2.95 0 4.698-1.99 4.698-5.474 0-3.5-1.747-5.49-4.698-5.49Zm0 9.365c-1.847 0-2.592-1.598-2.592-3.86 0-2.278.745-3.861 2.592-3.861 1.848 0 2.592 1.583 2.592 3.86 0 2.248-.744 3.861-2.592 3.861ZM58.665 9.088H56.66v10.557h2.005V9.088ZM58.723 4.533h-2.149v2.413h2.149V4.533ZM51.06 8.877c-1.246 0-2.005.407-2.707 1.176l-.043.045c-.086.09-.157.151-.258.151-.143 0-.257-.106-.257-.317V4.533H45.79v15.112h1.89v-.996c0-.21.115-.317.258-.317.1 0 .186.06.258.151l.043.046c.716.86 1.547 1.312 2.821 1.312 2.149 0 3.91-1.735 3.91-5.475 0-3.725-1.761-5.49-3.91-5.49Zm-.773 9.365c-1.848 0-2.593-1.599-2.593-3.86 0-2.278.745-3.861 2.593-3.861 1.848 0 2.592 1.583 2.592 3.86-.014 2.247-.759 3.861-2.592 3.861ZM10.599 6.086H6.245c-.158 0-.301.06-.401.211L2.72 10.37c-.458.604-.573 1.161-.573 1.96v4.163C1.132 19.493.488 21.53.014 23.37c-.043.12.015.181.115.181h.473a.227.227 0 0 0 .2-.12C4.37 13.867 8.25 9.132 10.685 6.296c.1-.12.057-.21-.086-.21Z"/>
    <path d="M10.728 1.396c-.273.136-.416.166-.702.438A37.838 37.838 0 0 0 7.06 4.82c-.1.105-.057.21.086.21h4.827c.444 0 .701.272.701.74v5.73c0 .151.115.197.201.06l2.907-3.996c.473-.648.616-.844.745-1.749.172-1.327.072-3.363-.687-4.208-.673-.754-3.71-.784-5.113-.21Z"/>
    <path d="M11.458 7.232c-2.993 3.514-5.328 7.21-7.49 11.658-.058.12.014.211.143.166l4.468-1.448c.502-.136.788-.377 1.032-.8l1.99-3.453a.663.663 0 0 0 .058-.271V7.323c0-.15-.1-.211-.2-.09ZM156.526 19.659V9.105h1.104v1.355c0 .125.06.209.158.209.099 0 .138-.042.217-.167.572-.918 1.479-1.585 2.781-1.585 2.129 0 3.214 1.44 3.214 3.92v6.82h-1.183v-6.673c0-1.96-.848-2.899-2.268-2.899-1.735 0-2.84 1.522-2.84 3.566v6.007h-1.183ZM152.404 19.659V9.106h1.184v10.553h-1.184Zm-.236-13.014V4.893h1.656v1.752h-1.656ZM145.145 19.846c-1.775 0-3.116-.98-3.116-2.94 0-2.065 1.42-2.941 3.352-3.295l1.459-.272c1.262-.229 1.637-.48 1.637-1.25 0-1.294-1.006-2.045-2.504-2.045-1.321 0-2.288.46-2.386 1.981h-1.223c.079-2.19 1.716-3.107 3.609-3.107 2.07 0 3.707 1.001 3.707 3.379v7.361h-1.104v-1.23c0-.146-.079-.209-.158-.209s-.138.042-.257.188c-.532.647-1.597 1.44-3.016 1.44Zm.019-1.126c1.814 0 3.412-1.251 3.412-3.316V13.84c-.257.271-.888.459-1.775.626l-1.104.208c-1.775.334-2.446 1.064-2.446 2.253 0 .98.612 1.793 1.913 1.793ZM132.433 19.659V4.518h1.184v5.86c0 .125.059.209.157.209.099 0 .138-.042.217-.167.493-.772 1.282-1.502 2.682-1.502 2.149 0 3.234 1.44 3.234 3.92v6.82h-1.183v-6.673c0-1.96-.848-2.899-2.268-2.899-1.735 0-2.839 1.522-2.839 3.566v6.007h-1.184ZM124.699 19.909c-3.569 0-5.995-2.878-5.995-7.57 0-4.693 2.426-7.571 5.995-7.571 3.155 0 5.048 2.023 5.324 5.047h-1.282c-.256-2.065-1.498-3.837-4.062-3.837-2.8 0-4.673 2.314-4.673 6.36 0 4.067 1.893 6.361 4.673 6.361 2.564 0 3.806-1.772 4.062-3.837h1.282c-.276 3.024-2.169 5.047-5.324 5.047Z"/>
  </g>
  <defs>
    <clipPath id="robinhood-light_svg__a">
      <path fill="#fff" d="M0 1h164v22.55H0z"/>
    </clipPath>
  </defs>
</svg>
