<svg width="88" height="24" viewBox="0 0 88 24" fill="none" xmlns="http://www.w3.org/2000/svg">
<g clip-path="url(#clip0_11598_45287)">
<path d="M33.3398 6.62072C31.7142 6.62072 30.4433 7.56653 30.4433 8.92614C30.4433 10.2857 31.5073 10.7291 32.8374 10.9951L34.5221 11.2611C36.7389 11.6158 38.2758 12.6503 38.2758 15.0739C38.2758 17.6158 36.2068 19.0936 33.5467 19.0936C31.1527 19.0936 28.9063 17.6749 28.5812 14.9261C28.5517 14.6897 28.729 14.4828 28.9655 14.4828H29.9704C30.1477 14.4828 30.3251 14.6306 30.3546 14.8079C30.5615 16.7586 32.0689 17.5271 33.5467 17.5271C35.1724 17.5271 36.4433 16.7291 36.4433 15.1035C36.4433 13.6552 35.4088 13.1527 34.0492 12.8867L32.394 12.5912C30.0886 12.2069 28.6403 11.0838 28.6403 8.98525C28.6403 6.53205 30.7684 5.02466 33.3398 5.02466C35.3793 5.02466 37.6551 6.17737 38.0985 8.92614C38.128 9.16259 37.9507 9.36949 37.7142 9.36949H36.6502C36.4729 9.36949 36.2955 9.2217 36.266 9.04436C35.9704 7.30052 34.6403 6.62072 33.3398 6.62072Z" fill="#101010"/>
<path d="M44.8966 8.12805C47.3793 8.12805 49.1232 9.4581 49.7439 11.6157C49.803 11.8522 49.6256 12.1182 49.3596 12.1182H48.2069C48.0296 12.1182 47.9113 12 47.8522 11.8522C47.4089 10.6108 46.4335 9.93101 44.8966 9.93101C42.8276 9.93101 41.6749 11.6157 41.6749 13.6551C41.6749 15.665 42.8276 17.3793 44.8966 17.3793C46.404 17.3793 47.4089 16.6699 47.8522 15.4581C47.9113 15.3103 48.0591 15.1921 48.2069 15.1921H49.3596C49.6256 15.1921 49.803 15.4285 49.7143 15.6946C49.0641 17.9409 47.3498 19.1822 44.867 19.1822C41.6749 19.1822 39.665 16.729 39.665 13.6847C39.6946 10.6108 41.734 8.12805 44.8966 8.12805Z" fill="#101010"/>
<path d="M51.6355 17.3498H54.1182V10.4335H51.9015C51.6946 10.4335 51.5172 10.2562 51.5172 10.0493V9.07394C51.5172 8.86704 51.6946 8.6897 51.9015 8.6897H54.9162C55.5369 8.6897 56.069 9.22172 56.069 9.84241V10.1084C56.6305 8.77837 57.8128 8.45325 59.6453 8.45325C60.3547 8.45325 60.8276 8.57147 61.0936 8.66014C61.2414 8.71926 61.33 8.86704 61.33 9.01482V10.0493C61.33 10.3153 61.0936 10.4927 60.8276 10.404C60.5025 10.2858 60.0296 10.1971 59.4384 10.1971C57.4877 10.1971 56.0985 11.5271 56.0985 13.8621V17.3498H59.2906C59.4975 17.3498 59.6749 17.5271 59.6749 17.734V18.7094C59.6749 18.9163 59.4975 19.0936 59.2906 19.0936H51.6355C51.4286 19.0936 51.2512 18.9163 51.2512 18.7094V17.734C51.2512 17.5271 51.4286 17.3498 51.6355 17.3498Z" fill="#101010"/>
<path d="M62.8079 13.6256C62.8079 10.6108 64.8177 8.12805 68.0689 8.12805C71.3202 8.12805 73.33 10.5813 73.33 13.6256C73.33 16.6404 71.3202 19.1231 68.0689 19.1231C64.7882 19.0936 62.8079 16.6404 62.8079 13.6256ZM68.0394 17.3202C70.1379 17.3202 71.3202 15.6354 71.3202 13.596C71.3202 11.5862 70.1084 9.87189 68.0394 9.87189C65.9409 9.87189 64.7586 11.5566 64.7586 13.596C64.7586 15.6354 65.9704 17.3202 68.0394 17.3202Z" fill="#101010"/>
<path d="M77.6453 17.4384H80.6601C80.867 17.4384 81.0443 17.6157 81.0443 17.8226V18.7389C81.0443 18.9458 80.867 19.1231 80.6601 19.1231H76.1675C75.9606 19.1231 75.7832 18.9458 75.7832 18.7389V6.85709H74.2758C74.0689 6.85709 73.8916 6.67975 73.8916 6.47286V5.5566C73.8916 5.3497 74.0689 5.17236 74.2758 5.17236H76.4926C77.1133 5.17236 77.6453 5.70438 77.6453 6.32507V17.4384Z" fill="#101010"/>
<path d="M84.2956 17.4384H87.3103C87.5172 17.4384 87.6946 17.6157 87.6946 17.8226V18.7389C87.6946 18.9458 87.5172 19.1231 87.3103 19.1231H82.8177C82.6108 19.1231 82.4335 18.9458 82.4335 18.7389V6.85709H80.9261C80.7192 6.85709 80.5419 6.67975 80.5419 6.47286V5.5566C80.5419 5.3497 80.7192 5.17236 80.9261 5.17236H83.1429C83.7635 5.17236 84.2956 5.70438 84.2956 6.32507V17.4384Z" fill="#101010"/>
<path d="M22.6108 16.2857V2.12808C22.5813 0.945813 21.6355 0 20.4532 0H5.73399C2.54187 0.0591133 0 2.6601 0 5.85222C0 6.91626 0.295566 7.86207 0.738916 8.6601C1.12315 9.3399 1.71429 9.96059 2.27586 10.4335C2.4532 10.5813 2.36453 10.5222 2.86699 10.8177C3.5468 11.2315 4.34483 11.4384 4.34483 11.4384V19.8916C4.37438 20.3054 4.40394 20.6897 4.52217 21.0443C4.84729 22.2266 5.67488 23.1429 6.79803 23.5862C7.27094 23.7635 7.80296 23.8818 8.36453 23.9113L20.0985 23.9704C22.4335 23.9704 24.3547 22.0788 24.3547 19.7143C24.3547 18.3251 23.6749 17.0542 22.6108 16.2857Z" fill="#FFEEDA"/>
<path d="M22.9064 19.8029C22.8473 21.3103 21.6059 22.5221 20.0985 22.5221L12 22.4926C12.6502 21.7537 13.0345 20.7783 13.0345 19.7143C13.0345 18.0591 12.0591 16.9064 12.0591 16.9064H20.1281C21.665 16.9064 22.936 18.1773 22.936 19.7143L22.9064 19.8029Z" fill="#EBC28E"/>
<path d="M3.04433 9.25123C2.09852 8.36453 1.44828 7.21182 1.44828 5.85222V5.70443C1.53695 3.39901 3.42857 1.50739 5.73399 1.44828H20.4828C20.867 1.47783 21.1626 1.74384 21.1626 2.12808V14.6305C21.4877 14.6897 21.665 14.7488 21.9901 14.8374C22.2562 14.9261 22.6108 15.133 22.6108 15.133V2.12808C22.5813 0.945813 21.6355 0 20.4532 0H5.73399C2.54187 0.0591133 0 2.6601 0 5.85222C0 7.71429 0.857143 9.31035 2.21675 10.4039C2.30542 10.4926 2.39409 10.5813 2.6601 10.5813C3.10345 10.5813 3.39901 10.2266 3.36946 9.87192C3.36946 9.5468 3.25123 9.42857 3.04433 9.25123Z" fill="#101010"/>
<path d="M20.0985 15.4581H8.54186C7.77338 15.4581 7.1527 16.0788 7.1527 16.8768V18.532C7.18225 19.3005 7.8325 19.9507 8.60097 19.9507H9.45811V18.532H8.60097V16.9064C8.60097 16.9064 8.80787 16.9064 9.07388 16.9064C10.5222 16.9064 11.6157 18.266 11.6157 19.7142C11.6157 21.0147 10.4335 22.6404 8.48275 22.5221C6.7389 22.4039 5.79309 20.867 5.79309 19.7142V5.61572C5.79309 4.99503 5.26107 4.46301 4.64038 4.46301H3.48767V5.91129H4.34481V19.7438C4.2857 22.5517 6.35467 23.9704 8.48275 23.9704L20.1281 24C22.463 24 24.3842 22.1083 24.3842 19.7438C24.3547 17.3793 22.463 15.4581 20.0985 15.4581ZM22.9064 19.8029C22.8473 21.3103 21.6059 22.5221 20.0985 22.5221L12 22.4926C12.6502 21.7537 13.0345 20.7783 13.0345 19.7142C13.0345 18.0591 12.0591 16.9064 12.0591 16.9064H20.1281C21.665 16.9064 22.9359 18.1773 22.9359 19.7142L22.9064 19.8029Z" fill="#101010"/>
<path d="M16.9951 6.14772H8.27588V4.729H16.9951C17.3793 4.729 17.7045 5.05413 17.7045 5.43836C17.7045 5.8226 17.4089 6.14772 16.9951 6.14772Z" fill="#101010"/>
<path d="M16.9951 12.9458H8.27588V11.4976H16.9951C17.3793 11.4976 17.7045 11.8227 17.7045 12.2069C17.7045 12.6207 17.4089 12.9458 16.9951 12.9458Z" fill="#101010"/>
<path d="M18.532 9.54679H8.27588V8.09851H18.532C18.9163 8.09851 19.2414 8.42363 19.2414 8.80787C19.2414 9.22166 18.9163 9.54679 18.532 9.54679Z" fill="#101010"/>
</g>
<defs>
<clipPath id="clip0_11598_45287">
<rect width="87.6946" height="24" fill="white"/>
</clipPath>
</defs>
</svg>
