<svg width="87" height="24" viewBox="0 0 87 24" fill="none" xmlns="http://www.w3.org/2000/svg">
<g clip-path="url(#clip0_11768_5224)">
<g clip-path="url(#clip1_11768_5224)">
<path d="M12.0001 24.0001C18.6275 24.0001 24.0001 18.6275 24.0001 12.0001C24.0001 5.37261 18.6275 0 12.0001 0C5.37261 0 0 5.37261 0 12.0001C0 18.6275 5.37261 24.0001 12.0001 24.0001Z" fill="black"/>
<path d="M33.2012 18.5656C32.5662 18.5284 31.9535 18.4119 31.3633 18.2158C30.7729 18.0198 30.25 17.7515 29.7941 17.4109C29.3381 17.0706 28.9881 16.6635 28.7439 16.1898L31.2595 15.2127C31.3572 15.3609 31.516 15.518 31.7358 15.6845C31.9555 15.8511 32.2182 15.9898 32.5234 16.1009C32.8287 16.2119 33.1645 16.2674 33.5309 16.2674C33.8402 16.2674 34.1354 16.2286 34.4162 16.1508C34.6971 16.0731 34.925 15.9529 35.1001 15.79C35.2751 15.6273 35.3626 15.4164 35.3626 15.1573C35.3626 14.8836 35.2589 14.6706 35.0513 14.5188C34.8436 14.3672 34.583 14.2523 34.2697 14.1747C33.9561 14.0969 33.653 14.0248 33.3599 13.9582C32.5863 13.8176 31.8679 13.5993 31.2045 13.3031C30.5409 13.0072 30.0078 12.6241 29.6047 12.1541C29.2017 11.6842 29.0003 11.1161 29.0003 10.45C29.0003 9.71714 29.214 9.08439 29.6414 8.55151C30.0688 8.01862 30.6263 7.6079 31.3144 7.31926C32.0023 7.03061 32.7451 6.88623 33.5431 6.88623C34.5119 6.88623 35.4013 7.06938 36.2115 7.4358C37.0215 7.80221 37.6626 8.31831 38.1349 8.98453L35.7779 10.2501C35.6637 10.0725 35.505 9.90799 35.3017 9.75614C35.0982 9.6045 34.866 9.47864 34.6056 9.37867C34.345 9.2787 34.0722 9.22151 33.7874 9.20657C33.4211 9.19184 33.0872 9.22151 32.7859 9.29538C32.4846 9.36947 32.2425 9.49522 32.0594 9.67274C31.8762 9.85047 31.7846 10.0873 31.7846 10.3834C31.7846 10.6648 31.9067 10.8737 32.1509 11.0106C32.3952 11.1477 32.6902 11.2531 33.0362 11.327C33.3822 11.4012 33.7141 11.4825 34.0315 11.5712C34.7479 11.786 35.4216 12.0486 36.0526 12.3596C36.6834 12.6704 37.1902 13.0517 37.573 13.5031C37.9556 13.9546 38.1389 14.4949 38.1226 15.124C38.1226 15.842 37.8864 16.4692 37.4143 17.0057C36.942 17.5425 36.3334 17.9512 35.5886 18.2324C34.8436 18.5137 34.0478 18.6247 33.2011 18.5655L33.2012 18.5656Z" fill="black"/>
<path d="M49.2211 11.3493V18.3658H46.5121V12.0599C46.5121 11.6233 46.4049 11.2255 46.1901 10.8664C45.9753 10.5074 45.6887 10.2225 45.3298 10.0116C44.9708 9.80056 44.5731 9.69507 44.1364 9.69507C43.6997 9.69507 43.3019 9.80056 42.9429 10.0116C42.5839 10.2224 42.299 10.5074 42.0881 10.8664C41.8771 11.2254 41.7718 11.6232 41.7718 12.0599V18.3658H39.0629L39.0518 1.71301H41.7606L41.7718 8.25194C42.1492 7.85238 42.6006 7.53601 43.1262 7.30271C43.6516 7.06962 44.2177 6.95297 44.8246 6.95297C45.6312 6.95297 46.3678 7.15107 47.0339 7.54684C47.7 7.94293 48.2311 8.47213 48.6271 9.13445C49.0228 9.79688 49.221 10.5352 49.221 11.3492L49.2211 11.3493Z" fill="black"/>
<path d="M59.1461 7.26384H61.855V18.3657H59.1461L59.024 16.989C58.7204 17.485 58.3191 17.8865 57.8195 18.1936C57.3199 18.5006 56.7296 18.6543 56.0487 18.6543C55.2271 18.6543 54.4574 18.4989 53.7396 18.188C53.0216 17.8772 52.3907 17.448 51.8467 16.9001C51.3027 16.3525 50.877 15.7198 50.5699 15.0018C50.2627 14.284 50.1093 13.5141 50.1093 12.6926C50.1093 11.9007 50.2553 11.157 50.5478 10.4611C50.84 9.76549 51.2489 9.15483 51.7745 8.62931C52.2999 8.1039 52.9069 7.69308 53.5952 7.39706C54.2835 7.10116 55.0236 6.95288 55.8156 6.95288C56.5483 6.95288 57.205 7.11578 57.7861 7.44136C58.3671 7.76716 58.8612 8.18156 59.2683 8.68477L59.1461 7.26384ZM55.9821 16.0454C56.5594 16.0454 57.0702 15.9012 57.5142 15.6125C57.9583 15.3239 58.3062 14.9335 58.5578 14.4414C58.8093 13.9492 58.9353 13.4071 58.9353 12.8149C58.9353 12.2154 58.8093 11.6696 58.5578 11.1772C58.3062 10.6852 57.9564 10.2947 57.5086 10.006C57.0607 9.7174 56.552 9.57313 55.9821 9.57313C55.4121 9.57313 54.8922 9.71935 54.4224 10.0117C53.9522 10.3041 53.5787 10.6945 53.3011 11.1828C53.0235 11.6712 52.8847 12.2154 52.8847 12.8149C52.8847 13.4144 53.0252 13.9584 53.3066 14.4468C53.5879 14.9353 53.9633 15.3239 54.4334 15.6125C54.9033 15.9012 55.4195 16.0454 55.9821 16.0454Z" fill="black"/>
<path d="M65.6739 23.9167H62.9651V7.26388H65.6739V8.67387C66.0366 8.17066 66.4825 7.76179 67.0118 7.44714C67.5409 7.13272 68.1607 6.97534 68.8714 6.97534C69.6854 6.97534 70.444 7.12708 71.1473 7.43046C71.8503 7.73406 72.4701 8.15409 73.0069 8.69055C73.5433 9.22734 73.9615 9.84709 74.2613 10.5501C74.5611 11.2534 74.7109 12.0083 74.7109 12.815C74.7109 13.6217 74.561 14.3803 74.2613 15.0909C73.9615 15.8015 73.5433 16.425 73.0069 16.9616C72.4701 17.4983 71.8503 17.9182 71.1473 18.2217C70.444 18.525 69.6854 18.6768 68.8714 18.6768C68.1607 18.6768 67.5409 18.5194 67.0118 18.205C66.4825 17.8906 66.0366 17.4816 65.6739 16.9783V23.9168V23.9167ZM68.838 9.58422C68.2756 9.58422 67.7722 9.73044 67.3282 10.0228C66.8841 10.3152 66.5362 10.7056 66.2846 11.1939C66.033 11.6824 65.9072 12.2229 65.9072 12.8148C65.9072 13.4067 66.033 13.9491 66.2846 14.4413C66.5361 14.9336 66.8841 15.3258 67.3282 15.618C67.7723 15.9104 68.2756 16.0565 68.838 16.0565C69.4078 16.0565 69.9297 15.9123 70.4033 15.6236C70.877 15.335 71.2543 14.9446 71.5357 14.4525C71.817 13.9603 71.9577 13.4144 71.9577 12.8149C71.9577 12.2229 71.817 11.6824 71.5357 11.194C71.2543 10.7056 70.8789 10.3153 70.4089 10.0229C69.9388 9.73055 69.4153 9.58422 68.838 9.58422Z" fill="black"/>
<path d="M80.8612 18.6545C79.8397 18.6545 78.909 18.3916 78.0691 17.8663C77.229 17.3408 76.5593 16.6339 76.0596 15.7458C75.5601 14.8577 75.3103 13.8771 75.3103 12.8038C75.3103 11.9971 75.4546 11.2404 75.7432 10.5335C76.0319 9.82682 76.4297 9.20512 76.9367 8.66833C77.4436 8.13187 78.0339 7.71184 78.7075 7.40825C79.3809 7.10487 80.0989 6.95312 80.8613 6.95312C81.7272 6.95312 82.521 7.13628 83.2426 7.50269C83.9642 7.869 84.5765 8.37059 85.0799 9.00702C85.5831 9.64367 85.9495 10.3688 86.1789 11.183C86.4083 11.9973 86.4602 12.8483 86.3345 13.7365H78.219C78.3225 14.151 78.4927 14.523 78.7297 14.8522C78.9665 15.1817 79.2662 15.4445 79.629 15.6404C79.9916 15.8367 80.4023 15.9385 80.8613 15.9457C81.3349 15.9531 81.7662 15.8402 82.1546 15.607C82.5432 15.3739 82.8668 15.0576 83.126 14.6578L85.8903 15.3017C85.4389 16.2861 84.7652 17.0911 83.8699 17.7164C82.9741 18.3419 81.9714 18.6545 80.8612 18.6545ZM78.1301 11.7046H83.5923C83.5107 11.2605 83.3386 10.8591 83.076 10.5001C82.8132 10.1412 82.4893 9.85444 82.1045 9.63966C81.7196 9.42521 81.3052 9.31776 80.8612 9.31776C80.4173 9.31776 80.0063 9.42326 79.6289 9.63414C79.2514 9.84502 78.9312 10.1301 78.6686 10.489C78.4057 10.8481 78.2262 11.2533 78.1301 11.7046Z" fill="black"/>
</g>
</g>
<defs>
<clipPath id="clip0_11768_5224">
<rect width="86.4012" height="24" fill="white"/>
</clipPath>
<clipPath id="clip1_11768_5224">
<rect width="86.4012" height="24" fill="white"/>
</clipPath>
</defs>
</svg>
