<svg width="30" height="30" viewBox="0 0 30 30" fill="none" xmlns="http://www.w3.org/2000/svg">
<g clip-path="url(#clip0_10034_65610)">
<path d="M28.9637 14.0504C28.4396 6.33563 21.7617 0.508941 14.0493 1.033C10.2073 1.29479 6.83335 3.08443 4.4786 5.76538L4.4716 5.76071C4.4548 5.78218 4.44033 5.80364 4.42586 5.82511C2.08744 8.52286 0.771467 12.1073 1.0328 15.9502C1.05706 16.317 1.09999 16.6763 1.15273 17.0328C1.15273 17.0501 1.15739 17.0641 1.15973 17.0809C1.19566 17.3156 1.23672 17.5508 1.28199 17.7809C1.3249 17.9935 1.37282 18.2051 1.42572 18.4155C3.04316 24.8629 9.08311 29.4291 15.9495 28.962C23.662 28.4375 29.491 21.7601 28.9665 14.0458L28.9637 14.0504ZM25.9164 14.2585C25.9813 15.2077 25.9211 16.1373 25.7512 17.0333C25.7512 17.0286 25.7465 17.024 25.7465 17.0188C24.7301 14.539 22.7226 12.747 20.9591 11.7573C21.3161 7.55501 19.8904 5.78217 18.2758 5.49471C17.9629 5.43594 17.6414 5.44174 17.3308 5.51177C17.0203 5.58179 16.7273 5.71455 16.47 5.90191C16.2126 6.08926 15.9963 6.32724 15.8342 6.60125C15.6722 6.87525 15.5678 7.17949 15.5277 7.49528C15.4883 7.7999 15.5095 8.10929 15.5899 8.40573C15.6703 8.70217 15.8084 8.97984 15.9962 9.22285C16.1841 9.46585 16.4181 9.66941 16.6847 9.82187C16.9513 9.97433 17.2454 10.0727 17.5501 10.1114C17.6626 10.1258 17.7727 10.1305 17.8805 10.1282C17.8884 10.2781 17.8924 10.4283 17.8927 10.5785C16.3998 10.2098 15.0055 10.1352 13.7334 10.2504C13.255 10.2818 12.7789 10.3418 12.3077 10.4301C12.4664 9.01145 13.0002 7.41594 14.0329 6.25163C15.0316 5.12325 16.5174 4.4788 18.1367 4.644C18.4438 4.67526 18.7719 4.75179 19.0663 4.85026C19.0808 4.85493 19.0953 4.85959 19.1074 4.86193C22.8593 6.3907 25.6219 9.95316 25.9141 14.2585H25.9164ZM16.1581 16.3958C16.1581 16.3958 16.1581 16.3982 16.1558 16.4005C15.8018 16.9092 15.4007 17.3834 14.9579 17.8168C14.2871 17.1083 13.7192 16.309 13.2709 15.4425C13.2494 15.3967 13.2256 15.3561 13.2037 15.3104V15.3057C12.941 14.7441 12.7308 14.1594 12.576 13.559C13.57 13.3243 14.5453 13.238 15.4777 13.2837L15.6261 13.2907H15.6308C16.2155 13.3388 16.824 13.4466 17.454 13.6192C17.1616 14.6026 16.7257 15.5374 16.1604 16.3935L16.1581 16.3958ZM11.3758 4.67293L11.3688 4.68226C9.72756 6.80042 9.18111 9.43331 9.20537 11.4553C5.38625 13.2473 4.56679 15.3678 5.12258 16.9106C5.13658 16.954 5.15385 16.9946 5.17065 17.0356C5.4101 17.6076 5.86685 18.0611 6.44053 18.2965C7.0142 18.5319 7.65786 18.5299 8.23006 18.2909C8.80205 18.0515 9.25557 17.5947 9.49095 17.0211C9.72634 16.4474 9.72433 15.8037 9.48537 15.2315C9.44187 15.1299 9.39151 15.0314 9.33464 14.9366C9.45457 14.8573 9.58383 14.7789 9.7229 14.6972C10.149 16.1756 10.7794 17.4239 11.5149 18.4683C11.7809 18.8635 12.0683 19.2443 12.3819 19.6111C11.0739 20.1837 9.42564 20.5192 7.8992 20.2075C6.42363 19.906 5.12258 18.9429 4.45433 17.457C4.32631 17.1656 4.22994 16.8613 4.16687 16.5494C4.12747 16.2814 4.09789 16.0122 4.0782 15.7421C3.73754 10.7273 6.84782 6.26377 11.3758 4.67293ZM15.7409 25.9171C12.7632 26.1205 9.97909 25.1051 7.8754 23.2982C10.5302 23.6603 13.0842 22.8166 14.8239 21.7843C18.2856 24.197 20.533 23.847 21.5919 22.594C21.7993 22.3522 21.9552 22.0705 22.0498 21.7663C22.1445 21.462 22.1759 21.1417 22.1423 20.8248C22.1086 20.508 22.0106 20.2014 21.8541 19.9238C21.6977 19.6462 21.4862 19.4036 21.2325 19.2107C20.9883 19.0245 20.7097 18.8882 20.4127 18.8097C20.1157 18.7312 19.8062 18.712 19.5018 18.7532C19.1974 18.7943 18.9041 18.8951 18.6386 19.0497C18.3732 19.2042 18.1408 19.4096 17.9547 19.654C17.888 19.7427 17.8278 19.8388 17.7751 19.9345C17.6481 19.8696 17.5138 19.7978 17.3775 19.7189C18.3529 18.7126 19.1522 17.5495 19.742 16.2782C19.9532 15.848 20.1388 15.4056 20.2978 14.9534C21.4481 15.8018 22.5644 17.0594 23.0581 18.5373C23.535 19.9653 23.3526 21.5753 22.3992 22.8959C22.2108 23.1521 21.9956 23.3874 21.7571 23.5978L21.7477 23.6071C20.0249 24.9641 17.932 25.7685 15.7437 25.9147L15.7409 25.9171Z" fill="white"/>
<g style="mix-blend-mode:overlay" opacity="0.9">
<path d="M18.276 5.49255C18.0134 5.44268 17.744 5.43952 17.4803 5.48321C18.8201 6.2112 19.795 8.24069 19.2826 12.2465C19.1129 13.5492 18.7301 14.8152 18.1495 15.9937C17.6492 17.0692 16.998 18.0678 16.2157 18.9594C16.5866 19.2383 16.9747 19.4936 17.3777 19.7237C18.3532 18.7176 19.1527 17.5547 19.7427 16.2835C20.3247 15.1056 20.7075 13.8394 20.8757 12.5363C21.4871 7.76844 19.9872 5.79914 18.2765 5.49441L18.276 5.49255Z" fill="white"/>
</g>
<g style="mix-blend-mode:overlay" opacity="0.8">
<path d="M19.2821 12.2442C19.7949 8.24028 18.8196 6.20892 17.4803 5.48047C17.4276 5.48747 17.3776 5.4996 17.3244 5.51173C18.6353 6.26632 19.5789 8.29302 19.0735 12.2442C18.9038 13.547 18.521 14.813 17.9404 15.9915C17.4582 17.0289 16.8349 17.9946 16.0883 18.8614C16.1312 18.895 16.1723 18.9263 16.2152 18.9571C16.9968 18.0649 17.6478 17.0663 18.1486 15.991C18.7307 14.8131 19.1137 13.5473 19.2821 12.2442Z" fill="white"/>
</g>
<g style="mix-blend-mode:overlay" opacity="0.5">
<path d="M14.1909 21.3268C14.064 21.2311 13.9441 21.1303 13.8223 21.0295C11.8455 21.8541 9.10668 22.3712 6.38513 21.7389C6.82835 22.3065 7.32668 22.8289 7.87284 23.2984C10.5277 23.6606 13.0817 22.8168 14.8214 21.7846C14.6076 21.6352 14.3966 21.4818 14.1886 21.3245L14.1909 21.3268Z" fill="white"/>
</g>
<g style="mix-blend-mode:overlay" opacity="0.6">
<path d="M13.8241 21.0295C13.7643 20.9791 13.7023 20.9292 13.6449 20.8788C11.6536 21.674 8.90083 22.1509 6.18628 21.4728C6.25348 21.5615 6.32068 21.6525 6.38741 21.7388C9.10709 22.3712 11.8473 21.8541 13.8241 21.0295Z" fill="white"/>
</g>
<g style="mix-blend-mode:overlay" opacity="0.9">
<path d="M5.12515 16.9136C5.13915 16.9565 5.15642 16.9976 5.17322 17.0382C5.26188 17.2491 5.37668 17.4381 5.51574 17.6085C5.47748 16.0848 6.74725 14.2229 10.4702 12.6656C11.6832 12.1611 12.971 11.86 14.2819 11.7743C15.4638 11.6689 16.6547 11.7335 17.8182 11.9661C17.8784 11.463 17.9022 10.9936 17.8976 10.5787C16.5386 10.2366 15.1317 10.1257 13.7359 10.2507C12.4249 10.3365 11.137 10.6377 9.92379 11.142C5.48961 12.9965 4.53343 15.2798 5.12562 16.9159V16.9136H5.12515Z" fill="white"/>
</g>
<g style="mix-blend-mode:overlay" opacity="0.8">
<path d="M10.4703 12.6679C6.74726 14.2256 5.47702 16.0871 5.51575 17.6108C5.54935 17.6514 5.58528 17.6901 5.62121 17.7284C5.61841 16.2164 6.90266 14.3862 10.5757 12.8476C11.7887 12.3431 13.0765 12.042 14.3874 11.9563C15.5269 11.8555 16.675 11.912 17.7991 12.1243C17.8067 12.0717 17.813 12.0189 17.8182 11.9661C16.6545 11.7348 15.4638 11.6704 14.2819 11.7748C12.9711 11.8607 11.6833 12.1618 10.4703 12.6661V12.6679Z" fill="white"/>
</g>
<g style="mix-blend-mode:overlay" opacity="0.4">
<path d="M20.8805 12.534C20.8618 12.6922 20.8352 12.8452 20.8086 13.0011C22.5096 14.2998 24.3281 16.4152 25.1429 19.0863C25.4122 18.4179 25.6152 17.7247 25.7491 17.0167C24.7355 14.5369 22.728 12.7468 20.9645 11.7574C20.943 12.0094 20.9164 12.2656 20.8828 12.534H20.8805Z" fill="white"/>
</g>
<g style="mix-blend-mode:overlay" opacity="0.5">
<path d="M20.8085 13.0011C20.7941 13.0776 20.7819 13.157 20.7675 13.2335C22.4521 14.5607 24.2417 16.7054 25.0108 19.3957C25.056 19.293 25.0994 19.1894 25.14 19.0868C24.3257 16.4152 22.5095 14.3021 20.8057 13.0011H20.8085Z" fill="white"/>
</g>
<g style="mix-blend-mode:overlay" opacity="0.9">
<path d="M21.592 22.5918C21.7651 22.3878 21.9028 22.1563 21.9994 21.9067C20.6984 22.7019 18.4528 22.5321 15.2403 20.0854C14.196 19.2877 13.2909 18.3227 12.5617 17.2294C11.8794 16.2589 11.3396 15.1956 10.9588 14.072C10.494 14.2708 10.0749 14.4864 9.71558 14.6973C10.0996 16.0452 10.7069 17.3191 11.5122 18.4661C12.2309 19.5394 13.1268 20.51 14.1908 21.322C18.0146 24.2354 20.4706 23.9213 21.5892 22.5913H21.592V22.5918Z" fill="white"/>
</g>
<g style="mix-blend-mode:overlay" opacity="0.8">
<path d="M15.2428 20.0859C18.4529 22.5316 20.7003 22.702 22.0009 21.9063C22.02 21.8564 22.0368 21.806 22.0513 21.7579C20.7432 22.5176 18.515 22.3184 15.3478 19.9062C14.3035 19.1085 13.3984 18.1435 12.6691 17.0503C12.012 16.1142 11.4872 15.0919 11.1096 14.0123C11.0592 14.0338 11.0116 14.0529 10.9635 14.0744C11.3442 15.1981 11.8838 16.2615 12.566 17.2323C13.2847 18.3056 14.1806 19.2762 15.2446 20.0882L15.2423 20.0859H15.2428Z" fill="white"/>
</g>
<g style="mix-blend-mode:overlay" opacity="0.3">
<path d="M9.92143 11.1372C10.0675 11.077 10.2136 11.022 10.362 10.9669C10.6354 8.84408 11.5575 6.21119 13.4652 4.17236C12.7512 4.27503 12.0489 4.44302 11.3685 4.68009C9.72684 6.79825 9.18085 9.43113 9.20512 11.4536C9.43238 11.3463 9.66991 11.2404 9.9191 11.1377L9.92143 11.1372Z" fill="white"/>
</g>
<g style="mix-blend-mode:overlay" opacity="0.4">
<path d="M10.3615 10.967C10.4361 10.9408 10.508 10.9119 10.5822 10.8858C10.8888 8.76247 11.852 6.14172 13.7951 4.12903C13.685 4.14116 13.5744 4.15563 13.4643 4.17009C11.557 6.21126 10.6349 8.84181 10.3619 10.9646V10.967H10.3615Z" fill="white"/>
</g>
<g style="mix-blend-mode:multiply" opacity="0.4">
<path d="M14.0494 1.03366C10.2065 1.29499 6.83349 3.08462 4.47827 5.76557L4.42554 5.8253C4.88286 6.28076 6.3827 7.17675 6.98889 7.55054C8.19683 6.24919 9.70353 5.2616 11.3787 4.67313C11.4963 4.5196 11.6205 4.36887 11.7502 4.2228C13.3312 2.43784 15.49 1.49612 17.9959 1.49612C18.2741 1.49612 18.842 1.54185 18.8537 1.54185C17.2944 1.09329 15.6686 0.92114 14.0499 1.0332L14.0494 1.03366Z" fill="white"/>
</g>
<g style="mix-blend-mode:multiply" opacity="0.4">
<path d="M15.7411 25.9196C12.7634 26.1231 9.97927 25.1076 7.87558 23.3012C7.67801 23.2754 7.48142 23.2425 7.28619 23.2027C4.9501 22.7258 3.05267 21.3268 1.80203 19.1587C1.66432 18.9191 1.53878 18.6727 1.4259 18.4204C3.04334 24.8678 9.08329 29.4345 15.9474 28.9669C15.9786 28.2604 15.77 26.6196 15.7388 25.9196H15.7411Z" fill="white"/>
</g>
<g style="mix-blend-mode:multiply" opacity="0.4">
<path d="M28.9643 14.0506C28.5331 14.0072 26.4341 14.1728 25.917 14.2587C25.9814 15.2079 25.9217 16.1375 25.7514 17.0335C25.8232 17.2108 25.8928 17.3928 25.9548 17.5771C26.7099 19.839 26.4462 22.1798 25.1956 24.3502C25.0571 24.5893 24.9068 24.8214 24.7452 25.0455C24.7452 25.0455 24.7522 25.0404 24.7546 25.0357C27.5989 22.2684 29.2541 18.32 28.9643 14.0529V14.0506Z" fill="white"/>
</g>
<g style="mix-blend-mode:multiply" opacity="0.5">
<path d="M18.1397 4.64185C18.4463 4.67312 18.7744 4.74965 19.0693 4.84812C19.0833 4.85278 19.0982 4.85745 19.1099 4.85978C20.3117 5.35031 21.4173 6.04956 22.3756 6.92521C22.3756 6.92521 22.3802 6.92754 22.3826 6.92988C22.8427 6.40535 23.7266 5.8281 23.7266 5.8281C23.7266 5.8281 22.3732 4.44306 20.3008 4.01187C18.8514 3.70994 15.581 3.42014 13.5179 6.92988L13.5371 6.91121C13.6906 6.68068 13.8511 6.45575 14.0355 6.24949C15.0346 5.12111 16.52 4.47619 18.1397 4.64185Z" fill="white"/>
</g>
<g style="mix-blend-mode:multiply" opacity="0.5">
<path d="M22.3994 22.8984C22.2111 23.1546 21.9958 23.3899 21.7573 23.6002C21.748 23.6096 21.7358 23.6194 21.726 23.6292C20.7003 24.4241 19.5421 25.0316 18.305 25.4235C18.3026 25.4235 18.3003 25.4235 18.2975 25.4258C18.5229 26.0871 18.5803 27.1412 18.5803 27.1412C18.5803 27.1412 20.4562 26.6625 21.8656 25.0833C22.8502 23.9787 24.7378 21.2908 22.7298 17.7498C22.7298 17.7498 22.7326 17.7614 22.7373 17.7759C22.8619 18.0232 22.9743 18.2766 23.0607 18.5379C23.5376 19.9659 23.3551 21.5759 22.4017 22.8961L22.3994 22.8984Z" fill="white"/>
</g>
<g style="mix-blend-mode:multiply" opacity="0.5">
<path d="M4.45971 17.4623C4.3315 17.1708 4.23497 16.8663 4.17178 16.5542C4.16945 16.5402 4.16478 16.5253 4.16245 16.5108C3.98512 15.2196 4.04252 13.9115 4.31831 12.6515V12.6441C3.63279 12.5097 2.69155 12.0309 2.69155 12.0309C2.69155 12.0309 2.16889 13.8975 2.83294 15.9051C3.29773 17.3111 4.67997 20.2893 8.75016 20.3206C8.75016 20.3206 8.7385 20.3178 8.72403 20.3131C8.4487 20.2963 8.17338 20.2679 7.90271 20.2128C6.42667 19.9109 5.12563 18.9477 4.45691 17.4623H4.45971Z" fill="white"/>
</g>
<g style="mix-blend-mode:multiply" opacity="0.6">
<path d="M17.5503 10.1096C17.6628 10.1236 17.7729 10.1283 17.8807 10.126C17.8807 10.126 17.8065 8.67187 17.6292 7.92429C17.4496 7.17904 17.1859 6.68298 16.8984 6.40298C16.6903 6.20185 16.036 5.95219 15.5283 7.4903C15.4889 7.79492 15.51 8.10433 15.5904 8.40079C15.6707 8.69726 15.8087 8.97497 15.9966 9.21802C16.1844 9.46106 16.4183 9.66467 16.6849 9.81719C16.9515 9.96971 17.2456 10.0681 17.5503 10.1068V10.1092V10.1096Z" fill="white"/>
</g>
<g style="mix-blend-mode:multiply" opacity="0.5">
<path d="M9.48877 15.2364C9.44511 15.1349 9.39459 15.0365 9.33757 14.9419C9.33757 14.9419 8.11306 15.7324 7.55728 16.2593C7.00149 16.7866 6.70422 17.2635 6.60623 17.6536C6.53669 17.9341 6.64683 18.6243 8.233 18.2958C8.80499 18.0563 9.25851 17.5996 9.49389 17.0259C9.72928 16.4522 9.72727 15.8086 9.48831 15.2364H9.48877Z" fill="white"/>
</g>
<g style="mix-blend-mode:multiply" opacity="0.6">
<path d="M17.9577 19.6519C17.8905 19.7405 17.8308 19.8367 17.7781 19.9319C17.7781 19.9319 19.0745 20.5959 19.8099 20.8138C20.5454 21.0322 21.1058 21.0514 21.4917 20.9408C21.7699 20.8619 22.3112 20.4186 21.2351 19.2113C20.9908 19.0252 20.7122 18.889 20.4153 18.8105C20.1184 18.732 19.8089 18.7128 19.5046 18.754C19.2002 18.7952 18.907 18.8959 18.6415 19.0505C18.3761 19.205 18.1438 19.4103 17.9577 19.6547V19.6519Z" fill="white"/>
</g>
<g style="mix-blend-mode:multiply" opacity="0.3">
<path d="M17.4546 13.6217C17.1606 14.5994 16.7481 15.4883 16.2427 16.2714C16.2161 16.312 16.19 16.3531 16.1611 16.396C16.1611 16.396 16.1611 16.3983 16.1587 16.4007C15.8048 16.9093 15.4037 17.3835 14.9608 17.817C15.2819 18.1572 15.6267 18.4875 16.008 18.8016C16.441 19.1422 16.899 19.4496 17.3781 19.7214C18.3536 18.7153 19.1531 17.5523 19.7431 16.2812C19.9542 15.8507 20.1396 15.4082 20.2984 14.9559C19.8052 14.5942 19.3068 14.3044 18.8471 14.108C18.394 13.9138 17.9279 13.7513 17.4523 13.6217H17.4551H17.4546Z" fill="white"/>
</g>
<g style="mix-blend-mode:multiply" opacity="0.3">
<path d="M7.876 23.3012C10.5304 23.6628 13.0844 22.8196 14.8241 21.7868C14.6103 21.6375 14.3993 21.4841 14.1913 21.3267C13.5296 20.8206 12.9228 20.2466 12.3806 19.6141C11.0721 20.1862 9.42391 20.5217 7.89747 20.21C6.4219 19.9086 5.12085 18.9454 4.45213 17.46C4.32409 17.1685 4.22772 16.864 4.16467 16.5519C4.5506 19.259 5.91604 21.6212 7.87367 23.3007L7.876 23.3012Z" fill="white"/>
</g>
<g style="mix-blend-mode:multiply" opacity="0.3">
<path d="M14.9604 17.8165C14.2899 17.1081 13.7222 16.309 13.2739 15.4426C13.2525 15.3969 13.2282 15.3563 13.2067 15.3106V15.3059C12.944 14.7443 12.7339 14.1596 12.5791 13.5592C12.1236 13.667 11.6663 13.8014 11.2062 13.9741C10.6954 14.1782 10.2004 14.4199 9.72546 14.6974C10.152 16.1758 10.782 17.4241 11.5174 18.4684C11.7834 18.8637 12.0714 19.2445 12.3854 19.6113C12.9454 19.3668 13.4466 19.077 13.8461 18.7774C14.2396 18.4818 14.6127 18.16 14.9628 17.8142L14.9604 17.8165Z" fill="white"/>
</g>
<g style="mix-blend-mode:multiply" opacity="0.3">
<path d="M11.3695 4.68242C9.72828 6.80058 9.18182 9.43346 9.20609 11.4555C9.44262 11.3444 9.68145 11.2383 9.92241 11.1372C10.6904 10.8164 11.4902 10.5779 12.3084 10.4256C12.4671 9.00694 13.001 7.41144 14.0337 6.24712C15.0323 5.11875 16.5182 4.47383 18.1379 4.63949C18.4445 4.67075 18.7726 4.74729 19.0675 4.84575C19.0815 4.85042 19.096 4.85508 19.1081 4.85742C17.5707 4.23009 15.9099 3.96379 14.2535 4.07903C13.2473 4.14856 12.2842 4.35203 11.3737 4.67309C11.3714 4.67542 11.3691 4.68009 11.3667 4.68242H11.3695Z" fill="white"/>
</g>
<g style="mix-blend-mode:multiply" opacity="0.3">
<path d="M25.749 17.0144C24.7336 14.5346 22.7255 12.7421 20.962 11.7528C20.9406 12.0048 20.9144 12.2633 20.878 12.534C20.7711 13.3593 20.5776 14.1711 20.3008 14.9559C21.4511 15.8043 22.5673 17.062 23.0611 18.5403C23.5375 19.9683 23.3555 21.5783 22.4021 22.8985C22.2138 23.1547 21.9985 23.39 21.76 23.6003L21.7507 23.6097C23.8063 21.995 25.26 19.6664 25.7588 17.0312C25.7588 17.0265 25.7541 17.0214 25.7541 17.0167L25.749 17.0144Z" fill="white"/>
</g>
<g style="mix-blend-mode:multiply" opacity="0.3">
<path d="M12.301 12.1121C12.3596 12.6002 12.4516 13.0837 12.5763 13.5592C13.5707 13.3245 14.5456 13.2381 15.478 13.2839L15.6264 13.2909H15.631C16.2158 13.3389 16.8243 13.4467 17.4547 13.6194C17.5887 13.1714 17.7016 12.7061 17.7828 12.2222C17.8715 11.6188 17.8976 11.0602 17.8953 10.574C16.4029 10.2053 15.0085 10.1306 13.7364 10.2459C13.258 10.2773 12.782 10.3373 12.3108 10.4256C12.2436 11.0341 12.2408 11.6114 12.3033 12.1102L12.301 12.1121Z" fill="white"/>
</g>
</g>
<defs>
<clipPath id="clip0_10034_65610">
<rect width="27.9998" height="28" fill="white" transform="translate(1 1)"/>
</clipPath>
</defs>
</svg>
