<svg width="67" height="24" viewBox="0 0 67 24" fill="none" xmlns="http://www.w3.org/2000/svg">
<g clip-path="url(#clip0_11788_49280)">
<rect x="0.199951" width="66" height="24" fill="white"/>
<path d="M0 0C22.087 0 44.1739 0 66.2609 0C66.2609 8 66.2609 16 66.2609 24C44.1739 24 22.087 24 0 24C0 16 0 8 0 0ZM3.49304 0.0869565C3.48522 0.344348 3.46435 0.596522 3.42609 0.851304C3.37739 1.19217 3.40609 1.52696 3.3713 1.87043C3.25043 2.83043 3.31913 3.81565 3.30087 4.78261C3.27565 5.39913 3.39913 5.99826 3.40348 6.61391C3.55739 8.0713 3.76783 9.54261 4.31304 10.913C5.37043 13.9165 6.90087 16.9043 9.17652 19.1704C10.9687 20.9504 13.2139 22.2191 15.7357 22.573C16.8765 22.753 18.0043 22.6539 19.1357 22.4696C19.5252 22.4026 19.8957 22.2791 20.273 22.1678C20.8896 22.2835 21.5096 22.347 22.1374 22.3522C21.4496 22.96 20.7113 23.4835 19.8983 23.9122C20.2043 23.9052 20.5235 23.9374 20.827 23.8948C21.533 23.473 22.173 22.9174 22.7452 22.3287C23.6052 22.2704 24.4548 22.1035 25.267 21.813C25.0052 22.5443 24.6791 23.2383 24.2913 23.9113C24.44 23.9122 24.5887 23.913 24.7383 23.9139C25.1165 23.2304 25.4435 22.5226 25.6817 21.7774C26.673 22.147 27.7383 22.3322 28.7957 22.3478C28.747 22.8687 28.7209 23.4 28.6235 23.9139C28.767 23.9139 28.9104 23.913 29.0539 23.9122C29.1374 23.4139 29.1652 22.9165 29.1713 22.4113C29.2104 22.9113 29.2217 23.4122 29.2183 23.913C41.5365 23.913 53.8557 23.913 66.1739 23.913C66.1739 15.9713 66.1739 8.0287 66.1739 0.0869565C53.3913 0.086087 40.6087 0.0886956 27.8261 0.0860869C27.1626 0.0434782 26.5557 0.242609 25.9061 0.412174C23.3417 1.26087 20.9139 2.32609 18.7174 3.91739C17.6557 4.36957 16.6591 4.93652 15.7991 5.71304C14.4043 6.9487 13.3887 8.61217 12.9191 10.4139C12.4443 12.2165 12.5165 14.1522 13.1235 15.9139C13.7704 17.8096 15.0226 19.4748 16.6617 20.6252C15.36 20.1861 14.3122 19.3426 13.4148 18.3235C11.9887 16.6757 11.1243 14.627 10.8052 12.4783C10.4157 9.84435 10.8443 7.16783 11.7209 4.67304C12.2852 3.03217 13.1017 1.5 14.1043 0.0852174C13.8452 0.0869565 13.5852 0.0817391 13.3261 0.0913043C12.8948 0.737391 12.6209 1.4287 12.2878 2.12522C11.2296 4.46087 10.42 7 10.2252 9.56696C9.97739 12.5617 10.6809 15.66 12.5817 18.0348C13.2148 18.8635 14.0061 19.5009 14.8391 20.1148C15.7713 20.7687 16.833 21.1635 17.9435 21.387C18.46 21.6191 18.98 21.8348 19.527 21.9843C19.1313 22.0217 18.7426 22.1139 18.347 22.1565C15.373 22.4017 12.4522 21.28 10.1991 19.3696C8.14783 17.6504 6.62348 15.3009 5.57826 12.8557C4.34087 9.9287 3.96783 6.62087 4.04 3.46609C4.05565 2.33478 4.15652 1.21217 4.26435 0.0869565C4.00696 0.0869565 3.75043 0.0869565 3.49304 0.0869565ZM0.0869565 18.7826C0.0869565 19.0591 0.0869565 19.3365 0.0869565 19.6139C1.22435 20.6904 2.46174 21.727 3.79652 22.5513C4.57652 23.0435 5.46087 23.4017 6.3 23.7904C6.6687 23.9843 7.02174 23.8965 7.42696 23.9122C4.59739 22.7565 2.23652 20.9235 0.0869565 18.7826Z" fill="black"/>
<path d="M29.214 0.512939C29.2218 1.44424 29.2157 2.37642 29.2175 3.30859C28.0157 3.27033 26.8218 3.46077 25.6905 3.86598C25.5184 3.93903 25.3827 3.87468 25.2175 3.8225C23.5166 3.22511 21.6705 3.15555 19.9175 3.55903C20.687 3.10077 21.461 2.65381 22.2757 2.27816C24.1923 1.37033 26.2427 0.864244 28.3436 0.619896C28.6357 0.600766 28.9244 0.556418 29.214 0.512939Z" fill="black"/>
<path d="M25.2175 3.82256C25.3827 3.87473 25.5184 3.93908 25.6905 3.86603C26.8218 3.46082 28.0158 3.27038 29.2175 3.30864C30.2149 3.33908 31.1958 3.53212 32.1358 3.86603C32.3062 3.9356 32.4445 3.87473 32.6088 3.82342C34.6088 3.12169 36.8549 3.13299 38.8505 3.84516C39.0418 3.91386 39.1323 3.91386 39.3236 3.84516C41.3453 3.12342 43.6114 3.12429 45.6331 3.84516C45.8245 3.91386 45.9149 3.91386 46.1062 3.84516C48.0166 3.16342 50.154 3.12429 52.0879 3.73647C52.2792 3.79125 52.4827 3.89299 52.6818 3.89908C52.9079 3.85299 53.1262 3.75908 53.3479 3.69473C55.0975 3.17299 56.9949 3.17473 58.7436 3.6956C60.2627 4.14169 61.6566 4.9756 62.7784 6.09125C63.9105 7.23038 64.7531 8.65038 65.1949 10.1965C65.7018 11.9469 65.6879 13.8417 65.1566 15.5852C64.7062 17.0817 63.8792 18.4539 62.7784 19.5608C61.7358 20.5965 60.4592 21.3913 59.0644 21.8556C57.1862 22.4878 55.1088 22.5147 53.2192 21.9165C52.9297 21.8391 52.7149 21.6756 52.4131 21.8078C50.3931 22.5286 48.1262 22.5278 46.1062 21.8069C45.8088 21.6765 45.5905 21.8391 45.3053 21.9156C43.4836 22.4921 41.4758 22.4921 39.654 21.9165C39.3644 21.8391 39.1497 21.6756 38.8479 21.8078C36.8279 22.5286 34.561 22.5278 32.541 21.8069C32.3488 21.7373 32.2566 21.7399 32.0644 21.8078C31.0184 22.1817 29.9062 22.3599 28.7958 22.3478C27.7384 22.3321 26.6731 22.1469 25.6818 21.7773C25.5314 21.7347 25.4105 21.7652 25.2671 21.813C24.4549 22.1034 23.6053 22.2704 22.7453 22.3286C22.5427 22.3391 22.3401 22.3452 22.1375 22.3521C21.5097 22.3469 20.8897 22.2834 20.2731 22.1678C20.0218 22.1165 19.7749 22.0495 19.5271 21.9843C18.9801 21.8347 18.4601 21.6191 17.9436 21.3869C17.5018 21.1556 17.074 20.906 16.6618 20.6252C15.0227 19.4747 13.7705 17.8095 13.1236 15.9139C12.5166 14.1521 12.4445 12.2165 12.9192 10.4139C13.3888 8.61212 14.4045 6.94864 15.7992 5.71299C16.6592 4.93647 17.6558 4.36951 18.7175 3.91734C19.1158 3.79299 19.514 3.66777 19.9175 3.55908C21.6705 3.1556 23.5166 3.22516 25.2175 3.82256ZM53.8984 9.80169C53.8323 9.60864 53.7688 9.42603 53.7827 9.21821C53.8027 8.38082 54.0514 7.46255 53.8888 6.61038C53.8453 6.41908 53.7784 6.23299 53.5531 6.21473C53.2871 6.18342 52.9358 6.13386 52.6897 6.25908C52.4758 6.45734 52.3897 6.81125 52.3297 7.0869C52.1671 7.98864 52.194 8.93212 52.0931 9.84516C51.8784 11.9199 51.6462 14.0078 51.4601 16.0869C51.4453 16.5469 51.4731 17.1234 51.8844 17.4182C52.214 17.6165 52.6079 17.3182 52.7236 17.0026C53.1384 15.8878 53.0479 14.5686 53.4679 13.4617C53.6888 12.9886 54.0653 12.4573 54.4427 12.0956C54.6818 11.8669 55.0523 11.6643 55.3905 11.7086C55.7636 11.8191 55.9897 12.1608 56.0714 12.526C56.221 13.1626 56.1749 13.8704 56.174 14.5217C56.1775 15.1843 56.0792 15.8539 56.1201 16.5113C56.1462 16.806 56.2088 17.093 56.4958 17.2373C56.7462 17.3573 57.1384 17.5478 57.4097 17.413C57.6375 17.2713 57.7331 16.9226 57.7949 16.6773C57.9992 15.7026 58.0192 14.6478 58.081 13.6547C58.1271 12.5852 58.1627 11.4121 57.8931 10.3695C57.7436 9.84516 57.4558 9.23647 56.9818 8.93212C56.6462 8.71125 56.2966 8.73125 55.9123 8.73647C55.3531 8.75125 54.8062 8.96429 54.4253 9.38082C54.2653 9.55647 54.1123 9.69299 53.8984 9.80169ZM40.9001 9.02429C40.6366 11.1113 40.3531 13.206 40.1697 15.3008C40.1166 15.8339 40.0558 16.4486 40.2575 16.9573C40.3401 17.1608 40.534 17.4104 40.7827 17.3686C41.1749 17.3495 41.4871 16.9982 41.6036 16.646C41.7723 16.1486 41.8218 15.5826 41.8845 15.0626C42.1505 12.8904 42.3714 10.7095 42.481 8.52342C42.5071 7.97125 42.5723 7.33995 42.4131 6.80429C42.3358 6.57647 42.1958 6.28169 41.9131 6.2869C41.5818 6.28864 41.3566 6.62777 41.2575 6.90777C41.0297 7.57386 41.001 8.32951 40.9001 9.02429ZM43.8592 6.2956C43.5566 6.42256 43.4358 6.71995 43.3784 7.02169C43.3244 7.35734 43.3088 7.71038 43.3618 8.04777C43.4001 8.1956 43.4279 8.36864 43.6027 8.40516C43.9088 8.50342 44.3201 8.51995 44.6331 8.45473C44.8392 8.40951 44.8931 8.17386 44.934 7.99734C45.0131 7.56864 45.0601 7.10342 44.9731 6.67299C44.9288 6.51821 44.8827 6.31908 44.6871 6.31038C44.4236 6.28169 44.1184 6.22864 43.8592 6.2956ZM38.6349 8.84429C38.2897 8.39299 38.6358 7.59038 38.4071 7.0756C38.3323 6.90342 38.1862 6.96169 38.0453 7.00082C37.6471 7.14169 37.2262 7.3069 36.9601 7.65212C36.6662 8.01821 36.7488 8.62864 36.4662 8.98429C36.2844 9.25908 35.7888 9.10168 35.6418 9.38255C35.4436 9.69299 35.4297 10.146 35.3731 10.5026C35.3384 10.813 35.2766 11.2313 35.4453 11.5113C35.554 11.7191 35.8688 11.7321 36.0331 11.8782C36.1766 12.0634 36.1688 12.2991 36.1627 12.5208C36.1166 13.5939 35.8531 14.5565 35.9818 15.6521C36.034 16.1034 36.1636 16.6478 36.5149 16.9643C36.9158 17.2965 37.4097 17.1826 37.8984 17.313C38.3253 17.4252 38.8723 17.4295 39.2401 17.1521C39.4697 16.8452 39.5079 16.3704 39.5636 15.9999C39.594 15.6913 39.6505 15.2452 39.4514 14.9817C39.2184 14.8443 38.8662 14.9121 38.6045 14.8843C38.3253 14.8852 38.0627 14.646 37.9444 14.4086C37.8323 14.0982 37.8749 13.7139 37.9097 13.3913C37.9584 13.0382 37.9871 12.6756 38.0731 12.3286C38.1488 12.0652 38.2827 11.7913 38.5523 11.6834C38.8758 11.5521 39.3305 11.7391 39.6453 11.5617C39.8114 11.4834 39.894 11.253 39.961 11.0939C40.134 10.6113 40.2566 10.0782 40.2218 9.56342C40.2044 9.41995 40.1714 9.17908 40.0331 9.09995C39.6079 8.9069 39.0453 9.04516 38.6349 8.84429ZM61.814 8.89908C61.441 8.39908 61.7766 7.68169 61.5801 7.1156C61.5149 7.00082 61.4662 6.92342 61.3201 6.96864C60.8905 7.09299 60.3775 7.29734 60.1027 7.66777C59.8201 8.04169 59.9044 8.65038 59.6088 9.00169C59.4558 9.21125 59.1201 9.14169 58.9105 9.25821C58.6644 9.46342 58.6184 9.87908 58.5731 10.1765C58.5305 10.5669 58.4123 11.0669 58.5636 11.4391C58.6766 11.7217 58.954 11.7069 59.1784 11.8626C59.3636 12.0886 59.321 12.4243 59.3097 12.6956C59.2305 13.8069 58.9731 14.8278 59.1844 15.9582C59.2558 16.3365 59.4218 16.8026 59.754 17.0278C60.1418 17.2782 60.5662 17.1913 61.0288 17.3078C61.4749 17.4234 61.9897 17.4356 62.3827 17.1643C62.6149 16.8947 62.6523 16.4269 62.7088 16.0869C62.7427 15.7556 62.8245 15.2434 62.5931 14.9686C62.2975 14.8286 61.894 14.9391 61.5801 14.8565C61.3114 14.746 61.0601 14.4799 61.0427 14.1782C60.9914 13.7017 61.0958 13.1904 61.1531 12.7165C61.2045 12.3773 61.2853 11.9686 61.5792 11.753C61.9618 11.4747 62.5079 11.8121 62.8914 11.5008C63.0471 11.3243 63.1297 11.0686 63.2001 10.8478C63.3271 10.4147 63.4253 9.93125 63.3688 9.47995C63.3392 9.31647 63.2984 9.11734 63.114 9.0669C62.6958 8.95299 62.2427 8.97299 61.814 8.89908ZM16.8792 11.3173C17.2175 10.773 17.8801 10.8043 18.4349 10.9121C18.8549 10.9443 18.9766 11.3921 19.3201 11.526C19.6592 11.5799 20.0088 11.5869 20.3505 11.6069C20.5671 11.6252 20.7862 11.5095 20.8375 11.2886C20.9505 10.8034 20.8531 10.2626 20.601 9.83386C20.3453 9.36255 19.9627 8.92777 19.4688 8.70169C19.2271 8.61038 18.9549 8.58603 18.6992 8.55821C18.1714 8.50951 17.5984 8.50777 17.0871 8.66342C16.4079 8.89125 15.801 9.31647 15.3445 9.86603C14.8862 10.5234 14.7001 11.3817 14.754 12.1739C14.8018 12.6808 14.9427 13.2634 15.3566 13.5991C15.7053 13.9165 16.1444 14.0921 16.6071 14.1643C17.1879 14.2382 17.7949 14.2165 18.3697 14.3313C18.6662 14.3947 18.7775 14.766 18.5079 14.9434C17.9497 15.246 17.1958 15.3304 16.5871 15.1521C16.1601 15.0408 16.0218 14.4443 15.6105 14.3182C15.3375 14.2356 15.021 14.1643 14.7366 14.2156C14.4479 14.2747 14.2549 14.5173 14.2027 14.7991C14.1279 15.2313 14.2279 15.7026 14.4375 16.0852C14.9044 16.8095 15.5471 17.4234 16.4331 17.5521C17.3314 17.6495 18.2488 17.2478 19.1097 17.0295C19.3862 16.9547 19.6566 16.9434 19.8844 16.7591C20.2688 16.4556 20.474 15.9182 20.594 15.4582C20.774 14.6886 20.8801 13.8921 20.614 13.1278C20.4331 12.6147 19.9984 12.2365 19.4749 12.1008C18.7566 11.8678 18.0131 12.0078 17.3045 11.8226C17.0584 11.746 16.8123 11.6226 16.8792 11.3173ZM48.8853 16.3086C49.1166 16.7052 48.9871 17.1017 48.7792 17.4747C48.6018 17.7921 48.3001 18.1599 47.914 18.2008C47.7384 18.233 47.5871 18.1739 47.414 18.1391C47.0758 18.0521 46.7305 18.1304 46.3914 18.0208C46.014 17.9321 45.6801 17.7026 45.3018 17.6356C44.9297 17.6113 44.7836 17.9599 44.6931 18.2573C44.5775 18.7391 44.5323 19.2817 44.6714 19.7626C44.7505 20.0391 44.9366 20.2626 45.2314 20.3113C45.8505 20.3956 46.4184 20.6452 47.0418 20.7026C47.6853 20.7999 48.3323 20.7365 48.8784 20.3608C49.3558 20.0226 49.7905 19.5469 50.081 19.0391C50.5097 18.2573 50.734 17.3556 50.8462 16.4765C51.101 14.9052 51.3731 13.2469 51.3671 11.6521C51.3558 10.9608 51.3036 10.166 50.9792 9.54256C50.7705 9.10516 50.3149 8.7956 49.8314 8.76169C49.2644 8.70516 48.6723 9.07647 48.1071 8.94169C47.8931 8.91038 47.6236 8.79212 47.4244 8.90082C46.8279 9.16342 46.2618 9.60864 45.8836 10.1399C45.3653 11.066 45.014 12.1034 44.8462 13.1513C44.7123 14.0086 44.7392 14.866 45.1253 15.6573C45.3531 16.1278 45.6931 16.4521 46.0349 16.8347C46.2514 17.0713 46.5331 17.2756 46.8662 17.2808C47.7036 17.1591 48.1505 16.6008 48.8853 16.3086ZM23.0418 16.8695C23.4297 17.0721 23.7053 17.3834 24.1071 17.5521C24.3897 17.6678 24.6888 17.7199 24.9766 17.586C26.1601 16.9947 27.1358 16.0173 27.6775 14.806C27.9992 14.0486 28.1966 13.2634 28.1036 12.4339C28.0401 11.7226 27.774 11.1208 27.5479 10.4547C27.3731 9.99473 27.1349 9.47995 26.7575 9.15212C26.4044 8.84082 25.901 8.99212 25.4775 9.00429C24.9462 9.05299 24.5097 8.84082 23.9984 8.80864C23.6123 8.78777 23.2558 9.09125 22.874 9.09125C22.6297 9.10429 22.3505 9.05299 22.1375 9.18603C21.8844 9.33386 21.8079 9.64342 21.7471 9.90864C21.5984 10.6478 21.5462 11.4226 21.4575 12.1713C21.2505 13.9347 21.1071 15.7043 21.0271 17.4782C20.9958 18.2765 20.854 19.1043 20.9079 19.8982C20.9436 20.2243 21.001 20.5921 21.2844 20.7999C21.461 20.9347 21.7314 21.1234 21.9558 20.993C22.1731 20.8356 22.2818 20.5113 22.3549 20.2626C22.6044 19.3391 22.661 18.3373 22.8036 17.3921C22.8262 17.1878 22.9349 17.0373 23.0418 16.8695ZM31.1114 17.5356C31.4131 17.5721 31.6697 17.6721 31.981 17.613C32.5036 17.5182 32.9758 17.1843 33.3966 16.8747C33.9488 16.4443 34.2036 15.766 34.4349 15.1295C34.9392 13.7565 35.1349 12.2156 34.7766 10.7843C34.6566 10.2652 34.3479 9.79212 33.9436 9.44864C33.3384 8.97734 32.5792 8.82777 31.8253 8.87821C31.3123 8.94082 30.8418 8.97038 30.4036 9.27299C29.5905 9.79125 29.0427 10.7782 28.6975 11.6539C28.2584 12.826 28.1479 14.1895 28.5184 15.3939C28.7514 16.1704 29.2314 16.8565 29.9044 17.313C30.2975 17.5478 30.6784 17.5026 31.1114 17.5356ZM42.9531 10.9565C42.7279 12.6113 42.5958 14.2686 42.4444 15.9313C42.4244 16.2773 42.3879 16.7547 42.601 17.0513C42.7279 17.2295 42.9349 17.2173 43.1305 17.2226C43.3401 17.2095 43.5923 17.2269 43.7331 17.0399C43.9392 16.7913 43.9766 16.3921 44.0271 16.0843C44.3088 14.2643 44.4653 12.4347 44.6827 10.6078C44.7044 10.2939 44.7627 9.81038 44.5227 9.56429C44.2958 9.3356 44.0218 9.43734 43.7401 9.45995C43.5401 9.49995 43.3436 9.45995 43.2323 9.66777C43.0271 10.0365 43.0123 10.5443 42.9531 10.9565Z" fill="#FCC128"/>
<path d="M53.553 6.21476C53.7782 6.23302 53.8451 6.41911 53.8886 6.61041C54.0512 7.46259 53.8025 8.38085 53.7825 9.21824C53.7686 9.42606 53.8321 9.60867 53.8982 9.80172C54.1121 9.69302 54.2651 9.5565 54.4251 9.38085C54.806 8.96433 55.353 8.75128 55.9121 8.7365C56.2964 8.73128 56.646 8.71128 56.9817 8.93215C57.4556 9.2365 57.7434 9.8452 57.893 10.3695C58.1625 11.4122 58.1269 12.5852 58.0808 13.6548C58.0191 14.6478 57.9991 15.7026 57.7947 16.6774C57.733 16.9226 57.6373 17.2713 57.4095 17.413C57.1382 17.5478 56.746 17.3574 56.4956 17.2374C56.2086 17.093 56.146 16.8061 56.1199 16.5113C56.0791 15.8539 56.1773 15.1843 56.1738 14.5217C56.1747 13.8704 56.2208 13.1626 56.0712 12.5261C55.9895 12.1608 55.7634 11.8191 55.3904 11.7087C55.0521 11.6643 54.6817 11.8669 54.4425 12.0956C54.0651 12.4574 53.6886 12.9887 53.4678 13.4617C53.0478 14.5687 53.1382 15.8878 52.7234 17.0026C52.6078 17.3182 52.2138 17.6165 51.8843 17.4182C51.473 17.1235 51.4451 16.5469 51.4599 16.0869C51.646 14.0078 51.8782 11.92 52.093 9.8452C52.1938 8.93215 52.1669 7.98867 52.3295 7.08693C52.3895 6.81128 52.4756 6.45737 52.6895 6.25911C52.9356 6.13389 53.2869 6.18346 53.553 6.21476Z" fill="black"/>
<path d="M41.9131 6.28693C42.1957 6.28172 42.3357 6.5765 42.4131 6.80432C42.5722 7.33998 42.507 7.97128 42.4809 8.52345C42.3713 10.7095 42.1504 12.8904 41.8844 15.0626C41.8218 15.5826 41.7722 16.1487 41.6035 16.6461C41.487 16.9982 41.1748 17.3495 40.7826 17.3687C40.5339 17.4104 40.34 17.1608 40.2574 16.9574C40.0557 16.4487 40.1165 15.8339 40.1696 15.3008C40.3531 13.2061 40.6365 11.1113 40.9 9.02432C41.0009 8.32954 41.0296 7.57389 41.2574 6.9078C41.3565 6.6278 41.5818 6.28867 41.9131 6.28693Z" fill="black"/>
<path d="M43.8592 6.29558C44.1184 6.22862 44.4236 6.28167 44.6871 6.31036C44.8827 6.31906 44.9288 6.51819 44.9732 6.67297C45.0601 7.10341 45.0131 7.56862 44.934 7.99732C44.8931 8.17384 44.8392 8.40949 44.6332 8.45471C44.3201 8.51993 43.9088 8.50341 43.6027 8.40515C43.4279 8.36862 43.4001 8.19558 43.3618 8.04776C43.3088 7.71036 43.3245 7.35732 43.3784 7.02167C43.4358 6.71993 43.5566 6.42254 43.8592 6.29558Z" fill="black"/>
<path d="M38.4069 7.07562C38.6356 7.5904 38.2896 8.39301 38.6348 8.84431C39.0452 9.04518 39.6078 8.90692 40.033 9.09996C40.1713 9.17909 40.2043 9.41996 40.2217 9.56344C40.2565 10.0782 40.1339 10.6113 39.9609 11.0939C39.8939 11.253 39.8113 11.4834 39.6452 11.5617C39.3304 11.7391 38.8756 11.5521 38.5522 11.6834C38.2826 11.7913 38.1487 12.0652 38.073 12.3287C37.9869 12.6756 37.9582 13.0382 37.9096 13.3913C37.8748 13.7139 37.8322 14.0982 37.9443 14.4087C38.0626 14.6461 38.3252 14.8852 38.6043 14.8843C38.8661 14.9121 39.2182 14.8443 39.4513 14.9817C39.6504 15.2452 39.5939 15.6913 39.5635 16C39.5078 16.3704 39.4696 16.8452 39.24 17.1521C38.8722 17.4295 38.3252 17.4252 37.8982 17.313C37.4096 17.1826 36.9156 17.2965 36.5148 16.9643C36.1635 16.6478 36.0339 16.1034 35.9817 15.6521C35.853 14.5565 36.1165 13.5939 36.1626 12.5208C36.1687 12.2991 36.1765 12.0634 36.033 11.8782C35.8687 11.7321 35.5539 11.7191 35.4452 11.5113C35.2765 11.2313 35.3382 10.813 35.373 10.5026C35.4296 10.1461 35.4435 9.69301 35.6417 9.38257C35.7887 9.1017 36.2843 9.25909 36.4661 8.98431C36.7487 8.62866 36.6661 8.01822 36.96 7.65214C37.2261 7.30692 37.6469 7.1417 38.0452 7.00083C38.1861 6.9617 38.3322 6.90344 38.4069 7.07562Z" fill="black"/>
<path d="M61.32 6.96867C61.4661 6.92345 61.5148 7.00084 61.58 7.11562C61.7765 7.68171 61.4409 8.3991 61.8139 8.8991C62.2426 8.97301 62.6957 8.95301 63.1139 9.06693C63.2983 9.11736 63.3391 9.31649 63.3687 9.47997C63.4252 9.93128 63.327 10.4148 63.2 10.8478C63.1296 11.0687 63.047 11.3243 62.8913 11.5008C62.5078 11.8121 61.9618 11.4748 61.5791 11.753C61.2852 11.9687 61.2044 12.3774 61.1531 12.7165C61.0957 13.1904 60.9913 13.7017 61.0426 14.1782C61.06 14.48 61.3113 14.7461 61.58 14.8565C61.8939 14.9391 62.2974 14.8287 62.5931 14.9687C62.8244 15.2434 62.7426 15.7556 62.7087 16.0869C62.6522 16.4269 62.6148 16.8948 62.3826 17.1643C61.9896 17.4356 61.4748 17.4234 61.0287 17.3078C60.5661 17.1913 60.1418 17.2782 59.7539 17.0278C59.4218 16.8026 59.2557 16.3365 59.1844 15.9582C58.9731 14.8278 59.2305 13.8069 59.3096 12.6956C59.3209 12.4243 59.3635 12.0887 59.1783 11.8626C58.9539 11.7069 58.6765 11.7217 58.5635 11.4391C58.4122 11.0669 58.5305 10.5669 58.5731 10.1765C58.6183 9.8791 58.6644 9.46345 58.9105 9.25823C59.12 9.14171 59.4557 9.21128 59.6087 9.00171C59.9044 8.65041 59.82 8.04171 60.1026 7.6678C60.3774 7.29736 60.8905 7.09301 61.32 6.96867Z" fill="black"/>
<path d="M18.6992 8.55824C18.9548 8.58606 19.227 8.61041 19.4687 8.70172C19.9627 8.9278 20.3453 9.36259 20.6009 9.83389C20.8531 10.2626 20.9505 10.8035 20.8374 11.2887C20.7861 11.5095 20.567 11.6252 20.3505 11.6069C20.0087 11.5869 19.6592 11.58 19.32 11.5261C18.9766 11.3922 18.8548 10.9443 18.4348 10.9122C17.88 10.8043 17.2174 10.773 16.8792 11.3174C16.8122 11.6226 17.0583 11.7461 17.3044 11.8226C18.0131 12.0078 18.7566 11.8678 19.4748 12.1008C19.9983 12.2365 20.4331 12.6148 20.614 13.1278C20.88 13.8922 20.774 14.6887 20.594 15.4582C20.474 15.9182 20.2687 16.4556 19.8844 16.7591C19.6566 16.9435 19.3861 16.9548 19.1096 17.0295C18.2487 17.2478 17.3314 17.6495 16.4331 17.5522C15.547 17.4235 14.9044 16.8095 14.4374 16.0852C14.2279 15.7026 14.1279 15.2313 14.2027 14.7991C14.2548 14.5174 14.4479 14.2748 14.7366 14.2156C15.0209 14.1643 15.3374 14.2356 15.6105 14.3182C16.0218 14.4443 16.16 15.0408 16.587 15.1522C17.1957 15.3304 17.9496 15.2461 18.5079 14.9435C18.7774 14.7661 18.6661 14.3948 18.3696 14.3313C17.7948 14.2165 17.1879 14.2382 16.607 14.1643C16.1444 14.0922 15.7053 13.9165 15.3566 13.5991C14.9427 13.2635 14.8018 12.6808 14.754 12.1739C14.7 11.3817 14.8861 10.5235 15.3444 9.86606C15.8009 9.3165 16.4079 8.89128 17.087 8.66346C17.5983 8.5078 18.1714 8.50954 18.6992 8.55824Z" fill="black"/>
<path d="M49.8313 8.76164C50.3147 8.79555 50.7704 9.10512 50.9791 9.54251C51.3034 10.166 51.3556 10.9608 51.3669 11.6521C51.373 13.2469 51.1008 14.9051 50.846 16.4764C50.7339 17.3556 50.5095 18.2573 50.0808 19.039C49.7904 19.5469 49.3556 20.0225 48.8782 20.3608C48.3321 20.7364 47.6852 20.7999 47.0417 20.7025C46.4182 20.6451 45.8504 20.3956 45.2313 20.3112C44.9365 20.2625 44.7504 20.039 44.6713 19.7625C44.5321 19.2816 44.5773 18.739 44.693 18.2573C44.7834 17.9599 44.9295 17.6112 45.3017 17.6356C45.6799 17.7025 46.0139 17.9321 46.3913 18.0208C46.7304 18.1303 47.0756 18.0521 47.4139 18.139C47.5869 18.1738 47.7382 18.2329 47.9139 18.2008C48.3 18.1599 48.6017 17.7921 48.7791 17.4747C48.9869 17.1016 49.1165 16.7051 48.8852 16.3086C48.1504 16.6008 47.7034 17.159 46.866 17.2808C46.533 17.2756 46.2513 17.0712 46.0347 16.8347C45.693 16.4521 45.353 16.1277 45.1252 15.6573C44.7391 14.866 44.7121 14.0086 44.846 13.1512C45.0139 12.1034 45.3652 11.066 45.8834 10.1399C46.2617 9.6086 46.8278 9.16338 47.4243 8.90077C47.6234 8.79208 47.893 8.91034 48.1069 8.94164C48.6721 9.07642 49.2643 8.70512 49.8313 8.76164ZM48.2182 11.4634C47.7886 11.6416 47.28 11.8321 46.9678 12.1877C46.4782 12.6834 46.5469 13.6173 47.0747 14.0564C47.5234 14.2964 48.1052 14.4208 48.6 14.2556C48.9365 14.1547 49.2434 13.8851 49.36 13.5512C49.4591 13.166 49.4286 12.7382 49.3539 12.3512C49.293 12.0269 49.1139 11.6973 48.8434 11.5016C48.6617 11.3703 48.42 11.4103 48.2182 11.4634Z" fill="black"/>
<path d="M23.9983 8.80865C24.5096 8.84082 24.9461 9.05299 25.4774 9.0043C25.9009 8.99212 26.4044 8.84082 26.7574 9.15212C27.1348 9.47995 27.3731 9.99473 27.5479 10.4547C27.7739 11.1208 28.04 11.7226 28.1035 12.4339C28.1966 13.2634 27.9992 14.0486 27.6774 14.806C27.1357 16.0173 26.16 16.9947 24.9766 17.586C24.6887 17.72 24.3896 17.6678 24.107 17.5521C23.7053 17.3834 23.4296 17.0721 23.0418 16.8695C22.9348 17.0373 22.8261 17.1878 22.8035 17.3921C22.6609 18.3373 22.6044 19.3391 22.3548 20.2626C22.2818 20.5113 22.1731 20.8356 21.9557 20.993C21.7313 21.1234 21.4609 20.9347 21.2844 20.8C21.0009 20.5921 20.9435 20.2243 20.9079 19.8982C20.8539 19.1043 20.9957 18.2765 21.027 17.4782C21.107 15.7043 21.2505 13.9347 21.4574 12.1713C21.5461 11.4226 21.5983 10.6478 21.747 9.90865C21.8079 9.64343 21.8844 9.33386 22.1374 9.18604C22.3505 9.05299 22.6296 9.1043 22.8739 9.09125C23.2557 9.09125 23.6122 8.78778 23.9983 8.80865ZM24.6966 14.6582C25.0635 14.6704 25.3696 14.7182 25.6574 14.4408C25.9783 14.0765 26.0687 13.5121 26.027 13.0434C25.9739 12.5452 25.8861 12.0669 25.5122 11.7026C25.2374 11.4095 24.8331 11.3373 24.4505 11.4139C24.2192 11.4843 24.0183 11.686 23.8635 11.8643C23.6331 12.1391 23.3913 12.4278 23.3018 12.7834C23.1618 13.3147 23.3253 13.9234 23.6287 14.3704C23.8696 14.7182 24.3322 14.6321 24.6966 14.6582Z" fill="black"/>
<path d="M31.8253 8.8782C32.5792 8.82777 33.3383 8.97734 33.9435 9.44864C34.3479 9.79212 34.6566 10.2652 34.7766 10.7843C35.1348 12.2156 34.9392 13.7565 34.4348 15.1295C34.2035 15.766 33.9487 16.4443 33.3966 16.8747C32.9757 17.1843 32.5035 17.5182 31.9809 17.613C31.6696 17.6721 31.4131 17.5721 31.1113 17.5356C30.6783 17.5026 30.2974 17.5478 29.9044 17.313C29.2313 16.8565 28.7513 16.1704 28.5183 15.3939C28.1479 14.1895 28.2583 12.826 28.6974 11.6539C29.0427 10.7782 29.5905 9.79125 30.4035 9.27299C30.8418 8.97038 31.3122 8.94081 31.8253 8.8782ZM31.2427 11.3982C30.7913 11.4965 30.5566 11.9234 30.4192 12.326C30.2392 12.966 30.2766 13.7034 30.7218 14.2321C31.0705 14.6869 31.6235 14.9539 32.1966 14.8095C32.5957 14.6634 32.8513 14.3156 32.9635 13.9156C33.1461 13.2817 32.9531 12.6078 32.66 12.0391C32.5444 11.8295 32.4027 11.6504 32.1627 11.5826C31.8731 11.4965 31.547 11.3765 31.2427 11.3982Z" fill="black"/>
<path d="M44.5226 9.56426C44.7626 9.81035 44.7044 10.2938 44.6826 10.6077C44.4653 12.4347 44.3087 14.2643 44.027 16.0843C43.9766 16.3921 43.9392 16.7912 43.7331 17.0399C43.5922 17.2269 43.34 17.2095 43.1305 17.2225C42.9348 17.2173 42.7279 17.2295 42.6009 17.0512C42.3879 16.7547 42.4244 16.2773 42.4444 15.9312C42.5957 14.2686 42.7279 12.6112 42.9531 10.9564C43.0122 10.5443 43.027 10.0364 43.2322 9.66774C43.3435 9.45991 43.54 9.49991 43.74 9.45991C44.0218 9.43731 44.2957 9.33557 44.5226 9.56426Z" fill="black"/>
<path d="M24.4506 11.4139C24.8332 11.3374 25.2375 11.4096 25.5123 11.7026C25.8862 12.0669 25.9741 12.5452 26.0271 13.0435C26.0688 13.5122 25.9784 14.0765 25.6575 14.4409C25.3697 14.7183 25.0636 14.6704 24.6967 14.6583C24.3323 14.6322 23.8697 14.7183 23.6288 14.3704C23.3254 13.9235 23.1619 13.3148 23.3019 12.7835C23.3914 12.4278 23.6332 12.1391 23.8636 11.8643C24.0184 11.6861 24.2193 11.4843 24.4506 11.4139Z" fill="#FCC128"/>
<path d="M31.2426 11.3982C31.5469 11.3765 31.873 11.4965 32.1626 11.5826C32.4026 11.6504 32.5443 11.8295 32.66 12.0391C32.953 12.6078 33.1461 13.2817 32.9635 13.9156C32.8513 14.3156 32.5956 14.6634 32.1965 14.8095C31.6235 14.9539 31.0704 14.6869 30.7217 14.2321C30.2765 13.7034 30.2391 12.966 30.4191 12.326C30.5565 11.9234 30.7913 11.4965 31.2426 11.3982Z" fill="#FCC128"/>
<path d="M48.2183 11.4635C48.42 11.4104 48.6618 11.3704 48.8435 11.5017C49.1139 11.6974 49.2931 12.0269 49.3539 12.3513C49.4287 12.7382 49.4591 13.1661 49.36 13.5513C49.2435 13.8852 48.9365 14.1548 48.6 14.2556C48.1052 14.4208 47.5235 14.2965 47.0748 14.0565C46.547 13.6174 46.4783 12.6835 46.9678 12.1878C47.28 11.8321 47.7887 11.6417 48.2183 11.4635Z" fill="#FCC128"/>
<path d="M64.8306 21.8947C65.0253 21.8643 65.2166 21.9121 65.3801 22.0217C65.8471 22.3 65.8488 23.093 65.3862 23.3774C64.9723 23.6713 64.3958 23.4704 64.214 23.0095C63.9975 22.5426 64.3323 21.9747 64.8306 21.8947ZM64.7897 22.0008C64.3593 22.0913 64.1036 22.6017 64.3019 23C64.4793 23.4121 65.0097 23.5426 65.3697 23.2826C65.7088 23.0365 65.7471 22.4895 65.4532 22.1956C65.288 22.0208 65.0236 21.9426 64.7897 22.0008Z" fill="black"/>
<path d="M64.7897 22.0009C65.0236 21.9426 65.2879 22.0209 65.4531 22.1956C65.7471 22.4896 65.7088 23.0365 65.3697 23.2826C65.0097 23.5426 64.4792 23.4122 64.3018 23C64.1036 22.6017 64.3592 22.0913 64.7897 22.0009ZM64.461 22.4513C64.514 22.4965 64.5662 22.5426 64.6175 22.5896C64.6314 22.7296 64.6444 22.8696 64.6575 23.0104C64.7479 22.8643 64.7297 22.7122 64.7392 22.547L64.9253 22.5235C64.9331 22.6852 64.9523 22.8461 64.9714 23.007L65.0497 22.7765C65.1027 22.8522 65.1549 22.927 65.2079 23.0017L65.2436 22.6635L65.3758 23.0156C65.3844 22.8165 65.3844 22.6174 65.381 22.4183C65.2618 22.467 65.2027 22.5696 65.2027 22.727C65.1584 22.6383 65.1131 22.5504 65.0679 22.4626C64.8653 22.4609 64.6636 22.4609 64.461 22.4513Z" fill="white"/>
<path d="M64.4609 22.4513C64.6635 22.4608 64.8653 22.4608 65.0679 22.4626C65.1131 22.5504 65.1583 22.6382 65.2027 22.7269C65.2027 22.5695 65.2618 22.4669 65.3809 22.4182C65.3844 22.6173 65.3844 22.8165 65.3757 23.0156L65.2435 22.6634L65.2079 23.0017C65.1549 22.9269 65.1027 22.8521 65.0496 22.7765L64.9714 23.0069C64.9522 22.846 64.9331 22.6852 64.9253 22.5234L64.7392 22.5469C64.7296 22.7121 64.7479 22.8643 64.6575 23.0104C64.6444 22.8695 64.6314 22.7295 64.6175 22.5895C64.5662 22.5426 64.514 22.4965 64.4609 22.4513Z" fill="black"/>
</g>
<defs>
<clipPath id="clip0_11788_49280">
<rect width="67" height="24" fill="white"/>
</clipPath>
</defs>
</svg>
