<?xml version="1.0" encoding="UTF-8" standalone="no"?>
<!DOCTYPE svg PUBLIC "-//W3C//DTD SVG 1.1//EN" "http://www.w3.org/Graphics/SVG/1.1/DTD/svg11.dtd">
<svg xmlns="http://www.w3.org/2000/svg" version="1.1" viewBox="0 0 804 318" width="804.0pt" height="318.0pt" xmlns:xlink="http://www.w3.org/1999/xlink">
<defs>
<path d="M 0.00 0.00 L 804.00 0.00 L 804.00 318.00 L 0.00 318.00 L 0.00 0.00 Z M 1.00 1.00 C 1.00 106.33 1.00 211.67 1.00 317.00 C 268.33 317.00 535.67 317.00 803.00 317.00 C 803.00 211.67 803.00 106.33 803.00 1.00 C 535.67 1.00 268.33 1.00 1.00 1.00 Z" id="p0" />
<path d="M 1.00 1.00 C 268.33 1.00 535.67 1.00 803.00 1.00 C 803.00 106.33 803.00 211.67 803.00 317.00 C 535.67 317.00 268.33 317.00 1.00 317.00 C 1.00 211.67 1.00 106.33 1.00 1.00 Z M 21.00 21.00 C 21.00 113.00 21.00 205.00 21.00 297.00 C 275.00 297.00 529.00 297.00 783.00 297.00 C 783.00 205.00 783.00 113.00 783.00 21.00 C 529.00 21.00 275.00 21.00 21.00 21.00 Z" id="p1" />
<path d="M 21.00 21.00 C 275.00 21.00 529.00 21.00 783.00 21.00 C 783.00 113.00 783.00 205.00 783.00 297.00 C 529.00 297.00 275.00 297.00 21.00 297.00 C 21.00 205.00 21.00 113.00 21.00 21.00 Z M 61.17 22.00 C 61.08 24.96 60.84 27.86 60.40 30.79 C 59.84 34.71 60.17 38.56 59.77 42.51 C 58.38 53.55 59.17 64.88 58.96 76.00 C 58.67 83.09 60.09 89.98 60.14 97.06 C 61.91 113.82 64.33 130.74 70.60 146.50 C 82.76 181.04 100.36 215.40 126.53 241.46 C 147.14 261.93 172.96 276.52 201.96 280.59 C 215.08 282.66 228.05 281.52 241.06 279.40 C 245.54 278.63 249.80 277.21 254.14 275.93 C 261.23 277.26 268.36 277.99 275.58 278.05 C 267.67 285.04 259.18 291.06 249.83 295.99 C 253.35 295.91 257.02 296.28 260.51 295.79 C 268.63 290.94 275.99 284.55 282.57 277.78 C 292.46 277.11 302.23 275.19 311.57 271.85 C 308.56 280.26 304.81 288.24 300.35 295.98 C 302.06 295.99 303.77 296.00 305.49 296.01 C 309.84 288.15 313.60 280.01 316.34 271.44 C 327.74 275.69 339.99 277.82 352.15 278.00 C 351.59 283.99 351.29 290.10 350.17 296.01 C 351.82 296.01 353.47 296.00 355.12 295.99 C 356.08 290.26 356.40 284.54 356.47 278.73 C 356.92 284.48 357.05 290.24 357.01 296.00 C 498.67 296.00 640.34 296.00 782.00 296.00 C 782.00 204.67 782.00 113.33 782.00 22.00 C 635.00 21.99 488.00 22.02 341.00 21.99 C 333.37 21.50 326.39 23.79 318.92 25.74 C 289.43 35.50 261.51 47.75 236.25 66.05 C 224.04 71.25 212.58 77.77 202.69 86.70 C 186.65 100.91 174.97 120.04 169.57 140.76 C 164.11 161.49 164.94 183.75 171.92 204.01 C 179.36 225.81 193.76 244.96 212.61 258.19 C 197.64 253.14 185.59 243.44 175.27 231.72 C 158.87 212.77 148.93 189.21 145.26 164.50 C 140.78 134.21 145.71 103.43 155.79 74.74 C 162.28 55.87 171.67 38.25 183.20 21.98 C 180.22 22.00 177.23 21.94 174.25 22.05 C 169.29 29.48 166.14 37.43 162.31 45.44 C 150.14 72.30 140.83 101.50 138.59 131.02 C 135.74 165.46 143.83 201.09 165.69 228.40 C 172.97 237.93 182.07 245.26 191.65 252.32 C 202.37 259.84 214.58 264.38 227.35 266.95 C 233.29 269.62 239.27 272.10 245.56 273.82 C 241.01 274.25 236.54 275.31 231.99 275.80 C 197.79 278.62 164.20 265.72 138.29 243.75 C 114.70 223.98 97.17 196.96 85.15 168.84 C 70.92 135.18 66.63 97.14 67.46 60.86 C 67.64 47.85 68.80 34.94 70.04 22.00 C 67.08 22.00 64.13 22.00 61.17 22.00 Z M 22.00 237.00 C 22.00 240.18 22.00 243.37 22.00 246.56 C 35.08 258.94 49.31 270.86 64.66 280.34 C 73.63 286.00 83.80 290.12 93.45 294.59 C 97.69 296.82 101.75 295.81 106.41 295.99 C 73.87 282.70 46.72 261.62 22.00 237.00 Z" id="p2" />
<path d="M 61.17 22.00 C 64.13 22.00 67.08 22.00 70.04 22.00 C 68.80 34.94 67.64 47.85 67.46 60.86 C 66.63 97.14 70.92 135.18 85.15 168.84 C 97.17 196.96 114.70 223.98 138.29 243.75 C 164.20 265.72 197.79 278.62 231.99 275.80 C 236.54 275.31 241.01 274.25 245.56 273.82 C 248.41 274.57 251.25 275.34 254.14 275.93 C 249.80 277.21 245.54 278.63 241.06 279.40 C 228.05 281.52 215.08 282.66 201.96 280.59 C 172.96 276.52 147.14 261.93 126.53 241.46 C 100.36 215.40 82.76 181.04 70.60 146.50 C 64.33 130.74 61.91 113.82 60.14 97.06 C 60.09 89.98 58.67 83.09 58.96 76.00 C 59.17 64.88 58.38 53.55 59.77 42.51 C 60.17 38.56 59.84 34.71 60.40 30.79 C 60.84 27.86 61.08 24.96 61.17 22.00 Z" id="p3" />
<path d="M 174.25 22.05 C 177.23 21.94 180.22 22.00 183.20 21.98 C 171.67 38.25 162.28 55.87 155.79 74.74 C 145.71 103.43 140.78 134.21 145.26 164.50 C 148.93 189.21 158.87 212.77 175.27 231.72 C 185.59 243.44 197.64 253.14 212.61 258.19 C 217.35 261.42 222.27 264.29 227.35 266.95 C 214.58 264.38 202.37 259.84 191.65 252.32 C 182.07 245.26 172.97 237.93 165.69 228.40 C 143.83 201.09 135.74 165.46 138.59 131.02 C 140.83 101.50 150.14 72.30 162.31 45.44 C 166.14 37.43 169.29 29.48 174.25 22.05 Z" id="p4" />
<path d="M 341.00 21.99 C 488.00 22.02 635.00 21.99 782.00 22.00 C 782.00 113.33 782.00 204.67 782.00 296.00 C 640.34 296.00 498.67 296.00 357.01 296.00 C 357.05 290.24 356.92 284.48 356.47 278.73 C 356.40 284.54 356.08 290.26 355.12 295.99 C 353.47 296.00 351.82 296.01 350.17 296.01 C 351.29 290.10 351.59 283.99 352.15 278.00 C 364.92 278.14 377.71 276.09 389.74 271.79 C 391.95 271.01 393.01 270.98 395.22 271.78 C 418.45 280.07 444.52 280.08 467.75 271.79 C 471.22 270.27 473.69 272.15 477.02 273.04 C 497.97 279.66 521.06 279.66 542.01 273.03 C 545.29 272.15 547.80 270.28 551.22 271.78 C 574.45 280.07 600.52 280.08 623.75 271.79 C 627.22 270.27 629.69 272.15 633.02 273.04 C 654.75 279.92 678.64 279.61 700.24 272.34 C 716.28 267.00 730.96 257.86 742.95 245.95 C 755.61 233.22 765.12 217.44 770.30 200.23 C 776.41 180.18 776.57 158.39 770.74 138.26 C 765.66 120.48 755.97 104.15 742.95 91.05 C 730.05 78.22 714.02 68.63 696.55 63.50 C 676.44 57.51 654.62 57.49 634.50 63.49 C 631.95 64.23 629.44 65.31 626.84 65.84 C 624.55 65.77 622.21 64.60 620.01 63.97 C 597.77 56.93 573.19 57.38 551.22 65.22 C 549.02 66.01 547.98 66.01 545.78 65.22 C 522.53 56.93 496.47 56.92 473.22 65.22 C 471.02 66.01 469.98 66.01 467.78 65.22 C 444.83 57.03 419.00 56.90 396.00 64.97 C 394.11 65.56 392.52 66.26 390.56 65.46 C 379.75 61.62 368.47 59.40 357.00 59.05 C 356.98 48.33 357.05 37.61 356.96 26.90 C 353.63 27.40 350.31 27.91 346.95 28.13 C 322.79 30.94 299.21 36.76 277.17 47.20 C 267.80 51.52 258.90 56.66 250.05 61.93 C 245.41 63.18 240.83 64.62 236.25 66.05 C 261.51 47.75 289.43 35.50 318.92 25.74 C 326.39 23.79 333.37 21.50 341.00 21.99 Z M 766.55 272.79 C 760.82 273.71 756.97 280.24 759.46 285.61 C 761.55 290.91 768.18 293.22 772.94 289.84 C 778.26 286.57 778.24 277.45 772.87 274.25 C 770.99 272.99 768.79 272.44 766.55 272.79 Z" id="p5" />
<path d="M 356.96 26.90 C 357.05 37.61 356.98 48.33 357.00 59.05 C 343.18 58.61 329.45 60.80 316.44 65.46 C 314.46 66.30 312.90 65.56 311.00 64.96 C 291.44 58.09 270.21 57.29 250.05 61.93 C 258.90 56.66 267.80 51.52 277.17 47.20 C 299.21 36.76 322.79 30.94 346.95 28.13 C 350.31 27.91 353.63 27.40 356.96 26.90 Z" id="p6" />
<path d="M 311.00 64.96 C 312.90 65.56 314.46 66.30 316.44 65.46 C 329.45 60.80 343.18 58.61 357.00 59.05 C 368.47 59.40 379.75 61.62 390.56 65.46 C 392.52 66.26 394.11 65.56 396.00 64.97 C 419.00 56.90 444.83 57.03 467.78 65.22 C 469.98 66.01 471.02 66.01 473.22 65.22 C 496.47 56.92 522.53 56.93 545.78 65.22 C 547.98 66.01 549.02 66.01 551.22 65.22 C 573.19 57.38 597.77 56.93 620.01 63.97 C 622.21 64.60 624.55 65.77 626.84 65.84 C 629.44 65.31 631.95 64.23 634.50 63.49 C 654.62 57.49 676.44 57.51 696.55 63.50 C 714.02 68.63 730.05 78.22 742.95 91.05 C 755.97 104.15 765.66 120.48 770.74 138.26 C 776.57 158.39 776.41 180.18 770.30 200.23 C 765.12 217.44 755.61 233.22 742.95 245.95 C 730.96 257.86 716.28 267.00 700.24 272.34 C 678.64 279.61 654.75 279.92 633.02 273.04 C 629.69 272.15 627.22 270.27 623.75 271.79 C 600.52 280.08 574.45 280.07 551.22 271.78 C 547.80 270.28 545.29 272.15 542.01 273.03 C 521.06 279.66 497.97 279.66 477.02 273.04 C 473.69 272.15 471.22 270.27 467.75 271.79 C 444.52 280.08 418.45 280.07 395.22 271.78 C 393.01 270.98 391.95 271.01 389.74 271.79 C 377.71 276.09 364.92 278.14 352.15 278.00 C 339.99 277.82 327.74 275.69 316.34 271.44 C 314.61 270.95 313.22 271.30 311.57 271.85 C 302.23 275.19 292.46 277.11 282.57 277.78 C 280.24 277.90 277.91 277.97 275.58 278.05 C 268.36 277.99 261.23 277.26 254.14 275.93 C 251.25 275.34 248.41 274.57 245.56 273.82 C 239.27 272.10 233.29 269.62 227.35 266.95 C 222.27 264.29 217.35 261.42 212.61 258.19 C 193.76 244.96 179.36 225.81 171.92 204.01 C 164.94 183.75 164.11 161.49 169.57 140.76 C 174.97 120.04 186.65 100.91 202.69 86.70 C 212.58 77.77 224.04 71.25 236.25 66.05 C 240.83 64.62 245.41 63.18 250.05 61.93 C 270.21 57.29 291.44 58.09 311.00 64.96 Z M 640.83 133.72 C 640.07 131.50 639.34 129.40 639.50 127.01 C 639.73 117.38 642.59 106.82 640.72 97.02 C 640.22 94.82 639.45 92.68 636.86 92.47 C 633.80 92.11 629.76 91.54 626.93 92.98 C 624.47 95.26 623.48 99.33 622.79 102.50 C 620.92 112.87 621.23 123.72 620.07 134.22 C 617.60 158.08 614.93 182.09 612.79 206.00 C 612.62 211.29 612.94 217.92 617.67 221.31 C 621.46 223.59 625.99 220.16 627.32 216.53 C 632.09 203.71 631.05 188.54 635.88 175.81 C 638.42 170.37 642.75 164.26 647.09 160.10 C 649.84 157.47 654.10 155.14 657.99 155.65 C 662.28 156.92 664.88 160.85 665.82 165.05 C 667.54 172.37 667.01 180.51 667.00 188.00 C 667.04 195.62 665.91 203.32 666.38 210.88 C 666.68 214.27 667.40 217.57 670.70 219.23 C 673.58 220.61 678.09 222.80 681.21 221.25 C 683.83 219.62 684.93 215.61 685.64 212.79 C 687.99 201.58 688.22 189.45 688.93 178.03 C 689.46 165.73 689.87 152.24 686.77 140.25 C 685.05 134.22 681.74 127.22 676.29 123.72 C 672.43 121.18 668.41 121.41 663.99 121.47 C 657.56 121.64 651.27 124.09 646.89 128.88 C 645.05 130.90 643.29 132.47 640.83 133.72 Z M 491.35 124.78 C 488.32 148.78 485.06 172.87 482.95 196.96 C 482.34 203.09 481.64 210.16 483.96 216.01 C 484.91 218.35 487.14 221.22 490.00 220.74 C 494.51 220.52 498.10 216.48 499.44 212.43 C 501.38 206.71 501.95 200.20 502.67 194.22 C 505.73 169.24 508.27 144.16 509.53 119.02 C 509.83 112.67 510.58 105.41 508.75 99.25 C 507.86 96.63 506.25 93.24 503.00 93.30 C 499.19 93.32 496.60 97.22 495.46 100.44 C 492.84 108.10 492.51 116.79 491.35 124.78 Z M 525.38 93.40 C 521.90 94.86 520.51 98.28 519.85 101.75 C 519.23 105.61 519.05 109.67 519.66 113.55 C 520.10 115.25 520.42 117.24 522.43 117.66 C 525.95 118.79 530.68 118.98 534.28 118.23 C 536.65 117.71 537.27 115.00 537.74 112.97 C 538.65 108.04 539.19 102.69 538.19 97.74 C 537.68 95.96 537.15 93.67 534.90 93.57 C 531.87 93.24 528.36 92.63 525.38 93.40 Z M 465.30 122.71 C 461.33 117.52 465.31 108.29 462.68 102.37 C 461.82 100.39 460.14 101.06 458.52 101.51 C 453.94 103.13 449.10 105.03 446.04 109.00 C 442.66 113.21 443.61 120.23 440.36 124.32 C 438.27 127.48 432.57 125.67 430.88 128.90 C 428.60 132.47 428.44 137.68 427.79 141.78 C 427.39 145.35 426.68 150.16 428.62 153.38 C 429.87 155.77 433.49 155.92 435.38 157.60 C 437.03 159.73 436.94 162.44 436.87 164.99 C 436.34 177.33 433.31 188.40 434.79 201.00 C 435.39 206.19 436.88 212.45 440.92 216.09 C 445.53 219.91 451.21 218.60 456.83 220.10 C 461.74 221.39 468.03 221.44 472.26 218.25 C 474.90 214.72 475.34 209.26 475.98 205.00 C 476.33 201.45 476.98 196.32 474.69 193.29 C 472.01 191.71 467.96 192.49 464.95 192.17 C 461.74 192.18 458.72 189.43 457.36 186.70 C 456.07 183.13 456.56 178.71 456.96 175.00 C 457.52 170.94 457.85 166.77 458.84 162.78 C 459.71 159.75 461.25 156.60 464.35 155.36 C 468.07 153.85 473.30 156.00 476.92 153.96 C 478.83 153.06 479.78 150.41 480.55 148.58 C 482.54 143.03 483.95 136.90 483.55 130.98 C 483.35 129.33 482.97 126.56 481.38 125.65 C 476.49 123.43 470.02 125.02 465.30 122.71 Z M 731.86 123.34 C 727.57 117.59 731.43 109.34 729.17 102.83 C 728.42 101.51 727.86 100.62 726.18 101.14 C 721.24 102.57 715.34 104.92 712.18 109.18 C 708.93 113.48 709.90 120.48 706.50 124.52 C 704.74 126.93 700.88 126.13 698.47 127.47 C 695.64 129.83 695.11 134.61 694.59 138.03 C 694.10 142.52 692.74 148.27 694.48 152.55 C 695.78 155.80 698.97 155.63 701.55 157.42 C 703.68 160.02 703.19 163.88 703.06 167.00 C 702.15 179.78 699.19 191.52 701.62 204.52 C 702.44 208.87 704.35 214.23 708.17 216.82 C 712.63 219.70 717.51 218.70 722.83 220.04 C 727.96 221.37 733.88 221.51 738.40 218.39 C 741.07 215.29 741.50 209.91 742.15 206.00 C 742.54 202.19 743.48 196.30 740.82 193.14 C 737.42 191.53 732.78 192.80 729.17 191.85 C 726.08 190.58 723.19 187.52 722.99 184.05 C 722.40 178.57 723.60 172.69 724.26 167.24 C 724.85 163.34 725.78 158.64 729.16 156.16 C 733.56 152.96 739.84 156.84 744.25 153.26 C 746.04 151.23 746.99 148.29 747.80 145.75 C 749.26 140.77 750.39 135.21 749.74 130.02 C 749.40 128.14 748.93 125.85 746.81 125.27 C 742.00 123.96 736.79 124.19 731.86 123.34 Z M 215.11 151.15 C 219.00 144.89 226.62 145.25 233.00 146.49 C 237.83 146.86 239.23 152.01 243.18 153.55 C 247.08 154.17 251.10 154.25 255.03 154.48 C 257.52 154.69 260.04 153.36 260.63 150.82 C 261.93 145.24 260.81 139.02 257.91 134.09 C 254.97 128.67 250.57 123.67 244.89 121.07 C 242.11 120.02 238.98 119.74 236.04 119.42 C 229.97 118.86 223.38 118.84 217.50 120.63 C 209.69 123.25 202.71 128.14 197.46 134.46 C 192.19 142.02 190.05 151.89 190.67 161.00 C 191.22 166.83 192.84 173.53 197.60 177.39 C 201.61 181.04 206.66 183.06 211.98 183.89 C 218.66 184.74 225.64 184.49 232.25 185.81 C 235.66 186.54 236.94 190.81 233.84 192.85 C 227.42 196.33 218.75 197.30 211.75 195.25 C 206.84 193.97 205.25 187.11 200.52 185.66 C 197.38 184.71 193.74 183.89 190.47 184.48 C 187.15 185.16 184.93 187.95 184.33 191.19 C 183.47 196.16 184.62 201.58 187.03 205.98 C 192.40 214.31 199.79 221.37 209.98 222.85 C 220.31 223.97 230.86 219.35 240.76 216.84 C 243.94 215.98 247.05 215.85 249.67 213.73 C 254.09 210.24 256.45 204.06 257.83 198.77 C 259.90 189.92 261.12 180.76 258.06 171.97 C 255.98 166.07 250.98 161.72 244.96 160.16 C 236.70 157.48 228.15 159.09 220.00 156.96 C 217.17 156.08 214.34 154.66 215.11 151.15 Z M 583.18 208.55 C 585.84 213.11 584.35 217.67 581.96 221.96 C 579.92 225.61 576.45 229.84 572.01 230.31 C 569.99 230.68 568.25 230.00 566.26 229.60 C 562.37 228.60 558.40 229.50 554.50 228.24 C 550.16 227.22 546.32 224.58 541.97 223.81 C 537.69 223.53 536.01 227.54 534.97 230.96 C 533.64 236.50 533.12 242.74 534.72 248.27 C 535.63 251.45 537.77 254.02 541.16 254.58 C 548.28 255.55 554.81 258.42 561.98 259.08 C 569.38 260.20 576.82 259.47 583.10 255.15 C 588.59 251.26 593.59 245.79 596.93 239.95 C 601.86 230.96 604.44 220.59 605.73 210.48 C 608.66 192.41 611.79 173.34 611.72 155.00 C 611.59 147.05 610.99 137.91 607.26 130.74 C 604.86 125.71 599.62 122.15 594.06 121.76 C 587.54 121.11 580.73 125.38 574.23 123.83 C 571.77 123.47 568.67 122.11 566.38 123.36 C 559.52 126.38 553.01 131.50 548.66 137.61 C 542.70 148.26 538.66 160.19 536.73 172.24 C 535.19 182.10 535.50 191.96 539.94 201.06 C 542.56 206.47 546.47 210.20 550.40 214.60 C 552.89 217.32 556.13 219.67 559.96 219.73 C 569.59 218.33 574.73 211.91 583.18 208.55 Z M 285.98 215.00 C 290.44 217.33 293.61 220.91 298.23 222.85 C 301.48 224.18 304.92 224.78 308.23 223.24 C 321.84 216.44 333.06 205.20 339.29 191.27 C 342.99 182.56 345.26 173.53 344.19 163.99 C 343.46 155.81 340.40 148.89 337.80 141.23 C 335.79 135.94 333.05 130.02 328.71 126.25 C 324.65 122.67 318.86 124.41 313.99 124.55 C 307.88 125.11 302.86 122.67 296.98 122.30 C 292.54 122.06 288.44 125.55 284.05 125.55 C 281.24 125.70 278.03 125.11 275.58 126.64 C 272.67 128.34 271.79 131.90 271.09 134.95 C 269.38 143.45 268.78 152.36 267.76 160.97 C 265.38 181.25 263.73 201.60 262.81 222.00 C 262.45 231.18 260.82 240.70 261.44 249.83 C 261.85 253.58 262.51 257.81 265.77 260.20 C 267.80 261.75 270.91 263.92 273.49 262.42 C 275.99 260.61 277.24 256.88 278.08 254.02 C 280.95 243.40 281.60 231.88 283.24 221.01 C 283.50 218.66 284.75 216.93 285.98 215.00 Z M 378.78 222.66 C 382.25 223.08 385.20 224.23 388.78 223.55 C 394.79 222.46 400.22 218.62 405.06 215.06 C 411.41 210.11 414.34 202.31 417.00 194.99 C 422.80 179.20 425.05 161.48 420.93 145.02 C 419.55 139.05 416.00 133.61 411.35 129.66 C 404.39 124.24 395.66 122.52 386.99 123.10 C 381.09 123.82 375.68 124.16 370.64 127.64 C 361.29 133.60 354.99 144.95 351.02 155.02 C 345.97 168.50 344.70 184.18 348.96 198.03 C 351.64 206.96 357.16 214.85 364.90 220.10 C 369.42 222.80 373.80 222.28 378.78 222.66 Z M 514.96 147.00 C 512.37 166.03 510.85 185.09 509.11 204.21 C 508.88 208.19 508.46 213.68 510.91 217.09 C 512.37 219.14 514.75 219.00 517.00 219.06 C 519.41 218.91 522.31 219.11 523.93 216.96 C 526.30 214.10 526.73 209.51 527.31 205.97 C 530.55 185.04 532.35 164.00 534.85 142.99 C 535.10 139.38 535.77 133.82 533.01 130.99 C 530.40 128.36 527.25 129.53 524.01 129.79 C 521.71 130.25 519.45 129.79 518.17 132.18 C 515.81 136.42 515.64 142.26 514.96 147.00 Z" id="p7" />
<path d="M 636.86 92.47 C 639.45 92.68 640.22 94.82 640.72 97.02 C 642.59 106.82 639.73 117.38 639.50 127.01 C 639.34 129.40 640.07 131.50 640.83 133.72 C 643.29 132.47 645.05 130.90 646.89 128.88 C 651.27 124.09 657.56 121.64 663.99 121.47 C 668.41 121.41 672.43 121.18 676.29 123.72 C 681.74 127.22 685.05 134.22 686.77 140.25 C 689.87 152.24 689.46 165.73 688.93 178.03 C 688.22 189.45 687.99 201.58 685.64 212.79 C 684.93 215.61 683.83 219.62 681.21 221.25 C 678.09 222.80 673.58 220.61 670.70 219.23 C 667.40 217.57 666.68 214.27 666.38 210.88 C 665.91 203.32 667.04 195.62 667.00 188.00 C 667.01 180.51 667.54 172.37 665.82 165.05 C 664.88 160.85 662.28 156.92 657.99 155.65 C 654.10 155.14 649.84 157.47 647.09 160.10 C 642.75 164.26 638.42 170.37 635.88 175.81 C 631.05 188.54 632.09 203.71 627.32 216.53 C 625.99 220.16 621.46 223.59 617.67 221.31 C 612.94 217.92 612.62 211.29 612.79 206.00 C 614.93 182.09 617.60 158.08 620.07 134.22 C 621.23 123.72 620.92 112.87 622.79 102.50 C 623.48 99.33 624.47 95.26 626.93 92.98 C 629.76 91.54 633.80 92.11 636.86 92.47 Z" id="p8" />
<path d="M 503.00 93.30 C 506.25 93.24 507.86 96.63 508.75 99.25 C 510.58 105.41 509.83 112.67 509.53 119.02 C 508.27 144.16 505.73 169.24 502.67 194.22 C 501.95 200.20 501.38 206.71 499.44 212.43 C 498.10 216.48 494.51 220.52 490.00 220.74 C 487.14 221.22 484.91 218.35 483.96 216.01 C 481.64 210.16 482.34 203.09 482.95 196.96 C 485.06 172.87 488.32 148.78 491.35 124.78 C 492.51 116.79 492.84 108.10 495.46 100.44 C 496.60 97.22 499.19 93.32 503.00 93.30 Z" id="p9" />
<path d="M 525.38 93.40 C 528.36 92.63 531.87 93.24 534.90 93.57 C 537.15 93.67 537.68 95.96 538.19 97.74 C 539.19 102.69 538.65 108.04 537.74 112.97 C 537.27 115.00 536.65 117.71 534.28 118.23 C 530.68 118.98 525.95 118.79 522.43 117.66 C 520.42 117.24 520.10 115.25 519.66 113.55 C 519.05 109.67 519.23 105.61 519.85 101.75 C 520.51 98.28 521.90 94.86 525.38 93.40 Z" id="p10" />
<path d="M 462.68 102.37 C 465.31 108.29 461.33 117.52 465.30 122.71 C 470.02 125.02 476.49 123.43 481.38 125.65 C 482.97 126.56 483.35 129.33 483.55 130.98 C 483.95 136.90 482.54 143.03 480.55 148.58 C 479.78 150.41 478.83 153.06 476.92 153.96 C 473.30 156.00 468.07 153.85 464.35 155.36 C 461.25 156.60 459.71 159.75 458.84 162.78 C 457.85 166.77 457.52 170.94 456.96 175.00 C 456.56 178.71 456.07 183.13 457.36 186.70 C 458.72 189.43 461.74 192.18 464.95 192.17 C 467.96 192.49 472.01 191.71 474.69 193.29 C 476.98 196.32 476.33 201.45 475.98 205.00 C 475.34 209.26 474.90 214.72 472.26 218.25 C 468.03 221.44 461.74 221.39 456.83 220.10 C 451.21 218.60 445.53 219.91 440.92 216.09 C 436.88 212.45 435.39 206.19 434.79 201.00 C 433.31 188.40 436.34 177.33 436.87 164.99 C 436.94 162.44 437.03 159.73 435.38 157.60 C 433.49 155.92 429.87 155.77 428.62 153.38 C 426.68 150.16 427.39 145.35 427.79 141.78 C 428.44 137.68 428.60 132.47 430.88 128.90 C 432.57 125.67 438.27 127.48 440.36 124.32 C 443.61 120.23 442.66 113.21 446.04 109.00 C 449.10 105.03 453.94 103.13 458.52 101.51 C 460.14 101.06 461.82 100.39 462.68 102.37 Z" id="p11" />
<path d="M 726.18 101.14 C 727.86 100.62 728.42 101.51 729.17 102.83 C 731.43 109.34 727.57 117.59 731.86 123.34 C 736.79 124.19 742.00 123.96 746.81 125.27 C 748.93 125.85 749.40 128.14 749.74 130.02 C 750.39 135.21 749.26 140.77 747.80 145.75 C 746.99 148.29 746.04 151.23 744.25 153.26 C 739.84 156.84 733.56 152.96 729.16 156.16 C 725.78 158.64 724.85 163.34 724.26 167.24 C 723.60 172.69 722.40 178.57 722.99 184.05 C 723.19 187.52 726.08 190.58 729.17 191.85 C 732.78 192.80 737.42 191.53 740.82 193.14 C 743.48 196.30 742.54 202.19 742.15 206.00 C 741.50 209.91 741.07 215.29 738.40 218.39 C 733.88 221.51 727.96 221.37 722.83 220.04 C 717.51 218.70 712.63 219.70 708.17 216.82 C 704.35 214.23 702.44 208.87 701.62 204.52 C 699.19 191.52 702.15 179.78 703.06 167.00 C 703.19 163.88 703.68 160.02 701.55 157.42 C 698.97 155.63 695.78 155.80 694.48 152.55 C 692.74 148.27 694.10 142.52 694.59 138.03 C 695.11 134.61 695.64 129.83 698.47 127.47 C 700.88 126.13 704.74 126.93 706.50 124.52 C 709.90 120.48 708.93 113.48 712.18 109.18 C 715.34 104.92 721.24 102.57 726.18 101.14 Z" id="p12" />
<path d="M 236.04 119.42 C 238.98 119.74 242.11 120.02 244.89 121.07 C 250.57 123.67 254.97 128.67 257.91 134.09 C 260.81 139.02 261.93 145.24 260.63 150.82 C 260.04 153.36 257.52 154.69 255.03 154.48 C 251.10 154.25 247.08 154.17 243.18 153.55 C 239.23 152.01 237.83 146.86 233.00 146.49 C 226.62 145.25 219.00 144.89 215.11 151.15 C 214.34 154.66 217.17 156.08 220.00 156.96 C 228.15 159.09 236.70 157.48 244.96 160.16 C 250.98 161.72 255.98 166.07 258.06 171.97 C 261.12 180.76 259.90 189.92 257.83 198.77 C 256.45 204.06 254.09 210.24 249.67 213.73 C 247.05 215.85 243.94 215.98 240.76 216.84 C 230.86 219.35 220.31 223.97 209.98 222.85 C 199.79 221.37 192.40 214.31 187.03 205.98 C 184.62 201.58 183.47 196.16 184.33 191.19 C 184.93 187.95 187.15 185.16 190.47 184.48 C 193.74 183.89 197.38 184.71 200.52 185.66 C 205.25 187.11 206.84 193.97 211.75 195.25 C 218.75 197.30 227.42 196.33 233.84 192.85 C 236.94 190.81 235.66 186.54 232.25 185.81 C 225.64 184.49 218.66 184.74 211.98 183.89 C 206.66 183.06 201.61 181.04 197.60 177.39 C 192.84 173.53 191.22 166.83 190.67 161.00 C 190.05 151.89 192.19 142.02 197.46 134.46 C 202.71 128.14 209.69 123.25 217.50 120.63 C 223.38 118.84 229.97 118.86 236.04 119.42 Z" id="p13" />
<path d="M 594.06 121.76 C 599.62 122.15 604.86 125.71 607.26 130.74 C 610.99 137.91 611.59 147.05 611.72 155.00 C 611.79 173.34 608.66 192.41 605.73 210.48 C 604.44 220.59 601.86 230.96 596.93 239.95 C 593.59 245.79 588.59 251.26 583.10 255.15 C 576.82 259.47 569.38 260.20 561.98 259.08 C 554.81 258.42 548.28 255.55 541.16 254.58 C 537.77 254.02 535.63 251.45 534.72 248.27 C 533.12 242.74 533.64 236.50 534.97 230.96 C 536.01 227.54 537.69 223.53 541.97 223.81 C 546.32 224.58 550.16 227.22 554.50 228.24 C 558.40 229.50 562.37 228.60 566.26 229.60 C 568.25 230.00 569.99 230.68 572.01 230.31 C 576.45 229.84 579.92 225.61 581.96 221.96 C 584.35 217.67 585.84 213.11 583.18 208.55 C 574.73 211.91 569.59 218.33 559.96 219.73 C 556.13 219.67 552.89 217.32 550.40 214.60 C 546.47 210.20 542.56 206.47 539.94 201.06 C 535.50 191.96 535.19 182.10 536.73 172.24 C 538.66 160.19 542.70 148.26 548.66 137.61 C 553.01 131.50 559.52 126.38 566.38 123.36 C 568.67 122.11 571.77 123.47 574.23 123.83 C 580.73 125.38 587.54 121.11 594.06 121.76 Z M 575.51 152.83 C 570.57 154.88 564.72 157.07 561.13 161.16 C 555.50 166.86 556.29 177.60 562.36 182.65 C 567.52 185.41 574.21 186.84 579.90 184.94 C 583.77 183.78 587.30 180.68 588.64 176.84 C 589.78 172.41 589.43 167.49 588.57 163.04 C 587.87 159.31 585.81 155.52 582.70 153.27 C 580.61 151.76 577.83 152.22 575.51 152.83 Z" id="p14" />
<path d="M 296.98 122.30 C 302.86 122.67 307.88 125.11 313.99 124.55 C 318.86 124.41 324.65 122.67 328.71 126.25 C 333.05 130.02 335.79 135.94 337.80 141.23 C 340.40 148.89 343.46 155.81 344.19 163.99 C 345.26 173.53 342.99 182.56 339.29 191.27 C 333.06 205.20 321.84 216.44 308.23 223.24 C 304.92 224.78 301.48 224.18 298.23 222.85 C 293.61 220.91 290.44 217.33 285.98 215.00 C 284.75 216.93 283.50 218.66 283.24 221.01 C 281.60 231.88 280.95 243.40 278.08 254.02 C 277.24 256.88 275.99 260.61 273.49 262.42 C 270.91 263.92 267.80 261.75 265.77 260.20 C 262.51 257.81 261.85 253.58 261.44 249.83 C 260.82 240.70 262.45 231.18 262.81 222.00 C 263.73 201.60 265.38 181.25 267.76 160.97 C 268.78 152.36 269.38 143.45 271.09 134.95 C 271.79 131.90 272.67 128.34 275.58 126.64 C 278.03 125.11 281.24 125.70 284.05 125.55 C 288.44 125.55 292.54 122.06 296.98 122.30 Z M 305.01 189.57 C 309.23 189.71 312.75 190.26 316.06 187.07 C 319.75 182.88 320.79 176.39 320.31 171.00 C 319.70 165.27 318.69 159.77 314.39 155.58 C 311.23 152.21 306.58 151.38 302.18 152.26 C 299.52 153.07 297.21 155.39 295.43 157.44 C 292.78 160.60 290.00 163.92 288.97 168.01 C 287.36 174.12 289.24 181.12 292.73 186.26 C 295.50 190.26 300.82 189.27 305.01 189.57 Z" id="p15" />
<path d="M 386.99 123.10 C 395.66 122.52 404.39 124.24 411.35 129.66 C 416.00 133.61 419.55 139.05 420.93 145.02 C 425.05 161.48 422.80 179.20 417.00 194.99 C 414.34 202.31 411.41 210.11 405.06 215.06 C 400.22 218.62 394.79 222.46 388.78 223.55 C 385.20 224.23 382.25 223.08 378.78 222.66 C 373.80 222.28 369.42 222.80 364.90 220.10 C 357.16 214.85 351.64 206.96 348.96 198.03 C 344.70 184.18 345.97 168.50 351.02 155.02 C 354.99 144.95 361.29 133.60 370.64 127.64 C 375.68 124.16 381.09 123.82 386.99 123.10 Z M 380.29 152.08 C 375.10 153.21 372.40 158.12 370.82 162.75 C 368.75 170.11 369.18 178.59 374.30 184.67 C 378.31 189.90 384.67 192.97 391.26 191.31 C 395.85 189.63 398.79 185.63 400.08 181.03 C 402.18 173.74 399.96 165.99 396.59 159.45 C 395.26 157.04 393.63 154.98 390.87 154.20 C 387.54 153.21 383.79 151.83 380.29 152.08 Z" id="p16" />
<path d="M 533.01 130.99 C 535.77 133.82 535.10 139.38 534.85 142.99 C 532.35 164.00 530.55 185.04 527.31 205.97 C 526.73 209.51 526.30 214.10 523.93 216.96 C 522.31 219.11 519.41 218.91 517.00 219.06 C 514.75 219.00 512.37 219.14 510.91 217.09 C 508.46 213.68 508.88 208.19 509.11 204.21 C 510.85 185.09 512.37 166.03 514.96 147.00 C 515.64 142.26 515.81 136.42 518.17 132.18 C 519.45 129.79 521.71 130.25 524.01 129.79 C 527.25 129.53 530.40 128.36 533.01 130.99 Z" id="p17" />
<path d="M 302.18 152.26 C 306.58 151.38 311.23 152.21 314.39 155.58 C 318.69 159.77 319.70 165.27 320.31 171.00 C 320.79 176.39 319.75 182.88 316.06 187.07 C 312.75 190.26 309.23 189.71 305.01 189.57 C 300.82 189.27 295.50 190.26 292.73 186.26 C 289.24 181.12 287.36 174.12 288.97 168.01 C 290.00 163.92 292.78 160.60 295.43 157.44 C 297.21 155.39 299.52 153.07 302.18 152.26 Z" id="p18" />
<path d="M 380.29 152.08 C 383.79 151.83 387.54 153.21 390.87 154.20 C 393.63 154.98 395.26 157.04 396.59 159.45 C 399.96 165.99 402.18 173.74 400.08 181.03 C 398.79 185.63 395.85 189.63 391.26 191.31 C 384.67 192.97 378.31 189.90 374.30 184.67 C 369.18 178.59 368.75 170.11 370.82 162.75 C 372.40 158.12 375.10 153.21 380.29 152.08 Z" id="p19" />
<path d="M 575.51 152.83 C 577.83 152.22 580.61 151.76 582.70 153.27 C 585.81 155.52 587.87 159.31 588.57 163.04 C 589.43 167.49 589.78 172.41 588.64 176.84 C 587.30 180.68 583.77 183.78 579.90 184.94 C 574.21 186.84 567.52 185.41 562.36 182.65 C 556.29 177.60 555.50 166.86 561.13 161.16 C 564.72 157.07 570.57 154.88 575.51 152.83 Z" id="p20" />
<path d="M 22.00 237.00 C 46.72 261.62 73.87 282.70 106.41 295.99 C 101.75 295.81 97.69 296.82 93.45 294.59 C 83.80 290.12 73.63 286.00 64.66 280.34 C 49.31 270.86 35.08 258.94 22.00 246.56 C 22.00 243.37 22.00 240.18 22.00 237.00 Z" id="p21" />
<path d="M 316.34 271.44 C 313.60 280.01 309.84 288.15 305.49 296.01 C 303.77 296.00 302.06 295.99 300.35 295.98 C 304.81 288.24 308.56 280.26 311.57 271.85 C 313.22 271.30 314.61 270.95 316.34 271.44 Z" id="p22" />
<path d="M 766.55 272.79 C 768.79 272.44 770.99 272.99 772.87 274.25 C 778.24 277.45 778.26 286.57 772.94 289.84 C 768.18 293.22 761.55 290.91 759.46 285.61 C 756.97 280.24 760.82 273.71 766.55 272.79 Z M 766.08 274.01 C 761.13 275.05 758.19 280.92 760.47 285.50 C 762.51 290.24 768.61 291.74 772.75 288.75 C 776.65 285.92 777.09 279.63 773.71 276.25 C 771.81 274.24 768.77 273.34 766.08 274.01 Z" id="p23" />
<path d="M 766.08 274.01 C 768.77 273.34 771.81 274.24 773.71 276.25 C 777.09 279.63 776.65 285.92 772.75 288.75 C 768.61 291.74 762.51 290.24 760.47 285.50 C 758.19 280.92 761.13 275.05 766.08 274.01 Z M 762.30 279.19 C 762.91 279.71 763.51 280.24 764.10 280.78 C 764.26 282.39 764.41 284.00 764.56 285.62 C 765.60 283.94 765.39 282.19 765.50 280.29 L 767.64 280.02 C 767.73 281.88 767.95 283.73 768.17 285.58 L 769.07 282.93 C 769.68 283.80 770.28 284.66 770.89 285.52 L 771.30 281.63 L 772.82 285.68 C 772.92 283.39 772.92 281.10 772.88 278.81 C 771.51 279.37 770.83 280.55 770.83 282.36 C 770.32 281.34 769.80 280.33 769.28 279.32 C 766.95 279.30 764.63 279.30 762.30 279.19 Z" id="p24" />
<path d="M 275.58 278.05 C 277.91 277.97 280.24 277.90 282.57 277.78 C 275.99 284.55 268.63 290.94 260.51 295.79 C 257.02 296.28 253.35 295.91 249.83 295.99 C 259.18 291.06 267.67 285.04 275.58 278.05 Z" id="p25" />
<path d="M 762.30 279.19 C 764.63 279.30 766.95 279.30 769.28 279.32 C 769.80 280.33 770.32 281.34 770.83 282.36 C 770.83 280.55 771.51 279.37 772.88 278.81 C 772.92 281.10 772.92 283.39 772.82 285.68 L 771.30 281.63 L 770.89 285.52 C 770.28 284.66 769.68 283.80 769.07 282.93 L 768.17 285.58 C 767.95 283.73 767.73 281.88 767.64 280.02 L 765.50 280.29 C 765.39 282.19 765.60 283.94 764.56 285.62 C 764.41 284.00 764.26 282.39 764.10 280.78 C 763.51 280.24 762.91 279.71 762.30 279.19 Z" id="p26" />
</defs>
<g stroke-width="10pt">
<use stroke="#000000" xlink:href="#p0" />
<use stroke="#ffffff" xlink:href="#p1" />
<use stroke="#000000" xlink:href="#p2" />
<use stroke="#ffffff" xlink:href="#p3" />
<use stroke="#ffffff" xlink:href="#p4" />
<use stroke="#ffffff" xlink:href="#p5" />
<use stroke="#000000" xlink:href="#p6" />
<use stroke="#fcc128" xlink:href="#p7" />
<use stroke="#000000" xlink:href="#p8" />
<use stroke="#000000" xlink:href="#p9" />
<use stroke="#000000" xlink:href="#p10" />
<use stroke="#000000" xlink:href="#p11" />
<use stroke="#000000" xlink:href="#p12" />
<use stroke="#000000" xlink:href="#p13" />
<use stroke="#000000" xlink:href="#p14" />
<use stroke="#000000" xlink:href="#p15" />
<use stroke="#000000" xlink:href="#p16" />
<use stroke="#000000" xlink:href="#p17" />
<use stroke="#fcc128" xlink:href="#p18" />
<use stroke="#fcc128" xlink:href="#p19" />
<use stroke="#fcc128" xlink:href="#p20" />
<use stroke="#ffffff" xlink:href="#p21" />
<use stroke="#ffffff" xlink:href="#p22" />
<use stroke="#000000" xlink:href="#p23" />
<use stroke="#ffffff" xlink:href="#p24" />
<use stroke="#ffffff" xlink:href="#p25" />
<use stroke="#000000" xlink:href="#p26" />
</g>
<g>
<use fill="#000000" xlink:href="#p0" />
<use fill="#ffffff" xlink:href="#p1" />
<use fill="#000000" xlink:href="#p2" />
<use fill="#ffffff" xlink:href="#p3" />
<use fill="#ffffff" xlink:href="#p4" />
<use fill="#ffffff" xlink:href="#p5" />
<use fill="#000000" xlink:href="#p6" />
<use fill="#fcc128" xlink:href="#p7" />
<use fill="#000000" xlink:href="#p8" />
<use fill="#000000" xlink:href="#p9" />
<use fill="#000000" xlink:href="#p10" />
<use fill="#000000" xlink:href="#p11" />
<use fill="#000000" xlink:href="#p12" />
<use fill="#000000" xlink:href="#p13" />
<use fill="#000000" xlink:href="#p14" />
<use fill="#000000" xlink:href="#p15" />
<use fill="#000000" xlink:href="#p16" />
<use fill="#000000" xlink:href="#p17" />
<use fill="#fcc128" xlink:href="#p18" />
<use fill="#fcc128" xlink:href="#p19" />
<use fill="#fcc128" xlink:href="#p20" />
<use fill="#ffffff" xlink:href="#p21" />
<use fill="#ffffff" xlink:href="#p22" />
<use fill="#000000" xlink:href="#p23" />
<use fill="#ffffff" xlink:href="#p24" />
<use fill="#ffffff" xlink:href="#p25" />
<use fill="#000000" xlink:href="#p26" />
</g>
</svg>