<svg width="105" height="24" viewBox="0 0 105 24" fill="none" xmlns="http://www.w3.org/2000/svg">
<g clip-path="url(#clip0_12075_66064)">
<path d="M31.4729 17.1487C30.8729 17.1487 30.3029 17.0887 29.7629 16.9687C29.2229 16.8487 28.7429 16.6587 28.3229 16.3987C27.913 16.1287 27.5879 15.7938 27.3479 15.3937C27.118 14.9838 27.0029 14.4888 27.0029 13.9087C27.0029 13.8588 27.0029 13.8087 27.0029 13.7587C27.0029 13.6987 27.008 13.6537 27.0179 13.6237H29.2379C29.228 13.6537 29.2229 13.6938 29.2229 13.7437C29.2229 13.7937 29.2229 13.8387 29.2229 13.8787C29.2229 14.1987 29.308 14.4687 29.4779 14.6887C29.6579 14.9088 29.918 15.0738 30.2579 15.1837C30.598 15.2937 30.9929 15.3487 31.4429 15.3487C31.733 15.3487 31.988 15.3337 32.2079 15.3037C32.438 15.2637 32.638 15.2137 32.8079 15.1537C32.9879 15.0837 33.133 15.0037 33.2429 14.9137C33.3629 14.8237 33.448 14.7187 33.4979 14.5987C33.5579 14.4787 33.5879 14.3437 33.5879 14.1937C33.5879 13.9237 33.4979 13.7037 33.3179 13.5337C33.148 13.3638 32.908 13.2187 32.5979 13.0987C32.2979 12.9787 31.958 12.8688 31.5779 12.7687C31.198 12.6687 30.808 12.5688 30.4079 12.4687C30.008 12.3588 29.618 12.2287 29.2379 12.0787C28.858 11.9187 28.5179 11.7288 28.2179 11.5087C27.9179 11.2887 27.6779 11.0088 27.4979 10.6687C27.3179 10.3287 27.2279 9.91875 27.2279 9.43875C27.2279 8.92875 27.3329 8.48875 27.5429 8.11875C27.763 7.74875 28.0679 7.44375 28.4579 7.20375C28.8479 6.96375 29.2979 6.78875 29.8079 6.67875C30.3179 6.55875 30.8729 6.49875 31.4729 6.49875C32.033 6.49875 32.563 6.55875 33.0629 6.67875C33.563 6.78875 34.003 6.96875 34.3829 7.21875C34.763 7.46875 35.0579 7.78375 35.2679 8.16375C35.488 8.54375 35.5979 8.99375 35.5979 9.51375V9.69375H33.4229V9.57375C33.4229 9.30375 33.343 9.07375 33.1829 8.88375C33.023 8.69375 32.798 8.54375 32.5079 8.43375C32.218 8.32375 31.8779 8.26875 31.4879 8.26875C31.0679 8.26875 30.7079 8.30875 30.4079 8.38875C30.118 8.46875 29.893 8.58875 29.7329 8.74875C29.5829 8.89875 29.5079 9.07875 29.5079 9.28875C29.5079 9.52875 29.593 9.72872 29.7629 9.88875C29.9429 10.0387 30.1829 10.1737 30.4829 10.2937C30.793 10.4037 31.138 10.5037 31.5179 10.5937C31.898 10.6837 32.288 10.7838 32.6879 10.8937C33.088 11.0037 33.478 11.1337 33.8579 11.2837C34.238 11.4337 34.5779 11.6238 34.8779 11.8537C35.1779 12.0738 35.4179 12.3487 35.5979 12.6787C35.7779 13.0087 35.8679 13.4037 35.8679 13.8637C35.8679 14.6538 35.678 15.2887 35.2979 15.7687C34.918 16.2487 34.3979 16.5987 33.7379 16.8187C33.0779 17.0388 32.323 17.1487 31.4729 17.1487ZM40.1836 16.9687V8.55375H36.8836V6.67875H45.7486V8.55375H42.4336V16.9687H40.1836ZM44.9482 16.9687L48.9082 6.67875H51.6682L55.6282 16.9687H53.2132L52.4782 14.9437H47.9932L47.2582 16.9687H44.9482ZM48.6382 13.1437H51.8332L50.9182 10.6087C50.8782 10.4988 50.8282 10.3687 50.7682 10.2187C50.7182 10.0587 50.6632 9.88378 50.6032 9.69375C50.5432 9.50372 50.4832 9.31875 50.4232 9.13875C50.3732 8.94875 50.3232 8.77875 50.2732 8.62875H50.1832C50.1332 8.81875 50.0682 9.04375 49.9882 9.30375C49.9082 9.55378 49.8282 9.79875 49.7482 10.0387C49.6682 10.2687 49.6032 10.4587 49.5532 10.6087L48.6382 13.1437ZM56.8527 16.9687V6.67875H62.7327C63.2727 6.67875 63.7577 6.78375 64.1877 6.99375C64.6277 7.20375 64.9727 7.49875 65.2227 7.87875C65.4727 8.25875 65.5977 8.70375 65.5977 9.21375C65.5977 9.62372 65.5227 9.98878 65.3727 10.3087C65.2227 10.6287 65.0177 10.8937 64.7577 11.1037C64.5077 11.3137 64.2227 11.4687 63.9027 11.5687V11.6287C64.2827 11.7087 64.6177 11.8587 64.9077 12.0787C65.2077 12.2988 65.4427 12.5838 65.6127 12.9337C65.7927 13.2738 65.8827 13.6788 65.8827 14.1487C65.8827 14.7687 65.7377 15.2887 65.4477 15.7087C65.1677 16.1287 64.7927 16.4437 64.3227 16.6537C63.8527 16.8637 63.3277 16.9687 62.7477 16.9687H56.8527ZM59.0877 15.1387H62.3127C62.6827 15.1387 62.9827 15.0337 63.2127 14.8237C63.4527 14.6137 63.5727 14.2887 63.5727 13.8487C63.5727 13.5888 63.5227 13.3638 63.4227 13.1737C63.3227 12.9837 63.1727 12.8388 62.9727 12.7387C62.7727 12.6288 62.5177 12.5737 62.2077 12.5737H59.0877V15.1387ZM59.0877 10.8337H62.0577C62.3277 10.8337 62.5527 10.7838 62.7327 10.6837C62.9227 10.5738 63.0627 10.4337 63.1527 10.2637C63.2527 10.0837 63.3027 9.87872 63.3027 9.64875C63.3027 9.25875 63.1927 8.96375 62.9727 8.76375C62.7627 8.56375 62.4827 8.46375 62.1327 8.46375H59.0877V10.8337ZM67.6779 16.9687V6.67875H69.9129V16.9687H67.6779ZM72.1896 16.9687V6.67875H74.4246V15.0637H79.6146V16.9687H72.1896ZM81.052 16.9687V6.67875H83.287V16.9687H81.052ZM88.0987 16.9687V8.55375H84.7987V6.67875H93.6637V8.55375H90.3487V16.9687H88.0987ZM98.4647 16.9687V12.8287L94.4747 6.67875H97.0697L99.6197 10.8187H99.6947L102.23 6.67875H104.675L100.715 12.8287V16.9687H98.4647Z" fill="white"/>
<mask id="mask0_12075_66064" style="mask-type:luminance" maskUnits="userSpaceOnUse" x="0" y="0" width="24" height="24">
<path d="M24 0H0V24H24V0Z" fill="white"/>
</mask>
<g mask="url(#mask0_12075_66064)">
<path d="M19.9891 2.53363L21.7687 2.10132V4.28874L19.9891 2.53363Z" fill="#38999B"/>
<path d="M19.9891 2.53363L21.7687 2.10132V4.28874L19.9891 2.53363Z" fill="#38999B"/>
<path d="M21.6496 2.25077V4.00509L20.2225 2.59772L21.6496 2.25077ZM21.8878 1.95081L19.7556 2.46927L21.8878 4.57212V1.95081Z" fill="black"/>
<path d="M17.9341 17.1439L17.8277 17.1815L12.0084 11.4424V11.2998L17.9341 17.1439Z" fill="#38999B"/>
<path d="M12.0084 11.2998V11.4424L17.8277 17.1815L17.9341 17.1439L12.0084 11.2998Z" fill="black"/>
<path d="M2.45947 15.6564V2.57962L11.6108 4.66366V18.703L2.45947 15.6564Z" fill="#183859"/>
<path d="M2.8566 3.07153L11.2137 4.97544V18.1572L2.8566 15.3753V3.07153ZM2.0625 2.08707V15.9376L12.0079 19.2482V4.35281L2.0625 2.08707Z" fill="black"/>
<path d="M2.0625 2.08707V15.9376L12.0079 19.2482V4.35281L2.0625 2.08707Z" stroke="white" stroke-width="0.1875" stroke-linecap="round" stroke-linejoin="round"/>
<path d="M2.0625 15.9378V2.08718L11.9888 0" stroke="white" stroke-width="0.1875" stroke-linecap="round" stroke-linejoin="round"/>
<path d="M2.0625 2.08707V15.9376L12.0079 19.2482V4.35281L2.0625 2.08707Z" stroke="white" stroke-width="0.1875" stroke-linecap="round" stroke-linejoin="round"/>
<path d="M21.904 18.1658L12.0245 21.6745L2.07837 18.3648L4.99512 17.4688L11.992 19.7972L18.9673 17.3192L21.904 18.1658Z" fill="#878781"/>
<path d="M21.9375 20.4905L12.0572 23.9999L2.11182 20.6894L5.02777 19.7934L12.0246 22.1227L19 19.6447L21.9375 20.4905Z" fill="#BBBBB8"/>
<path d="M17.7373 3.08102L19.7186 2.59937L21.7689 4.62076V7.05723L17.7373 3.08102Z" fill="#38999B"/>
<path d="M19.682 2.72939L21.6489 4.66933V6.77295L17.9699 3.14446L19.6812 2.7286M19.7558 2.46936L17.5038 3.01681L21.888 7.34076V4.57221L19.7558 2.46936Z" fill="black"/>
<path d="M15.4847 3.62851L17.4668 3.14685L21.7693 7.39014V9.82659L15.4847 3.62851Z" fill="#38999B"/>
<path d="M17.4301 3.27686L21.6493 7.43791V9.54234L15.7172 3.69195L17.4294 3.27607M17.504 3.01685L15.2511 3.56429L21.8882 10.1101V7.34079L17.504 3.01685Z" fill="black"/>
<path d="M13.2316 4.176L15.2137 3.69434L21.769 10.1588V12.596L13.2316 4.176Z" fill="#38999B"/>
<path d="M15.1771 3.82435L21.6499 10.2081V12.3125L13.465 4.24022L15.1771 3.82435ZM15.251 3.56433L12.998 4.11177L21.8881 12.8795V10.1102L15.251 3.56433Z" fill="black"/>
<path d="M12.1277 5.85596V4.44467L12.9607 4.24182L21.7688 12.9281V15.3646L12.1277 5.85596Z" fill="#38999B"/>
<path d="M12.9241 4.37183L21.6489 12.9774V15.0811L12.2459 5.80741V4.5363L12.9241 4.37183ZM12.998 4.11182L12.0084 4.35225V5.90452L21.8879 15.6481V12.8796L12.998 4.11182Z" fill="black"/>
<path d="M12.1277 8.6243V6.1886L21.7387 15.6675L19.9225 16.3128L12.1277 8.6243Z" fill="#38999B"/>
<path d="M12.2466 6.47223L21.5218 15.6198L19.9535 16.1774L12.2466 8.57663V6.473M12.0084 5.90442V8.67297L19.8923 16.4484L21.8879 15.7388V15.648L12.0084 5.90442Z" fill="black"/>
<path d="M12.1277 11.2511V8.95642L19.6748 16.4005L17.9643 17.0083L12.1277 11.2511Z" fill="#38999B"/>
<path d="M12.2466 9.24078L19.4587 16.3537L17.996 16.8729L12.2475 11.2034V9.24157M12.0084 8.67297V11.2998L17.9341 17.1439L19.8923 16.4484L12.0084 8.67297Z" fill="black"/>
<path d="M12.1277 16.9315V14.4942L15.5463 17.8667L13.7293 18.512L12.1277 16.9315Z" fill="#38999B"/>
<path d="M12.2466 14.7787L15.3302 17.8197L13.7611 18.3773L12.2466 16.8838V14.7794M12.0084 14.2108V16.9802L13.6991 18.6475L13.8055 18.6099L15.7638 17.9145L12.0084 14.2108Z" fill="black"/>
<path d="M12.1277 14.1625V11.7268L17.6102 17.1339L15.7941 17.7792L12.1277 14.1625Z" fill="#38999B"/>
<path d="M12.2466 12.01L17.3941 17.0867L15.8257 17.6435L12.2466 14.1137V12.01ZM12.0084 11.4423V14.2108L15.7638 17.9145L15.8702 17.8769L17.8277 17.1814L12.0084 11.4423Z" fill="black"/>
<path d="M12.1277 17.2643L13.4816 18.5996L12.1277 19.0812V17.2643Z" fill="#38999B"/>
<path d="M12.1277 17.2643L13.4816 18.5996L12.1277 19.0812V17.2643Z" fill="#38999B"/>
<path d="M12.2466 17.5479L13.2655 18.5528L12.2466 18.9145V17.5479ZM12.0084 16.9801V19.2482L13.6991 18.6475L12.0084 16.9801Z" fill="black"/>
<path d="M3.89343 2.10291L11.9909 0.400269L20.0638 1.99091L12.0044 3.95044L3.89343 2.10291Z" fill="#F7C78D"/>
<path d="M11.9935 0.799629L18.2408 2.03079L12.0023 3.54703L5.72571 2.11773L11.9935 0.799629ZM11.9888 0L2.0625 2.08718L12.0079 4.35292L21.8873 1.95169L11.9888 0Z" fill="black"/>
<path d="M21.8881 1.95091L12.0079 4.35292L2.0625 2.08718L11.9888 0L21.8881 1.95091Z" stroke="white" stroke-width="0.1875" stroke-linecap="round" stroke-linejoin="round"/>
<path d="M12.0078 4.35282V19.2482L21.888 15.7388V1.95081L12.0078 4.35282Z" stroke="white" stroke-width="0.1875" stroke-linecap="round" stroke-linejoin="round"/>
<path d="M21.094 2.95093V15.1889L12.8027 18.1337V4.96606L21.094 2.95093ZM21.8881 1.95081L12.0087 4.35204V19.2482L21.8881 15.7388V1.95081Z" fill="black"/>
<path d="M21.8881 1.95091L12.0079 4.35292L2.0625 2.08718L11.9888 0L21.8881 1.95091Z" stroke="white" stroke-width="0.1875" stroke-linecap="round" stroke-linejoin="round"/>
<path d="M12.0078 4.35282V19.2482L21.888 15.7388V1.95081L12.0078 4.35282Z" stroke="white" stroke-width="0.1875" stroke-linecap="round" stroke-linejoin="round"/>
</g>
</g>
<defs>
<clipPath id="clip0_12075_66064">
<rect width="105" height="24" fill="white"/>
</clipPath>
</defs>
</svg>
