<svg width="105" height="24" viewBox="0 0 105 24" fill="none" xmlns="http://www.w3.org/2000/svg">
<g clip-path="url(#clip0_11706_4557)">
<path d="M92.3804 23.5279H97.2066V13.8492L104.472 0.682007H98.9115L92.3804 12.8787V23.5279Z" fill="black"/>
<path d="M93.7442 10.7279L88.2885 0.682007H82.8065L88.2885 10.7279H93.7442Z" fill="black"/>
<path d="M75.0951 16.4196L78.7935 23.5278H84.0394L79.423 15.1344C81.5475 13.6655 82.8066 11.3049 82.8066 8.60321C82.8066 4.19665 80.0525 0.70813 74.1246 0.70813H64.6295V23.554H69.6394V16.4721L75.0951 16.4196ZM69.6394 4.90485H74.1508C76.5902 4.90485 78.0328 6.1901 78.0328 8.52452C78.0328 10.8852 76.7475 12.013 74.3082 12.013H69.6394V4.90485Z" fill="black"/>
<path d="M26.4655 23.5279H31.5278V5.19348H38.8196V0.682007H19.1737V5.19348H26.4655V23.5279Z" fill="black"/>
<path d="M9.1541 7.92131V11.4098C6.58361 11.4098 4.72131 10.3082 4.72131 8C4.72131 5.6918 6.34754 4.32787 9.28525 4.32787C11.6984 4.32787 13.1672 5.32459 13.5082 6.63607H17.9672C17.6525 2.96393 14.1902 0 9.18033 0C3.9082 0 0.157377 3.27869 0.157377 8.10492C0.157377 12.9311 4.06557 15.7639 9.18033 15.7639V12.4852C11.882 12.4852 13.7443 13.6918 13.7443 16.0525C13.7443 18.4131 11.8295 19.7246 9.20656 19.7246C6.81967 19.7246 5.16721 18.6754 4.66885 17.2328H0C0.655738 21.0361 4.14426 24 9.18033 24C14.2164 24 18.282 20.9836 18.282 15.9475C18.2557 11.2262 14.7148 7.92131 9.1541 7.92131Z" fill="black"/>
<path d="M50.5968 19.3836C46.5574 19.3836 43.6197 16.0262 43.6197 12.0131C43.6197 7.63278 46.2164 4.74754 50.5968 4.74754C54.6361 4.74754 57.7836 7.84262 57.7836 12.0131H62.3213C62.3213 5.50819 57.259 0.0262261 50.5968 0.0262261C43.4361 -3.4111e-06 38.8197 4.9836 38.8197 11.9869C38.8197 18.4918 43.9345 23.9738 50.5968 23.9738V19.3836Z" fill="black"/>
<path d="M50.4656 21.2459C55.5541 21.2459 59.3836 17.2328 59.3836 11.882H55.2393C55.2393 14.7672 53.141 16.8656 50.4918 16.8656V21.2459H50.4656Z" fill="black"/>
</g>
<defs>
<clipPath id="clip0_11706_4557">
<rect width="104.472" height="24" fill="white"/>
</clipPath>
</defs>
</svg>
