<svg xmlns="http://www.w3.org/2000/svg" fill="none" viewBox="0 0 79 24">
  <path fill="#91019B" d="M33.935 20.888V6.408h-5.93v-3.24h15.477v3.24h-5.904v14.48h-3.643Zm8.675 0 7.236-17.72h4.195l7.16 17.72h-3.944l-1.784-4.658h-7.26l-1.81 4.658H42.61Zm6.733-7.594h5.025l-2.512-6.531-2.513 6.53ZM71 21.14c-1.307 0-2.53-.227-3.668-.683a9.47 9.47 0 0 1-2.99-1.95 9.315 9.315 0 0 1-1.985-2.885 9.17 9.17 0 0 1-.703-3.595c0-1.3.234-2.498.703-3.595a9.034 9.034 0 0 1 2.01-2.91 9.19 9.19 0 0 1 2.965-1.925A9.476 9.476 0 0 1 71 2.89a9.79 9.79 0 0 1 2.814.405c.904.27 1.741.65 2.512 1.14a7.852 7.852 0 0 1 2.01 1.772L75.874 8.66c-.637-.793-1.374-1.392-2.211-1.797A5.936 5.936 0 0 0 71 6.256c-.787 0-1.525.152-2.211.456a5.247 5.247 0 0 0-1.784 1.215 5.423 5.423 0 0 0-1.18 1.823 5.932 5.932 0 0 0-.428 2.278c0 .81.142 1.57.427 2.278.285.692.687 1.3 1.206 1.823.52.506 1.122.903 1.81 1.19.703.287 1.465.43 2.285.43.921 0 1.784-.194 2.588-.582a6.527 6.527 0 0 0 2.136-1.67l2.386 2.379a8.28 8.28 0 0 1-1.984 1.746 9.99 9.99 0 0 1-2.513 1.14 9.94 9.94 0 0 1-2.738.38Z"/>
  <path fill="#91019B" fill-rule="evenodd" d="M24.008 12c0 6.627-5.374 12-12.004 12S0 18.627 0 12 5.374 0 12.004 0s12.004 5.373 12.004 12Zm-11.521 8.326V8.91c0-.277.224-.502.501-.502h6.26c.64 0 1.034.697.707 1.245l-6.537 10.93c-.26.437-.931.252-.931-.257Zm-.965-5.248V3.66c0-.509-.67-.694-.932-.257l-6.536 10.93a.823.823 0 0 0 .706 1.245h6.26a.501.501 0 0 0 .502-.501Z" clip-rule="evenodd"/>
</svg>
