<?xml version="1.0" encoding="UTF-8"?>
<svg width="2048px" height="512px" viewBox="0 0 2048 512" version="1.1" xmlns="http://www.w3.org/2000/svg" xmlns:xlink="http://www.w3.org/1999/xlink">
    <title>white-horizontal</title>
    <g id="Brand-Assets" stroke="none" stroke-width="1" fill="none" fill-rule="evenodd">
        <g id="Light-Logo" transform="translate(-400, -400)" fill="#FFFFFF" fill-rule="nonzero">
            <g id="white-horizontal" transform="translate(400, 400)">
                <g id="THAT" transform="translate(618, 56)">
                    <polygon id="Path" points="1303.1434 400 1237.23869 400 1237.23869 66.2857143 1110 66.2857143 1110 0 1430 0 1430 66.2857143 1303.1434 66.2857143"></polygon>
                    <path d="M994.027949,228.601907 L994.027949,160.548316 C994.027949,147.652569 991.568585,135.467182 986.649858,123.992152 C981.731131,112.517123 975.008871,102.517455 966.483077,93.993148 C957.957283,85.4688407 947.955871,78.7477523 936.478842,73.8298827 C925.001812,68.9120131 912.814299,66.4530783 899.916303,66.4530783 C887.018308,66.4530783 874.830795,68.9120131 863.353765,73.8298827 C851.876735,78.7477523 841.875324,85.4688407 833.34953,93.993148 C824.823736,102.517455 818.101476,112.517123 813.182749,123.992152 C808.264022,135.467182 805.804658,147.652569 805.804658,160.548316 L805.771756,228.601907 L994.027949,228.601907 Z M1060,400 L994.319634,400 L994.324626,295.639485 L805.654526,295.639485 L805.654526,400 L740,400 L740,160.111576 C740,137.982334 744.18483,117.201302 752.55449,97.7684798 C760.92415,78.3356578 772.316187,61.3668061 786.730602,46.8619247 C801.145016,32.3570432 818.070328,20.9205021 837.506539,12.5523013 C856.942749,4.18410042 877.727405,0 899.860506,0 C921.993607,0 942.778262,4.18410042 962.214473,12.5523013 C981.650683,20.9205021 998.622493,32.3570432 1013.1299,46.8619247 C1027.63731,61.3668061 1039.07585,78.3356578 1047.44551,97.7684798 C1055.81517,117.201302 1060,137.982334 1060,160.111576 L1060,400 Z" id="Shape"></path>
                    <polygon id="Path" points="436.667355 400 370 400 370 1.62643407e-13 436.667355 2.16344964e-13 436.667355 167.238848 623.52381 167.238848 623.52381 4.31078784e-14 690 1.65300726e-13 689.963423 400 623.52381 400 623.52381 232.761905 436.667355 232.761905"></polygon>
                    <polygon id="Path" points="193.143401 400 127.238695 400 127.238695 66.2857143 -2.70616862e-15 66.2857143 0 0 320 0 320 66.2857143 193.143401 66.2857143"></polygon>
                </g>
                <path d="M242.346667,392.533333 C242.346667,399.84536 248.094612,405.814883 255.318561,406.169957 L256,406.186667 C263.540528,406.186667 269.653333,400.073861 269.653333,392.533333 L269.653333,225.28 L150.186667,225.28 C123.794819,225.28 102.4,203.885181 102.4,177.493333 C102.4,151.101486 123.794819,129.706667 150.186667,129.706667 L361.813333,129.706667 C388.205181,129.706667 409.6,151.101486 409.6,177.493333 C409.6,203.885181 388.205181,225.28 361.813333,225.28 L320.853333,225.28 L320.853333,191.146667 L361.813333,191.146667 C369.353861,191.146667 375.466667,185.033861 375.466667,177.493333 C375.466667,169.952806 369.353861,163.84 361.813333,163.84 L150.186667,163.84 C142.646139,163.84 136.533333,169.952806 136.533333,177.493333 C136.533333,185.033861 142.646139,191.146667 150.186667,191.146667 L303.786667,191.146667 L303.786667,392.533333 C303.786667,418.925181 282.391847,440.32 256,440.32 C229.608153,440.32 208.213333,418.925181 208.213333,392.533333 L208.213333,262.826667 L20.5771241,262.829711 C24.191197,389.745185 128.210208,491.52 256,491.52 C386.074104,491.52 491.52,386.074104 491.52,256 C491.52,125.925896 386.074104,20.48 256,20.48 C136.33655,20.48 37.5167689,109.722357 22.4649654,225.282764 L1.82427124,225.27987 C17.0006933,98.3788899 125.011536,0 256,0 C397.384896,0 512,114.615104 512,256 C512,397.384896 397.384896,512 256,512 C114.615104,512 0,397.384896 0,256 C0,251.420284 0.12025773,246.868655 0.357787634,242.348099 L242.346667,242.346667 L242.346667,392.533333 Z" id="Path-T"></path>
            </g>
        </g>
    </g>
</svg>