<svg width="99" height="24" viewBox="0 0 99 24" fill="none" xmlns="http://www.w3.org/2000/svg">
<g clip-path="url(#clip0_11683_8844)">
<path fill-rule="evenodd" clip-rule="evenodd" d="M12.2283 0C12.2283 6.49911 17.4956 11.7717 24 11.7717V12.2283H12.2283V24H11.7717C11.7717 17.5009 6.50442 12.2283 0 12.2283V11.7717H11.7717V0H12.2283ZM31.4592 13.7518C31.4592 17.035 33.3792 18.8205 36.528 18.8205C39.6768 18.8205 41.5968 17.035 41.5968 13.7518V5.38056H39.6V13.6365C39.6 15.7678 38.7744 17.1502 36.528 17.1502C34.4544 17.1502 33.456 15.7678 33.456 13.6365V5.38056H31.4592V13.7518ZM43.3439 9.10536V18.5902H45.2446V13.291C45.2446 11.755 46.1663 10.4685 47.7599 10.4685C49.3534 10.4685 49.7374 11.563 49.7374 13.2718V18.5902H51.6383V12.4462C51.6383 10.1422 50.3903 8.87496 48.2783 8.87496C46.8383 8.87496 45.7823 9.62376 45.2446 10.4493H45.2254V9.10536H43.3439ZM53.3946 9.10536V18.5902H55.2954V9.10536H53.3946ZM53.3946 5.38056V7.62696H55.2954V5.38056H53.3946ZM56.5502 13.8285C56.5502 16.8045 58.4317 18.8205 61.2157 18.8205C63.7309 18.8205 65.0557 17.3805 65.6317 15.595L63.7309 15.1342C63.4237 16.4782 62.5982 17.3038 61.2734 17.3038C59.6797 17.3038 58.5469 16.0942 58.5469 13.8285C58.5469 11.6013 59.7182 10.3918 61.2349 10.3918C62.6557 10.3918 63.3854 11.371 63.6349 12.5613L65.5549 12.1005C65.0557 10.315 63.6926 8.87496 61.2349 8.87496C58.4317 8.87496 56.5502 10.9102 56.5502 13.8285ZM66.6523 5.38056V18.5902H68.5531V13.291C68.5531 11.755 69.4748 10.4685 71.0683 10.4685C72.662 10.4685 73.046 11.563 73.046 13.2718V18.5902H74.9468V12.4462C74.9468 10.1422 73.6988 8.87496 71.5868 8.87496C70.1468 8.87496 69.1675 9.50856 68.5723 10.4302H68.5531V5.38056H66.6523ZM76.2231 16.0173C76.2231 17.7838 77.7591 18.8205 79.4679 18.8205C80.9463 18.8205 81.9255 18.2062 82.3671 17.4765H82.3863V18.5902H84.2103V12.043C84.2103 10.0462 82.9239 8.87496 80.5048 8.87496C78.1623 8.87496 76.5303 10.1038 76.3959 12.139L78.3543 12.3118C78.4311 11.0445 79.2375 10.2765 80.4855 10.2765C81.6375 10.2765 82.2903 10.8333 82.2903 11.6205C82.2903 12.4078 81.8103 12.619 80.7927 12.8302L79.4871 13.099C77.4327 13.5022 76.2231 14.2893 76.2231 16.0173ZM82.3671 14.9998C82.3671 16.5742 81.3111 17.4573 79.9671 17.4573C78.8919 17.4573 78.1623 16.8622 78.1623 15.979C78.1623 15.4605 78.4119 15.0765 78.8535 14.8078C79.4295 14.443 80.3703 14.1742 82.3671 13.8478V14.9998ZM85.9851 9.10536V18.5902H87.8859V9.10536H85.9851ZM85.9851 5.38056V7.62696H87.8859V5.38056H85.9851ZM89.7359 9.10536V18.5902H91.6366V13.291C91.6366 11.755 92.5583 10.4685 94.1519 10.4685C95.7454 10.4685 96.1294 11.563 96.1294 13.2718V18.5902H98.0303V12.4462C98.0303 10.1422 96.7822 8.87496 94.6702 8.87496C93.2303 8.87496 92.1742 9.62376 91.6366 10.4493H91.6174V9.10536H89.7359Z" fill="#F50DB4"/>
</g>
<defs>
<clipPath id="clip0_11683_8844">
<rect width="98.0303" height="24" fill="white"/>
</clipPath>
</defs>
</svg>
