<svg width="41" height="24" viewBox="0 0 41 24" fill="none" xmlns="http://www.w3.org/2000/svg">
<g clip-path="url(#clip0_11274_6134)">
<path fill-rule="evenodd" clip-rule="evenodd" d="M20.6074 5.92592C22.2544 5.92592 23.5896 4.59936 23.5896 2.96296C23.5896 1.32656 22.2544 0 20.6074 0C18.9603 0 17.6251 1.32656 17.6251 2.96296C17.6251 4.59936 18.9603 5.92592 20.6074 5.92592ZM30.6574 24C32.5053 24 34.1101 23.1843 35.3395 21.9766V23.5259H40.5883V8.65178H35.3395V10.1437C34.0756 8.94604 32.4443 8.17783 30.6574 8.17783C27.0039 8.17783 23.9569 10.9006 23.2614 14.5165V8.65178H13.1218L9.51332 16.1481L5.96447 8.65178H0L7.66434 23.5259H11.243L18.0127 10.637V23.5259H23.2614V17.6613C23.9569 21.2772 27.0039 24 30.6574 24ZM32.0589 19.4963C30.1813 19.4963 28.6592 17.984 28.6592 16.1185C28.6592 14.253 30.1813 12.7407 32.0589 12.7407C33.9366 12.7407 35.4587 14.253 35.4587 16.1185C35.4587 17.984 33.9366 19.4963 32.0589 19.4963Z" fill="black"/>
</g>
<defs>
<clipPath id="clip0_11274_6134">
<rect width="41" height="24" fill="white"/>
</clipPath>
</defs>
</svg>
