<svg width="54" height="24" viewBox="0 0 54 24" fill="none" xmlns="http://www.w3.org/2000/svg">
<g clip-path="url(#clip0_11274_6134)">
<path fill-rule="evenodd" clip-rule="evenodd" d="M40.224 2.34281C40.224 3.6367 39.1682 4.68561 37.8659 4.68561C36.5636 4.68561 35.5079 3.6367 35.5079 2.34281C35.5079 1.04891 36.5636 0 37.8659 0C39.1682 0 40.224 1.04891 40.224 2.34281ZM49.5147 17.3768C48.5425 18.3317 47.2736 18.9767 45.8125 18.9767C42.9237 18.9767 40.5145 16.8239 39.9646 13.965V18.6019H35.8144V8.41066L30.4616 18.6019H27.632L21.5718 6.84098H26.2879L29.094 12.7683L31.9472 6.84098H39.9646V11.4779C40.5145 8.61896 42.9237 6.46615 45.8125 6.46615C47.2254 6.46615 48.5153 7.07359 49.5147 8.02059V6.84098H53.6648V18.6019H49.5147V17.3768ZM44.2325 12.7449C44.2325 14.2199 45.4361 15.4157 46.9207 15.4157C48.4053 15.4157 49.6089 14.2199 49.6089 12.7449C49.6089 11.2698 48.4053 10.0741 46.9207 10.0741C45.4361 10.0741 44.2325 11.2698 44.2325 12.7449ZM0 6.69767H4.18893L11.9559 23.4418H7.50516L5.45481 18.8674H0V15.8466H4.10078L3.40442 14.293H0V11.2721H2.05039L0 6.69767ZM19.8973 6.6977H15.739L10.6904 17.3138L12.8722 22.2335L14.3943 18.8674H19.8974V15.8466H15.7603L16.4628 14.293H19.8974V11.2721H17.8288L19.8973 6.6977ZM52.1964 23.223H51.7966V21.3942H52.1892V21.6521C52.3055 21.4621 52.5308 21.3467 52.8107 21.3467C53.0252 21.3467 53.2069 21.4112 53.356 21.5435C53.505 21.6758 53.5814 21.8624 53.5814 22.1101V23.223H53.1779V22.2153C53.1779 21.8794 52.9888 21.6928 52.709 21.6928C52.4073 21.6928 52.1964 21.9099 52.1964 22.2221V23.223ZM50.8724 20.8988C50.8724 21.0447 50.9923 21.1533 51.1486 21.1533C51.2977 21.1533 51.414 21.0447 51.414 20.8988C51.414 20.7597 51.2977 20.6512 51.1486 20.6512C50.9923 20.6512 50.8724 20.7597 50.8724 20.8988ZM51.3413 23.223V21.3942H50.9414V23.223H51.3413ZM48.525 22.3069C48.525 22.0389 48.6232 21.8149 48.8158 21.6283C49.0121 21.4417 49.2593 21.3467 49.561 21.3467C49.8627 21.3467 50.1099 21.4417 50.3025 21.6283C50.4988 21.8149 50.597 22.0389 50.597 22.3069C50.597 22.5784 50.4988 22.8057 50.3025 22.9923C50.1099 23.1789 49.8627 23.2705 49.561 23.2705C49.2593 23.2705 49.0121 23.1789 48.8158 22.9923C48.6232 22.8057 48.525 22.5784 48.525 22.3069ZM50.1935 22.3069C50.1935 22.1407 50.1317 21.9948 50.0081 21.876C49.8882 21.7539 49.7391 21.6928 49.561 21.6928C49.3829 21.6928 49.2339 21.7539 49.1103 21.876C48.9903 21.9948 48.9285 22.1407 48.9285 22.3069C48.9285 22.4766 48.9903 22.6225 49.1103 22.7412C49.2339 22.86 49.3829 22.921 49.561 22.921C49.7391 22.921 49.8882 22.86 50.0081 22.7412C50.1317 22.6225 50.1935 22.4766 50.1935 22.3069ZM46.7003 22.9957C46.893 23.1755 47.1438 23.2637 47.4455 23.2637C47.8381 23.2637 48.1907 23.0737 48.3506 22.7887L48.0198 22.6089C47.9181 22.7887 47.6818 22.9211 47.4491 22.9211C47.2674 22.9211 47.1147 22.8634 46.9948 22.7446C46.8748 22.6259 46.813 22.4834 46.813 22.3103C46.813 22.1339 46.8748 21.988 46.9984 21.8692C47.122 21.7505 47.2783 21.6928 47.4637 21.6928C47.6963 21.6928 47.9108 21.8183 48.0307 22.0117L48.3615 21.8387C48.2052 21.5367 47.8526 21.3501 47.46 21.3501C47.1511 21.3501 46.9003 21.4417 46.704 21.6216C46.5077 21.8014 46.4095 22.0287 46.4095 22.3103C46.4095 22.5885 46.5077 22.8159 46.7003 22.9957ZM46.206 22.8226L46.3441 23.1144C46.1987 23.2162 46.017 23.2671 45.8025 23.2671C45.3772 23.2671 45.1591 23.0194 45.1591 22.5682V21.7132H44.8211V21.3942H45.1628V20.7462H45.559V21.3942H46.2351V21.7132H45.559V22.575C45.559 22.8091 45.6607 22.9244 45.8607 22.9244C45.9661 22.9244 46.0824 22.8905 46.206 22.8226ZM44.0968 20.8988C44.0968 21.0447 44.2168 21.1533 44.3731 21.1533C44.5221 21.1533 44.6384 21.0447 44.6384 20.8988C44.6384 20.7597 44.5221 20.6512 44.3731 20.6512C44.2168 20.6512 44.0968 20.7597 44.0968 20.8988ZM44.5657 23.223V21.3942H44.1659V23.223H44.5657ZM42.8455 21.3501C43.1254 21.3501 43.358 21.4417 43.5434 21.6283C43.7288 21.8149 43.8233 22.0423 43.8233 22.3103C43.8233 22.5783 43.7288 22.8057 43.5434 22.9923C43.358 23.1755 43.1217 23.2671 42.8419 23.2671C42.5729 23.2671 42.3511 23.1653 42.1803 22.9618V23.223H41.7841V20.6512H42.1839V21.6589C42.3584 21.4519 42.5801 21.3501 42.8455 21.3501ZM42.791 22.9176C42.9763 22.9176 43.1254 22.86 43.2381 22.7412C43.3544 22.6225 43.4125 22.48 43.4125 22.3069C43.4125 22.1339 43.3544 21.9914 43.2381 21.8726C43.1254 21.7539 42.9763 21.6962 42.791 21.6962C42.6056 21.6962 42.4529 21.7573 42.3366 21.876C42.2239 21.9948 42.1657 22.1373 42.1657 22.3069C42.1657 22.48 42.2239 22.6225 42.3366 22.7412C42.4529 22.86 42.6056 22.9176 42.791 22.9176ZM40.1059 21.3942V21.6487C39.9278 21.4485 39.7024 21.3501 39.437 21.3501C39.1571 21.3501 38.9209 21.4383 38.7355 21.6182C38.5501 21.798 38.4592 22.0219 38.4592 22.2968C38.4592 22.5716 38.5501 22.8023 38.7355 22.9889C38.9209 23.1755 39.1571 23.2671 39.437 23.2671C39.7024 23.2671 39.9278 23.1687 40.1059 22.972V23.223H40.4912V21.3942H40.1059ZM39.9459 22.7446C39.826 22.8634 39.6769 22.9244 39.4916 22.9244C39.3062 22.9244 39.1535 22.8668 39.0372 22.748C38.9209 22.6293 38.8627 22.4834 38.8627 22.3103C38.8627 22.1373 38.9209 21.9914 39.0372 21.8726C39.1535 21.7539 39.3062 21.6928 39.4916 21.6928C39.6769 21.6928 39.826 21.7539 39.9459 21.8726C40.0659 21.9914 40.124 22.1373 40.124 22.3069C40.124 22.48 40.0659 22.6259 39.9459 22.7446ZM37.9276 21.1533C37.7713 21.1533 37.6513 21.0447 37.6513 20.8988C37.6513 20.7597 37.7713 20.6512 37.9276 20.6512C38.0766 20.6512 38.193 20.7597 38.193 20.8988C38.193 21.0447 38.0766 21.1533 37.9276 21.1533ZM38.1203 21.3942V23.223H37.7204V21.3942H38.1203ZM37.0386 21.3942L36.4789 22.7005L35.9154 21.3942H35.472L36.3298 23.2196H36.6206L37.4785 21.3942H37.0386ZM34.0829 21.6283V21.3942H34.4682V23.0364C34.4682 23.3316 34.3701 23.5657 34.1774 23.7388C33.9848 23.9118 33.7267 24 33.4068 24C33.0797 24 32.7889 23.9118 32.5308 23.7388L32.7053 23.4504C32.9234 23.5963 33.156 23.6675 33.3996 23.6675C33.8176 23.6675 34.072 23.4266 34.072 23.0873V22.955C33.9012 23.1348 33.6831 23.2264 33.4141 23.2264C33.1306 23.2264 32.8943 23.1382 32.7089 22.9584C32.5235 22.7786 32.4327 22.5546 32.4327 22.2866C32.4327 22.0185 32.5272 21.7946 32.7198 21.6182C32.9125 21.4383 33.1524 21.3501 33.4323 21.3501C33.6904 21.3501 33.9085 21.4417 34.0829 21.6283ZM33.465 22.8939C33.6467 22.8939 33.7958 22.8362 33.9157 22.7209C34.0357 22.6055 34.0938 22.463 34.0938 22.29C34.0938 22.1169 34.0357 21.971 33.9157 21.8591C33.7958 21.7471 33.6467 21.6894 33.465 21.6894C33.2869 21.6894 33.1378 21.7471 33.0179 21.8625C32.8979 21.9744 32.8398 22.1169 32.8398 22.29C32.8398 22.463 32.8979 22.6089 33.0179 22.7243C33.1378 22.8362 33.2869 22.8939 33.465 22.8939ZM30.3341 23.223H30.7339V22.2221C30.7339 21.9099 30.9448 21.6928 31.2465 21.6928C31.5264 21.6928 31.7154 21.8794 31.7154 22.2153V23.223H32.1189V22.1101C32.1189 21.8624 32.0425 21.6758 31.8935 21.5435C31.7445 21.4112 31.5627 21.3467 31.3482 21.3467C31.0683 21.3467 30.843 21.4621 30.7267 21.6521V21.3942H30.3341V23.223ZM29.6862 21.1533C29.5299 21.1533 29.4099 21.0447 29.4099 20.8988C29.4099 20.7597 29.5299 20.6512 29.6862 20.6512C29.8352 20.6512 29.9515 20.7597 29.9515 20.8988C29.9515 21.0447 29.8352 21.1533 29.6862 21.1533ZM29.8788 21.3942V23.223H29.479V21.3942H29.8788ZM28.6165 20.6512V21.6487C28.4384 21.4485 28.2203 21.3501 27.9622 21.3501C27.6824 21.3501 27.4497 21.4417 27.2643 21.6283C27.0789 21.8115 26.9844 22.0389 26.9844 22.3069C26.9844 22.5783 27.0789 22.8057 27.2643 22.9923C27.4497 23.1755 27.686 23.2671 27.9659 23.2671C28.2312 23.2671 28.453 23.1687 28.6238 22.9685V23.223H29.02V20.6512H28.6165ZM28.4711 21.8726C28.5875 21.9914 28.6456 22.1339 28.6456 22.3069C28.6456 22.48 28.5875 22.6292 28.4711 22.748C28.3548 22.8667 28.2022 22.9244 28.0168 22.9244C27.8314 22.9244 27.6787 22.8667 27.5624 22.748C27.4461 22.6292 27.3879 22.48 27.3879 22.3069C27.3879 22.1339 27.4461 21.9914 27.5624 21.8726C27.6787 21.7539 27.8314 21.6928 28.0168 21.6928C28.2022 21.6928 28.3548 21.7539 28.4711 21.8726ZM26.6453 20.6512V23.223H26.2454V20.6512H26.6453ZM25.3212 20.8988C25.3212 21.0447 25.4412 21.1533 25.5975 21.1533C25.7465 21.1533 25.8628 21.0447 25.8628 20.8988C25.8628 20.7597 25.7465 20.6512 25.5975 20.6512C25.4412 20.6512 25.3212 20.7597 25.3212 20.8988ZM25.7901 23.223V21.3942H25.3903V23.223H25.7901ZM24.0965 23.2671C23.5731 23.2671 23.2387 22.9617 23.2387 22.4731V21.3942H23.6385V22.4697C23.6385 22.7446 23.8094 22.921 24.0965 22.921C24.3873 22.921 24.5545 22.7513 24.5545 22.4697V21.3942H24.958V22.4731C24.958 22.9719 24.6345 23.2671 24.0965 23.2671ZM22.9149 22.5003C22.9149 22.1983 22.7368 21.9337 22.406 21.8522C22.6278 21.7742 22.7732 21.5672 22.7732 21.3399C22.7732 21.1737 22.7077 21.0278 22.5733 20.9022C22.4424 20.7767 22.2606 20.7156 22.0244 20.7156H20.9302V23.223H22.0753C22.3333 23.223 22.5405 23.1517 22.6896 23.0092C22.8386 22.8667 22.9149 22.6971 22.9149 22.5003ZM21.3446 21.0719H21.9626C22.1988 21.0719 22.3479 21.211 22.3479 21.384C22.3479 21.5638 22.1988 21.7199 21.948 21.7199H21.3446V21.0719ZM22.0026 22.8667H21.3446V22.066H21.9917C22.3079 22.066 22.4787 22.2492 22.4787 22.4698C22.4787 22.6835 22.297 22.8667 22.0026 22.8667Z" fill="black"/>
</g>
<defs>
<clipPath id="clip0_11274_6134">
<rect width="54" height="24" fill="white"/>
</clipPath>
</defs>
</svg>
