<svg xmlns="http://www.w3.org/2000/svg" fill="none" viewBox="0 0 116 24">
  <g clip-path="url(#viction-light_svg__a)">
    <path fill="#1e1e1e" fill-rule="evenodd" d="M115.2 3v7.714a35.3 35.3 0 0 1-8.826 1.113c-3.047 0-6.006-.387-8.827-1.113V3a35.383 35.383 0 0 0 8.827 1.112A35.3 35.3 0 0 0 115.2 3M97.547 20.83v-7.715a35.3 35.3 0 0 1 8.827-1.112c3.047 0 6.005.387 8.826 1.112v7.715a35.4 35.4 0 0 0-8.826-1.112c-3.047 0-6.006.385-8.827 1.112m-78.88-8.843c0-4.638 2.889-8.183 7.506-8.183 3.85 0 6.127 2.298 6.454 5.274h-3.151c-.284-1.576-1.466-2.604-3.305-2.604-2.889 0-4.266 2.407-4.266 5.515s1.662 5.493 4.29 5.493c1.859 0 3.172-1.117 3.37-2.758h3.107a5.53 5.53 0 0 1-1.73 3.699c-1.07 1.007-2.581 1.663-4.748 1.663-4.398 0-7.527-3.392-7.527-8.097zM3.329 4.11H0l5.274 15.646h2.89L13.437 4.11H10.22l-2.735 9.06c-.306 1.006-.678 2.495-.678 2.495h-.044s-.37-1.467-.677-2.495zm14.07 0h-3.174v15.646h3.173zm27.985 0H32.801v2.67h4.705v12.975h3.173V6.778h4.705zm1.138 0h3.173v15.646h-3.173zm11.99-.305c-4.616 0-7.548 3.478-7.548 8.162 0 4.683 2.932 8.14 7.549 8.14s7.527-3.458 7.527-8.14-2.91-8.162-7.527-8.162m.024 2.604c2.866 0 4.266 2.428 4.266 5.558 0 3.107-1.399 5.536-4.266 5.536s-4.333-2.407-4.333-5.536c0-3.13 1.467-5.558 4.333-5.558m8.751-2.299h3.217l5.207 8.731c.504.853 1.095 2.188 1.095 2.188h.044s-.087-1.619-.087-2.713V4.109h3.13v15.646H76.83l-5.339-8.642c-.503-.832-1.117-2.167-1.117-2.167h-.043s.087 1.64.087 2.736v8.075h-3.13V4.109" clip-rule="evenodd"/>
  </g>
  <defs>
    <clipPath id="viction-light_svg__a">
      <path fill="#fff" d="M0 0h115.2v24H0z"/>
    </clipPath>
  </defs>
</svg>
