<svg width="130" height="24" viewBox="0 0 130 24" fill="none" xmlns="http://www.w3.org/2000/svg">
<g clip-path="url(#clip0_11768_16057)">
<g clip-path="url(#clip1_11768_16057)">
<mask id="mask0_11768_16057" style="mask-type:luminance" maskUnits="userSpaceOnUse" x="0" y="0" width="130" height="24">
<path d="M129.925 0.924927H0V23.075H129.925V0.924927Z" fill="white"/>
</mask>
<g mask="url(#mask0_11768_16057)">
<path d="M47.5256 7.78618C49.8429 7.78618 51.7354 9.68035 51.7354 11.9997C51.7354 14.3191 49.8429 16.2132 47.5256 16.2132C45.2082 16.2132 43.3157 14.3191 43.3157 11.9997C43.3157 9.68035 45.1889 7.78618 47.5256 7.78618ZM47.5256 5.75671C44.0882 5.75671 41.2881 8.55928 41.2881 11.9997C41.2881 15.4401 44.0882 18.2427 47.5256 18.2427C50.9629 18.2427 53.763 15.4401 53.763 11.9997C53.763 8.53996 50.9629 5.75671 47.5256 5.75671Z" fill="black"/>
<path d="M107.95 7.78618C110.267 7.78618 112.16 9.68035 112.16 11.9997C112.16 14.3191 110.267 16.2132 107.95 16.2132C105.633 16.2132 103.74 14.3191 103.74 11.9997C103.74 9.68035 105.633 7.78618 107.95 7.78618ZM107.95 5.75671C104.512 5.75671 101.713 8.55928 101.713 11.9997C101.713 15.4401 104.512 18.2427 107.95 18.2427C111.387 18.2427 114.188 15.4401 114.188 11.9997C114.188 8.53996 111.407 5.75671 107.95 5.75671Z" fill="black"/>
<path d="M98.5449 13.4493C97.9461 15.0729 96.4013 16.2132 94.5861 16.2132C92.2689 16.2132 90.3763 14.3191 90.3763 11.9997C90.3763 9.68035 92.2689 7.78618 94.5861 7.78618C96.4013 7.78618 97.9461 8.94586 98.5449 10.5501H100.65C100.012 7.8055 97.5408 5.75671 94.5861 5.75671C91.1487 5.75671 88.3489 8.55928 88.3489 11.9997C88.3489 15.4401 91.1487 18.2427 94.5861 18.2427C97.5408 18.2427 100.012 16.1939 100.65 13.4493H98.5449Z" fill="black"/>
<path d="M81.0487 7.9809C83.3085 7.9809 85.143 9.87501 85.0656 12.1558C84.9881 14.3399 83.1343 16.0214 80.9526 16.0214H78.7315V7.9809H81.0487ZM81.0487 5.95142H76.7041V18.0508H81.0487C84.39 18.0508 87.093 15.3449 87.093 12.0011C87.093 8.65738 84.39 5.95142 81.0487 5.95142Z" fill="black"/>
<path d="M117.703 5.97034H115.674V18.0311H117.703V5.97034Z" fill="black"/>
<path d="M30.4736 18.0876L32.7717 9.21602L35.0697 18.0876H37.8505L40.9983 5.91089H38.9127L36.4601 15.3624L34.0076 5.91089H31.5358L29.0833 15.3624L26.6308 5.91089H24.5452L27.6929 18.0876H30.4736Z" fill="black"/>
<path d="M121.757 9.4498L127.898 18.0315H128.13H129.925V5.97074H127.898V14.5524L121.757 5.95142H121.602L121.583 5.97074H119.729V18.0315H121.757V9.4498Z" fill="black"/>
<path d="M68.7861 5.97034H66.7584V18.0311H75.2167V16.0017H68.7861V5.97034Z" fill="black"/>
<path d="M62.859 13.0634C64.0949 12.4449 64.9446 11.1885 64.9446 9.7196C64.9446 7.65148 63.2645 5.98926 61.2175 5.98926H57.394H55.3083V13.4693V18.05H57.394V13.45H58.5526C61.0244 13.5273 62.9942 15.5374 62.9942 18.0307H65.0798C65.0991 16.0592 64.2301 14.2811 62.859 13.0634ZM57.394 11.3625V8.05738H61.2175C62.1252 8.05738 62.859 8.79186 62.859 9.70029C62.859 10.6087 62.1252 11.3625 61.2175 11.3625H57.394Z" fill="black"/>
<path d="M21.2422 7.68979C20.6822 6.37547 19.8905 5.19646 18.8669 4.17206C17.8435 3.14767 16.6848 2.35521 15.3717 1.79469C14.0006 1.21485 12.5523 0.924927 11.0653 0.924927C9.55901 0.924927 8.11069 1.21485 6.75889 1.79469C5.44573 2.35521 4.26776 3.14767 3.24427 4.17206C2.22078 5.19646 1.42903 6.37547 0.869002 7.68979C0.289667 9.04273 0 10.4924 0 12C0 13.4883 0.289667 14.9378 0.869002 16.3102C1.42903 17.6245 2.22078 18.8035 3.24427 19.8279C4.26776 20.8523 5.44573 21.6448 6.75889 22.1859C8.12998 22.7658 9.5783 23.0557 11.0653 23.0557C12.5523 23.0557 14.0006 22.7658 15.3717 22.1859C16.6848 21.6254 17.8628 20.833 18.8863 19.8086C19.9098 18.7841 20.7015 17.6051 21.2616 16.2908C21.8409 14.9185 22.1306 13.4689 22.1306 11.9807C22.1306 10.4924 21.8216 9.04273 21.2422 7.68979ZM7.39617 10.9562C7.84031 9.17805 9.46248 7.8831 11.3742 7.8831H19.0601C19.5622 8.83016 19.8711 9.87384 19.987 10.9562H7.39617ZM19.987 13.0437C19.8711 14.1261 19.5429 15.1698 19.0601 16.1168H11.3742C9.46248 16.1168 7.85961 14.8026 7.39617 13.0437H19.987ZM4.71191 5.641C6.4113 3.94012 8.67072 3.01237 11.0653 3.01237C13.4598 3.01237 15.7193 3.94012 17.4186 5.641C17.4766 5.69899 17.5152 5.73765 17.5731 5.79563H11.3742C9.71349 5.79563 8.16863 6.43346 6.99061 7.61248C6.06369 8.5402 5.46505 9.6999 5.27194 10.9562H2.14353C2.37527 8.9461 3.26358 7.09061 4.71191 5.641ZM11.0653 20.9876C8.67072 20.9876 6.4113 20.0598 4.71191 18.3589C3.26358 16.9093 2.37527 15.0345 2.14353 13.0437H5.27194C5.48436 14.3001 6.083 15.4598 6.99061 16.3875C8.16863 17.5665 9.71349 18.2043 11.3742 18.2043H17.5731C17.5152 18.2623 17.4766 18.301 17.4186 18.3589C15.7193 20.0598 13.4598 20.9876 11.0653 20.9876Z" fill="black"/>
</g>
</g>
</g>
<defs>
<clipPath id="clip0_11768_16057">
<rect width="130" height="24" fill="white"/>
</clipPath>
<clipPath id="clip1_11768_16057">
<rect width="130" height="22.1501" fill="white" transform="translate(0 0.924927)"/>
</clipPath>
</defs>
</svg>
