<svg width="130" height="23" viewBox="0 0 130 23" fill="none" xmlns="http://www.w3.org/2000/svg">
<g clip-path="url(#clip0_11768_16049)">
<g clip-path="url(#clip1_11768_16049)">
<mask id="mask0_11768_16049" style="mask-type:luminance" maskUnits="userSpaceOnUse" x="0" y="0" width="130" height="23">
<path d="M129.925 0H0V22.1501H129.925V0Z" fill="white"/>
</mask>
<g mask="url(#mask0_11768_16049)">
<path d="M47.5256 6.86125C49.8429 6.86125 51.7354 8.75542 51.7354 11.0748C51.7354 13.3941 49.8429 15.2883 47.5256 15.2883C45.2082 15.2883 43.3157 13.3941 43.3157 11.0748C43.3157 8.75542 45.1889 6.86125 47.5256 6.86125ZM47.5256 4.83179C44.0882 4.83179 41.2881 7.63435 41.2881 11.0748C41.2881 14.5152 44.0882 17.3178 47.5256 17.3178C50.9629 17.3178 53.763 14.5152 53.763 11.0748C53.763 7.61504 50.9629 4.83179 47.5256 4.83179Z" fill="white"/>
<path d="M107.95 6.86125C110.267 6.86125 112.16 8.75542 112.16 11.0748C112.16 13.3941 110.267 15.2883 107.95 15.2883C105.633 15.2883 103.74 13.3941 103.74 11.0748C103.74 8.75542 105.633 6.86125 107.95 6.86125ZM107.95 4.83179C104.512 4.83179 101.713 7.63435 101.713 11.0748C101.713 14.5152 104.512 17.3178 107.95 17.3178C111.387 17.3178 114.188 14.5152 114.188 11.0748C114.188 7.61504 111.407 4.83179 107.95 4.83179Z" fill="white"/>
<path d="M98.5449 12.5244C97.9461 14.148 96.4013 15.2883 94.5861 15.2883C92.2689 15.2883 90.3763 13.3941 90.3763 11.0748C90.3763 8.75542 92.2689 6.86125 94.5861 6.86125C96.4013 6.86125 97.9461 8.02094 98.5449 9.62516H100.65C100.012 6.88057 97.5408 4.83179 94.5861 4.83179C91.1487 4.83179 88.3489 7.63435 88.3489 11.0748C88.3489 14.5152 91.1487 17.3178 94.5861 17.3178C97.5408 17.3178 100.012 15.269 100.65 12.5244H98.5449Z" fill="white"/>
<path d="M81.0487 7.05598C83.3085 7.05598 85.143 8.95009 85.0656 11.2309C84.9881 13.4149 83.1343 15.0965 80.9526 15.0965H78.7315V7.05598H81.0487ZM81.0487 5.02649H76.7041V17.1259H81.0487C84.39 17.1259 87.093 14.42 87.093 11.0762C87.093 7.73246 84.39 5.02649 81.0487 5.02649Z" fill="white"/>
<path d="M117.703 5.04541H115.674V17.1062H117.703V5.04541Z" fill="white"/>
<path d="M30.4736 17.1627L32.7717 8.29109L35.0697 17.1627H37.8505L40.9983 4.98596H38.9127L36.4601 14.4375L34.0076 4.98596H31.5358L29.0833 14.4375L26.6308 4.98596H24.5452L27.6929 17.1627H30.4736Z" fill="white"/>
<path d="M121.757 8.52488L127.898 17.1066H128.13H129.925V5.04582H127.898V13.6275L121.757 5.02649H121.602L121.583 5.04582H119.729V17.1066H121.757V8.52488Z" fill="white"/>
<path d="M68.7861 5.04541H66.7584V17.1062H75.2167V15.0767H68.7861V5.04541Z" fill="white"/>
<path d="M62.859 12.1384C64.0949 11.52 64.9446 10.2636 64.9446 8.79468C64.9446 6.72655 63.2645 5.06433 61.2175 5.06433H57.394H55.3083V12.5443V17.1251H57.394V12.525H58.5526C61.0244 12.6024 62.9942 14.6125 62.9942 17.1058H65.0798C65.0991 15.1343 64.2301 13.3561 62.859 12.1384ZM57.394 10.4376V7.13245H61.2175C62.1252 7.13245 62.859 7.86693 62.859 8.77537C62.859 9.6838 62.1252 10.4376 61.2175 10.4376H57.394Z" fill="white"/>
<path d="M21.2422 6.76486C20.6822 5.45054 19.8905 4.27153 18.8669 3.24714C17.8435 2.22274 16.6848 1.43029 15.3717 0.869765C14.0006 0.289923 12.5523 0 11.0653 0C9.55901 0 8.11069 0.289923 6.75889 0.869765C5.44573 1.43029 4.26776 2.22274 3.24427 3.24714C2.22078 4.27153 1.42903 5.45054 0.869002 6.76486C0.289667 8.1178 0 9.56746 0 11.0751C0 12.5633 0.289667 14.0129 0.869002 15.3853C1.42903 16.6996 2.22078 17.8786 3.24427 18.903C4.26776 19.9273 5.44573 20.7198 6.75889 21.261C8.12998 21.8408 9.5783 22.1308 11.0653 22.1308C12.5523 22.1308 14.0006 21.8408 15.3717 21.261C16.6848 20.7005 17.8628 19.908 18.8863 18.8837C19.9098 17.8592 20.7015 16.6802 21.2616 15.3659C21.8409 13.9936 22.1306 12.544 22.1306 11.0557C22.1306 9.56746 21.8216 8.1178 21.2422 6.76486ZM7.39617 10.0313C7.84031 8.25313 9.46248 6.95818 11.3742 6.95818H19.0601C19.5622 7.90523 19.8711 8.94892 19.987 10.0313H7.39617ZM19.987 12.1188C19.8711 13.2012 19.5429 14.2449 19.0601 15.1919H11.3742C9.46248 15.1919 7.85961 13.8777 7.39617 12.1188H19.987ZM4.71191 4.71607C6.4113 3.0152 8.67072 2.08745 11.0653 2.08745C13.4598 2.08745 15.7193 3.0152 17.4186 4.71607C17.4766 4.77406 17.5152 4.81272 17.5731 4.8707H11.3742C9.71349 4.8707 8.16863 5.50853 6.99061 6.68755C6.06369 7.61527 5.46505 8.77497 5.27194 10.0313H2.14353C2.37527 8.02117 3.26358 6.16569 4.71191 4.71607ZM11.0653 20.0627C8.67072 20.0627 6.4113 19.1349 4.71191 17.434C3.26358 15.9844 2.37527 14.1095 2.14353 12.1188H5.27194C5.48436 13.3751 6.083 14.5348 6.99061 15.4626C8.16863 16.6416 9.71349 17.2794 11.3742 17.2794H17.5731C17.5152 17.3374 17.4766 17.3761 17.4186 17.434C15.7193 19.1349 13.4598 20.0627 11.0653 20.0627Z" fill="white"/>
</g>
</g>
</g>
<defs>
<clipPath id="clip0_11768_16049">
<rect width="130" height="22.1501" fill="white"/>
</clipPath>
<clipPath id="clip1_11768_16049">
<rect width="130" height="22.1501" fill="white"/>
</clipPath>
</defs>
</svg>
