<svg width="113" height="24" viewBox="0 0 113 24" fill="none" xmlns="http://www.w3.org/2000/svg">
<g clip-path="url(#clip0_11110_38341)">
<g clip-path="url(#clip1_11110_38341)">
<path fill-rule="evenodd" clip-rule="evenodd" d="M3.52148 3C3.52148 2.44772 3.9692 2 4.52148 2H6.7097C7.26199 2 7.7097 2.44772 7.7097 3V5.16667C7.7097 5.71895 7.26199 6.16667 6.7097 6.16667H5.18822C4.63593 6.16667 4.18822 6.61438 4.18822 7.16667V20.9998C4.18822 21.5521 3.7405 21.9998 3.18822 21.9998H1C0.447715 21.9998 0 21.5521 0 20.9998V7.1665C0 6.61422 0.447715 6.1665 1 6.1665H2.52148C3.07377 6.1665 3.52148 5.71879 3.52148 5.1665V3ZM11.9261 3C11.9261 2.44772 12.3738 2 12.9261 2H15.1143C15.6666 2 16.1143 2.44772 16.1143 3V5C16.1143 5.55228 16.562 6 17.1143 6H18.4898C19.0421 6 19.4898 6.44771 19.4898 7V20.8333C19.4898 21.3856 19.0421 21.8333 18.4898 21.8333H16.3016C15.7493 21.8333 15.3016 21.3856 15.3016 20.8333V7.16667C15.3016 6.61438 14.8539 6.16667 14.3016 6.16667H12.9261C12.3738 6.16667 11.9261 5.71895 11.9261 5.16667V3Z" fill="url(#paint0_linear_11110_38341)"/>
<path d="M28 6.53302H32.9475C35.0433 6.53302 36.1771 7.63577 36.1771 9.22343C36.1926 9.71964 36.0582 10.209 35.7915 10.6272C35.5248 11.0454 35.1382 11.3729 34.6825 11.5668V11.6185C35.2719 11.7979 35.7862 12.1666 36.1462 12.6678C36.5062 13.169 36.6921 13.775 36.6753 14.3926C36.6753 16.1673 35.4482 17.5629 33.2223 17.5629H28V6.53302ZM32.9818 11.0154C33.772 11.0154 34.339 10.4296 34.339 9.5385C34.339 8.64744 33.772 8.06161 32.9818 8.06161H29.843V11.0154H32.9818ZM33.2052 16.0467C34.15 16.0467 34.8371 15.323 34.8371 14.2719C34.8371 13.2209 34.15 12.5144 33.2052 12.5144H29.843V16.0467H33.2052Z" fill="url(#paint1_linear_11110_38341)"/>
<path d="M38.9772 7.84499H37.9416V6.18103H40.7932V17.5556H38.9723L38.9772 7.84499Z" fill="url(#paint2_linear_11110_38341)"/>
<path d="M52.4429 13.4621C52.4429 10.912 54.1976 9.13728 56.7228 9.13728C58.7499 9.13728 60.3475 10.1883 60.6052 12.3372H58.8358C58.664 11.2517 57.891 10.7692 57.1007 10.7692H56.2418C55.1424 10.7692 54.2491 11.9754 54.2491 13.4769C54.2491 14.9784 55.1424 16.1993 56.2418 16.1993H57.1007C57.5399 16.201 57.9637 16.0373 58.2882 15.7405C58.6127 15.4438 58.8142 15.0356 58.853 14.5969H60.6224C60.377 16.7162 58.7671 17.8189 56.6958 17.8189C54.1779 17.8042 52.4429 16.0122 52.4429 13.4621Z" fill="url(#paint3_linear_11110_38341)"/>
<path d="M62.2519 6.18103H64.0557V12.4554H65.3637L67.8031 9.37112H69.8645L66.8583 13.179L70.002 17.5556H67.8374L65.2091 13.9372H64.0557V17.5556H62.2519V6.18103Z" fill="url(#paint4_linear_11110_38341)"/>
<path d="M70.8266 15.099H72.5616C72.6475 15.8227 73.0941 16.2879 74.0341 16.2879H75.1703C75.9777 16.2879 76.3557 15.8744 76.3557 15.323C76.3557 14.7716 76.0464 14.4442 75.3078 14.3384L73.3984 14.0923C71.7836 13.9027 71.0621 12.9378 71.0621 11.68C71.0621 10.0259 72.2892 9.12989 74.4807 9.12989C76.579 9.12989 77.8502 9.97418 77.9165 11.8523H76.1814C76.0955 11.1458 75.8035 10.6462 74.9102 10.6462H73.877C73.104 10.6462 72.7432 11.0597 72.7432 11.5938C72.7432 12.128 73.0868 12.4898 73.8255 12.5932L75.7519 12.8394C77.3152 13.0289 78.0367 13.8732 78.0367 15.1827C78.0367 16.8713 76.9201 17.8017 74.4464 17.8017C72.0536 17.8042 70.8928 16.891 70.8266 15.099Z" fill="url(#paint5_linear_11110_38341)"/>
<path d="M79.1705 13.4621C79.1705 10.912 80.9227 9.13728 83.4504 9.13728C85.4775 9.13728 87.0752 10.1883 87.3329 12.3372H85.5635C85.3917 11.2517 84.6186 10.7692 83.8284 10.7692H82.9695C81.8676 10.7692 80.9743 11.9754 80.9743 13.4769C80.9743 14.9784 81.8676 16.1993 82.9695 16.1993H83.8284C84.2675 16.201 84.6913 16.0373 85.0158 15.7405C85.3403 15.4438 85.5419 15.0356 85.5806 14.5969H87.35C87.1046 16.7162 85.4947 17.8189 83.4235 17.8189C80.908 17.8042 79.1705 16.0122 79.1705 13.4621Z" fill="url(#paint6_linear_11110_38341)"/>
<path d="M98.7739 14.5304V9.38096H100.578V14.2227C100.578 15.4116 101.179 16.1181 101.969 16.1181H102.951C103.793 16.1181 104.548 15.3427 104.548 14.2227V9.38096H106.355V17.5654H104.6V16.4454C104.109 17.2897 103.243 17.8066 101.92 17.8066C99.942 17.8042 98.7739 16.6497 98.7739 14.5304Z" fill="url(#paint7_linear_11110_38341)"/>
<path d="M109.356 15.6504V10.9735H107.776V9.38096H109.356V7.08686H111.177V9.38096H113.307V10.9662H111.177V15.1359C111.177 15.6701 111.349 15.9285 111.933 15.9285H113.376V17.5654H111.413C110.092 17.563 109.356 16.8737 109.356 15.6504Z" fill="url(#paint8_linear_11110_38341)"/>
<path d="M7.92562 8.1651L3.33936 21.7979H12.5119L7.92562 8.1651Z" fill="#6DC04D"/>
<path fill-rule="evenodd" clip-rule="evenodd" d="M7.92572 7.40002L12.8514 22.0418H3L7.92572 7.40002ZM3.67891 21.5539H12.1725L7.92572 8.93019L3.67891 21.5539Z" fill="#303C42"/>
<path d="M12.1013 21.8222L12.0484 21.8751C11.9712 21.9524 11.8411 21.9524 11.7638 21.8751L5.51057 15.6218C5.43332 15.5446 5.43332 15.4145 5.51057 15.3372L5.56343 15.2844C5.64068 15.2071 5.77079 15.2071 5.84804 15.2844L12.1013 21.5376C12.1786 21.6149 12.1786 21.745 12.1013 21.8222Z" fill="#303C42"/>
<path d="M5.65315 15.3982L5.70601 15.4511C5.78326 15.5283 5.91337 15.5283 5.99062 15.4511L9.25955 12.1821C9.3368 12.1049 9.3368 11.9748 9.25955 11.8975L9.2067 11.8447C9.12945 11.7674 8.99934 11.7674 8.92209 11.8447L5.65315 15.1136C5.5759 15.1909 5.5759 15.321 5.65315 15.3982Z" fill="#303C42"/>
<path d="M12.8046 12.3657L9.62109 21.831H15.9841L12.8046 12.3657Z" fill="#85D46B"/>
<path fill-rule="evenodd" clip-rule="evenodd" d="M12.8049 11.6L16.3235 22.0749H9.28174L12.8049 11.6ZM9.9606 21.587H15.6449L12.8046 13.1314L9.9606 21.587Z" fill="#303C42"/>
<path d="M9.82858 21.7293L9.93835 21.8391C10.0034 21.9042 10.1091 21.9042 10.1742 21.8391L14.4758 17.5375C14.5409 17.4724 14.5409 17.3667 14.4758 17.3016L14.3661 17.1919C14.301 17.1268 14.1953 17.1268 14.1302 17.1919L9.82858 21.4935C9.76352 21.5586 9.76352 21.6643 9.82858 21.7293Z" fill="#303C42"/>
<path d="M12.9824 10.6183C12.9502 10.5464 12.8787 10.5 12.7998 10.5C12.7209 10.5 12.6494 10.5464 12.6172 10.6183L12.2151 11.5173L11.255 11.7379C11.1817 11.7547 11.1241 11.8113 11.1058 11.8842C11.0875 11.9571 11.1117 12.0342 11.1684 12.0836L11.8659 12.6915L11.7165 13.6698C11.7049 13.746 11.738 13.822 11.8017 13.8654C11.8654 13.9087 11.9483 13.9116 12.0149 13.8728L12.7998 13.4153L13.5847 13.8728C13.6513 13.9116 13.7342 13.9087 13.7979 13.8654C13.8616 13.822 13.8948 13.746 13.8831 13.6698L13.7337 12.6915L14.4312 12.0836C14.4879 12.0342 14.5121 11.9571 14.4938 11.8842C14.4755 11.8113 14.4179 11.7547 14.3446 11.7379L13.3845 11.5173L12.9824 10.6183Z" fill="#FFCF01" stroke="#303C42" stroke-width="0.4" stroke-linejoin="round"/>
<path d="M8.08247 7.11834C8.05027 7.04636 7.97877 7.00001 7.8999 7.00001C7.82104 7.00001 7.74954 7.04636 7.71734 7.11834L7.31521 8.01728L6.35511 8.23788C6.28182 8.25473 6.22418 8.31125 6.2059 8.3842C6.18762 8.45714 6.21181 8.53417 6.2685 8.58358L6.96603 9.19149L6.81659 10.1698C6.80495 10.246 6.8381 10.322 6.90181 10.3654C6.96551 10.4087 7.04844 10.4116 7.11501 10.3728L7.8999 9.91531L8.6848 10.3728C8.75136 10.4116 8.83429 10.4087 8.898 10.3654C8.9617 10.322 8.99485 10.246 8.98322 10.1698L8.83377 9.19149L9.5313 8.58358C9.588 8.53417 9.61218 8.45714 9.59391 8.3842C9.57563 8.31125 9.51798 8.25473 9.44469 8.23788L8.48459 8.01728L8.08247 7.11834Z" fill="#FFCF01" stroke="#303C42" stroke-width="0.4" stroke-linejoin="round"/>
<path d="M8.21615 14.1167C8.60735 14.1167 8.92448 13.7996 8.92448 13.4084C8.92448 13.0172 8.60735 12.7001 8.21615 12.7001C7.82494 12.7001 7.50781 13.0172 7.50781 13.4084C7.50781 13.7996 7.82494 14.1167 8.21615 14.1167Z" fill="#FFCF01"/>
<path d="M7.21615 18.1167C7.60735 18.1167 7.92448 17.7996 7.92448 17.4084C7.92448 17.0172 7.60735 16.7001 7.21615 16.7001C6.82494 16.7001 6.50781 17.0172 6.50781 17.4084C6.50781 17.7996 6.82494 18.1167 7.21615 18.1167Z" fill="#FFCF01"/>
<path d="M13.2161 19.1167C13.6073 19.1167 13.9245 18.7996 13.9245 18.4084C13.9245 18.0172 13.6073 17.7001 13.2161 17.7001C12.8249 17.7001 12.5078 18.0172 12.5078 18.4084C12.5078 18.7996 12.8249 19.1167 13.2161 19.1167Z" fill="#FFCF01"/>
<g style="mix-blend-mode:multiply" opacity="0.3">
<path d="M0 18.0016C0 18.0016 2.5 20.0571 4 19C5.77418 17.7497 6.09286 18.9566 8 18.0016C10 17 10.6495 19.3694 12.5 19.5872C14.4526 19.8171 16 18.4128 17.5 19C19.4584 19.7667 19.5 18.0016 19.5 18.0016V20.1729C19.5 20.7252 19.0523 21.1729 18.5 21.1729H1C0.447715 21.1729 0 20.7252 0 20.1729V18.0016Z" fill="#2B79BA"/>
</g>
<path d="M0 19.0016C0 19.0016 2.5 21.0571 4 20C5.77418 18.7497 6.09286 19.9566 8 19.0016C10 18 10.6495 20.3694 12.5 20.5872C14.4526 20.8171 16 19.4128 17.5 20C19.4584 20.7667 19.5 19.0016 19.5 19.0016V21.1729C19.5 21.7252 19.0523 22.1729 18.5 22.1729H1C0.447715 22.1729 0 21.7252 0 21.1729V19.0016Z" fill="url(#paint9_linear_11110_38341)"/>
<circle cx="2.5" cy="15.5" r="0.5" fill="url(#paint10_linear_11110_38341)"/>
<circle cx="4.5" cy="12.5" r="0.5" fill="url(#paint11_linear_11110_38341)"/>
<circle cx="12.5" cy="8.5" r="0.5" fill="url(#paint12_linear_11110_38341)"/>
<circle cx="2.25" cy="12.25" r="0.25" fill="url(#paint13_linear_11110_38341)"/>
<circle cx="1.25" cy="13.25" r="0.25" fill="url(#paint14_linear_11110_38341)"/>
<circle cx="6.25" cy="4.25" r="0.25" fill="url(#paint15_linear_11110_38341)"/>
<circle cx="14.25" cy="4.25" r="0.25" fill="url(#paint16_linear_11110_38341)"/>
<circle cx="16.25" cy="11.25" r="0.25" fill="url(#paint17_linear_11110_38341)"/>
<circle cx="18.25" cy="14.25" r="0.25" fill="url(#paint18_linear_11110_38341)"/>
<circle cx="17.25" cy="15.25" r="0.25" fill="url(#paint19_linear_11110_38341)"/>
<circle cx="18.25" cy="17.25" r="0.25" fill="url(#paint20_linear_11110_38341)"/>
<circle cx="17.5" cy="9.5" r="0.5" fill="url(#paint21_linear_11110_38341)"/>
<circle cx="13.5" cy="3.5" r="0.5" fill="url(#paint22_linear_11110_38341)"/>
<circle cx="1.5" cy="8.5" r="0.5" fill="url(#paint23_linear_11110_38341)"/>
<path opacity="0.3" fill-rule="evenodd" clip-rule="evenodd" d="M5.1 2L4.63497 5L4 2H5.1ZM6.2001 2.00001L5.73507 4.00001L5.1001 2.00001H6.2001Z" fill="black"/>
<path fill-rule="evenodd" clip-rule="evenodd" d="M5 2L4.57724 5L4 2H5ZM5 2L5.57724 4L6 2H5Z" fill="url(#paint24_linear_11110_38341)"/>
<path fill-rule="evenodd" clip-rule="evenodd" d="M18 6L17.5772 8.8L17 6H18ZM18 6L18.5772 7.4L19 6H18Z" fill="black" fill-opacity="0.08"/>
<path fill-rule="evenodd" clip-rule="evenodd" d="M18 6L17.5772 8L17 6H18ZM18 6L18.5772 7L19 6H18Z" fill="url(#paint25_linear_11110_38341)"/>
</g>
<path fill-rule="evenodd" clip-rule="evenodd" d="M49.8314 14.9236L50.5864 14.7225C50.6276 14.7115 50.6705 14.7087 50.7128 14.7143C50.7551 14.7198 50.7958 14.7335 50.8328 14.7547C50.8697 14.7758 50.902 14.804 50.928 14.8376C50.9539 14.8712 50.973 14.9095 50.984 14.9504C50.9951 14.9913 50.9979 15.034 50.9923 15.076C50.9868 15.1179 50.9729 15.1584 50.9516 15.1951C50.9303 15.2318 50.9019 15.2639 50.8681 15.2897C50.8343 15.3155 50.7957 15.3344 50.7545 15.3453L50.1825 15.4975L50.3357 16.0656C50.3467 16.1065 50.3496 16.149 50.344 16.1909C50.3385 16.2328 50.3247 16.2732 50.3034 16.3098C50.2821 16.3464 50.2538 16.3785 50.2201 16.4042C50.1863 16.4299 50.1478 16.4488 50.1067 16.4597C50.0656 16.4707 50.0228 16.4735 49.9806 16.468C49.9384 16.4625 49.8977 16.4488 49.8609 16.4276C49.8241 16.4065 49.7918 16.3784 49.7659 16.3449C49.74 16.3114 49.721 16.2731 49.7099 16.2323L49.5075 15.4821L48.8982 15.1327L49.0514 15.7008C49.0737 15.7832 49.0621 15.8711 49.0191 15.945C48.9762 16.0189 48.9054 16.0728 48.8224 16.0949C48.7395 16.117 48.651 16.1055 48.5766 16.0628C48.5022 16.0202 48.4479 15.9499 48.4256 15.8675L48.1047 14.6771L47.0235 14.0572V15.2971L47.9003 16.1679C47.9593 16.2286 47.9919 16.3099 47.9912 16.3942C47.9904 16.4786 47.9564 16.5593 47.8963 16.6189C47.8363 16.6786 47.755 16.7124 47.6701 16.7131C47.5852 16.7139 47.5034 16.6814 47.4423 16.6228L47.0235 16.2069V16.9056L47.5764 17.4548C47.6354 17.5155 47.668 17.5967 47.6673 17.6811C47.6665 17.7654 47.6325 17.8461 47.5724 17.9058C47.5124 17.9654 47.4311 17.9993 47.3462 18C47.2613 18.0007 47.1795 17.9683 47.1184 17.9097L46.6996 17.4937L46.2807 17.9097C46.2197 17.9683 46.1378 18.0007 46.0529 18C45.968 17.9993 45.8867 17.9654 45.8267 17.9058C45.7666 17.8461 45.7326 17.7654 45.7318 17.6811C45.7311 17.5967 45.7637 17.5155 45.8227 17.4548L46.3756 16.9056V16.2069L45.9568 16.6228C45.8957 16.6814 45.8139 16.7139 45.729 16.7131C45.6441 16.7124 45.5628 16.6786 45.5028 16.6189C45.4427 16.5593 45.4087 16.4786 45.4079 16.3942C45.4072 16.3099 45.4398 16.2286 45.4988 16.1679L46.3756 15.2971V14.0572L45.2948 14.6765L44.9738 15.8668C44.9628 15.9076 44.9438 15.9459 44.9179 15.9794C44.892 16.0129 44.8597 16.0411 44.8228 16.0622C44.786 16.0833 44.7453 16.097 44.7031 16.1025C44.6609 16.108 44.6181 16.1052 44.577 16.0943C44.5359 16.0833 44.4974 16.0645 44.4636 16.0387C44.4299 16.013 44.4016 15.9809 44.3803 15.9443C44.3591 15.9077 44.3453 15.8673 44.3397 15.8255C44.3342 15.7836 44.337 15.741 44.348 15.7002L44.5015 15.132L43.8923 15.4814L43.6898 16.2316C43.6788 16.2725 43.6598 16.3107 43.6339 16.3442C43.608 16.3777 43.5757 16.4059 43.5389 16.427C43.502 16.4481 43.4613 16.4618 43.4192 16.4673C43.377 16.4728 43.3341 16.47 43.293 16.4591C43.2519 16.4482 43.2134 16.4293 43.1797 16.4036C43.1459 16.3778 43.1176 16.3457 43.0964 16.3092C43.0751 16.2726 43.0613 16.2322 43.0557 16.1903C43.0502 16.1484 43.053 16.1058 43.064 16.065L43.2169 15.4962L42.6449 15.344C42.5619 15.3219 42.4912 15.268 42.4482 15.1941C42.4053 15.1202 42.3936 15.0324 42.4159 14.95C42.4381 14.8675 42.4925 14.7973 42.5669 14.7546C42.6413 14.712 42.7297 14.7004 42.8127 14.7225L43.568 14.9242L44.1763 14.5748L43.6043 14.4227C43.5632 14.4117 43.5247 14.3929 43.491 14.3671C43.4572 14.3414 43.4289 14.3093 43.4076 14.2727C43.3864 14.2361 43.3726 14.1957 43.367 14.1538C43.3615 14.1119 43.3643 14.0694 43.3753 14.0286C43.3863 13.9878 43.4053 13.9495 43.4312 13.916C43.4571 13.8825 43.4894 13.8543 43.5263 13.8332C43.5631 13.8121 43.6038 13.7984 43.646 13.7929C43.6881 13.7874 43.731 13.7902 43.7721 13.8011L44.9705 14.1199L46.0517 13.5L44.9712 12.8807L43.7727 13.1995C43.7317 13.2105 43.6888 13.2133 43.6466 13.2078C43.6044 13.2022 43.5638 13.1885 43.5269 13.1674C43.4901 13.1463 43.4578 13.1182 43.4319 13.0847C43.406 13.0511 43.387 13.0129 43.376 12.9721C43.3649 12.9313 43.3621 12.8887 43.3677 12.8468C43.3732 12.8049 43.387 12.7645 43.4083 12.7279C43.4295 12.6913 43.4579 12.6592 43.4916 12.6335C43.5254 12.6078 43.5639 12.5889 43.605 12.578L44.177 12.4258L43.5677 12.0764L42.8127 12.2775C42.7716 12.2884 42.7287 12.2912 42.6864 12.2856C42.6442 12.2801 42.6035 12.2664 42.5667 12.2452C42.5298 12.224 42.4975 12.1959 42.4716 12.1623C42.4457 12.1287 42.4267 12.0904 42.4157 12.0496C42.4047 12.0087 42.402 11.9661 42.4075 11.9242C42.4131 11.8823 42.427 11.8418 42.4483 11.8052C42.4696 11.7686 42.4979 11.7365 42.5317 11.7108C42.5655 11.6851 42.6041 11.6662 42.6452 11.6553L43.2172 11.5031L43.064 10.935C43.053 10.8942 43.0502 10.8516 43.0557 10.8097C43.0613 10.7678 43.0751 10.7274 43.0964 10.6908C43.1176 10.6542 43.1459 10.6222 43.1797 10.5964C43.2134 10.5707 43.2519 10.5518 43.293 10.5409C43.3341 10.53 43.377 10.5272 43.4192 10.5327C43.4613 10.5382 43.502 10.5519 43.5389 10.573C43.5757 10.5941 43.608 10.6222 43.6339 10.6558C43.6598 10.6893 43.6788 10.7275 43.6898 10.7684L43.8919 11.5186L44.5009 11.8673L44.3477 11.2992C44.3254 11.2168 44.3371 11.1289 44.38 11.055C44.4229 10.9811 44.4937 10.9272 44.5767 10.9051C44.6597 10.883 44.7481 10.8945 44.8225 10.9372C44.8969 10.9798 44.9512 11.0501 44.9735 11.1325L45.2945 12.3229L46.3756 12.9428V11.7029L45.4988 10.8321C45.4398 10.7714 45.4072 10.6901 45.4079 10.6058C45.4087 10.5214 45.4427 10.4407 45.5028 10.3811C45.5628 10.3214 45.6441 10.2876 45.729 10.2869C45.8139 10.2861 45.8957 10.3185 45.9568 10.3772L46.3756 10.7931V10.0944L45.8227 9.54521C45.7637 9.48453 45.7311 9.40327 45.7318 9.31892C45.7326 9.23456 45.7666 9.15387 45.8267 9.09423C45.8867 9.03458 45.968 9.00075 46.0529 9.00001C46.1378 8.99928 46.2197 9.03171 46.2807 9.09031L46.6996 9.50628L47.1184 9.09031C47.1795 9.03171 47.2613 8.99928 47.3462 9.00001C47.4311 9.00075 47.5124 9.03458 47.5724 9.09423C47.6325 9.15387 47.6665 9.23456 47.6673 9.31892C47.668 9.40327 47.6354 9.48453 47.5764 9.54521L47.0235 10.0944V10.7931L47.4423 10.3772C47.5034 10.3185 47.5852 10.2861 47.6701 10.2869C47.755 10.2876 47.8363 10.3214 47.8963 10.3811C47.9564 10.4407 47.9904 10.5214 47.9912 10.6058C47.9919 10.6901 47.9593 10.7714 47.9003 10.8321L47.0235 11.7029V12.9428L48.1043 12.3235L48.4253 11.1332C48.4476 11.0508 48.5019 10.9805 48.5763 10.9378C48.6507 10.8952 48.7391 10.8836 48.8221 10.9057C48.9051 10.9278 48.9758 10.9818 49.0188 11.0557C49.0617 11.1296 49.0734 11.2174 49.0511 11.2998L48.8979 11.868L49.5072 11.5186L49.7096 10.769C49.7206 10.7282 49.7396 10.6899 49.7655 10.6564C49.7914 10.6229 49.8237 10.5948 49.8606 10.5737C49.8974 10.5525 49.9381 10.5388 49.9803 10.5333C50.0225 10.5278 50.0653 10.5306 50.1064 10.5415C50.1475 10.5525 50.186 10.5714 50.2198 10.5971C50.2535 10.6228 50.2818 10.6549 50.3031 10.6915C50.3243 10.7281 50.3381 10.7685 50.3437 10.8104C50.3492 10.8523 50.3464 10.8948 50.3354 10.9356L50.1822 11.5038L50.7542 11.656C50.7953 11.6669 50.8338 11.6858 50.8676 11.7115C50.9013 11.7372 50.9296 11.7693 50.9509 11.8059C50.9722 11.8425 50.986 11.8829 50.9915 11.9248C50.997 11.9667 50.9942 12.0092 50.9832 12.05C50.9722 12.0909 50.9532 12.1291 50.9273 12.1626C50.9014 12.1962 50.8691 12.2243 50.8322 12.2454C50.7954 12.2665 50.7547 12.2802 50.7126 12.2857C50.6704 12.2912 50.6275 12.2884 50.5864 12.2775L49.832 12.0758L49.2228 12.4252L49.7948 12.5773C49.8778 12.5994 49.9485 12.6534 49.9915 12.7273C50.0344 12.8012 50.0461 12.889 50.0238 12.9714C50.0016 13.0539 49.9472 13.1241 49.8728 13.1668C49.7984 13.2094 49.71 13.221 49.627 13.1989L48.4286 12.8801L47.3474 13.5L48.4279 14.1193L49.6264 13.8005C49.6675 13.7895 49.7103 13.7867 49.7525 13.7922C49.7947 13.7978 49.8353 13.8115 49.8722 13.8326C49.909 13.8537 49.9413 13.8818 49.9672 13.9153C49.9931 13.9489 50.0121 13.9871 50.0232 14.0279C50.0342 14.0687 50.037 14.1113 50.0314 14.1532C50.0259 14.1951 50.0121 14.2355 49.9908 14.2721C49.9696 14.3087 49.9413 14.3408 49.9075 14.3665C49.8738 14.3922 49.8352 14.4111 49.7942 14.422L49.2221 14.5742L49.8314 14.9236ZM45.0804 9.96119C45.2593 9.96119 45.4043 9.81716 45.4043 9.63948C45.4043 9.4618 45.2593 9.31777 45.0804 9.31777C44.9015 9.31777 44.7565 9.4618 44.7565 9.63948C44.7565 9.81716 44.9015 9.96119 45.0804 9.96119ZM48.3197 9.96119C48.4985 9.96119 48.6436 9.81716 48.6436 9.63948C48.6436 9.4618 48.4985 9.31777 48.3197 9.31777C48.1408 9.31777 47.9958 9.4618 47.9958 9.63948C47.9958 9.81716 48.1408 9.96119 48.3197 9.96119ZM42.6861 12.684C42.841 12.7728 42.8941 12.9696 42.8047 13.1234C42.7152 13.2773 42.5171 13.33 42.3622 13.2412C42.2073 13.1524 42.1542 12.9556 42.2436 12.8017C42.3331 12.6479 42.5312 12.5951 42.6861 12.684ZM44.4248 10.3374C44.5142 10.1835 44.4611 9.98674 44.3062 9.89791C44.1513 9.80907 43.9532 9.86179 43.8638 10.0157C43.7743 10.1695 43.8274 10.3663 43.9823 10.4551C44.1372 10.544 44.3353 10.4912 44.4248 10.3374ZM44.4243 16.6623C44.5137 16.8161 44.4607 17.0129 44.3057 17.1017C44.1508 17.1906 43.9527 17.1378 43.8633 16.984C43.7738 16.8301 43.8269 16.6333 43.9818 16.5445C44.1368 16.4557 44.3349 16.5084 44.4243 16.6623ZM42.6861 14.3158C42.841 14.2269 42.8941 14.0302 42.8047 13.8763C42.7152 13.7224 42.5171 13.6697 42.3622 13.7585C42.2073 13.8474 42.1542 14.0441 42.2436 14.198C42.3331 14.3519 42.5312 14.4046 42.6861 14.3158ZM48.6436 17.3605C48.6436 17.5382 48.4985 17.6823 48.3197 17.6823C48.1408 17.6823 47.9958 17.5382 47.9958 17.3605C47.9958 17.1829 48.1408 17.0388 48.3197 17.0388C48.4985 17.0388 48.6436 17.1829 48.6436 17.3605ZM45.0804 17.6823C45.2593 17.6823 45.4043 17.5382 45.4043 17.3605C45.4043 17.1829 45.2593 17.0388 45.0804 17.0388C44.9015 17.0388 44.7565 17.1829 44.7565 17.3605C44.7565 17.5382 44.9015 17.6823 45.0804 17.6823ZM51.1567 14.1981C51.2462 14.0442 51.1931 13.8474 51.0382 13.7586C50.8832 13.6698 50.6851 13.7225 50.5957 13.8764C50.5063 14.0302 50.5593 14.227 50.7143 14.3158C50.8692 14.4047 51.0673 14.3519 51.1567 14.1981ZM49.4185 16.5447C49.5735 16.6335 49.6265 16.8303 49.5371 16.9841C49.4476 17.138 49.2495 17.1907 49.0946 17.1019C48.9397 17.0131 48.8866 16.8163 48.9761 16.6624C49.0655 16.5086 49.2636 16.4558 49.4185 16.5447ZM49.418 10.4555C49.573 10.3666 49.626 10.1699 49.5366 10.016C49.4472 9.86213 49.2491 9.8094 49.0941 9.89824C48.9392 9.98708 48.8861 10.1838 48.9756 10.3377C49.065 10.4916 49.2631 10.5443 49.418 10.4555ZM51.1562 12.8019C51.2457 12.9558 51.1926 13.1526 51.0377 13.2414C50.8827 13.3303 50.6847 13.2775 50.5952 13.1237C50.5058 12.9698 50.5588 12.773 50.7138 12.6842C50.8687 12.5954 51.0668 12.6481 51.1562 12.8019Z" fill="url(#paint26_linear_11110_38341)"/>
<path fill-rule="evenodd" clip-rule="evenodd" d="M96.2313 14.9236L96.9863 14.7225C97.0275 14.7115 97.0704 14.7087 97.1127 14.7143C97.155 14.7198 97.1957 14.7335 97.2327 14.7547C97.2696 14.7758 97.3019 14.804 97.3279 14.8376C97.3538 14.8712 97.3729 14.9095 97.3839 14.9504C97.395 14.9913 97.3978 15.034 97.3922 15.076C97.3867 15.1179 97.3728 15.1584 97.3515 15.1951C97.3302 15.2318 97.3018 15.2639 97.268 15.2897C97.2342 15.3155 97.1956 15.3344 97.1544 15.3453L96.5824 15.4975L96.7356 16.0656C96.7466 16.1065 96.7495 16.149 96.7439 16.1909C96.7384 16.2328 96.7246 16.2732 96.7033 16.3098C96.682 16.3464 96.6537 16.3785 96.62 16.4042C96.5862 16.4299 96.5477 16.4488 96.5066 16.4597C96.4655 16.4707 96.4227 16.4735 96.3805 16.468C96.3383 16.4625 96.2976 16.4488 96.2608 16.4276C96.224 16.4065 96.1917 16.3784 96.1658 16.3449C96.1399 16.3114 96.1209 16.2731 96.1098 16.2323L95.9074 15.4821L95.2981 15.1327L95.4513 15.7008C95.4736 15.7832 95.462 15.8711 95.419 15.945C95.3761 16.0189 95.3053 16.0728 95.2223 16.0949C95.1394 16.117 95.0509 16.1055 94.9765 16.0628C94.9021 16.0202 94.8478 15.9499 94.8256 15.8675L94.5046 14.6771L93.4234 14.0572V15.2971L94.3002 16.1679C94.3592 16.2286 94.3918 16.3099 94.3911 16.3942C94.3904 16.4786 94.3563 16.5593 94.2962 16.6189C94.2362 16.6786 94.1549 16.7124 94.07 16.7131C93.9851 16.7139 93.9033 16.6814 93.8422 16.6228L93.4234 16.2069V16.9056L93.9763 17.4548C94.0353 17.5155 94.0679 17.5967 94.0672 17.6811C94.0664 17.7654 94.0324 17.8461 93.9723 17.9058C93.9123 17.9654 93.831 17.9993 93.7461 18C93.6612 18.0007 93.5794 17.9683 93.5183 17.9097L93.0995 17.4937L92.6806 17.9097C92.6196 17.9683 92.5377 18.0007 92.4528 18C92.3679 17.9993 92.2866 17.9654 92.2266 17.9058C92.1665 17.8461 92.1325 17.7654 92.1317 17.6811C92.131 17.5967 92.1636 17.5155 92.2226 17.4548L92.7756 16.9056V16.2069L92.3567 16.6228C92.2957 16.6814 92.2138 16.7139 92.1289 16.7131C92.044 16.7124 91.9627 16.6786 91.9027 16.6189C91.8426 16.5593 91.8086 16.4786 91.8078 16.3942C91.8071 16.3099 91.8397 16.2286 91.8987 16.1679L92.7756 15.2971V14.0572L91.6947 14.6765L91.3737 15.8668C91.3627 15.9076 91.3437 15.9459 91.3178 15.9794C91.2919 16.0129 91.2596 16.0411 91.2227 16.0622C91.1859 16.0833 91.1452 16.097 91.103 16.1025C91.0608 16.108 91.018 16.1052 90.9769 16.0943C90.9358 16.0833 90.8973 16.0645 90.8635 16.0387C90.8298 16.013 90.8015 15.9809 90.7802 15.9443C90.759 15.9077 90.7452 15.8673 90.7396 15.8255C90.7341 15.7836 90.7369 15.741 90.7479 15.7002L90.9014 15.132L90.2922 15.4814L90.0897 16.2316C90.0787 16.2725 90.0597 16.3107 90.0338 16.3442C90.0079 16.3777 89.9756 16.4059 89.9388 16.427C89.9019 16.4481 89.8612 16.4618 89.8191 16.4673C89.7769 16.4728 89.734 16.47 89.6929 16.4591C89.6518 16.4482 89.6133 16.4293 89.5796 16.4036C89.5458 16.3778 89.5175 16.3457 89.4963 16.3092C89.475 16.2726 89.4612 16.2322 89.4557 16.1903C89.4501 16.1484 89.4529 16.1058 89.4639 16.065L89.6168 15.4962L89.0448 15.344C88.9618 15.3219 88.8911 15.268 88.8481 15.1941C88.8052 15.1202 88.7936 15.0324 88.8158 14.95C88.8381 14.8675 88.8924 14.7973 88.9668 14.7546C89.0412 14.712 89.1296 14.7004 89.2126 14.7225L89.9679 14.9242L90.5762 14.5748L90.0042 14.4227C89.9631 14.4117 89.9246 14.3929 89.8909 14.3671C89.8571 14.3414 89.8288 14.3093 89.8075 14.2727C89.7863 14.2361 89.7725 14.1957 89.7669 14.1538C89.7614 14.1119 89.7642 14.0694 89.7752 14.0286C89.7862 13.9878 89.8052 13.9495 89.8311 13.916C89.857 13.8825 89.8893 13.8543 89.9262 13.8332C89.963 13.8121 90.0037 13.7984 90.0459 13.7929C90.088 13.7874 90.1309 13.7902 90.172 13.8011L91.3704 14.1199L92.4516 13.5L91.3711 12.8807L90.1726 13.1995C90.1316 13.2105 90.0887 13.2133 90.0465 13.2078C90.0043 13.2022 89.9637 13.1885 89.9268 13.1674C89.89 13.1463 89.8577 13.1182 89.8318 13.0847C89.8059 13.0511 89.7869 13.0129 89.7759 12.9721C89.7648 12.9313 89.762 12.8887 89.7676 12.8468C89.7731 12.8049 89.7869 12.7645 89.8082 12.7279C89.8294 12.6913 89.8578 12.6592 89.8915 12.6335C89.9253 12.6078 89.9638 12.5889 90.0049 12.578L90.5769 12.4258L89.9676 12.0764L89.2126 12.2775C89.1715 12.2884 89.1286 12.2912 89.0863 12.2856C89.0441 12.2801 89.0034 12.2664 88.9666 12.2452C88.9297 12.224 88.8974 12.1959 88.8715 12.1623C88.8456 12.1287 88.8266 12.0904 88.8156 12.0496C88.8046 12.0087 88.8019 11.9661 88.8074 11.9242C88.813 11.8823 88.8269 11.8418 88.8482 11.8052C88.8695 11.7686 88.8978 11.7365 88.9316 11.7108C88.9654 11.6851 89.004 11.6662 89.0451 11.6553L89.6171 11.5031L89.4639 10.935C89.4529 10.8942 89.4501 10.8516 89.4557 10.8097C89.4612 10.7678 89.475 10.7274 89.4963 10.6908C89.5175 10.6542 89.5458 10.6222 89.5796 10.5964C89.6133 10.5707 89.6518 10.5518 89.6929 10.5409C89.734 10.53 89.7769 10.5272 89.8191 10.5327C89.8612 10.5382 89.9019 10.5519 89.9388 10.573C89.9756 10.5941 90.0079 10.6222 90.0338 10.6558C90.0597 10.6893 90.0787 10.7275 90.0897 10.7684L90.2918 11.5186L90.9008 11.8673L90.7476 11.2992C90.7253 11.2168 90.737 11.1289 90.7799 11.055C90.8228 10.9811 90.8936 10.9272 90.9766 10.9051C91.0596 10.883 91.148 10.8945 91.2224 10.9372C91.2968 10.9798 91.3511 11.0501 91.3734 11.1325L91.6944 12.3229L92.7756 12.9428V11.7029L91.8987 10.8321C91.8397 10.7714 91.8071 10.6901 91.8078 10.6058C91.8086 10.5214 91.8426 10.4407 91.9027 10.3811C91.9627 10.3214 92.044 10.2876 92.1289 10.2869C92.2138 10.2861 92.2957 10.3185 92.3567 10.3772L92.7756 10.7931V10.0944L92.2226 9.54521C92.1636 9.48453 92.131 9.40327 92.1317 9.31892C92.1325 9.23456 92.1665 9.15387 92.2266 9.09423C92.2866 9.03458 92.3679 9.00075 92.4528 9.00001C92.5377 8.99928 92.6196 9.03171 92.6806 9.09031L93.0995 9.50628L93.5183 9.09031C93.5794 9.03171 93.6612 8.99928 93.7461 9.00001C93.831 9.00075 93.9123 9.03458 93.9723 9.09423C94.0324 9.15387 94.0664 9.23456 94.0672 9.31892C94.0679 9.40327 94.0353 9.48453 93.9763 9.54521L93.4234 10.0944V10.7931L93.8422 10.3772C93.9033 10.3185 93.9851 10.2861 94.07 10.2869C94.1549 10.2876 94.2362 10.3214 94.2962 10.3811C94.3563 10.4407 94.3904 10.5214 94.3911 10.6058C94.3918 10.6901 94.3592 10.7714 94.3002 10.8321L93.4234 11.7029V12.9428L94.5042 12.3235L94.8252 11.1332C94.8475 11.0508 94.9018 10.9805 94.9762 10.9378C95.0506 10.8952 95.139 10.8836 95.222 10.9057C95.305 10.9278 95.3757 10.9818 95.4187 11.0557C95.4616 11.1296 95.4733 11.2174 95.451 11.2998L95.2978 11.868L95.9071 11.5186L96.1095 10.769C96.1205 10.7282 96.1395 10.6899 96.1654 10.6564C96.1913 10.6229 96.2236 10.5948 96.2605 10.5737C96.2973 10.5525 96.338 10.5388 96.3802 10.5333C96.4224 10.5278 96.4652 10.5306 96.5063 10.5415C96.5474 10.5525 96.5859 10.5714 96.6197 10.5971C96.6534 10.6228 96.6817 10.6549 96.703 10.6915C96.7242 10.7281 96.738 10.7685 96.7436 10.8104C96.7491 10.8523 96.7463 10.8948 96.7353 10.9356L96.5821 11.5038L97.1541 11.656C97.1952 11.6669 97.2337 11.6858 97.2675 11.7115C97.3012 11.7372 97.3295 11.7693 97.3508 11.8059C97.3721 11.8425 97.3859 11.8829 97.3914 11.9248C97.3969 11.9667 97.3941 12.0092 97.3831 12.05C97.3721 12.0909 97.3531 12.1291 97.3272 12.1626C97.3013 12.1962 97.269 12.2243 97.2321 12.2454C97.1953 12.2665 97.1546 12.2802 97.1125 12.2857C97.0703 12.2912 97.0274 12.2884 96.9863 12.2775L96.232 12.0758L95.6227 12.4252L96.1947 12.5773C96.2777 12.5994 96.3484 12.6534 96.3914 12.7273C96.4343 12.8012 96.446 12.889 96.4237 12.9714C96.4015 13.0539 96.3472 13.1241 96.2727 13.1668C96.1983 13.2094 96.1099 13.221 96.0269 13.1989L94.8285 12.8801L93.7473 13.5L94.8278 14.1193L96.0263 13.8005C96.0674 13.7895 96.1102 13.7867 96.1524 13.7922C96.1946 13.7978 96.2352 13.8115 96.2721 13.8326C96.3089 13.8537 96.3412 13.8818 96.3671 13.9153C96.393 13.9489 96.412 13.9871 96.4231 14.0279C96.4341 14.0687 96.4369 14.1113 96.4313 14.1532C96.4258 14.1951 96.412 14.2355 96.3907 14.2721C96.3695 14.3087 96.3412 14.3408 96.3074 14.3665C96.2737 14.3922 96.2351 14.4111 96.1941 14.422L95.622 14.5742L96.2313 14.9236ZM91.4803 9.96119C91.6592 9.96119 91.8042 9.81716 91.8042 9.63948C91.8042 9.4618 91.6592 9.31777 91.4803 9.31777C91.3014 9.31777 91.1564 9.4618 91.1564 9.63948C91.1564 9.81716 91.3014 9.96119 91.4803 9.96119ZM94.7196 9.96119C94.8985 9.96119 95.0435 9.81716 95.0435 9.63948C95.0435 9.4618 94.8985 9.31777 94.7196 9.31777C94.5407 9.31777 94.3957 9.4618 94.3957 9.63948C94.3957 9.81716 94.5407 9.96119 94.7196 9.96119ZM89.086 12.684C89.2409 12.7728 89.294 12.9696 89.2046 13.1234C89.1151 13.2773 88.917 13.33 88.7621 13.2412C88.6072 13.1524 88.5541 12.9556 88.6435 12.8017C88.733 12.6479 88.9311 12.5951 89.086 12.684ZM90.8247 10.3374C90.9141 10.1835 90.861 9.98674 90.7061 9.89791C90.5512 9.80907 90.3531 9.86179 90.2637 10.0157C90.1742 10.1695 90.2273 10.3663 90.3822 10.4551C90.5371 10.544 90.7352 10.4912 90.8247 10.3374ZM90.8242 16.6623C90.9136 16.8161 90.8606 17.0129 90.7056 17.1017C90.5507 17.1906 90.3526 17.1378 90.2632 16.984C90.1737 16.8301 90.2268 16.6333 90.3817 16.5445C90.5367 16.4557 90.7348 16.5084 90.8242 16.6623ZM89.086 14.3158C89.2409 14.2269 89.294 14.0302 89.2046 13.8763C89.1151 13.7224 88.917 13.6697 88.7621 13.7585C88.6072 13.8474 88.5541 14.0441 88.6435 14.198C88.733 14.3519 88.9311 14.4046 89.086 14.3158ZM95.0435 17.3605C95.0435 17.5382 94.8985 17.6823 94.7196 17.6823C94.5407 17.6823 94.3957 17.5382 94.3957 17.3605C94.3957 17.1829 94.5407 17.0388 94.7196 17.0388C94.8985 17.0388 95.0435 17.1829 95.0435 17.3605ZM91.4803 17.6823C91.6592 17.6823 91.8042 17.5382 91.8042 17.3605C91.8042 17.1829 91.6592 17.0388 91.4803 17.0388C91.3014 17.0388 91.1564 17.1829 91.1564 17.3605C91.1564 17.5382 91.3014 17.6823 91.4803 17.6823ZM97.5566 14.1981C97.6461 14.0442 97.593 13.8474 97.4381 13.7586C97.2831 13.6698 97.085 13.7225 96.9956 13.8764C96.9062 14.0302 96.9592 14.227 97.1142 14.3158C97.2691 14.4047 97.4672 14.3519 97.5566 14.1981ZM95.8184 16.5447C95.9734 16.6335 96.0264 16.8303 95.937 16.9841C95.8475 17.138 95.6494 17.1907 95.4945 17.1019C95.3396 17.0131 95.2865 16.8163 95.376 16.6624C95.4654 16.5086 95.6635 16.4558 95.8184 16.5447ZM95.8179 10.4555C95.9729 10.3666 96.0259 10.1699 95.9365 10.016C95.8471 9.86213 95.649 9.8094 95.494 9.89824C95.3391 9.98708 95.286 10.1838 95.3755 10.3377C95.4649 10.4916 95.663 10.5443 95.8179 10.4555ZM97.5561 12.8019C97.6456 12.9558 97.5925 13.1526 97.4376 13.2414C97.2827 13.3303 97.0846 13.2775 96.9951 13.1237C96.9057 12.9698 96.9587 12.773 97.1137 12.6842C97.2686 12.5954 97.4667 12.6481 97.5561 12.8019Z" fill="url(#paint27_linear_11110_38341)"/>
</g>
<defs>
<linearGradient id="paint0_linear_11110_38341" x1="9.74489" y1="2" x2="9.74489" y2="22" gradientUnits="userSpaceOnUse">
<stop stop-color="#36B6FE"/>
<stop offset="1" stop-color="#3184D0"/>
</linearGradient>
<linearGradient id="paint1_linear_11110_38341" x1="70.6879" y1="6.18103" x2="70.6879" y2="17.8189" gradientUnits="userSpaceOnUse">
<stop stop-color="#35B2FA"/>
<stop offset="1" stop-color="#3189D4"/>
</linearGradient>
<linearGradient id="paint2_linear_11110_38341" x1="70.6879" y1="6.18103" x2="70.6879" y2="17.8189" gradientUnits="userSpaceOnUse">
<stop stop-color="#35B2FA"/>
<stop offset="1" stop-color="#3189D4"/>
</linearGradient>
<linearGradient id="paint3_linear_11110_38341" x1="70.6879" y1="6.18103" x2="70.6879" y2="17.8189" gradientUnits="userSpaceOnUse">
<stop stop-color="#35B2FA"/>
<stop offset="1" stop-color="#3189D4"/>
</linearGradient>
<linearGradient id="paint4_linear_11110_38341" x1="70.6879" y1="6.18103" x2="70.6879" y2="17.8189" gradientUnits="userSpaceOnUse">
<stop stop-color="#35B2FA"/>
<stop offset="1" stop-color="#3189D4"/>
</linearGradient>
<linearGradient id="paint5_linear_11110_38341" x1="70.6879" y1="6.18103" x2="70.6879" y2="17.8189" gradientUnits="userSpaceOnUse">
<stop stop-color="#35B2FA"/>
<stop offset="1" stop-color="#3189D4"/>
</linearGradient>
<linearGradient id="paint6_linear_11110_38341" x1="70.6879" y1="6.18103" x2="70.6879" y2="17.8189" gradientUnits="userSpaceOnUse">
<stop stop-color="#35B2FA"/>
<stop offset="1" stop-color="#3189D4"/>
</linearGradient>
<linearGradient id="paint7_linear_11110_38341" x1="70.6879" y1="6.18103" x2="70.6879" y2="17.8189" gradientUnits="userSpaceOnUse">
<stop stop-color="#35B2FA"/>
<stop offset="1" stop-color="#3189D4"/>
</linearGradient>
<linearGradient id="paint8_linear_11110_38341" x1="70.6879" y1="6.18103" x2="70.6879" y2="17.8189" gradientUnits="userSpaceOnUse">
<stop stop-color="#35B2FA"/>
<stop offset="1" stop-color="#3189D4"/>
</linearGradient>
<linearGradient id="paint9_linear_11110_38341" x1="9.75" y1="18.9729" x2="9.75" y2="22.1729" gradientUnits="userSpaceOnUse">
<stop stop-color="white"/>
<stop offset="1" stop-color="#C2D1D8"/>
</linearGradient>
<linearGradient id="paint10_linear_11110_38341" x1="2.5" y1="15" x2="2.5" y2="16" gradientUnits="userSpaceOnUse">
<stop stop-color="#D9D9D9"/>
<stop offset="1" stop-color="white"/>
</linearGradient>
<linearGradient id="paint11_linear_11110_38341" x1="4.5" y1="12" x2="4.5" y2="13" gradientUnits="userSpaceOnUse">
<stop stop-color="#D9D9D9"/>
<stop offset="1" stop-color="white"/>
</linearGradient>
<linearGradient id="paint12_linear_11110_38341" x1="14" y1="0.5" x2="12" y2="14" gradientUnits="userSpaceOnUse">
<stop stop-color="#D9D9D9"/>
<stop offset="1" stop-color="#D7F3FF"/>
</linearGradient>
<linearGradient id="paint13_linear_11110_38341" x1="2.25" y1="12" x2="2.25" y2="12.5" gradientUnits="userSpaceOnUse">
<stop stop-color="#D9D9D9"/>
<stop offset="1" stop-color="white"/>
</linearGradient>
<linearGradient id="paint14_linear_11110_38341" x1="1.25" y1="13" x2="1.25" y2="13.5" gradientUnits="userSpaceOnUse">
<stop stop-color="#D9D9D9"/>
<stop offset="1" stop-color="white"/>
</linearGradient>
<linearGradient id="paint15_linear_11110_38341" x1="6.25" y1="4" x2="6.25" y2="4.5" gradientUnits="userSpaceOnUse">
<stop stop-color="#D9D9D9"/>
<stop offset="1" stop-color="white"/>
</linearGradient>
<linearGradient id="paint16_linear_11110_38341" x1="14.25" y1="4" x2="14.25" y2="4.5" gradientUnits="userSpaceOnUse">
<stop stop-color="#D9D9D9"/>
<stop offset="1" stop-color="white"/>
</linearGradient>
<linearGradient id="paint17_linear_11110_38341" x1="16.25" y1="11" x2="16.25" y2="11.5" gradientUnits="userSpaceOnUse">
<stop stop-color="#D9D9D9"/>
<stop offset="1" stop-color="white"/>
</linearGradient>
<linearGradient id="paint18_linear_11110_38341" x1="18.25" y1="14" x2="18.25" y2="14.5" gradientUnits="userSpaceOnUse">
<stop stop-color="#D9D9D9"/>
<stop offset="1" stop-color="white"/>
</linearGradient>
<linearGradient id="paint19_linear_11110_38341" x1="17.25" y1="15" x2="17.25" y2="15.5" gradientUnits="userSpaceOnUse">
<stop stop-color="#D9D9D9"/>
<stop offset="1" stop-color="white"/>
</linearGradient>
<linearGradient id="paint20_linear_11110_38341" x1="18.25" y1="17" x2="18.25" y2="17.5" gradientUnits="userSpaceOnUse">
<stop stop-color="#D9D9D9"/>
<stop offset="1" stop-color="white"/>
</linearGradient>
<linearGradient id="paint21_linear_11110_38341" x1="17.5" y1="9" x2="17.5" y2="10" gradientUnits="userSpaceOnUse">
<stop stop-color="#D9D9D9"/>
<stop offset="1" stop-color="white"/>
</linearGradient>
<linearGradient id="paint22_linear_11110_38341" x1="13.5" y1="3" x2="13.5" y2="4" gradientUnits="userSpaceOnUse">
<stop stop-color="#D9D9D9"/>
<stop offset="1" stop-color="white"/>
</linearGradient>
<linearGradient id="paint23_linear_11110_38341" x1="1.5" y1="8" x2="1.5" y2="9" gradientUnits="userSpaceOnUse">
<stop stop-color="#D9D9D9"/>
<stop offset="1" stop-color="white"/>
</linearGradient>
<linearGradient id="paint24_linear_11110_38341" x1="4.57735" y1="5" x2="4.57735" y2="0.5" gradientUnits="userSpaceOnUse">
<stop stop-color="#D9D9D9"/>
<stop offset="1" stop-color="#FBFEFF"/>
</linearGradient>
<linearGradient id="paint25_linear_11110_38341" x1="18.5774" y1="7" x2="18.5774" y2="5.5" gradientUnits="userSpaceOnUse">
<stop stop-color="#D9D9D9"/>
<stop offset="1" stop-color="#FBFEFF"/>
</linearGradient>
<linearGradient id="paint26_linear_11110_38341" x1="46.7002" y1="9" x2="46.7002" y2="18" gradientUnits="userSpaceOnUse">
<stop stop-color="#34A8F1"/>
<stop offset="1" stop-color="#3186D2"/>
</linearGradient>
<linearGradient id="paint27_linear_11110_38341" x1="93.1001" y1="9" x2="93.1001" y2="18" gradientUnits="userSpaceOnUse">
<stop stop-color="#34A8F1"/>
<stop offset="1" stop-color="#3186D2"/>
</linearGradient>
<clipPath id="clip0_11110_38341">
<rect width="113" height="24" fill="white"/>
</clipPath>
<clipPath id="clip1_11110_38341">
<rect width="113" height="24" fill="white"/>
</clipPath>
</defs>
</svg>
