<svg xmlns="http://www.w3.org/2000/svg" fill="none" viewBox="0 0 113 24">
  <g clip-path="url(#xmas_capy_dark_svg__a)">
    <g clip-path="url(#xmas_capy_dark_svg__b)">
      <path fill="#AE5F25" d="M6.874 5.875c.491.54.826.909.76 1.631L5.508 9.184c-.607-2.224-.33-3.532.048-3.91.264-.263.826.061 1.317.6Z"/>
      <path stroke="#562E11" stroke-linecap="round" stroke-linejoin="round" stroke-miterlimit="10" stroke-width=".484" d="M7.423 6.652C6.26 4.908 5.405 5.123 5.243 5.566c-.274.75-.145 1.958.387 3.605"/>
      <path fill="#ED974F" d="M17.22 5.875c-.491.54-.826.909-.76 1.631l2.124 1.678c.608-2.224.332-3.532-.047-3.91-.265-.263-.826.061-1.317.6Z"/>
      <path fill="#FFC794" d="M18.38 5.19a.556.556 0 0 0-.302.036c.108.53.3 1.834.073 3.616l.434.343c.592-2.169.343-3.466-.02-3.88l-.185-.115Z"/>
      <path stroke="#562E11" stroke-linecap="round" stroke-linejoin="round" stroke-miterlimit="10" stroke-width=".484" d="M16.648 6.652c1.163-1.744 2.018-1.529 2.18-1.086.275.75.146 1.958-.387 3.605"/>
      <path fill="#ED974F" d="M11.901 32.64Zm.123-27.732c-6.121 0-7.233 5.457-7.023 8.186-4.766 5.27-5.377 8.622-5.377 11.044l.678.969 1.017.63 1.647.387.484.34.42 1.86 5.634 3.258a5.039 5.039 0 0 0 5.042 0l6.853-3.962.215-1.4 2.132-.629.678-1.453c.145-2.955-.61-5.774-5.376-11.044.21-2.729-.901-8.186-7.024-8.186Z"/>
      <path fill="#D47936" d="M13.672 16.63C9.442 15.123 23.84 3.07 9.216 5.38 6.43 6.431 5.347 9.043 5.063 11.222c-.038.29-.062.571-.074.841-.016.371-.01.72.014 1.031-.145.16-.287.318-.424.475-1.173 1.34-2.079 2.566-2.78 3.682-1.866 2.995-2.173 5.174-2.173 6.887l.678.969 1.017.63 1.647.388-.048.338.13 1.386 6.455 3.732a5.03 5.03 0 0 0 2.4.671c1.04-6.712-1.255-13.675 1.767-15.622Z"/>
      <path fill="#FFC794" d="M14.04 5.193c1.036 1.798 3.84 2.573 5.105 7.901 0 0 2.954 3.972 3.729 5.28l-1.865-2.64-1.864-2.64C19 7.712 16.75 5.674 14.18 5.11l-.14.084Z"/>
      <path fill="#C26B2A" d="M8.183 10.86c.676-1.546 2.413-1.573 3.866-1.643 1.453.07 3.19.027 3.866 1.642.588 1.408-.391 4.409-1.167 5.16-.904.875-2.023.702-2.7.702-.675 0-1.794.173-2.698-.702-.775-.751-1.777-3.765-1.167-5.16Z"/>
      <path stroke="#562E11" stroke-linecap="round" stroke-linejoin="round" stroke-miterlimit="10" stroke-width=".484" d="M8.9 13.084s-1.089.785-2.245.162M8.978 13.85s-.538.891-1.727.699M15.398 13.084s1.088.785 2.244.162M15.318 13.85s.538.891 1.727.699M13.938 14.953c-.922.567-1.817.673-1.817-.731v-.304"/>
      <path stroke="#562E11" stroke-linecap="round" stroke-linejoin="round" stroke-miterlimit="10" stroke-width=".484" d="M10.182 14.976c1.115.575 1.94.65 1.94-.754v-.885"/>
      <ellipse cx="10.031" cy="12.4" fill="#562E11" rx=".484" ry=".775" transform="rotate(-60 10.03 12.4)"/>
      <ellipse cx=".484" cy=".775" fill="#562E11" rx=".484" ry=".775" transform="scale(-1 1) rotate(-60 3.212 19.301)"/>
      <path fill="#562E11" d="m21.186 28.187.135.742.239-.044.238-.043-.165-.912-.447.257Zm-18.747.655.239.043.238.044.116-.637-.445-.257-.148.807Zm.221-1.212.445.257.295-1.622-.238-.044-.238-.043-.264 1.452Zm18.415-1.41-.238.045.276 1.517.446-.257-.245-1.347-.239.043ZM12.026 4.667c-3.11 0-4.988 1.413-6.052 3.188C4.919 9.613 4.67 11.712 4.76 13.11l.242-.017.241-.016c-.086-1.33.154-3.323 1.145-4.975.98-1.636 2.704-2.952 5.637-2.952 2.843 0 4.549 1.236 5.543 2.798 1.005 1.578 1.294 3.507 1.251 4.874a.692.692 0 0 1-.021.108c-.013.052-.035.13-.05.2a1.12 1.12 0 0 0-.031.237c0 .077.013.202.108.3L19 13.5l.174-.169c.037.038.028.071.028.037 0-.027.006-.07.02-.131.014-.063.029-.118.047-.189.014-.059.033-.138.036-.209.045-1.433-.256-3.466-1.328-5.15-1.08-1.698-2.938-3.023-5.95-3.023Z"/>
      <ellipse cx="16.987" cy="9.946" fill="#000" stroke="#000" stroke-width=".291" rx=".92" ry="1.163"/>
      <ellipse cx=".285" cy=".474" fill="#E0E0E0" rx=".285" ry=".474" transform="matrix(.96162 .2744 -.244 .96977 16.501 9.208)"/>
      <ellipse cx=".92" cy="1.163" fill="#000" stroke="#000" stroke-width=".291" rx=".92" ry="1.163" transform="matrix(-1 0 0 1 8.122 8.783)"/>
      <ellipse cx=".285" cy=".474" fill="#E0E0E0" rx=".285" ry=".474" transform="matrix(-.96162 .2744 .244 .96977 7.688 9.208)"/>
      <path fill="#C81417" d="M11.973 17.454c-3.642 0-6.2-2.89-7.072-4.311-1.937 1.821-4.65 6.151-5.425 9.494-.436 3.439 3.585 3.439 3.585 3.439 2.131 2.276 8.912 2.422 8.912 2.422V17.454Z"/>
      <path fill="#E31D20" d="M11.974 17.454c3.643 0 6.2-2.89 7.072-4.311 1.937 1.821 4.65 6.151 5.425 9.494.19 1.492-.316 2.767-1.112 3.245-1.04.624-2.473.194-2.473.194-2.13 2.276-8.912 2.422-8.912 2.422V17.454Z"/>
      <path stroke="#841012" stroke-linejoin="round" stroke-width=".484" d="M11.973 17.454c-3.642 0-6.2-2.89-7.072-4.311-1.937 1.821-4.65 6.151-5.425 9.494-.436 3.439 3.585 3.439 3.585 3.439 2.131 2.276 8.912 2.422 8.912 2.422V17.454ZM11.974 17.454c3.643 0 6.2-2.89 7.072-4.311 1.938 1.821 4.65 6.151 5.425 9.494.727 3.73-3.584 3.439-3.584 3.439-2.132 2.276-8.913 2.422-8.913 2.422V17.454Z"/>
      <path fill="url(#xmas_capy_dark_svg__c)" d="M7.8 19.1c3.401 2.035 3.002-1.598 4.264-1.598-1.71-.306-5.445-1.647-7.074-4.36 0 0-.593 3.924 2.81 5.959Z"/>
      <path stroke="#841012" stroke-linejoin="round" stroke-width=".484" d="M7.8 19.1c3.353 1.856 3.002-1.598 4.264-1.598-1.71-.306-5.445-1.647-7.074-4.36 0 0-.544 4.104 2.81 5.959Z"/>
      <path fill="url(#xmas_capy_dark_svg__d)" d="M16.192 19.1c-3.402 2.035-3.003-1.598-4.265-1.598 1.71-.306 5.445-1.647 7.075-4.36 0 0 .592 3.924-2.81 5.959Z"/>
      <path stroke="#841012" stroke-linejoin="round" stroke-width=".484" d="M16.192 19.1c-3.353 1.856-3.003-1.598-4.265-1.598 1.71-.306 5.445-1.647 7.075-4.36 0 0 .544 4.104-2.81 5.959Z"/>
      <circle cx="6.436" cy="21.165" r="4.263" fill="#B0E3F1" transform="rotate(15 6.436 21.165)"/>
      <path fill="#EAFBFF" d="M9.427 24.2a4.259 4.259 0 0 1-4.186 1.055 4.26 4.26 0 0 1-2.956-3.123c.904-.048 2.164.105 3.516.467 1.58.423 2.908 1.03 3.626 1.601Z"/>
      <circle cx="6.436" cy="21.165" r="4.263" stroke="#0A414D" stroke-width=".484" transform="rotate(15 6.436 21.165)"/>
      <path fill="#3C9762" stroke="#266540" stroke-linejoin="round" stroke-width=".484" d="M4.58 20.587a.097.097 0 0 0 .02.178l.98.263-2.197 1.625a.097.097 0 0 0 .032.171l4.658 1.268a.097.097 0 0 0 .117-.128l-.943-2.49.98.263a.097.097 0 0 0 .107-.144L7.38 20.06l.637.17a.097.097 0 0 0 .107-.145l-.937-1.466a.097.097 0 0 0-.126-.033l-1.543.8a.097.097 0 0 0 .02.18l.636.17-1.593.85Z"/>
      <circle cx="7.164" cy="18.451" r=".484" fill="#F6AD10" stroke="#7F4809" stroke-linejoin="round" stroke-width=".484" transform="rotate(15 7.164 18.451)"/>
      <circle cx="7.858" cy="21.847" r=".484" fill="#C163FF" stroke="#761FB1" stroke-linejoin="round" stroke-width=".484" transform="rotate(15 7.858 21.847)"/>
      <circle cx="5.284" cy="19.853" r=".484" fill="#E31D20" stroke="#A61114" stroke-linejoin="round" stroke-width=".484" transform="rotate(15 5.284 19.853)"/>
      <ellipse cx="8.933" cy="19.761" fill="#EAFBFF" rx=".753" ry="1.552" transform="rotate(-24.149 8.933 19.761)"/>
      <path fill="#D47936" d="M1.74 21.025c.216-.233.211-.531.438-.506l.192 1.01c.283.21 1.061.57 2.212.378 1.148-.192 1.215.817.59 1.26 0 0-.09.074-.252.167.232-.109.668-.157 1.023.324.202.273-.122.976-.436 1.194.328-.21.529-.419.755-.196.238.234-.196 1.32-1.181 1.74-.985.422-2.065-.193-2.707-.863-1.2-1.25-2.042-2.898-.634-4.508Z"/>
      <path fill="#C26B2A" d="M2.722 25.805c-1.495-1.85-1.294-3.243-.206-4.211l-.14-.273v-.525l-.223-.29-.418.51c-.9 1.136-.706 2.686-.357 3.51l1.344 1.28Z"/>
      <path fill="#ED974F" d="M3.822 22.879c.825-.222 1.34-.467 1.618-.8l.13.397-.241.406-.513.521-1.073.316c-.475-.027-.746-.618.079-.84ZM4.179 24.272c.877-.201 1.39-.449 1.606-.815l.273.466-.148.452-.425.566-1.132.292c-.553-.061-1.051-.76-.174-.961Z"/>
      <path stroke="#562E11" stroke-linecap="round" stroke-linejoin="round" stroke-width=".484" d="M3.3 23.655c.708.082 1.007-.149 1.353-.337m-.62 1.897c.76.025.916-.186 1.23-.382m-.61-1.515c.212-.115.332-.214.332-.214.637-.456.58-1.477-.582-1.27-1.165.208-1.548-.15-1.832-.36l-.29-.969s-.29-.097-.485.485c-.194.58-.194.513-.34.768-.548.808-.144 2.155.126 2.727.191.389.377.595.837 1.048.272.267.612.53.987.719.538.27.86.382 1.449.124 1-.438 1.762-1.38 1.214-1.777-.268-.194-.449.01-.807.234m-.61-1.515c.204-.134.71-.268 1.107.274.396.541-.166 1.053-.497 1.24"/>
      <path fill="#CFCFCF" d="m21.093 19.01.95.185h.001v-.002l.001-.005a.463.463 0 0 0 .008-.045 3.93 3.93 0 0 0 .043-.438c.012-.269.002-.648-.093-1.06-.199-.863-.793-1.88-2.212-2.243-1.402-.358-2.415.218-3.017.857a3.946 3.946 0 0 0-.8 1.288l-.005.011-.002.005v.002l.915.317-.916-.316a.969.969 0 0 0 1.83.639v-.002l.013-.032a2.015 2.015 0 0 1 .376-.584c.241-.256.564-.451 1.127-.308.547.14.724.456.803.802a2.058 2.058 0 0 1 .032.711l-.002.014-1.843 6.878a.969.969 0 1 0 1.871.502l1.856-6.925.015-.065-.951-.186Z"/>
      <path fill="#C81417" d="M18.302 25.684a.966.966 0 0 0 .098.737l1.843-.494.347-1.296-2.162.58-.126.473Zm.531-1.984 2.162-.579.347-1.297-2.16.58-.349 1.296Zm.753-2.807 2.16-.58.283-1.051.015-.065-.357-.07-1.754.47-.347 1.296Zm2.458-1.697v-.003l.001-.005.003-.011.006-.034.014-.102.002-.017-.38.102.354.07Zm-3.025-1.96c.09.004.188.016.293.043.547.14.724.456.804.802l.011.06 1.875-.502a3.129 3.129 0 0 0-.474-1.076l-2.509.672Zm-3.087.827a.967.967 0 0 0 1.863.142l.001-.002a1.895 1.895 0 0 1 .084-.181 2.01 2.01 0 0 1 .305-.434c.065-.069.135-.132.214-.187l-2.467.662Zm3.86-2.66c-1.404-.359-2.416.217-3.018.857a3.653 3.653 0 0 0-.197.228l3.596-.964a3.579 3.579 0 0 0-.382-.122Z"/>
      <path fill="#3C9762" d="M18.302 25.684a.965.965 0 0 0 .099.737l1.842-.494.347-1.295-2.161.579-.127.474Zm.531-1.984 2.162-.579.347-1.297-2.16.579-.349 1.297Zm.752-2.808 2.162-.578.282-1.052a.945.945 0 0 0 .015-.065l-.357-.07-1.754.47-.348 1.295Zm2.46-1.696v-.008l.003-.011a1.96 1.96 0 0 0 .02-.136l.002-.017-.38.102.354.07Zm-3.026-1.96a1.5 1.5 0 0 1 .293.043c.547.14.724.456.804.802l.011.06 1.875-.502a3.127 3.127 0 0 0-.474-1.076l-2.509.673Zm-3.087.827a.967.967 0 0 0 1.863.142l.001-.002.014-.032a2.01 2.01 0 0 1 .376-.583 1.34 1.34 0 0 1 .213-.186l-2.467.66Z"/>
      <path fill="#0993B2" d="M18.302 25.684a.965.965 0 0 0 .099.737l1.842-.494.347-1.295-2.161.579-.127.474Zm.531-1.984 2.162-.579.347-1.297-2.16.579-.349 1.297Zm.186-6.464a1.5 1.5 0 0 1 .293.043c.547.14.724.456.804.802l.011.06 1.875-.502a3.127 3.127 0 0 0-.474-1.076l-2.509.673Zm-3.087.827a.967.967 0 0 0 1.863.142l.001-.002.014-.032a2.01 2.01 0 0 1 .376-.583 1.34 1.34 0 0 1 .213-.186l-2.467.66Z"/>
      <path stroke="#0A414D" stroke-width=".484" d="M22.044 19.196v-.003l.001-.005a.463.463 0 0 0 .008-.045 3.93 3.93 0 0 0 .043-.438c.012-.269.002-.648-.093-1.06-.199-.863-.793-1.88-2.212-2.243-1.402-.358-2.415.218-3.017.857a3.946 3.946 0 0 0-.8 1.288l-.005.011-.002.005v.003a.969.969 0 0 0 1.829.639v-.002l.013-.032a2.015 2.015 0 0 1 .376-.584c.241-.256.564-.451 1.127-.308.547.14.724.456.803.802a2.058 2.058 0 0 1 .032.711l-.002.014-1.843 6.878a.969.969 0 1 0 1.871.502l1.856-6.925.015-.065Z"/>
      <path fill="#DF823E" d="M19.761 24.311c-.877-.201-1.39-.449-1.605-.815l-.273.467.147.451.425.566 1.133.293c.553-.062 1.05-.76.173-.962Z"/>
      <path fill="#ED974F" d="M22.24 21.13c-.212-.224-.18-.482-.405-.452l-.22.96c-.28.213-1.05.585-2.185.421-1.132-.163-1.205.832-.59 1.255 0 0 .088.07.247.158-.228-.102-.658-.14-1.011.342-.337.458.002.873.307 1.093-.25-.163-.413-.278-.628-.103-.394.322.186 1.296 1.156 1.688.97.393 2.02-.255 2.677-.91 1.558-1.552 2.032-2.898.652-4.452Z"/>
      <path fill="#FFC794" d="M18.609 22.311c-.16-.174.193-.402.389-.495l1.567.122.957-.357-.065-.544.303-.492.484.58.241.72c-1.229 2.114-3.678.684-3.876.466ZM19.322 24.226c.777.266 1.234-.16 1.366-.405l-1.783-.476c-.176-.036-.56-.07-.68.082-.15.19.126.468 1.097.8ZM18.31 25.28c.603.424 1.316.232 1.597.083l-1.692-.59-.463-.116c-.065.03-.045.198.558.622Z"/>
      <path stroke="#562E11" stroke-linecap="round" stroke-linejoin="round" stroke-width=".484" d="M20.686 23.694c-.709.082-1.007-.149-1.353-.336m.91 1.896c-.76.025-1.207-.186-1.52-.382m.61-1.514c-.212-.116-.333-.214-.333-.214-.637-.457-.58-1.478.582-1.27 1.165.207 1.548-.151 1.832-.36l.29-.97s.291-.096.485.485.194.513.34.768c.27.392.621 1.486-.126 2.727-.19.389-.377.596-.837 1.048a3.99 3.99 0 0 1-.986.719c-.539.27-.86.382-1.45.124-1-.438-1.762-1.38-1.214-1.777.268-.194.45.01.807.234m.61-1.514c-.204-.135-.71-.269-1.106.273-.396.542.166 1.053.496 1.241"/>
      <path fill="#FFEAEA" d="M19.727 15.904c2.131.581 1.647 2.761 1.647 2.761s0-1.502-1.647-2.034c-.92-.298-1.696.145-1.938-.291-.282-.508.872-.727 1.938-.436Z"/>
      <path fill="#E31D20" stroke="#841012" stroke-width=".564" d="M12.094.378c-2.932 0-3.854 3.233-3.948 4.85h7.896c0-2.03-2.369-2.684-1.861-3.045.508-.362 1.636.583 1.861.404.226-.179-1.015-2.21-3.948-2.21Z"/>
      <path fill="#A61114" d="M11.976.382c-2.84.086-3.737 3.252-3.83 4.846h2.565c-.508-.586-1.017-1.38-.929-2.143.164-1.42 2.073-2.629 2.194-2.703Z"/>
      <path stroke="#841012" stroke-width=".564" d="M8.146 5.228C8.24 3.611 9.162.378 12.094.378c2.933 0 4.174 2.03 3.948 2.209-.226.179-1.353-.766-1.861-.404-.508.361 1.861 1.015 1.861 3.045"/>
      <path fill="url(#xmas_capy_dark_svg__e)" stroke="#841012" stroke-linejoin="round" stroke-width=".564" d="M7.92 3.875v2.299s2.462.52 4.062.52c1.599 0 4.06-.52 4.06-.52v-2.3s-.46.998-1.015.998c-.556 0-.46-.997-1.015-.997-.556 0-.46.997-1.015.997-.556 0-.46-.997-1.015-.997-.556 0-.46.997-1.016.997-.555 0-.459-.997-1.015-.997-.556 0-.46.997-1.015.997-.556 0-1.015-.997-1.015-.997Z"/>
      <circle cx="16.268" cy="2.634" r=".677" fill="url(#xmas_capy_dark_svg__f)" stroke="#841012" stroke-linejoin="round" stroke-width=".564"/>
      <path fill="#E0833F" d="M10.509 8.426c.05 0 .09.04.09.09v.549c0 .05-.04.09-.09.09H9.96c-.05 0-.09.041-.09.091v.548c-.001.05-.042.09-.092.091h-.548c-.05 0-.09.04-.09.09v.549c0 .05-.041.09-.091.09H6.314c-.05 0-.09-.04-.09-.09v-.548c0-.05-.041-.09-.091-.091h-.548c-.05 0-.09-.04-.09-.09v-.549c-.001-.05-.042-.09-.092-.09h-.06c.079-.258.167-.5.262-.73h4.904Zm7.673 0c.17.414.318.871.438 1.376a.09.09 0 0 1-.089.083h-.547c-.05 0-.09.04-.09.09v.549c0 .05-.041.09-.091.09h-2.737c-.05 0-.09-.04-.09-.09v-.548c0-.05-.041-.09-.091-.091h-.548c-.05 0-.09-.04-.09-.09v-.549c-.001-.05-.042-.09-.092-.09h-.548c-.05 0-.09-.041-.09-.091v-.548c0-.05.04-.09.09-.091h4.575Z"/>
      <mask id="xmas_capy_dark_svg__g" width="18" height="5" x="2.944" y="7.426" fill="#000" maskUnits="userSpaceOnUse">
        <path fill="#fff" d="M2.944 7.426h18v5h-18z"/>
        <path d="M19.9 8.426c.05 0 .091.04.091.091v.547c0 .05-.04.092-.091.092h-.547c-.05 0-.091.04-.091.09v.548c0 .05-.041.091-.091.091h-.549c-.05 0-.09.04-.09.091v.547c0 .05-.042.091-.092.091h-.547c-.05 0-.091.041-.091.092v.547c0 .05-.041.091-.091.091h-2.735a.091.091 0 0 1-.091-.091v-.547c0-.05-.041-.091-.091-.091h-.548a.091.091 0 0 1-.09-.092v-.547c0-.05-.042-.091-.092-.091h-.546a.091.091 0 0 1-.091-.091v-.547c0-.05-.041-.091-.091-.091H10.6c-.05 0-.091.04-.091.09v.548c0 .05-.041.091-.091.091H9.87c-.05 0-.09.04-.09.091v.547c0 .05-.042.091-.092.091h-.547c-.05 0-.091.041-.091.092v.547c0 .05-.041.091-.091.091H6.224a.091.091 0 0 1-.091-.091v-.547c0-.05-.041-.091-.091-.091h-.548a.091.091 0 0 1-.09-.092v-.547c0-.05-.042-.091-.092-.091h-.547a.091.091 0 0 1-.091-.091v-.547c0-.05-.041-.091-.091-.091h-.547a.091.091 0 0 1-.092-.092v-.547c0-.05.041-.091.092-.091H19.9Z"/>
      </mask>
      <path fill="#333" d="M19.9 8.426c.05 0 .091.04.091.091v.547c0 .05-.04.092-.091.092h-.547c-.05 0-.091.04-.091.09v.548c0 .05-.041.091-.091.091h-.549c-.05 0-.09.04-.09.091v.547c0 .05-.042.091-.092.091h-.547c-.05 0-.091.041-.091.092v.547c0 .05-.041.091-.091.091h-2.735a.091.091 0 0 1-.091-.091v-.547c0-.05-.041-.091-.091-.091h-.548a.091.091 0 0 1-.09-.092v-.547c0-.05-.042-.091-.092-.091h-.546a.091.091 0 0 1-.091-.091v-.547c0-.05-.041-.091-.091-.091H10.6c-.05 0-.091.04-.091.09v.548c0 .05-.041.091-.091.091H9.87c-.05 0-.09.04-.09.091v.547c0 .05-.042.091-.092.091h-.547c-.05 0-.091.041-.091.092v.547c0 .05-.041.091-.091.091H6.224a.091.091 0 0 1-.091-.091v-.547c0-.05-.041-.091-.091-.091h-.548a.091.091 0 0 1-.09-.092v-.547c0-.05-.042-.091-.092-.091h-.547a.091.091 0 0 1-.091-.091v-.547c0-.05-.041-.091-.091-.091h-.547a.091.091 0 0 1-.092-.092v-.547c0-.05.041-.091.092-.091H19.9Z"/>
      <path fill="#333" d="M19.991 8.517h-.273v.547h.547v-.547h-.274Zm-.091.639v-.274h-.547v.547h.547v-.273Zm-.638.09h-.274v.548h.547v-.547h-.273Zm-.091.639v-.274h-.549v.548h.549v-.274Zm-.64.091h-.273v.547h.547v-.547h-.274Zm-.09.638v-.273h-.548v.547h.547v-.274Zm-.64.092h-.273v.547h.547v-.547h-.273Zm-.09.638v-.274h-2.735v.548h2.735v-.274Zm-2.826-.091h.273v-.547h-.547v.547h.274Zm-.091-.639v-.273h-.548v.547h.548v-.274Zm-.639-.09h.274v-.548h-.547v.547h.273Zm-.09-.639v-.274h-.547v.548h.546v-.274Zm-.638-.091h.273v-.547h-.547v.547h.274Zm-.091-.638v-.274H10.6v.547h2.736v-.273Zm-2.827.09h-.274v.548h.547v-.547h-.273Zm-.091.639v-.274H9.87v.548h.548v-.274Zm-.639.091h-.273v.547h.547v-.547h-.274Zm-.09.638v-.273H9.14v.547h.547v-.274Zm-.64.092h-.273v.547h.547v-.547H9.05Zm-.09.638v-.274H6.224v.548h2.735v-.274Zm-2.826-.091h.273v-.547H5.86v.547h.274Zm-.091-.639v-.273h-.548v.547h.548v-.274Zm-.639-.09h.274v-.548H5.13v.547h.273Zm-.09-.639v-.274h-.548v.548h.547v-.274Zm-.64-.091h.274v-.547H4.4v.547h.274Zm-.09-.638v-.274h-.547v.547h.547v-.273Zm-.639-.092h.274v-.547H3.67v.547h.273Zm.092-.638V8.7H19.9v-.547H4.036v.273Zm-.092.091h.274c0 .1-.082.183-.182.183v-.547a.365.365 0 0 0-.365.364h.273Zm.092.639v-.274c.1 0 .182.082.182.182H3.67c0 .202.163.365.365.365v-.273Zm.638.09h.273a.365.365 0 0 0-.364-.364v.547a.182.182 0 0 1-.183-.182h.274Zm.091.639v-.274c.1 0 .182.082.182.183H4.4c0 .201.164.364.365.364v-.273Zm.638.091h.274a.365.365 0 0 0-.365-.365v.548a.182.182 0 0 1-.182-.183h.273Zm.091.638v-.273c.101 0 .183.082.183.182H5.13c0 .202.163.365.364.365v-.274Zm.639.092h.273a.365.365 0 0 0-.364-.365v.547a.182.182 0 0 1-.183-.182h.274Zm.091.638v-.274c.1 0 .182.082.182.183H5.86c0 .201.164.364.365.364v-.273Zm2.826-.091h-.274c0-.1.082-.183.183-.183v.548a.365.365 0 0 0 .364-.365H9.05Zm.091-.639v-.273a.365.365 0 0 0-.365.365h.547c0 .1-.081.182-.182.182v-.274Zm.638-.09h-.273c0-.101.081-.183.182-.183v.547a.365.365 0 0 0 .365-.365h-.274Zm.091-.639v-.274a.365.365 0 0 0-.364.365h.547c0 .1-.082.182-.183.182v-.273Zm.639-.091h-.274c0-.1.082-.183.183-.183v.548a.365.365 0 0 0 .364-.365h-.273Zm.091-.638v-.274a.365.365 0 0 0-.365.365h.547c0 .1-.081.182-.182.182v-.273Zm2.827.09h.273a.365.365 0 0 0-.364-.364v.547a.182.182 0 0 1-.183-.182h.274Zm.09.639v-.274c.102 0 .183.082.183.183h-.547c0 .201.163.364.365.364v-.273Zm.638.091h.274a.365.365 0 0 0-.365-.365v.548a.182.182 0 0 1-.182-.183h.273Zm.091.638v-.273c.101 0 .183.082.183.182h-.547c0 .202.163.365.364.365v-.274Zm.639.092h.273a.365.365 0 0 0-.364-.365v.547a.182.182 0 0 1-.183-.182h.274Zm.09.638v-.274c.102 0 .183.082.183.183h-.547c0 .201.163.364.365.364v-.273Zm2.827-.091h-.274c0-.1.082-.183.183-.183v.548a.365.365 0 0 0 .364-.365h-.273Zm.09-.639v-.273a.365.365 0 0 0-.364.365h.547c0 .1-.081.182-.182.182v-.274Zm.64-.09h-.274c0-.101.081-.183.182-.183v.547a.365.365 0 0 0 .365-.365h-.274Zm.09-.639v-.274a.365.365 0 0 0-.364.365h.547c0 .1-.082.182-.183.182v-.273Zm.64-.091h-.274c0-.1.082-.183.183-.183v.548a.365.365 0 0 0 .364-.365h-.273Zm.09-.638v-.274a.365.365 0 0 0-.364.365h.547c0 .1-.081.182-.182.182v-.273Zm.64-.092h-.274c0-.1.081-.182.182-.182v.547a.365.365 0 0 0 .365-.365h-.274Zm0-.547h.273a.365.365 0 0 0-.365-.364V8.7a.182.182 0 0 1-.182-.183h.273Z" mask="url(#xmas_capy_dark_svg__g)"/>
      <rect width=".729" height=".729" x="5.403" y="9.156" fill="#fff" rx=".091"/>
      <rect width=".729" height=".729" x="6.132" y="9.885" fill="#fff" rx=".091"/>
      <rect width=".729" height=".729" x="6.861" y="9.156" fill="#fff" rx=".091"/>
      <rect width=".729" height=".729" x="7.591" y="9.885" fill="#fff" rx=".091"/>
      <rect width=".729" height=".729" x="14.155" y="9.156" fill="#fff" rx=".091"/>
      <rect width=".729" height=".729" x="14.885" y="9.885" fill="#fff" rx=".091"/>
      <rect width=".729" height=".729" x="15.614" y="9.156" fill="#fff" rx=".091"/>
      <rect width=".729" height=".729" x="16.344" y="9.885" fill="#fff" rx=".091"/>
    </g>
    <path fill="url(#xmas_capy_dark_svg__h)" d="M26.702 6.533h4.948c2.095 0 3.23 1.103 3.23 2.69a2.466 2.466 0 0 1-1.495 2.344v.051a2.824 2.824 0 0 1 1.993 2.774c0 1.775-1.228 3.17-3.454 3.17h-5.222V6.533Zm4.982 4.482c.79 0 1.357-.586 1.357-1.477 0-.89-.567-1.477-1.357-1.477h-3.139v2.954h3.139Zm.223 5.032c.945 0 1.632-.724 1.632-1.775s-.687-1.758-1.632-1.758h-3.362v3.533h3.362Z"/>
    <path fill="url(#xmas_capy_dark_svg__i)" d="M37.68 7.845h-1.036V6.18h2.851v11.374h-1.82l.004-9.71Z"/>
    <path fill="url(#xmas_capy_dark_svg__j)" d="M41.181 13.48c0-2.5 1.84-4.343 4.383-4.343s4.398 1.827 4.398 4.342c0 2.516-1.838 4.325-4.398 4.325-2.56 0-4.383-1.826-4.383-4.325Zm3.902 2.687h.982c1.117 0 2.096-1.189 2.096-2.688s-.982-2.707-2.096-2.707h-.982c-1.116 0-2.095 1.23-2.095 2.707 0 1.477.979 2.688 2.095 2.688Z"/>
    <path fill="url(#xmas_capy_dark_svg__k)" d="M51.145 13.462c0-2.55 1.755-4.325 4.28-4.325 2.027 0 3.625 1.051 3.882 3.2h-1.769c-.172-1.085-.945-1.568-1.735-1.568h-.859c-1.1 0-1.993 1.206-1.993 2.708 0 1.501.893 2.722 1.993 2.722h.859a1.75 1.75 0 0 0 1.187-.459 1.76 1.76 0 0 0 .565-1.143h1.77c-.246 2.12-1.856 3.222-3.927 3.222-2.518-.015-4.253-1.807-4.253-4.357Z"/>
    <path fill="url(#xmas_capy_dark_svg__l)" d="M60.954 6.18h1.804v6.275h1.308l2.44-3.084h2.06l-3.006 3.808 3.144 4.376H66.54l-2.629-3.618h-1.153v3.618h-1.804V6.181Z"/>
    <path fill="url(#xmas_capy_dark_svg__m)" d="M69.529 15.099h1.735c.086.724.532 1.189 1.472 1.189h1.136c.808 0 1.186-.414 1.186-.965 0-.552-.31-.879-1.048-.985l-1.91-.246c-1.614-.19-2.336-1.154-2.336-2.412 0-1.654 1.227-2.55 3.419-2.55 2.098 0 3.37.844 3.436 2.722h-1.736c-.085-.706-.377-1.206-1.27-1.206h-1.034c-.773 0-1.134.414-1.134.948s.344.896 1.083 1l1.926.245c1.563.19 2.285 1.034 2.285 2.344 0 1.688-1.117 2.619-3.59 2.619-2.393.002-3.554-.911-3.62-2.703Z"/>
    <path fill="url(#xmas_capy_dark_svg__n)" d="M77.873 13.462c0-2.55 1.752-4.325 4.28-4.325 2.027 0 3.624 1.051 3.882 3.2h-1.77c-.171-1.085-.944-1.568-1.734-1.568h-.86c-1.101 0-1.995 1.206-1.995 2.708 0 1.501.894 2.722 1.996 2.722h.859a1.75 1.75 0 0 0 1.187-.459 1.76 1.76 0 0 0 .565-1.143h1.77c-.246 2.12-1.856 3.222-3.927 3.222-2.516-.015-4.253-1.807-4.253-4.357Z"/>
    <path fill="url(#xmas_capy_dark_svg__o)" d="M87.198 13.48c0-2.5 1.838-4.343 4.38-4.343 2.543 0 4.401 1.827 4.401 4.342 0 2.516-1.838 4.325-4.4 4.325-2.562 0-4.38-1.826-4.38-4.325Zm3.9 2.687h.981c1.117 0 2.099-1.189 2.099-2.688s-.982-2.707-2.099-2.707h-.981c-1.117 0-2.096 1.23-2.096 2.707 0 1.477.984 2.688 2.1 2.688h-.004Z"/>
    <path fill="url(#xmas_capy_dark_svg__p)" d="M97.476 14.53V9.38h1.804v4.843c0 1.188.601 1.895 1.391 1.895h.982c.842 0 1.598-.775 1.598-1.895V9.38h1.806v8.184h-1.755v-1.12c-.491.845-1.357 1.361-2.68 1.361-1.978-.002-3.146-1.156-3.146-3.276Z"/>
    <path fill="url(#xmas_capy_dark_svg__q)" d="M108.058 15.65v-4.677h-1.58V9.381h1.58V7.087h1.821V9.38h2.13v1.585h-2.13v4.17c0 .534.172.792.756.792h1.443v1.637h-1.963c-1.321-.002-2.057-.691-2.057-1.915Z"/>
  </g>
  <defs>
    <linearGradient id="xmas_capy_dark_svg__c" x1="8.507" x2="8.507" y1="13.143" y2="19.72" gradientUnits="userSpaceOnUse">
      <stop stop-color="#fff"/>
      <stop offset="1" stop-color="#D9D9D9"/>
    </linearGradient>
    <linearGradient id="xmas_capy_dark_svg__d" x1="15.484" x2="15.484" y1="13.143" y2="19.72" gradientUnits="userSpaceOnUse">
      <stop stop-color="#fff"/>
      <stop offset="1" stop-color="#D9D9D9"/>
    </linearGradient>
    <linearGradient id="xmas_capy_dark_svg__e" x1="11.982" x2="11.982" y1="6.694" y2="3.875" gradientUnits="userSpaceOnUse">
      <stop stop-color="#D9D9D9"/>
      <stop offset="1" stop-color="#fff"/>
    </linearGradient>
    <linearGradient id="xmas_capy_dark_svg__f" x1="16.268" x2="16.268" y1="3.311" y2="1.957" gradientUnits="userSpaceOnUse">
      <stop stop-color="#fff"/>
      <stop offset="1" stop-color="#D9D9D9"/>
    </linearGradient>
    <linearGradient id="xmas_capy_dark_svg__h" x1="26.702" x2="112.078" y1="12" y2="12" gradientUnits="userSpaceOnUse">
      <stop stop-color="#ED694F"/>
      <stop offset="1" stop-color="#B9B7FF"/>
    </linearGradient>
    <linearGradient id="xmas_capy_dark_svg__i" x1="26.702" x2="112.078" y1="12" y2="12" gradientUnits="userSpaceOnUse">
      <stop stop-color="#ED694F"/>
      <stop offset="1" stop-color="#B9B7FF"/>
    </linearGradient>
    <linearGradient id="xmas_capy_dark_svg__j" x1="26.702" x2="112.078" y1="12" y2="12" gradientUnits="userSpaceOnUse">
      <stop stop-color="#ED694F"/>
      <stop offset="1" stop-color="#B9B7FF"/>
    </linearGradient>
    <linearGradient id="xmas_capy_dark_svg__k" x1="26.702" x2="112.078" y1="12" y2="12" gradientUnits="userSpaceOnUse">
      <stop stop-color="#ED694F"/>
      <stop offset="1" stop-color="#B9B7FF"/>
    </linearGradient>
    <linearGradient id="xmas_capy_dark_svg__l" x1="26.702" x2="112.078" y1="12" y2="12" gradientUnits="userSpaceOnUse">
      <stop stop-color="#ED694F"/>
      <stop offset="1" stop-color="#B9B7FF"/>
    </linearGradient>
    <linearGradient id="xmas_capy_dark_svg__m" x1="26.702" x2="112.078" y1="12" y2="12" gradientUnits="userSpaceOnUse">
      <stop stop-color="#ED694F"/>
      <stop offset="1" stop-color="#B9B7FF"/>
    </linearGradient>
    <linearGradient id="xmas_capy_dark_svg__n" x1="26.702" x2="112.078" y1="12" y2="12" gradientUnits="userSpaceOnUse">
      <stop stop-color="#ED694F"/>
      <stop offset="1" stop-color="#B9B7FF"/>
    </linearGradient>
    <linearGradient id="xmas_capy_dark_svg__o" x1="26.702" x2="112.078" y1="12" y2="12" gradientUnits="userSpaceOnUse">
      <stop stop-color="#ED694F"/>
      <stop offset="1" stop-color="#B9B7FF"/>
    </linearGradient>
    <linearGradient id="xmas_capy_dark_svg__p" x1="26.702" x2="112.078" y1="12" y2="12" gradientUnits="userSpaceOnUse">
      <stop stop-color="#ED694F"/>
      <stop offset="1" stop-color="#B9B7FF"/>
    </linearGradient>
    <linearGradient id="xmas_capy_dark_svg__q" x1="26.702" x2="112.078" y1="12" y2="12" gradientUnits="userSpaceOnUse">
      <stop stop-color="#ED694F"/>
      <stop offset="1" stop-color="#B9B7FF"/>
    </linearGradient>
    <clipPath id="xmas_capy_dark_svg__a">
      <path fill="#fff" d="M0 0h113v24H0z"/>
    </clipPath>
    <clipPath id="xmas_capy_dark_svg__b">
      <rect width="24" height="24" fill="#fff" rx="12"/>
    </clipPath>
  </defs>
</svg>
