<svg width="500" height="100" viewBox="0 0 500 100" fill="none" xmlns="http://www.w3.org/2000/svg">
<rect width="500" height="100" fill="white"/>
<path d="M160.801 49.4588L184.787 16.9913H166.179L151.229 38.7445L136.063 16.9913H116.594L140.258 50.2164L115.304 84.199H133.804L149.938 61.2553L165.964 84.199H185.54L160.801 49.4588Z" fill="black"/>
<path d="M237.061 63.7445H236.846L221.694 16.9913H196.296V84.3073H212V34.7402H212.43L228.994 84.3073H243.73L260.186 34.7402H260.617V84.3073H277.396V16.9913H252.335L237.061 63.7445Z" fill="black"/>
<path d="M288.582 16.8831V31.0605H312.196L312.138 84.199H329.025L329.058 31.0605H352.58V16.8831H288.582Z" fill="black"/>
<path d="M396.895 16.8831H363.551V84.199H380.438V63.2034H396.572C413.709 63.2034 424 54.9328 424 39.7185C424 24.6887 413.69 16.9795 396.92 16.9795L396.895 16.8831ZM380.438 49.2424V31.0605H395.281C402.338 31.0605 407.005 33.4363 407.005 40.2597C407.005 46.9908 402.382 49.1341 394.959 49.1341L380.438 49.2424Z" fill="black"/>
<path d="M0 50C0 22.3858 22.2481 0 49.6925 0C77.1192 0 98.3095 21.9697 98.9548 49.7835C98.9548 58.658 95.9432 66.1255 88.414 73.1602C82.0516 79.1047 71.2045 79.9784 63.2457 75.5411C57.5652 72.244 53.1873 65.2221 49.4774 60.0649L42.5936 70.671H27.7504L41.7331 49.7828L28.1806 29.2208H43.4541L49.585 39.8268L55.6083 29.2208H70.9894L57.0066 49.7835C57.0066 49.7835 63.6753 60.0649 67.3323 64.0693C70.9894 68.0736 77.658 68.1818 81.9604 63.8528C86.6907 59.0932 87.7496 55.3034 87.7687 49.7835C87.8424 28.4187 70.9767 11.2554 49.6925 11.2554C28.4261 11.2554 11.1862 28.602 11.1862 50C11.1862 71.398 28.4261 88.7446 49.6925 88.7446C52.6341 88.7446 55.4536 88.4959 58.1898 87.8788L60.5561 98.8095C56.6627 99.6879 53.5169 100 49.6925 100C22.2481 100 0 77.6142 0 50Z" fill="#FC4F37"/>
</svg>
