<svg width="83" height="24" viewBox="0 0 83 24" fill="none" xmlns="http://www.w3.org/2000/svg">
<g clip-path="url(#clip0_11763_41166)">
<g clip-path="url(#clip1_11763_41166)">
<mask id="mask0_11763_41166" style="mask-type:luminance" maskUnits="userSpaceOnUse" x="0" y="0" width="83" height="24">
<path d="M82.2178 0H0V24H82.2178V0Z" fill="white"/>
</mask>
<g mask="url(#mask0_11763_41166)">
<path d="M60.1306 11.4209C60.1306 11.5776 60.2574 11.7045 60.4143 11.7045H62.5355C64.0769 11.7045 64.788 11.0612 64.788 9.58802C64.788 8.11483 64.0767 7.50535 62.5355 7.50535H60.4143C60.2574 7.50535 60.1306 7.63226 60.1306 7.78898V11.4209ZM57.2175 18.3458V5.36786C57.2175 5.21113 57.3444 5.08423 57.5012 5.08423H62.7558C65.7367 5.08423 67.735 6.64186 67.735 9.58802C67.735 11.5663 66.9381 12.6125 65.67 13.3358C65.5383 13.4112 65.4897 13.5773 65.5595 13.7122L67.8931 18.2153C67.991 18.4042 67.8538 18.6294 67.6411 18.6294H65.1686C64.987 18.6294 64.8212 18.5271 64.7395 18.3651L62.79 14.4963C62.665 14.2481 62.4109 14.0918 62.1331 14.0918H60.6557C60.3654 14.0918 60.1303 14.327 60.1303 14.6171V18.3458C60.1303 18.5025 60.0034 18.6294 59.8466 18.6294H57.501C57.3443 18.6294 57.2173 18.5025 57.2173 18.3458H57.2175Z" fill="#06003C"/>
<path d="M42.7874 5.08423H32.5324C32.3755 5.08423 32.2486 5.21113 32.2486 5.36786V7.25577C32.2486 7.41249 32.3755 7.53939 32.5324 7.53939H38.6275C38.7973 7.53939 38.8944 7.73331 38.7922 7.86924L32.2238 16.6083C32.1298 16.7334 32.0792 16.8852 32.0792 17.0416V18.3458C32.0792 18.5025 32.2061 18.6294 32.3629 18.6294H42.9227C43.0794 18.6294 43.2064 18.5025 43.2064 18.3458V16.475C43.2064 16.3181 43.0794 16.1912 42.9227 16.1912H36.5087C36.3383 16.1912 36.2416 15.9963 36.3446 15.8606L42.9239 7.20786C43.0193 7.08244 43.0711 6.92907 43.0711 6.7715V5.36786C43.0711 5.21113 42.9441 5.08423 42.7874 5.08423Z" fill="#06003C"/>
<path d="M45.5712 18.3458V5.36786C45.5712 5.21113 45.6981 5.08423 45.8549 5.08423H54.3654C54.5221 5.08423 54.6491 5.21113 54.6491 5.36786V7.27258C54.6491 7.4293 54.5221 7.5562 54.3654 7.5562H48.751C48.5942 7.5562 48.4673 7.6831 48.4673 7.83983V10.371C48.4673 10.5278 48.5942 10.6547 48.751 10.6547H53.2307C53.3874 10.6547 53.5145 10.7816 53.5145 10.9383V12.7583C53.5145 12.9151 53.3874 13.042 53.2307 13.042H48.751C48.5942 13.042 48.4673 13.1689 48.4673 13.3256V15.8738C48.4673 16.0306 48.5942 16.1575 48.751 16.1575H54.5857C54.7424 16.1575 54.8693 16.2844 54.8693 16.4411V18.3458C54.8693 18.5025 54.7424 18.6294 54.5857 18.6294H45.8549C45.6981 18.6294 45.5712 18.5025 45.5712 18.3458Z" fill="#06003C"/>
<path d="M75.8346 4.99011C71.2956 4.99011 69.5002 7.74991 69.5002 11.8135C69.5002 15.8772 71.2956 18.7723 75.8346 18.7723C80.3735 18.7723 82.1687 15.877 82.1687 11.8135C82.1687 7.75012 80.3735 4.99011 75.8346 4.99011ZM75.8346 16.368C73.8943 16.368 72.8651 15.2641 72.5254 13.3975C72.4973 13.2428 72.6164 13.1002 72.7736 13.1002H78.8651C79.0218 13.1002 79.1408 13.2417 79.1134 13.3962C78.7829 15.2638 77.7754 16.368 75.8343 16.368H75.8346ZM72.7444 10.7129C72.5894 10.7129 72.4713 10.5742 72.4953 10.4211C72.8006 8.47831 73.8326 7.39443 75.8346 7.39443C77.8366 7.39443 78.8457 8.47873 79.1431 10.4221C79.1664 10.5748 79.0486 10.7129 78.8939 10.7129H72.7444Z" fill="#06003C"/>
<mask id="mask1_11763_41166" style="mask-type:luminance" maskUnits="userSpaceOnUse" x="0" y="0" width="24" height="24">
<path d="M24 0H0V24H24V0Z" fill="white"/>
</mask>
<g mask="url(#mask1_11763_41166)">
<path d="M17.2132 0H6.78676C3.03853 0 0 3.03853 0 6.78676V17.2132C0 20.9615 3.03853 24 6.78676 24H17.2132C20.9615 24 24 20.9615 24 17.2132V6.78676C24 3.03853 20.9615 0 17.2132 0Z" fill="#06003C"/>
<path d="M12.0596 5.10889C7.50467 5.10889 5.703 7.89247 5.703 11.9912C5.703 16.0898 7.50467 19.0099 12.0596 19.0099C16.6144 19.0099 18.4159 16.0896 18.4159 11.9912C18.4159 7.89268 16.6144 5.10889 12.0596 5.10889ZM12.0602 16.7637C9.98267 16.7637 8.90668 15.5446 8.58191 13.4927C8.55745 13.338 8.67576 13.1975 8.83182 13.1975H15.2564C15.412 13.1975 15.5302 13.3372 15.5066 13.4917C15.1907 15.5441 14.1383 16.7637 12.0604 16.7637H12.0602ZM8.80482 10.9725C8.65108 10.9725 8.53361 10.8358 8.55429 10.6826C8.84237 8.54874 9.91981 7.35508 12.0602 7.35508C14.2005 7.35508 15.2533 8.54917 15.5329 10.6837C15.553 10.8365 15.4357 10.9725 15.2822 10.9725H8.80482Z" fill="white"/>
</g>
</g>
</g>
</g>
<defs>
<clipPath id="clip0_11763_41166">
<rect width="82.2178" height="24" fill="white"/>
</clipPath>
<clipPath id="clip1_11763_41166">
<rect width="82.2178" height="24" fill="white"/>
</clipPath>
</defs>
</svg>
