<svg width="80" height="24" viewBox="0 0 80 24" fill="none" xmlns="http://www.w3.org/2000/svg">
<g clip-path="url(#clip0_1_3778)">
<path d="M13.5364 11.4702L4.23841 16.053L13.5364 20.4503V24L0 17.5894V14.0927L9.40397 9.45694L0 5.00661V1.45694L13.5364 7.86754V11.4702Z" fill="url(#paint0_linear_1_3778)"/>
<path d="M0 1.45695L3.57616 0L17.1126 6.4106L13.5364 7.86755L0 1.45695Z" fill="url(#paint1_linear_1_3778)"/>
<path d="M13.5364 11.4702L17.1126 10.0133V6.41061L13.5364 7.86757V11.4702Z" fill="url(#paint2_linear_1_3778)"/>
<path d="M13.5364 20.4503V13.351L17.1126 11.7086V22.5431L13.5364 24V20.4503Z" fill="url(#paint3_linear_1_3778)"/>
<path fill-rule="evenodd" clip-rule="evenodd" d="M71.1485 16.0815H75.9736L77.1484 18.8087H79.0364L73.624 6.80905L68.0437 18.8087H69.8898L71.1485 16.0815ZM73.624 10.6271L75.2603 14.4452H71.8618L73.624 10.6271ZM67.4564 19.0185H65.3166L64.4355 18.0954C63.5061 18.7186 62.4075 19.0409 61.2887 19.0185C59.82 19.0198 58.4018 18.4824 57.3028 17.508C56.6927 16.9775 56.2072 16.3189 55.8808 15.5791C55.5545 14.8394 55.3953 14.0367 55.4148 13.2284C55.3905 12.4274 55.5391 11.6305 55.8505 10.892C56.1618 10.1536 56.6285 9.4908 57.2189 8.94886C58.2759 7.92608 59.6804 7.34047 61.1509 7.30934C62.6214 7.27822 64.0494 7.80389 65.1487 8.78103C65.7536 9.28638 66.248 9.91072 66.6014 10.6153C66.9547 11.3198 67.1594 12.0895 67.2026 12.8764C67.2459 13.6634 67.1269 14.4509 66.853 15.1899C66.579 15.9289 66.156 16.6037 65.6103 17.1724L67.4564 19.0185ZM62.7572 14.3613L64.3935 15.9556C64.7555 15.5935 65.0391 15.1608 65.2268 14.6844C65.4144 14.2081 65.5021 13.6982 65.4844 13.1865C65.5038 12.6197 65.4057 12.0549 65.1963 11.5278C64.9869 11.0007 64.6707 10.5226 64.2676 10.1236C63.4744 9.3396 62.404 8.8999 61.2887 8.8999C60.1734 8.8999 59.103 9.3396 58.3098 10.1236C57.917 10.5368 57.6108 11.0243 57.4091 11.5575C57.2073 12.0907 57.1142 12.6588 57.135 13.2284C57.117 13.7826 57.2161 14.3344 57.4257 14.8476C57.6354 15.3609 57.9509 15.8243 58.3517 16.2074C59.1178 16.98 60.1588 17.4175 61.2468 17.4241C61.9368 17.4317 62.6168 17.2581 63.2187 16.9206L60.5755 14.3613H62.7572ZM26.5065 17.2143H31.919V18.8087H23.6954L29.2337 9.11668H24.6185V7.52233H32.0448L26.5065 17.2143ZM35.6112 7.52233V18.8087H33.8909V7.52233H35.6112ZM40.0167 17.2143V7.52233H38.3384V18.8087H43.3313V17.2143H40.0167ZM46.6458 7.52233V17.2143H49.9604V18.8087H44.9675V7.52233H46.6458ZM53.275 18.8087V7.52233H51.5967V18.8087H53.275Z" fill="url(#paint4_linear_1_3778)"/>
</g>
<defs>
<linearGradient id="paint0_linear_1_3778" x1="13.547" y1="24.1377" x2="2.25166" y2="5.10727" gradientUnits="userSpaceOnUse">
<stop stop-color="#05707E"/>
<stop offset="0.52" stop-color="#2B9297"/>
<stop offset="1" stop-color="#4DBBBA"/>
</linearGradient>
<linearGradient id="paint1_linear_1_3778" x1="0.675497" y1="1.10464" x2="16.7788" y2="6.87947" gradientUnits="userSpaceOnUse">
<stop stop-color="#05707E"/>
<stop offset="0.52" stop-color="#2B9297"/>
<stop offset="1" stop-color="#4DBBBA"/>
</linearGradient>
<linearGradient id="paint2_linear_1_3778" x1="13.5391" y1="8.94571" x2="17.1152" y2="8.94571" gradientUnits="userSpaceOnUse">
<stop stop-color="#05707E"/>
<stop offset="0.52" stop-color="#2B9297"/>
<stop offset="1" stop-color="#4DBBBA"/>
</linearGradient>
<linearGradient id="paint3_linear_1_3778" x1="15.2821" y1="10.9325" x2="15.3643" y2="23.9682" gradientUnits="userSpaceOnUse">
<stop stop-color="#05707E"/>
<stop offset="0.52" stop-color="#2B9297"/>
<stop offset="1" stop-color="#4DBBBA"/>
</linearGradient>
<linearGradient id="paint4_linear_1_3778" x1="11.9852" y1="11.5628" x2="112.338" y2="13.69" gradientUnits="userSpaceOnUse">
<stop stop-color="#05707E"/>
<stop offset="0.52" stop-color="#2B9297"/>
<stop offset="1" stop-color="#4DBBBA"/>
</linearGradient>
<clipPath id="clip0_1_3778">
<rect width="79.0364" height="24" fill="white"/>
</clipPath>
</defs>
</svg>
