<svg xmlns="http://www.w3.org/2000/svg" fill="none" viewBox="0 0 20 20">
  <rect width="20" height="20" fill="#5459d6" rx="4"/>
  <path fill="#fff" fill-rule="evenodd" d="M8.747 4.873A.873.873 0 0 0 7.874 4h-.833a.873.873 0 0 0-.873.873v.754c0 .482-.39.873-.873.873h-.422A.873.873 0 0 0 4 7.373v7.754c0 .482.39.873.873.873h.833c.482 0 .873-.39.873-.873V7.373c0-.482.39-.873.872-.873h.423c.482 0 .873-.39.873-.873zm5.175 0A.873.873 0 0 0 13.049 4h-.833a.873.873 0 0 0-.873.873v.754c0 .482.39.873.873.873h.333c.482 0 .872.39.872.873v7.754c0 .482.391.873.873.873h.833c.482 0 .873-.39.873-.873V7.373a.873.873 0 0 0-.873-.873h-.333a.873.873 0 0 1-.872-.873zm-2.615 4.786a.873.873 0 0 0-.873-.873h-.833a.873.873 0 0 0-.873.873v3.111c0 .482.391.873.873.873h.833c.482 0 .873-.39.873-.873z" clip-rule="evenodd"/>
</svg>
