<svg width="180" height="180" viewBox="0 0 180 180" fill="none" xmlns="http://www.w3.org/2000/svg">
<g clip-path="url(#clip0_11220_6308)">
<path d="M90 6C43.6065 6 6 43.611 6 90C6 136.389 43.611 174 90 174C136.389 174 174 136.389 174 90C174 43.611 136.389 6 90 6ZM90 159.131C51.8202 159.131 20.8688 128.18 20.8688 90C20.8688 51.8202 51.8202 20.8688 90 20.8688C128.18 20.8688 159.131 51.8202 159.131 90C159.131 128.18 128.18 159.131 90 159.131Z" fill="url(#paint0_linear_11220_6308)"/>
<path d="M89.5393 43.8082C64.1234 44.059 43.522 65.1173 43.8086 90.5331C43.8803 97.0315 45.2955 103.207 47.7945 108.801C48.1663 109.639 49.277 109.827 49.9129 109.168L60.0972 98.6572C60.76 97.972 61.0332 97.0046 60.8406 96.0686C60.4375 94.1115 60.227 92.0872 60.227 90.0091C60.227 73.5594 73.5597 60.2267 90.005 60.2267C91.689 60.2267 93.3371 60.3655 94.9404 60.6342C96.0153 60.8133 97.1125 60.473 97.8694 59.6892L108 49.2407C108.591 48.6272 108.385 47.6061 107.597 47.2836C102.039 44.9951 95.9391 43.7545 89.5393 43.8172V43.8082Z" fill="url(#paint1_linear_11220_6308)"/>
<path d="M90.4571 136.25C115.873 136 136.474 114.941 136.188 89.5255C136.116 83.0271 134.701 76.8511 132.202 71.2574C131.83 70.4199 130.719 70.2318 130.083 70.8901L119.899 81.4013C119.236 82.0866 118.963 83.0539 119.156 83.99C119.559 85.9471 119.769 87.9714 119.769 90.0495C119.769 106.499 106.437 119.832 89.9913 119.832C88.3074 119.832 86.6593 119.693 85.0559 119.424C83.9811 119.245 82.8838 119.586 82.127 120.369L71.9964 130.818C71.4053 131.431 71.6113 132.453 72.3995 132.775C77.9574 135.064 84.0572 136.304 90.4571 136.241V136.25Z" fill="url(#paint2_linear_11220_6308)"/>
<path d="M66.2028 99.1312L46.8028 118.531C42.8659 122.468 42.8658 128.851 46.8028 132.788C50.7398 136.725 57.1229 136.725 61.0599 132.788L80.4598 113.388C84.3968 109.451 84.3968 103.068 80.4598 99.1312C76.5229 95.1942 70.1398 95.1942 66.2028 99.1312Z" fill="url(#paint3_linear_11220_6308)"/>
<path d="M118.518 46.9381L99.1183 66.338C95.1813 70.275 95.1813 76.6581 99.1183 80.5951C103.055 84.5321 109.438 84.532 113.375 80.5951L132.775 61.1951C136.712 57.2581 136.712 50.875 132.775 46.9381C128.838 43.0011 122.455 43.0011 118.518 46.9381Z" fill="url(#paint4_linear_11220_6308)"/>
</g>
<defs>
<linearGradient id="paint0_linear_11220_6308" x1="6" y1="90" x2="240.52" y2="90" gradientUnits="userSpaceOnUse">
<stop stop-color="#38FF9C"/>
<stop offset="1" stop-color="#171717"/>
</linearGradient>
<linearGradient id="paint1_linear_11220_6308" x1="43.8041" y1="76.6809" x2="132.032" y2="76.6809" gradientUnits="userSpaceOnUse">
<stop stop-color="#38FF9C"/>
<stop offset="1" stop-color="#171717"/>
</linearGradient>
<linearGradient id="paint2_linear_11220_6308" x1="71.6561" y1="103.378" x2="159.405" y2="103.378" gradientUnits="userSpaceOnUse">
<stop stop-color="#38FF9C"/>
<stop offset="1" stop-color="#171717"/>
</linearGradient>
<linearGradient id="paint3_linear_11220_6308" x1="43.8492" y1="115.962" x2="110.392" y2="115.962" gradientUnits="userSpaceOnUse">
<stop stop-color="#38FF9C"/>
<stop offset="1" stop-color="#171717"/>
</linearGradient>
<linearGradient id="paint4_linear_11220_6308" x1="96.1628" y1="63.7668" x2="157.559" y2="63.7668" gradientUnits="userSpaceOnUse">
<stop stop-color="#38FF9C"/>
<stop offset="1" stop-color="#171717"/>
</linearGradient>
<clipPath id="clip0_11220_6308">
<rect width="180" height="180" rx="90" fill="white"/>
</clipPath>
</defs>
</svg>
