<svg width="30" height="30" viewBox="0 0 30 30" fill="none" xmlns="http://www.w3.org/2000/svg">
<path d="M30 3H0V27H30V3Z" fill="#0054FA"/>
<path fill-rule="evenodd" clip-rule="evenodd" d="M8.99961 8.19995H6.56813L5 21.2384H6.95575L7.1848 18.4016H8.27721L8.50626 21.2384H10.5677L8.99961 8.19995ZM7.32575 16.6749L7.53719 13.9967L7.69576 11.7415H7.74863L7.9072 13.9967L8.13625 16.6749H7.32575ZM14.887 21.2384H12.7903V8.19995H15.5389C17.0366 8.19995 17.9528 9.08092 17.9528 10.6667V13.8734C17.9528 15.4415 17.0366 16.3225 15.5389 16.3225H14.887V21.2384ZM14.9047 14.7544H15.3628C15.7152 14.7544 15.8561 14.4372 15.8561 13.8734V10.6667C15.8561 10.0852 15.7152 9.76808 15.3628 9.76808H14.9047V14.7544ZM20.3689 21.2384V8.19995H24.4566V9.92666H22.4656V13.7853H24.2452V15.512H22.4656V19.5117H24.4566V21.2384H20.3689Z" fill="white"/>
</svg>
