<svg xmlns="http://www.w3.org/2000/svg" fill="none" viewBox="0 0 30 30">
  <g clip-path="url(#arc-dark_svg__a)">
    <path fill="#fff" d="M1 30c.243-7.345 1.489-14.199 3.57-19.53C7.206 3.72 11.023 0 15.314 0c4.292 0 8.109 3.719 10.745 10.472 1.371 3.512 2.38 7.685 2.978 12.225.054.405.1.817.146 1.229.015.025.024.049.02.068 0 0 .352 2.194.427 6.007h-.04c-.52-.428-6.666-5.256-16.854-3.858a63.94 63.94 0 0 1 .639-5.009l.044-.243c3.995-.12 7.493.343 10.175.952-.01-.064-.018-.13-.03-.193-.55-3.432-1.364-6.575-2.413-9.26-1.714-4.392-3.952-7.12-5.838-7.12-1.885 0-4.123 2.728-5.837 7.12a37.113 37.113 0 0 0-1.132 3.389 50.654 50.654 0 0 0-1.196 5.355c-.474 2.786-.769 5.773-.877 8.868H1V30Z"/>
  </g>
  <defs>
    <clipPath id="arc-dark_svg__a">
      <path fill="#fff" d="M1 0h28.631v30H1z"/>
    </clipPath>
  </defs>
</svg>
