<svg xmlns="http://www.w3.org/2000/svg" fill="none" viewBox="0 0 30 30">
  <path fill="#000" fill-rule="evenodd" d="M16.564 5.877a2.995 2.995 0 0 1 4.235 0l7.324 7.324a2.995 2.995 0 0 1 0 4.236l-7.324 7.323a2.995 2.995 0 0 1-4.235 0l-.422-.422a.374.374 0 0 1 0-.53l.882-.881a.375.375 0 0 1 .53 0l.421.422a.999.999 0 0 0 1.412 0l7.324-7.324a.998.998 0 0 0 0-1.412l-7.324-7.324a.998.998 0 0 0-1.412 0l-7.324 7.324a.999.999 0 0 0 0 1.412L15 20.373l4.349-4.348a.998.998 0 0 0 0-1.412l-3.1-3.099a.5.5 0 0 1 0-.706l.706-.706a.5.5 0 0 1 .706 0l3.1 3.1a2.995 2.995 0 0 1 0 4.235l-7.324 7.323a2.995 2.995 0 0 1-4.236 0l-7.324-7.323a2.995 2.995 0 0 1 0-4.236l7.324-7.324a2.995 2.995 0 0 1 4.236 0L15 7.441l1.564-1.564Zm-4.54 1.412a.998.998 0 0 0-1.411 0l-7.324 7.324a.998.998 0 0 0 0 1.412l7.324 7.324a.999.999 0 0 0 1.412 0l1.563-1.564-4.348-4.348a2.995 2.995 0 0 1 0-4.236l4.348-4.348-1.563-1.564Z" clip-rule="evenodd"/>
</svg>
