<svg xmlns="http://www.w3.org/2000/svg" fill="none" viewBox="0 0 30 30">
  <g clip-path="url(#base_svg__a)">
    <path fill="#00f" d="M0 2.37C0 1.558 0 1.152.153.84A1.5 1.5 0 0 1 .84.153C1.152 0 1.558 0 2.37 0h25.26c.812 0 1.218 0 1.53.153a1.5 1.5 0 0 1 .687.687c.153.312.153.718.153 1.53v25.26c0 .812 0 1.218-.153 1.53a1.5 1.5 0 0 1-.687.687c-.312.153-.718.153-1.53.153H2.37c-.812 0-1.218 0-1.53-.153a1.5 1.5 0 0 1-.687-.687C0 28.848 0 28.442 0 27.63z"/>
  </g>
  <defs>
    <clipPath id="base_svg__a">
      <path fill="#fff" d="M0 0h30v30H0z"/>
    </clipPath>
  </defs>
</svg>
