<svg xmlns="http://www.w3.org/2000/svg" viewBox="0 0 44 44" fill="none">
  <circle cx="22" cy="22" r="22" fill="#010101"/>
  <path d="M20.11 16.997h-5.257L12.725 20.1h7.384v-3.103Z" fill="#FFF"/>
  <path d="M25.071 16.997h6.205v3.106h-6.205v10.575l-3.103 1.832V16.997h3.103Z" fill-rule="evenodd" fill="#FFF"/>
  <path d="M37.002 16.24c0-1.813-.967-3.49-2.538-4.396l-9.957-5.749a5.077 5.077 0 0 0-5.077 0l-9.957 5.749a5.077 5.077 0 0 0-2.538 4.397v4.338h2.82v-4.338c0-.807.43-1.551 1.129-1.954l9.956-5.75a2.256 2.256 0 0 1 2.257 0l9.957 5.75a2.256 2.256 0 0 1 1.128 1.954v4.338h2.82v-4.338Zm0 7.16h-2.82v4.338c0 .806-.43 1.55-1.128 1.954l-9.957 5.748a2.256 2.256 0 0 1-2.257 0l-9.956-5.748a2.256 2.256 0 0 1-1.129-1.954V23.4h-2.82v4.338c0 1.814.968 3.49 2.538 4.397l9.957 5.748a5.077 5.077 0 0 0 5.077 0l9.957-5.748a5.077 5.077 0 0 0 2.538-4.397V23.4Z" fill-rule="evenodd" fill="#FFF"/>
</svg>
