<svg xmlns="http://www.w3.org/2000/svg" fill="none" viewBox="0 0 30 30">
  <g clip-path="url(#celestia-eden-dark_svg__a)">
    <path fill="#fff" d="M29.676 11.896C27.952 3.784 19.982-1.394 11.875.332a15.004 15.004 0 0 0-7.489 4.07A15.18 15.18 0 0 0 2.55 6.626a5.3 5.3 0 0 0-.43.675C-2.124 14.427.205 23.648 7.325 27.897c7.12 4.249 16.334 1.918 20.58-5.207.31-.52.588-1.06.833-1.613a5.38 5.38 0 0 0 .237-.572 15.172 15.172 0 0 0 .71-8.563l-.008-.046ZM24.471 5.03a13.733 13.733 0 0 1 3.287 4.818.232.232 0 0 1-.256.317 6.902 6.902 0 0 0-1.331-.095.694.694 0 0 1-.698-.57 20.233 20.233 0 0 0-1.152-4.1l-.085-.204a.147.147 0 0 1 .236-.166Zm1.427 8.81a.16.16 0 0 1 .29-.097 13.103 13.103 0 0 1 .71 1.109.344.344 0 0 1-.045.405c-.16.18-.335.363-.524.548l-.206.208a.135.135 0 0 1-.234-.104 29.114 29.114 0 0 0 .009-2.069ZM7.006 3.803a13.649 13.649 0 0 1 7.988-2.555c.76 0 1.517.061 2.266.185a.23.23 0 0 1 .107.405c-.718.565-1.386 1.4-1.977 2.48a.645.645 0 0 1-.74.313 18.668 18.668 0 0 0-5.665-.747 12.81 12.81 0 0 0-1.863.197.155.155 0 0 1-.115-.278h-.001ZM5.04 24.374c-.289-.547.085-1.812 1.985-3.735a.474.474 0 0 0-.042-.705l-.227-.181a.474.474 0 0 0-.634.034l-.075.074c-.944.975-1.619 1.878-1.986 2.69a.324.324 0 0 1-.564.045 13.686 13.686 0 0 1-2.266-7.578c0-.965.1-1.929.3-2.873a.135.135 0 0 1 .27-.013c.325 1.03.794 2.008 1.391 2.907a18.25 18.25 0 0 0 3.356 3.78c.462.406.945.788 1.456 1.16a25.703 25.703 0 0 0 3.339 2.074c.527.27 1.042.54 1.568.772.292.133.626.142.926.026.248-.098.498-.199.748-.304a.598.598 0 0 0 .35-.7 26.763 26.763 0 0 1-.695-5.85v-.974c0-.353.019-.704.038-1.051.135-2.483.549-4.817 1.214-6.78a.348.348 0 0 0-.216-.44 33.91 33.91 0 0 0-.53-.174.346.346 0 0 0-.43.218c-.725 2.13-1.174 4.66-1.294 7.337a1.001 1.001 0 0 1-.49.82 37.85 37.85 0 0 0-4.296 2.94.696.696 0 0 1-.89-.018 16.959 16.959 0 0 1-3.12-3.511c-1.574-2.42-1.95-4.7-1.053-6.418l.007-.012c.115-.19.233-.376.356-.562C4.567 6.01 6.48 5.22 9.02 5.13c.16-.006.322-.008.486-.008a17.9 17.9 0 0 1 4.93.748l.113.034.086.024c.393.118.787.248 1.18.389l.03.01.307.114.097.037.093.035c.847.328 1.675.702 2.48 1.12a23.804 23.804 0 0 1 4.301 2.853c-2.412.552-5.213 1.62-8.032 3.057a.406.406 0 0 0-.223.343c-.01.174-.023.526-.032.81a.228.228 0 0 0 .335.21c2.79-1.467 5.575-2.566 7.962-3.141a.895.895 0 0 0 .674-.994 25.741 25.741 0 0 0-.148-.945 1.566 1.566 0 0 0-.593-.97 25.361 25.361 0 0 0-3.675-2.324 26.123 26.123 0 0 0-2.7-1.215.34.34 0 0 1-.174-.484c.932-1.67 2.041-2.605 3.122-2.605h.034c1.275.023 2.547 1.35 3.487 3.646.51 1.274.883 2.599 1.11 3.952.107.62.194 1.262.258 1.92l-.017.011.023.023c.11 1.14.155 2.284.135 3.429a31.443 31.443 0 0 1-.116 2.192 38.901 38.901 0 0 1-6.133 3.98c-.761.406-1.524.78-2.277 1.127l-.035.016-.174.079c-.624.283-1.242.544-1.851.783l-.103.039-.135.05-.305.116-.084.031-.368.135-.045.017a25.164 25.164 0 0 1-3.68 1.035c-2.74.525-4.023.12-4.324-.434Zm3.771-5.346a35.782 35.782 0 0 1 4.193-2.908 28.29 28.29 0 0 0 .638 5.64 28.452 28.452 0 0 1-1.726-.81 24.353 24.353 0 0 1-3.105-1.922Zm7.962 9.65c-.589.076-1.182.114-1.775.113a13.652 13.652 0 0 1-7.43-2.174.185.185 0 0 1 .091-.34h.104a14.775 14.775 0 0 0 1.83-.247 27.97 27.97 0 0 0 4.622-1.366.291.291 0 0 1 .371.164c.637 1.55 1.42 2.72 2.294 3.466a.22.22 0 0 1-.11.384h.004Zm5.819-3.677c-.984 1.934-2.193 3.02-3.365 2.998-1.276-.023-2.547-1.35-3.489-3.646a.29.29 0 0 1 .154-.376l.03-.012a.289.289 0 0 1 .195-.014c1.668.483 3.393.736 5.128.752.177 0 .352 0 .525-.009.204-.007.405-.017.602-.034a.235.235 0 0 1 .217.34h.003Zm.427-1.664c-.43.062-.861.1-1.294.115a16.18 16.18 0 0 1-3.467-.277.155.155 0 0 1-.04-.292l.782-.405a42.65 42.65 0 0 0 5.04-3.123.156.156 0 0 1 .245.15 22.357 22.357 0 0 1-.861 3.49.508.508 0 0 1-.405.342Zm2.024 1.093a11.984 11.984 0 0 1-.894.868.152.152 0 0 1-.24-.178l.06-.135c.082-.18.162-.367.238-.56a.159.159 0 0 1 .104-.09 8.71 8.71 0 0 0 .57-.163.152.152 0 0 1 .161.258Zm2.766-4.37a11.193 11.193 0 0 1-.243.57c-.454.874-1.215 1.563-2.232 2.043a.294.294 0 0 1-.405-.346c.352-1.279.605-2.582.759-3.899.031-.256.157-.492.353-.66.418-.364.81-.726 1.169-1.08a.33.33 0 0 1 .55.134c.355 1.178.376 2.278.05 3.238h-.001Zm.27-6.451a.28.28 0 0 1-.48.014l-.053-.082a16.24 16.24 0 0 0-1.41-1.853.23.23 0 0 1 .173-.379c1.233 0 1.88.305 2.077.675.175.313.125.858-.3 1.622l-.007.003Zm.665 1.82a.087.087 0 0 1-.166.031 3.502 3.502 0 0 0-.047-.11.206.206 0 0 1 .023-.207l.05-.067c.06-.078.147-.066.147.02.007.115.004.216 0 .333h-.007Z"/>
  </g>
  <defs>
    <clipPath id="celestia-eden-dark_svg__a">
      <path fill="#fff" d="M0 0h30v30H0z"/>
    </clipPath>
  </defs>
</svg>
