<svg xmlns="http://www.w3.org/2000/svg" fill="none" viewBox="0 0 30 30">
  <g clip-path="url(#datanet-light_svg__a)">
    <path fill="#1A1A1A" d="M4.379 13.71h-.262c-.525 0-.787.272-.787.815v7.33c0 .543.262.815.787.815h1.18c.524 0 .786-.272.786-.815v-7.737c0-.272.131-.408.394-.408H8.05c.524 0 .787-.271.787-.814V.407c0-.271.13-.407.393-.407h2.098c.262 0 .393.136.393.407v12.896c0 .272-.131.407-.393.407H9.623c-.524 0-.786.272-.786.815v7.33c0 .543.393.815.786.815h2.491c.525 0 .787-.272.787-.815v-7.737c0-.272.131-.408.393-.408h3.41c.261 0 .392.136.392.408v7.737c0 .543.394.815.787.815h2.491c.524 0 .787-.272.787-.815v-7.33c0-.543-.263-.815-.787-.815H18.67c-.263 0-.394-.135-.394-.407V.407c0-.271.131-.407.394-.407h2.097c.263 0 .394.136.394.407v12.489c0 .543.262.814.786.814h1.574c.262 0 .393.136.393.408v7.737c0 .543.262.815.787.815h1.182c.525 0 .787-.272.787-.815v-7.33c0-.543-.262-.815-.787-.815h-.262c-.262 0-.393-.135-.393-.407V.407c0-.271.13-.407.393-.407h1.232c.262 0 .394.136.394.407v12.489c0 .543.262.814.787.814h.13c.263 0 .394.136.394.408v7.737c0 .543.262.815.787.815h.262c.262 0 .393.135.393.407v6.516c0 .271-.131.407-.393.407h-1.233c-.262 0-.393-.136-.393-.407v-6.109c0-.543-.262-.814-.655-.814-.394 0-.656.271-.656.814v6.109c0 .271-.131.407-.393.407h-1.97c-.262 0-.393-.136-.393-.407v-6.109c0-.543-.262-.814-.787-.814h-1.18c-.524 0-.786.271-.786.814v6.109c0 .271-.131.407-.394.407H17.49c-.262 0-.394-.136-.394-.407v-6.109c0-.543-.262-.814-.786-.814h-2.622c-.525 0-.787.271-.787.814v6.109c0 .271-.131.407-.393.407H9.23c-.262 0-.393-.136-.393-.407v-6.109c0-.543-.263-.814-.787-.814H6.87c-.524 0-.787.271-.787.814v6.109c0 .271-.13.407-.393.407H3.723c-.262 0-.393-.136-.393-.407v-6.109c0-.543-.262-.814-.655-.814-.394 0-.656.271-.656.814v6.109c0 .271-.131.407-.393.407H.393C.131 30 0 29.864 0 29.593v-6.516c0-.272.131-.407.393-.407h.263c.524 0 .786-.272.786-.815v-7.737c0-.272.131-.408.393-.408h.132c.524 0 .786-.271.786-.814V.407c0-.271.131-.407.394-.407h1.232c.262 0 .393.136.393.407v12.896c0 .272-.13.407-.393.407Z"/>
  </g>
  <defs>
    <clipPath id="datanet-light_svg__a">
      <path fill="#fff" d="M0 0h30v30H0z"/>
    </clipPath>
  </defs>
</svg>
