<svg width="40" height="40" viewBox="0 0 40 40" fill="none" xmlns="http://www.w3.org/2000/svg">
<path d="M19.9884 24.5478C22.4975 24.5478 24.5312 22.5123 24.5312 20.001C24.5312 17.4897 22.4975 15.4543 19.9884 15.4543C17.4792 15.4543 15.4455 17.4897 15.4455 20.001C15.4455 22.5123 17.4792 24.5478 19.9884 24.5478Z" fill="#00A6F2"/>
<path d="M19.9876 13.5868L24.5132 9.05737V0.516711C23.057 0.179043 21.5396 0 19.9813 0C18.4231 0 16.9151 0.177472 15.462 0.51357V9.05737L19.9876 13.5868Z" fill="#00A6F2"/>
<path d="M19.9876 26.5184L15.462 30.9442L15.4636 39.488C16.9135 39.8225 18.4231 40 19.9751 40H19.9829C21.5411 40 23.0585 39.821 24.5132 39.4833V30.9442L19.9876 26.5184Z" fill="#00A6F2"/>
<path d="M39.4495 15.4753H30.924L26.3545 20.0048L30.924 24.5343H39.4511C39.7869 23.0799 39.9658 21.5643 39.9658 20.0079C39.9658 18.4515 39.7853 16.9312 39.4495 15.4753Z" fill="#00A6F2"/>
<path d="M13.481 20.0048L9.04959 15.4753L0.505283 15.4769C0.210273 16.7522 0.0376609 18.073 0 19.4284V20.5812C0.0376609 21.9366 0.210273 23.259 0.505283 24.5343H9.04802L13.481 20.0048Z" fill="#00A6F2"/>
<path d="M30.9359 15.4366L36.9428 9.42451C35.325 6.8331 33.1328 4.63904 30.5421 3.02295L24.5336 9.03659C27.4209 10.2381 29.7324 12.5483 30.9359 15.4366Z" fill="#00A6F2"/>
<path d="M9.01982 24.5577L3.01134 30.5714C3.77868 31.8043 4.67627 32.9461 5.68526 33.9795L6.0148 34.3093C7.04419 35.316 8.1803 36.2112 9.40741 36.9777L15.4128 30.9656C12.527 29.7594 10.2203 27.4491 9.01982 24.5577Z" fill="#00A6F2"/>
<path d="M30.9387 24.5622C29.7382 27.452 27.4299 29.7654 24.5426 30.97L30.5495 36.9821C31.6699 36.2816 32.7166 35.4728 33.6738 34.5713L34.5321 33.7122C35.436 32.751 36.2457 31.7003 36.9456 30.5758L30.9387 24.5622Z" fill="#00A6F2"/>
<path d="M15.4251 9.03659L9.41662 3.02295C6.82587 4.64061 4.63369 6.8331 3.01585 9.42451L9.02275 15.4366C10.2263 12.5483 12.5378 10.2381 15.4251 9.03659Z" fill="#00A6F2"/>
</svg>
