<?xml version="1.0" encoding="utf-8"?>
<!-- Generator: Adobe Illustrator 25.0.0, SVG Export Plug-In . SVG Version: 6.00 Build 0)  -->
<svg version="1.1" id="Layer_1" xmlns="http://www.w3.org/2000/svg" xmlns:xlink="http://www.w3.org/1999/xlink" x="0px" y="0px"
	 viewBox="0 0 10095.9 10097" style="enable-background:new 0 0 10095.9 10097;" xml:space="preserve">
<style type="text/css">
	.st0{fill:#FFFFFF;}
	.st1{fill:#FF2E29;}
</style>
<circle class="st0" cx="5048.1" cy="5048.5" r="5047.8"/>
<path class="st1" d="M8890.2,4401c-112.3-614.8-382-1175.3-765.3-1637.1c-656.5-791.1-1647.6-1295-2755.8-1295H2597.5
	c-447.3,5.7-808.2,370.1-808.2,818.8v5521.8c0,448.6,360.9,813.1,808.2,818.8h2771.6c1108.7,0,2099.3-503.9,2755.8-1295
	c383.7-462.2,653-1022.3,765.3-1637.1c38.6-210.1,58.3-426.3,58.3-647.7C8948.6,4826.8,8928.8,4611,8890.2,4401z M5379.6,7333.6h-21
	c-225-1-442.3-34.5-647.5-96.1c-369.4-110.9-699.5-312.8-964.2-579.7c-178.1-179.6-326.7-388.6-437.6-619.2
	c-52.6-109.6-96.9-224.1-132-342.5c-60.5-205.2-93-422.8-93-647.7c0-225,32.5-442.1,93-647.7c18-60.5,38.2-119.7,60.5-178.1
	c21.1-54.8,99.6-52.2,117.5,3.9c18.9,59.2,40.3,117.1,64,173.7c101.7,242.1,247.3,461.4,426.7,647.7
	c212.7,220.7,472.9,395.4,764.2,507.5h0c53.1,20.4,107.1,38.7,162.1,54.9c189.1,55.5,389.2,85.3,596.3,85.3
	c452.1,0,818.8,366.6,818.8,818.8C6187.5,6963.4,5827,7327.9,5379.6,7333.6z M7560.6,5696.5c-18,60.5-38.2,119.7-60.5,178.1
	c-21.1,54.8-99.6,52.2-117.5-3.9c-18.9-59.2-40.3-117.1-64-173.7c-101.7-242.1-247.3-461.4-426.7-647.7
	c-384.6-399.1-924.5-647.7-1522.6-647.7c-198.6,0-380.7-70.7-522.5-188.4c-181-150.2-296.2-376.8-296.2-630.3
	c0-217.2,84.6-414.6,222.6-561.2c147.1-156.3,354.9-254.7,585.7-257.6h21c902.5,3.9,1681.8,531.5,2049.3,1295
	c52.6,109.6,96.9,224.1,132,342.5c60.5,205.2,93,422.8,93,647.7C7654,5274.1,7621.5,5490.8,7560.6,5696.5z"/>
</svg>
