<svg width="30" height="30" viewBox="0 0 30 30" fill="none" xmlns="http://www.w3.org/2000/svg">
<path d="M15 30C23.2843 30 30 23.2843 30 15C30 6.71573 23.2843 0 15 0C6.71573 0 0 6.71573 0 15C0 23.2843 6.71573 30 15 30Z" fill="#627EEA"/>
<path d="M15.0284 3.83331V12.1493L22.0569 15.2904L15.0284 3.83331Z" fill="white" fill-opacity="0.602"/>
<path d="M15.0284 3.83331L8 15.2904L15.0284 12.1493V3.83331Z" fill="white"/>
<path d="M15.0284 20.6786V26.3292L22.061 16.5985L15.0284 20.6786Z" fill="white" fill-opacity="0.602"/>
<path d="M15.0284 26.3292V20.6786L8 16.5985L15.0284 26.3292Z" fill="white"/>
<path d="M15.0284 19.3705L22.0569 15.2904L15.0284 12.1494V19.3705Z" fill="white" fill-opacity="0.2"/>
<path d="M8 15.2904L15.0284 19.3705V12.1494L8 15.2904Z" fill="white" fill-opacity="0.602"/>
</svg>
