<svg width="30" height="30" viewBox="0 0 30 30" fill="none" xmlns="http://www.w3.org/2000/svg">
<g clip-path="url(#clip0_11699_35119)">
<path d="M17.7387 13.679C17.3652 13.679 16.9909 13.5361 16.7058 13.251C16.1349 12.6808 16.1349 11.7553 16.7058 11.1852L20.4836 7.40735C21.0538 6.8372 21.9793 6.8372 22.5494 7.40735C23.1204 7.9775 23.1204 8.90301 22.5494 9.47316L18.7716 13.251C18.4865 13.5361 18.1122 13.679 17.7387 13.679Z" fill="#38FF9C"/>
<path d="M15 29.9992C6.72888 29.9992 0 23.2703 0 15C0 6.72967 6.72888 0 15 0C23.2711 0 30 6.72888 30 15C30 23.2711 23.2711 30 15 30V29.9992ZM15 2.92182C8.34062 2.92182 2.92182 8.33983 2.92182 15C2.92182 21.6602 8.33983 27.0782 15 27.0782C21.6602 27.0782 27.0782 21.6602 27.0782 15C27.0782 8.33983 21.6594 2.92182 15 2.92182Z" fill="#38FF9C"/>
<path d="M8.48278 22.9054C8.10927 22.9054 7.73496 22.7624 7.44988 22.4774C6.87973 21.9072 6.87894 20.9817 7.44988 20.4116L11.2277 16.6337C11.7979 16.0636 12.7234 16.0628 13.2935 16.6337C13.8637 17.2047 13.8645 18.1294 13.2935 18.6995L9.51569 22.4774C9.23061 22.7624 8.8563 22.9054 8.48278 22.9054Z" fill="#38FF9C"/>
<path d="M14.673 9.74112C12.0615 9.92828 9.94992 12.0288 9.77303 14.6419C9.76356 14.7832 9.70196 14.9167 9.60088 15.017L7.47901 17.142C7.35898 17.2628 7.15129 17.2084 7.10786 17.0433C6.93571 16.3855 6.8291 15.6795 6.8291 14.9775C6.8291 10.4605 10.5035 6.78613 15.0205 6.78613C15.7565 6.78613 16.4703 6.88405 17.1494 7.06647C17.2869 7.10359 17.3319 7.27574 17.2316 7.37681L15.0386 9.57134C14.9407 9.66926 14.8112 9.73007 14.673 9.74033V9.74112Z" fill="#38FF9C"/>
<path d="M20.3778 14.9242L22.5723 12.7312C22.6726 12.6309 22.8455 12.6759 22.8827 12.8133C23.0659 13.4925 23.163 14.2063 23.163 14.9423C23.163 19.4593 19.4886 23.1337 14.9716 23.1337C14.2704 23.1337 13.5644 23.0271 12.9058 22.8549C12.7408 22.8115 12.6871 22.6046 12.8071 22.4838L14.9321 20.3619C15.0324 20.2616 15.1659 20.2 15.3072 20.1897C17.9211 20.0129 20.0209 17.9012 20.208 15.2898C20.2183 15.1516 20.2791 15.0221 20.377 14.9242H20.3778Z" fill="#38FF9C"/>
</g>
<defs>
<clipPath id="clip0_11699_35119">
<rect width="30" height="30" fill="white"/>
</clipPath>
</defs>
</svg>
