<svg width="30" height="30" viewBox="0 0 30 30" fill="none" xmlns="http://www.w3.org/2000/svg">
<path fill-rule="evenodd" clip-rule="evenodd" d="M2.46674 7.49457C2.51321 7.53612 2.55132 7.56762 2.58663 7.60197C2.9638 7.96752 3.33772 8.33637 3.71969 8.69727C3.80535 8.77812 3.80582 8.83362 3.74448 8.92662C2.94413 10.1374 2.65308 11.464 2.92012 12.8701C3.27809 14.7562 4.37552 16.1305 6.16844 16.9588C7.22746 17.4478 8.35076 17.5733 9.50551 17.4022C10.2815 17.2871 11.0083 17.0257 11.6716 16.6144C11.7815 16.5461 11.8418 16.5539 11.9315 16.6421C12.9061 17.6002 13.8867 18.5524 14.8602 19.5113C14.9677 19.6174 15.0233 19.6294 15.1391 19.5164C16.252 18.4289 17.3739 17.3498 18.4868 16.2624C18.6092 16.1427 18.6859 16.1221 18.8463 16.2156C19.8195 16.7827 20.8799 17.0101 22.0136 16.9588C24.2641 16.8569 26.3194 15.334 27.0168 13.2433C27.5448 11.6598 27.3489 10.1574 26.4884 8.72832C26.4322 8.63502 26.4271 8.57727 26.5133 8.49672C26.827 8.20422 27.1318 7.90317 27.4406 7.60572C27.4694 7.57812 27.5014 7.55382 27.5326 7.52742C30.8301 12.2208 31.2951 19.7708 25.9896 25.33C20.4947 31.0877 11.4265 31.5359 5.37181 26.5937C-0.776923 21.5746 -1.50803 13.3344 2.46674 7.49457Z" fill="#133629"/>
<path fill-rule="evenodd" clip-rule="evenodd" d="M25.3176 5.63249C19.4167 -0.210446 9.82229 0.285004 4.70299 5.39924C4.73273 5.43179 4.7617 5.46629 4.79391 5.49749C8.1759 8.77963 11.5585 12.0612 14.9385 15.3454C15.0336 15.4378 15.0875 15.4266 15.1744 15.3412C15.6109 14.9124 16.0519 14.4879 16.493 14.0635C19.3451 11.3191 22.1975 8.57488 25.0515 5.83229C25.128 5.75864 25.2228 5.70284 25.3176 5.63249ZM15.0489 17.4177C10.9234 13.4083 6.80895 9.40978 2.68408 5.40104C2.71382 5.36264 2.73768 5.32604 2.76726 5.29439C4.25519 3.69555 5.98212 2.40375 7.99793 1.48455C9.09815 0.982801 10.2416 0.604652 11.4312 0.356553C12.8011 0.0709535 14.186 -0.0451462 15.585 0.0157537C17.6251 0.104253 19.5773 0.556652 21.443 1.3629C23.6864 2.3322 25.5803 3.7494 27.1876 5.53889C27.2806 5.64239 27.2271 5.68874 27.1556 5.75759C25.1562 7.68254 23.1577 9.60823 21.1596 11.5344C19.1657 13.4563 17.1724 15.3789 15.1784 17.301C15.1423 17.3358 15.1036 17.3685 15.0489 17.4177Z" fill="#133629"/>
<path fill-rule="evenodd" clip-rule="evenodd" d="M9.7333 14.6079C8.89578 15.3502 7.03409 15.5219 5.80174 14.3296C4.56521 13.1335 4.73451 11.3643 5.54647 10.4445C6.94409 11.8342 8.3397 13.222 9.7333 14.6079Z" fill="#133629"/>
<path fill-rule="evenodd" clip-rule="evenodd" d="M20.5624 14.3201C21.9646 12.9587 23.3603 11.6036 24.7558 10.2485C25.3456 10.888 25.6195 12.5204 24.5981 13.7237C23.4622 15.0617 21.5883 15.0541 20.5624 14.3201Z" fill="#133629"/>
</svg>
