<?xml version="1.0" encoding="UTF-8"?><svg id="Layer_1" xmlns="http://www.w3.org/2000/svg" viewBox="0 0 204.63 204.63"><defs><style>.cls-1{stroke-width:0px;}</style></defs><path class="cls-1" d="M143.28,102.31c10.78-10.26,17.74-24.52,18.45-40.37.07-1.47-1.16-2.69-2.63-2.69h-27.65c-1.32,0-2.48.98-2.6,2.3-1.17,13.62-12.63,24.34-26.55,24.34s-25.37-10.72-26.54-24.34c-.11-1.32-1.27-2.3-2.6-2.3h-27.65c-1.47,0-2.69,1.22-2.63,2.69.71,15.86,7.67,30.11,18.45,40.37-10.78,10.26-17.74,24.52-18.45,40.37-.07,1.47,1.16,2.69,2.63,2.69h27.65c1.32,0,2.48-.98,2.6-2.3,1.17-13.62,12.63-24.34,26.55-24.34s25.37,10.72,26.54,24.34c.11,1.32,1.27,2.3,2.6,2.3h27.65c1.47,0,2.69-1.22,2.63-2.69-.71-15.86-7.67-30.11-18.45-40.37Z"/><circle class="cls-1" cx="59.25" cy="172.27" r="16.42"/><circle class="cls-1" cx="145.38" cy="172.27" r="16.42"/><circle class="cls-1" cx="59.25" cy="32.35" r="16.42"/><circle class="cls-1" cx="145.38" cy="32.35" r="16.42"/></svg>