<svg xmlns="http://www.w3.org/2000/svg" fill="none" viewBox="0 0 30 30">
  <path fill="#000" d="M1 13.145c0-2.643.676-4.662 2.029-6.055C4.38 5.697 6.317 5 8.838 5c2.479 0 4.538.84 6.177 2.52 1.64-1.68 3.72-2.52 6.24-2.52 2.5 0 4.415.697 5.747 2.09C28.334 8.483 29 10.502 29 13.145v11.21c0 .599-.485 1.084-1.084 1.084h-2.288a1.084 1.084 0 0 1-1.085-1.084V12.653c0-1.086-.338-1.967-1.014-2.643-.676-.676-1.557-1.014-2.643-1.014-1.086 0-1.967.338-2.643 1.014-.677.676-1.015 1.557-1.015 2.643v11.702c0 .599-.485 1.084-1.084 1.084h-2.288a1.084 1.084 0 0 1-1.084-1.084V12.653c0-1.086-.338-1.967-1.015-2.643-.676-.676-1.557-1.014-2.643-1.014-1.086 0-1.967.338-2.643 1.014-.676.676-1.014 1.557-1.014 2.643v11.702c0 .599-.486 1.084-1.085 1.084H2.084A1.084 1.084 0 0 1 1 24.355v-11.21Z"/>
</svg>
