<svg xmlns="http://www.w3.org/2000/svg" fill="none" viewBox="0 0 30 30">
  <g clip-path="url(#japan_svg__a)">
    <path fill="#80FFEA" d="m14.712 11.722-3.122 3.122 3.406 3.406 3.122-3.122-3.406-3.406Z"/>
    <path fill="#929497" d="M29.999 15c0-4.973-3.477-7.854-5.99-8.91C23.302 4.463 20.831 0 15 0c-4.973 0-7.854 3.477-8.91 5.99C4.465 6.697 0 9.166 0 15c0 4.973 3.477 7.854 5.99 8.91C6.697 25.537 9.168 30 15 30c4.973 0 7.854-3.477 8.91-5.99C25.535 23.304 30 20.834 30 15L29.999 15Zm-15.066 2.942-1.416-1.384c-.482-.491-1.127-1.121-1.518-1.55l1.626-1.69c.448-.438 1.018-.885 1.411-1.242l.687.666c.777.794 1.526 1.628 2.118 2.286l-.736.784a65.498 65.498 0 0 1-2.173 2.129Z"/>
    <path fill="url(#japan_svg__b)" d="M6.066 23.942s2.186.693 4.385.62c2.858-.096 4.48-1.644 4.48-1.644s1.453.93 2.167 1.167c.715.239 2.144.287 2.144.287s-1.877 2.445-5.813 2.573c-5.147.167-7.363-3.002-7.363-3.002v-.001Z"/>
    <path fill="url(#japan_svg__c)" d="M23.956 24.017s.694-2.186.62-4.385c-.096-2.859-1.644-4.48-1.644-4.48s.766-1.433 1.004-2.147c.238-.715.449-2.323.449-2.323s2.446 2.036 2.573 5.972c.168 5.147-3.002 7.363-3.002 7.363Z"/>
    <path fill="url(#japan_svg__d)" d="M23.816 6.126s-2.185-.693-4.384-.62c-2.859.096-4.48 1.644-4.48 1.644s-1.454-.929-2.168-1.167c-.715-.24-2.143-.286-2.143-.286s1.877-2.446 5.813-2.573c5.147-.167 7.362 3.002 7.362 3.002Z"/>
    <path fill="url(#japan_svg__e)" d="M5.396 10.066c.096 2.858 1.77 5.034 1.77 5.034s-.93 1.453-1.168 2.167c-.239.715-.286 2.144-.286 2.144s-2.446-1.877-2.574-5.813c-.167-5.146 2.984-7.631 2.984-7.631-.542 1.447-.777 2.572-.726 4.099Z"/>
    <path fill="url(#japan_svg__f)" d="M15.001 22.894s0 .405 1.358.834c1.359.429 2.895.608 2.895.608s.712-.739 1.134-1.678c.464-1.036.546-1.897.546-1.897s-.882.083-1.548-.059c-.468-.1-1.191-.38-1.191-.38l-3.193 2.573-.001-.001Z"/>
    <path fill="url(#japan_svg__g)" d="M20.684 9.11s.106 1.5-.429 2.609c-.537 1.108-.822 1.358-.822 1.358l2.717 2.896s1.43-1.573 1.787-2.967c.357-1.394.428-2.252.428-2.252s-.607-.75-1.751-1.144c-1.144-.393-1.93-.5-1.93-.5Z"/>
    <path fill="url(#japan_svg__h)" d="m11.892 9.682 3.159-2.632s-.756-.68-2.042-1.037c-1.287-.357-2.225-.44-2.225-.44s-.809.802-1.185 1.799c-.377.996-.434 1.877-.434 1.877s.654.005 1.226.077c.571.072 1.501.357 1.501.357v-.001Z"/>
    <path fill="#90908F" d="m7.031 14.971 2.645 3.18s-.321.716-.357 1.287c-.035.572-.106 1.43-.106 1.43s-.966-.106-1.824-.465c-.858-.356-1.784-1.186-1.784-1.186s.147-1.716.433-2.288c.287-.571.994-1.958.994-1.958Z"/>
    <path fill="url(#japan_svg__i)" d="M17.788 15.079s1.072 1.143 1.43 1.502c.357.356 1.144 1.5 1.144 1.5l-2.168 2.24s-1.62-.953-1.978-1.24c-.357-.286-1.287-1.215-1.287-1.215l2.86-2.787Z"/>
    <path fill="url(#japan_svg__j)" d="M15.108 11.974s.876-.865 1.376-1.223c.5-.357 1.52-1.105 1.52-1.105l2.143 2.108s-.643 1.216-1.18 1.894c-.536.679-1.072 1.252-1.072 1.252l-2.787-2.926Z"/>
    <path fill="url(#japan_svg__k)" d="m7.032 14.971 2.645 3.18s-.298.5-.298 1.073c0 .571-.096 1.524-.096 1.524s-1.43-.239-2.335-.667c-.904-.429-1.305-.822-1.305-.822s.124-2.092.552-2.712c.429-.62.837-1.577.837-1.577v.001Z"/>
    <path fill="url(#japan_svg__l)" d="M9.569 11.886s.81 1.24 1.239 1.62c.428.38 1.191 1.502 1.191 1.502l2.907-2.979s-1-.952-1.335-1.287c-.333-.333-1.763-1.19-1.763-1.19l-2.24 2.334Z"/>
    <path fill="url(#japan_svg__m)" d="M11.963 20.403s.816-.639 1.567-1.21c.75-.572 1.398-1.327 1.398-1.327l-2.93-2.859-1.238 1.363-1.084 1.783 2.287 2.252v-.002Z"/>
    <path stroke="#80FFEA" stroke-linecap="round" stroke-linejoin="round" stroke-width=".159" d="M20.58 22.193c.237-.78.671-3.166-.537-4.692l-2.203-2.473M12.498 20.044c-1.525 1.208-3.911.774-4.691.537M5.99 23.91l.722.262c1.543.47 5.567 1.066 8.29-1.28M22.89 15.05c2.344 2.72 1.754 6.693 1.284 8.237M5.45 10.848c-.176-1.705.117-3.287.376-4.136.07-.227.157-.47.262-.721"/>
    <path stroke="#80FFEA" stroke-linecap="round" stroke-linejoin="round" stroke-width=".159" d="M14.95 22.89s4.312-2.782 7.621-7.388c1.795-2.498 1.796-4.513 1.786-4.763-1.047-.945-2.143-1.312-2.164-1.32a6.994 6.994 0 0 0-1.441-.254c0 .003.117 2.412-1.517 4.313-3.503 4.077-6.737 6.566-6.737 6.566"/>
    <path stroke="#80FFEA" stroke-linecap="round" stroke-linejoin="round" stroke-width=".159" d="M23.166 9.877s.237 2.635-1.662 4.95c-3.54 4.302-7.371 7.303-7.371 7.303"/>
    <path stroke="#80FFEA" stroke-linecap="round" stroke-linejoin="round" stroke-width=".159" d="m12.989 21.256.326-.264s3.674-2.59 7.122-6.84c1.73-2.138 1.596-4.467 1.546-4.79M7.11 14.95c-2.344-2.722-1.753-6.694-1.283-8.238.07-.228.156-.47.262-.721M9.42 7.807c-.238.78-.672 3.166.536 4.691"/>
    <path stroke="#80FFEA" stroke-linecap="round" stroke-linejoin="round" stroke-width=".159" d="M17.502 9.955c1.525-1.208 3.911-.774 4.691-.537M24.008 6.09a7.654 7.654 0 0 0-.72-.263c-1.544-.47-5.516-1.06-8.238 1.284M24.549 19.151c.176 1.705-.117 3.287-.376 4.136a7.87 7.87 0 0 1-.262.721M7.11 14.95s2.972 4.062 7.388 7.621c2.521 2.032 4.763 1.785 4.763 1.785.945-1.047 1.312-2.143 1.32-2.164.09-.294.207-.82.254-1.44-.003 0-2.412.252-4.313-1.382-4.078-3.503-6.567-6.873-6.567-6.873"/>
    <path stroke="#80FFEA" stroke-linecap="round" stroke-linejoin="round" stroke-width=".159" d="M20.122 23.166s-2.634.238-4.95-1.662c-4.302-3.54-7.195-7.488-7.195-7.488"/>
    <path stroke="#80FFEA" stroke-linecap="round" stroke-linejoin="round" stroke-width=".159" d="M20.638 21.983c-.325.05-2.683.22-4.791-1.546-4.19-3.522-7.127-7.535-7.127-7.535"/>
    <path stroke="#80FFEA" stroke-linecap="round" stroke-linejoin="round" stroke-width=".159" d="M15.05 7.11s-4.22 2.85-7.622 7.388c-2.087 2.78-1.786 4.57-1.786 4.763 1.047.945 2.143 1.312 2.164 1.32.295.09.82.207 1.441.254 0-.003-.121-2.563 1.513-4.465 3.504-4.079 6.741-6.414 6.741-6.414"/>
    <path stroke="#80FFEA" stroke-linecap="round" stroke-linejoin="round" stroke-width=".159" d="M6.833 20.122s-.197-2.602 1.662-4.95c3.465-4.363 7.372-7.303 7.372-7.303"/>
    <path stroke="#80FFEA" stroke-linecap="round" stroke-linejoin="round" stroke-width=".159" d="M8.016 20.638c-.05-.325-.146-2.622 1.547-4.791 3.3-4.23 7.512-7.029 7.512-7.029"/>
    <path stroke="#80FFEA" stroke-linecap="round" stroke-linejoin="round" stroke-width=".159" d="M17.841 15.028c.457-.487.924-1.004 1.393-1.55a6.586 6.586 0 0 0 1.013-1.657C19 10.463 17.41 8.966 15.5 7.428c-2.52-2.032-4.763-1.786-4.763-1.786-.945 1.047-1.312 2.143-1.319 2.164-.09.294-.207.82-.254 1.441.003 0 2.412-.252 4.313 1.381 1.858 1.597 3.25 3.165 4.363 4.4Z"/>
    <path stroke="#80FFEA" stroke-linecap="round" stroke-linejoin="round" stroke-width=".159" d="M9.877 6.833s2.634-.237 4.95 1.662c1.9 1.565 6.147 6.148 7.352 7.47"/>
    <path stroke="#80FFEA" stroke-linecap="round" stroke-linejoin="round" stroke-width=".159" d="M9.361 8.016c.325-.05 2.684-.22 4.791 1.546 1.866 1.57 6.127 6.15 7.284 7.425M20.248 11.82l2.642 3.23"/>
  </g>
  <defs>
    <linearGradient id="japan_svg__b" x1="19.242" x2="6.066" y1="24.935" y2="24.935" gradientUnits="userSpaceOnUse">
      <stop stop-color="#454545"/>
      <stop offset="1" stop-color="#454545" stop-opacity="0"/>
    </linearGradient>
    <linearGradient id="japan_svg__c" x1="24.948" x2="24.948" y1="10.682" y2="24.017" gradientUnits="userSpaceOnUse">
      <stop stop-color="#454545"/>
      <stop offset="1" stop-color="#454545" stop-opacity="0"/>
    </linearGradient>
    <linearGradient id="japan_svg__d" x1="10.641" x2="23.816" y1="5.134" y2="5.134" gradientUnits="userSpaceOnUse">
      <stop stop-color="#454545"/>
      <stop offset="1" stop-color="#454545" stop-opacity="0"/>
    </linearGradient>
    <linearGradient id="japan_svg__e" x1="5.149" x2="5.149" y1="20.678" y2="10.877" gradientUnits="userSpaceOnUse">
      <stop stop-color="#454545"/>
      <stop offset="1" stop-color="#454545" stop-opacity="0"/>
    </linearGradient>
    <linearGradient id="japan_svg__f" x1="17.069" x2="18.575" y1="20.942" y2="22.496" gradientUnits="userSpaceOnUse">
      <stop stop-color="#464646"/>
      <stop offset="1" stop-color="#90908F"/>
    </linearGradient>
    <linearGradient id="japan_svg__g" x1="22.736" x2="21.414" y1="9.972" y2="13.438" gradientUnits="userSpaceOnUse">
      <stop stop-color="#464646"/>
      <stop offset="1" stop-color="#90908F"/>
    </linearGradient>
    <linearGradient id="japan_svg__h" x1="9.988" x2="13.986" y1="6.519" y2="9.587" gradientUnits="userSpaceOnUse">
      <stop stop-color="#464646"/>
      <stop offset="1" stop-color="#90908F"/>
    </linearGradient>
    <linearGradient id="japan_svg__i" x1="19.449" x2="17.375" y1="15.798" y2="18.3" gradientUnits="userSpaceOnUse">
      <stop stop-color="#464646"/>
      <stop offset="1" stop-color="#90908F"/>
    </linearGradient>
    <linearGradient id="japan_svg__j" x1="16.682" x2="17.83" y1="10.662" y2="12.122" gradientUnits="userSpaceOnUse">
      <stop stop-color="#464646"/>
      <stop offset="1" stop-color="#90908F"/>
    </linearGradient>
    <linearGradient id="japan_svg__k" x1="9.136" x2="7.543" y1="16.679" y2="18.6" gradientUnits="userSpaceOnUse">
      <stop stop-color="#464646"/>
      <stop offset="1" stop-color="#90908F"/>
    </linearGradient>
    <linearGradient id="japan_svg__l" x1="8.767" x2="11.931" y1="15.664" y2="12.286" gradientUnits="userSpaceOnUse">
      <stop stop-color="#464646"/>
      <stop offset="1" stop-color="#90908F"/>
    </linearGradient>
    <linearGradient id="japan_svg__m" x1="16.376" x2="11.719" y1="22.325" y2="17.391" gradientUnits="userSpaceOnUse">
      <stop stop-color="#464646"/>
      <stop offset="1" stop-color="#90908F"/>
    </linearGradient>
    <clipPath id="japan_svg__a">
      <path fill="#fff" d="M0 0h30v30H0z"/>
    </clipPath>
  </defs>
</svg>
