<svg width="30" height="30" viewBox="0 0 30 30" fill="none" xmlns="http://www.w3.org/2000/svg">
<g clip-path="url(#clip0_11638_4357)">
<path d="M23.5637 23.5629C32.1474 21.3815 32.144 8.61255 23.562 6.43624C21.3873 -2.14907 8.61141 -2.14231 6.43844 6.43793C-2.14699 8.61424 -2.1453 21.3917 6.43844 23.5629C8.61479 32.1482 21.3907 32.1432 23.5637 23.5629ZM26.8992 9.31884C31.1302 13.3437 29.3019 20.9152 23.7664 22.6201C23.834 22.1892 23.8712 21.7533 23.8746 21.3173C29.3797 19.1934 29.3797 10.8108 23.8746 8.68521C23.8695 8.25096 23.8323 7.81502 23.7631 7.38246C24.9104 7.76264 25.9884 8.40979 26.8975 9.32053L26.8992 9.31884ZM21.3366 14.9996C22.293 14.0263 22.979 12.8841 23.3947 11.6692C25.7738 13.1578 25.7755 16.8413 23.3947 18.33C22.9807 17.1168 22.2913 15.9695 21.3366 14.9996ZM20.8365 19.8051C22.3944 25.479 14.8076 29.7827 10.7506 25.4672C8.17546 22.9901 8.55058 18.6425 11.2879 16.4341C11.6411 16.0894 12.3744 15.3409 12.7208 14.9996C13.618 14.104 14.6994 13.021 15.595 12.1254C16.5767 11.164 17.6074 9.92544 18.917 9.44726C18.7902 10.1873 18.4557 10.919 17.9014 11.4935C17.871 11.5239 17.8356 11.556 17.8051 11.5864C16.4297 12.9618 14.9326 14.4606 13.5572 15.8343C12.9844 16.4088 12.1598 17.23 11.587 17.8045C9.71817 19.6141 9.71648 22.8228 11.587 24.6274C16.0816 28.9801 22.7273 22.5086 18.503 17.9025L18.4675 17.8653L19.3039 17.0289C20.0727 17.818 20.5813 18.7591 20.8348 19.8017L20.8365 19.8051ZM6.16133 20.4083C1.70555 18.4026 1.70724 11.6033 6.15964 9.59595C6.1985 10.0099 6.2644 10.4222 6.36071 10.8294C3.19081 12.5681 3.1925 17.4395 6.36071 19.1782C6.2644 19.5837 6.1985 19.996 6.16133 20.41V20.4083ZM5.96532 17.8163C4.18436 16.0759 4.5071 13.0091 6.60234 11.6709C7.01632 12.8841 7.70572 14.0314 8.6621 15.0013C7.70572 15.9745 7.0197 17.1168 6.60403 18.3333C6.37761 18.1863 6.16471 18.0123 5.96532 17.8146V17.8163ZM12.1311 11.5323C11.5532 10.9629 11.2085 10.2059 11.0784 9.45233C11.7644 9.73451 12.4065 10.1485 12.9675 10.6959L12.1311 11.5323ZM11.0294 8.53145C11.0547 8.13606 11.1375 7.74236 11.2795 7.36725C12.42 7.7373 13.4913 8.36924 14.4004 9.26139L13.5656 10.0961C12.8222 9.37123 11.9537 8.84911 11.0294 8.52976V8.53145ZM14.9985 8.66494C14.0252 7.70857 12.883 7.02256 11.6681 6.60689C13.1567 4.22781 16.8403 4.22612 18.3289 6.60689C17.1157 7.02087 15.9667 7.71195 14.9985 8.66662V8.66494ZM18.4117 5.37173C13.9137 1.0174 7.27485 7.4906 11.4941 12.0967L11.5312 12.1356L10.6948 12.972C5.32323 7.26756 13.6062 -0.918979 19.2481 4.53534C21.5749 6.78769 21.5766 10.777 19.2481 13.0311C17.8744 14.4048 16.3773 15.9019 15.0019 17.2773C13.7954 18.406 12.6532 19.9453 11.0818 20.5502C11.2085 19.8084 11.5447 19.0852 12.0956 18.5074H12.0973C13.5048 17.1016 15.034 15.5741 16.4415 14.1649C17.016 13.5904 17.8389 12.7692 18.4117 12.1947C20.2823 10.3884 20.2806 7.17463 18.4117 5.37173ZM17.8693 18.4719C17.8964 18.4989 17.92 18.5226 17.9488 18.5479C18.4743 19.1241 18.7987 19.8236 18.9203 20.5519C18.236 20.268 17.5922 19.8557 17.0329 19.31L17.8693 18.4736V18.4719ZM18.9693 21.4728C18.9457 21.8699 18.8629 22.2619 18.7193 22.637C17.5804 22.2652 16.5074 21.635 15.5984 20.7428L16.4331 19.9081C17.1766 20.633 18.0451 21.1551 18.9677 21.4728H18.9693ZM14.9613 21.3765L15.0002 21.3393C15.9735 22.2957 17.1157 22.9817 18.3306 23.3973C16.8403 25.7781 13.1567 25.7798 11.6664 23.3973C12.8661 22.9867 13.9931 22.3142 14.9597 21.3765H14.9613ZM24.6282 11.5898C24.324 11.2856 23.9912 11.0322 23.6363 10.8277C23.7326 10.4205 23.8002 10.0099 23.8374 9.59426C28.2898 11.6033 28.2898 18.3975 23.8374 20.4066C23.8002 19.9926 23.7326 19.5803 23.6363 19.1731C26.3449 17.6524 26.862 13.7593 24.6265 11.5898H24.6282ZM9.31771 3.10248C17.452 -4.4555 28.3709 7.56664 20.1437 15.0013C19.4746 15.6704 18.5435 16.6014 17.8744 17.2705C15.8265 19.141 14.0168 21.7972 11.2845 22.6353C11.1392 22.2619 11.0581 21.8682 11.0345 21.4711C11.9418 21.1551 12.7968 20.6448 13.5302 19.9402C15.6288 17.8416 17.8068 15.6653 19.9054 13.5667C22.5059 10.9731 22.4772 6.49369 19.8463 3.93719C13.3274 -2.25045 3.99005 6.98539 10.095 13.5701L9.26026 14.4048C6.19681 11.36 6.22385 6.12026 9.3194 3.10248H9.31771ZM3.09957 20.6837C-1.13147 16.6605 0.696796 9.08398 6.23567 7.38246C6.16808 7.81333 6.13091 8.24927 6.12415 8.68521C0.617379 10.8091 0.619068 19.1985 6.12584 21.319C6.12922 21.755 6.1664 22.1909 6.23567 22.6218C5.08667 22.2399 4.01032 21.5961 3.09788 20.6837H3.09957ZM9.3194 26.9017C5.96025 23.6474 6.31002 17.9768 9.85673 15.0013C10.5259 14.3322 11.4569 13.4011 12.126 12.7303C14.1756 10.8615 15.9802 8.20027 18.7159 7.36556C18.8595 7.74068 18.9423 8.13268 18.966 8.52976C18.018 8.85587 17.1174 9.40671 16.3706 10.1552C14.9951 11.5306 13.4981 13.0294 12.1226 14.4031C10.8063 15.765 9.08791 17.1134 8.52692 18.9703C6.08191 25.6649 14.8549 31.1986 19.8429 26.0637C22.4755 23.5055 22.5042 19.0278 19.9021 16.4341L20.7368 15.5994C27.9248 23.3078 16.9569 34.1674 9.31433 26.9017H9.3194Z" fill="url(#paint0_linear_11638_4357)"/>
</g>
<defs>
<linearGradient id="paint0_linear_11638_4357" x1="1.88588" y1="30" x2="30" y2="30" gradientUnits="userSpaceOnUse">
<stop stop-color="#CCCCCC"/>
<stop offset="0.171875" stop-color="#BDBDBD"/>
<stop offset="1" stop-color="#AFAFAF"/>
</linearGradient>
<clipPath id="clip0_11638_4357">
<rect width="30" height="30" fill="white"/>
</clipPath>
</defs>
</svg>
