<svg width="30" height="30" viewBox="0 0 30 30" fill="none" xmlns="http://www.w3.org/2000/svg">
<g clip-path="url(#clip0_11638_4353)">
<path d="M23.4012 23.5629C31.9257 21.3815 31.9224 8.61255 23.3995 6.43624C21.2398 -2.14907 8.55202 -2.14231 6.39404 6.43793C-2.13218 8.61424 -2.13051 21.3917 6.39404 23.5629C8.55538 32.1482 21.2432 32.1432 23.4012 23.5629ZM26.7137 9.31884C30.9155 13.3437 29.0999 20.9152 23.6025 22.6201C23.6697 22.1892 23.7066 21.7533 23.7099 21.3173C29.177 19.1934 29.177 10.8108 23.7099 8.68521C23.7049 8.25096 23.668 7.81502 23.5992 7.38246C24.7386 7.76264 25.8092 8.40979 26.712 9.32053L26.7137 9.31884ZM21.1895 14.9996C22.1393 14.0263 22.8206 12.8841 23.2334 11.6692C25.5961 13.1578 25.5977 16.8413 23.2334 18.33C22.8222 17.1168 22.1376 15.9695 21.1895 14.9996ZM20.6928 19.8051C22.24 25.479 14.7055 29.7827 10.6764 25.4672C8.11908 22.9901 8.49161 18.6425 11.2101 16.4341C11.5608 16.0894 12.2891 15.3409 12.6331 14.9996C13.5241 14.104 14.5981 13.021 15.4874 12.1254C16.4624 11.164 17.486 9.92544 18.7865 9.44726C18.6607 10.1873 18.3284 10.919 17.778 11.4935C17.7478 11.5239 17.7125 11.556 17.6823 11.5864C16.3164 12.9618 14.8296 14.4606 13.4637 15.8343C12.8948 16.4088 12.0759 17.23 11.5071 17.8045C9.65115 19.6141 9.64947 22.8228 11.5071 24.6274C15.9707 28.9801 22.5705 22.5086 18.3754 17.9025L18.3401 17.8653L19.1708 17.0289C19.9343 17.818 20.4394 18.7591 20.6911 19.8017L20.6928 19.8051ZM6.11883 20.4083C1.69379 18.4026 1.69547 11.6033 6.11716 9.59595C6.15575 10.0099 6.2212 10.4222 6.31685 10.8294C3.16881 12.5681 3.17048 17.4395 6.31685 19.1782C6.2212 19.5837 6.15575 19.996 6.11883 20.41V20.4083ZM5.92418 17.8163C4.1555 16.0759 4.47601 13.0091 6.55681 11.6709C6.96793 12.8841 7.65258 14.0314 8.60236 15.0013C7.65258 15.9745 6.97129 17.1168 6.55849 18.3333C6.33363 18.1863 6.12219 18.0123 5.92418 17.8146V17.8163ZM12.0474 11.5323C11.4735 10.9629 11.1312 10.2059 11.002 9.45233C11.6833 9.73451 12.3209 10.1485 12.8781 10.6959L12.0474 11.5323ZM10.9533 8.53145C10.9785 8.13606 11.0607 7.74236 11.2017 7.36725C12.3344 7.7373 13.3983 8.36924 14.3011 9.26139L13.4721 10.0961C12.7337 9.37123 11.8712 8.84911 10.9533 8.52976V8.53145ZM14.8951 8.66494C13.9285 7.70857 12.7942 7.02256 11.5876 6.60689C13.066 4.22781 16.7242 4.22612 18.2025 6.60689C16.9977 7.02087 15.8566 7.71195 14.8951 8.66662V8.66494ZM18.2848 5.37173C13.8178 1.0174 7.22468 7.4906 11.4148 12.0967L11.4517 12.1356L10.6211 12.972C5.28652 7.26756 13.5124 -0.918979 19.1154 4.53534C21.4261 6.78769 21.4278 10.777 19.1154 13.0311C17.7511 14.4048 16.2644 15.9019 14.8984 17.2773C13.7003 18.406 12.5659 19.9453 11.0053 20.5502C11.1312 19.8084 11.4651 19.0852 12.0122 18.5074H12.0139C13.4117 17.1016 14.9303 15.5741 16.3281 14.1649C16.8987 13.5904 17.7159 12.7692 18.2848 12.1947C20.1424 10.3884 20.1407 7.17463 18.2848 5.37173ZM17.7461 18.4719C17.773 18.4989 17.7964 18.5226 17.825 18.5479C18.3469 19.1241 18.669 19.8236 18.7899 20.5519C18.1102 20.268 17.4709 19.8557 16.9155 19.31L17.7461 18.4736V18.4719ZM18.8385 21.4728C18.815 21.8699 18.7328 22.2619 18.5902 22.637C17.4592 22.2652 16.3936 21.635 15.4908 20.7428L16.3198 19.9081C17.0581 20.633 17.9206 21.1551 18.8368 21.4728H18.8385ZM14.8582 21.3765L14.8968 21.3393C15.8633 22.2957 16.9977 22.9817 18.2042 23.3973C16.7242 25.7781 13.066 25.7798 11.586 23.3973C12.7774 22.9867 13.8966 22.3142 14.8565 21.3765H14.8582ZM24.4583 11.5898C24.1563 11.2856 23.8257 11.0322 23.4733 10.8277C23.569 10.4205 23.6361 10.0099 23.673 9.59426C28.0947 11.6033 28.0947 18.3975 23.673 20.4066C23.6361 19.9926 23.569 19.5803 23.4733 19.1731C26.1633 17.6524 26.6767 13.7593 24.4567 11.5898H24.4583ZM9.25345 3.10248C17.3316 -4.4555 28.1752 7.56664 20.0048 15.0013C19.3403 15.6704 18.4157 16.6014 17.7511 17.2705C15.7173 19.141 13.9201 21.7972 11.2067 22.6353C11.0624 22.2619 10.9818 21.8682 10.9584 21.4711C11.8595 21.1551 12.7086 20.6448 13.4369 19.9402C15.521 17.8416 17.684 15.6653 19.7682 13.5667C22.3507 10.9731 22.3222 6.49369 19.7094 3.93719C13.2355 -2.25045 3.96253 6.98539 10.0254 13.5701L9.19639 14.4048C6.15407 11.36 6.18092 6.12026 9.25513 3.10248H9.25345ZM3.07819 20.6837C-1.12367 16.6605 0.69199 9.08398 6.19267 7.38246C6.12555 7.81333 6.08863 8.24927 6.08192 8.68521C0.613121 10.8091 0.614799 19.1985 6.08359 21.319C6.08695 21.755 6.12387 22.1909 6.19267 22.6218C5.05159 22.2399 3.98266 21.5961 3.07651 20.6837H3.07819ZM9.25513 26.9017C5.91915 23.6474 6.2665 17.9768 9.78875 15.0013C10.4533 14.3322 11.3779 13.4011 12.0424 12.7303C14.0779 10.8615 15.87 8.20027 18.5868 7.36556C18.7295 7.74068 18.8117 8.13268 18.8352 8.52976C17.8938 8.85587 16.9994 9.40671 16.2577 10.1552C14.8917 11.5306 13.405 13.0294 12.039 14.4031C10.7318 15.765 9.02523 17.1134 8.46812 18.9703C6.03997 25.6649 14.7524 31.1986 19.7061 26.0637C22.3205 23.5055 22.349 19.0278 19.7648 16.4341L20.5938 15.5994C27.7322 23.3078 16.84 34.1674 9.25009 26.9017H9.25513Z" fill="#0D0D0D"/>
</g>
<defs>
<clipPath id="clip0_11638_4353">
<rect width="30" height="30" fill="white"/>
</clipPath>
</defs>
</svg>
