<svg width="30" height="30" viewBox="0 0 30 30" fill="none" xmlns="http://www.w3.org/2000/svg">
<g clip-path="url(#clip0_11932_20918)">
<path d="M23.4983 0.0422774C25.1178 -0.153891 26.7574 0.338623 27.9965 1.39459C29.2166 2.4343 29.9455 3.94006 29.9966 5.52666C29.9988 5.58982 30 5.65313 30 5.71414C30 5.96218 30.0003 6.14182 28.0189 22.2133C27.8912 23.2466 27.8004 23.9846 27.7678 24.2526C27.5917 25.6955 26.9744 27.0327 26.0303 28.0178V28.0165C24.9548 29.1395 23.5095 29.758 21.9612 29.758C21.8955 29.758 21.8292 29.7568 21.7629 29.7546C19.6716 29.6844 17.786 28.4626 16.8403 26.5674L16.8328 26.5539C15.8313 24.4403 14.6801 20.1837 12.1336 17.6515C9.58686 15.1191 5.30041 13.9678 3.17435 12.9718C1.2865 12.0353 0.0714293 10.1717 0.00338417 8.10809C0.00121029 8.04273 0 7.97883 0 7.91721C2.8117e-05 7.43206 0.0614454 6.94898 0.182068 6.48164C0.756529 4.25357 2.70567 2.56726 5.03226 2.28463L23.4983 0.0422774ZM21.9612 20.3317C19.9222 20.3317 18.2665 21.9851 18.2664 24.0083C18.2665 26.0374 19.9276 27.6848 21.9612 27.6848C23.9947 27.6847 25.6614 26.0314 25.6615 24.0083C25.6613 21.9852 24.0007 20.3319 21.9612 20.3317ZM5.82415 4.27587C3.79069 4.276 2.12405 5.92933 2.1239 7.95242C2.12398 9.98154 3.78467 11.6289 5.82415 11.629C7.86373 11.629 9.51894 9.97565 9.519 7.95242C9.51887 5.92926 7.8577 4.27587 5.82415 4.27587ZM24.1772 2.07345C22.1381 2.07345 20.4825 3.72684 20.4823 5.75001C20.4825 7.77915 22.1436 9.4266 24.1772 9.4266C26.2107 9.42639 27.8773 7.77312 27.8774 5.75001C27.8772 3.72695 26.2166 2.07363 24.1772 2.07345Z" fill="url(#paint0_linear_11932_20918)"/>
</g>
<defs>
<linearGradient id="paint0_linear_11932_20918" x1="6.34166" y1="19.9606" x2="25.4706" y2="-2.49508" gradientUnits="userSpaceOnUse">
<stop stop-color="white"/>
<stop offset="1" stop-color="white"/>
</linearGradient>
<clipPath id="clip0_11932_20918">
<rect width="30" height="30" fill="white"/>
</clipPath>
</defs>
</svg>
