<svg width="30" height="30" viewBox="0 0 30 30" fill="none" xmlns="http://www.w3.org/2000/svg">
<g clip-path="url(#clip0_11932_20914)">
<path d="M26.0305 28.0175C26.9745 27.0324 27.5914 25.6954 27.7674 24.2525C27.8 23.9845 27.8908 23.2468 28.0185 22.2136C30 6.14187 30 5.96243 30 5.71438C30 5.65331 29.9989 5.59008 29.9967 5.52685C29.9457 3.94022 29.2163 2.43464 27.9963 1.3949C26.7571 0.338943 25.118 -0.15391 23.4985 0.042258L5.03197 2.28441C2.70538 2.56704 0.756504 4.25366 0.182062 6.48175C0.0614119 6.94923 0 7.4323 0 7.91759C0 7.97921 0.00108693 8.04248 0.00326081 8.10784C0.0711947 10.1717 1.28639 12.0355 3.1744 12.972C5.30045 13.968 9.58681 15.1191 12.1334 17.6515C14.6801 20.1838 15.8312 24.4406 16.8328 26.5542L16.8399 26.5676C17.7855 28.4628 19.6714 29.6841 21.7627 29.7544C21.8289 29.7566 21.8953 29.7577 21.961 29.7577C23.5094 29.7577 24.9544 29.1395 26.0299 28.0165L26.0305 28.0175Z" fill="url(#paint0_linear_11932_20914)"/>
<path opacity="0.4" d="M18.2659 24.0076C18.2659 26.0368 19.9267 27.6839 21.9604 27.6839C23.994 27.6839 25.6608 26.0309 25.6608 24.0076C25.6608 21.9843 24 20.3312 21.9604 20.3312C19.9213 20.3312 18.2659 21.9843 18.2659 24.0076Z" fill="white"/>
<path opacity="0.4" d="M20.4822 5.74939C20.4822 7.77864 22.1431 9.4258 24.1767 9.4258C26.2104 9.4258 27.8771 7.77268 27.8771 5.74939C27.8771 3.72611 26.2163 2.073 24.1767 2.073C22.1376 2.073 20.4822 3.72611 20.4822 5.74939Z" fill="white"/>
<path opacity="0.4" d="M2.12354 7.95313C2.12354 9.98239 3.78438 11.6295 5.82401 11.6295C7.86367 11.6295 9.51853 9.97642 9.51853 7.95313C9.51853 5.92984 7.85764 4.27673 5.82401 4.27673C3.79036 4.27673 2.12354 5.92984 2.12354 7.95313Z" fill="white"/>
</g>
<defs>
<linearGradient id="paint0_linear_11932_20914" x1="6.34163" y1="19.9605" x2="25.4705" y2="-2.49507" gradientUnits="userSpaceOnUse">
<stop stop-color="#9B8564"/>
<stop offset="1" stop-color="#DBD5C7"/>
</linearGradient>
<clipPath id="clip0_11932_20914">
<rect width="30" height="30" fill="white"/>
</clipPath>
</defs>
</svg>
