<?xml version="1.0" encoding="utf-8"?>
<!-- Generator: Adobe Illustrator 28.1.0, SVG Export Plug-In . SVG Version: 6.00 Build 0)  -->
<svg version="1.1" id="Layer_1" xmlns="http://www.w3.org/2000/svg" xmlns:xlink="http://www.w3.org/1999/xlink" x="0px" y="0px"
	 viewBox="0 0 16 16" style="enable-background:new 0 0 16 16;" xml:space="preserve">
<style type="text/css">
	.st0{fill:#0C152E;}
</style>
<g>
	<g>
		<path class="st0" d="M6.6,15.6l2-2.2c0,0,0-0.1,0-0.1H6.3c0,0,0,0,0,0l-1.9-2.1c0,0,0,0,0-0.1l3.1-5.3c0,0,0,0,0-0.1L6.2,3.5
			c0,0-0.1,0-0.1,0l-4.6,7.9c0,0,0,0,0,0.1l3.7,4.1c0,0,0,0,0,0L6.6,15.6C6.6,15.6,6.6,15.6,6.6,15.6"/>
		<path class="st0" d="M8,0.4L6.7,2.6c0,0,0,0,0,0.1L8,5l3.6,6.1c0,0,0,0,0,0.1l-1.9,2.1h0l-2,2.3c0,0,0,0.1,0,0.1h3c0,0,0,0,0,0
			l3.7-4.1c0,0,0,0,0-0.1L8,0.4C8,0.4,8,0.4,8,0.4"/>
	</g>
</g>
</svg>
