<svg xmlns="http://www.w3.org/2000/svg" fill="none" viewBox="0 0 30 30">
  <g fill="#DED9D9" clip-path="url(#mega-eth-dark_svg__a)">
    <path d="M12.316 20.54a1.306 1.306 0 1 1 .002 2.611 1.306 1.306 0 0 1-.002-2.612Zm5.395 0a1.306 1.306 0 1 1 .001 2.611 1.306 1.306 0 0 1-.001-2.612ZM12.524 8.401l2.541 7.455h.027l2.404-7.455h3.36v10.683a10.785 10.785 0 0 0-1.95-.774v-6.746l-.032-.857-2.976 7.117c-.384-.026-.488-.046-.884-.046-.397 0-.507.014-.891.046l-2.976-7.039-.033.857v6.668a10.42 10.42 0 0 0-1.95.774V8.402h3.36Z"/>
    <path d="M15.014 0C6.733 0 0 6.727 0 15s6.733 15 15.014 15c8.28 0 15.013-6.727 15.013-15S23.294 0 15.014 0Zm0 28C7.838 28 2 22.169 2 15S7.838 2 15.014 2c7.175 0 13.012 5.831 13.012 13s-5.837 13-13.012 13Z"/>
  </g>
  <defs>
    <clipPath id="mega-eth-dark_svg__a">
      <path fill="#fff" d="M0 0h30v30H0z"/>
    </clipPath>
  </defs>
</svg>
