<svg xmlns="http://www.w3.org/2000/svg" fill="none" viewBox="0 0 30 30">
  <g clip-path="url(#mega-eth-dark_svg__a)">
    <g clip-path="url(#mega-eth-dark_svg__b)">
      <g fill="#dfd9d9" clip-path="url(#mega-eth-dark_svg__c)">
        <path d="M17.93 23.324a1.662 1.662 0 1 0-1.658-1.66c0 .916.743 1.66 1.658 1.66m-5.969.049c.922 0 1.659-.744 1.659-1.661s-.737-1.66-1.659-1.66a1.66 1.66 0 0 0 0 3.32"/>
        <path d="M8.325 6.022h3.957c.744 2.015 2.687 7.721 2.829 8.04.035-.16 1.992-6.379 2.545-8.004h4.113v14.187c-.51-.283-1.021-.565-1.574-.883-.383-.195-.738-.407-1.128-.566-.035-2.756-.07-5.494-.156-8.357-.553 1.643-2.46 7.439-2.616 7.598h-2.546s-2.474-7.032-2.595-7.35c-.035 2.703-.07 5.406-.163 8.198Q8.715 20.05 8.29 20.21V6.022z"/>
        <path d="M15.004 2.385c6.941 0 12.614 5.654 12.614 12.615s-5.652 12.615-12.614 12.615S2.39 21.96 2.39 15 8.04 2.385 15.004 2.385m0-2.385C6.714 0 0 6.714 0 15s6.715 15 15.004 15C23.285 30 30 23.286 30 15S23.285 0 15.004 0"/>
      </g>
    </g>
  </g>
  <defs>
    <clipPath id="mega-eth-dark_svg__a">
      <path fill="#fff" d="M0 0h30v30H0z"/>
    </clipPath>
    <clipPath id="mega-eth-dark_svg__b">
      <path fill="#fff" d="M0 0h30v30H0z"/>
    </clipPath>
    <clipPath id="mega-eth-dark_svg__c">
      <path fill="#fff" d="M0 0h30v30H0z"/>
    </clipPath>
  </defs>
</svg>
