<svg xmlns="http://www.w3.org/2000/svg" fill="none" viewBox="0 0 30 30">
  <g clip-path="url(#moca_svg__a)">
    <path fill="#EF61B4" d="M15.153 0C6.87-.083.086 6.564.001 14.848c-.085 8.283 6.562 15.067 14.846 15.152 8.283.085 15.067-6.562 15.152-14.846C30.084 6.87 23.437.086 15.153.001Zm2.745 17.284c-.733 0-1.313-.58-1.313-1.312 0-.733.58-1.313 1.313-1.313.732 0 1.312.58 1.312 1.313 0 .732-.58 1.312-1.312 1.312Zm7.141 3.426a.962.962 0 0 1-.511.136c-.358 0-.716-.187-.903-.528l-5.727-9.937-5.727 9.937c-.29.494-.92.665-1.415.375a1.033 1.033 0 0 1-.375-1.415l3.58-6.204-1.552-2.693-5.727 9.937a1.03 1.03 0 1 1-1.79-1.023l6.63-11.488a1.03 1.03 0 0 1 .904-.511c.375 0 .716.204.904.511l1.857 3.205 1.858-3.205a1.03 1.03 0 0 1 .904-.511c.375 0 .716.204.903.511l6.63 11.488c.29.494.12 1.125-.375 1.415h-.068Z"/>
  </g>
  <defs>
    <clipPath id="moca_svg__a">
      <path fill="#fff" d="M0 0h30v30H0z"/>
    </clipPath>
  </defs>
</svg>
