<svg xmlns="http://www.w3.org/2000/svg" fill="none" viewBox="0 0 30 30">
  <path fill="#5353D3" fill-rule="evenodd" d="M12.161 2.295c0-.715-.582-1.295-1.3-1.295H7.784c-.718 0-1.3.58-1.3 1.295v3.069c0 .715-.582 1.295-1.3 1.295H2.3C1.582 6.659 1 7.239 1 7.954v18.914c0 .715.582 1.295 1.3 1.295h3.079c.717 0 1.299-.58 1.299-1.295V7.954c0-.715.582-1.295 1.3-1.295h2.884c.717 0 1.3-.58 1.3-1.295V2.295Zm11.356 0c0-.715-.582-1.295-1.3-1.295h-3.079c-.717 0-1.3.58-1.3 1.295v3.069c0 .715.583 1.295 1.3 1.295h2.885c.717 0 1.3.58 1.3 1.295v18.914c0 .715.58 1.295 1.299 1.295H27.7c.717 0 1.299-.58 1.299-1.295V7.954c0-.715-.582-1.295-1.3-1.295h-2.884c-.717 0-1.3-.58-1.3-1.295V2.295Zm-5.678 10.833c0-.715-.582-1.295-1.3-1.295H13.46c-.717 0-1.299.58-1.299 1.295v8.405c0 .715.582 1.295 1.3 1.295h3.079c.717 0 1.299-.58 1.299-1.295v-8.405Z" clip-rule="evenodd"/>
</svg>
