<svg width="30" height="30" viewBox="0 0 30 30" fill="none" xmlns="http://www.w3.org/2000/svg">
<mask id="mask0_10135_68385" style="mask-type:luminance" maskUnits="userSpaceOnUse" x="2" y="2" width="26" height="26">
<path d="M2 2H28V28H2V2Z" fill="white"/>
</mask>
<g mask="url(#mask0_10135_68385)">
<path d="M13.1237 14.2218L3.55835 4.66248V14.2218H13.1237Z" fill="#FF86FF"/>
<path d="M3.33642 2.23151L15.553 14.4472C15.6628 14.5582 15.7369 14.6997 15.7657 14.8533C15.7944 15.0068 15.7764 15.1655 15.7141 15.3088C15.6518 15.452 15.548 15.5733 15.4161 15.6571C15.2842 15.7408 15.1302 15.783 14.974 15.7784H2.78089C2.67812 15.7792 2.57622 15.7595 2.48111 15.7206C2.38601 15.6816 2.29961 15.6241 2.22693 15.5515C2.15426 15.4788 2.09677 15.3924 2.05782 15.2973C2.01886 15.2022 1.99922 15.1003 2.00002 14.9975V2.77578C2.00091 2.62131 2.04759 2.47058 2.13416 2.34265C2.22072 2.21471 2.34329 2.11533 2.48635 2.05707C2.62941 1.9988 2.78653 1.98428 2.93785 2.01533C3.08917 2.04638 3.22787 2.12161 3.33642 2.23151Z" fill="#FF86FF"/>
<path d="M16.885 15.7784L26.4443 25.3378V15.7784H16.885Z" fill="#E200F1"/>
<path d="M26.6636 27.7625L14.4479 15.5468C14.3028 15.4006 14.2214 15.2029 14.2214 14.9969C14.2214 14.7909 14.3028 14.5933 14.4479 14.447C14.5241 14.3725 14.6146 14.3141 14.714 14.2754C14.8133 14.2367 14.9194 14.2184 15.026 14.2217H27.2477C27.4534 14.2217 27.6507 14.3034 27.7962 14.4489C27.9416 14.5943 28.0234 14.7916 28.0234 14.9974V27.2191C28.0242 27.3214 28.0047 27.4229 27.9661 27.5177C27.9274 27.6124 27.8704 27.6986 27.7983 27.7712C27.7262 27.8438 27.6404 27.9014 27.5459 27.9407C27.4514 27.9799 27.35 28.0001 27.2477 28C27.1401 28.0018 27.0333 27.9816 26.9338 27.9408C26.8343 27.9 26.7441 27.8393 26.6688 27.7625" fill="#E200F1"/>
<path d="M15.5521 15.5462L3.33639 27.7636C3.26115 27.8404 3.17097 27.9011 3.0714 27.9418C2.97184 27.9825 2.86499 28.0024 2.75745 28.0002C2.65468 28.001 2.55278 27.9813 2.45768 27.9424C2.36257 27.9034 2.27617 27.8459 2.2035 27.7733C2.13082 27.7006 2.07334 27.6142 2.03438 27.5191C1.99542 27.424 1.97578 27.3221 1.97659 27.2193V14.9976C1.97658 14.8953 1.99682 14.794 2.03612 14.6995C2.07543 14.6051 2.13303 14.5193 2.20561 14.4473C2.27819 14.3752 2.36431 14.3181 2.45902 14.2795C2.55373 14.2408 2.65515 14.2212 2.75745 14.2219H15.0026C15.1589 14.2152 15.3136 14.2559 15.4463 14.3388C15.5791 14.4217 15.6836 14.5428 15.7462 14.6862C15.8087 14.8296 15.8264 14.9886 15.7969 15.1423C15.7673 15.2959 15.6919 15.437 15.5807 15.547" fill="#FF59FF"/>
<path d="M3.55835 25.3378L13.1237 15.7784H3.55835V25.3378Z" fill="#FF59FF"/>
<path d="M2.23143 26.6689L14.4471 14.4541C14.5218 14.3769 14.6121 14.3164 14.7118 14.2765C14.8116 14.2366 14.9187 14.2183 15.026 14.2227C15.2316 14.2229 15.4287 14.3047 15.5739 14.4502C15.7192 14.5956 15.8008 14.7928 15.8008 14.9983V27.2201C15.8014 27.3223 15.7818 27.4236 15.7431 27.5182C15.7045 27.6128 15.6475 27.6988 15.5755 27.7714C15.5036 27.8439 15.418 27.9015 15.3237 27.9409C15.2294 27.9803 15.1282 28.0007 15.026 28.0009H2.78003C2.67765 28.0017 2.57619 27.9816 2.48186 27.9418C2.38753 27.902 2.30231 27.8434 2.23143 27.7695C2.15824 27.6979 2.10009 27.6123 2.06039 27.5179C2.02069 27.4235 2.00024 27.3221 2.00024 27.2196C2.00024 27.1172 2.02069 27.0158 2.06039 26.9214C2.10009 26.827 2.15824 26.7405 2.23143 26.6689Z" fill="#F41AFA"/>
<path d="M14.2234 16.8833L4.66406 26.4426H14.2234V16.8833Z" fill="#F41AFA"/>
<path d="M14.4471 14.4471L26.6627 2.23144C26.7384 2.15547 26.8288 2.09576 26.9283 2.05596C27.0279 2.01617 27.1345 1.99714 27.2417 2.00004C27.4474 2.00004 27.6447 2.08177 27.7902 2.22723C27.9356 2.3727 28.0173 2.56999 28.0173 2.77571V14.9974C28.0181 15.0998 27.9987 15.2013 27.96 15.296C27.9214 15.3908 27.8644 15.4769 27.7923 15.5495C27.7201 15.6221 27.6344 15.6797 27.5399 15.719C27.4454 15.7583 27.344 15.7784 27.2417 15.7783H15.0026C14.8463 15.7832 14.6922 15.7411 14.5601 15.6574C14.4281 15.5737 14.3242 15.4523 14.2619 15.3089C14.1996 15.1654 14.1818 15.0066 14.2108 14.853C14.2398 14.6994 14.3143 14.558 14.4245 14.4471" fill="#BC00DE"/>
<path d="M26.4443 4.66248L16.885 14.2218H26.4443V4.66248Z" fill="#BC00DE"/>
<path d="M27.7737 3.33124L15.5572 15.546C15.4809 15.6209 15.3906 15.6799 15.2913 15.7196C15.1921 15.7593 15.086 15.779 14.9791 15.7774C14.8763 15.7784 14.7743 15.7588 14.6791 15.7199C14.5839 15.681 14.4974 15.6235 14.4246 15.5508C14.3519 15.4782 14.2943 15.3917 14.2553 15.2966C14.2163 15.2014 14.1966 15.0994 14.1974 14.9966V2.77571C14.1973 2.6733 14.2175 2.57189 14.2568 2.47733C14.2961 2.38277 14.3538 2.29694 14.4265 2.22481C14.4992 2.15268 14.5854 2.09568 14.6803 2.0571C14.7752 2.01852 14.8767 1.99913 14.9791 2.00004H27.2009C27.3075 1.99611 27.4138 2.01408 27.5133 2.05283C27.6127 2.09159 27.7031 2.15031 27.7789 2.22538C27.9244 2.37266 28.0059 2.57132 28.0059 2.77831C28.0059 2.9853 27.9244 3.18396 27.7789 3.33124" fill="#9900CC"/>
<path d="M15.78 13.1167L25.3454 3.55737H15.7792L15.78 13.1167Z" fill="#9900CC"/>
</g>
</svg>
