<svg width="30" height="30" viewBox="0 0 30 30" fill="none" xmlns="http://www.w3.org/2000/svg">
<g clip-path="url(#clip0_10011_45137)">
<path d="M15 0C6.71575 0 0 6.71575 0 15C0 23.2843 6.71575 30 15 30C23.2843 30 30 23.2843 30 15C30 6.71569 23.2843 0 15 0ZM15 22.6374V28.9011C9.05231 28.9011 4.23077 24.0796 4.23077 18.1319C4.23077 12.1842 9.05231 7.36264 15 7.36264V1.0989C20.9477 1.0989 25.7692 5.92044 25.7692 11.8681C25.7692 17.8158 20.9477 22.6374 15 22.6374ZM20.1648 14.952V15.048C17.8883 16.1826 16.1826 17.8882 15.048 20.1648H14.952C13.8174 17.8882 12.1117 16.1826 9.83516 15.048V14.952C12.1117 13.8173 13.8174 12.1117 14.952 9.83516H15.048C16.1826 12.1117 17.8883 13.8173 20.1648 14.952Z" fill="#FF0420"/>
</g>
<defs>
<clipPath id="clip0_10011_45137">
<rect width="30" height="30" fill="white"/>
</clipPath>
</defs>
</svg>
