<svg xmlns="http://www.w3.org/2000/svg" fill="none" viewBox="0 0 30 30">
  <g clip-path="url(#optimism-superchain_svg__a)">
    <g clip-path="url(#optimism-superchain_svg__b)">
      <path fill="#FA8900" d="M22.618 1.028a.312.312 0 0 1 .527 0c.475.773 1.512 2.384 2.468 3.334.956.95 2.576 1.982 3.352 2.454a.308.308 0 0 1 0 .524c-.776.472-2.396 1.504-3.352 2.454-.956.95-1.993 2.561-2.468 3.334a.312.312 0 0 1-.527 0c-.475-.773-1.512-2.383-2.468-3.334-.956-.95-2.576-1.982-3.353-2.454a.308.308 0 0 1 0-.524c.777-.472 2.397-1.504 3.353-2.454.956-.95 1.993-2.561 2.468-3.334Z"/>
    </g>
    <g clip-path="url(#optimism-superchain_svg__c)">
      <path fill="#584DCB" d="M20.983 16.72a.297.297 0 0 1 .424-.113l1.314.838a.298.298 0 0 0 .32 0l1.315-.838a.297.297 0 0 1 .423.113l.717 1.38a.297.297 0 0 0 .277.158l1.56-.072a.296.296 0 0 1 .31.309l-.072 1.55a.295.295 0 0 0 .16.276l1.386.713c.156.08.208.275.114.421l-.843 1.307a.294.294 0 0 0 0 .319l.843 1.306a.294.294 0 0 1-.114.422l-1.386.712a.295.295 0 0 0-.16.276l.072 1.551a.296.296 0 0 1-.31.308l-1.56-.072a.297.297 0 0 0-.277.16l-.717 1.378a.298.298 0 0 1-.423.113l-1.315-.837a.298.298 0 0 0-.32 0l-1.314.837a.298.298 0 0 1-.424-.113l-.717-1.379a.297.297 0 0 0-.277-.159l-1.56.072a.296.296 0 0 1-.31-.308l.073-1.55a.295.295 0 0 0-.16-.276l-1.387-.713a.294.294 0 0 1-.113-.422l.842-1.306a.294.294 0 0 0 0-.319l-.842-1.307a.294.294 0 0 1 .113-.421l1.387-.713a.295.295 0 0 0 .16-.276l-.073-1.55a.296.296 0 0 1 .31-.309l1.56.072a.297.297 0 0 0 .277-.159l.717-1.379Z"/>
    </g>
    <path fill="#39D551" d="M7.375 28.084a.297.297 0 0 1-.513 0L.851 17.76a.295.295 0 0 1 .257-.443H13.13c.228 0 .37.247.256.443l-6.01 10.324Z"/>
    <path fill="#FF0420" d="M5.22.877a.297.297 0 0 1 .424-.113l1.315.838a.298.298 0 0 0 .32 0L8.593.764a.297.297 0 0 1 .424.113l.717 1.38a.297.297 0 0 0 .277.159l1.56-.073a.296.296 0 0 1 .31.309l-.073 1.55a.295.295 0 0 0 .16.276l1.387.713c.155.08.208.275.113.421l-.842 1.307a.294.294 0 0 0 0 .319l.842 1.307a.294.294 0 0 1-.113.42l-1.387.714a.295.295 0 0 0-.16.275l.072 1.551a.296.296 0 0 1-.31.309l-1.56-.073a.297.297 0 0 0-.276.16l-.717 1.379a.298.298 0 0 1-.424.113l-1.314-.838a.298.298 0 0 0-.32 0l-1.315.838a.298.298 0 0 1-.423-.113l-.717-1.38a.297.297 0 0 0-.278-.159l-1.56.073a.296.296 0 0 1-.31-.309l.073-1.55a.295.295 0 0 0-.16-.276L.882 8.966a.294.294 0 0 1-.113-.421l.842-1.307a.294.294 0 0 0 0-.319L.77 5.612a.294.294 0 0 1 .113-.42l1.387-.714a.295.295 0 0 0 .16-.275l-.072-1.551a.296.296 0 0 1 .31-.309l1.56.073a.297.297 0 0 0 .277-.16L5.22.877Z"/>
  </g>
  <defs>
    <clipPath id="optimism-superchain_svg__a">
      <path fill="#fff" d="M0 0h30v30H0z"/>
    </clipPath>
    <clipPath id="optimism-superchain_svg__b">
      <path fill="#fff" d="M15.763 0H30v14.157H15.763z"/>
    </clipPath>
    <clipPath id="optimism-superchain_svg__c">
      <path fill="#fff" d="M15.763 15.843H30V30H15.763z"/>
    </clipPath>
  </defs>
</svg>
