<svg xmlns="http://www.w3.org/2000/svg" fill="none" viewBox="0 0 30 30">
  <g clip-path="url(#robinhood-light_svg__a)">
    <path fill="#1C180D" d="M3.173 30h.662c.12 0 .24-.06.28-.16C9.112 17.12 14.549 10.82 17.96 7.047c.14-.16.08-.28-.12-.28h-6.1a.689.689 0 0 0-.561.28l-4.374 5.417c-.642.803-.802 1.545-.802 2.608v5.537c-1.425 3.993-2.328 6.701-2.99 9.15-.04.156.02.24.16.24ZM25.182.808c-.943-1.003-5.197-1.043-7.163-.28-.41.158-.802.427-.983.581-1.806 1.545-3.01 2.77-4.153 3.973-.14.14-.08.28.12.28h6.762c.622 0 .983.362.983.984v7.624c0 .2.16.26.28.08l4.073-5.317c.663-.862.863-1.123 1.044-2.327.24-1.765.1-4.474-.963-5.598Zm-8.728 20.224 2.79-4.595c.06-.12.08-.26.08-.36V8.411c0-.2-.141-.28-.282-.12C14.85 12.967 11.58 17.882 8.55 23.8c-.077.149.02.281.2.221l6.26-1.926c.706-.216 1.103-.501 1.444-1.063Z"/>
  </g>
  <defs>
    <clipPath id="robinhood-light_svg__a">
      <path fill="#fff" d="M3 0h23.247v30H3z"/>
    </clipPath>
  </defs>
</svg>
