<svg xmlns="http://www.w3.org/2000/svg" fill="none" viewBox="0 0 30 30">
  <path fill="#004DE5" fill-rule="evenodd" d="M4 2.308v18.508a2.303 2.303 0 0 0 .868 1.8l8.747 7.004a1.738 1.738 0 0 0 2.17 0l8.747-7.004a2.307 2.307 0 0 0 .868-1.8V2.308c0-.612-.244-1.2-.678-1.632A2.316 2.316 0 0 0 23.086 0H6.315C5.7 0 5.11.243 4.678.676A2.305 2.305 0 0 0 4 2.308Z" clip-rule="evenodd"/>
  <path fill="url(#ronin_svg__a)" d="M20.896 10.665V6.622c0-.536-.209-1.05-.58-1.43a1.965 1.965 0 0 0-1.403-.592h-8.43c-.526 0-1.03.213-1.402.592-.372.38-.581.894-.581 1.43v11.733a2.047 2.047 0 0 0 .744 1.577l3.07 2.512a.246.246 0 0 0 .365-.062.256.256 0 0 0 .038-.136v-8.295c0-.067.026-.132.073-.179a.246.246 0 0 1 .175-.074h2.232c.394 0 .772.16 1.051.444.28.285.436.67.436 1.072v7.032a.257.257 0 0 0 .14.228.243.243 0 0 0 .263-.03l3.07-2.512a2.053 2.053 0 0 0 .744-1.577v-3.646a2.05 2.05 0 0 0-.582-1.43 1.965 1.965 0 0 0-1.402-.592 1.964 1.964 0 0 0 1.4-.593c.37-.38.58-.893.58-1.429Zm-5.702 1.011h-2.231a.246.246 0 0 1-.176-.074.255.255 0 0 1-.072-.178v-4.55c0-.067.026-.13.072-.178a.246.246 0 0 1 .176-.074h3.47c.066 0 .13.026.176.074a.255.255 0 0 1 .072.178v3.286c0 .402-.156.788-.435 1.072a1.474 1.474 0 0 1-1.052.444Z"/>
  <defs>
    <linearGradient id="ronin_svg__a" x1="14.7" x2="14.7" y1="4.6" y2="22.5" gradientUnits="userSpaceOnUse">
      <stop stop-color="#fff"/>
      <stop offset=".458" stop-color="#fff"/>
      <stop offset="1" stop-color="#fff"/>
    </linearGradient>
  </defs>
</svg>
