<?xml version="1.0" encoding="UTF-8"?><svg id="Layer_1" xmlns="http://www.w3.org/2000/svg" viewBox="0 0 400 400"><defs><style>.cls-1{fill:#ff931e;}</style></defs><rect x=".06" y="0" width="400" height="400"/><g><path class="cls-1" d="m200.06,137.21c21.17,0,38.33-17.16,38.33-38.33s-17.16-38.33-38.33-38.33-38.33,17.16-38.33,38.33,17.16,38.33,38.33,38.33Z"/><path class="cls-1" d="m306.63,217.36c-18.34-10.57-41.78-4.28-52.35,14.07-3.64,6.31-5.28,13.22-5.12,20.01.38,16.89-14.81,25.68-29.25,16.96-.57-.35-1.15-.69-1.75-1.01-14.61-8.15-14.6-25.52.01-33.67,11.96-6.48,20.1-19.16,20.1-33.72,0-.3-.01-.58-.02-.87v.02c-.36-16.91,14.86-25.7,29.32-16.91,11.58,7.03,26.54,7.69,39.1.43,18.33-10.59,24.6-34.04,14.01-52.36-10.59-18.33-34.04-24.6-52.36-14.01-12.55,7.25-19.44,20.52-19.15,34.05.38,16.88-14.8,25.66-29.23,16.95-5.82-3.57-12.66-5.62-19.99-5.62s-14.16,2.06-19.98,5.62c-14.4,8.68-29.53-.09-29.15-16.93.3-13.56-6.63-26.86-19.22-34.1-18.35-10.55-41.78-4.23-52.33,14.12-10.55,18.35-4.23,41.78,14.12,52.33,12.54,7.21,27.46,6.54,39.02-.47,14.42-8.75,29.61.02,29.23,16.89v-.02c.01.3,0,.59,0,.9,0,14.57,8.12,27.24,20.1,33.72,14.62,8.15,14.61,25.54-.01,33.68-.59.32-1.17.66-1.74,1.01-14.4,8.66-29.52-.11-29.14-16.95.16-6.81-1.49-13.76-5.15-20.1-10.61-18.32-34.06-24.57-52.38-13.96-18.36,10.6-24.6,34.05-14,52.37,10.61,18.32,34.06,24.57,52.38,13.96.24-.14.47-.29.7-.43l-.02.03c14.44-8.76,29.63.02,29.23,16.9v-.02c.01.31,0,.63,0,.94.02,21.17,17.2,38.31,38.36,38.29,21.17-.02,38.31-17.2,38.29-38.36,0-.28-.01-.56-.02-.84v.02c-.37-16.92,14.86-25.71,29.33-16.92l-.02-.04c.27.16.52.33.78.48,18.34,10.57,41.78,4.28,52.35-14.07,10.57-18.34,4.28-41.78-14.07-52.35h.01Z"/></g></svg>