<svg width="28" height="30" viewBox="0 0 28 30" fill="none" xmlns="http://www.w3.org/2000/svg">
<path d="M13.5328 8.24556C15.808 8.24556 17.6525 6.39973 17.6525 4.12278C17.6525 1.84583 15.808 0 13.5328 0C11.2575 0 9.41309 1.84583 9.41309 4.12278C9.41309 6.39973 11.2575 8.24556 13.5328 8.24556Z" fill="#FF9100"/>
<path d="M24.9876 16.8676C23.0161 15.7303 20.4973 16.4076 19.3608 18.3806C18.9695 19.0595 18.7938 19.8029 18.8105 20.5327C18.8518 22.3498 17.2191 23.2953 15.6666 22.357C15.6054 22.3195 15.5425 22.2829 15.4789 22.2487C13.909 21.3716 13.9098 19.5036 15.4805 18.6274C16.7665 17.9301 17.6406 16.5668 17.6406 15.0004C17.6406 14.9686 17.639 14.9375 17.6382 14.9065L17.6398 14.9089C17.5992 13.0895 19.236 12.1447 20.79 13.0903C22.0347 13.8464 23.6428 13.9172 24.9924 13.1364C26.9624 11.9975 27.6368 9.47526 26.4987 7.5038C25.3606 5.53235 22.8403 4.85742 20.8703 5.99636C19.5215 6.77635 18.781 8.2034 18.8121 9.65911C18.8526 11.4746 17.2214 12.4193 15.6706 11.4825C15.0447 11.0989 14.3098 10.8776 13.5225 10.8776C12.7351 10.8776 12.0002 11.0989 11.3751 11.4817C9.82745 12.4153 8.20105 11.4722 8.2424 9.6607C8.27421 8.20181 7.5298 6.77157 6.17698 5.99238C4.20462 4.85742 1.68588 5.53713 0.551764 7.51097C-0.582346 9.48481 0.0968479 12.0054 2.06921 13.1404C3.41726 13.9164 5.02061 13.844 6.26288 13.0903C7.81293 12.1487 9.4457 13.0926 9.40435 14.9073L9.40594 14.9049C9.40594 14.9367 9.40355 14.9686 9.40355 15.0012C9.40355 16.5684 10.2768 17.9309 11.5636 18.6281C13.1351 19.5052 13.1343 21.3756 11.562 22.2511C11.4984 22.2853 11.4364 22.3219 11.3751 22.3593C9.82745 23.2913 8.20184 22.3474 8.2432 20.5359C8.26069 19.8029 8.08334 19.0555 7.68966 18.3743C6.54919 16.4036 4.02886 15.7319 2.05967 16.8724C0.0865088 18.0129 -0.584732 20.5351 0.554946 22.5058C1.69542 24.4764 4.21575 25.1482 6.18494 24.0077C6.21039 23.9925 6.23504 23.9766 6.26049 23.9615L6.25811 23.9647C7.80975 23.0223 9.44252 23.9671 9.40037 25.7825L9.40196 25.7801C9.40196 25.8136 9.39958 25.8478 9.39958 25.8812C9.40196 28.1583 11.2479 30.0024 13.5233 30C15.7986 29.9976 17.6414 28.1503 17.639 25.8733C17.639 25.843 17.6374 25.8128 17.6366 25.7825L17.6382 25.7849C17.5968 23.9647 19.2344 23.0191 20.7892 23.9647L20.7868 23.9607C20.8154 23.9782 20.8425 23.9957 20.8711 24.0124C22.8427 25.1498 25.3614 24.4725 26.4979 22.4994C27.6344 20.5264 26.9576 18.0058 24.986 16.8684L24.9876 16.8676Z" fill="#FF9100"/>
</svg>
