<svg width="30" height="30" viewBox="0 0 30 30" fill="none" xmlns="http://www.w3.org/2000/svg">
<g clip-path="url(#clip0_11598_45278)">
<mask id="mask0_11598_45278" style="mask-type:luminance" maskUnits="userSpaceOnUse" x="0" y="0" width="30" height="30">
<path d="M30 0H0V30H30V0Z" fill="white"/>
</mask>
<g mask="url(#mask0_11598_45278)">
<path d="M27.864 20.2483V2.91273C27.8317 1.46137 26.6829 0.300293 25.2265 0.300293H7.0712C3.15534 0.364798 0 3.55777 0 7.47642C0 8.79876 0.355986 9.92759 0.906149 10.9274C1.35922 11.7498 2.08738 12.5239 2.79935 13.1206C2.99353 13.2818 2.89644 13.2173 3.51132 13.6043C4.36894 14.1204 5.3398 14.3784 5.3398 14.3784V24.7475C5.35598 25.2313 5.42071 25.7151 5.53398 26.1504C5.93851 27.6018 6.95793 28.7307 8.33333 29.279C8.91586 29.5047 9.56311 29.6659 10.2589 29.6659L24.7573 29.7143C27.6537 29.7143 30 27.3761 30 24.4895C30 22.7317 29.1586 21.1997 27.864 20.2483Z" fill="#FFEEDA"/>
<path d="M28.2422 24.6047C28.1773 26.4669 26.651 27.9565 24.7838 27.9565L14.7656 27.9242C15.5612 27.0012 16.0484 25.803 16.0484 24.5076C16.0484 22.4512 14.8144 21.0425 14.8144 21.0425H24.7838C26.6996 21.0425 28.2422 22.597 28.2422 24.5076V24.6047Z" fill="#EBC28E"/>
<path d="M3.73586 11.6037C2.58761 10.5201 1.77898 9.1131 1.77898 7.43115V7.25326C1.87602 4.40689 4.22104 2.11039 7.0674 2.01335H25.213C25.682 2.02952 26.0701 2.36916 26.0701 2.85432V18.202C26.4906 18.2829 26.6846 18.3314 27.0891 18.477C27.3963 18.5902 27.8491 18.849 27.8491 18.849V2.85432C27.8168 1.3988 26.6685 0.234375 25.213 0.234375H7.0674C3.15364 0.299065 0 3.50122 0 7.43115C0 9.71148 1.03504 11.6684 2.74934 13.0431C2.86254 13.1401 2.97574 13.2533 3.28303 13.2533C3.81671 13.2533 4.18869 12.8327 4.17252 12.3637C4.15635 11.9756 3.99462 11.8301 3.73586 11.6037Z" fill="#190602"/>
<path d="M24.76 19.2371H10.5281C9.57395 19.2371 8.79766 20.0296 8.79766 20.9837V23.0215C8.83001 23.9594 9.63864 24.7843 10.5766 24.7843H11.6279V23.0215H10.5766V21.016C10.5766 21.016 10.8354 21.016 11.1589 21.016C12.954 21.016 14.2802 22.6819 14.2802 24.4771C14.2802 26.0619 12.8408 28.0835 10.4311 27.9218C8.28014 27.7762 7.13189 25.8678 7.13189 24.4771V7.12387C7.13189 6.34758 6.50116 5.70068 5.70871 5.70068H4.28552V7.47966H5.33674V24.4771C5.28823 27.938 7.79496 29.6845 10.4149 29.6845L24.76 29.733C27.6549 29.733 29.9998 27.3881 29.9998 24.4932C29.9998 21.5982 27.6549 19.2371 24.76 19.2371ZM28.2047 24.5903C28.1401 26.45 26.6198 27.938 24.76 27.938L14.7815 27.9056C15.5739 26.9837 16.0591 25.787 16.0591 24.4932C16.0591 22.4393 14.83 21.0322 14.83 21.0322H24.76C26.6683 21.0322 28.2047 22.5848 28.2047 24.4932V24.5903Z" fill="#190602"/>
<path d="M21.0406 7.78697H10.205V6.02417H21.0406C21.4772 6.02417 21.8168 6.37996 21.8168 6.80046V7.0107C21.8168 7.44735 21.4611 7.78697 21.0406 7.78697Z" fill="#190602"/>
<path d="M21.0406 16.1482H10.205V14.3854H21.0406C21.4772 14.3854 21.8168 14.7412 21.8168 15.1616V15.3719C21.8168 15.7924 21.4611 16.1482 21.0406 16.1482Z" fill="#190602"/>
<path d="M22.9163 11.9756H10.1885V10.2128H22.9163C23.3529 10.2128 23.6925 10.5686 23.6925 10.9891V11.1993C23.7087 11.6198 23.3529 11.9756 22.9163 11.9756Z" fill="#190602"/>
</g>
</g>
<defs>
<clipPath id="clip0_11598_45278">
<rect width="30" height="30" fill="white"/>
</clipPath>
</defs>
</svg>
