<svg width="30" height="30" viewBox="0 0 30 30" fill="none" xmlns="http://www.w3.org/2000/svg">
<g clip-path="url(#clip0_11768_5193)">
<g clip-path="url(#clip1_11768_5193)">
<path d="M15.0001 30.0001C23.2844 30.0001 30.0001 23.2844 30.0001 15.0001C30.0001 6.71576 23.2844 0 15.0001 0C6.71576 0 0 6.71576 0 15.0001C0 23.2844 6.71576 30.0001 15.0001 30.0001Z" fill="black"/>
<path d="M5.46213 17.2504C5.21356 17.2359 4.97378 17.1903 4.74281 17.1135C4.5117 17.0368 4.30713 16.9319 4.12869 16.7985C3.95025 16.6653 3.81324 16.5061 3.71765 16.3206L4.70219 15.9382C4.74037 15.9962 4.80252 16.0578 4.88862 16.1229C4.9746 16.1882 5.07736 16.2425 5.1969 16.2858C5.31645 16.3292 5.44778 16.351 5.59115 16.351C5.71219 16.351 5.82768 16.3359 5.93761 16.3054C6.04755 16.2751 6.13677 16.228 6.20527 16.1642C6.27378 16.1006 6.30803 16.018 6.30803 15.9166C6.30803 15.8095 6.26742 15.7261 6.18619 15.6666C6.10495 15.6073 6.003 15.5624 5.88034 15.5319C5.75768 15.5015 5.63895 15.4733 5.52427 15.4472C5.22154 15.3922 4.94034 15.3068 4.6808 15.1908C4.42113 15.075 4.2125 14.925 4.05477 14.7411C3.89704 14.5573 3.81824 14.3348 3.81824 14.0742C3.81824 13.7875 3.90191 13.5398 4.06912 13.3312C4.23632 13.1226 4.45457 12.9619 4.72386 12.8489C4.99301 12.736 5.28382 12.6794 5.59603 12.6794C5.97511 12.6794 6.3232 12.7511 6.64028 12.8946C6.95736 13.038 7.20823 13.24 7.39304 13.5007L6.47064 13.996C6.42596 13.9265 6.36381 13.8621 6.28421 13.8026C6.2046 13.7433 6.11375 13.694 6.0118 13.6549C5.90986 13.6158 5.80304 13.5934 5.69161 13.5876C5.54824 13.5818 5.41759 13.5934 5.29966 13.6224C5.18174 13.6514 5.08697 13.7007 5.01535 13.7701C4.94373 13.8397 4.90785 13.9323 4.90785 14.0482C4.90785 14.1583 4.95564 14.2401 5.05123 14.2937C5.14681 14.3473 5.2623 14.3886 5.39768 14.4176C5.53307 14.4465 5.66291 14.4785 5.7872 14.5131C6.06758 14.5972 6.33119 14.7 6.57813 14.8217C6.82495 14.9434 7.02329 15.0926 7.17316 15.2693C7.3229 15.446 7.39466 15.6574 7.3883 15.9036C7.3883 16.1845 7.29583 16.4301 7.11102 16.64C6.92622 16.8501 6.68807 17.01 6.39658 17.12C6.10509 17.2301 5.79342 17.2736 5.46213 17.2504Z" fill="white"/>
<path d="M11.7317 14.4264V17.1723H10.6715V14.7045C10.6715 14.5336 10.6295 14.3779 10.5454 14.2374C10.4614 14.0969 10.3493 13.9854 10.2087 13.9028C10.0682 13.8203 9.91264 13.779 9.74165 13.779C9.57065 13.779 9.41509 13.8203 9.27456 13.9028C9.13402 13.9854 9.0226 14.0969 8.94001 14.2374C8.85742 14.3779 8.81613 14.5336 8.81613 14.7045V17.1723H7.75604L7.75171 10.6552H8.8118L8.81613 13.2143C8.96384 13.0579 9.14052 12.9341 9.34618 12.8428C9.55183 12.7515 9.77333 12.7059 10.0108 12.7059C10.3265 12.7059 10.6148 12.7835 10.8754 12.9383C11.136 13.0934 11.344 13.3005 11.4988 13.5596C11.6537 13.8189 11.7313 14.1078 11.7313 14.4264H11.7317Z" fill="white"/>
<path d="M15.6159 12.8275H16.676V17.1723H15.6159L15.5681 16.6335C15.4492 16.8277 15.2921 16.9847 15.0966 17.105C14.9011 17.2252 14.6702 17.2853 14.4036 17.2853C14.082 17.2853 13.7808 17.2245 13.4999 17.1028C13.2189 16.9811 12.972 16.8132 12.759 16.5988C12.5462 16.3844 12.3795 16.1368 12.2593 15.8559C12.1391 15.5749 12.079 15.2737 12.079 14.9522C12.079 14.6423 12.1361 14.3512 12.2507 14.0789C12.3651 13.8066 12.5251 13.5677 12.7307 13.362C12.9364 13.1564 13.1739 12.9957 13.4433 12.8798C13.7127 12.764 14.0023 12.7059 14.3122 12.7059C14.599 12.7059 14.8559 12.7697 15.0834 12.8971C15.3107 13.0246 15.5042 13.1868 15.6635 13.3837L15.6157 12.8275H15.6159ZM14.3776 16.2643C14.6036 16.2643 14.8034 16.2079 14.9772 16.095C15.1511 15.9821 15.2871 15.8292 15.3857 15.6367C15.4841 15.444 15.5334 15.2319 15.5334 15.0001C15.5334 14.7655 15.4841 14.5518 15.3857 14.3592C15.2873 14.1666 15.1503 14.0138 14.9751 13.9009C14.7997 13.788 14.6007 13.7315 14.3776 13.7315C14.1545 13.7315 13.9511 13.7888 13.7673 13.9032C13.5833 14.0176 13.4371 14.1704 13.3285 14.3615C13.2199 14.5525 13.1656 14.7656 13.1656 15.0002C13.1656 15.2348 13.2206 15.4478 13.3306 15.6388C13.4407 15.83 13.5876 15.9821 13.7716 16.0951C13.9555 16.208 14.1575 16.2645 14.3776 16.2645V16.2643Z" fill="white"/>
<path d="M18.1704 19.3447H17.1104V12.8275H18.1704V13.3794C18.3123 13.1824 18.4868 13.0225 18.694 12.8993C18.901 12.7762 19.1436 12.7146 19.4217 12.7146C19.7403 12.7146 20.0372 12.774 20.3124 12.8928C20.5875 13.0116 20.8301 13.176 21.0401 13.3859C21.2501 13.596 21.4138 13.8385 21.531 14.1136C21.6484 14.3888 21.7071 14.6842 21.7071 15C21.7071 15.3157 21.6484 15.6126 21.531 15.8907C21.4137 16.1688 21.2501 16.4127 21.0401 16.6227C20.83 16.8327 20.5875 16.9971 20.3124 17.1158C20.0372 17.2345 19.7403 17.294 19.4217 17.294C19.1436 17.294 18.901 17.2324 18.694 17.1093C18.4868 16.9862 18.3123 16.8262 18.1704 16.6292V19.3447ZM19.4088 13.7357C19.1887 13.7357 18.9917 13.793 18.818 13.9074C18.6442 14.0218 18.5081 14.1746 18.4095 14.3657C18.3111 14.5568 18.2618 14.7683 18.2618 15C18.2618 15.2316 18.311 15.4439 18.4095 15.6365C18.508 15.8292 18.6442 15.9827 18.818 16.097C18.9918 16.2114 19.1888 16.2687 19.4088 16.2687C19.6318 16.2687 19.8361 16.2122 20.0215 16.0993C20.2068 15.9864 20.3545 15.8335 20.4646 15.641C20.5747 15.4484 20.6298 15.2347 20.6298 15.0001C20.6298 14.7684 20.5747 14.5568 20.4646 14.3658C20.3545 14.1746 20.2075 14.0219 20.0236 13.9075C19.8396 13.7931 19.6348 13.7357 19.4088 13.7357Z" fill="white"/>
<path d="M24.1142 17.2852C23.7144 17.2852 23.3502 17.1823 23.0215 16.9768C22.6928 16.7711 22.4307 16.4945 22.235 16.1469C22.0395 15.7993 21.9418 15.4155 21.9418 14.9955C21.9418 14.6798 21.9982 14.3837 22.1111 14.107C22.2241 13.8304 22.3798 13.5871 22.5782 13.3769C22.7766 13.167 23.0077 13.0026 23.2713 12.8839C23.5349 12.7651 23.8158 12.7057 24.1142 12.7057C24.4531 12.7057 24.7637 12.7773 25.0461 12.9208C25.3285 13.0642 25.5681 13.2605 25.7651 13.5095C25.9621 13.7586 26.1055 14.0424 26.1953 14.3611C26.285 14.6798 26.3053 15.0128 26.2562 15.3604H23.0801C23.1206 15.5226 23.1872 15.6681 23.28 15.797C23.3727 15.9259 23.4899 16.0288 23.632 16.1054C23.7738 16.1822 23.9346 16.2221 24.1142 16.225C24.2996 16.2278 24.4684 16.1837 24.6203 16.0924C24.7723 16.0012 24.8991 15.8774 25.0005 15.7209L26.0823 15.9729C25.9057 16.3582 25.6421 16.6731 25.2917 16.9179C24.9412 17.1627 24.5488 17.2852 24.1142 17.2852ZM23.0453 14.5654H25.183C25.151 14.3915 25.0837 14.2345 24.981 14.094C24.8781 13.9536 24.7513 13.8413 24.6008 13.7572C24.4501 13.6733 24.2879 13.6313 24.1142 13.6313C23.9405 13.6313 23.7797 13.6726 23.632 13.7552C23.4842 13.8378 23.3589 13.9494 23.2561 14.0898C23.1532 14.2303 23.083 14.3887 23.0453 14.5654Z" fill="white"/>
</g>
</g>
<defs>
<clipPath id="clip0_11768_5193">
<rect width="30" height="30" fill="white"/>
</clipPath>
<clipPath id="clip1_11768_5193">
<rect width="30" height="30" fill="white"/>
</clipPath>
</defs>
</svg>
