<svg width="28" height="28" viewBox="0 0 28 28" fill="none" xmlns="http://www.w3.org/2000/svg">
<g clip-path="url(#clip0_10034_70523)">
<path d="M27.9637 13.0504C27.4396 5.33563 20.7617 -0.491059 13.0493 0.0329981C9.20729 0.294793 5.83335 2.08443 3.4786 4.76538L3.4716 4.76071C3.4548 4.78218 3.44033 4.80364 3.42586 4.82511C1.08744 7.52286 -0.228533 11.1073 0.0327953 14.9502C0.0570615 15.317 0.099994 15.6763 0.152726 16.0328C0.152726 16.0501 0.157393 16.0641 0.159726 16.0809C0.195659 16.3156 0.236725 16.5508 0.281991 16.7809C0.324898 16.9935 0.372821 17.2051 0.425721 17.4155C2.04316 23.8629 8.08311 28.4291 14.9495 27.962C22.662 27.4375 28.491 20.7601 27.9665 13.0458L27.9637 13.0504ZM24.9164 13.2585C24.9813 14.2077 24.9211 15.1373 24.7512 16.0333C24.7512 16.0286 24.7465 16.024 24.7465 16.0188C23.7301 13.539 21.7226 11.747 19.9591 10.7573C20.3161 6.55501 18.8904 4.78217 17.2758 4.49471C16.9629 4.43594 16.6414 4.44174 16.3308 4.51177C16.0203 4.58179 15.7273 4.71455 15.47 4.90191C15.2126 5.08926 14.9963 5.32724 14.8342 5.60125C14.6722 5.87525 14.5678 6.17949 14.5277 6.49528C14.4883 6.7999 14.5095 7.10929 14.5899 7.40573C14.6703 7.70217 14.8084 7.97984 14.9962 8.22285C15.1841 8.46585 15.4181 8.66941 15.6847 8.82187C15.9513 8.97433 16.2454 9.07271 16.5501 9.11136C16.6626 9.12583 16.7727 9.13049 16.8805 9.12816C16.8884 9.27814 16.8924 9.4283 16.8927 9.57848C15.3998 9.20982 14.0055 9.13516 12.7334 9.25042C12.255 9.28181 11.7789 9.3418 11.3077 9.43009C11.4664 8.01145 12.0002 6.41594 13.0329 5.25163C14.0316 4.12325 15.5174 3.4788 17.1367 3.644C17.4438 3.67526 17.7719 3.75179 18.0663 3.85026C18.0808 3.85493 18.0953 3.85959 18.1074 3.86193C21.8593 5.3907 24.6219 8.95316 24.9141 13.2585H24.9164ZM15.1581 15.3958C15.1581 15.3958 15.1581 15.3982 15.1558 15.4005C14.8018 15.9092 14.4007 16.3834 13.9579 16.8168C13.2871 16.1083 12.7192 15.309 12.2709 14.4425C12.2494 14.3967 12.2256 14.3561 12.2037 14.3104V14.3057C11.941 13.7441 11.7308 13.1594 11.576 12.559C12.57 12.3243 13.5453 12.238 14.4777 12.2837L14.6261 12.2907H14.6308C15.2155 12.3388 15.824 12.4466 16.454 12.6192C16.1616 13.6026 15.7257 14.5374 15.1604 15.3935L15.1581 15.3958ZM10.3758 3.67293L10.3688 3.68226C8.72756 5.80042 8.18111 8.43331 8.20537 10.4553C4.38625 12.2473 3.56679 14.3678 4.12258 15.9106C4.13658 15.954 4.15385 15.9946 4.17065 16.0356C4.4101 16.6076 4.86685 17.0611 5.44053 17.2965C6.0142 17.5319 6.65786 17.5299 7.23006 17.2909C7.80205 17.0515 8.25557 16.5947 8.49095 16.0211C8.72634 15.4474 8.72433 14.8037 8.48537 14.2315C8.44187 14.1299 8.39151 14.0314 8.33464 13.9366C8.45457 13.8573 8.58383 13.7789 8.7229 13.6972C9.14896 15.1756 9.77941 16.4239 10.5149 17.4683C10.7809 17.8635 11.0683 18.2443 11.3819 18.6111C10.0739 19.1837 8.42564 19.5192 6.8992 19.2075C5.42363 18.906 4.12258 17.9429 3.45433 16.457C3.32631 16.1656 3.22994 15.8613 3.16687 15.5494C3.12747 15.2814 3.09789 15.0122 3.0782 14.7421C2.73754 9.72735 5.84782 5.26377 10.3758 3.67293ZM14.7409 24.9171C11.7632 25.1205 8.97909 24.1051 6.8754 22.2982C9.53022 22.6603 12.0842 21.8166 13.8239 20.7843C17.2856 23.197 19.533 22.847 20.5919 21.594C20.7993 21.3522 20.9552 21.0705 21.0498 20.7663C21.1445 20.462 21.1759 20.1417 21.1423 19.8248C21.1086 19.508 21.0106 19.2014 20.8541 18.9238C20.6977 18.6462 20.4862 18.4036 20.2325 18.2107C19.9883 18.0245 19.7097 17.8882 19.4127 17.8097C19.1157 17.7312 18.8062 17.712 18.5018 17.7532C18.1974 17.7943 17.9041 17.8951 17.6386 18.0497C17.3732 18.2042 17.1408 18.4096 16.9547 18.654C16.888 18.7427 16.8278 18.8388 16.7751 18.9345C16.6481 18.8696 16.5138 18.7978 16.3775 18.7189C17.3529 17.7126 18.1522 16.5495 18.742 15.2782C18.9532 14.848 19.1388 14.4056 19.2978 13.9534C20.4481 14.8018 21.5644 16.0594 22.0581 17.5373C22.535 18.9653 22.3526 20.5753 21.3992 21.8959C21.2108 22.1521 20.9956 22.3874 20.7571 22.5978L20.7477 22.6071C19.0249 23.9641 16.932 24.7685 14.7437 24.9147L14.7409 24.9171Z" fill="#222239"/>
<g style="mix-blend-mode:overlay" opacity="0.9">
<path d="M17.276 4.49255C17.0134 4.44268 16.744 4.43952 16.4803 4.48321C17.8201 5.2112 18.795 7.24069 18.2826 11.2465C18.1129 12.5492 17.7301 13.8152 17.1495 14.9937C16.6492 16.0692 15.998 17.0678 15.2157 17.9594C15.5866 18.2383 15.9747 18.4936 16.3777 18.7237C17.3532 17.7176 18.1527 16.5547 18.7427 15.2835C19.3247 14.1056 19.7075 12.8394 19.8757 11.5363C20.4871 6.76844 18.9872 4.79914 17.2765 4.49441L17.276 4.49255Z" fill="#222239"/>
</g>
<g style="mix-blend-mode:overlay" opacity="0.8">
<path d="M18.2821 11.2442C18.7949 7.24028 17.8196 5.20892 16.4803 4.48047C16.4276 4.48747 16.3776 4.4996 16.3244 4.51173C17.6353 5.26632 18.5789 7.29302 18.0735 11.2442C17.9038 12.547 17.521 13.813 16.9404 14.9915C16.4582 16.0289 15.8349 16.9946 15.0883 17.8614C15.1312 17.895 15.1723 17.9263 15.2152 17.9571C15.9968 17.0649 16.6478 16.0663 17.1486 14.991C17.7307 13.8131 18.1137 12.5473 18.2821 11.2442Z" fill="#222239"/>
</g>
<g style="mix-blend-mode:overlay" opacity="0.5">
<path d="M13.1909 20.3268C13.064 20.2311 12.9441 20.1303 12.8223 20.0295C10.8455 20.8541 8.10668 21.3712 5.38513 20.7389C5.82835 21.3065 6.32668 21.8289 6.87284 22.2984C9.52765 22.6606 12.0817 21.8168 13.8214 20.7846C13.6076 20.6352 13.3966 20.4818 13.1886 20.3245L13.1909 20.3268Z" fill="#222239"/>
</g>
<g style="mix-blend-mode:overlay" opacity="0.6">
<path d="M12.8241 20.0295C12.7643 19.9791 12.7023 19.9292 12.6449 19.8788C10.6536 20.674 7.90083 21.1509 5.18628 20.4728C5.25348 20.5615 5.32068 20.6525 5.38741 20.7388C8.10709 21.3712 10.8473 20.8541 12.8241 20.0295Z" fill="#222239"/>
</g>
<g style="mix-blend-mode:overlay" opacity="0.9">
<path d="M4.12515 15.9136C4.13915 15.9565 4.15642 15.9976 4.17322 16.0382C4.26188 16.2491 4.37668 16.4381 4.51574 16.6085C4.47748 15.0848 5.74725 13.2229 9.47025 11.6656C10.6832 11.1611 11.971 10.86 13.2819 10.7743C14.4638 10.6689 15.6547 10.7335 16.8182 10.9661C16.8784 10.463 16.9022 9.99359 16.8976 9.57873C15.5386 9.23661 14.1317 9.12571 12.7359 9.25067C11.4249 9.33654 10.137 9.63767 8.92379 10.142C4.48961 11.9965 3.53343 14.2798 4.12562 15.9159V15.9136H4.12515Z" fill="#222239"/>
</g>
<g style="mix-blend-mode:overlay" opacity="0.8">
<path d="M9.47025 11.6679C5.74726 13.2256 4.47702 15.0871 4.51575 16.6108C4.54935 16.6514 4.58528 16.6901 4.62121 16.7284C4.61841 15.2164 5.90266 13.3862 9.57572 11.8476C10.7887 11.3431 12.0765 11.042 13.3874 10.9563C14.5269 10.8555 15.675 10.912 16.7991 11.1243C16.8067 11.0717 16.813 11.0189 16.8182 10.9661C15.6545 10.7348 14.4638 10.6704 13.2819 10.7748C11.9711 10.8607 10.6833 11.1618 9.47025 11.6661V11.6679Z" fill="#222239"/>
</g>
<g style="mix-blend-mode:overlay" opacity="0.4">
<path d="M19.8805 11.534C19.8618 11.6922 19.8352 11.8452 19.8086 12.0011C21.5096 13.2998 23.3281 15.4152 24.1429 18.0863C24.4122 17.4179 24.6152 16.7247 24.7491 16.0167C23.7355 13.5369 21.728 11.7468 19.9645 10.7574C19.943 11.0094 19.9164 11.2656 19.8828 11.534H19.8805Z" fill="#222239"/>
</g>
<g style="mix-blend-mode:overlay" opacity="0.5">
<path d="M19.8085 12.0011C19.7941 12.0776 19.7819 12.157 19.7675 12.2335C21.4521 13.5607 23.2417 15.7054 24.0108 18.3957C24.056 18.293 24.0994 18.1894 24.14 18.0868C23.3257 15.4152 21.5095 13.3021 19.8057 12.0011H19.8085Z" fill="#222239"/>
</g>
<g style="mix-blend-mode:overlay" opacity="0.9">
<path d="M20.592 21.5918C20.7651 21.3878 20.9028 21.1563 20.9994 20.9067C19.6984 21.7019 17.4528 21.5321 14.2403 19.0854C13.196 18.2877 12.2909 17.3227 11.5617 16.2294C10.8794 15.2589 10.3396 14.1956 9.95875 13.072C9.49396 13.2708 9.0749 13.4864 8.71558 13.6973C9.09963 15.0452 9.70693 16.3191 10.5122 17.4661C11.2309 18.5394 12.1268 19.51 13.1908 20.322C17.0146 23.2354 19.4706 22.9213 20.5892 21.5913H20.592V21.5918Z" fill="#222239"/>
</g>
<g style="mix-blend-mode:overlay" opacity="0.8">
<path d="M14.2428 19.0859C17.4529 21.5316 19.7003 21.702 21.0009 20.9063C21.02 20.8564 21.0368 20.806 21.0513 20.7579C19.7432 21.5176 17.515 21.3184 14.3478 18.9062C13.3035 18.1085 12.3984 17.1435 11.6691 16.0503C11.012 15.1142 10.4872 14.0919 10.1096 13.0123C10.0592 13.0338 10.0116 13.0529 9.9635 13.0744C10.3442 14.1981 10.8838 15.2615 11.566 16.2323C12.2847 17.3056 13.1806 18.2762 14.2446 19.0882L14.2423 19.0859H14.2428Z" fill="#222239"/>
</g>
<g style="mix-blend-mode:overlay" opacity="0.3">
<path d="M8.92143 10.1372C9.0675 10.077 9.21356 10.022 9.36196 9.9669C9.63542 7.84408 10.5575 5.21119 12.4652 3.17236C11.7512 3.27503 11.0489 3.44302 10.3685 3.68009C8.72684 5.79825 8.18085 8.43113 8.20512 10.4536C8.43238 10.3463 8.66991 10.2404 8.9191 10.1377L8.92143 10.1372Z" fill="#222239"/>
</g>
<g style="mix-blend-mode:overlay" opacity="0.4">
<path d="M9.36145 9.96697C9.43612 9.94083 9.50798 9.9119 9.58218 9.88577C9.88877 7.76247 10.852 5.14172 12.7951 3.12903C12.685 3.14116 12.5744 3.15563 12.4643 3.17009C10.557 5.21126 9.63491 7.84181 9.36192 9.96463V9.96697H9.36145Z" fill="#222239"/>
</g>
<g style="mix-blend-mode:multiply" opacity="0.4">
<path d="M13.0494 0.0336623C9.20649 0.294991 5.83349 2.08462 3.47827 4.76557L3.42554 4.8253C3.88286 5.28076 5.3827 6.17675 5.98889 6.55054C7.19683 5.24919 8.70353 4.2616 10.3787 3.67313C10.4963 3.5196 10.6205 3.36887 10.7502 3.2228C12.3312 1.43784 14.49 0.49612 16.9959 0.49612C17.2741 0.49612 17.842 0.541853 17.8537 0.541853C16.2944 0.0932903 14.6686 -0.07886 13.0499 0.0331956L13.0494 0.0336623Z" fill="#222239"/>
</g>
<g style="mix-blend-mode:multiply" opacity="0.4">
<path d="M14.7411 24.9196C11.7634 25.1231 8.97927 24.1076 6.87558 22.3012C6.67801 22.2754 6.48142 22.2425 6.28619 22.2027C3.9501 21.7258 2.05267 20.3268 0.80203 18.1587C0.664319 17.9191 0.538784 17.6727 0.425903 17.4204C2.04334 23.8678 8.08329 28.4345 14.9474 27.9669C14.9786 27.2604 14.77 25.6196 14.7388 24.9196H14.7411Z" fill="#222239"/>
</g>
<g style="mix-blend-mode:multiply" opacity="0.4">
<path d="M27.9643 13.0506C27.5331 13.0072 25.4341 13.1728 24.917 13.2587C24.9814 14.2079 24.9217 15.1375 24.7514 16.0335C24.8232 16.2108 24.8928 16.3928 24.9548 16.5771C25.7099 18.839 25.4462 21.1798 24.1956 23.3502C24.0571 23.5893 23.9068 23.8214 23.7452 24.0455C23.7452 24.0455 23.7522 24.0404 23.7546 24.0357C26.5989 21.2684 28.2541 17.32 27.9643 13.0529V13.0506Z" fill="#222239"/>
</g>
<g style="mix-blend-mode:multiply" opacity="0.5">
<path d="M17.1397 3.64185C17.4463 3.67312 17.7744 3.74965 18.0693 3.84812C18.0833 3.85278 18.0982 3.85745 18.1099 3.85978C19.3117 4.35031 20.4173 5.04956 21.3756 5.92521C21.3756 5.92521 21.3802 5.92754 21.3826 5.92988C21.8427 5.40535 22.7266 4.8281 22.7266 4.8281C22.7266 4.8281 21.3732 3.44306 19.3008 3.01187C17.8514 2.70994 14.581 2.42014 12.5179 5.92988L12.5371 5.91121C12.6906 5.68068 12.8511 5.45575 13.0355 5.24949C14.0346 4.12111 15.52 3.47619 17.1397 3.64185Z" fill="#222239"/>
</g>
<g style="mix-blend-mode:multiply" opacity="0.5">
<path d="M21.3994 21.8984C21.2111 22.1546 20.9958 22.3899 20.7573 22.6002C20.748 22.6096 20.7358 22.6194 20.726 22.6292C19.7003 23.4241 18.5421 24.0316 17.305 24.4235C17.3026 24.4235 17.3003 24.4235 17.2975 24.4258C17.5229 25.0871 17.5803 26.1412 17.5803 26.1412C17.5803 26.1412 19.4562 25.6625 20.8656 24.0833C21.8502 22.9787 23.7378 20.2908 21.7298 16.7498C21.7298 16.7498 21.7326 16.7614 21.7373 16.7759C21.8619 17.0232 21.9743 17.2766 22.0607 17.5379C22.5376 18.9659 22.3551 20.5759 21.4017 21.8961L21.3994 21.8984Z" fill="#222239"/>
</g>
<g style="mix-blend-mode:multiply" opacity="0.5">
<path d="M3.45971 16.4623C3.3315 16.1708 3.23497 15.8663 3.17178 15.5542C3.16945 15.5402 3.16478 15.5253 3.16245 15.5108C2.98512 14.2196 3.04252 12.9115 3.31831 11.6515V11.6441C2.63279 11.5097 1.69155 11.0309 1.69155 11.0309C1.69155 11.0309 1.16889 12.8975 1.83294 14.9051C2.29773 16.3111 3.67997 19.2893 7.75016 19.3206C7.75016 19.3206 7.7385 19.3178 7.72403 19.3131C7.4487 19.2963 7.17338 19.2679 6.90271 19.2128C5.42667 18.9109 4.12563 17.9477 3.45691 16.4623H3.45971Z" fill="#222239"/>
</g>
<g style="mix-blend-mode:multiply" opacity="0.6">
<path d="M16.5503 9.10965C16.6628 9.12365 16.7729 9.12831 16.8807 9.12598C16.8807 9.12598 16.8065 7.67187 16.6292 6.92429C16.4496 6.17904 16.1859 5.68298 15.8984 5.40298C15.6903 5.20185 15.036 4.95219 14.5283 6.4903C14.4889 6.79492 14.51 7.10433 14.5904 7.40079C14.6707 7.69726 14.8087 7.97497 14.9966 8.21802C15.1844 8.46106 15.4183 8.66467 15.6849 8.81719C15.9515 8.96971 16.2456 9.06814 16.5503 9.10685V9.10918V9.10965Z" fill="#222239"/>
</g>
<g style="mix-blend-mode:multiply" opacity="0.5">
<path d="M8.48877 14.2364C8.44511 14.1349 8.39459 14.0365 8.33757 13.9419C8.33757 13.9419 7.11306 14.7324 6.55728 15.2593C6.00149 15.7866 5.70422 16.2635 5.60623 16.6536C5.53669 16.9341 5.64683 17.6243 7.233 17.2958C7.80499 17.0563 8.25851 16.5996 8.49389 16.0259C8.72928 15.4522 8.72727 14.8086 8.48831 14.2364H8.48877Z" fill="#222239"/>
</g>
<g style="mix-blend-mode:multiply" opacity="0.6">
<path d="M16.9577 18.6519C16.8905 18.7405 16.8308 18.8367 16.7781 18.9319C16.7781 18.9319 18.0745 19.5959 18.8099 19.8138C19.5454 20.0322 20.1058 20.0514 20.4917 19.9408C20.7699 19.8619 21.3112 19.4186 20.2351 18.2113C19.9908 18.0252 19.7122 17.889 19.4153 17.8105C19.1184 17.732 18.8089 17.7128 18.5046 17.754C18.2002 17.7952 17.907 17.8959 17.6415 18.0505C17.3761 18.205 17.1438 18.4103 16.9577 18.6547V18.6519Z" fill="#222239"/>
</g>
<g style="mix-blend-mode:multiply" opacity="0.3">
<path d="M16.4546 12.6217C16.1606 13.5994 15.7481 14.4883 15.2427 15.2714C15.2161 15.312 15.19 15.3531 15.1611 15.396C15.1611 15.396 15.1611 15.3983 15.1587 15.4007C14.8048 15.9093 14.4037 16.3835 13.9608 16.817C14.2819 17.1572 14.6267 17.4875 15.008 17.8016C15.441 18.1422 15.899 18.4496 16.3781 18.7214C17.3536 17.7153 18.1531 16.5523 18.7431 15.2812C18.9542 14.8507 19.1396 14.4082 19.2984 13.9559C18.8052 13.5942 18.3068 13.3044 17.8471 13.108C17.394 12.9138 16.9279 12.7513 16.4523 12.6217H16.4551H16.4546Z" fill="#222239"/>
</g>
<g style="mix-blend-mode:multiply" opacity="0.3">
<path d="M6.876 22.3012C9.53035 22.6628 12.0844 21.8196 13.8241 20.7868C13.6103 20.6375 13.3993 20.4841 13.1913 20.3267C12.5296 19.8206 11.9228 19.2466 11.3806 18.6141C10.0721 19.1862 8.42391 19.5217 6.89747 19.21C5.4219 18.9086 4.12085 17.9454 3.45213 16.46C3.32409 16.1685 3.22772 15.864 3.16467 15.5519C3.5506 18.259 4.91604 20.6212 6.87367 22.3007L6.876 22.3012Z" fill="#222239"/>
</g>
<g style="mix-blend-mode:multiply" opacity="0.3">
<path d="M13.9604 16.8165C13.2899 16.1081 12.7222 15.309 12.2739 14.4426C12.2525 14.3969 12.2282 14.3563 12.2067 14.3106V14.3059C11.944 13.7443 11.7339 13.1596 11.5791 12.5592C11.1236 12.667 10.6663 12.8014 10.2062 12.9741C9.69537 13.1782 9.20044 13.4199 8.72546 13.6974C9.15199 15.1758 9.78198 16.4241 10.5174 17.4684C10.7834 17.8637 11.0714 18.2445 11.3854 18.6113C11.9454 18.3668 12.4466 18.077 12.8461 17.7774C13.2396 17.4818 13.6127 17.16 13.9628 16.8142L13.9604 16.8165Z" fill="#222239"/>
</g>
<g style="mix-blend-mode:multiply" opacity="0.3">
<path d="M10.3695 3.68242C8.72828 5.80058 8.18182 8.43346 8.20609 10.4555C8.44262 10.3444 8.68145 10.2383 8.92241 10.1372C9.69039 9.81643 10.4902 9.57788 11.3084 9.42558C11.4671 8.00694 12.001 6.41144 13.0337 5.24712C14.0323 4.11875 15.5182 3.47383 17.1379 3.63949C17.4445 3.67075 17.7726 3.74729 18.0675 3.84575C18.0815 3.85042 18.096 3.85508 18.1081 3.85742C16.5707 3.23009 14.9099 2.96379 13.2535 3.07903C12.2473 3.14856 11.2842 3.35203 10.3737 3.67309C10.3714 3.67542 10.3691 3.68009 10.3667 3.68242H10.3695Z" fill="#222239"/>
</g>
<g style="mix-blend-mode:multiply" opacity="0.3">
<path d="M24.749 16.0144C23.7336 13.5346 21.7255 11.7421 19.962 10.7528C19.9406 11.0048 19.9144 11.2633 19.878 11.534C19.7711 12.3593 19.5776 13.1711 19.3008 13.9559C20.4511 14.8043 21.5673 16.062 22.0611 17.5403C22.5375 18.9683 22.3555 20.5783 21.4021 21.8985C21.2138 22.1547 20.9985 22.39 20.76 22.6003L20.7507 22.6097C22.8063 20.995 24.26 18.6664 24.7588 16.0312C24.7588 16.0265 24.7541 16.0214 24.7541 16.0167L24.749 16.0144Z" fill="#222239"/>
</g>
<g style="mix-blend-mode:multiply" opacity="0.3">
<path d="M11.301 11.1121C11.3596 11.6002 11.4516 12.0837 11.5763 12.5592C12.5707 12.3245 13.5456 12.2381 14.478 12.2839L14.6264 12.2909H14.631C15.2158 12.3389 15.8243 12.4467 16.4547 12.6194C16.5887 12.1714 16.7016 11.7061 16.7828 11.2222C16.8715 10.6188 16.8976 10.0602 16.8953 9.57397C15.4029 9.20531 14.0085 9.13065 12.7364 9.24591C12.258 9.27728 11.782 9.33727 11.3108 9.42558C11.2436 10.0341 11.2408 10.6114 11.3033 11.1102L11.301 11.1121Z" fill="#222239"/>
</g>
</g>
<defs>
<clipPath id="clip0_10034_70523">
<rect width="27.9998" height="28" fill="white"/>
</clipPath>
</defs>
</svg>
