<svg width="30" height="30" viewBox="0 0 30 30" fill="none" xmlns="http://www.w3.org/2000/svg">
<g clip-path="url(#clip0_11060_29212)">
<g clip-path="url(#clip1_11060_29212)">
<path d="M29.9611 13.9826C29.3996 5.71673 22.2447 -0.526152 13.9814 0.0353376C9.86495 0.315832 6.25002 2.2333 3.72707 5.10574L3.71957 5.10074C3.70157 5.12374 3.68607 5.14674 3.67057 5.16974C1.16512 8.06019 -0.244857 11.9006 0.0351378 16.018C0.0611373 16.411 0.107136 16.796 0.163635 17.178C0.163635 17.1965 0.168635 17.2115 0.171135 17.2295C0.209634 17.481 0.253634 17.733 0.302133 17.9795C0.348105 18.2073 0.399452 18.4341 0.45613 18.6595C2.1891 25.5674 8.66047 30.4598 16.0173 29.9593C24.2807 29.3973 30.5261 22.2429 29.9641 13.9776L29.9611 13.9826ZM26.6961 14.2056C26.7656 15.2226 26.7011 16.2185 26.5191 17.1785C26.5191 17.1735 26.5141 17.1685 26.5141 17.163C25.4252 14.5061 23.2742 12.5861 21.3847 11.5256C21.7672 7.02321 20.2398 5.12374 18.5098 4.81575C18.1746 4.75278 17.83 4.75899 17.4973 4.83402C17.1646 4.90904 16.8507 5.05129 16.575 5.25202C16.2992 5.45276 16.0674 5.70774 15.8938 6.00132C15.7202 6.29489 15.6084 6.62086 15.5653 6.95921C15.5232 7.28559 15.5459 7.61708 15.632 7.9347C15.7182 8.25231 15.8661 8.54982 16.0674 8.81017C16.2687 9.07053 16.5194 9.28863 16.805 9.45199C17.0907 9.61534 17.4058 9.72074 17.7323 9.76215C17.8528 9.77765 17.9708 9.78265 18.0863 9.78015C18.0947 9.94085 18.099 10.1017 18.0993 10.2626C16.4998 9.86765 15.0059 9.78765 13.6429 9.91115C13.1303 9.94478 12.6203 10.0091 12.1154 10.1036C12.2854 8.58368 12.8574 6.87421 13.9639 5.62673C15.0339 4.41775 16.6258 3.72727 18.3608 3.90426C18.6898 3.93776 19.0413 4.01976 19.3568 4.12526C19.3723 4.13026 19.3878 4.13526 19.4008 4.13776C23.4207 5.77573 26.3806 9.59266 26.6936 14.2056H26.6961ZM16.2408 16.4955C16.2408 16.4955 16.2408 16.498 16.2383 16.5005C15.8591 17.0455 15.4294 17.5536 14.9549 18.018C14.2362 17.2589 13.6278 16.4025 13.1474 15.474C13.1244 15.425 13.0989 15.3815 13.0754 15.3325V15.3275C12.7939 14.7258 12.5688 14.0993 12.4029 13.4561C13.4679 13.2046 14.5129 13.1121 15.5118 13.1611L15.6708 13.1686H15.6758C16.3023 13.2201 16.9543 13.3356 17.6293 13.5206C17.316 14.5741 16.8489 15.5757 16.2433 16.493L16.2408 16.4955ZM11.1169 3.93526L11.1094 3.94526C9.35096 6.21472 8.76547 9.03567 8.79147 11.2021C4.69955 13.1221 3.82157 15.394 4.41705 17.047C4.43205 17.0935 4.45055 17.137 4.46855 17.181C4.72511 17.7939 5.21449 18.2798 5.82914 18.532C6.44379 18.7842 7.13343 18.782 7.74649 18.526C8.35934 18.2694 8.84525 17.7801 9.09745 17.1654C9.34965 16.5508 9.3475 15.8611 9.09147 15.2481C9.04486 15.1392 8.99091 15.0336 8.92997 14.9321C9.05847 14.8471 9.19696 14.7631 9.34596 14.6756C9.80245 16.2595 10.4779 17.597 11.2659 18.716C11.5509 19.1395 11.8589 19.5475 12.1949 19.9405C10.7934 20.5539 9.02747 20.9134 7.392 20.5794C5.81103 20.2565 4.41705 19.2245 3.70107 17.6325C3.56391 17.3203 3.46065 16.9943 3.39307 16.66C3.35086 16.373 3.31917 16.0844 3.29808 15.795C2.93308 10.4221 6.26552 5.63973 11.1169 3.93526ZM15.7938 26.6968C12.6034 26.9148 9.62046 25.8269 7.3665 23.8909C10.2109 24.2789 12.9474 23.3749 14.8114 22.2689C18.5203 24.8539 20.9282 24.4789 22.0627 23.1364C22.285 22.8773 22.452 22.5755 22.5534 22.2495C22.6548 21.9236 22.6885 21.5803 22.6524 21.2409C22.6164 20.9014 22.5113 20.5729 22.3437 20.2755C22.1761 19.9781 21.9495 19.7181 21.6777 19.5115C21.416 19.3119 21.1175 19.1659 20.7993 19.0818C20.4811 18.9977 20.1495 18.9771 19.8233 19.0212C19.4972 19.0653 19.1829 19.1733 18.8985 19.3389C18.6141 19.5045 18.3651 19.7246 18.1658 19.9865C18.0943 20.0815 18.0298 20.1845 17.9733 20.287C17.8373 20.2175 17.6933 20.1405 17.5473 20.056C18.5924 18.9778 19.4488 17.7316 20.0808 16.3695C20.307 15.9085 20.5059 15.4345 20.6762 14.9501C21.9087 15.859 23.1047 17.2065 23.6337 18.79C24.1447 20.32 23.9492 22.0449 22.9277 23.4599C22.7259 23.7344 22.4953 23.9865 22.2397 24.2119L22.2297 24.2219C20.3838 25.6759 18.1414 26.5377 15.7968 26.6943L15.7938 26.6968Z" fill="#222239"/>
<g style="mix-blend-mode:overlay" opacity="0.9">
<path d="M18.5099 4.81351C18.2286 4.76008 17.94 4.7567 17.6575 4.80351C19.0929 5.5835 20.1374 7.75796 19.5884 12.0499C19.4066 13.4457 18.9965 14.8021 18.3745 16.0648C17.8384 17.2171 17.1407 18.287 16.3025 19.2422C16.6999 19.5411 17.1157 19.8147 17.5475 20.0612C18.5927 18.9832 19.4492 17.7372 20.0814 16.3753C20.705 15.1132 21.1152 13.7565 21.2954 12.3604C21.9504 7.25196 20.3434 5.14201 18.5104 4.81551L18.5099 4.81351Z" fill="#222239"/>
</g>
<g style="mix-blend-mode:overlay" opacity="0.8">
<path d="M19.5879 12.0474C20.1374 7.75748 19.0925 5.58102 17.6575 4.80054C17.601 4.80804 17.5475 4.82104 17.4905 4.83404C18.895 5.64252 19.9059 7.81398 19.3645 12.0474C19.1827 13.4432 18.7725 14.7996 18.1505 16.0623C17.6338 17.1738 16.966 18.2086 16.166 19.1373C16.212 19.1733 16.256 19.2068 16.302 19.2398C17.1395 18.2839 17.8369 17.2139 18.3735 16.0618C18.9972 14.7997 19.4076 13.4436 19.5879 12.0474Z" fill="#222239"/>
</g>
<g style="mix-blend-mode:overlay" opacity="0.5">
<path d="M14.1331 21.7787C13.9971 21.6762 13.8686 21.5682 13.7381 21.4602C11.6202 22.3437 8.68572 22.8977 5.76978 22.2202C6.24465 22.8284 6.77858 23.3881 7.36375 23.8912C10.2082 24.2792 12.9446 23.3752 14.8086 22.2692C14.5795 22.1092 14.3535 21.9448 14.1306 21.7762L14.1331 21.7787Z" fill="#222239"/>
</g>
<g style="mix-blend-mode:overlay" opacity="0.6">
<path d="M13.7401 21.4602C13.6761 21.4062 13.6096 21.3527 13.5481 21.2987C11.4147 22.1507 8.46521 22.6617 5.55676 21.9352C5.62876 22.0302 5.70076 22.1277 5.77226 22.2202C8.6862 22.8977 11.6221 22.3437 13.7401 21.4602Z" fill="#222239"/>
</g>
<g style="mix-blend-mode:overlay" opacity="0.9">
<path d="M4.41975 17.0502C4.43475 17.0962 4.45325 17.1402 4.47125 17.1837C4.56625 17.4097 4.68925 17.6122 4.83824 17.7947C4.79724 16.1622 6.15772 14.1672 10.1466 12.4988C11.4462 11.9582 12.826 11.6356 14.2306 11.5438C15.4969 11.4309 16.7728 11.5001 18.0195 11.7493C18.084 11.2103 18.1095 10.7073 18.1045 10.2628C16.6484 9.89626 15.1411 9.77744 13.6456 9.91132C12.2409 10.0033 10.861 10.326 9.56115 10.8663C4.81024 12.8533 3.78576 15.2997 4.42025 17.0527V17.0502H4.41975Z" fill="#222239"/>
</g>
<g style="mix-blend-mode:overlay" opacity="0.8">
<path d="M10.1466 12.5013C6.15767 14.1703 4.7967 16.1647 4.8382 17.7972C4.8742 17.8407 4.9127 17.8822 4.9512 17.9232C4.9482 16.3032 6.32417 14.3423 10.2596 12.6938C11.5592 12.1533 12.939 11.8306 14.3435 11.7388C15.5645 11.6308 16.7945 11.6914 17.9989 11.9188C18.007 11.8625 18.0139 11.806 18.0194 11.7493C16.7726 11.5016 15.4968 11.4325 14.2305 11.5443C12.826 11.6364 11.4463 11.959 10.1466 12.4993V12.5013Z" fill="#222239"/>
</g>
<g style="mix-blend-mode:overlay" opacity="0.4">
<path d="M21.3004 12.3579C21.2804 12.5274 21.2519 12.6914 21.2234 12.8584C23.0459 14.2498 24.9943 16.5163 25.8673 19.3782C26.1558 18.6621 26.3734 17.9194 26.5168 17.1608C25.4308 14.5038 23.2798 12.5859 21.3904 11.5259C21.3674 11.7959 21.3389 12.0704 21.3029 12.3579H21.3004Z" fill="#222239"/>
</g>
<g style="mix-blend-mode:overlay" opacity="0.5">
<path d="M21.2234 12.8583C21.2079 12.9403 21.1949 13.0253 21.1794 13.1073C22.9844 14.5292 24.9019 16.8272 25.7259 19.7096C25.7744 19.5996 25.8209 19.4887 25.8644 19.3787C24.9919 16.5162 23.0459 14.2523 21.2204 12.8583H21.2234Z" fill="#222239"/>
</g>
<g style="mix-blend-mode:overlay" opacity="0.9">
<path d="M22.0629 23.1342C22.2484 22.9156 22.3959 22.6675 22.4994 22.4002C21.1054 23.2522 18.6995 23.0702 15.2575 20.4487C14.1386 19.5941 13.1689 18.5601 12.3876 17.3888C11.6566 16.3489 11.0782 15.2097 10.6701 14.0059C10.1721 14.2189 9.72313 14.4499 9.33813 14.6758C9.74963 16.1199 10.4003 17.4848 11.2631 18.7138C12.0331 19.8637 12.9931 20.9037 14.133 21.7737C18.23 24.8952 20.8614 24.5587 22.0599 23.1337H22.0629V23.1342Z" fill="#222239"/>
</g>
<g style="mix-blend-mode:overlay" opacity="0.8">
<path d="M15.2601 20.4491C18.6995 23.0696 21.1075 23.2521 22.5009 22.3996C22.5214 22.3461 22.5394 22.2921 22.5549 22.2406C21.1535 23.0546 18.766 22.8411 15.3726 20.2567C14.2537 19.402 13.2839 18.368 12.5026 17.1967C11.7986 16.1937 11.2363 15.0984 10.8317 13.9418C10.7777 13.9648 10.7267 13.9853 10.6752 14.0083C11.0831 15.2123 11.6613 16.3516 12.3921 17.3917C13.1621 18.5417 14.1221 19.5817 15.2621 20.4516L15.2596 20.4491H15.2601Z" fill="#222239"/>
</g>
<g style="mix-blend-mode:overlay" opacity="0.3">
<path d="M9.55872 10.8614C9.71521 10.7969 9.87171 10.7379 10.0307 10.6789C10.3237 8.40445 11.3117 5.58351 13.3556 3.39905C12.5907 3.50905 11.8382 3.68904 11.1092 3.94304C9.35022 6.21249 8.76523 9.03344 8.79123 11.2004C9.03473 11.0854 9.28922 10.9719 9.55621 10.8619L9.55872 10.8614Z" fill="#222239"/>
</g>
<g style="mix-blend-mode:overlay" opacity="0.4">
<path d="M10.0302 10.6789C10.1101 10.6509 10.1871 10.6199 10.2666 10.5919C10.5951 8.31695 11.6271 5.509 13.7091 3.35254C13.5911 3.36554 13.4726 3.38104 13.3546 3.39654C11.3111 5.5835 10.3231 8.40194 10.0307 10.6764V10.6789H10.0302Z" fill="#222239"/>
</g>
<g style="mix-blend-mode:multiply" opacity="0.4">
<path d="M13.9816 0.0360667C9.86417 0.316061 6.25024 2.23353 3.72679 5.10597L3.67029 5.16997C4.16028 5.65796 5.76725 6.61794 6.41674 7.01843C7.71096 5.62413 9.32528 4.566 11.1201 3.93549C11.2461 3.771 11.3791 3.6095 11.5181 3.453C13.2121 1.54054 15.5251 0.531557 18.21 0.531557C18.508 0.531557 19.1165 0.580556 19.129 0.580556C17.4583 0.0999538 15.7164 -0.0844929 13.9821 0.0355667L13.9816 0.0360667Z" fill="#222239"/>
</g>
<g style="mix-blend-mode:multiply" opacity="0.4">
<path d="M15.794 26.6995C12.6036 26.9175 9.62062 25.8295 7.36667 23.8941C7.15499 23.8664 6.94436 23.8312 6.73518 23.7886C4.23223 23.2776 2.19927 21.7786 0.859291 19.4557C0.711744 19.1989 0.577243 18.9349 0.456299 18.6647C2.18927 25.5725 8.66064 30.4655 16.015 29.9645C16.0485 29.2075 15.825 27.4495 15.7915 26.6995H15.794Z" fill="#222239"/>
</g>
<g style="mix-blend-mode:multiply" opacity="0.4">
<path d="M29.9618 13.9828C29.4998 13.9363 27.2509 14.1138 26.6969 14.2058C26.7659 15.2228 26.7019 16.2188 26.5194 17.1788C26.5964 17.3688 26.6709 17.5638 26.7374 17.7613C27.5464 20.1847 27.2639 22.6927 25.9239 25.0181C25.7756 25.2743 25.6145 25.523 25.4414 25.7631C25.4414 25.7631 25.4489 25.7576 25.4514 25.7526C28.4988 22.7877 30.2723 18.5573 29.9618 13.9853V13.9828Z" fill="#222239"/>
</g>
<g style="mix-blend-mode:multiply" opacity="0.5">
<path d="M18.364 3.90195C18.6925 3.93545 19.044 4.01745 19.36 4.12295C19.375 4.12795 19.391 4.13295 19.4035 4.13545C20.6912 4.66101 21.8757 5.4102 22.9024 6.3484C22.9024 6.3484 22.9074 6.3509 22.9099 6.3534C23.4029 5.79141 24.3499 5.17293 24.3499 5.17293C24.3499 5.17293 22.8999 3.68895 20.6795 3.22696C19.1265 2.90347 15.6226 2.59298 13.4121 6.3534L13.4326 6.3334C13.5971 6.08641 13.7691 5.84541 13.9666 5.62442C15.0371 4.41544 16.6285 3.72445 18.364 3.90195Z" fill="#222239"/>
</g>
<g style="mix-blend-mode:multiply" opacity="0.5">
<path d="M22.9279 23.4626C22.7261 23.7371 22.4954 23.9892 22.2399 24.2145C22.2299 24.2245 22.2169 24.235 22.2064 24.2455C21.1074 25.0973 19.8665 25.7481 18.541 26.168C18.5385 26.168 18.536 26.168 18.533 26.1705C18.7745 26.879 18.836 28.0085 18.836 28.0085C18.836 28.0085 20.8459 27.4955 22.3559 25.8035C23.4109 24.62 25.4333 21.7401 23.2819 17.9462C23.2819 17.9462 23.2849 17.9587 23.2899 17.9742C23.4234 18.2392 23.5439 18.5107 23.6364 18.7907C24.1474 20.3206 23.9519 22.0456 22.9304 23.4601L22.9279 23.4626Z" fill="#222239"/>
</g>
<g style="mix-blend-mode:multiply" opacity="0.5">
<path d="M3.70678 17.6382C3.56941 17.3259 3.46599 16.9997 3.39829 16.6653C3.39579 16.6503 3.39079 16.6343 3.38829 16.6188C3.19829 15.2353 3.25979 13.8338 3.55528 12.4838V12.4758C2.8208 12.3318 1.81232 11.8188 1.81232 11.8188C1.81232 11.8188 1.25233 13.8188 1.96381 15.9698C2.46181 17.4762 3.94278 20.6672 8.30369 20.7007C8.30369 20.7007 8.29119 20.6977 8.2757 20.6927C7.9807 20.6747 7.68571 20.6442 7.39571 20.5852C5.81424 20.2617 4.42027 19.2297 3.70378 17.6382H3.70678Z" fill="#222239"/>
</g>
<g style="mix-blend-mode:multiply" opacity="0.6">
<path d="M17.7325 9.7604C17.853 9.7754 17.971 9.7804 18.0865 9.7779C18.0865 9.7779 18.007 8.21993 17.817 7.41894C17.6245 6.62046 17.342 6.08897 17.034 5.78897C16.8111 5.57348 16.1101 5.30598 15.5661 6.95395C15.5239 7.28033 15.5465 7.61184 15.6325 7.92948C15.7186 8.24713 15.8665 8.54467 16.0678 8.80508C16.269 9.06549 16.5196 9.28364 16.8053 9.44705C17.091 9.61047 17.4061 9.71593 17.7325 9.7574V9.7599V9.7604Z" fill="#222239"/>
</g>
<g style="mix-blend-mode:multiply" opacity="0.5">
<path d="M9.09517 15.2532C9.04838 15.1445 8.99426 15.0391 8.93317 14.9377C8.93317 14.9377 7.62119 15.7847 7.0257 16.3492C6.43022 16.9142 6.11172 17.4252 6.00672 17.8432C5.93223 18.1437 6.05022 18.8832 7.74969 18.5312C8.36254 18.2746 8.84845 17.7852 9.10065 17.1706C9.35285 16.5559 9.3507 15.8663 9.09467 15.2532H9.09517Z" fill="#222239"/>
</g>
<g style="mix-blend-mode:multiply" opacity="0.6">
<path d="M18.1691 19.9842C18.0971 20.0792 18.0331 20.1822 17.9766 20.2842C17.9766 20.2842 19.3655 20.9957 20.1535 21.2292C20.9415 21.4632 21.542 21.4837 21.9555 21.3652C22.2535 21.2807 22.8335 20.8057 21.6805 19.5122C21.4188 19.3128 21.1203 19.1669 20.8022 19.0828C20.484 18.9987 20.1525 18.9781 19.8264 19.0222C19.5003 19.0664 19.1861 19.1743 18.9017 19.3399C18.6173 19.5054 18.3684 19.7254 18.1691 19.9872V19.9842Z" fill="#222239"/>
</g>
<g style="mix-blend-mode:multiply" opacity="0.3">
<path d="M17.63 13.5233C17.315 14.5708 16.873 15.5233 16.3315 16.3623C16.303 16.4058 16.275 16.4498 16.244 16.4958C16.244 16.4958 16.244 16.4983 16.2415 16.5008C15.8622 17.0458 15.4325 17.5538 14.958 18.0182C15.302 18.3827 15.6715 18.7367 16.08 19.0732C16.5439 19.4381 17.0346 19.7675 17.548 20.0587C18.5932 18.9807 19.4498 17.7347 20.0819 16.3728C20.308 15.9116 20.5067 15.4374 20.6769 14.9528C20.1484 14.5653 19.6144 14.2548 19.1219 14.0443C18.6364 13.8363 18.1371 13.6622 17.6275 13.5233H17.6305H17.63Z" fill="#222239"/>
</g>
<g style="mix-blend-mode:multiply" opacity="0.3">
<path d="M7.36717 23.8941C10.2111 24.2816 12.9476 23.3781 14.8115 22.2716C14.5824 22.1116 14.3564 21.9472 14.1335 21.7786C13.4246 21.2363 12.7744 20.6213 12.1936 19.9437C10.7916 20.5566 9.02564 20.9161 7.39017 20.5821C5.8092 20.2592 4.41523 19.2272 3.69874 17.6357C3.56155 17.3233 3.45829 16.9971 3.39075 16.6627C3.80424 19.5632 5.26721 22.0941 7.36467 23.8936L7.36717 23.8941Z" fill="#222239"/>
</g>
<g style="mix-blend-mode:multiply" opacity="0.3">
<path d="M14.9575 18.0177C14.2391 17.2587 13.6308 16.4025 13.1506 15.4743C13.1276 15.4253 13.1016 15.3818 13.0786 15.3328V15.3278C12.7971 14.7261 12.5719 14.0996 12.4061 13.4563C11.9181 13.5718 11.4281 13.7158 10.9351 13.9008C10.3878 14.1195 9.85754 14.3785 9.34863 14.6758C9.80562 16.2597 10.4806 17.5972 11.2686 18.7162C11.5536 19.1397 11.8621 19.5477 12.1986 19.9407C12.7986 19.6787 13.3356 19.3682 13.7635 19.0472C14.1852 18.7306 14.5849 18.3858 14.96 18.0152L14.9575 18.0177Z" fill="#222239"/>
</g>
<g style="mix-blend-mode:multiply" opacity="0.3">
<path d="M11.1102 3.94553C9.35169 6.21499 8.76621 9.03593 8.79221 11.2024C9.04563 11.0834 9.30152 10.9697 9.55969 10.8614C10.3825 10.5177 11.2395 10.2621 12.1161 10.0989C12.2861 8.57894 12.8581 6.86947 13.9646 5.622C15.0346 4.41302 16.6266 3.72203 18.362 3.89953C18.6905 3.93303 19.042 4.01503 19.358 4.12053C19.373 4.12553 19.3885 4.13053 19.4015 4.13303C17.7543 3.46088 15.9749 3.17557 14.2001 3.29904C13.1221 3.37354 12.0901 3.59154 11.1147 3.93553C11.1122 3.93803 11.1097 3.94303 11.1072 3.94553H11.1102Z" fill="#222239"/>
</g>
<g style="mix-blend-mode:multiply" opacity="0.3">
<path d="M26.5168 17.1583C25.4289 14.5013 23.2774 12.5809 21.3879 11.5209C21.3649 11.7909 21.3369 12.0679 21.2979 12.3579C21.1834 13.2421 20.9761 14.1119 20.6794 14.9528C21.9119 15.8618 23.1079 17.2093 23.6369 18.7932C24.1474 20.3232 23.9524 22.0482 22.9309 23.4626C22.7291 23.7372 22.4984 23.9893 22.2429 24.2146L22.2329 24.2246C24.4354 22.4947 25.9928 19.9997 26.5273 17.1763C26.5273 17.1713 26.5223 17.1658 26.5223 17.1608L26.5168 17.1583Z" fill="#222239"/>
</g>
<g style="mix-blend-mode:multiply" opacity="0.3">
<path d="M12.1081 11.9058C12.1709 12.4288 12.2695 12.9468 12.4031 13.4563C13.4686 13.2048 14.513 13.1123 15.512 13.1613L15.671 13.1688H15.676C16.3025 13.2203 16.9545 13.3358 17.63 13.5208C17.7735 13.0408 17.8945 12.5423 17.9815 12.0238C18.0765 11.3773 18.1045 10.7788 18.102 10.2578C16.503 9.86284 15.009 9.78284 13.6461 9.90634C13.1335 9.93994 12.6234 10.0042 12.1186 10.0988C12.0466 10.7508 12.0436 11.3693 12.1106 11.9038L12.1081 11.9058Z" fill="#222239"/>
</g>
</g>
</g>
<defs>
<clipPath id="clip0_11060_29212">
<rect width="30" height="30" fill="white"/>
</clipPath>
<clipPath id="clip1_11060_29212">
<rect width="29.9998" height="30" fill="white"/>
</clipPath>
</defs>
</svg>
