<svg width="30" height="30" viewBox="0 0 30 30" fill="none" xmlns="http://www.w3.org/2000/svg">
<path d="M21.1719 7.63072C19.016 8.2449 15.8348 9.52953 12.9208 12.1627C9.99243 14.9188 11.9805 17.3768 12.0011 17.4012C12.0011 17.4012 10.9278 15.4219 13.5235 12.9833C13.5564 12.9544 16.8699 10.0929 21.6887 8.72021C22.3032 8.54516 22.9242 8.39947 23.5349 8.28722L23.5773 8.27946L24.3531 7.02209L24.1627 7.03554C24.1506 7.03657 22.9399 7.12704 21.1719 7.63072Z" fill="#5928B1"/>
<path d="M24.4885 4.1069C23.9921 3.68911 23.4963 3.35849 23.4914 3.35519L23.4614 3.33569L23.4262 3.33985C23.4129 3.34157 22.0752 3.50616 20.2329 4.03105C16.9366 4.96987 12.5035 6.89537 10.1032 10.7342C8.96295 12.4781 9.88063 14.5646 9.88063 14.5646L9.85297 14.0335C9.84997 13.9772 9.69249 8.35177 21.2235 5.06665C22.2328 4.77904 23.3168 4.51408 24.4459 4.27838L24.6436 4.23723L24.4885 4.1069Z" fill="#764BC4"/>
<path d="M25.1855 4.84133C25.1706 4.8429 23.6537 5.00434 21.5403 5.60623C19.3037 6.24352 16.0469 7.47925 13.2346 9.74627C11.5764 11.0345 10.5268 12.5887 10.355 14.0105C10.2707 14.7044 11.0839 16.1773 11.0839 16.1773L10.913 15.6541C10.9052 15.6303 10.1785 13.2474 13.861 10.4824C15.9244 8.93279 18.0748 7.87225 20.6277 7.14506C21.9439 6.77012 23.205 6.52384 24.599 6.26331L24.6481 6.25413L24.6694 6.20868C24.7747 5.98287 25.2769 4.99402 25.2821 4.98413L25.3636 4.82312L25.1855 4.84133Z" fill="#764BC4"/>
<path d="M9.06902 12.0765C9.20795 9.84371 10.8989 7.7807 14.0986 5.94279C15.7848 4.88999 17.6697 4.06286 19.7008 3.48421C21.4234 2.99344 22.8794 2.84691 22.8794 2.84691L21.7084 2C21.6977 2.00129 20.6183 2.13391 19.076 2.57335C9.18609 5.3908 7.96048 10.2451 8.06989 12.1965C8.26146 15.5986 12.2676 18.018 12.2676 18.018C12.2676 18.018 8.86227 15.4033 9.06902 12.0765Z" fill="#BBA5E1"/>
<path d="M9.19155 22.3694C11.3475 21.7552 14.5286 20.4706 17.4426 17.8373C20.371 15.0813 18.383 12.6233 18.3624 12.5989C18.3624 12.5989 19.4356 14.5782 16.84 17.0168C16.807 17.0456 13.4936 19.9072 8.67474 21.2799C8.0603 21.4549 7.43919 21.6006 6.82858 21.7129L6.78615 21.7206L6.01038 22.978L6.20081 22.9645C6.21287 22.9635 7.42358 22.8731 9.19155 22.3694Z" fill="#5928B1"/>
<path d="M5.87507 25.8928C6.37145 26.3106 6.86725 26.6412 6.87222 26.6445L6.90216 26.664L6.93735 26.6598C6.95069 26.6581 8.2884 26.4935 10.1307 25.9686C13.427 25.0298 17.86 23.1043 20.2605 19.2654C21.4006 17.5216 20.4829 15.4351 20.4829 15.4351L20.5106 15.9661C20.5136 16.0225 20.6711 21.6479 9.14011 24.933C8.13076 25.2206 7.04676 25.4856 5.91764 25.7213L5.71997 25.7624L5.87507 25.8928Z" fill="#764BC4"/>
<path d="M5.17809 25.1584C5.19299 25.1568 6.70993 24.9954 8.82328 24.3935C11.06 23.7562 14.3167 22.5205 17.129 20.2534C18.7873 18.9652 19.8368 17.4111 20.0086 15.9892C20.0929 15.2953 19.2796 13.8224 19.2796 13.8224L19.4506 14.3456C19.4584 14.3694 20.1851 16.7524 16.5026 19.5174C14.4392 21.0669 12.2888 22.1275 9.73585 22.8547C8.41971 23.2296 7.15862 23.4759 5.76457 23.7364L5.71547 23.7456L5.69419 23.7911C5.58889 24.0169 5.0867 25.0057 5.08145 25.0156L5 25.1766L5.17809 25.1584Z" fill="#764BC4"/>
<path d="M21.2948 17.9235C21.1558 20.1562 19.4649 22.2193 16.2652 24.0572C14.5789 25.11 12.6941 25.9371 10.663 26.5158C8.94044 27.0065 7.48438 27.153 7.48438 27.153L8.65536 28C8.66614 27.9987 9.74547 27.8661 11.2878 27.4266C21.1777 24.6092 22.4033 19.7548 22.2939 17.8035C22.1023 14.4014 18.0961 11.9819 18.0961 11.9819C18.0961 11.9819 21.5015 14.5966 21.2948 17.9235Z" fill="#BBA5E1"/>
</svg>
