<svg width="30" height="30" viewBox="0 0 30 30" fill="none" xmlns="http://www.w3.org/2000/svg">
<g id="shimmer_logo 1" clip-path="url(#clip0_10337_84045)">
<g id="Group" opacity="0.9">
<path id="Vector" d="M23.7685 6.23616C19.7809 2.00217 13.2274 1.91092 9.13098 6.0324C5.03457 10.1539 4.94631 16.9274 8.93394 21.1614L11.5555 18.5239C8.9838 15.7768 9.0458 11.3949 11.6978 8.72677C14.3497 6.05856 18.5893 6.11249 21.177 8.84354L23.7685 6.23616Z" fill="#00E0CA"/>
<path id="Vector_2" d="M6.35413 23.764C10.3417 27.9979 16.8951 28.0891 20.9915 23.9676C25.0879 19.8461 25.1762 13.0727 21.1886 8.83868L18.5673 11.476C21.139 14.2232 21.0771 18.605 18.4251 21.2732C15.7731 23.9414 11.5335 23.8874 8.94583 21.1564L6.35413 23.764Z" fill="#00E0CA"/>
</g>
</g>
<defs>
<clipPath id="clip0_10337_84045">
<rect width="30" height="30" fill="white"/>
</clipPath>
</defs>
</svg>
