<svg xmlns="http://www.w3.org/2000/svg" fill="none" viewBox="0 0 20 20">
  <path fill="url(#solana_svg__a)" d="m19.897 14.739-3.302 3.45a.77.77 0 0 1-.56.237H.383a.4.4 0 0 1-.21-.061.365.365 0 0 1-.07-.567l3.304-3.45a.77.77 0 0 1 .56-.237h15.65a.377.377 0 0 1 .352.225.365.365 0 0 1-.072.403m-3.302-6.946a.77.77 0 0 0-.56-.238H.383a.4.4 0 0 0-.21.062.365.365 0 0 0-.07.567l3.304 3.449a.77.77 0 0 0 .56.237h15.65a.4.4 0 0 0 .21-.06.365.365 0 0 0 .07-.567zM.383 5.315h15.652a.78.78 0 0 0 .56-.237l3.302-3.45a.37.37 0 0 0 .071-.403.4.4 0 0 0-.141-.164.4.4 0 0 0-.21-.061H3.967a.78.78 0 0 0-.56.237L.104 4.687a.37.37 0 0 0-.072.403c.03.067.08.123.141.163a.4.4 0 0 0 .21.062"/>
  <defs>
    <linearGradient id="solana_svg__a" x1="1.688" x2="17.622" y1="18.841" y2=".403" gradientUnits="userSpaceOnUse">
      <stop offset=".08" stop-color="#9945FF"/>
      <stop offset=".3" stop-color="#8752F3"/>
      <stop offset=".5" stop-color="#5497D5"/>
      <stop offset=".6" stop-color="#43B4CA"/>
      <stop offset=".72" stop-color="#28E0B9"/>
      <stop offset=".97" stop-color="#19FB9B"/>
    </linearGradient>
  </defs>
</svg>
