<svg width="30" height="30" viewBox="0 0 30 30" fill="none" xmlns="http://www.w3.org/2000/svg">
<g clip-path="url(#clip0_11788_49274)">
<path fill-rule="evenodd" clip-rule="evenodd" d="M30 0H0V30H30V0ZM24.375 24.375H5.625V14.4951C5.625 9.59155 9.59155 5.625 14.4847 5.625H24.3646V13.2354H14.3806L17.9723 20.1169H19.6797L16.9833 14.9427H24.375V24.375Z" fill="#FF36A0"/>
<rect x="0.25" width="82.5" height="30" fill="white"/>
<path d="M0 0C27.6087 0 55.2174 0 82.8261 0C82.8261 10 82.8261 20 82.8261 30C55.2174 30 27.6087 30 0 30C0 20 0 10 0 0ZM4.3663 0.108696C4.35652 0.430435 4.33044 0.745652 4.28261 1.06413C4.22174 1.49022 4.25761 1.9087 4.21413 2.33804C4.06304 3.53804 4.14891 4.76957 4.12609 5.97826C4.09457 6.74891 4.24891 7.49783 4.25435 8.26739C4.44674 10.0891 4.70978 11.9283 5.3913 13.6413C6.71304 17.3957 8.62609 21.1304 11.4707 23.963C13.7109 26.188 16.5174 27.7739 19.6696 28.2163C21.0957 28.4413 22.5054 28.3174 23.9196 28.087C24.4065 28.0033 24.8696 27.8489 25.3413 27.7098C26.112 27.8543 26.887 27.9337 27.6717 27.9402C26.812 28.7 25.8891 29.3543 24.8728 29.8902C25.2554 29.8815 25.6543 29.9217 26.0337 29.8685C26.9163 29.3413 27.7163 28.6467 28.4315 27.9109C29.5065 27.838 30.5685 27.6293 31.5837 27.2663C31.2565 28.1804 30.8489 29.0478 30.3641 29.8891C30.55 29.8902 30.7359 29.8913 30.9228 29.8924C31.3957 29.038 31.8043 28.1533 32.1022 27.2217C33.3413 27.6837 34.6728 27.9152 35.9946 27.9348C35.9337 28.5859 35.9011 29.25 35.7794 29.8924C35.9587 29.8924 36.138 29.8913 36.3174 29.8902C36.4217 29.2674 36.4565 28.6457 36.4641 28.0141C36.513 28.6391 36.5272 29.2652 36.5228 29.8913C51.9207 29.8913 67.3196 29.8913 82.7174 29.8913C82.7174 19.9641 82.7174 10.0359 82.7174 0.108696C66.7391 0.107609 50.7609 0.11087 34.7826 0.107609C33.9533 0.0543478 33.1946 0.303261 32.3826 0.515217C29.1772 1.57609 26.1424 2.90761 23.3967 4.89674C22.0696 5.46196 20.8239 6.17065 19.7489 7.1413C18.0054 8.68587 16.7359 10.7652 16.1489 13.0174C15.5554 15.2707 15.6457 17.6902 16.4043 19.8924C17.213 22.262 18.7783 24.3435 20.8272 25.7815C19.2 25.2326 17.8902 24.1783 16.7685 22.9043C14.9859 20.8446 13.9054 18.2837 13.5065 15.5978C13.0196 12.3054 13.5554 8.95978 14.6511 5.8413C15.3565 3.79022 16.3772 1.875 17.6304 0.106522C17.3065 0.108696 16.9815 0.102174 16.6576 0.11413C16.1185 0.921739 15.7761 1.78587 15.3598 2.65652C14.037 5.57609 13.025 8.75 12.7815 11.9587C12.4717 15.7022 13.3511 19.575 15.7272 22.5435C16.5185 23.5793 17.5076 24.3761 18.5489 25.1435C19.7141 25.9609 21.0413 26.4543 22.4293 26.7337C23.075 27.0239 23.725 27.2935 24.4087 27.4804C23.9141 27.5272 23.4283 27.6424 22.9337 27.6956C19.2163 28.0022 15.5652 26.6 12.7489 24.212C10.1848 22.063 8.27935 19.1261 6.97283 16.0696C5.42609 12.4109 4.95978 8.27609 5.05 4.33261C5.06957 2.91848 5.19565 1.51522 5.33044 0.108696C5.0087 0.108696 4.68804 0.108696 4.3663 0.108696ZM0.108696 23.4783C0.108696 23.8239 0.108696 24.1707 0.108696 24.5174C1.53043 25.863 3.07717 27.1587 4.74565 28.1891C5.72065 28.8043 6.82609 29.2522 7.875 29.738C8.33587 29.9804 8.77717 29.8707 9.2837 29.8902C5.74674 28.4457 2.79565 26.1543 0.108696 23.4783Z" fill="black"/>
<path d="M36.5176 0.641113C36.5274 1.80524 36.5198 2.97046 36.522 4.13568C35.0198 4.08785 33.5274 4.3259 32.1133 4.83242C31.8981 4.92372 31.7285 4.84329 31.522 4.77807C29.3959 4.03133 27.0883 3.94437 24.897 4.44872C25.8589 3.8759 26.8263 3.3172 27.8448 2.84764C30.2405 1.71285 32.8035 1.08024 35.4296 0.774809C35.7948 0.750896 36.1557 0.695461 36.5176 0.641113Z" fill="black"/>
<path d="M31.5219 4.77816C31.7284 4.84338 31.898 4.92382 32.1132 4.83251C33.5274 4.32599 35.0198 4.08795 36.5219 4.13577C37.7687 4.17382 38.9948 4.41512 40.1698 4.83251C40.3828 4.91947 40.5556 4.84338 40.7611 4.77925C43.2611 3.90208 46.0687 3.91621 48.5632 4.80642C48.8024 4.89229 48.9154 4.89229 49.1545 4.80642C51.6817 3.90425 54.5143 3.90534 57.0415 4.80642C57.2806 4.89229 57.3937 4.89229 57.6328 4.80642C60.0208 3.95425 62.6926 3.90534 65.11 4.67055C65.3491 4.73903 65.6035 4.86621 65.8524 4.87382C66.135 4.81621 66.4078 4.69882 66.685 4.61838C68.8719 3.96621 71.2437 3.96838 73.4295 4.61947C75.3284 5.17708 77.0708 6.21947 78.473 7.61403C79.8882 9.03795 80.9415 10.8129 81.4937 12.7456C82.1274 14.9336 82.11 17.3021 81.4458 19.4814C80.8828 21.3521 79.8491 23.0673 78.473 24.451C77.1698 25.7456 75.5741 26.739 73.8306 27.3195C71.4828 28.1097 68.8861 28.1434 66.5241 27.3956C66.1621 27.2988 65.8937 27.0945 65.5165 27.2597C62.9915 28.1608 60.1578 28.1597 57.6328 27.2586C57.2611 27.0956 56.9882 27.2988 56.6317 27.3945C54.3545 28.1151 51.8448 28.1151 49.5676 27.3956C49.2056 27.2988 48.9371 27.0945 48.56 27.2597C46.035 28.1608 43.2013 28.1597 40.6763 27.2586C40.4361 27.1716 40.3208 27.1749 40.0806 27.2597C38.773 27.7271 37.3828 27.9499 35.9948 27.9347C34.673 27.9151 33.3415 27.6836 32.1024 27.2216C31.9143 27.1684 31.7632 27.2064 31.5839 27.2662C30.5687 27.6293 29.5067 27.8379 28.4317 27.9108C28.1785 27.9238 27.9252 27.9314 27.6719 27.9401C26.8871 27.9336 26.1121 27.8542 25.3415 27.7097C25.0274 27.6456 24.7187 27.5619 24.4089 27.4803C23.7252 27.2934 23.0752 27.0238 22.4295 26.7336C21.8774 26.4445 21.3426 26.1325 20.8274 25.7814C18.7784 24.3434 17.2132 22.2619 16.4045 19.8923C15.6458 17.6901 15.5556 15.2706 16.1491 13.0173C16.7361 10.7651 18.0056 8.68577 19.7491 7.14121C20.8241 6.17055 22.0698 5.46186 23.3969 4.89664C23.8948 4.74121 24.3926 4.58469 24.8969 4.44882C27.0882 3.94447 29.3958 4.03142 31.5219 4.77816ZM67.373 12.2521C67.2904 12.0108 67.2111 11.7825 67.2284 11.5227C67.2534 10.476 67.5643 9.32816 67.3611 8.26295C67.3067 8.02381 67.223 7.79121 66.9415 7.76838C66.6089 7.72925 66.1697 7.66729 65.8621 7.82382C65.5947 8.07164 65.4871 8.51403 65.4121 8.8586C65.2089 9.98577 65.2426 11.1651 65.1165 12.3064C64.848 14.8999 64.5578 17.5097 64.3252 20.1086C64.3067 20.6836 64.3415 21.4042 64.8556 21.7727C65.2676 22.0206 65.76 21.6477 65.9045 21.2532C66.423 19.8597 66.31 18.2108 66.835 16.8271C67.1111 16.2358 67.5817 15.5716 68.0534 15.1195C68.3524 14.8336 68.8154 14.5803 69.2382 14.6358C69.7045 14.7738 69.9871 15.201 70.0893 15.6575C70.2763 16.4532 70.2187 17.3379 70.2176 18.1521C70.2219 18.9803 70.0991 19.8173 70.1502 20.639C70.1828 21.0075 70.2611 21.3662 70.6198 21.5466C70.9328 21.6966 71.423 21.9347 71.7621 21.7662C72.0469 21.589 72.1665 21.1532 72.2437 20.8466C72.4991 19.6282 72.5241 18.3097 72.6013 17.0684C72.6589 15.7314 72.7034 14.2651 72.3665 12.9619C72.1795 12.3064 71.8197 11.5456 71.2274 11.1651C70.8078 10.889 70.3708 10.914 69.8904 10.9206C69.1915 10.939 68.5078 11.2053 68.0317 11.726C67.8317 11.9456 67.6404 12.1162 67.373 12.2521ZM51.1252 11.2803C50.7958 13.889 50.4415 16.5075 50.2121 19.126C50.1458 19.7923 50.0697 20.5608 50.3219 21.1966C50.4252 21.451 50.6676 21.7629 50.9784 21.7108C51.4687 21.6869 51.8589 21.2477 52.0045 20.8075C52.2154 20.1858 52.2774 19.4782 52.3556 18.8282C52.6882 16.1129 52.9643 13.3869 53.1013 10.6542C53.1339 9.96403 53.2154 9.1749 53.0165 8.50534C52.9198 8.22055 52.7448 7.85208 52.3915 7.8586C51.9774 7.86077 51.6958 8.28469 51.5719 8.63469C51.2871 9.46729 51.2513 10.4119 51.1252 11.2803ZM54.8241 7.86947C54.4458 8.02816 54.2948 8.3999 54.223 8.77708C54.1556 9.19664 54.1361 9.63795 54.2024 10.0597C54.2502 10.2445 54.285 10.4608 54.5034 10.5064C54.8861 10.6293 55.4002 10.6499 55.7915 10.5684C56.0491 10.5119 56.1165 10.2173 56.1676 9.99664C56.2665 9.46077 56.3252 8.87925 56.2165 8.34121C56.1611 8.14773 56.1034 7.89882 55.8589 7.88795C55.5295 7.85208 55.148 7.78577 54.8241 7.86947ZM48.2937 11.0553C47.8621 10.4912 48.2948 9.48795 48.0089 8.84447C47.9154 8.62925 47.7328 8.70208 47.5567 8.75099C47.0589 8.92708 46.5328 9.1336 46.2002 9.56512C45.8328 10.0227 45.9361 10.7858 45.5828 11.2303C45.3556 11.5738 44.7361 11.3771 44.5524 11.7282C44.3045 12.1162 44.2871 12.6825 44.2165 13.1282C44.173 13.5162 44.0958 14.039 44.3067 14.389C44.4426 14.6488 44.8361 14.6651 45.0415 14.8477C45.2208 15.0793 45.2111 15.3738 45.2034 15.651C45.1458 16.9923 44.8165 18.1956 44.9774 19.5651C45.0426 20.1293 45.2045 20.8097 45.6437 21.2053C46.1448 21.6206 46.7621 21.4782 47.373 21.6412C47.9067 21.7814 48.5904 21.7869 49.0502 21.4401C49.3371 21.0564 49.385 20.4629 49.4545 19.9999C49.4926 19.614 49.5632 19.0564 49.3143 18.7271C49.023 18.5553 48.5828 18.6401 48.2556 18.6053C47.9067 18.6064 47.5784 18.3075 47.4306 18.0108C47.2904 17.6227 47.3437 17.1423 47.3871 16.739C47.448 16.2977 47.4839 15.8445 47.5915 15.4108C47.6861 15.0814 47.8534 14.739 48.1904 14.6042C48.5948 14.4401 49.1632 14.6738 49.5567 14.4521C49.7643 14.3543 49.8676 14.0662 49.9513 13.8673C50.1676 13.264 50.3208 12.5977 50.2774 11.9542C50.2556 11.7749 50.2143 11.4738 50.0415 11.3749C49.51 11.1336 48.8067 11.3064 48.2937 11.0553ZM77.2676 11.1238C76.8013 10.4988 77.2208 9.60208 76.9752 8.89447C76.8937 8.75099 76.8328 8.65425 76.6502 8.71077C76.1132 8.86621 75.4719 9.12164 75.1284 9.58468C74.7752 10.0521 74.8806 10.8129 74.5111 11.2521C74.3198 11.514 73.9002 11.4271 73.6382 11.5727C73.3306 11.8292 73.273 12.3488 73.2165 12.7206C73.1632 13.2086 73.0154 13.8336 73.2045 14.2988C73.3458 14.6521 73.6926 14.6336 73.973 14.8282C74.2045 15.1108 74.1513 15.5303 74.1371 15.8695C74.0382 17.2586 73.7165 18.5347 73.9806 19.9477C74.0698 20.4206 74.2774 21.0032 74.6926 21.2847C75.1774 21.5977 75.7078 21.489 76.2861 21.6347C76.8437 21.7792 77.4871 21.7945 77.9784 21.4553C78.2687 21.1184 78.3154 20.5336 78.3861 20.1086C78.4285 19.6945 78.5306 19.0543 78.2415 18.7108C77.8719 18.5358 77.3676 18.6738 76.9752 18.5706C76.6393 18.4325 76.3252 18.0999 76.3034 17.7227C76.2393 17.1271 76.3698 16.4879 76.4415 15.8956C76.5056 15.4716 76.6067 14.9608 76.9741 14.6912C77.4524 14.3434 78.135 14.7651 78.6143 14.376C78.8089 14.1553 78.9121 13.8358 79.0002 13.5597C79.1589 13.0184 79.2817 12.414 79.2111 11.8499C79.1741 11.6456 79.123 11.3966 78.8926 11.3336C78.3697 11.1912 77.8034 11.2162 77.2676 11.1238ZM21.0991 14.1466C21.5219 13.4662 22.3502 13.5053 23.0437 13.6401C23.5687 13.6803 23.7208 14.2401 24.1502 14.4075C24.5741 14.4749 25.0111 14.4836 25.4382 14.5086C25.7089 14.5314 25.9828 14.3869 26.0469 14.1108C26.1882 13.5043 26.0665 12.8282 25.7513 12.2923C25.4317 11.7032 24.9534 11.1597 24.3361 10.8771C24.0339 10.7629 23.6937 10.7325 23.3741 10.6977C22.7143 10.6369 21.998 10.6347 21.3589 10.8292C20.51 11.114 19.7513 11.6456 19.1806 12.3325C18.6078 13.1543 18.3752 14.2271 18.4426 15.2173C18.5024 15.851 18.6784 16.5792 19.1958 16.9988C19.6317 17.3956 20.1806 17.6151 20.7589 17.7053C21.485 17.7977 22.2437 17.7706 22.9621 17.914C23.3328 17.9934 23.4719 18.4575 23.135 18.6793C22.4371 19.0575 21.4948 19.1629 20.7339 18.9401C20.2002 18.801 20.0274 18.0553 19.5132 17.8977C19.1719 17.7945 18.7763 17.7053 18.4208 17.7695C18.06 17.8434 17.8187 18.1466 17.7534 18.4988C17.66 19.039 17.785 19.6282 18.0469 20.1064C18.6306 21.0119 19.4339 21.7793 20.5415 21.9401C21.6643 22.0619 22.8111 21.5597 23.8871 21.2869C24.2328 21.1934 24.5708 21.1792 24.8556 20.9488C25.3361 20.5695 25.5926 19.8977 25.7426 19.3227C25.9676 18.3608 26.1002 17.3651 25.7676 16.4097C25.5415 15.7684 24.998 15.2956 24.3437 15.126C23.4458 14.8347 22.5165 15.0097 21.6306 14.7782C21.323 14.6825 21.0154 14.5282 21.0991 14.1466ZM61.1067 20.3858C61.3958 20.8814 61.2339 21.3771 60.9741 21.8434C60.7524 22.2401 60.3752 22.6999 59.8926 22.751C59.673 22.7912 59.4839 22.7173 59.2676 22.6738C58.8448 22.5651 58.4132 22.6629 57.9893 22.526C57.5176 22.4151 57.1002 22.1282 56.6274 22.0445C56.1621 22.014 55.9795 22.4499 55.8665 22.8216C55.7219 23.4238 55.6654 24.1021 55.8393 24.7032C55.9382 25.0488 56.1708 25.3282 56.5393 25.389C57.3132 25.4945 58.023 25.8064 58.8024 25.8782C59.6067 25.9999 60.4154 25.9206 61.098 25.451C61.6947 25.0282 62.2382 24.4336 62.6013 23.7988C63.1371 22.8216 63.4176 21.6945 63.5578 20.5956C63.8763 18.6314 64.2165 16.5586 64.2089 14.5651C64.1947 13.701 64.1295 12.7075 63.7241 11.9282C63.4632 11.3814 62.8937 10.9945 62.2893 10.9521C61.5806 10.8814 60.8404 11.3456 60.1339 11.1771C59.8665 11.1379 59.5295 10.9901 59.2806 11.126C58.535 11.4542 57.8274 12.0108 57.3545 12.6749C56.7067 13.8325 56.2676 15.1292 56.0578 16.439C55.8904 17.5108 55.9241 18.5825 56.4067 19.5716C56.6915 20.1597 57.1165 20.5651 57.5437 21.0434C57.8143 21.339 58.1665 21.5945 58.5828 21.601C59.6295 21.4488 60.1882 20.751 61.1067 20.3858ZM28.8024 21.0869C29.2871 21.3401 29.6317 21.7293 30.1339 21.9401C30.4871 22.0847 30.8611 22.1499 31.2208 21.9825C32.7002 21.2434 33.9198 20.0216 34.5969 18.5075C34.9991 17.5608 35.2458 16.5792 35.1295 15.5423C35.0502 14.6532 34.7176 13.901 34.435 13.0684C34.2165 12.4934 33.9187 11.8499 33.4469 11.4401C33.0056 11.051 32.3763 11.2401 31.8469 11.2553C31.1828 11.3162 30.6371 11.051 29.998 11.0108C29.5154 10.9847 29.0698 11.364 28.5926 11.364C28.2871 11.3803 27.9382 11.3162 27.6719 11.4825C27.3556 11.6673 27.26 12.0542 27.1839 12.3858C26.998 13.3097 26.9328 14.2782 26.8219 15.214C26.5632 17.4184 26.3839 19.6303 26.2839 21.8477C26.2448 22.8456 26.0676 23.8803 26.135 24.8727C26.1795 25.2803 26.2513 25.7401 26.6056 25.9999C26.8263 26.1684 27.1643 26.4043 27.4448 26.2412C27.7165 26.0445 27.8524 25.639 27.9437 25.3282C28.2556 24.1738 28.3263 22.9216 28.5045 21.7401C28.5328 21.4847 28.6687 21.2966 28.8024 21.0869ZM38.8893 21.9195C39.2665 21.9651 39.5871 22.0901 39.9763 22.0162C40.6295 21.8977 41.2198 21.4803 41.7458 21.0934C42.4361 20.5553 42.7545 19.7075 43.0437 18.9119C43.6741 17.1956 43.9187 15.2695 43.4708 13.4803C43.3208 12.8314 42.935 12.2401 42.4295 11.8108C41.673 11.2216 40.7241 11.0347 39.7817 11.0977C39.1404 11.176 38.5524 11.2129 38.0045 11.5912C36.9882 12.239 36.3034 13.4727 35.8719 14.5673C35.323 16.0325 35.185 17.7369 35.648 19.2423C35.9393 20.2129 36.5393 21.0706 37.3806 21.6412C37.8719 21.9347 38.348 21.8782 38.8893 21.9195ZM53.6915 13.6956C53.41 15.764 53.2447 17.8358 53.0556 19.914C53.0306 20.3466 52.985 20.9434 53.2513 21.314C53.41 21.5369 53.6687 21.5216 53.9132 21.5282C54.1752 21.5119 54.4904 21.5336 54.6665 21.2999C54.9241 20.989 54.9708 20.4901 55.0339 20.1053C55.3861 17.8303 55.5817 15.5434 55.8534 13.2597C55.8806 12.8673 55.9534 12.2629 55.6534 11.9553C55.3698 11.6695 55.0274 11.7966 54.6752 11.8249C54.4252 11.8749 54.1795 11.8249 54.0404 12.0847C53.7839 12.5456 53.7654 13.1803 53.6915 13.6956Z" fill="#FCC128"/>
<path d="M30.5632 14.2674C31.0414 14.1718 31.5469 14.262 31.8903 14.6283C32.3577 15.0837 32.4675 15.6816 32.5338 16.3044C32.586 16.8903 32.4729 17.5957 32.0719 18.0511C31.7121 18.3979 31.3295 18.3381 30.8708 18.3229C30.4153 18.2903 29.8371 18.3979 29.536 17.9631C29.1566 17.4044 28.9523 16.6435 29.1273 15.9794C29.2392 15.5348 29.5414 15.174 29.8295 14.8305C30.0229 14.6077 30.274 14.3555 30.5632 14.2674Z" fill="#FCC128"/>
<path d="M19.5 9.5L30 9V25L28 27L18.5 22L16.5 16L19.5 9.5Z" fill="#FCC128"/>
</g>
<defs>
<clipPath id="clip0_11788_49274">
<rect width="30" height="30" fill="white"/>
</clipPath>
</defs>
</svg>
