<svg width="30" height="30" viewBox="0 0 30 30" fill="none" xmlns="http://www.w3.org/2000/svg">
<g clip-path="url(#clip0_12075_66056)">
<g clip-path="url(#clip1_12075_66056)">
<mask id="mask0_12075_66056" style="mask-type:luminance" maskUnits="userSpaceOnUse" x="0" y="0" width="30" height="30">
<path d="M30 0H0V30H30V0Z" fill="white"/>
</mask>
<g mask="url(#mask0_12075_66056)">
<path d="M24.9865 3.16703L27.2109 2.62665V5.36093L24.9865 3.16703Z" fill="#38999B"/>
<path d="M24.9865 3.16703L27.2109 2.62665V5.36093L24.9865 3.16703Z" fill="#38999B"/>
<path d="M27.062 2.81346V5.00637L25.2782 3.24715L27.062 2.81346ZM27.3598 2.43851L24.6946 3.08659L27.3598 5.71515V2.43851Z" fill="black"/>
<path d="M22.4176 21.4298L22.2846 21.4768L15.0105 14.303V14.1247L22.4176 21.4298Z" fill="#38999B"/>
<path d="M15.0105 14.1247V14.303L22.2846 21.4768L22.4176 21.4298L15.0105 14.1247Z" fill="black"/>
<path d="M3.07434 19.5705V3.22452L14.5134 5.82957V23.3788L3.07434 19.5705Z" fill="#183859"/>
<path d="M3.57075 3.8394L14.0171 6.21929V22.6965L3.57075 19.2191V3.8394ZM2.57812 2.60883V19.922L15.0098 24.0602V5.441L2.57812 2.60883Z" fill="black"/>
<path d="M2.57812 2.60883V19.922L15.0098 24.0602V5.441L2.57812 2.60883Z" stroke="white" stroke-width="0.234375" stroke-linecap="round" stroke-linejoin="round"/>
<path d="M2.57812 19.9222V2.60898L14.9861 0" stroke="white" stroke-width="0.234375" stroke-linecap="round" stroke-linejoin="round"/>
<path d="M2.57812 2.60883V19.922L15.0098 24.0602V5.441L2.57812 2.60883Z" stroke="white" stroke-width="0.234375" stroke-linecap="round" stroke-linejoin="round"/>
<path d="M27.3799 22.7073L15.0306 27.0932L2.5979 22.956L6.24384 21.836L14.9899 24.7465L23.7091 21.649L27.3799 22.7073Z" fill="#878781"/>
<path d="M27.4216 25.6131L15.0713 29.9999L2.63965 25.8618L6.28459 24.7418L15.0307 27.6533L23.7499 24.5558L27.4216 25.6131Z" fill="#BBBBB8"/>
<path d="M22.1716 3.85127L24.6483 3.24921L27.2112 5.77594V8.82154L22.1716 3.85127Z" fill="#38999B"/>
<path d="M24.6025 3.41173L27.0612 5.83666V8.46619L22.4624 3.93058L24.6016 3.41075M24.6948 3.0867L21.8798 3.77102L27.36 9.17595V5.71526L24.6948 3.0867Z" fill="black"/>
<path d="M19.3558 4.53564L21.8334 3.93356L27.2115 9.23767V12.2832L19.3558 4.53564Z" fill="#38999B"/>
<path d="M21.7876 4.09608L27.0615 9.29739V11.9279L19.6465 4.61494L21.7867 4.09509M21.88 3.77106L19.0638 4.45536L27.3602 12.6376V9.17599L21.88 3.77106Z" fill="black"/>
<path d="M16.5396 5.21999L19.0171 4.61792L27.2112 12.6984V15.745L16.5396 5.21999Z" fill="#38999B"/>
<path d="M18.9713 4.78043L27.0623 12.7601V15.3906L16.8313 5.30028L18.9713 4.78043ZM19.0637 4.45541L16.2476 5.13972L27.3601 16.0993V12.6377L19.0637 4.45541Z" fill="black"/>
<path d="M15.1597 7.31995V5.55584L16.2009 5.30228L27.2111 16.1602V19.2057L15.1597 7.31995Z" fill="#38999B"/>
<path d="M16.1551 5.46479L27.061 16.2218V18.8514L15.3073 7.25926V5.67037L16.1551 5.46479ZM16.2473 5.13977L15.0105 5.44031V7.38065L27.3598 19.5601V16.0995L16.2473 5.13977Z" fill="black"/>
<path d="M15.1597 10.7804V7.73575L27.1734 19.5844L24.9033 20.391L15.1597 10.7804Z" fill="#38999B"/>
<path d="M15.3083 8.09028L26.9022 19.5247L24.9418 20.2218L15.3083 10.7208V8.09125M15.0105 7.38052V10.8412L24.8654 20.5605L27.3598 19.6736V19.56L15.0105 7.38052Z" fill="black"/>
<path d="M15.1597 14.0639V11.1955L24.5936 20.5007L22.4554 21.2604L15.1597 14.0639Z" fill="#38999B"/>
<path d="M15.3083 11.551L24.3234 20.4421L22.4949 21.0912L15.3093 14.0043V11.552M15.0105 10.8412V14.1247L22.4176 21.4298L24.8654 20.5605L15.0105 10.8412Z" fill="black"/>
<path d="M15.1597 21.1644V18.1178L19.4329 22.3334L17.1618 23.14L15.1597 21.1644Z" fill="#38999B"/>
<path d="M15.3083 18.4733L19.1627 22.2747L17.2012 22.9717L15.3083 21.1048V18.4743M15.0105 17.7635V21.2252L17.1239 23.3094L17.2569 23.2624L19.7047 22.3931L15.0105 17.7635Z" fill="black"/>
<path d="M15.1597 17.7032V14.6585L22.0128 21.4174L19.7426 22.224L15.1597 17.7032Z" fill="#38999B"/>
<path d="M15.3083 15.0125L21.7426 21.3584L19.7821 22.0543L15.3083 17.6421V15.0125ZM15.0105 14.3029V17.7635L19.7047 22.3931L19.8377 22.3461L22.2846 21.4767L15.0105 14.3029Z" fill="black"/>
<path d="M15.1597 21.5803L16.8521 23.2495L15.1597 23.8515V21.5803Z" fill="#38999B"/>
<path d="M15.1597 21.5803L16.8521 23.2495L15.1597 23.8515V21.5803Z" fill="#38999B"/>
<path d="M15.3083 21.9349L16.5819 23.1909L15.3083 23.6432V21.9349ZM15.0105 21.2251V24.0602L17.1239 23.3094L15.0105 21.2251Z" fill="black"/>
<path d="M4.86682 2.62863L14.9887 0.500336L25.0798 2.48864L15.0056 4.93805L4.86682 2.62863Z" fill="#F7C78D"/>
<path d="M14.9919 0.999537L22.8009 2.53849L15.0029 4.43379L7.15713 2.64716L14.9919 0.999537ZM14.9861 0L2.57812 2.60898L15.0098 5.44116L27.3592 2.43961L14.9861 0Z" fill="black"/>
<path d="M27.3601 2.43864L15.0098 5.44116L2.57812 2.60898L14.9861 0L27.3601 2.43864Z" stroke="white" stroke-width="0.234375" stroke-linecap="round" stroke-linejoin="round"/>
<path d="M15.0099 5.44103V24.0602L27.3602 19.6734V2.43851L15.0099 5.44103Z" stroke="white" stroke-width="0.234375" stroke-linecap="round" stroke-linejoin="round"/>
<path d="M26.3674 3.68866V18.9861L16.0033 22.6671V6.20757L26.3674 3.68866ZM27.3601 2.43851L15.0107 5.44005V24.0602L27.3601 19.6734V2.43851Z" fill="black"/>
<path d="M27.3601 2.43864L15.0098 5.44116L2.57812 2.60898L14.9861 0L27.3601 2.43864Z" stroke="white" stroke-width="0.234375" stroke-linecap="round" stroke-linejoin="round"/>
<path d="M15.0099 5.44103V24.0602L27.3602 19.6734V2.43851L15.0099 5.44103Z" stroke="white" stroke-width="0.234375" stroke-linecap="round" stroke-linejoin="round"/>
</g>
</g>
</g>
<defs>
<clipPath id="clip0_12075_66056">
<rect width="30" height="30" fill="white"/>
</clipPath>
<clipPath id="clip1_12075_66056">
<rect width="30" height="30" fill="white"/>
</clipPath>
</defs>
</svg>
