<?xml version="1.0" encoding="UTF-8"?>
<svg width="488px" height="488px" viewBox="0 0 488 488" version="1.1" xmlns="http://www.w3.org/2000/svg" xmlns:xlink="http://www.w3.org/1999/xlink">
    <title>black-icon</title>
    <g id="Brand-Assets" stroke="none" stroke-width="1" fill="none" fill-rule="evenodd">
        <g id="Dark-Icon" transform="translate(-412, -412)" fill="#131415" fill-rule="nonzero">
            <path d="M642.986667,786.133333 C642.986667,793.102609 648.465177,798.79231 655.350503,799.130741 L656,799.146667 C663.187066,799.146667 669.013333,793.320399 669.013333,786.133333 L669.013333,626.72 L555.146667,626.72 C529.991937,626.72 509.6,606.328063 509.6,581.173333 C509.6,556.018604 529.991937,535.626667 555.146667,535.626667 L756.853333,535.626667 C782.008063,535.626667 802.4,556.018604 802.4,581.173333 C802.4,606.328063 782.008063,626.72 756.853333,626.72 L717.813333,626.72 L717.813333,594.186667 L756.853333,594.186667 C764.040399,594.186667 769.866667,588.360399 769.866667,581.173333 C769.866667,573.986268 764.040399,568.16 756.853333,568.16 L555.146667,568.16 C547.959601,568.16 542.133333,573.986268 542.133333,581.173333 C542.133333,588.360399 547.959601,594.186667 555.146667,594.186667 L701.546667,594.186667 L701.546667,786.133333 C701.546667,811.288063 681.154729,831.68 656,831.68 C630.845271,831.68 610.453333,811.288063 610.453333,786.133333 L610.453333,662.506667 L431.612571,662.509569 C435.057235,783.47588 534.200354,880.48 656,880.48 C779.976881,880.48 880.48,779.976881 880.48,656 C880.48,532.023119 779.976881,431.52 656,431.52 C541.945774,431.52 447.75817,516.579122 433.41192,626.722635 L413.738759,626.719876 C428.203786,505.767379 531.15162,412 656,412 C790.757479,412 900,521.242521 900,656 C900,790.757479 790.757479,900 656,900 C521.242521,900 412,790.757479 412,656 C412,651.634958 412.114621,647.296687 412.341016,642.988032 L642.986667,642.986667 L642.986667,786.133333 Z" id="black-icon"></path>
        </g>
    </g>
</svg>