<svg width="30" height="30" viewBox="0 0 30 30" fill="none" xmlns="http://www.w3.org/2000/svg">
<g clip-path="url(#clip0_11768_16033)">
<path d="M28.7694 9.17031C28.011 7.38864 26.9387 5.79039 25.5525 4.40175C24.1663 3.0131 22.5971 1.93886 20.8187 1.17904C18.9617 0.393013 17.0002 0 14.9863 0C12.9463 0 10.9847 0.393013 9.15392 1.17904C7.37544 1.93886 5.78005 3.0131 4.39388 4.40175C3.00772 5.79039 1.9354 7.38864 1.17693 9.17031C0.392311 11.0044 0 12.9695 0 15.0131C0 17.0305 0.392311 18.9956 1.17693 20.8559C1.9354 22.6375 3.00772 24.2358 4.39388 25.6245C5.78005 27.0131 7.37544 28.0873 9.15392 28.821C11.0109 29.607 12.9724 30 14.9863 30C17.0002 30 18.9617 29.607 20.8187 28.821C22.5971 28.0612 24.1925 26.9869 25.5787 25.5983C26.9649 24.2096 28.0372 22.6114 28.7957 20.8297C29.5803 18.9695 29.9726 17.0044 29.9726 14.9869C29.9726 12.9695 29.5541 11.0044 28.7694 9.17031ZM10.017 13.5982C10.6185 11.1877 12.8155 9.43228 15.4047 9.43228H25.8141C26.4941 10.7162 26.9125 12.131 27.0695 13.5982H10.017ZM27.0695 16.4279C26.9125 17.8952 26.4679 19.3101 25.8141 20.5939H15.4047C12.8155 20.5939 10.6447 18.8122 10.017 16.4279H27.0695ZM6.38159 6.39301C8.68315 4.08734 11.7432 2.82969 14.9863 2.82969C18.2294 2.82969 21.2895 4.08734 23.5909 6.39301C23.6694 6.47162 23.7218 6.52402 23.8002 6.60262H15.4047C13.1555 6.60262 11.0632 7.46725 9.46775 9.0655C8.21238 10.3232 7.4016 11.8952 7.14006 13.5982H2.9031C3.21695 10.8734 4.42004 8.35808 6.38159 6.39301ZM14.9863 27.1965C11.7432 27.1965 8.68315 25.9388 6.38159 23.6332C4.42004 21.6682 3.21695 19.1266 2.9031 16.4279H7.14006C7.42776 18.131 8.23853 19.7031 9.46775 20.9607C11.0632 22.559 13.1555 23.4236 15.4047 23.4236H23.8002C23.7218 23.5022 23.6694 23.5546 23.5909 23.6332C21.2895 25.9388 18.2294 27.1965 14.9863 27.1965Z" fill="white"/>
</g>
<defs>
<clipPath id="clip0_11768_16033">
<rect width="30" height="30" fill="white"/>
</clipPath>
</defs>
</svg>
