<svg xmlns="http://www.w3.org/2000/svg" fill="none" viewBox="0 0 30 30">
  <g clip-path="url(#xmas_capy_svg__a)">
    <ellipse cx="15" cy="23.5" fill="url(#xmas_capy_svg__b)" rx="15" ry="13.5"/>
    <g filter="url(#xmas_capy_svg__c)" style="mix-blend-mode:soft-light">
      <ellipse cx="18.5" cy="22" fill="#fff" rx="8.5" ry="8"/>
    </g>
    <path fill="url(#xmas_capy_svg__d)" stroke="#431413" stroke-linecap="round" stroke-linejoin="round" stroke-width=".768" d="M10.6 24c-1.536-.874-3.5-1.5-3.5-1.5s-1.87 2.402-1.231 3.682c.316.632-.161.76-.64 1.28-1.457 1.58-3.2 4.479-3.2 4.479l6.4 2.559 19.834-2.56s-.825-1.378-1.28-1.919c-.58-.69-1.282-1.282-1.92-1.92-.636-.636-1.07-.976-1.919-1.279-1.176-.42-1.8-.518-3.044-.64-1.268-.124-2.243-.974-3.5-1.182-2.723-.45-3.601.365-6-1Z"/>
    <path stroke="#7F220E" stroke-linecap="round" stroke-linejoin="round" stroke-width=".768" d="M6.1 26.5s3 4 18 1"/>
    <path fill="url(#xmas_capy_svg__e)" stroke="#431413" stroke-linecap="round" stroke-linejoin="round" stroke-width=".768" d="M18.666 3.148c1.333 1.212 3.199 3.84 3.199 3.84L8.428 8.266h-.64l-3.839 3.2-.64-1.28s.625-2.024 1.28-3.2c.95-1.704 1.74-2.543 3.2-3.839C9.135 1.952 9.853.908 11.626.588c1.496-.268 2.415.11 3.84.64 1.365.51 2.12.94 3.199 1.92Z"/>
    <path fill="#431413" d="M5.869 6.987c-.285-.208-.337-.458-.64-.64-.559-.335-1.92 3.2-1.92 3.2l1.92 1.28 2.56-2.56 11.516-1.28s-2.18-1.682-3.839-1.92c-2.346-.334-3.729 4.17-4.478 1.92-.67-2.011 4.652-3.501 2.559-3.839-1.329-.214-3.046 2.617-3.2 1.28-.102-.895 1.834-1.208 1.28-1.92-.46-.591-1.295.224-1.92.64-3.838 2.56-1.98 5.2-3.838 3.84Z"/>
    <path fill="#D9D9D9" d="M1.39 10.186c.559-.558 1.13-.64 1.92-.64s1.342.1 1.919.64c.753.704 1.275 2.389.64 3.2-.345.44-1.03-.5-1.28 0-.64 1.28-2.074.909-2.56 0 .396-.396-.991-.161-1.279-.64-.406-.678.081-2 .64-2.56Z"/>
    <path stroke="#431413" stroke-linecap="round" stroke-linejoin="round" stroke-width=".768" d="M2.03 13.386c.395-.396-.992-.161-1.28-.64-.406-.678.081-2 .64-2.56.559-.558 1.13-.64 1.92-.64s1.342.1 1.919.64c.753.704 1.275 2.389.64 3.2-.345.44-1.03-.5-1.28 0-.64 1.28-2.074.909-2.56 0Zm0 0c-.64.64-.235-.441 0 0Z"/>
    <path fill="url(#xmas_capy_svg__f)" stroke="#431413" stroke-linecap="round" stroke-linejoin="round" stroke-width=".768" d="M23.144 8.907c.139.736 0 2.559 0 2.559l-15.356 1.92s-.427-.358-.64-.64c-.474-.633-.64-1.13-.64-1.92s.216-1.253.64-1.92c.783-1.229 1.835-1.41 3.2-1.919 1.193-.445 1.957-.357 3.199-.64 1.004-.228 1.529-.64 2.56-.64 1.03 0 1.538.502 2.559.64 1.238.168 2.16-.693 3.199 0 .93.62 1.073 1.461 1.28 2.56Z"/>
    <path fill="url(#xmas_capy_svg__g)" stroke="url(#xmas_capy_svg__h)" stroke-linejoin="round" stroke-width=".768" d="M14.826 10.186c-.774.155-1.919.64-1.919.64s-.861-1.982-1.92-1.92c-.557.034-.884.245-1.28.64-.394.396-.492.741-.639 1.28-.197.723 0 1.92 0 1.92l-.64.64s-2.686 1.573-1.92 2.559c.344.44.245.245.64.64 1.186 1.185-2.938 3.602-1.28 3.839.248.035.396-.05.64 0 1.226.245-.052 1.52.64 2.559.62.93.884 1.502 1.92 1.92 2.591 1.043 4.246 1.203 7.038 1.28.5.013.78-.017 1.28 0 1.766.054 2.715.737 4.479.639 1.272-.07 2.017-.164 3.199-.64.518-.208 1.036-1.682 1.036-1.682s.43.132 1 0c2.15-.499 1.803-4.076 1.803-5.356 0-.9-.78-1.81-1.28-2.56-.5-.749-2.56-1.919-2.56-1.919l-.639-1.92s-1.787-1.56-3.2-1.919c-1.21-.308-1.949-.64-3.198-.64-1.25 0-1.974-.245-3.2 0Z"/>
    <path fill="#471C13" d="M26.316 19.4a.384.384 0 0 1 .41.356V19.77l.003.03.007.119a16.036 16.036 0 0 1-.006 1.748c-.031.496-.096 1.032-.222 1.495-.12.442-.322.91-.695 1.158-.593.395-1.488.558-2.36.555-.88-.004-1.818-.177-2.525-.53a.384.384 0 0 1 .344-.687c.572.286 1.385.446 2.184.449.81.003 1.524-.154 1.931-.426.127-.085.269-.31.38-.721.108-.39.166-.868.196-1.341a14.773 14.773 0 0 0 .006-1.66l-.006-.11-.002-.028V19.81a.384.384 0 0 1 .355-.41Zm-2.655-.451a.816.816 0 0 1 1.418.807c-.223.392-.317-.18-.709-.403-.391-.223-.932-.013-.709-.404Zm4.19-.325a.816.816 0 0 1 1.084.395c.19.408-.331.154-.74.345-.408.19-.548.753-.739.345a.816.816 0 0 1 .395-1.084Z"/>
    <path fill="#171515" stroke="#171515" stroke-linecap="round" stroke-linejoin="round" stroke-width=".768" d="M27.623 12.106H13.547l-7.038 1.92v.64l7.038-.64s.657 2.47 1.92 3.198c1.298.75 2.54.75 3.838 0 1.262-.728 1.92-3.199 1.92-3.199h1.28l4.478 1.92s.517-1.14.64-1.92c.117-.74 0-1.92 0-1.92Z"/>
    <path fill="#fff" d="M15.509 13.386h-.512a.17.17 0 0 0-.17.17v.512c0 .094.076.17.17.17h.512a.17.17 0 0 0 .17-.17v-.512a.17.17 0 0 0-.17-.17ZM16.362 14.239h-.512a.17.17 0 0 0-.17.17v.512c0 .094.076.17.17.17h.512a.17.17 0 0 0 .17-.17v-.512a.17.17 0 0 0-.17-.17ZM18.068 14.239h-.512a.17.17 0 0 0-.17.17v.512c0 .094.076.17.17.17h.512a.17.17 0 0 0 .17-.17v-.512a.17.17 0 0 0-.17-.17ZM17.215 13.386h-.512a.17.17 0 0 0-.17.17v.512c0 .094.076.17.17.17h.512a.17.17 0 0 0 .17-.17v-.512a.17.17 0 0 0-.17-.17ZM24.296 13.386h-.384a.128.128 0 0 0-.128.128v.383c0 .071.057.128.128.128h.384c.07 0 .128-.057.128-.128v-.383a.128.128 0 0 0-.128-.128ZM24.936 14.025h-.384a.128.128 0 0 0-.128.128v.384c0 .07.057.128.128.128h.384c.07 0 .128-.057.128-.128v-.384a.128.128 0 0 0-.128-.128ZM25.576 13.386h-.384a.128.128 0 0 0-.128.128v.383c0 .071.057.128.128.128h.384c.07 0 .128-.057.128-.128v-.383a.128.128 0 0 0-.128-.128Z"/>
  </g>
  <defs>
    <linearGradient id="xmas_capy_svg__b" x1="15" x2="15" y1="10" y2="37" gradientUnits="userSpaceOnUse">
      <stop stop-color="#C1C1FF"/>
      <stop offset="1" stop-color="#5353D3"/>
    </linearGradient>
    <linearGradient id="xmas_capy_svg__d" x1="10.6" x2="15.146" y1="30.5" y2="22.5" gradientUnits="userSpaceOnUse">
      <stop stop-color="#A9371E"/>
      <stop offset="1" stop-color="#E31D20"/>
    </linearGradient>
    <linearGradient id="xmas_capy_svg__e" x1="12.587" x2="12.587" y1="11.466" y2=".5" gradientUnits="userSpaceOnUse">
      <stop stop-color="#A9371E"/>
      <stop offset="1" stop-color="#E31D20"/>
    </linearGradient>
    <linearGradient id="xmas_capy_svg__f" x1="9.708" x2="23.144" y1="11.466" y2="6.987" gradientUnits="userSpaceOnUse">
      <stop stop-color="#D9D9D9"/>
      <stop offset="1" stop-color="#FEE5B0"/>
    </linearGradient>
    <linearGradient id="xmas_capy_svg__g" x1="20.585" x2="11.627" y1="15.984" y2="23.662" gradientUnits="userSpaceOnUse">
      <stop stop-color="#ED974F"/>
      <stop offset=".5" stop-color="#D8813D"/>
      <stop offset="1" stop-color="#814619"/>
    </linearGradient>
    <linearGradient id="xmas_capy_svg__h" x1="17.186" x2="13.547" y1="8.905" y2="28.741" gradientUnits="userSpaceOnUse">
      <stop stop-color="#4D2A0F"/>
      <stop offset="1" stop-color="#431413"/>
    </linearGradient>
    <clipPath id="xmas_capy_svg__a">
      <path fill="#fff" d="M0 0h30v30H0z"/>
    </clipPath>
    <filter id="xmas_capy_svg__c" width="25" height="24" x="6" y="10" color-interpolation-filters="sRGB" filterUnits="userSpaceOnUse">
      <feFlood flood-opacity="0" result="BackgroundImageFix"/>
      <feBlend in="SourceGraphic" in2="BackgroundImageFix" result="shape"/>
      <feGaussianBlur result="effect1_foregroundBlur_12215_20388" stdDeviation="2"/>
    </filter>
  </defs>
</svg>
