<svg xmlns="http://www.w3.org/2000/svg" fill="none" viewBox="0 0 30 30">
  <g clip-path="url(#xmas_capy_svg__a)">
    <path fill="#AE5F25" d="M8.593 7.343c.614.675 1.032 1.136.949 2.04L6.887 11.48c-.76-2.78-.414-4.416.06-4.887.33-.33 1.032.076 1.646.75Z"/>
    <path stroke="#562E11" stroke-linecap="round" stroke-linejoin="round" stroke-miterlimit="10" stroke-width=".605" d="M9.279 8.315c-1.454-2.18-2.523-1.91-2.725-1.358-.344.938-.182 2.448.484 4.507"/>
    <path fill="#ED974F" d="M21.525 7.343c-.614.675-1.033 1.136-.95 2.04l2.655 2.097c.76-2.78.414-4.416-.059-4.887-.33-.33-1.032.076-1.646.75Z"/>
    <path fill="#FFC794" d="M22.974 6.487a.697.697 0 0 0-.375.044c.134.662.375 2.293.091 4.52l.541.43c.739-2.705.431-4.327-.022-4.846l-.235-.148Z"/>
    <path stroke="#562E11" stroke-linecap="round" stroke-linejoin="round" stroke-miterlimit="10" stroke-width=".605" d="M20.81 8.315c1.454-2.18 2.523-1.91 2.725-1.358.343.938.182 2.448-.484 4.507"/>
    <path fill="#ED974F" d="M14.646 40.794Zm.385-34.658c-7.653 0-9.041 6.821-8.78 10.232-5.957 6.587-6.72 10.777-6.72 13.805l.847 1.21 1.271.788 2.059.484.605.424.523 2.326 7.044 4.072a6.298 6.298 0 0 0 6.303 0l8.567-4.952.269-1.749 2.664-.787.847-1.816c.182-3.694-.762-7.218-6.72-13.805.263-3.41-1.126-10.232-8.779-10.232Zm3.394 33.761-.198.11a6.91 6.91 0 0 1 .198-.11l8.231-4.759h.001l-8.232 4.76Zm-6.59.11c.102.055.206.102.31.151-.104-.049-.208-.097-.31-.151l-.197-.11.198.11Z"/>
    <path fill="#D47936" d="M17.09 20.788c-5.286-1.884 12.709-16.95-5.569-14.063-4.58 1.728-5.482 6.838-5.266 9.642a44.021 44.021 0 0 0-2.317 2.773 32.407 32.407 0 0 0-1.64 2.35c-2.376 3.78-2.766 6.526-2.766 8.682l.849 1.21 1.271.788 2.059.484-.06.424.162 1.734 8.068 4.665a6.29 6.29 0 0 0 2.999.84c1.3-8.392-1.568-17.096 2.21-19.529Z"/>
    <path fill="#FFC794" d="M17.55 6.49c1.295 2.249 4.8 3.218 6.38 9.878 0 0 3.693 4.965 4.662 6.6l-2.33-3.3-2.331-3.3c-.18-6.728-2.992-9.276-6.206-9.981l-.175.104Z"/>
    <path fill="#C26B2A" d="M10.23 13.574c.845-1.932 3.016-1.965 4.832-2.053 1.817.088 3.989.034 4.833 2.053.735 1.76-.49 5.51-1.459 6.45-1.13 1.094-2.53.878-3.374.878-.844 0-2.244.216-3.373-.878-.97-.94-2.22-4.706-1.459-6.45Z"/>
    <path stroke="#562E11" stroke-linecap="round" stroke-linejoin="round" stroke-miterlimit="10" stroke-width=".605" d="M11.125 16.355s-1.36.982-2.805.202M11.223 17.313s-.672 1.114-2.159.873M19.248 16.355s1.36.982 2.805.202M19.148 17.313s.672 1.114 2.159.873M17.423 18.691c-1.152.709-2.27.842-2.27-.914v-.38M12.727 18.72c1.394.72 2.425.813 2.425-.943v-1.106"/>
    <ellipse cx="12.539" cy="15.5" fill="#562E11" rx=".605" ry=".969" transform="rotate(-60 12.54 15.5)"/>
    <ellipse cx=".605" cy=".969" fill="#562E11" rx=".605" ry=".969" transform="scale(-1 1) rotate(-60 4.014 24.127)"/>
    <path fill="#562E11" d="m26.483 35.233.168.928.298-.055.299-.053-.207-1.142-.558.322Zm-23.434.82.298.053.298.055.145-.796-.558-.322-.183 1.01Zm.276-1.516.557.321.368-2.027-.298-.055-.298-.054-.329 1.815Zm23.019-1.76-.298.054.346 1.896.556-.322-.306-1.683-.298.054ZM15.032 5.832c-3.889 0-6.236 1.765-7.566 3.984-1.318 2.198-1.629 4.822-1.515 6.57l.604-.039c-.108-1.662.193-4.154 1.43-6.22 1.226-2.044 3.38-3.69 7.047-3.69 3.554 0 5.686 1.546 6.929 3.5 1.255 1.971 1.617 4.382 1.563 6.092a.816.816 0 0 1-.026.134c-.016.064-.043.164-.063.249-.02.087-.038.194-.038.298a.53.53 0 0 0 .135.375l.217-.211.218-.211c.046.047.035.088.035.047a.82.82 0 0 1 .024-.165c.018-.079.038-.148.06-.236.018-.073.041-.172.044-.261.056-1.791-.319-4.333-1.658-6.437-1.352-2.123-3.673-3.78-7.44-3.78Z"/>
    <ellipse cx="21.233" cy="12.432" fill="#000" stroke="#000" stroke-width=".363" rx="1.15" ry="1.453"/>
    <ellipse cx=".356" cy=".593" fill="#E0E0E0" rx=".356" ry=".593" transform="matrix(.96162 .2744 -.244 .96977 20.626 11.51)"/>
    <ellipse cx="1.15" cy="1.453" fill="#000" stroke="#000" stroke-width=".363" rx="1.15" ry="1.453" transform="matrix(-1 0 0 1 10.152 10.98)"/>
    <ellipse cx=".356" cy=".593" fill="#E0E0E0" rx=".356" ry=".593" transform="matrix(-.96162 .2744 .244 .96977 9.61 11.51)"/>
    <path fill="#C81417" d="M14.967 21.817c-4.553 0-7.75-3.613-8.84-5.389-2.422 2.277-5.812 7.69-6.781 11.868-.545 4.299 4.48 4.299 4.48 4.299 2.665 2.845 11.141 3.027 11.141 3.027V21.817Z"/>
    <path fill="#E31D20" d="M14.968 21.817c4.553 0 7.75-3.613 8.84-5.389 2.422 2.277 5.812 7.69 6.781 11.868.237 1.865-.394 3.459-1.39 4.056-1.299.78-3.09.243-3.09.243-2.665 2.845-11.141 3.027-11.141 3.027V21.817Z"/>
    <path stroke="#841012" stroke-linejoin="round" stroke-width=".605" d="M14.967 21.817c-4.553 0-7.75-3.613-8.84-5.389-2.422 2.277-5.812 7.69-6.781 11.868-.545 4.299 4.48 4.299 4.48 4.299 2.665 2.845 11.141 3.027 11.141 3.027V21.817ZM14.968 21.817c4.553 0 7.75-3.613 8.84-5.389 2.422 2.277 5.813 7.69 6.781 11.868.909 4.662-4.48 4.299-4.48 4.299-2.665 2.845-11.14 3.027-11.14 3.027V21.817Z"/>
    <path fill="url(#xmas_capy_svg__b)" d="M9.749 23.876c4.252 2.543 3.753-1.998 5.33-1.998-2.138-.384-6.805-2.059-8.842-5.45 0 0-.74 4.905 3.512 7.448Z"/>
    <path stroke="#841012" stroke-linejoin="round" stroke-width=".605" d="M9.749 23.876c4.192 2.319 3.753-1.998 5.33-1.998-2.137-.384-6.805-2.059-8.842-5.45 0 0-.68 5.129 3.512 7.448Z"/>
    <path fill="url(#xmas_capy_svg__c)" d="M20.24 23.876c-4.252 2.543-3.753-1.998-5.33-1.998 2.138-.384 6.805-2.059 8.842-5.45 0 0 .74 4.905-3.511 7.448Z"/>
    <path stroke="#841012" stroke-linejoin="round" stroke-width=".605" d="M20.24 23.876c-4.191 2.319-3.753-1.998-5.33-1.998 2.138-.384 6.805-2.059 8.842-5.45 0 0 .68 5.129-3.512 7.448Z"/>
    <circle cx="8.045" cy="26.456" r="5.328" fill="#B0E3F1" transform="rotate(15 8.045 26.456)"/>
    <path fill="#EAFBFF" d="M11.785 30.25a5.324 5.324 0 0 1-4.815 1.424c-.14-.033-.28-.07-.422-.107a5.324 5.324 0 0 1-3.692-3.902c1.13-.06 2.705.132 4.395.585 1.975.529 3.636 1.286 4.534 2Z"/>
    <circle cx="8.045" cy="26.456" r="5.328" stroke="#0A414D" stroke-width=".605" transform="rotate(15 8.045 26.456)"/>
    <path fill="#3C9762" stroke="#266540" stroke-linejoin="round" stroke-width=".605" d="M5.725 25.733a.121.121 0 0 0 .026.224l1.224.328-2.746 2.031a.121.121 0 0 0 .04.214l5.823 1.585a.121.121 0 0 0 .145-.16L9.06 26.843l1.224.329a.121.121 0 0 0 .134-.181l-1.193-1.916.796.213a.121.121 0 0 0 .133-.182l-1.17-1.832a.121.121 0 0 0-.158-.042l-1.93 1.001a.121.121 0 0 0 .025.224l.796.214-1.992 1.062Z"/>
    <circle cx="8.954" cy="23.064" r=".605" fill="#F6AD10" stroke="#7F4809" stroke-linejoin="round" stroke-width=".605" transform="rotate(15 8.954 23.064)"/>
    <circle cx="9.823" cy="27.309" r=".605" fill="#C163FF" stroke="#761FB1" stroke-linejoin="round" stroke-width=".605" transform="rotate(15 9.823 27.309)"/>
    <circle cx="6.605" cy="24.816" r=".605" fill="#E31D20" stroke="#A61114" stroke-linejoin="round" stroke-width=".605" transform="rotate(15 6.605 24.816)"/>
    <ellipse cx="11.166" cy="24.701" fill="#EAFBFF" rx=".941" ry="1.94" transform="rotate(-24.149 11.166 24.701)"/>
    <path fill="#D47936" d="M2.175 26.282c.27-.291.264-.665.548-.633l.24 1.261c.354.263 1.326.713 2.764.474 1.435-.24 1.52 1.021.738 1.576 0 0-.112.092-.314.207.29-.136.834-.196 1.278.405.252.342-.153 1.22-.545 1.493.41-.262.66-.523.944-.245.297.292-.246 1.65-1.477 2.176-1.23.526-2.581-.242-3.384-1.08-1.498-1.561-2.552-3.622-.792-5.634Z"/>
    <path fill="#C26B2A" d="M3.402 32.256c-1.868-2.313-1.617-4.054-.257-5.264l-.174-.34v-.657l-.28-.364-.522.64c-1.125 1.419-.882 3.357-.446 4.386l1.68 1.6Z"/>
    <path fill="#ED974F" d="M4.778 28.598c1.03-.277 1.674-.583 2.023-1l.16.497-.3.508-.641.651-1.342.394c-.593-.032-.932-.772.1-1.05ZM5.224 30.34c1.096-.252 1.738-.561 2.007-1.019l.342.583-.185.565-.532.707-1.415.366c-.691-.077-1.313-.95-.217-1.202Z"/>
    <path stroke="#562E11" stroke-linecap="round" stroke-linejoin="round" stroke-width=".605" d="M4.124 29.568c.886.104 1.26-.186 1.692-.42m-.774 2.37c.948.032 1.145-.232 1.536-.477m-.762-1.893c.265-.144.415-.267.415-.267.797-.571.726-1.848-.727-1.588-1.457.26-1.935-.189-2.29-.45l-.363-1.211s-.363-.122-.606.605-.242.641-.425.96c-.685 1.01-.18 2.694.157 3.41.24.485.472.743 1.047 1.31.34.333.764.663 1.233.898.673.336 1.075.477 1.811.155 1.25-.547 2.203-1.725 1.519-2.221-.335-.243-.562.012-1.01.292m-.761-1.893c.254-.168.887-.336 1.382.341.495.678-.207 1.317-.62 1.552"/>
    <path fill="#CFCFCF" d="M26.366 23.763c1.189.232 1.189.232 1.19.231V23.985l.004-.015.007-.042c.005-.033.012-.076.018-.128a4.998 4.998 0 0 0-.081-1.743c-.249-1.08-.99-2.352-2.765-2.805-1.753-.447-3.018.272-3.77 1.072a4.933 4.933 0 0 0-1.002 1.61l-.005.013-.002.006-.001.003c0 .001-.001.002 1.144.396l-1.145-.394a1.211 1.211 0 0 0 2.287.798v-.002l.017-.04a2.51 2.51 0 0 1 .47-.73c.301-.32.705-.565 1.408-.385.684.174.905.57 1.005 1.003a2.576 2.576 0 0 1 .038.888l-.002.018-2.303 8.597a1.211 1.211 0 0 0 2.339.627l2.32-8.656.018-.08-1.189-.233Z"/>
    <path fill="#C81417" d="M22.877 32.105c-.086.325-.032.654.124.923l2.302-.617.434-1.621-2.7.724-.16.591Zm.665-2.479 2.7-.724.435-1.62-2.701.723-.434 1.621Zm.94-3.509 2.701-.724.352-1.316c.008-.027.014-.054.02-.08l-.446-.088-2.192.587-.435 1.621Zm3.073-2.122v-.004l.002-.006.002-.015a2.142 2.142 0 0 0 .026-.17l.002-.02-.476.128.444.087Zm-3.769-2.454c.11.007.227.027.354.06.683.174.905.569 1.005 1.002.006.024.009.05.013.075l2.344-.628a3.907 3.907 0 0 0-.59-1.346l-3.126.837Zm-.79.212-3.082.826a1.21 1.21 0 0 0 2.33.178l.001-.003.016-.04a2.518 2.518 0 0 1 .47-.729c.08-.084.167-.164.265-.232Zm1.743-2.5c-1.753-.447-3.018.272-3.771 1.071-.09.095-.172.191-.248.286l4.496-1.205a4.454 4.454 0 0 0-.477-.152Zm-3.786 3.048.15.052-.148-.053-.002.001Z"/>
    <path fill="#3C9762" d="M22.877 32.105c-.087.324-.033.653.124.922l2.301-.617.435-1.62-2.701.723-.16.592Zm.665-2.479 2.7-.724.436-1.621-2.703.724-.434 1.621Zm.94-3.509 2.701-.724.353-1.317c.007-.026.013-.053.018-.08-.002 0-.034-.008-.443-.088l-2.195.587-.434 1.622Zm3.073-2.123v-.003l.001-.006.003-.015.007-.041a3.734 3.734 0 0 0 .021-.149l-.475.127.443.087Zm-3.77-2.453c.11.006.227.026.355.058.683.175.904.57 1.004 1.003.006.025.01.05.015.076l2.343-.628a3.91 3.91 0 0 0-.591-1.347l-3.125.838Zm-.786.211-3.084.826a1.209 1.209 0 0 0 2.33.178v-.003l.017-.04a2.52 2.52 0 0 1 .47-.73c.08-.084.168-.163.267-.231Zm-2.047.548.15.053-.148-.054-.002.001Z"/>
    <path fill="#0993B2" d="M22.877 32.105c-.087.324-.033.653.124.922l2.301-.617.435-1.62-2.701.723-.16.592Zm.665-2.479 2.7-.724.436-1.621-2.703.724-.434 1.621Zm.244-8.085c.109.006.226.026.354.058.683.175.904.57 1.004 1.003.006.025.01.05.015.076l2.343-.628a3.91 3.91 0 0 0-.591-1.347l-3.125.838Zm-.787.211-3.084.826a1.209 1.209 0 0 0 2.33.178v-.003l.017-.04a2.52 2.52 0 0 1 .47-.73c.08-.084.168-.163.267-.231Zm-2.047.548.15.053-.148-.054-.002.001Z"/>
    <path stroke="#0A414D" stroke-width=".605" d="M27.555 23.995v-.004l.002-.006.003-.015.007-.042c.005-.033.012-.076.018-.128a4.998 4.998 0 0 0-.081-1.743c-.249-1.08-.99-2.352-2.765-2.805-1.753-.447-3.018.272-3.77 1.072a4.933 4.933 0 0 0-1.002 1.61l-.005.013-.002.006-.001.003-.001.002a1.211 1.211 0 0 0 2.287.798v-.002l.017-.04a2.51 2.51 0 0 1 .47-.73c.301-.32.705-.565 1.408-.385.684.174.905.57 1.005 1.003a2.576 2.576 0 0 1 .038.888l-.002.018-2.303 8.597a1.211 1.211 0 0 0 2.339.627l2.32-8.656.018-.08Z"/>
    <path fill="#DF823E" d="M24.702 30.389c-1.097-.252-1.738-.561-2.007-1.019l-.342.583.185.565.531.707 1.416.366c.691-.077 1.313-.95.217-1.202Z"/>
    <path fill="#ED974F" d="M27.8 26.412c-.264-.28-.225-.603-.505-.565l-.275 1.2c-.352.266-1.314.732-2.732.527-1.415-.204-1.506 1.04-.738 1.57 0 0 .11.087.31.197-.286-.128-.823-.176-1.265.426-.42.573.003 1.091.385 1.366-.314-.204-.517-.347-.786-.128-.492.402.233 1.62 1.445 2.11 1.213.491 2.526-.319 3.347-1.138 1.947-1.94 2.54-3.622.814-5.565Z"/>
    <path fill="#FFC794" d="M23.261 27.889c-.198-.218.242-.504.486-.62l1.96.153 1.196-.445-.082-.68.38-.617.605.727.301.9c-1.536 2.642-4.597.854-4.846.582ZM24.153 30.283c.971.331 1.543-.2 1.707-.507l-2.228-.595c-.22-.045-.7-.088-.85.102-.187.238.157.585 1.37 1ZM22.888 31.599c.754.53 1.645.291 1.996.105l-2.115-.738-.578-.146c-.082.039-.057.249.697.779Z"/>
    <path stroke="#562E11" stroke-linecap="round" stroke-linejoin="round" stroke-width=".605" d="M25.858 29.617c-.886.103-1.26-.186-1.691-.42m1.137 2.37c-.948.032-1.508-.232-1.9-.477m.763-1.893c-.265-.144-.416-.268-.416-.268-.796-.57-.725-1.847.728-1.588 1.456.26 1.934-.188 2.29-.45l.363-1.21s.363-.122.605.605c.243.726.243.641.425.96.337.49.777 1.857-.157 3.409-.24.486-.471.744-1.047 1.31-.34.334-.764.664-1.233.899-.673.336-1.074.477-1.811.155-1.25-.547-2.203-1.725-1.518-2.222.335-.242.561.013 1.009.293m.762-1.893c-.255-.168-.888-.336-1.383.341s.207 1.317.62 1.552"/>
    <path fill="#FFEAEA" d="M24.659 19.88c2.664.727 2.058 3.451 2.058 3.451s0-1.877-2.058-2.543c-1.15-.372-2.12.182-2.422-.363-.353-.635 1.09-.908 2.422-.545Z"/>
    <path fill="#E31D20" stroke="#841012" stroke-width=".705" d="M15.117.472c-3.665 0-4.817 4.042-4.934 6.063h9.87c0-2.538-2.962-3.354-2.327-3.807.634-.452 2.044.729 2.326.506.282-.224-1.269-2.762-4.935-2.762Z"/>
    <path fill="#A61114" d="M14.97.477c-3.549.107-4.671 4.064-4.787 6.058h3.206c-.635-.733-1.272-1.725-1.162-2.679C12.433 2.08 14.821.57 14.97.477Z"/>
    <path stroke="#841012" stroke-width=".705" d="M10.183 6.535C10.3 4.515 11.452.472 15.117.472c3.666 0 5.217 2.538 4.935 2.762-.282.223-1.692-.958-2.326-.506-.635.453 2.326 1.27 2.326 3.807"/>
    <path fill="url(#xmas_capy_svg__d)" stroke="#841012" stroke-linejoin="round" stroke-width=".705" d="M9.901 4.843v2.874s3.077.651 5.076.651c2 0 5.076-.65 5.076-.65V4.842s-.574 1.248-1.269 1.248-.574-1.248-1.269-1.248-.574 1.248-1.269 1.248-.574-1.248-1.269-1.248-.574 1.248-1.269 1.248-.574-1.248-1.269-1.248-.574 1.248-1.269 1.248c-.694 0-1.269-1.248-1.269-1.248Z"/>
    <circle cx="20.334" cy="3.292" r=".846" fill="url(#xmas_capy_svg__e)" stroke="#841012" stroke-linejoin="round" stroke-width=".705"/>
    <path fill="#E0833F" d="M13.135 10.533c.063 0 .114.051.114.114v.684a.114.114 0 0 1-.114.114h-.684a.114.114 0 0 0-.113.114v.683a.115.115 0 0 1-.114.114h-.684a.114.114 0 0 0-.113.114v.684a.115.115 0 0 1-.114.114h-3.42a.114.114 0 0 1-.114-.114v-.684a.114.114 0 0 0-.114-.114h-.684a.114.114 0 0 1-.113-.114v-.683a.114.114 0 0 0-.114-.114h-.076c.098-.322.208-.626.327-.912h6.13Zm9.592 0c.213.518.398 1.09.548 1.721a.112.112 0 0 1-.11.102h-.685a.114.114 0 0 0-.114.114v.684a.115.115 0 0 1-.114.114h-3.419a.114.114 0 0 1-.113-.114v-.684a.114.114 0 0 0-.114-.114h-.685a.114.114 0 0 1-.113-.114v-.683a.114.114 0 0 0-.115-.114h-.684a.114.114 0 0 1-.114-.114v-.684c0-.063.051-.114.114-.114h5.718Z"/>
    <mask id="xmas_capy_svg__f" width="22" height="5" x="3.931" y="9.533" fill="#000" maskUnits="userSpaceOnUse">
      <path fill="#fff" d="M3.931 9.533h22v5h-22z"/>
      <path d="M15.757 10.533c.063 0 .114.05.114.114v.684a.114.114 0 0 1-.114.114H13.25a.114.114 0 0 0-.114.114v.683a.114.114 0 0 1-.114.114h-.683a.114.114 0 0 0-.114.114v.684a.114.114 0 0 1-.114.114h-.684a.114.114 0 0 0-.114.114v.684a.114.114 0 0 1-.115.114H7.78a.114.114 0 0 1-.114-.114v-.684a.114.114 0 0 0-.114-.114h-.684a.114.114 0 0 1-.114-.114v-.684a.114.114 0 0 0-.114-.114h-.683a.114.114 0 0 1-.114-.114v-.683a.114.114 0 0 0-.114-.114h-.684a.114.114 0 0 1-.114-.114v-.684c0-.063.05-.114.114-.114h10.712Zm9.231.798a.114.114 0 0 1-.114.114h-.683a.114.114 0 0 0-.114.114v.683a.114.114 0 0 1-.114.114h-.685a.114.114 0 0 0-.114.114v.684a.114.114 0 0 1-.114.114h-.683a.114.114 0 0 0-.114.114v.684a.114.114 0 0 1-.114.114H18.72a.114.114 0 0 1-.114-.114v-.684a.114.114 0 0 0-.114-.114h-.684a.114.114 0 0 1-.114-.114v-.684a.114.114 0 0 0-.114-.114h-.683a.114.114 0 0 1-.114-.114v-.683a.114.114 0 0 0-.114-.114h-.683a.114.114 0 0 1-.114-.114v-.684c0-.063.051-.114.114-.114h8.888c.063 0 .114.05.114.114v.684Z"/>
    </mask>
    <path fill="#333" d="M15.757 10.533c.063 0 .114.05.114.114v.684a.114.114 0 0 1-.114.114H13.25a.114.114 0 0 0-.114.114v.683a.114.114 0 0 1-.114.114h-.683a.114.114 0 0 0-.114.114v.684a.114.114 0 0 1-.114.114h-.684a.114.114 0 0 0-.114.114v.684a.114.114 0 0 1-.115.114H7.78a.114.114 0 0 1-.114-.114v-.684a.114.114 0 0 0-.114-.114h-.684a.114.114 0 0 1-.114-.114v-.684a.114.114 0 0 0-.114-.114h-.683a.114.114 0 0 1-.114-.114v-.683a.114.114 0 0 0-.114-.114h-.684a.114.114 0 0 1-.114-.114v-.684c0-.063.05-.114.114-.114h10.712Zm9.231.798a.114.114 0 0 1-.114.114h-.683a.114.114 0 0 0-.114.114v.683a.114.114 0 0 1-.114.114h-.685a.114.114 0 0 0-.114.114v.684a.114.114 0 0 1-.114.114h-.683a.114.114 0 0 0-.114.114v.684a.114.114 0 0 1-.114.114H18.72a.114.114 0 0 1-.114-.114v-.684a.114.114 0 0 0-.114-.114h-.684a.114.114 0 0 1-.114-.114v-.684a.114.114 0 0 0-.114-.114h-.683a.114.114 0 0 1-.114-.114v-.683a.114.114 0 0 0-.114-.114h-.683a.114.114 0 0 1-.114-.114v-.684c0-.063.051-.114.114-.114h8.888c.063 0 .114.05.114.114v.684Z"/>
    <path fill="#333" d="M15.871 10.647h-.342v.684h.684v-.684h-.342Zm-.114.798v-.342H13.25v.684h2.507v-.342Zm-2.621.114h-.342v.683h.684v-.683h-.342Zm-.114.797v-.342h-.683v.684h.683v-.342Zm-.797.114h-.342v.684h.683v-.684h-.341Zm-.114.798v-.342h-.684v.684h.684v-.342Zm-.799.114h-.341v.684h.683v-.684h-.341Zm-.114.798v-.342H7.78v.684h3.418v-.342Zm-3.532-.114h.342v-.684h-.684v.684h.342Zm-.114-.798v-.342h-.684v.684h.684v-.342Zm-.798-.114h.342v-.684h-.684v.684h.342Zm-.114-.798v-.342h-.683v.684h.683v-.342Zm-.797-.114h.342v-.683H5.5v.683h.342Zm-.114-.797v-.342h-.684v.684h.684v-.342Zm-.798-.114h.342v-.684h-.684v.684h.342Zm.114-.798v.342h10.712v-.684H5.045v.342Zm19.83.912v-.342h-.684v.684h.683v-.342Zm-.798.114h-.342v.683h.684v-.683h-.342Zm-.114.797v-.342h-.685v.684h.685v-.342Zm-.799.114h-.342v.684h.684v-.684h-.342Zm-.114.798v-.342h-.683v.684h.683v-.342Zm-.797.114h-.342v.684h.684v-.684h-.342Zm-.114.798v-.342H18.72v.684h3.419v-.342Zm-3.533-.114h.342v-.684h-.683v.684h.341Zm-.114-.798v-.342h-.684v.684h.684v-.342Zm-.798-.114h.342v-.684h-.684v.684h.342Zm-.114-.798v-.342h-.683v.684h.683v-.342Zm-.797-.114h.342v-.683h-.684v.683h.342Zm-.114-.797v-.342h-.683v.684h.683v-.342Zm-.797-.114h.342v-.684h-.684v.684h.342Zm.114-.798v.342h8.888v-.684h-8.888v.342Zm9.002.114h-.342v.684h.684v-.684h-.342Zm-.114-.114v.342a.228.228 0 0 1-.228-.228h.684a.456.456 0 0 0-.456-.456v.342Zm-9.002.114h.342a.228.228 0 0 1-.228.228v-.684a.456.456 0 0 0-.456.456h.342Zm.114.798v-.342c.126 0 .228.102.228.228h-.684c0 .252.204.456.456.456v-.342Zm.797.114h.342a.456.456 0 0 0-.456-.456v.684a.228.228 0 0 1-.228-.228h.342Zm.114.797v-.342c.126 0 .228.102.228.228h-.684c0 .252.204.456.456.456v-.342Zm.797.114h.342a.456.456 0 0 0-.456-.456v.684a.228.228 0 0 1-.228-.228h.342Zm.114.798v-.342c.126 0 .228.102.228.228h-.684c0 .252.204.456.456.456v-.342Zm.798.114h.342a.456.456 0 0 0-.456-.456v.684a.228.228 0 0 1-.227-.228h.341Zm.114.798v-.342c.126 0 .228.102.228.228h-.683c0 .252.204.456.455.456v-.342Zm3.533-.114h-.342c0-.126.102-.228.228-.228v.684a.456.456 0 0 0 .456-.456h-.342Zm.114-.798v-.342a.456.456 0 0 0-.456.456h.684a.228.228 0 0 1-.228.228v-.342Zm.797-.114h-.342c0-.126.102-.228.228-.228v.684a.456.456 0 0 0 .456-.456h-.342Zm.114-.798v-.342a.456.456 0 0 0-.456.456h.684a.228.228 0 0 1-.228.228v-.342Zm.8-.114h-.343c0-.126.102-.228.228-.228v.684a.456.456 0 0 0 .456-.456h-.342Zm.113-.797v-.342a.456.456 0 0 0-.456.456h.684a.228.228 0 0 1-.228.228v-.342Zm.683 0v.342a.456.456 0 0 0 .456-.456h-.684c0-.126.102-.228.228-.228v.342Zm-19.943-.798h.342a.228.228 0 0 1-.228.228v-.684a.456.456 0 0 0-.456.456h.342Zm.114.798v-.342c.126 0 .228.102.228.228h-.684c0 .252.204.456.456.456v-.342Zm.798.114h.342a.456.456 0 0 0-.456-.456v.684a.228.228 0 0 1-.228-.228h.342Zm.114.797v-.342c.126 0 .228.102.228.228H5.5c0 .252.204.456.456.456v-.342Zm.797.114h.342a.456.456 0 0 0-.456-.456v.684a.228.228 0 0 1-.228-.228h.342Zm.114.798v-.342c.126 0 .228.102.228.228h-.684c0 .252.204.456.456.456v-.342Zm.798.114h.342a.456.456 0 0 0-.456-.456v.684a.228.228 0 0 1-.228-.228h.342Zm.114.798v-.342c.126 0 .228.102.228.228h-.684c0 .252.204.456.456.456v-.342Zm3.532-.114h-.341c0-.126.102-.228.227-.228v.684a.456.456 0 0 0 .456-.456h-.341Zm.115-.798v-.342a.456.456 0 0 0-.456.456h.683a.228.228 0 0 1-.227.228v-.342Zm.798-.114h-.342c0-.126.102-.228.228-.228v.684a.456.456 0 0 0 .455-.456h-.341Zm.114-.798v-.342a.456.456 0 0 0-.456.456h.683a.228.228 0 0 1-.227.228v-.342Zm.797-.114h-.342c0-.126.102-.228.228-.228v.684a.456.456 0 0 0 .456-.456h-.342Zm.114-.797v-.342a.456.456 0 0 0-.456.456h.684a.228.228 0 0 1-.228.228v-.342Zm2.621-.114h-.342c0-.126.102-.228.228-.228v.684a.456.456 0 0 0 .456-.456h-.342Zm0-.684h.342a.456.456 0 0 0-.456-.456v.684a.228.228 0 0 1-.228-.228h.342Z" mask="url(#xmas_capy_svg__f)"/>
    <rect width=".912" height=".912" x="6.754" y="11.445" fill="#fff" rx=".114"/>
    <rect width=".912" height=".912" x="7.665" y="12.356" fill="#fff" rx=".114"/>
    <rect width=".912" height=".912" x="8.577" y="11.445" fill="#fff" rx=".114"/>
    <rect width=".912" height=".912" x="9.488" y="12.356" fill="#fff" rx=".114"/>
    <rect width=".912" height=".912" x="17.694" y="11.445" fill="#fff" rx=".114"/>
    <rect width=".912" height=".912" x="18.606" y="12.356" fill="#fff" rx=".114"/>
    <rect width=".912" height=".912" x="19.518" y="11.445" fill="#fff" rx=".114"/>
    <rect width=".912" height=".912" x="20.43" y="12.356" fill="#fff" rx=".114"/>
  </g>
  <defs>
    <linearGradient id="xmas_capy_svg__b" x1="10.634" x2="10.634" y1="16.428" y2="24.649" gradientUnits="userSpaceOnUse">
      <stop stop-color="#fff"/>
      <stop offset="1" stop-color="#D9D9D9"/>
    </linearGradient>
    <linearGradient id="xmas_capy_svg__c" x1="19.356" x2="19.356" y1="16.428" y2="24.649" gradientUnits="userSpaceOnUse">
      <stop stop-color="#fff"/>
      <stop offset="1" stop-color="#D9D9D9"/>
    </linearGradient>
    <linearGradient id="xmas_capy_svg__d" x1="14.977" x2="14.977" y1="8.368" y2="4.843" gradientUnits="userSpaceOnUse">
      <stop stop-color="#D9D9D9"/>
      <stop offset="1" stop-color="#fff"/>
    </linearGradient>
    <linearGradient id="xmas_capy_svg__e" x1="20.334" x2="20.334" y1="4.138" y2="2.446" gradientUnits="userSpaceOnUse">
      <stop stop-color="#fff"/>
      <stop offset="1" stop-color="#D9D9D9"/>
    </linearGradient>
    <clipPath id="xmas_capy_svg__a">
      <rect width="30" height="30" fill="#fff" rx="15"/>
    </clipPath>
  </defs>
</svg>
