<svg width="30" height="30" viewBox="0 0 30 30" fill="none" xmlns="http://www.w3.org/2000/svg">
<g clip-path="url(#clip0_11763_41153)">
<mask id="mask0_11763_41153" style="mask-type:luminance" maskUnits="userSpaceOnUse" x="0" y="0" width="30" height="30">
<path d="M30 0H0V30H30V0Z" fill="white"/>
</mask>
<g mask="url(#mask0_11763_41153)">
<path d="M21.5165 0H8.48345C3.79816 0 0 3.79816 0 8.48345V21.5165C0 26.2019 3.79816 30 8.48345 30H21.5165C26.2019 30 30 26.2019 30 21.5165V8.48345C30 3.79816 26.2019 0 21.5165 0Z" fill="white"/>
<path d="M15.0745 6.38611C9.38086 6.38611 7.12878 9.86559 7.12878 14.989C7.12878 20.1123 9.38086 23.7623 15.0745 23.7623C20.7681 23.7623 23.0199 20.112 23.0199 14.989C23.0199 9.86586 20.7681 6.38611 15.0745 6.38611ZM15.0752 20.9547C12.4784 20.9547 11.1334 19.4308 10.7274 16.8659C10.6968 16.6725 10.8447 16.4969 11.0398 16.4969H19.0706C19.265 16.4969 19.4127 16.6715 19.3833 16.8646C18.9884 19.4302 17.6729 20.9547 15.0755 20.9547H15.0752ZM11.0061 13.7156C10.8139 13.7156 10.667 13.5448 10.6929 13.3533C11.053 10.6859 12.3998 9.19386 15.0752 9.19386C17.7507 9.19386 19.0667 10.6865 19.4162 13.3546C19.4413 13.5456 19.2947 13.7156 19.1028 13.7156H11.0061Z" fill="#06003C"/>
</g>
</g>
<defs>
<clipPath id="clip0_11763_41153">
<rect width="30" height="30" fill="white"/>
</clipPath>
</defs>
</svg>
