<svg width="512" height="512" viewBox="0 0 512 512" fill="none" xmlns="http://www.w3.org/2000/svg">
<rect width="512" height="512" rx="256" fill="#5353D3"/>
<path d="M318.4 136C323.702 136 328 140.298 328 145.6V171.52C328 178.412 333.588 184 340.48 184H366.4C371.702 184 376 188.298 376 193.6V366.4C376 371.702 371.702 376 366.4 376H337.6C332.298 376 328 371.702 328 366.4V196.48C328 189.588 322.413 184 315.521 184H196.48C189.588 184 184 189.588 184 196.48V243.52C184 250.412 189.588 256 196.48 256H270.4C275.702 256 280 260.298 280 265.6V294.4C280 299.702 275.702 304 270.4 304H196.48C189.588 304 184 309.587 184 316.479V366.4C184 371.702 179.702 376 174.4 376H145.6C140.298 376 136 371.702 136 366.4V193.6C136 188.298 140.298 184 145.6 184H171.521C178.413 184 184 178.412 184 171.52V145.6C184 140.298 188.298 136 193.6 136H318.4Z" fill="white"/>
</svg>
