<svg xmlns="http://www.w3.org/2000/svg" fill="none" viewBox="0 0 30 30">
  <g clip-path="url(#berachain_svg__a)">
    <g clip-path="url(#berachain_svg__b)">
      <path fill="#000" d="M24.97 0H5.03A5.03 5.03 0 0 0 0 5.03v19.94A5.03 5.03 0 0 0 5.03 30h19.94A5.03 5.03 0 0 0 30 24.97V5.03A5.03 5.03 0 0 0 24.97 0Z"/>
      <path fill="#814625" d="M24.97 0H5.03A5.03 5.03 0 0 0 0 5.03v19.94A5.03 5.03 0 0 0 5.03 30h19.94A5.03 5.03 0 0 0 30 24.97V5.03A5.03 5.03 0 0 0 24.97 0Z"/>
      <path fill="#fff" d="M19.617 18.149v-1.192c.69-.252 1.193-1.033 1.193-1.957 0-.925-.503-1.708-1.193-1.958v-1.191c.65-.236 1.135-.945 1.189-1.801h-.791v.364c0 .28-.161.528-.398.651v-.17a.456.456 0 0 0-.458-.452h-.04a.456.456 0 0 0-.458.452v.17a.734.734 0 0 1-.398-.65v-.365h-.79c.053.856.538 1.565 1.188 1.8v1.192c-.688.25-1.193 1.03-1.193 1.958 0 .927.503 1.708 1.193 1.957v1.192c-.65.236-1.135.944-1.189 1.8h.791v-.364c0-.28.161-.527.398-.65v.17c0 .249.205.452.458.452h.04a.456.456 0 0 0 .458-.453v-.17a.734.734 0 0 1 .398.651v.364h.79c-.053-.856-.538-1.564-1.188-1.8Zm-1.354-2.629v-1.043c0-.28.161-.528.398-.651v.17c0 .249.205.452.458.452h.04a.456.456 0 0 0 .458-.452v-.17a.734.734 0 0 1 .398.65v1.044c0 .28-.161.528-.398.652v-.17a.456.456 0 0 0-.458-.453h-.04a.456.456 0 0 0-.458.453v.17a.738.738 0 0 1-.398-.652Zm6.207.113v-1.269c.69-.251 1.193-1.033 1.193-1.957 0-.925-.503-1.708-1.193-1.957v-.4h-.954v.4c-.69.251-1.193 1.032-1.193 1.957 0 .924.502 1.708 1.193 1.957v1.269c-.69.252-1.193 1.033-1.193 1.957 0 .925.502 1.708 1.193 1.958v.4h.954v-.4c.69-.252 1.193-1.033 1.193-1.958 0-.924-.503-1.705-1.193-1.957Zm-1.354-2.705v-1.044c0-.28.16-.528.398-.651v.17c0 .25.205.452.458.452h.038a.456.456 0 0 0 .458-.452v-.17a.734.734 0 0 1 .397.65v1.045c0 .28-.16.527-.397.65v-.17a.456.456 0 0 0-.458-.452h-.04a.456.456 0 0 0-.459.453v.17a.74.74 0 0 1-.395-.651Zm1.752 5.185c0 .28-.161.528-.398.651v-.249a.456.456 0 0 0-.458-.452h-.038a.456.456 0 0 0-.458.452v.25a.734.734 0 0 1-.398-.652V17.07c0-.28.161-.528.398-.651v.09c0 .25.205.453.458.453h.04a.456.456 0 0 0 .458-.453v-.09a.734.734 0 0 1 .398.65v1.044h-.003ZM14.102 13.99a.778.778 0 0 0-.038-.146c.007-.011 1.49-2.053.117-3.315-1.372-1.262-2.974.384-2.983.393a3.62 3.62 0 0 0-.767-.15h-.002c-.522-.086-1.255 0-1.255 0-.253.022-.507.07-.76.148-.009-.01-1.61-1.655-2.983-.393-1.371 1.262.11 3.306.117 3.314a1.17 1.17 0 0 0-.038.146c-.148.874-1.16 1.143-1.16 2.666 0 1.551 1.057 2.774 3.215 2.774h.885c.004.004.346.485 1.052.514 0 0 .163.018.538.004.749 0 1.113-.51 1.115-.516h.885c2.158 0 3.215-1.223 3.215-2.774.007-1.52-1.005-1.792-1.153-2.666Z"/>
    </g>
  </g>
  <defs>
    <clipPath id="berachain_svg__a">
      <path fill="#fff" d="M0 0h30v30H0z"/>
    </clipPath>
    <clipPath id="berachain_svg__b">
      <path fill="#fff" d="M0 0h30v30H0z"/>
    </clipPath>
  </defs>
</svg>
