<svg xmlns="http://www.w3.org/2000/svg" fill="none" viewBox="0 0 97 96">
  <g clip-path="url(#DAI_svg__a)">
    <rect width="96" height="96" x=".6" fill="#F5AC37" rx="8"/>
    <path fill="#FEFEFD" d="M69.964 51.437c.397 0 .584 0 .613-.516a35 35 0 0 0 0-5.645c0-.365-.183-.515-.582-.515H32.977c-.458 0-.581.15-.581.577v5.402c0 .697 0 .697.733.697zM68.5 38.447a.6.6 0 0 0 0-.424c-.31-.67-.678-1.31-1.105-1.912a15.5 15.5 0 0 0-2.265-2.823 7.5 7.5 0 0 0-1.408-1.366 22.06 22.06 0 0 0-9.178-4.613 23 23 0 0 0-5.201-.546h-16.43c-.458 0-.52.181-.52.576v10.774c0 .455 0 .577.582.577h35.304s.306-.061.368-.243zm0 19.303a7.2 7.2 0 0 0-1.564 0H33.008c-.458 0-.612 0-.612.608V68.89c0 .485 0 .607.612.607h15.664a7.9 7.9 0 0 0 2.232-.15 23.5 23.5 0 0 0 6.64-1.458 12.2 12.2 0 0 0 2.232-1.032h.214a19.8 19.8 0 0 0 8.536-8.525s.213-.458-.027-.579zM26.248 74.96V58.175c0-.395 0-.454-.49-.454H19.12c-.367 0-.52 0-.52-.486V51.47h7.098c.396 0 .55 0 .55-.515v-5.706c0-.365 0-.454-.488-.454h-6.64c-.367 0-.52 0-.52-.486v-5.34c0-.335 0-.425.49-.425h6.577c.458 0 .582 0 .582-.576v-16.36c0-.485 0-.607.612-.607h22.944q2.5.098 4.957.546a30 30 0 0 1 9.575 3.52 27 27 0 0 1 5.384 4.129 29.3 29.3 0 0 1 3.273 4.036 24.3 24.3 0 0 1 2.39 4.644c.077.424.487.71.914.638h5.476c.703 0 .703 0 .734.669v4.978c0 .485-.183.607-.674.607H77.61c-.427 0-.55 0-.52.547a31 31 0 0 1 0 5.552c0 .516 0 .577.584.577h4.83c.214.274 0 .547 0 .822q.047.53 0 1.06v3.673c0 .516-.151.669-.612.669H76.11a.766.766 0 0 0-.888.577 24.3 24.3 0 0 1-6.425 9.287 37 37 0 0 1-3.274 2.61c-1.224.699-2.416 1.427-3.672 2.004a33.3 33.3 0 0 1-7.22 2.275c-2.362.419-4.756.61-7.16.576H26.24v-.03z"/>
  </g>
  <defs>
    <clipPath id="DAI_svg__a">
      <rect width="96" height="96" x=".6" fill="#fff" rx="48"/>
    </clipPath>
  </defs>
</svg>
