<svg xmlns="http://www.w3.org/2000/svg" fill="none" viewBox="0 0 96 96">
  <rect width="96" height="96" fill="#DDDCDC" rx="48"/>
  <path fill="#8C8C8C" d="M48.02 37.815V8.954c-.05 0-.08.02-.115.045a.37.37 0 0 1-.252.077c-.966 1.78-1.996 3.49-3.043 5.23a360 360 0 0 0-1.246 2.083c-1.961 3.22-3.922 6.563-5.883 9.905a502 502 0 0 1-3.215 5.437c-1.062 1.78-2.125 3.56-3.158 5.338a427 427 0 0 1-3.002 5.018 407.533 407.533 0 0 0-3.003 5.018c-.181.304-.362.578-.544.853-.186.283-.373.565-.559.88h.123c.075.075.104.058.144.033a.18.18 0 0 1 .1-.033c.43-.186.89-.403 1.349-.62.46-.217.919-.434 1.348-.62a78 78 0 0 1 3.275-1.54l.156-.07 4.045-1.858 3.309-1.488 4.044-1.855c.859-.483 1.792-.89 2.683-1.28l.749-.33c.442-.192.852-.383 1.263-.575.386-.18.772-.36 1.188-.542a.264.264 0 0 0 .245-.245m-.108 49.535c.026.01.056.01.108.01V67.912c0-.123 0-.249-.123-.249-.306-.185-.643-.37-.98-.556a28 28 0 0 1-.98-.557c-1.883-1.166-3.796-2.301-5.71-3.437a352 352 0 0 1-5.81-3.5c-1.655-.992-3.34-1.982-5.025-2.973s-3.37-1.981-5.025-2.972c-.061 0-.092-.03-.123-.06-.03-.031-.061-.062-.122-.062 0 .061.03.092.061.122.03.031.061.062.061.123l1.838 2.6c1.482 2.21 3.014 4.368 4.532 6.506.867 1.222 1.73 2.438 2.577 3.653l7.353 10.403c1.186 1.678 2.343 3.328 3.499 4.976 1.234 1.759 2.466 3.516 3.732 5.305.07.073.1.104.137.117"/>
  <path fill="#343434" d="M48 8.64v40.458h24z"/>
  <path fill="#3C3C3B" d="m24 48.627 24-10.82v25.404zm24 19.288v19.288l23.53-32.93z"/>
  <path fill="#141414" d="M48 63.21V37.808l24 11.29z"/>
</svg>
