<svg xmlns="http://www.w3.org/2000/svg" fill="none" viewBox="0 0 97 96">
  <g clip-path="url(#POL_svg__a)">
    <path fill="url(#POL_svg__b)" d="M48.8 96c26.42 0 48-21.62 48-48 0-26.42-21.618-48-48-48C22.383 0 .8 21.62.8 48c0 26.42 21.62 48 48 48"/>
    <path fill="#fff" d="m62.7 58.368 13.594-7.834c.73-.422 1.153-1.19 1.153-2.035V32.832c0-.845-.461-1.613-1.153-2.035l-13.593-7.834a2.32 2.32 0 0 0-2.343 0l-13.593 7.834c-.73.422-1.152 1.19-1.152 2.035v28.032l-9.523 5.491-9.524-5.491V49.882l9.524-5.492L42.387 48v-7.373L37.28 37.67a2.46 2.46 0 0 0-1.152-.307c-.422 0-.806.115-1.152.307l-13.593 7.834c-.73.422-1.152 1.19-1.152 2.035v15.667c0 .845.46 1.613 1.151 2.036l13.594 7.833c.73.423 1.613.423 2.343 0l13.593-7.833c.73-.423 1.152-1.19 1.152-2.036V35.174l.154-.115 9.37-5.414 9.523 5.491v10.982l-9.524 5.492L55.328 48v7.373l5.107 2.957c.73.422 1.613.422 2.343 0z"/>
  </g>
  <defs>
    <linearGradient id="POL_svg__b" x1="-16.757" x2="82.238" y1="7.796" y2="68.506" gradientUnits="userSpaceOnUse">
      <stop stop-color="#A229C5"/>
      <stop offset="1" stop-color="#7B3FE4"/>
    </linearGradient>
    <clipPath id="POL_svg__a">
      <rect width="96" height="96" x=".801" fill="#fff" rx="48"/>
    </clipPath>
  </defs>
</svg>
