<svg xmlns="http://www.w3.org/2000/svg" fill="none" viewBox="0 0 97 96">
  <g clip-path="url(#USDC_svg__a)">
    <rect width="96" height="96" x=".801" fill="#2775CA" rx="8"/>
    <path fill="#fff" fill-rule="evenodd" d="M39.805 81.452c0 1.149-.884 1.802-1.975 1.455C23.32 78.194 12.8 64.343 12.8 48s10.52-30.195 25.03-34.908c1.091-.344 1.975.306 1.975 1.455v2.837c0 .765-.582 1.666-1.298 1.915-11.48 4.292-19.703 15.52-19.703 28.681s8.223 24.392 19.703 28.68c.716.27 1.298 1.15 1.298 1.918z" clip-rule="evenodd"/>
    <path fill="#fff" fill-rule="evenodd" d="M51.793 70.894c0 .844-.677 1.534-1.505 1.534h-2.993c-.828 0-1.505-.69-1.505-1.534v-4.827c-6.549-.9-9.747-4.637-10.613-9.713a1.413 1.413 0 0 1 1.392-1.649h3.425c.715 0 1.318.518 1.468 1.245.64 3.027 2.353 5.346 7.602 5.346 3.877 0 6.625-2.204 6.625-5.498 0-3.296-1.619-4.541-7.302-5.5-8.393-1.149-12.363-3.736-12.363-10.442 0-5.172 3.84-9.195 9.785-10.058v-4.732c0-.844.678-1.534 1.505-1.534h2.993c.828 0 1.505.69 1.505 1.534v4.866c4.836.883 7.904 3.679 8.902 8.315a1.41 1.41 0 0 1-1.374 1.705h-3.162c-.677 0-1.242-.46-1.448-1.13-.847-2.95-2.918-4.214-6.513-4.214-3.97 0-6.021 1.954-6.021 4.693 0 2.893 1.167 4.348 7.265 5.25 8.241 1.15 12.495 3.544 12.495 10.692 0 5.422-3.953 9.81-10.144 10.824v4.827z" clip-rule="evenodd"/>
    <path fill="#fff" fill-rule="evenodd" d="M59.772 82.907c-1.09.347-1.975-.306-1.975-1.455v-2.835c0-.843.508-1.628 1.298-1.917 11.48-4.292 19.703-15.52 19.703-28.68 0-13.163-8.224-24.39-19.703-28.682-.715-.268-1.298-1.149-1.298-1.917v-2.835c0-1.149.885-1.819 1.975-1.457 14.51 4.715 25.029 18.567 25.029 34.91-.018 16.304-10.52 30.136-25.029 34.868" clip-rule="evenodd"/>
  </g>
  <defs>
    <clipPath id="USDC_svg__a">
      <rect width="96" height="96" x=".801" fill="#fff" rx="48"/>
    </clipPath>
  </defs>
</svg>
