<svg xmlns="http://www.w3.org/2000/svg" fill="none" viewBox="0 0 97 96">
  <g clip-path="url(#USDT_svg__a)">
    <rect width="96" height="96" x=".6" fill="#1BA27A" rx="48"/>
    <path fill="#fff" d="M70.444 24H26.552v10.537H43.2v15.488h10.596V34.537h16.648z"/>
    <path fill="#fff" d="M48.6 51.675c-13.772 0-24.937-2.168-24.937-4.842s11.165-4.84 24.937-4.84c13.771 0 24.936 2.167 24.936 4.84S62.371 51.675 48.6 51.675m28-4.034c0-3.448-12.536-6.243-28-6.243s-28 2.795-28 6.243c0 3.036 9.72 5.565 22.602 6.126V76h10.595V53.776c12.98-.543 22.803-3.084 22.803-6.135"/>
  </g>
  <defs>
    <clipPath id="USDT_svg__a">
      <rect width="96" height="96" x=".6" fill="#fff" rx="48"/>
    </clipPath>
  </defs>
</svg>
