<svg width="965" height="219" viewBox="0 0 965 219" fill="none" xmlns="http://www.w3.org/2000/svg">
    <path d="M109.451 216.275C168.946 216.275 217.175 168.045 217.175 108.551C217.175 49.056 168.946 0.826172 109.451 0.826172C49.9564 0.826172 1.72656 49.056 1.72656 108.551C1.72656 168.045 49.9564 216.275 109.451 216.275Z" stroke="#127EC1" stroke-width="1.50811" stroke-miterlimit="10"/>
    <path fill-rule="evenodd" clip-rule="evenodd" d="M2.74249 109.305C2.74249 50.2265 50.6347 2.33428 109.713 2.33428C113.487 2.33428 117.216 2.52976 120.889 2.91115C71.164 12.798 33.6836 56.6743 33.6836 109.305C33.6836 161.935 71.164 205.811 120.889 215.698C117.216 216.079 113.487 216.275 109.713 216.275C50.6347 216.275 2.74249 168.383 2.74249 109.305ZM125.937 216.578C120.645 217.372 115.227 217.783 109.713 217.783C49.8018 217.783 1.23438 169.216 1.23438 109.305C1.23438 49.3936 49.8018 0.826172 109.713 0.826172C115.227 0.826172 120.645 1.23757 125.937 2.03134C131.23 1.23757 136.648 0.826172 142.162 0.826172C147.676 0.826172 153.094 1.23757 158.387 2.03134C163.679 1.23757 169.097 0.826172 174.611 0.826172C180.125 0.826172 185.543 1.23757 190.836 2.03134C196.129 1.23757 201.547 0.826172 207.06 0.826172C212.574 0.826172 217.992 1.23757 223.285 2.03134C228.578 1.23757 233.996 0.826172 239.51 0.826172C245.024 0.826172 250.442 1.23757 255.734 2.03134C261.027 1.23757 266.445 0.826172 271.959 0.826172C277.473 0.826172 282.891 1.23757 288.184 2.03134C293.476 1.23757 298.894 0.826172 304.408 0.826172C309.922 0.826172 315.34 1.23757 320.633 2.03134C325.926 1.23757 331.343 0.826172 336.857 0.826172C342.371 0.826172 347.789 1.23757 353.082 2.03134C358.375 1.23757 363.793 0.826172 369.307 0.826172C374.821 0.826172 380.238 1.23757 385.531 2.03134C390.824 1.23757 396.242 0.826172 401.756 0.826172C407.27 0.826172 412.688 1.23757 417.98 2.03134C423.273 1.23757 428.691 0.826172 434.205 0.826172C439.719 0.826172 445.137 1.23757 450.43 2.03134C455.722 1.23757 461.14 0.826172 466.654 0.826172C472.168 0.826172 477.586 1.23757 482.879 2.03134C488.172 1.23757 493.589 0.826172 499.103 0.826172C504.617 0.826172 510.035 1.23757 515.328 2.03134C520.621 1.23757 526.039 0.826172 531.553 0.826172C537.067 0.826172 542.484 1.23757 547.777 2.03134C553.07 1.23757 558.488 0.826172 564.002 0.826172C569.516 0.826172 574.934 1.23757 580.227 2.03134C585.519 1.23757 590.937 0.826172 596.451 0.826172C601.965 0.826172 607.383 1.23757 612.676 2.03134C617.968 1.23757 623.386 0.826172 628.9 0.826172C634.414 0.826172 639.832 1.23757 645.125 2.03134C650.418 1.23757 655.836 0.826172 661.349 0.826172C666.863 0.826172 672.281 1.23757 677.574 2.03134C682.867 1.23757 688.285 0.826172 693.799 0.826172C699.313 0.826172 704.731 1.23757 710.023 2.03134C715.316 1.23757 720.734 0.826172 726.248 0.826172C731.762 0.826172 737.18 1.23757 742.473 2.03134C747.765 1.23757 753.183 0.826172 758.697 0.826172C764.211 0.826172 769.629 1.23757 774.922 2.03134C780.215 1.23757 785.632 0.826172 791.146 0.826172C796.66 0.826172 802.078 1.23757 807.371 2.03134C812.664 1.23757 818.082 0.826172 823.596 0.826172C829.11 0.826172 834.527 1.23757 839.82 2.03134C845.113 1.23757 850.531 0.826172 856.045 0.826172C915.956 0.826172 964.523 49.3936 964.523 109.305C964.523 169.216 915.956 217.783 856.045 217.783C850.531 217.783 845.113 217.372 839.82 216.578C834.527 217.372 829.11 217.783 823.596 217.783C818.082 217.783 812.664 217.372 807.371 216.578C802.078 217.372 796.66 217.783 791.146 217.783C785.632 217.783 780.215 217.372 774.922 216.578C769.629 217.372 764.211 217.783 758.697 217.783C753.183 217.783 747.765 217.372 742.473 216.578C737.18 217.372 731.762 217.783 726.248 217.783C720.734 217.783 715.316 217.372 710.023 216.578C704.731 217.372 699.313 217.783 693.799 217.783C688.285 217.783 682.867 217.372 677.574 216.578C672.281 217.372 666.863 217.783 661.349 217.783C655.836 217.783 650.418 217.372 645.125 216.578C639.832 217.372 634.414 217.783 628.9 217.783C623.386 217.783 617.968 217.372 612.676 216.578C607.383 217.372 601.965 217.783 596.451 217.783C590.937 217.783 585.519 217.372 580.227 216.578C574.934 217.372 569.516 217.783 564.002 217.783C558.488 217.783 553.07 217.372 547.777 216.578C542.484 217.372 537.067 217.783 531.553 217.783C526.039 217.783 520.621 217.372 515.328 216.578C510.035 217.372 504.617 217.783 499.103 217.783C493.589 217.783 488.172 217.372 482.879 216.578C477.586 217.372 472.168 217.783 466.654 217.783C461.14 217.783 455.722 217.372 450.43 216.578C445.137 217.372 439.719 217.783 434.205 217.783C428.691 217.783 423.273 217.372 417.98 216.578C412.688 217.372 407.27 217.783 401.756 217.783C396.242 217.783 390.824 217.372 385.531 216.578C380.238 217.372 374.821 217.783 369.307 217.783C363.793 217.783 358.375 217.372 353.082 216.578C347.789 217.372 342.371 217.783 336.857 217.783C331.343 217.783 325.926 217.372 320.633 216.578C315.34 217.372 309.922 217.783 304.408 217.783C298.894 217.783 293.476 217.372 288.184 216.578C282.891 217.372 277.473 217.783 271.959 217.783C266.445 217.783 261.027 217.372 255.734 216.578C250.442 217.372 245.024 217.783 239.51 217.783C233.996 217.783 228.578 217.372 223.285 216.578C217.992 217.372 212.574 217.783 207.06 217.783C201.547 217.783 196.129 217.372 190.836 216.578C185.543 217.372 180.125 217.783 174.611 217.783C169.097 217.783 163.679 217.372 158.387 216.578C153.094 217.372 147.676 217.783 142.162 217.783C136.648 217.783 131.23 217.372 125.937 216.578ZM844.868 215.698C848.542 216.079 852.271 216.275 856.045 216.275C915.123 216.275 963.015 168.383 963.015 109.305C963.015 50.2265 915.123 2.33428 856.045 2.33428C852.271 2.33428 848.542 2.52976 844.868 2.91115C894.594 12.798 932.074 56.6743 932.074 109.305C932.074 161.935 894.594 205.811 844.868 215.698ZM839.82 3.55677C891.199 11.3744 930.566 55.7422 930.566 109.305C930.566 162.867 891.199 207.235 839.82 215.052C835.141 214.341 830.562 213.325 826.102 212.028C868.863 197.481 899.625 156.985 899.625 109.305C899.625 61.6239 868.863 21.1281 826.102 6.58144C830.562 5.28385 835.141 4.26874 839.82 3.55677ZM834.772 2.91115C831.099 2.52976 827.37 2.33428 823.596 2.33428C819.821 2.33428 816.093 2.52976 812.419 2.91115C816.22 3.66687 819.949 4.62116 823.596 5.76277C827.242 4.62116 830.971 3.66686 834.772 2.91115ZM821.089 6.58144C816.63 5.28385 812.05 4.26874 807.371 3.55678C802.692 4.26874 798.112 5.28385 793.653 6.58144C798.381 8.18977 802.962 10.1153 807.371 12.3327C811.78 10.1153 816.361 8.18977 821.089 6.58144ZM805.704 13.1892C801.033 10.9003 796.17 8.94197 791.146 7.34459C786.123 8.94197 781.26 10.9003 776.589 13.1892C781.695 15.8689 786.561 18.9436 791.146 22.3725C795.732 18.9436 800.598 15.8689 805.704 13.1892ZM792.397 23.3218C797.106 19.8299 802.113 16.7158 807.371 14.0242C841.979 31.7391 865.668 67.7555 865.668 109.305C865.668 150.854 841.979 186.87 807.371 204.585C802.113 201.893 797.106 198.779 792.397 195.287C818.14 175.453 834.726 144.316 834.726 109.305C834.726 74.2935 818.14 43.1563 792.397 23.3218ZM789.896 23.3218C785.186 19.8299 780.18 16.7158 774.922 14.0242C769.663 16.7158 764.657 19.8299 759.948 23.3218C765.368 27.4981 770.383 32.1755 774.922 37.2846C779.461 32.1755 784.475 27.4981 789.896 23.3218ZM775.924 38.428C780.525 33.2305 785.624 28.484 791.146 24.2632C816.721 43.8095 833.218 74.6305 833.218 109.305C833.218 143.979 816.721 174.8 791.146 194.346C785.624 190.125 780.525 185.379 775.923 180.181C792.345 161.17 802.277 136.397 802.277 109.305C802.277 82.2119 792.345 57.4389 775.924 38.428ZM773.92 38.4281C769.319 33.2306 764.22 28.484 758.697 24.2632C753.175 28.484 748.076 33.2305 743.474 38.428C749.469 45.3683 754.599 53.0765 758.697 61.3852C762.795 53.0765 767.925 45.3683 773.92 38.4281ZM759.532 63.1171C763.624 54.5819 768.815 46.6737 774.922 39.5759C791.032 58.301 800.769 82.6656 800.769 109.305C800.769 135.944 791.032 160.308 774.922 179.033C768.815 171.935 763.624 164.027 759.532 155.492C766.136 141.479 769.828 125.823 769.828 109.305C769.828 92.7864 766.136 77.1305 759.532 63.1171ZM757.862 63.1172C753.77 54.582 748.579 46.6738 742.473 39.5759C736.366 46.6737 731.175 54.5819 727.083 63.1171C733.687 77.1306 737.379 92.7864 737.379 109.305C737.379 125.823 733.687 141.479 727.083 155.492C731.175 164.027 736.366 171.936 742.473 179.033C748.579 171.935 753.77 164.027 757.862 155.492C751.258 141.479 747.566 125.823 747.566 109.305C747.566 92.7865 751.258 77.1306 757.862 63.1172ZM758.697 153.708C752.518 140.183 749.074 125.146 749.074 109.305C749.074 93.4633 752.518 78.4263 758.697 64.9012C764.876 78.4263 768.32 93.4633 768.32 109.305C768.32 125.146 764.876 140.183 758.697 153.708ZM758.697 157.224C754.599 165.533 749.469 173.241 743.474 180.181C748.076 185.379 753.175 190.125 758.697 194.346C764.22 190.125 769.319 185.379 773.92 180.181C767.925 173.241 762.795 165.533 758.697 157.224ZM774.922 181.325C770.383 186.434 765.368 191.111 759.948 195.287C764.657 198.779 769.663 201.893 774.922 204.585C780.18 201.893 785.186 198.779 789.896 195.287C784.475 191.111 779.461 186.434 774.922 181.325ZM791.146 196.237C786.561 199.666 781.695 202.74 776.589 205.42C781.26 207.709 786.123 209.667 791.146 211.265C796.17 209.667 801.033 207.709 805.704 205.42C800.598 202.74 795.732 199.666 791.146 196.237ZM807.371 206.277C802.962 208.494 798.381 210.419 793.653 212.028C798.112 213.325 802.692 214.341 807.371 215.052C812.05 214.341 816.63 213.325 821.089 212.028C816.361 210.419 811.78 208.494 807.371 206.277ZM823.596 211.265C866.81 197.524 898.117 157.07 898.117 109.305C898.117 61.539 866.81 21.0855 823.596 7.34459C818.572 8.94197 813.709 10.9004 809.038 13.1892C843.6 31.3285 867.176 67.5634 867.176 109.305C867.176 151.046 843.6 187.281 809.038 205.42C813.709 207.709 818.572 209.667 823.596 211.265ZM823.596 212.846C819.949 213.988 816.22 214.942 812.419 215.698C816.093 216.079 819.821 216.275 823.596 216.275C827.37 216.275 831.099 216.079 834.772 215.698C830.971 214.942 827.242 213.988 823.596 212.846ZM791.146 2.33428C794.921 2.33428 798.649 2.52976 802.323 2.91115C798.522 3.66686 794.793 4.62116 791.146 5.76277C787.5 4.62116 783.771 3.66686 779.97 2.91115C783.643 2.52976 787.372 2.33428 791.146 2.33428ZM774.922 3.55677C779.601 4.26874 784.18 5.28385 788.64 6.58144C783.912 8.18977 779.331 10.1153 774.922 12.3327C770.513 10.1153 765.932 8.18976 761.204 6.58143C765.663 5.28384 770.243 4.26873 774.922 3.55677ZM758.697 7.34458C763.721 8.94197 768.583 10.9003 773.255 13.1892C768.149 15.869 763.283 18.9436 758.697 22.3725C754.111 18.9436 749.245 15.8689 744.14 13.1892C748.811 10.9003 753.674 8.94196 758.697 7.34458ZM742.473 14.0242C747.731 16.7158 752.737 19.8299 757.447 23.3218C752.026 27.4981 747.012 32.1755 742.473 37.2846C737.933 32.1755 732.919 27.4981 727.498 23.3217C732.208 19.8299 737.214 16.7158 742.473 14.0242ZM726.248 24.2632C731.77 28.484 736.87 33.2305 741.471 38.4281C735.476 45.3683 730.346 53.0765 726.248 61.3852C722.15 53.0765 717.02 45.3683 711.025 38.428C715.626 33.2305 720.726 28.484 726.248 24.2632ZM710.023 39.5758C716.13 46.6737 721.321 54.582 725.413 63.1172C718.809 77.1306 715.117 92.7865 715.117 109.305C715.117 125.823 718.809 141.479 725.413 155.492C721.321 164.027 716.13 171.936 710.023 179.033C703.917 171.936 698.726 164.027 694.634 155.492C701.238 141.479 704.93 125.823 704.93 109.305C704.93 92.7864 701.238 77.1306 694.634 63.1172C698.726 54.5819 703.917 46.6737 710.023 39.5758ZM716.625 109.305C716.625 125.146 720.069 140.183 726.248 153.708C732.427 140.183 735.871 125.146 735.871 109.305C735.871 93.4633 732.427 78.4263 726.248 64.9012C720.069 78.4263 716.625 93.4633 716.625 109.305ZM711.025 180.181C717.02 173.241 722.15 165.533 726.248 157.224C730.346 165.533 735.476 173.241 741.471 180.181C736.87 185.379 731.77 190.125 726.248 194.346C720.725 190.125 715.626 185.379 711.025 180.181ZM727.498 195.287C732.919 191.111 737.933 186.434 742.473 181.325C747.012 186.434 752.026 191.111 757.447 195.287C752.737 198.779 747.731 201.893 742.473 204.585C737.214 201.893 732.208 198.779 727.498 195.287ZM744.139 205.42C749.245 202.74 754.111 199.666 758.697 196.237C763.283 199.666 768.149 202.74 773.255 205.42C768.583 207.709 763.721 209.667 758.697 211.265C753.674 209.667 748.811 207.709 744.139 205.42ZM761.204 212.028C765.932 210.419 770.513 208.494 774.922 206.277C779.331 208.494 783.912 210.419 788.64 212.028C784.18 213.325 779.601 214.341 774.922 215.052C770.243 214.341 765.663 213.325 761.204 212.028ZM779.97 215.698C783.771 214.942 787.5 213.988 791.146 212.846C794.793 213.988 798.522 214.942 802.323 215.698C798.649 216.079 794.921 216.275 791.146 216.275C787.372 216.275 783.643 216.079 779.97 215.698ZM769.874 2.91115C766.2 2.52976 762.471 2.33428 758.697 2.33428C754.923 2.33428 751.194 2.52976 747.521 2.91115C751.321 3.66686 755.051 4.62116 758.697 5.76276C762.344 4.62116 766.073 3.66686 769.874 2.91115ZM756.19 6.58144C751.731 5.28384 747.152 4.26874 742.473 3.55677C737.793 4.26873 733.214 5.28384 728.755 6.58143C733.482 8.18976 738.064 10.1153 742.473 12.3327C746.882 10.1153 751.463 8.18977 756.19 6.58144ZM740.806 13.1892C736.134 10.9003 731.272 8.94197 726.248 7.34458C721.224 8.94196 716.362 10.9003 711.69 13.1892C716.796 15.8689 721.662 18.9436 726.248 22.3725C730.834 18.9436 735.7 15.8689 740.806 13.1892ZM724.997 23.3218C720.288 19.8299 715.282 16.7158 710.023 14.0242C704.765 16.7158 699.759 19.8299 695.049 23.3217C700.47 27.4981 705.484 32.1755 710.023 37.2846C714.562 32.1755 719.577 27.4981 724.997 23.3218ZM709.022 38.4281C704.42 33.2305 699.321 28.484 693.799 24.2632C688.276 28.484 683.177 33.2305 678.576 38.428C684.571 45.3683 689.701 53.0765 693.799 61.3852C697.896 53.0766 703.027 45.3683 709.022 38.4281ZM692.964 63.1172C688.872 54.582 683.681 46.6737 677.574 39.5758C671.468 46.6737 666.277 54.5819 662.185 63.1171C668.788 77.1305 672.48 92.7864 672.48 109.305C672.48 125.823 668.788 141.479 662.185 155.492C666.277 164.027 671.468 171.936 677.574 179.033C683.681 171.936 688.872 164.027 692.964 155.492C686.36 141.479 682.668 125.823 682.668 109.305C682.668 92.7865 686.36 77.1306 692.964 63.1172ZM693.799 153.708C687.619 140.183 684.176 125.146 684.176 109.305C684.176 93.4633 687.619 78.4263 693.799 64.9012C699.978 78.4263 703.421 93.4633 703.421 109.305C703.421 125.146 699.978 140.183 693.799 153.708ZM693.799 157.224C689.701 165.533 684.571 173.241 678.576 180.181C683.177 185.379 688.276 190.125 693.799 194.346C699.321 190.125 704.42 185.379 709.022 180.181C703.027 173.241 697.896 165.533 693.799 157.224ZM710.023 181.325C705.484 186.434 700.47 191.111 695.049 195.287C699.759 198.779 704.765 201.893 710.023 204.585C715.282 201.893 720.288 198.779 724.997 195.287C719.577 191.111 714.562 186.434 710.023 181.325ZM726.248 196.237C721.662 199.666 716.796 202.74 711.69 205.42C716.362 207.709 721.224 209.667 726.248 211.265C731.272 209.667 736.134 207.709 740.806 205.42C735.7 202.74 730.834 199.666 726.248 196.237ZM742.473 206.277C738.063 208.494 733.482 210.419 728.755 212.028C733.214 213.325 737.793 214.341 742.473 215.052C747.152 214.341 751.731 213.325 756.19 212.028C751.463 210.419 746.882 208.494 742.473 206.277ZM758.697 212.846C755.051 213.988 751.321 214.942 747.521 215.698C751.194 216.079 754.923 216.275 758.697 216.275C762.471 216.275 766.2 216.079 769.874 215.698C766.073 214.942 762.344 213.988 758.697 212.846ZM726.248 2.33428C730.022 2.33428 733.751 2.52976 737.424 2.91115C733.624 3.66686 729.894 4.62116 726.248 5.76276C722.601 4.62116 718.872 3.66686 715.071 2.91115C718.745 2.52976 722.474 2.33428 726.248 2.33428ZM710.023 3.55677C714.702 4.26874 719.282 5.28384 723.741 6.58144C719.013 8.18977 714.432 10.1153 710.023 12.3327C705.614 10.1153 701.033 8.18976 696.306 6.58143C700.765 5.28384 705.344 4.26873 710.023 3.55677ZM693.799 7.34458C698.822 8.94197 703.685 10.9003 708.356 13.1892C703.251 15.8689 698.384 18.9436 693.799 22.3725C689.213 18.9436 684.347 15.8689 679.241 13.1892C683.912 10.9003 688.775 8.94196 693.799 7.34458ZM677.574 14.0242C682.832 16.7158 687.839 19.8299 692.548 23.3218C687.128 27.4981 682.113 32.1755 677.574 37.2846C673.035 32.1755 668.021 27.4981 662.6 23.3218C667.309 19.8299 672.316 16.7158 677.574 14.0242ZM661.349 24.2632C666.872 28.484 671.971 33.2305 676.572 38.4281C670.577 45.3683 665.447 53.0765 661.35 61.3852C657.252 53.0765 652.122 45.3683 646.127 38.428C650.728 33.2305 655.827 28.484 661.349 24.2632ZM645.125 39.5758C651.231 46.6737 656.422 54.5819 660.514 63.1171C653.911 77.1305 650.219 92.7864 650.219 109.305C650.219 125.823 653.911 141.479 660.514 155.492C656.422 164.027 651.231 171.936 645.125 179.033C639.018 171.936 633.827 164.027 629.735 155.492C636.339 141.479 640.031 125.823 640.031 109.305C640.031 92.7864 636.339 77.1305 629.735 63.1171C633.827 54.5819 639.018 46.6737 645.125 39.5758ZM651.727 109.305C651.727 125.146 655.17 140.183 661.35 153.708C667.529 140.183 670.972 125.146 670.972 109.305C670.972 93.4633 667.529 78.4262 661.35 64.9011C655.17 78.4262 651.727 93.4633 651.727 109.305ZM646.127 180.181C652.122 173.241 657.252 165.533 661.35 157.224C665.447 165.533 670.577 173.241 676.572 180.181C671.971 185.379 666.872 190.125 661.349 194.346C655.827 190.125 650.728 185.379 646.127 180.181ZM662.6 195.287C668.021 191.111 673.035 186.434 677.574 181.325C682.113 186.434 687.128 191.111 692.548 195.287C687.839 198.779 682.832 201.893 677.574 204.585C672.316 201.893 667.309 198.779 662.6 195.287ZM679.241 205.42C684.347 202.74 689.213 199.666 693.799 196.237C698.384 199.666 703.251 202.74 708.356 205.42C703.685 207.709 698.822 209.667 693.799 211.265C688.775 209.667 683.912 207.709 679.241 205.42ZM696.305 212.028C701.033 210.419 705.614 208.494 710.023 206.277C714.432 208.494 719.013 210.419 723.741 212.028C719.282 213.325 714.702 214.341 710.023 215.052C705.344 214.341 700.765 213.325 696.305 212.028ZM715.071 215.698C718.872 214.942 722.601 213.988 726.248 212.846C729.894 213.988 733.624 214.942 737.424 215.698C733.751 216.079 730.022 216.275 726.248 216.275C722.474 216.275 718.745 216.079 715.071 215.698ZM704.975 2.91115C701.302 2.52976 697.573 2.33428 693.799 2.33428C690.024 2.33428 686.296 2.52976 682.622 2.91115C686.423 3.66686 690.152 4.62116 693.799 5.76276C697.445 4.62116 701.174 3.66686 704.975 2.91115ZM691.292 6.58144C686.833 5.28384 682.253 4.26874 677.574 3.55677C672.895 4.26873 668.315 5.28384 663.856 6.58143C668.584 8.18976 673.165 10.1153 677.574 12.3327C681.983 10.1153 686.564 8.18977 691.292 6.58144ZM675.907 13.1892C671.236 10.9003 666.373 8.94197 661.349 7.34458C656.326 8.94197 651.463 10.9003 646.792 13.1892C651.898 15.8689 656.764 18.9436 661.35 22.3725C665.935 18.9436 670.801 15.869 675.907 13.1892ZM660.099 23.3218C655.39 19.8299 650.383 16.7158 645.125 14.0242C639.867 16.7158 634.86 19.8299 630.151 23.3217C635.571 27.498 640.586 32.1754 645.125 37.2846C649.664 32.1755 654.679 27.4981 660.099 23.3218ZM644.123 38.428C639.522 33.2305 634.423 28.484 628.9 24.2632C623.378 28.484 618.279 33.2305 613.677 38.428C619.672 45.3683 624.803 53.0765 628.9 61.3852C632.998 53.0765 638.128 45.3683 644.123 38.428ZM628.065 63.1172C623.973 54.582 618.782 46.6737 612.676 39.5758C606.569 46.6737 601.378 54.5819 597.286 63.1171C603.89 77.1305 607.582 92.7864 607.582 109.305C607.582 125.823 603.89 141.479 597.286 155.492C601.378 164.027 606.569 171.936 612.676 179.033C618.782 171.936 623.973 164.027 628.065 155.492C621.461 141.479 617.77 125.823 617.77 109.305C617.77 92.7865 621.461 77.1306 628.065 63.1172ZM628.9 153.708C622.721 140.183 619.278 125.146 619.278 109.305C619.278 93.4633 622.721 78.4263 628.9 64.9011C635.08 78.4263 638.523 93.4633 638.523 109.305C638.523 125.146 635.08 140.183 628.9 153.708ZM628.9 157.224C624.803 165.533 619.672 173.241 613.677 180.181C618.279 185.379 623.378 190.125 628.9 194.346C634.423 190.125 639.522 185.379 644.123 180.181C638.128 173.241 632.998 165.533 628.9 157.224ZM645.125 181.325C640.586 186.434 635.571 191.111 630.151 195.288C634.86 198.779 639.867 201.893 645.125 204.585C650.383 201.893 655.39 198.779 660.099 195.287C654.679 191.111 649.664 186.434 645.125 181.325ZM661.349 196.237C656.764 199.666 651.898 202.74 646.792 205.42C651.463 207.709 656.326 209.667 661.349 211.265C666.373 209.667 671.236 207.709 675.907 205.42C670.801 202.74 665.935 199.666 661.349 196.237ZM677.574 206.277C673.165 208.494 668.584 210.419 663.856 212.028C668.315 213.325 672.895 214.341 677.574 215.052C682.253 214.341 686.833 213.325 691.292 212.028C686.564 210.419 681.983 208.494 677.574 206.277ZM693.799 212.846C690.152 213.988 686.423 214.942 682.622 215.698C686.296 216.079 690.024 216.275 693.799 216.275C697.573 216.275 701.302 216.079 704.975 215.698C701.174 214.942 697.445 213.988 693.799 212.846ZM661.349 2.33428C665.124 2.33428 668.853 2.52976 672.526 2.91115C668.725 3.66686 664.996 4.62116 661.349 5.76276C657.703 4.62116 653.974 3.66686 650.173 2.91115C653.846 2.52976 657.575 2.33428 661.349 2.33428ZM645.125 3.55677C649.804 4.26874 654.383 5.28384 658.843 6.58144C654.115 8.18977 649.534 10.1153 645.125 12.3327C640.716 10.1153 636.135 8.18976 631.407 6.58143C635.866 5.28384 640.446 4.26873 645.125 3.55677ZM628.9 7.34459C633.924 8.94197 638.787 10.9003 643.458 13.1892C638.352 15.869 633.486 18.9436 628.9 22.3725C624.315 18.9436 619.448 15.8689 614.343 13.1892C619.014 10.9003 623.877 8.94196 628.9 7.34459ZM612.676 14.0242C617.934 16.7158 622.94 19.8299 627.65 23.3217C622.229 27.4981 617.215 32.1755 612.676 37.2846C608.137 32.1755 603.122 27.4981 597.702 23.3218C602.411 19.8299 607.417 16.7158 612.676 14.0242ZM596.451 24.2632C601.974 28.484 607.073 33.2305 611.674 38.4281C605.679 45.3683 600.549 53.0766 596.451 61.3852C592.353 53.0765 587.223 45.3683 581.228 38.4281C585.829 33.2305 590.929 28.484 596.451 24.2632ZM580.226 39.5758C586.333 46.6737 591.524 54.582 595.616 63.1172C589.012 77.1306 585.32 92.7865 585.32 109.305C585.32 125.823 589.012 141.479 595.616 155.492C591.524 164.027 586.333 171.936 580.226 179.033C574.12 171.936 568.929 164.027 564.837 155.492C571.441 141.479 575.133 125.823 575.133 109.305C575.133 92.7864 571.441 77.1305 564.837 63.1171C568.929 54.5819 574.12 46.6737 580.226 39.5758ZM586.828 109.305C586.828 125.146 590.272 140.183 596.451 153.708C602.63 140.183 606.074 125.146 606.074 109.305C606.074 93.4633 602.63 78.4263 596.451 64.9011C590.272 78.4263 586.828 93.4633 586.828 109.305ZM581.228 180.181C587.223 173.241 592.353 165.533 596.451 157.224C600.549 165.533 605.679 173.241 611.674 180.181C607.073 185.379 601.974 190.125 596.451 194.346C590.929 190.125 585.829 185.379 581.228 180.181ZM597.702 195.288C603.122 191.111 608.137 186.434 612.676 181.325C617.215 186.434 622.229 191.111 627.65 195.287C622.94 198.779 617.934 201.893 612.676 204.585C607.417 201.893 602.411 198.779 597.702 195.288ZM614.343 205.42C619.448 202.74 624.315 199.666 628.9 196.237C633.486 199.666 638.352 202.74 643.458 205.42C638.787 207.709 633.924 209.667 628.9 211.265C623.877 209.667 619.014 207.709 614.343 205.42ZM631.407 212.028C636.135 210.419 640.716 208.494 645.125 206.277C649.534 208.494 654.115 210.419 658.843 212.028C654.383 213.325 649.804 214.341 645.125 215.052C640.446 214.341 635.866 213.325 631.407 212.028ZM650.173 215.698C653.974 214.942 657.703 213.988 661.349 212.846C664.996 213.988 668.725 214.942 672.526 215.698C668.853 216.079 665.124 216.275 661.349 216.275C657.575 216.275 653.846 216.079 650.173 215.698ZM640.077 2.91115C636.403 2.52976 632.675 2.33428 628.9 2.33428C625.126 2.33428 621.397 2.52976 617.724 2.91115C621.525 3.66686 625.254 4.62116 628.9 5.76276C632.547 4.62116 636.276 3.66686 640.077 2.91115ZM626.393 6.58144C621.934 5.28384 617.355 4.26874 612.676 3.55677C607.997 4.26873 603.417 5.28384 598.958 6.58143C603.686 8.18976 608.267 10.1153 612.676 12.3327C617.085 10.1153 621.666 8.18977 626.393 6.58144ZM611.009 13.1892C606.337 10.9003 601.475 8.94195 596.451 7.34457C591.427 8.94195 586.565 10.9003 581.893 13.1892C586.999 15.8689 591.865 18.9436 596.451 22.3725C601.037 18.9436 605.903 15.8689 611.009 13.1892ZM595.201 23.3218C590.491 19.8299 585.485 16.7158 580.226 14.0242C574.968 16.7158 569.962 19.8299 565.252 23.3218C570.673 27.4981 575.687 32.1755 580.226 37.2846C584.766 32.1755 589.78 27.4981 595.201 23.3218ZM579.225 38.4281C574.623 33.2305 569.524 28.484 564.002 24.2632C558.479 28.484 553.38 33.2305 548.779 38.428C554.774 45.3683 559.904 53.0765 564.002 61.3852C568.1 53.0766 573.23 45.3683 579.225 38.4281ZM563.167 63.1171C559.075 54.5819 553.884 46.6737 547.777 39.5758C541.671 46.6737 536.48 54.5819 532.388 63.1171C538.992 77.1305 542.683 92.7864 542.683 109.305C542.683 125.823 538.992 141.479 532.388 155.492C536.48 164.027 541.671 171.936 547.777 179.033C553.884 171.936 559.075 164.027 563.167 155.492C556.563 141.479 552.871 125.823 552.871 109.305C552.871 92.7864 556.563 77.1306 563.167 63.1171ZM564.002 153.708C557.823 140.183 554.379 125.146 554.379 109.305C554.379 93.4633 557.823 78.4262 564.002 64.9011C570.181 78.4262 573.625 93.4633 573.625 109.305C573.625 125.146 570.181 140.183 564.002 153.708ZM564.002 157.224C559.904 165.533 554.774 173.241 548.779 180.181C553.38 185.379 558.479 190.125 564.002 194.346C569.524 190.125 574.624 185.379 579.225 180.181C573.23 173.241 568.1 165.533 564.002 157.224ZM580.227 181.325C575.687 186.434 570.673 191.111 565.252 195.287C569.962 198.779 574.968 201.893 580.227 204.585C585.485 201.893 590.491 198.779 595.201 195.287C589.78 191.111 584.766 186.434 580.227 181.325ZM596.451 196.237C591.865 199.666 586.999 202.74 581.893 205.42C586.565 207.709 591.427 209.667 596.451 211.265C601.475 209.667 606.337 207.709 611.009 205.42C605.903 202.74 601.037 199.666 596.451 196.237ZM612.676 206.277C608.267 208.494 603.686 210.419 598.958 212.028C603.417 213.325 607.997 214.341 612.676 215.052C617.355 214.341 621.934 213.325 626.393 212.028C621.666 210.419 617.085 208.494 612.676 206.277ZM628.9 212.846C625.254 213.988 621.525 214.942 617.724 215.698C621.397 216.079 625.126 216.275 628.9 216.275C632.675 216.275 636.403 216.079 640.077 215.698C636.276 214.942 632.547 213.988 628.9 212.846ZM596.451 2.33428C600.225 2.33428 603.954 2.52976 607.628 2.91115C603.827 3.66686 600.098 4.62116 596.451 5.76276C592.805 4.62115 589.075 3.66686 585.275 2.91114C588.948 2.52976 592.677 2.33428 596.451 2.33428ZM580.227 3.55677C584.906 4.26873 589.485 5.28383 593.944 6.58142C589.217 8.18976 584.636 10.1153 580.227 12.3327C575.817 10.1153 571.236 8.18977 566.509 6.58143C570.968 5.28384 575.547 4.26873 580.227 3.55677ZM564.002 7.34458C569.025 8.94196 573.888 10.9003 578.56 13.1892C573.454 15.869 568.588 18.9436 564.002 22.3726C559.416 18.9436 554.55 15.8689 549.444 13.1892C554.116 10.9003 558.978 8.94196 564.002 7.34458ZM547.777 14.0242C553.036 16.7158 558.042 19.8299 562.751 23.3218C557.331 27.4981 552.316 32.1755 547.777 37.2846C543.238 32.1755 538.224 27.4981 532.803 23.3218C537.513 19.8299 542.519 16.7158 547.777 14.0242ZM531.553 24.2632C537.075 28.484 542.174 33.2305 546.776 38.428C540.781 45.3683 535.65 53.0765 531.553 61.3852C527.455 53.0765 522.325 45.3683 516.33 38.428C520.931 33.2305 526.03 28.484 531.553 24.2632ZM515.328 39.5758C521.435 46.6737 526.626 54.5819 530.718 63.1171C524.114 77.1306 520.422 92.7864 520.422 109.305C520.422 125.823 524.114 141.479 530.718 155.492C526.626 164.027 521.435 171.936 515.328 179.033C509.222 171.936 504.031 164.027 499.939 155.492C506.542 141.479 510.234 125.823 510.234 109.305C510.234 92.7864 506.542 77.1305 499.939 63.1171C504.031 54.5819 509.222 46.6737 515.328 39.5758ZM521.93 109.305C521.93 125.146 525.373 140.183 531.553 153.708C537.732 140.183 541.175 125.146 541.175 109.305C541.175 93.4633 537.732 78.4262 531.553 64.9011C525.373 78.4262 521.93 93.4633 521.93 109.305ZM516.33 180.181C522.325 173.241 527.455 165.533 531.553 157.224C535.65 165.533 540.781 173.241 546.776 180.181C542.174 185.379 537.075 190.125 531.553 194.346C526.03 190.125 520.931 185.379 516.33 180.181ZM532.803 195.287C538.224 191.111 543.238 186.434 547.777 181.325C552.316 186.434 557.331 191.111 562.751 195.287C558.042 198.779 553.036 201.893 547.777 204.585C542.519 201.893 537.513 198.779 532.803 195.287ZM549.444 205.42C554.55 202.74 559.416 199.666 564.002 196.237C568.588 199.666 573.454 202.74 578.56 205.42C573.888 207.709 569.026 209.667 564.002 211.265C558.978 209.667 554.116 207.709 549.444 205.42ZM566.509 212.028C571.236 210.419 575.817 208.494 580.227 206.277C584.636 208.494 589.217 210.419 593.944 212.028C589.485 213.325 584.906 214.341 580.227 215.052C575.547 214.341 570.968 213.325 566.509 212.028ZM585.275 215.698C589.075 214.942 592.805 213.988 596.451 212.846C600.098 213.988 603.827 214.942 607.628 215.698C603.954 216.079 600.225 216.275 596.451 216.275C592.677 216.275 588.948 216.079 585.275 215.698ZM575.178 2.91114C571.505 2.52976 567.776 2.33428 564.002 2.33428C560.228 2.33428 556.499 2.52976 552.825 2.91115C556.626 3.66687 560.355 4.62116 564.002 5.76277C567.648 4.62116 571.378 3.66686 575.178 2.91114ZM561.495 6.58143C557.036 5.28384 552.456 4.26874 547.777 3.55678C543.098 4.26874 538.519 5.28385 534.059 6.58144C538.787 8.18977 543.368 10.1153 547.777 12.3327C552.186 10.1153 556.767 8.18976 561.495 6.58143ZM546.11 13.1892C541.439 10.9003 536.576 8.94198 531.553 7.34459C526.529 8.94198 521.666 10.9004 516.995 13.1892C522.101 15.8689 526.967 18.9436 531.553 22.3725C536.138 18.9436 541.004 15.8689 546.11 13.1892ZM530.302 23.3218C525.593 19.8299 520.586 16.7158 515.328 14.0242C510.07 16.7158 505.063 19.8299 500.354 23.3218C505.774 27.4981 510.789 32.1754 515.328 37.2846C519.867 32.1754 524.882 27.4981 530.302 23.3218ZM514.326 38.428C509.725 33.2305 504.626 28.484 499.103 24.2632C493.581 28.484 488.482 33.2305 483.881 38.428C489.876 45.3683 495.006 53.0765 499.103 61.3852C503.201 53.0765 508.331 45.3683 514.326 38.428ZM498.268 63.1171C494.176 54.5819 488.985 46.6737 482.879 39.5758C476.772 46.6737 471.581 54.5819 467.489 63.1172C474.093 77.1306 477.785 92.7865 477.785 109.305C477.785 125.823 474.093 141.479 467.489 155.492C471.581 164.027 476.772 171.936 482.879 179.033C488.985 171.936 494.176 164.027 498.268 155.492C491.665 141.479 487.973 125.823 487.973 109.305C487.973 92.7864 491.665 77.1305 498.268 63.1171ZM499.103 153.708C492.924 140.183 489.481 125.146 489.481 109.305C489.481 93.4633 492.924 78.4263 499.103 64.9011C505.283 78.4263 508.726 93.4633 508.726 109.305C508.726 125.146 505.283 140.183 499.103 153.708ZM499.103 157.224C495.006 165.533 489.876 173.241 483.881 180.181C488.482 185.379 493.581 190.125 499.103 194.346C504.626 190.125 509.725 185.379 514.326 180.181C508.331 173.241 503.201 165.533 499.103 157.224ZM515.328 181.325C510.789 186.434 505.774 191.111 500.354 195.287C505.063 198.779 510.07 201.893 515.328 204.585C520.586 201.893 525.593 198.779 530.302 195.287C524.882 191.111 519.867 186.434 515.328 181.325ZM531.553 196.237C526.967 199.666 522.101 202.74 516.995 205.42C521.666 207.709 526.529 209.667 531.553 211.265C536.576 209.667 541.439 207.709 546.11 205.42C541.004 202.74 536.138 199.666 531.553 196.237ZM547.777 206.277C543.368 208.494 538.787 210.419 534.059 212.028C538.519 213.325 543.098 214.341 547.777 215.052C552.456 214.341 557.036 213.325 561.495 212.028C556.767 210.419 552.186 208.494 547.777 206.277ZM564.002 212.846C560.355 213.988 556.626 214.942 552.825 215.698C556.499 216.079 560.228 216.275 564.002 216.275C567.776 216.275 571.505 216.079 575.178 215.698C571.378 214.942 567.648 213.988 564.002 212.846ZM531.553 2.33428C535.327 2.33428 539.056 2.52976 542.729 2.91115C538.928 3.66687 535.199 4.62116 531.553 5.76277C527.906 4.62116 524.177 3.66686 520.376 2.91115C524.05 2.52976 527.778 2.33428 531.553 2.33428ZM515.328 3.55677C520.007 4.26874 524.587 5.28385 529.046 6.58144C524.318 8.18977 519.737 10.1153 515.328 12.3327C510.919 10.1153 506.338 8.18977 501.61 6.58143C506.069 5.28384 510.649 4.26873 515.328 3.55677ZM499.103 7.34458C504.127 8.94197 508.99 10.9003 513.661 13.1892C508.555 15.869 503.689 18.9436 499.103 22.3725C494.518 18.9436 489.652 15.8689 484.546 13.1892C489.217 10.9003 494.08 8.94196 499.103 7.34458ZM482.879 14.0242C488.137 16.7158 493.144 19.8299 497.853 23.3218C492.432 27.4981 487.418 32.1754 482.879 37.2846C478.34 32.1754 473.325 27.498 467.905 23.3217C472.614 19.8299 477.62 16.7158 482.879 14.0242ZM466.654 24.2632C472.177 28.484 477.276 33.2305 481.877 38.428C475.882 45.3683 470.752 53.0765 466.654 61.3852C462.557 53.0765 457.426 45.3683 451.431 38.428C456.033 33.2305 461.132 28.484 466.654 24.2632ZM450.43 39.5758C456.536 46.6737 461.727 54.5819 465.819 63.1172C459.215 77.1306 455.523 92.7864 455.523 109.305C455.523 125.823 459.215 141.479 465.819 155.492C461.727 164.027 456.536 171.936 450.43 179.033C444.323 171.936 439.132 164.027 435.04 155.492C441.644 141.479 445.336 125.823 445.336 109.305C445.336 92.7865 441.644 77.1306 435.04 63.1172C439.132 54.582 444.323 46.6737 450.43 39.5758ZM457.032 109.305C457.032 125.146 460.475 140.183 466.654 153.708C472.833 140.183 476.277 125.146 476.277 109.305C476.277 93.4633 472.833 78.4263 466.654 64.9012C460.475 78.4263 457.032 93.4633 457.032 109.305ZM451.431 180.181C457.426 173.241 462.556 165.533 466.654 157.224C470.752 165.533 475.882 173.241 481.877 180.181C477.276 185.379 472.177 190.125 466.654 194.346C461.132 190.125 456.033 185.379 451.431 180.181ZM467.905 195.288C473.325 191.111 478.34 186.434 482.879 181.325C487.418 186.434 492.432 191.111 497.853 195.287C493.144 198.779 488.137 201.893 482.879 204.585C477.62 201.893 472.614 198.779 467.905 195.288ZM484.546 205.42C489.652 202.74 494.518 199.666 499.103 196.237C503.689 199.666 508.555 202.74 513.661 205.42C508.99 207.709 504.127 209.667 499.103 211.265C494.08 209.667 489.217 207.709 484.546 205.42ZM501.61 212.028C506.338 210.419 510.919 208.494 515.328 206.277C519.737 208.494 524.318 210.419 529.046 212.028C524.587 213.325 520.007 214.341 515.328 215.052C510.649 214.341 506.069 213.325 501.61 212.028ZM520.376 215.698C524.177 214.942 527.906 213.988 531.553 212.846C535.199 213.988 538.928 214.942 542.729 215.698C539.056 216.079 535.327 216.275 531.553 216.275C527.778 216.275 524.05 216.079 520.376 215.698ZM510.28 2.91115C506.607 2.52976 502.878 2.33428 499.103 2.33428C495.329 2.33428 491.6 2.52976 487.927 2.91115C491.728 3.66686 495.457 4.62116 499.103 5.76276C502.75 4.62115 506.479 3.66686 510.28 2.91115ZM496.597 6.58143C492.137 5.28384 487.558 4.26873 482.879 3.55677C478.2 4.26874 473.62 5.28384 469.161 6.58144C473.889 8.18977 478.47 10.1153 482.879 12.3327C487.288 10.1153 491.869 8.18976 496.597 6.58143ZM481.212 13.1892C476.541 10.9003 471.678 8.94197 466.654 7.34458C461.631 8.94196 456.768 10.9003 452.097 13.1892C457.202 15.8689 462.069 18.9436 466.654 22.3725C471.24 18.9436 476.106 15.8689 481.212 13.1892ZM465.404 23.3217C460.694 19.8299 455.688 16.7158 450.43 14.0242C445.171 16.7158 440.165 19.8299 435.456 23.3218C440.876 27.4981 445.89 32.1755 450.43 37.2846C454.969 32.1754 459.983 27.498 465.404 23.3217ZM449.428 38.428C444.827 33.2305 439.727 28.484 434.205 24.2632C428.683 28.484 423.583 33.2305 418.982 38.4281C424.977 45.3683 430.107 53.0766 434.205 61.3852C438.303 53.0765 443.433 45.3683 449.428 38.428ZM433.37 63.1172C429.278 54.5819 424.087 46.6737 417.98 39.5758C411.874 46.6737 406.683 54.5819 402.591 63.1171C409.195 77.1305 412.887 92.7864 412.887 109.305C412.887 125.823 409.195 141.479 402.591 155.492C406.683 164.027 411.874 171.936 417.98 179.033C424.087 171.936 429.278 164.027 433.37 155.492C426.766 141.479 423.074 125.823 423.074 109.305C423.074 92.7864 426.766 77.1306 433.37 63.1172ZM434.205 153.708C428.026 140.183 424.582 125.146 424.582 109.305C424.582 93.4633 428.026 78.4263 434.205 64.9012C440.384 78.4263 443.828 93.4633 443.828 109.305C443.828 125.146 440.384 140.183 434.205 153.708ZM434.205 157.224C430.107 165.533 424.977 173.241 418.982 180.181C423.583 185.379 428.683 190.125 434.205 194.346C439.727 190.125 444.827 185.379 449.428 180.181C443.433 173.241 438.303 165.533 434.205 157.224ZM450.43 181.325C445.89 186.434 440.876 191.111 435.456 195.287C440.165 198.779 445.171 201.893 450.43 204.585C455.688 201.893 460.694 198.779 465.404 195.287C459.983 191.111 454.969 186.434 450.43 181.325ZM466.654 196.237C462.069 199.666 457.202 202.74 452.097 205.42C456.768 207.709 461.631 209.667 466.654 211.265C471.678 209.667 476.541 207.709 481.212 205.42C476.106 202.74 471.24 199.666 466.654 196.237ZM482.879 206.277C478.47 208.494 473.889 210.419 469.161 212.028C473.62 213.325 478.2 214.341 482.879 215.052C487.558 214.341 492.137 213.325 496.597 212.028C491.869 210.419 487.288 208.494 482.879 206.277ZM499.103 212.846C495.457 213.988 491.728 214.942 487.927 215.698C491.6 216.079 495.329 216.275 499.103 216.275C502.878 216.275 506.607 216.079 510.28 215.698C506.479 214.942 502.75 213.988 499.103 212.846ZM466.654 2.33428C470.429 2.33428 474.157 2.52976 477.831 2.91115C474.03 3.66686 470.301 4.62116 466.654 5.76276C463.008 4.62116 459.279 3.66686 455.478 2.91115C459.151 2.52976 462.88 2.33428 466.654 2.33428ZM450.43 3.55677C455.109 4.26874 459.688 5.28384 464.147 6.58143C459.42 8.18976 454.839 10.1153 450.43 12.3327C446.021 10.1153 441.44 8.18976 436.712 6.58143C441.171 5.28384 445.751 4.26873 450.43 3.55677ZM434.205 7.34458C439.229 8.94196 444.091 10.9003 448.763 13.1892C443.657 15.8689 438.791 18.9436 434.205 22.3725C429.619 18.9436 424.753 15.8689 419.647 13.1892C424.319 10.9003 429.181 8.94196 434.205 7.34458ZM417.98 14.0242C423.239 16.7158 428.245 19.8299 432.954 23.3218C427.534 27.4981 422.52 32.1755 417.98 37.2846C413.441 32.1755 408.427 27.4981 403.006 23.3218C407.716 19.8299 412.722 16.7158 417.98 14.0242ZM401.756 24.2632C407.278 28.484 412.377 33.2305 416.979 38.4281C410.984 45.3683 405.854 53.0765 401.756 61.3852C397.658 53.0765 392.528 45.3683 386.533 38.428C391.134 33.2305 396.233 28.484 401.756 24.2632ZM385.531 39.5758C391.638 46.6737 396.829 54.5819 400.921 63.1171C394.317 77.1305 390.625 92.7864 390.625 109.305C390.625 125.823 394.317 141.479 400.921 155.492C396.829 164.027 391.638 171.936 385.531 179.033C379.425 171.936 374.234 164.027 370.142 155.492C376.745 141.479 380.437 125.823 380.437 109.305C380.437 92.7864 376.745 77.1305 370.142 63.1171C374.234 54.5819 379.425 46.6737 385.531 39.5758ZM392.133 109.305C392.133 125.146 395.577 140.183 401.756 153.708C407.935 140.183 411.379 125.146 411.379 109.305C411.379 93.4633 407.935 78.4263 401.756 64.9012C395.577 78.4263 392.133 93.4633 392.133 109.305ZM386.533 180.181C392.528 173.241 397.658 165.533 401.756 157.224C405.854 165.533 410.984 173.241 416.979 180.181C412.377 185.379 407.278 190.125 401.756 194.346C396.233 190.125 391.134 185.379 386.533 180.181ZM403.006 195.287C408.427 191.111 413.441 186.434 417.98 181.325C422.52 186.434 427.534 191.111 432.954 195.287C428.245 198.779 423.239 201.893 417.98 204.585C412.722 201.893 407.716 198.779 403.006 195.287ZM419.647 205.42C424.753 202.74 429.619 199.666 434.205 196.237C438.791 199.666 443.657 202.74 448.763 205.42C444.091 207.709 439.229 209.667 434.205 211.265C429.181 209.667 424.319 207.709 419.647 205.42ZM436.712 212.028C441.44 210.419 446.021 208.494 450.43 206.277C454.839 208.494 459.42 210.419 464.147 212.028C459.688 213.325 455.109 214.341 450.43 215.052C445.751 214.341 441.171 213.325 436.712 212.028ZM455.478 215.698C459.278 214.942 463.008 213.988 466.654 212.846C470.301 213.988 474.03 214.942 477.831 215.698C474.157 216.079 470.429 216.275 466.654 216.275C462.88 216.275 459.151 216.079 455.478 215.698ZM445.382 2.91115C441.708 2.52976 437.979 2.33428 434.205 2.33428C430.431 2.33428 426.702 2.52976 423.029 2.91115C426.829 3.66686 430.559 4.62115 434.205 5.76276C437.851 4.62115 441.581 3.66686 445.382 2.91115ZM431.698 6.58143C427.239 5.28384 422.66 4.26873 417.98 3.55677C413.301 4.26873 408.722 5.28384 404.263 6.58143C408.99 8.18976 413.571 10.1153 417.98 12.3327C422.389 10.1153 426.97 8.18976 431.698 6.58143ZM416.313 13.1892C411.642 10.9003 406.779 8.94197 401.756 7.34458C396.732 8.94197 391.869 10.9003 387.198 13.1892C392.304 15.869 397.17 18.9436 401.756 22.3725C406.342 18.9436 411.208 15.8689 416.313 13.1892ZM400.505 23.3218C395.796 19.8299 390.79 16.7158 385.531 14.0242C380.273 16.7158 375.267 19.8299 370.557 23.3218C375.978 27.4981 380.992 32.1755 385.531 37.2846C390.07 32.1755 395.085 27.4981 400.505 23.3218ZM384.529 38.428C379.928 33.2305 374.829 28.484 369.307 24.2632C363.784 28.484 358.685 33.2305 354.084 38.428C360.079 45.3683 365.209 53.0765 369.307 61.3852C373.404 53.0765 378.534 45.3683 384.529 38.428ZM368.471 63.1171C364.379 54.5819 359.189 46.6737 353.082 39.5758C346.975 46.6737 341.784 54.5819 337.692 63.1172C344.296 77.1306 347.988 92.7864 347.988 109.305C347.988 125.823 344.296 141.479 337.692 155.492C341.784 164.027 346.975 171.936 353.082 179.033C359.189 171.936 364.379 164.027 368.471 155.492C361.868 141.479 358.176 125.823 358.176 109.305C358.176 92.7864 361.868 77.1305 368.471 63.1171ZM369.307 153.708C363.127 140.183 359.684 125.146 359.684 109.305C359.684 93.4633 363.127 78.4263 369.307 64.9011C375.486 78.4263 378.929 93.4633 378.929 109.305C378.929 125.146 375.486 140.183 369.307 153.708ZM369.307 157.224C365.209 165.533 360.079 173.241 354.084 180.181C358.685 185.379 363.784 190.125 369.307 194.346C374.829 190.125 379.928 185.379 384.529 180.181C378.534 173.241 373.404 165.533 369.307 157.224ZM385.531 181.325C380.992 186.434 375.978 191.111 370.557 195.287C375.267 198.779 380.273 201.893 385.531 204.585C390.79 201.893 395.796 198.779 400.505 195.287C395.085 191.111 390.07 186.434 385.531 181.325ZM401.756 196.237C397.17 199.666 392.304 202.74 387.198 205.42C391.869 207.709 396.732 209.667 401.756 211.265C406.779 209.667 411.642 207.709 416.313 205.42C411.208 202.74 406.341 199.666 401.756 196.237ZM417.98 206.277C413.571 208.494 408.99 210.419 404.263 212.028C408.722 213.325 413.301 214.341 417.98 215.052C422.66 214.341 427.239 213.325 431.698 212.028C426.971 210.419 422.389 208.494 417.98 206.277ZM434.205 212.846C430.559 213.988 426.829 214.942 423.028 215.698C426.702 216.079 430.431 216.275 434.205 216.275C437.979 216.275 441.708 216.079 445.382 215.698C441.581 214.942 437.852 213.988 434.205 212.846ZM401.756 2.33428C405.53 2.33428 409.259 2.52976 412.932 2.91115C409.132 3.66686 405.402 4.62115 401.756 5.76276C398.109 4.62116 394.38 3.66686 390.579 2.91115C394.253 2.52976 397.981 2.33428 401.756 2.33428ZM385.531 3.55677C390.21 4.26874 394.79 5.28384 399.249 6.58143C394.521 8.18976 389.94 10.1153 385.531 12.3327C381.122 10.1153 376.541 8.18977 371.813 6.58144C376.273 5.28385 380.852 4.26874 385.531 3.55677ZM369.307 7.34459C374.33 8.94197 379.193 10.9003 383.864 13.1892C378.758 15.8689 373.892 18.9436 369.307 22.3725C364.721 18.9436 359.855 15.869 354.749 13.1892C359.42 10.9003 364.283 8.94197 369.307 7.34459ZM353.082 14.0242C358.34 16.7158 363.347 19.8299 368.056 23.3218C362.636 27.4981 357.621 32.1754 353.082 37.2846C348.543 32.1754 343.528 27.4981 338.108 23.3218C342.817 19.8299 347.824 16.7158 353.082 14.0242ZM336.857 24.2632C342.38 28.484 347.479 33.2305 352.08 38.428C346.085 45.3683 340.955 53.0765 336.857 61.3852C332.76 53.0765 327.629 45.3683 321.634 38.4281C326.236 33.2305 331.335 28.484 336.857 24.2632ZM320.633 39.5758C326.739 46.6737 331.93 54.5819 336.022 63.1172C329.419 77.1306 325.727 92.7864 325.727 109.305C325.727 125.823 329.419 141.479 336.022 155.492C331.93 164.027 326.739 171.936 320.633 179.033C314.526 171.935 309.335 164.027 305.243 155.492C311.847 141.479 315.539 125.823 315.539 109.305C315.539 92.7864 311.847 77.1306 305.243 63.1172C309.335 54.5819 314.526 46.6737 320.633 39.5758ZM327.235 109.305C327.235 125.146 330.678 140.183 336.857 153.708C343.037 140.183 346.48 125.146 346.48 109.305C346.48 93.4633 343.037 78.4263 336.857 64.9012C330.678 78.4263 327.235 93.4633 327.235 109.305ZM321.634 180.181C327.629 173.241 332.76 165.533 336.857 157.224C340.955 165.533 346.085 173.241 352.08 180.181C347.479 185.379 342.38 190.125 336.857 194.346C331.335 190.125 326.236 185.379 321.634 180.181ZM338.108 195.287C343.528 191.111 348.543 186.434 353.082 181.325C357.621 186.434 362.636 191.111 368.056 195.287C363.347 198.779 358.34 201.893 353.082 204.585C347.824 201.893 342.817 198.779 338.108 195.287ZM354.749 205.42C359.855 202.74 364.721 199.666 369.307 196.237C373.892 199.666 378.758 202.74 383.864 205.42C379.193 207.709 374.33 209.667 369.307 211.265C364.283 209.667 359.42 207.709 354.749 205.42ZM371.813 212.028C376.541 210.419 381.122 208.494 385.531 206.277C389.94 208.494 394.521 210.419 399.249 212.028C394.79 213.325 390.21 214.341 385.531 215.052C380.852 214.341 376.273 213.325 371.813 212.028ZM390.579 215.698C394.38 214.942 398.109 213.988 401.756 212.846C405.402 213.988 409.132 214.942 412.932 215.698C409.259 216.079 405.53 216.275 401.756 216.275C397.981 216.275 394.253 216.079 390.579 215.698ZM260.782 215.698C264.456 216.079 268.185 216.275 271.959 216.275C275.733 216.275 279.462 216.079 283.135 215.698C279.335 214.942 275.605 213.988 271.959 212.846C268.312 213.988 264.583 214.942 260.782 215.698ZM293.232 215.698C296.905 216.079 300.634 216.275 304.408 216.275C308.183 216.275 311.911 216.079 315.585 215.698C311.784 214.942 308.055 213.988 304.408 212.846C300.762 213.988 297.032 214.942 293.232 215.698ZM301.901 212.028C297.442 213.325 292.863 214.341 288.184 215.052C283.504 214.341 278.925 213.325 274.466 212.028C279.193 210.419 283.775 208.494 288.184 206.277C292.593 208.494 297.174 210.419 301.901 212.028ZM306.915 212.028C311.374 213.325 315.954 214.341 320.633 215.052C325.312 214.341 329.891 213.325 334.351 212.028C329.623 210.419 325.042 208.494 320.633 206.277C316.224 208.494 311.643 210.419 306.915 212.028ZM318.966 205.42C314.294 207.709 309.432 209.667 304.408 211.265C299.385 209.667 294.522 207.709 289.85 205.42C294.956 202.74 299.822 199.666 304.408 196.237C308.994 199.666 313.86 202.74 318.966 205.42ZM322.3 205.42C326.971 207.709 331.834 209.667 336.857 211.265C341.881 209.667 346.744 207.709 351.415 205.42C346.309 202.74 341.443 199.666 336.857 196.237C332.272 199.666 327.406 202.74 322.3 205.42ZM335.607 195.287C330.897 198.779 325.891 201.893 320.633 204.585C315.374 201.893 310.368 198.779 305.659 195.287C311.079 191.111 316.094 186.434 320.633 181.325C325.172 186.434 330.186 191.111 335.607 195.287ZM336.857 22.3725C341.443 18.9436 346.309 15.8689 351.415 13.1892C346.744 10.9003 341.881 8.94197 336.857 7.34458C331.834 8.94197 326.971 10.9003 322.3 13.1892C327.406 15.8689 332.272 18.9436 336.857 22.3725ZM320.633 14.0242C325.891 16.7158 330.897 19.8299 335.607 23.3218C330.186 27.4981 325.172 32.1755 320.633 37.2846C316.094 32.1755 311.079 27.4981 305.659 23.3218C310.368 19.8299 315.374 16.7158 320.633 14.0242ZM320.633 12.3327C325.042 10.1153 329.623 8.18976 334.351 6.58143C329.891 5.28384 325.312 4.26874 320.633 3.55677C315.954 4.26873 311.374 5.28384 306.915 6.58143C311.643 8.18976 316.224 10.1153 320.633 12.3327ZM304.408 7.34458C309.432 8.94196 314.294 10.9003 318.966 13.1892C313.86 15.8689 308.994 18.9436 304.408 22.3725C299.822 18.9436 294.956 15.8689 289.85 13.1892C294.522 10.9003 299.385 8.94197 304.408 7.34458ZM304.408 5.76276C308.055 4.62115 311.784 3.66686 315.585 2.91115C311.911 2.52976 308.182 2.33428 304.408 2.33428C300.634 2.33428 296.905 2.52976 293.232 2.91115C297.032 3.66686 300.762 4.62115 304.408 5.76276ZM288.184 3.55677C292.863 4.26873 297.442 5.28384 301.901 6.58143C297.174 8.18976 292.593 10.1153 288.184 12.3327C283.775 10.1153 279.193 8.18977 274.466 6.58143C278.925 5.28384 283.504 4.26873 288.184 3.55677ZM283.135 2.91115C279.462 2.52976 275.733 2.33428 271.959 2.33428C268.185 2.33428 264.456 2.52976 260.782 2.91115C264.583 3.66686 268.312 4.62116 271.959 5.76276C275.605 4.62116 279.335 3.66686 283.135 2.91115ZM250.686 2.91115C247.013 2.52976 243.284 2.33428 239.51 2.33428C235.735 2.33428 232.007 2.52976 228.333 2.91115C232.134 3.66686 235.863 4.62116 239.51 5.76277C243.156 4.62116 246.885 3.66686 250.686 2.91115ZM242.017 6.58144C246.476 5.28385 251.055 4.26874 255.734 3.55677C260.413 4.26874 264.993 5.28384 269.452 6.58143C264.724 8.18976 260.143 10.1153 255.734 12.3327C251.325 10.1153 246.744 8.18977 242.017 6.58144ZM237.003 6.58144C232.544 5.28384 227.964 4.26874 223.285 3.55677C218.606 4.26874 214.026 5.28384 209.567 6.58143C214.295 8.18977 218.876 10.1153 223.285 12.3327C227.694 10.1153 232.275 8.18977 237.003 6.58144ZM224.952 13.1892C229.623 10.9003 234.486 8.94197 239.51 7.34459C244.533 8.94197 249.396 10.9003 254.067 13.1892C248.962 15.8689 244.095 18.9436 239.51 22.3725C234.924 18.9436 230.058 15.8689 224.952 13.1892ZM221.618 13.1892C216.947 10.9003 212.084 8.94197 207.061 7.34458C202.037 8.94197 197.174 10.9003 192.503 13.1892C197.609 15.8689 202.475 18.9436 207.061 22.3725C211.646 18.9436 216.512 15.8689 221.618 13.1892ZM208.311 23.3218C213.02 19.8299 218.027 16.7158 223.285 14.0242C228.544 16.7158 233.55 19.8299 238.259 23.3218C232.839 27.4981 227.824 32.1755 223.285 37.2846C218.746 32.1755 213.731 27.4981 208.311 23.3218ZM205.81 23.3218C201.101 19.8299 196.094 16.7158 190.836 14.0242C185.577 16.7158 180.571 19.8299 175.862 23.3218C181.282 27.4981 186.297 32.1755 190.836 37.2846C195.375 32.1755 200.389 27.4981 205.81 23.3218ZM191.838 38.4281C196.439 33.2305 201.538 28.484 207.06 24.2632C212.583 28.484 217.682 33.2305 222.283 38.428C216.288 45.3683 211.158 53.0765 207.06 61.3852C202.963 53.0765 197.833 45.3683 191.838 38.4281ZM189.834 38.4281C185.233 33.2305 180.134 28.484 174.611 24.2632C149.037 43.8095 132.539 74.6305 132.539 109.305C132.539 143.979 149.037 174.8 174.611 194.346C180.134 190.125 185.233 185.379 189.834 180.181C173.413 161.17 163.48 136.397 163.48 109.305C163.48 82.2119 173.413 57.4389 189.834 38.4281ZM190.836 179.033C174.726 160.308 164.989 135.944 164.989 109.305C164.989 82.6656 174.726 58.301 190.836 39.5758C196.942 46.6737 202.133 54.5819 206.225 63.1172C199.622 77.1306 195.93 92.7864 195.93 109.305C195.93 125.823 199.622 141.479 206.225 155.492C202.133 164.027 196.942 171.936 190.836 179.033ZM190.836 181.325C186.297 186.434 181.282 191.111 175.862 195.287C180.571 198.779 185.577 201.893 190.836 204.585C196.094 201.893 201.101 198.779 205.81 195.287C200.389 191.111 195.375 186.434 190.836 181.325ZM207.061 194.346C201.538 190.125 196.439 185.379 191.838 180.181C197.833 173.241 202.963 165.533 207.06 157.224C211.158 165.533 216.288 173.241 222.283 180.181C217.682 185.379 212.583 190.125 207.061 194.346ZM207.06 196.237C202.475 199.666 197.609 202.74 192.503 205.42C197.174 207.709 202.037 209.667 207.061 211.265C212.084 209.667 216.947 207.709 221.618 205.42C216.512 202.74 211.646 199.666 207.06 196.237ZM223.285 204.585C218.027 201.893 213.02 198.779 208.311 195.287C213.731 191.111 218.746 186.434 223.285 181.325C227.824 186.434 232.839 191.111 238.259 195.287C233.55 198.779 228.543 201.893 223.285 204.585ZM223.285 206.277C218.876 208.494 214.295 210.419 209.567 212.028C214.026 213.325 218.606 214.341 223.285 215.052C227.964 214.341 232.544 213.325 237.003 212.028C232.275 210.419 227.694 208.494 223.285 206.277ZM239.51 211.265C234.486 209.667 229.623 207.709 224.952 205.42C230.058 202.74 234.924 199.666 239.51 196.237C244.095 199.666 248.962 202.74 254.067 205.42C249.396 207.709 244.533 209.667 239.51 211.265ZM242.016 212.028C246.744 210.419 251.325 208.494 255.734 206.277C260.143 208.494 264.724 210.419 269.452 212.028C264.993 213.325 260.413 214.341 255.734 215.052C251.055 214.341 246.476 213.325 242.016 212.028ZM239.51 212.846C243.156 213.988 246.885 214.942 250.686 215.698C247.013 216.079 243.284 216.275 239.51 216.275C235.735 216.275 232.007 216.079 228.333 215.698C232.134 214.942 235.863 213.988 239.51 212.846ZM369.307 2.33428C373.081 2.33428 376.81 2.52976 380.483 2.91115C376.682 3.66686 372.953 4.62116 369.307 5.76277C365.66 4.62116 361.931 3.66686 358.13 2.91115C361.804 2.52976 365.532 2.33428 369.307 2.33428ZM353.082 3.55677C357.761 4.26874 362.341 5.28384 366.8 6.58144C362.072 8.18977 357.491 10.1153 353.082 12.3327C348.673 10.1153 344.092 8.18977 339.364 6.58144C343.823 5.28384 348.403 4.26874 353.082 3.55677ZM304.408 24.2632C309.931 28.484 315.03 33.2305 319.631 38.4281C313.636 45.3683 308.506 53.0765 304.408 61.3852C300.31 53.0765 295.18 45.3683 289.185 38.428C293.786 33.2305 298.886 28.484 304.408 24.2632ZM288.184 39.5758C294.29 46.6737 299.481 54.5819 303.573 63.1172C296.969 77.1306 293.277 92.7864 293.277 109.305C293.277 125.823 296.969 141.479 303.573 155.492C299.481 164.027 294.29 171.936 288.184 179.033C282.077 171.936 276.886 164.027 272.794 155.492C279.398 141.479 283.09 125.823 283.09 109.305C283.09 92.7864 279.398 77.1305 272.794 63.1171C276.886 54.5819 282.077 46.6737 288.184 39.5758ZM294.785 109.305C294.785 125.146 298.229 140.183 304.408 153.708C310.587 140.183 314.031 125.146 314.031 109.305C314.031 93.4633 310.587 78.4263 304.408 64.9012C298.229 78.4263 294.785 93.4633 294.785 109.305ZM289.185 180.181C295.18 173.241 300.31 165.533 304.408 157.224C308.506 165.533 313.636 173.241 319.631 180.181C315.03 185.379 309.931 190.125 304.408 194.346C298.886 190.125 293.786 185.379 289.185 180.181ZM339.364 212.028C344.092 210.419 348.673 208.494 353.082 206.277C357.491 208.494 362.072 210.419 366.8 212.028C362.341 213.325 357.761 214.341 353.082 215.052C348.403 214.341 343.823 213.325 339.364 212.028ZM358.13 215.698C361.931 214.942 365.66 213.988 369.307 212.846C372.953 213.988 376.682 214.942 380.483 215.698C376.81 216.079 373.081 216.275 369.307 216.275C365.532 216.275 361.803 216.079 358.13 215.698ZM348.034 2.91115C344.36 2.52976 340.632 2.33428 336.857 2.33428C333.083 2.33428 329.354 2.52976 325.681 2.91115C329.482 3.66686 333.211 4.62116 336.857 5.76276C340.504 4.62116 344.233 3.66686 348.034 2.91115ZM303.158 23.3218C298.448 19.8299 293.442 16.7158 288.184 14.0242C282.925 16.7158 277.919 19.8299 273.209 23.3218C278.63 27.4981 283.644 32.1755 288.184 37.2846C292.723 32.1755 297.737 27.4981 303.158 23.3218ZM287.182 38.4281C282.581 33.2305 277.481 28.484 271.959 24.2632C266.436 28.484 261.337 33.2305 256.736 38.428C262.731 45.3683 267.861 53.0765 271.959 61.3852C276.057 53.0765 281.187 45.3683 287.182 38.4281ZM271.124 63.1171C267.032 54.5819 261.841 46.6737 255.734 39.5758C249.628 46.6737 244.437 54.5819 240.345 63.1172C246.949 77.1306 250.641 92.7864 250.641 109.305C250.641 125.823 246.949 141.479 240.345 155.492C244.437 164.027 249.628 171.936 255.734 179.033C261.841 171.936 267.032 164.027 271.124 155.492C264.52 141.479 260.828 125.823 260.828 109.305C260.828 92.7864 264.52 77.1305 271.124 63.1171ZM271.959 153.708C265.78 140.183 262.336 125.146 262.336 109.305C262.336 93.4633 265.78 78.4263 271.959 64.9011C278.138 78.4263 281.582 93.4633 281.582 109.305C281.582 125.146 278.138 140.183 271.959 153.708ZM271.959 157.224C267.861 165.533 262.731 173.241 256.736 180.181C261.337 185.379 266.436 190.125 271.959 194.346C277.481 190.125 282.581 185.379 287.182 180.181C281.187 173.241 276.057 165.533 271.959 157.224ZM288.184 181.325C283.644 186.434 278.63 191.111 273.209 195.287C277.919 198.779 282.925 201.893 288.184 204.585C293.442 201.893 298.448 198.779 303.158 195.287C297.737 191.111 292.723 186.434 288.184 181.325ZM336.857 212.846C333.211 213.988 329.482 214.942 325.681 215.698C329.354 216.079 333.083 216.275 336.857 216.275C340.632 216.275 344.36 216.079 348.034 215.698C344.233 214.942 340.504 213.988 336.857 212.846ZM271.959 7.34458C276.983 8.94197 281.845 10.9003 286.517 13.1892C281.411 15.8689 276.545 18.9436 271.959 22.3725C267.373 18.9436 262.507 15.8689 257.401 13.1892C262.073 10.9003 266.935 8.94197 271.959 7.34458ZM255.734 14.0242C260.993 16.7158 265.999 19.8299 270.708 23.3218C265.288 27.4981 260.273 32.1755 255.734 37.2846C251.195 32.1755 246.181 27.4981 240.76 23.3218C245.47 19.8299 250.476 16.7158 255.734 14.0242ZM239.51 24.2632C245.032 28.484 250.131 33.2305 254.733 38.428C248.738 45.3683 243.607 53.0765 239.51 61.3852C235.412 53.0765 230.282 45.3683 224.287 38.428C228.888 33.2305 233.987 28.484 239.51 24.2632ZM223.285 39.5758C229.392 46.6737 234.583 54.5819 238.675 63.1172C232.071 77.1306 228.379 92.7864 228.379 109.305C228.379 125.823 232.071 141.479 238.675 155.492C234.583 164.027 229.392 171.936 223.285 179.033C217.179 171.936 211.988 164.027 207.896 155.492C214.499 141.479 218.191 125.823 218.191 109.305C218.191 92.7864 214.499 77.1306 207.896 63.1172C211.988 54.5819 217.179 46.6737 223.285 39.5758ZM229.887 109.305C229.887 125.146 233.33 140.183 239.51 153.708C245.689 140.183 249.132 125.146 249.132 109.305C249.132 93.4633 245.689 78.4263 239.51 64.9012C233.33 78.4263 229.887 93.4633 229.887 109.305ZM224.287 180.181C230.282 173.241 235.412 165.533 239.51 157.224C243.607 165.533 248.738 173.241 254.733 180.181C250.131 185.379 245.032 190.125 239.51 194.346C233.987 190.125 228.888 185.379 224.287 180.181ZM240.76 195.287C246.181 191.111 251.195 186.434 255.734 181.325C260.273 186.434 265.288 191.111 270.708 195.287C265.999 198.779 260.993 201.893 255.734 204.585C250.476 201.893 245.47 198.779 240.76 195.287ZM257.401 205.42C262.507 202.74 267.373 199.666 271.959 196.237C276.545 199.666 281.411 202.74 286.517 205.42C281.845 207.709 276.983 209.667 271.959 211.265C266.935 209.667 262.073 207.709 257.401 205.42ZM207.061 153.708C200.881 140.183 197.438 125.146 197.438 109.305C197.438 93.4633 200.881 78.4263 207.06 64.9012C213.24 78.4263 216.683 93.4633 216.683 109.305C216.683 125.146 213.24 140.183 207.061 153.708ZM207.06 2.33428C210.835 2.33428 214.564 2.52976 218.237 2.91115C214.436 3.66686 210.707 4.62116 207.06 5.76276C203.414 4.62116 199.685 3.66686 195.884 2.91115C199.557 2.52976 203.286 2.33428 207.06 2.33428ZM190.836 3.55677C195.515 4.26874 200.094 5.28384 204.554 6.58143C199.826 8.18976 195.245 10.1153 190.836 12.3327C186.427 10.1153 181.846 8.18977 177.118 6.58143C181.577 5.28384 186.157 4.26874 190.836 3.55677ZM174.611 7.34459C179.635 8.94197 184.498 10.9003 189.169 13.1892C184.063 15.8689 179.197 18.9436 174.611 22.3725C170.026 18.9436 165.159 15.8689 160.054 13.1892C164.725 10.9003 169.588 8.94197 174.611 7.34459ZM158.387 14.0242C163.645 16.7158 168.651 19.8299 173.361 23.3218C147.617 43.1563 131.031 74.2935 131.031 109.305C131.031 144.316 147.617 175.453 173.361 195.287C168.651 198.779 163.645 201.893 158.387 204.585C123.779 186.87 100.09 150.854 100.09 109.305C100.09 67.7555 123.779 31.7391 158.387 14.0242ZM160.054 205.42C165.159 202.74 170.026 199.666 174.611 196.237C179.197 199.666 184.063 202.74 189.169 205.42C184.498 207.709 179.635 209.667 174.611 211.265C169.588 209.667 164.725 207.709 160.054 205.42ZM177.118 212.028C181.846 210.419 186.427 208.494 190.836 206.277C195.245 208.494 199.826 210.419 204.554 212.028C200.094 213.325 195.515 214.341 190.836 215.052C186.157 214.341 181.577 213.325 177.118 212.028ZM195.884 215.698C199.685 214.942 203.414 213.988 207.06 212.846C210.707 213.988 214.436 214.942 218.237 215.698C214.564 216.079 210.835 216.275 207.06 216.275C203.286 216.275 199.557 216.079 195.884 215.698ZM185.788 2.91115C182.114 2.52976 178.386 2.33428 174.611 2.33428C170.837 2.33428 167.108 2.52976 163.435 2.91115C167.236 3.66686 170.965 4.62116 174.611 5.76276C178.258 4.62116 181.987 3.66686 185.788 2.91115ZM172.104 6.58143C167.645 5.28384 163.066 4.26874 158.387 3.55677C153.708 4.26873 149.128 5.28384 144.669 6.58143C149.397 8.18976 153.978 10.1153 158.387 12.3327C162.796 10.1153 167.377 8.18977 172.104 6.58143ZM156.72 13.1892C152.048 10.9003 147.186 8.94197 142.162 7.34458C98.9481 21.0855 67.6409 61.539 67.6409 109.305C67.6409 157.07 98.9481 197.524 142.162 211.265C147.186 209.667 152.048 207.709 156.72 205.42C122.158 187.281 98.582 151.046 98.582 109.305C98.582 67.5634 122.158 31.3285 156.72 13.1892ZM158.387 206.277C153.978 208.494 149.397 210.419 144.669 212.028C149.128 213.325 153.708 214.341 158.387 215.052C163.066 214.341 167.645 213.325 172.104 212.028C167.377 210.419 162.796 208.494 158.387 206.277ZM174.611 212.846C170.965 213.988 167.236 214.942 163.435 215.698C167.108 216.079 170.837 216.275 174.611 216.275C178.386 216.275 182.114 216.079 185.788 215.698C181.987 214.942 178.258 213.988 174.611 212.846ZM142.162 2.33428C145.936 2.33428 149.665 2.52976 153.339 2.91115C149.538 3.66686 145.809 4.62116 142.162 5.76276C138.516 4.62116 134.786 3.66686 130.986 2.91115C134.659 2.52976 138.388 2.33428 142.162 2.33428ZM125.937 3.55677C130.617 4.26873 135.196 5.28384 139.655 6.58143C96.895 21.1281 66.1328 61.6239 66.1328 109.305C66.1328 156.985 96.895 197.481 139.655 212.028C135.196 213.325 130.617 214.341 125.937 215.052C74.5588 207.235 35.1917 162.867 35.1917 109.305C35.1917 55.7422 74.5588 11.3744 125.937 3.55677ZM130.985 215.698C134.786 214.942 138.516 213.988 142.162 212.846C145.809 213.988 149.538 214.942 153.339 215.698C149.665 216.079 145.936 216.275 142.162 216.275C138.388 216.275 134.659 216.079 130.985 215.698Z" fill="url(#paint0_linear_148_1140)"/>
    <rect x="105.293" y="78.7207" width="21.485" height="22.4624" fill="black"/>
    <rect x="105.293" y="145.129" width="21.485" height="22.4624" fill="black"/>
    <rect x="126.773" y="122.666" width="22.4616" height="22.4624" fill="black"/>
    <rect x="126.773" y="122.666" width="21.4858" height="22.4616" transform="rotate(-90 126.773 122.666)" fill="black"/>
    <rect x="105.293" y="122.666" width="22.4616" height="21.4858" transform="rotate(-180 105.293 122.666)" fill="black"/>
    <rect x="105.293" y="122.666" width="22.4625" height="22.4616" transform="rotate(90 105.293 122.666)" fill="black"/>
    <circle cx="108.875" cy="108.746" r="107.641" fill="white"/>
    <path fill-rule="evenodd" clip-rule="evenodd" d="M109.018 114.845C126.827 114.845 141.624 111.89 145.324 107.921C142.226 104.542 131.128 101.925 116.933 101.249V109.609C114.438 109.778 111.771 109.778 109.018 109.778C106.265 109.778 103.684 109.694 101.103 109.525V101.249C86.9077 102.009 75.8096 104.627 72.7124 107.921C76.3258 111.89 91.2092 114.845 109.018 114.845ZM140.592 75.5768V87.0618H116.847V94.9999C133.537 95.8445 146.012 99.3069 146.098 103.529V112.227C146.012 116.45 133.537 119.912 116.847 120.757V140.265H101.103V120.841C84.4127 119.997 71.9382 116.534 71.8521 112.312V103.529C71.9382 99.3069 84.4127 95.8445 101.103 94.9999V87.0618H77.3582V75.5768H140.592ZM68.0667 57.3359H151.346C153.325 57.3359 155.132 58.3493 156.164 60.0383L180.425 100.911C181.715 103.023 181.285 105.725 179.479 107.414L112.717 171.426C110.567 173.537 107.039 173.537 104.889 171.426L38.2135 107.498C36.4068 105.725 36.0627 103.023 37.3532 100.827L63.3349 59.8694C64.3673 58.3493 66.174 57.3359 68.0667 57.3359Z" fill="#009393"/>
    <path d="M109.451 216.275C168.946 216.275 217.175 168.045 217.175 108.551C217.175 49.056 168.946 0.826172 109.451 0.826172C49.9564 0.826172 1.72656 49.056 1.72656 108.551C1.72656 168.045 49.9564 216.275 109.451 216.275Z" stroke="#DFDFDF" stroke-width="1.50811" stroke-miterlimit="10"/>
    <circle cx="856.144" cy="109.467" r="108.141" fill="white" stroke="#00B988" stroke-miterlimit="10"/>
    <path fill-rule="evenodd" clip-rule="evenodd" d="M856.234 167.826C888.267 167.826 914.234 141.859 914.234 109.826C914.234 77.7937 888.267 51.8262 856.234 51.8262C824.202 51.8262 798.234 77.7937 798.234 109.826C798.234 141.859 824.202 167.826 856.234 167.826ZM826.576 79.5078H885.894V92.6896H862.826V105.871H849.644V92.6896H826.576V79.5078ZM849.644 105.871V132.235H836.463V105.871H849.644ZM862.826 105.871H876.008V132.235H862.828V145.417H849.646V132.235H862.826V105.871Z" fill="#00B988"/>
    <defs>
        <linearGradient id="paint0_linear_148_1140" x1="1.23437" y1="109.305" x2="633.505" y2="109.305" gradientUnits="userSpaceOnUse">
            <stop stop-color="white"/>
            <stop offset="1" stop-color="#0CB09C"/>
        </linearGradient>
    </defs>
</svg>
