<svg xmlns="http://www.w3.org/2000/svg" fill="none" viewBox="0 0 97 96">
  <g clip-path="url(#WRBTC_svg__a)">
    <path fill="#5A5564" d="m57.25 42.997-.547.547a7.734 7.734 0 0 1 0 10.438l.546.547a8.516 8.516 0 0 0 0-11.545zm-11.49.047a7.734 7.734 0 0 1 10.439 0l.546-.546a8.516 8.516 0 0 0-11.544 0zm-.512 10.944a7.734 7.734 0 0 1 0-10.434l-.546-.546a8.516 8.516 0 0 0 0 11.544zm10.944.504a7.735 7.735 0 0 1-10.439 0l-.546.546a8.516 8.516 0 0 0 11.544 0z"/>
    <path fill="#F09242" d="M54.423 46.947c-.11-1.14-1.093-1.522-2.337-1.639v-1.57h-.962v1.541h-.768v-1.54h-.954v1.58h-1.95v1.029s.71-.013.699 0a.497.497 0 0 1 .546.422v4.327a.34.34 0 0 1-.117.235.33.33 0 0 1-.247.084c.012.011-.7 0-.7 0l-.182 1.15h1.932v1.606h.962v-1.583h.769v1.575h.963v-1.588c1.624-.098 2.757-.499 2.9-2.02.114-1.223-.462-1.77-1.381-1.99.559-.275.905-.785.827-1.619m-1.348 3.42c0 1.195-2.047 1.058-2.7 1.058v-2.12c.653.002 2.7-.185 2.7 1.062m-.446-2.986c0 1.092-1.709.96-2.251.96v-1.928c.542 0 2.25-.17 2.25.968"/>
    <path fill="#282138" d="M50.973 58.719a9.95 9.95 0 1 1 .003-19.898 9.95 9.95 0 0 1-.004 19.898m0-19.122a9.167 9.167 0 1 0 .014 18.334 9.167 9.167 0 0 0-.015-18.334"/>
    <g clip-path="url(#WRBTC_svg__b)">
      <path fill="#fff" d="M44.583 92.365c24.4 0 44.182-19.782 44.182-44.183C88.765 23.782 68.984 4 44.583 4S.4 23.781.4 48.182s19.782 44.183 44.183 44.183"/>
      <path fill="#FF9931" d="M44.582 86.85c21.356 0 38.668-17.312 38.668-38.668S65.938 9.514 44.582 9.514 5.914 26.827 5.914 48.182c0 21.356 17.312 38.668 38.668 38.668"/>
      <path fill="#006E3C" d="M90.667 23.688c-2.037-.875-5.01-1.86-8.243-1.976-2.657-.098-5.054.416-7.118 1.526q-.631.342-1.196.739c-3.308 2.317-4.997 5.976-5.843 8.774l-.363 1.198 1.101-.587 5.813-3.112a2.325 2.325 0 0 1 3.133.905q.011.012.016.022l.032.058q.055.109.1.219L91.5 24.031c-.122-.056-.704-.285-.833-.343"/>
      <path fill="#06B23C" d="M88.545 32.67c-6.64 10.974-18.469 5.508-18.469 5.508l4.268-2.29c.356-.211 2.683-1.437 2.683-1.437 2.046-1.297.88-3.32.973-3.124l13.5-7.296s-.264 4.189-2.956 8.64"/>
      <path fill="#fff" d="M95.14 20.587c-.585-.343-5.986-3.414-12.538-3.652-3.487-.126-6.69.58-9.498 2.095a17 17 0 0 0-2.574 1.705c-5.915 4.732-7.447 12.398-7.841 15.767l-.032.269-.237.132-1.737.925c-1.658-1.7-4.134-2.947-6.03-3.469l-.335-.092 1.734-6.904-4.12-1.065-1.72 6.852q-1.611-.434-3.104-.831l1.714-6.826-4.12-1.065-1.708 6.805a773 773 0 0 0-8.2-2.105s-.69 3.46-.989 4.292c0 0 .849.205 1.764.473.6.175 3.545.49 2.562 4.141-.552 2.049-3.766 15.787-4.017 16.726-.292 1.092-.59 1.707-1.946 1.404l-3.287-.732-2.063 4.917c.75.258 3.337.857 8.247 2.1l-1.704 6.785L37.48 70.3l1.706-6.794q1.46.378 3.108.814l-1.703 6.784 4.119 1.066 1.731-6.896c4.791.891 7.552.609 8.207.487 4-.74 5.7-3.817 6.438-6.754 2.079-8.274-4.734-9.003-3.872-9.177 3.813-.77 5.636-4.416 5.43-7.653l1.946-1.04.241-.132.234.13c2.55 1.327 6.544 2.943 11.078 3.108 2.883.103 5.586-.414 8.053-1.536q.522-.239 1.027-.51c9.716-5.223 10.973-17.946 11.082-19.378l.095-1.478zM52.922 57.29c-1.132 4.51-8.78 2.236-8.78 2.236l-3.631-.94 2.265-9.02 4.338 1.122s7.081 1.534 5.808 6.602m1.362-13.443c-1.039 4.137-7.406 2.218-7.406 2.218l-3.026-.782 2.078-8.275 3.615.935s5.907 1.255 4.74 5.904m37.073-19.462-.006.05c-.67 3.748-2.646 10.495-8.334 13.552l-.152.078c-1.952 1.016-4.165 1.487-6.58 1.397-1.612-.056-3.299-.365-5.026-.908l-1.183-.377 1.093-.588 5.857-3.14a2.38 2.38 0 0 0 1.144-1.402c.059-.207.09-.408.094-.618A2.4 2.4 0 0 0 78 31.235l-.032-.058c-.002-.008-.01-.013-.015-.023a2.324 2.324 0 0 0-3.134-.904l-5.812 3.112-1.101.587.362-1.198c.846-2.798 2.536-6.457 5.843-8.774q.565-.397 1.197-.74c2.064-1.109 4.46-1.623 7.117-1.525 3.233.116 6.206 1.1 8.243 1.976.13.058.257.11.38.167l.362.176z"/>
    </g>
  </g>
  <defs>
    <clipPath id="WRBTC_svg__a">
      <rect width="96" height="96" x=".4" fill="#fff" rx="48"/>
    </clipPath>
    <clipPath id="WRBTC_svg__b">
      <path fill="#fff" d="M.4 4h96v88.365H.4z"/>
    </clipPath>
  </defs>
</svg>
