<?xml version="1.0" encoding="UTF-8"?><svg id="a" xmlns="http://www.w3.org/2000/svg" width="512" height="512" viewBox="0 0 512 512"><path d="m277.9742,456.7297c-2.3433.8298-4.8025-.9082-4.8025-3.394v-19.2732c0-11.2355.0747-65.2566.0747-65.2566,0-9.2165-7.5181-16.7346-16.7586-16.7346h-27.3344c-31.1158,0-56.9344-24.8461-57.2361-55.9605-.3046-31.4188,25.1655-57.0757,56.5158-57.0757h54.1527c12.0058,0,22.1689-9.3908,22.5339-21.391.3792-12.4682-9.6409-22.7345-22.0191-22.7605l-26.874.1574c-28.2325,0-51.2011-22.9686-51.2011-51.2007v-32.5687c-11.4393,5.8803-25.5026,12.7466-39.6867,18.7678-16.8751,7.1633-36.9198,13.7274-49.3108,17.5663-1.5367,25.9712-4.4405,89.7426.5512,137.5808,2.8251,27.0735,15.5984,55.3567,35.9674,79.639,20.2021,24.0839,46.5679,42.7833,74.2819,52.6921,6.9044,2.2428,11.8948,8.7279,11.8948,16.3801v19.2739c0,2.4856-2.4589,4.2236-4.8021,3.3942l-18.1681-6.4312c-33.5782-11.8913-65.397-34.3268-89.5947-63.1742-24.7374-29.4902-40.3051-64.3647-43.836-98.1994-6.7112-64.3191-.1534-151.8322.129-155.5259l.9143-11.9558,11.5301-3.2913c.325-.0928,32.9523-9.4514,56.9843-19.6529,30.5123-12.9527,61.4908-30.663,61.8004-30.8404l20.3959-11.6946c2.4004-1.3763,5.3916.3566,5.3916,3.1235v84.9168c0,9.2259,7.4937,16.7342,16.7141,16.7582l26.8725-.1574c31.3499,0,56.8201,25.657,56.5154,57.0759-.3018,31.1145-26.1205,55.9606-57.2365,55.9606h-53.4311c-12.0123,0-22.179,9.4005-22.5353,21.4075-.3703,12.4762,9.6715,22.7436,22.066,22.7436h28.0547c28.2325,0,51.2011,22.9686,51.2011,51.2011,0,.0149-.0279,20.3473-.05,38.6508,19.2261-10.5462,37.1-25.2807,51.796-42.9036,20.4586-24.5332,33.2855-52.9888,36.1169-80.1248,4.9908-47.8284,1.7676-111.0581.0869-136.814-12.4791-3.8562-32.7626-10.4837-49.653-17.6898-30.3042-12.9287-59.8192-29.7526-64.3954-32.3897-5.435-2.8939-9.1347-8.615-9.1347-15.203v-23.689c0-2.7766,3.01-4.5083,5.4103-3.1127l20.4668,11.8996c.3037.1762,30.9065,17.9038,61.1686,30.8149,23.8963,10.1949,56.8509,19.6226,57.181,19.7167l11.4554,3.2634.9898,11.8704c.3053,3.6662,7.3989,90.531.681,154.9079-7.2156,69.1521-63.4307,137.3959-133.6667,162.269l-18.1677,6.4338Z"/></svg>