<svg xmlns="http://www.w3.org/2000/svg" viewBox="0 0 512 512"><rect width="512" height="512" style="fill:#001e32"/><path d="M356,256A100.06649,100.06649,0,0,0,256,354.6554h26.722a73.27514,73.27514,0,0,1,132.84436-41.28729l20.56751-17.14943A99.817,99.817,0,0,0,356,256Z" style="fill:#0d7aa6"/><path d="M313.12582,213.70232c-78.2155,0-141.75183,62.91528-142.87417,140.95308h38.17882a104.70956,104.70956,0,0,1,200.45264-40.38454l33.173-19.23639A142.88047,142.88047,0,0,0,313.12582,213.70232Z" style="fill:#119cd5"/><path d="M402.556,354.6554C400.99024,274.95994,335.979,210.83555,256,210.83555S111.00979,274.95994,109.444,354.6554H56c1.5711-109.23991,90.51136-197.3108,200-197.3108s198.42885,88.07089,200,197.3108Z" style="fill:#59c6f2"/><path d="M385.61157,288.98488a72.7469,72.7469,0,0,0-23.01287-5.94216,139.5696,139.5696,0,0,0-21.25189-25.962c1.01246-.14886,2.028-.28826,3.05008-.40647q-2.46975-.77276-4.99221-1.42206A138.27944,138.27944,0,0,0,269.34624,220.553a141.81737,141.81737,0,0,1,22.55742-5.27965A146.91554,146.91554,0,0,1,385.61157,288.98488Z" style="fill:#0d7aa6"/></svg>