<svg id="Layer_1" data-name="Layer 1" xmlns="http://www.w3.org/2000/svg" viewBox="0 0 512 512"><path d="M328.73,209.16q3.63,2.64,6.6,2.64,3.3,0,6.26-4.29l19.13-27a10.69,10.69,0,0,0,2.31-5.94c0-2-1.31-4.06-3.95-6.26A137.58,137.58,0,0,0,320,145.51a123.54,123.54,0,0,0-20.77-5.87c4.08,19.27,7,39.49,9,57.75A112.21,112.21,0,0,1,328.73,209.16Z"/><path d="M341.93,305.46a19.6,19.6,0,0,0-3-3,4.85,4.85,0,0,0-3-1q-2.64,0-6.6,3a97.68,97.68,0,0,1-20.64,12.24c-1.84,17.73-4.5,37.65-8.32,56.93a130.27,130.27,0,0,0,17.42-5,133.67,133.67,0,0,0,39.91-22.92q4.94-4.62,4.94-7.59a10.23,10.23,0,0,0-2-5.61Z"/><path d="M253,66.29c-11.32,0-21.46,25.93-28.3,66.86,2.49-.92,5-1.74,7.56-2.51,4.78-16,10.25-23.35,15.11-23.35,5.54,0,11.6,9.34,16.48,30.31q-29.91,1.92-54.37,15.33a114.94,114.94,0,0,0-44.68,43.2q-16.17,27.54-16.16,62.17,0,33.63,16,60.68a113.22,113.22,0,0,0,44,42.38q25.19,13.78,55.73,15.17c-5,22.73-11.27,32.88-17,32.88-5.16,0-11-8.26-16-26.36-2.42-.75-4.81-1.58-7.17-2.46,6.84,42.63,17.19,69.82,28.78,69.82,20.61,0,42.42-62.66,42.42-192.19S273.64,66.29,253,66.29Zm20.45,191.93c0,25.39-.79,47.15-2.15,65.64a66.17,66.17,0,0,1-31.47-8.5,60.7,60.7,0,0,1-23.42-23.75Q208,276.45,208,257.31q0-19.78,8.41-35.12a59.29,59.29,0,0,1,23.42-23.75,67.22,67.22,0,0,1,31.29-8.33C272.62,209.1,273.48,231.68,273.48,258.22Z"/></svg>