<?xml version="1.0" encoding="utf-8"?>
<!-- Generator: Adobe Illustrator 25.0.0, SVG Export Plug-In . SVG Version: 6.00 Build 0)  -->
<svg version="1.1" id="Layer_1" xmlns="http://www.w3.org/2000/svg" xmlns:xlink="http://www.w3.org/1999/xlink" x="0px" y="0px"
	 viewBox="0 0 5808.5 5808.4" style="enable-background:new 0 0 5808.5 5808.4;" xml:space="preserve">
<style type="text/css">
	.st0{fill:#FF2E29;}
</style>
<path class="st0" d="M5761.2,2378.9c-91.1-498.8-309.9-953.6-620.9-1328.2C4607.7,408.9,3803.6,0,2904.4,0H655.7
	C292.8,4.6,0,300.3,0,664.3v4480c0,364,292.8,659.7,655.7,664.3h2248.7c899.5,0,1703.2-408.8,2235.9-1050.7
	c311.3-375,529.8-829.4,620.9-1328.2c31.3-170.5,47.3-345.9,47.3-525.5C5808.6,2724.3,5792.5,2549.2,5761.2,2378.9z M2912.9,4758.2
	h-17c-182.5-0.8-358.9-28-525.3-78c-299.7-90-567.5-253.8-782.3-470.3c-144.5-145.7-265.1-315.3-355-502.4
	c-42.7-88.9-78.6-181.8-107.1-277.9c-49.1-166.5-75.5-343-75.5-525.5s26.4-358.7,75.5-525.5c14.6-49.1,31-97.1,49.1-144.5
	c17.1-44.5,80.8-42.4,95.3,3.2c15.3,48,32.7,95,51.9,140.9c82.5,196.4,200.6,374.3,346.2,525.5c172.6,179.1,383.7,320.8,620,411.8
	l0,0c43.1,16.6,86.9,31.4,131.5,44.5c153.4,45,315.8,69.2,483.8,69.2c366.8,0,664.3,297.4,664.3,664.3
	C3568.4,4457.8,3275.9,4753.5,2912.9,4758.2z M4682.4,3429.9c-14.6,49.1-31,97.1-49.1,144.5c-17.1,44.5-80.8,42.4-95.3-3.2
	c-15.3-48-32.7-95-51.9-140.9c-82.5-196.4-200.6-374.3-346.2-525.5c-312-323.8-750.1-525.5-1235.3-525.5
	c-161.1,0-308.9-57.4-423.9-152.9c-146.9-121.9-240.3-305.7-240.3-511.4c0-176.2,68.6-336.4,180.6-455.3
	c119.3-126.8,287.9-206.6,475.2-209h17c732.2,3.2,1364.5,431.2,1662.7,1050.7c42.7,88.9,78.6,181.8,107.1,277.9
	c49.1,166.5,75.5,343,75.5,525.5C4758.2,3087.2,4731.9,3263.1,4682.4,3429.9z"/>
</svg>
