<svg id="Layer_1" data-name="Layer 1" xmlns="http://www.w3.org/2000/svg" viewBox="0 0 1804.78 1805.1"><defs><style>.cls-1{fill:#ff2e29;}</style></defs><path class="cls-1" d="M1790.17,739.23a898.74,898.74,0,0,0-193-412.76C1431.69,127,1181.9,0,902.44,0H206.39C92.42,0,0,92.4,0,206.37V1598.55c0,114,92.42,206.39,206.39,206.39H902.44c279.46,0,529.25-127,694.76-326.47a898.83,898.83,0,0,0,193-412.76,913.11,913.11,0,0,0,0-326.48Zm-956.71-374c17.06,0,34.63-.2,51.63-.38,43.58-.51,88.65-1,133,1.65l.18,0c36.87,2.46,72.49,8.5,112.06,19.06l.68.2c20,5.86,40.62,12,60.59,20.37a33,33,0,0,1,9.71,2.78c24.13,10.36,50,21.9,76,36.17l.91.52c28.31,17,57.54,34.53,86,59.74a31.57,31.57,0,0,1,8.28,5.52c3.89,3.48,7.9,7,11.76,10.31,8,6.91,16.26,14.06,23.9,21.8a27.9,27.9,0,0,1-39.71,39.19c-6.09-6.17-13.18-12.31-20.69-18.82q-4.69-4-9.55-8.32a31.42,31.42,0,0,1-8.4-5.6c-25.25-22.89-53-39.59-79.85-55.69-22.76-12.51-46-22.95-67.89-32.38a32,32,0,0,1-9.84-2.82c-17.56-7.65-36.52-13.25-56.59-19.14-35.82-9.55-67.92-15-101-17.22-42.35-2.54-86.37-2-129-1.55-17.15.2-34.88.4-52.26.4a27.91,27.91,0,1,1,0-55.81ZM528.75,549.3c9.49-16,27.12-41.59,42.49-61.07,42.89-54.44,100.29-89.31,164.54-108.67A27.89,27.89,0,1,1,751.88,433c-52.77,15.91-102.55,45.65-135.57,86.83-9.67,12.05-26.19,36.27-38.69,56.43-37.25,60.12-46.78,132.41-39,202.51,1.13,9,2.22,17.58,4.21,25.6l.26,1.17c10.68,52.2,29.07,94.45,57.87,132.91,16,20.27,33.9,38.51,56.25,57.34,38.08,30.61,83.14,50.17,134,58.17,23,2.62,45.51,2.48,69.38,2.34,6.53,0,13.28-.09,20-.07a27.9,27.9,0,0,1-.08,55.79h-.08c-6.51,0-13.12,0-19.52.06q-8,.06-16.1.06c-19.62,0-39.79-.42-60.58-2.82l-1.09-.14c-61-9.49-115.2-33.08-161.18-70.13l-.48-.38c-25.51-21.48-46-42.43-64.58-65.91l-.4-.54c-33.46-44.63-55.71-95.3-68-154.91-2.74-11.12-4-21.64-5.32-31.82l0-.38C474.11,703.42,486.78,620.16,528.75,549.3Zm-196,247.57a571.79,571.79,0,0,1,2.32-133.54c.73-5.34,1.53-10.72,2.42-16a27.89,27.89,0,0,1,55,9.09c-.78,4.78-1.51,9.61-2.17,14.41a514.63,514.63,0,0,0-2.08,120.46A509.27,509.27,0,0,0,414.05,908.1a489.27,489.27,0,0,0,53,107.53,457.89,457.89,0,0,0,81,93.52c37.29,32.56,73.21,56.19,109.8,72.23a27.9,27.9,0,0,1-11.2,53.45,27.46,27.46,0,0,1-11.2-2.36c-41.87-18.35-82.45-44.94-124.09-81.27a513.42,513.42,0,0,1-90.95-104.91,545.45,545.45,0,0,1-59.05-119.81A567.36,567.36,0,0,1,332.75,796.87Zm642.32,642.28c-23.59,1.77-47,2.21-70,2.21-12.71,0-77.43,1.77-103.13-.26-50.59-4-138.62-21.7-198.11-44.3l-.65-.25c-23.23-9.51-45.51-21.33-67.51-31.81-10-4.79-104.16-70.07-138.17-102a27.89,27.89,0,0,1,38.2-40.66c32.11,30.16,67,58.59,108.59,82.76,19.26,11.19,58.49,31.59,79.68,40,54,21.29,114.84,34.21,180,40.47,21.6-.42,132.65.83,166.92-1.73a27.89,27.89,0,1,1,4.15,55.63ZM889,1277.1c-32.52,0-66.93-1.15-104.72-3.46l-1.37-.13c-23.62-2.61-45.32-7.73-66.29-12.67a27.91,27.91,0,0,1,12.81-54.32c19.14,4.54,38.93,9.19,59,11.47,65.7,4,162.12,11.16,214.2-1.31,32.78-7.84,69.05-40.07,85.31-62.36,15-20.59,21.19-44.18,24.52-72.93,4.15-38.58-6.55-75.53-30.14-104a129.36,129.36,0,0,0-55.41-38.68c-21-6.55-42.71-8.47-61.21-9.45-19.58-.41-39,.26-59.61,1-36,1.23-73.2,2.5-111.48-2.39l-1.05-.15c-31.93-5.31-61.08-18.67-89.11-40.79l-.56-.47c-16.12-13.44-29.18-28.69-41.08-48-20.39-33.12-29.1-73.38-25.91-119.63l0-.45c5.7-67.11,41.34-126.12,97.75-161.88l1.11-.67c23.07-13.19,42.73-20.24,63.75-22.86l1.11-.12c77.2-6.53,168.87-11,263.5,5.36a27.9,27.9,0,1,1-9.49,55c-88.18-15.23-175.18-11-248.72-4.8-13,1.72-26,6.53-41.9,15.56-41.2,26.35-67.23,69.67-71.51,118.95-2.33,34.33,3.65,63.36,17.77,86.33,8.71,14.12,17.65,24.68,29,34.19,20.47,16.1,40.49,25.4,62.9,29.23,33.62,4.23,66.81,3.1,101.94,1.9,20.59-.71,41.89-1.43,63.18-1l.85,0c22.28,1.19,48.72,3.54,76.08,12.19l1.13.38c31.83,11.57,58.68,30.3,79.82,55.65,33.36,40.31,48.49,92.07,42.69,145.78l0,.21c-4.41,38.3-23.69,93-54.56,125-25.73,26.65-55.77,47.08-102.1,58.67C987,1277.34,914.93,1277.1,889,1277.1Zm40.28-192.77a27.91,27.91,0,0,1,27.9-27.84h0q6.22,0,12.45.08a27.9,27.9,0,0,1-.22,55.79h-.24q-6-.06-12.09-.06A27.91,27.91,0,0,1,929.28,1084.33ZM873.61,721.86a27.88,27.88,0,0,1-27.88,27.84h-.06l-12.46-.06a27.91,27.91,0,0,1,.25-55.81h.24l12.09.09A27.86,27.86,0,0,1,873.61,721.86Zm400.29,534.69c-9.37,16.06-31,49-42.47,61.07-47.73,50.22-100.32,89.29-164.57,108.67a27.9,27.9,0,0,1-16.09-53.43c52.78-15.9,98.5-45.79,136-88.87,3.75-4.63,32-40.9,38.28-54.38,30-64,46.76-132.4,39-202.52-1.13-9-2.2-17.59-4.22-25.58l-.26-1.19c-10.68-52.21-29-94.43-57.84-132.92-16-20.24-33.93-38.48-56.27-57.34-38.08-30.6-83.15-50.16-134-58.16-23-2.6-45.54-2.48-69.41-2.32-6.53,0-13.26.08-20,.06a27.91,27.91,0,0,1,.08-55.81h.09c6.48,0,13.11,0,19.52-.06,24.64-.14,50.14-.3,76.66,2.76l1.11.17c60.94,9.46,115.18,33.06,161.18,70.11l.46.38c25.53,21.5,46,42.45,64.57,65.92l.42.55c33.47,44.6,55.69,95.29,68,154.91,2.74,11.1,4.05,21.64,5.32,31.81l.06.39C1328.56,1102.4,1315.4,1185.39,1273.9,1256.55Zm193.47-98.64a27.89,27.89,0,1,1-54.94-9.69c23.15-131.2-5.54-260.16-83-372.93-51.35-73.64-118.72-127.37-200.28-159.75a27.9,27.9,0,1,1,20.57-51.86c91.93,36.49,167.83,97,225.55,179.8l.1.16c42.85,62.38,72.43,129.83,88,200.47C1478.72,1014,1480.09,1085.94,1467.37,1157.91Z"/></svg>