<svg id="Layer_1" data-name="Layer 1" xmlns="http://www.w3.org/2000/svg" viewBox="0 0 1804.78 1805.1"><defs><style>.cls-1{fill:#ff2e29;}</style></defs><path class="cls-1" d="M1804.78,902.23a908.8,908.8,0,0,1-14.49,163.31c-28,155.58-96.64,296.34-193.27,413.27-165.24,199.06-415.2,326.29-694.15,326.29H206.79a186.91,186.91,0,0,1-23.19-1.93L627.79,1359a530.44,530.44,0,0,0,275.08,76.34c293.45,0,533.09-238.36,533.09-533.09S1197.6,369.14,902.87,369.14c-293.44,0-533.09,238.36-533.09,533.09,0,95.67,25.13,184.57,68.61,262.52L0,1603.14V206.79A206.41,206.41,0,0,1,206.79,0H902.87C1181.82,0,1432.1,127.56,1597,326.3c96.63,116,164.28,257.69,193.27,413.26C1799,791.42,1804.78,846.18,1804.78,902.23Z"/><path class="cls-1" d="M1166.68,902.23c0,145.91-118.86,264.45-264.45,264.45S637.78,1047.82,637.78,902.23,756.64,637.78,902.23,637.78A263.8,263.8,0,0,1,1166.68,902.23Z"/></svg>