<svg id="Layer_1" data-name="Layer 1" xmlns="http://www.w3.org/2000/svg" viewBox="0 0 1805.1 1805.1"><defs><style>.cls-1{fill:#ff2e29;}</style></defs><path class="cls-1" d="M1790.29,738.92a898.69,898.69,0,0,0-193-412.62C1431.78,126.91,1182.14,0,902.55,0H206.47C92.45,0,0,92.45,0,206.47V1598.63c0,114,92.45,206.47,206.47,206.47H902.55c279.59,0,529.23-126.91,694.79-326.29,96.63-116.61,164.6-257.69,193-412.63a911.34,911.34,0,0,0,0-327.26Zm-550.81,543.72L928.64,1595.41c-9.66,9.66-26.09,2.9-26.09-10.63V1478.16H900c-227.41-1-423.89-134-516.66-326.3a568.73,568.73,0,0,1-33.18-86.32,581.81,581.81,0,0,1-23.51-163.31,570.4,570.4,0,0,1,23.51-163.31c4.51-15.14,9.67-30.28,15.14-44.77,5.48-13.85,25.13-13.21,29.64,1,4.83,14.82,10.3,29.64,16.1,43.81A541,541,0,0,0,518.6,902.23c96.95,100.5,232.88,163.31,383.63,163.31V958.92c0-13.53,16.43-20.29,26.09-10.63l310.83,313.09C1245.28,1266.86,1245.28,1276.52,1239.48,1282.64ZM1455,1065.54c-4.51,15.14-9.66,30.28-15.14,44.77-5.48,13.85-25.12,13.21-29.63-1-4.84-14.82-10.31-29.64-16.11-43.81a541.13,541.13,0,0,0-107.58-163.31c-97-100.5-232.89-163.31-383.64-163.31V845.54c0,13.53-16.42,20.29-26.09,10.63L566,543.08a15.56,15.56,0,0,1,0-21.58L876.78,208.4c9.67-9.66,26.09-2.89,26.09,10.63V326.3h2.58c227.41,1,423.9,134,516.66,326.29a569.25,569.25,0,0,1,33.18,86.33,575,575,0,0,1-.32,326.62Z"/></svg>