<svg width="512" height="512" viewBox="0 0 512 512" fill="none" xmlns="http://www.w3.org/2000/svg">
<rect width="512" height="512" fill="white"/>
<path d="M0 113.871C0 91.1795 28.8046 80.3825 44.5449 97.1852L237.052 302.577C239.495 305.146 242.435 307.191 245.692 308.589C248.949 309.986 252.456 310.707 256 310.707C259.544 310.707 263.051 309.986 266.308 308.589C269.565 307.191 272.505 305.146 274.948 302.577L467.455 97.1852C483.195 80.3825 512 91.1961 512 113.888V372.449C512 399.882 489.063 422.108 460.807 422.108H51.1933C22.9373 422.092 0 399.866 0 372.432V113.871Z" fill="url(#paint0_linear_1_15271)"/>
<defs>
<linearGradient id="paint0_linear_1_15271" x1="256" y1="89" x2="256" y2="422.108" gradientUnits="userSpaceOnUse">
<stop stop-color="#678CE1"/>
<stop offset="1" stop-color="#76BEE3"/>
</linearGradient>
</defs>
</svg>
