<svg width="512" height="512" viewBox="0 0 40 40" version="1.1"
  xmlns="http://www.w3.org/2000/svg">
  <g id="Brand" stroke="none" stroke-width="1" fill="none" fill-rule="evenodd">
    <g id="Logo" transform="translate(-80.000000, -617.000000)" fill="#12141E">
      <g id="Symbol" transform="translate(80.000000, 409.000000)">
        <g id="Logo" transform="translate(0.000000, 208.000000)">
          <path d="M30.9470736,23.6488379 L23.6491179,23.6488379 L23.6491179,16.3508821 L16.3508821,16.3508821 L16.3508821,9.05264632 L30.9470736,9.05264632 L30.9470736,23.6488379 Z M9.05292635,30.9467936 L16.3508821,30.9467936 L16.3508821,23.6488379 L9.05292635,23.6488379 L9.05292635,30.9467936 Z M0,4.37160459 L0,35.6283954 C0,38.0425651 1.95715486,40 4.37160459,40 L35.6283954,40 C38.0428451,40 40,38.0425651 40,35.6283954 L40,4.37160459 C40,1.95715486 38.0428451,0 35.6283954,0 L4.37160459,0 C1.95715486,0 0,1.95715486 0,4.37160459 L0,4.37160459 Z" id="Fill-12"></path>
        </g>
      </g>
    </g>
  </g>
</svg>
