<svg width="512" height="512" viewBox="0 0 512 512" fill="none" xmlns="http://www.w3.org/2000/svg">
<g clip-path="url(#clip0_1_15286)">
<rect width="512" height="512" fill="white"/>
<g clip-path="url(#clip1_1_15286)">
<mask id="mask0_1_15286" style="mask-type:luminance" maskUnits="userSpaceOnUse" x="0" y="0" width="512" height="512">
<path d="M512 0H0V512H512V0Z" fill="white"/>
</mask>
<g mask="url(#mask0_1_15286)">
<path d="M106.667 49.0667L503.467 320L405.333 465.067L8.53333 192L106.667 49.0667Z" fill="url(#paint0_linear_1_15286)"/>
<path d="M503.467 320C469.333 369.067 354.133 349.867 245.333 273.067C134.4 198.4 74.6667 98.1333 106.667 49.0667C140.8 -6.58616e-07 256 19.2 364.8 96C475.733 168.533 535.467 270.933 503.467 320Z" fill="url(#paint1_linear_1_15286)"/>
<path d="M405.333 462.933C371.2 512 256 492.8 147.2 416C38.4 339.2 -23.4667 241.067 10.6667 189.867C44.8 140.8 160 160 268.8 236.8C377.6 313.6 437.333 413.867 405.333 462.933Z" fill="url(#paint2_linear_1_15286)"/>
<path d="M503.467 320L405.333 465.067C371.2 514.133 256 492.8 147.2 418.133C125.867 403.2 106.667 388.267 87.4667 371.2C102.4 369.067 121.6 360.533 140.8 339.2C174.933 302.933 192 294.4 206.933 296.533C221.867 296.533 238.933 311.467 266.667 347.733C294.4 384 332.8 394.667 356.267 375.467C358.4 373.333 360.533 373.333 362.667 371.2C381.867 356.267 388.267 349.867 424.533 281.6C433.067 264.533 462.933 236.8 503.467 249.6C514.133 277.333 514.133 300.8 503.467 320Z" fill="#0E0F23"/>
<path fill-rule="evenodd" clip-rule="evenodd" d="M488.533 311.467C458.667 354.133 354.133 332.8 253.867 262.4C151.467 192 91.7333 102.4 121.6 59.7333C151.467 17.0667 256 38.4 356.267 108.8C456.533 179.2 516.267 268.8 488.533 311.467ZM394.667 247.467C379.733 268.8 328.533 258.133 277.333 224C228.267 189.867 198.4 145.067 213.333 123.733C228.267 102.4 279.467 113.067 330.667 147.2C379.733 181.333 409.6 226.133 394.667 247.467Z" fill="white"/>
<path d="M98.1333 98.1333C98.1333 96 96 93.8667 93.8666 96C91.7333 98.1333 89.6 98.1333 89.6 100.267C91.7333 106.667 93.8666 110.933 93.8666 115.2C93.8666 117.333 96 119.467 98.1333 117.333C100.267 117.333 102.4 115.2 100.267 113.067C100.267 108.8 100.267 104.533 98.1333 98.1333Z" fill="white"/>
<path d="M108.8 132.267C108.8 130.133 106.667 128 104.533 130.133C102.4 132.267 102.4 132.267 102.4 134.4C125.867 187.733 174.933 245.333 238.933 288C241.067 290.133 243.2 288 245.333 288C247.467 285.867 245.333 283.733 245.333 281.6C179.2 238.933 132.267 183.467 108.8 132.267Z" fill="white"/>
<path d="M366.933 341.333C364.8 341.333 362.667 341.333 362.667 343.467C362.667 345.6 362.667 347.733 364.8 347.733C371.2 349.867 379.733 352 386.133 354.133C388.267 354.133 390.4 354.133 390.4 352C390.4 349.867 390.4 347.733 388.267 347.733C381.867 345.6 373.333 343.467 366.933 341.333Z" fill="white"/>
<path d="M405.333 349.867C403.2 349.867 401.067 352 401.067 354.133C401.067 356.267 403.2 358.4 405.333 358.4C422.4 360.533 441.6 362.667 456.533 360.533C458.667 360.533 460.8 358.4 460.8 356.267C460.8 354.133 458.667 352 456.533 352C439.467 354.133 422.4 352 405.333 349.867Z" fill="white"/>
</g>
</g>
</g>
<defs>
<linearGradient id="paint0_linear_1_15286" x1="184.41" y1="10.5451" x2="263.1" y2="280.757" gradientUnits="userSpaceOnUse">
<stop stop-color="#03B8FF"/>
<stop offset="1" stop-color="#FA52A0"/>
</linearGradient>
<linearGradient id="paint1_linear_1_15286" x1="249.212" y1="-8.32854" x2="327.904" y2="261.886" gradientUnits="userSpaceOnUse">
<stop stop-color="#03B8FF"/>
<stop offset="1" stop-color="#FA52A0"/>
</linearGradient>
<linearGradient id="paint2_linear_1_15286" x1="119.808" y1="29.3568" x2="198.5" y2="299.571" gradientUnits="userSpaceOnUse">
<stop stop-color="#03B8FF"/>
<stop offset="1" stop-color="#FA52A0"/>
</linearGradient>
<clipPath id="clip0_1_15286">
<rect width="512" height="512" fill="white"/>
</clipPath>
<clipPath id="clip1_1_15286">
<rect width="512" height="512" fill="white"/>
</clipPath>
</defs>
</svg>
