<svg width="512" height="512" viewBox="0 0 512 512" fill="none" xmlns="http://www.w3.org/2000/svg">
<rect width="512" height="512" fill="white"/>
<path d="M512 58C512 199.382 397.382 314 256 314C114.618 314 0 199.382 0 58H128C128 128.691 185.309 186 256 186C326.691 186 384 128.691 384 58H512Z" fill="#FFAA46"/>
<path d="M512 449.529C512 308.147 397.382 193.529 256 193.529C114.618 193.529 0 308.147 0 449.529H128C128 378.838 185.309 321.529 256 321.529C326.691 321.529 384 378.838 384 449.529H512Z" fill="#EE5A3F"/>
<path d="M90 253.759C134.148 216.278 192.132 193.529 255.644 193.529C319.155 193.529 377.139 216.278 421.287 253.759C377.139 291.263 319.155 314 255.644 314C192.132 314 134.148 291.251 90 253.759Z" fill="#7F38A9"/>
</svg>
