<svg xmlns="http://www.w3.org/2000/svg" fill="none" viewBox="0 0 24 24">
  <path fill="rgba(16, 17, 18, 0.8)" d="m7.878 2.767-.786 3.506-3.682 7.721L3 8.646l4.878-5.88Z"/>
  <path stroke="rgba(16, 17, 18, 0.8)" stroke-width="1.159" d="m16.441 9.46-2.617 5.672-5.268-8.938.416-2.53 7.47 5.795ZM19.38 16.16l-3.786-.177 2.971-5.87 1.738-.46-.922 6.506ZM11.823 15.717 4.82 14.423l2.665-5.366 4.34 6.66Z"/>
  <path fill="rgba(16, 17, 18, 0.8)" d="m19.759 17.675-5.608-.062-3.47 3.563 9.078-3.5Z"/>
  <path stroke="rgba(16, 17, 18, 0.8)" stroke-width="1.159" d="m11.75 17.757-3.104 2.961-3.358-4.158 6.462 1.197Z"/>
  <path fill="rgba(16, 17, 18, 0.8)" d="m9.831 2.61 8.228 5.869 2.722-.51-10.95-5.36Z"/>
</svg>
