<svg xmlns="http://www.w3.org/2000/svg" fill="none" viewBox="0 0 20 20">
  <path fill="rgba(16, 17, 18, 0.8)" d="m5.878.757-.786 3.506-3.682 7.721L1 6.636 5.878.756Z"/>
  <path stroke="rgba(16, 17, 18, 0.8)" stroke-width="1.159" d="m14.441 7.45-2.617 5.672-5.268-8.938.416-2.53 7.47 5.796ZM17.381 14.15l-3.787-.176 2.972-5.87 1.737-.46-.922 6.505ZM9.823 13.707 2.82 12.414l2.665-5.367 4.34 6.66Z"/>
  <path fill="rgba(16, 17, 18, 0.8)" d="m17.759 15.665-5.608-.062-3.47 3.563 9.078-3.501Z"/>
  <path stroke="rgba(16, 17, 18, 0.8)" stroke-width="1.159" d="m9.75 15.747-3.103 2.961-3.359-4.158 6.462 1.197Z"/>
  <path fill="rgba(16, 17, 18, 0.8)" d="m7.83.6 8.228 5.87 2.723-.512L7.83.6Z"/>
</svg>
