<svg xmlns="http://www.w3.org/2000/svg" fill="none" viewBox="0 0 24 25">
  <path stroke="#A0AEC0" stroke-width="1.2" d="M12 3.6a8.4 8.4 0 1 1 0 16.801A8.4 8.4 0 0 1 12 3.6Z"/>
  <path stroke="#A0AEC0" stroke-width="1.2" d="M12 3.6a8.4 8.4 0 1 1 0 16.801A8.4 8.4 0 0 1 12 3.6Z"/>
  <path stroke="#A0AEC0" stroke-width=".533" d="M17.422 11.382a14.693 14.693 0 0 0-1.08-2.906.197.197 0 0 0-.067-.072 8.165 8.165 0 0 0-1.427-.673c-.921-.334-1.356-.34-1.374-.34a.187.187 0 0 0-.187.16l-.057.391a12.482 12.482 0 0 0-2.463 0l-.056-.39a.188.188 0 0 0-.188-.162c-.018 0-.453 0-1.373.339a8.163 8.163 0 0 0-1.424.675.197.197 0 0 0-.067.072 14.694 14.694 0 0 0-1.08 2.906c-.484 1.957-.578 2.937-.578 2.977a.187.187 0 0 0 .046.14c.482.51 1.062.917 1.706 1.195a7.155 7.155 0 0 0 1.855.508.187.187 0 0 0 .18-.093l.506-.868a9.843 9.843 0 0 0 1.707.14 9.855 9.855 0 0 0 1.706-.141l.506.869a.187.187 0 0 0 .161.093h.019a7.153 7.153 0 0 0 1.854-.504 5.174 5.174 0 0 0 1.706-1.194.186.186 0 0 0 .046-.14c.001-.045-.088-1.025-.577-2.982Zm-1.318 3.966a7.197 7.197 0 0 1-1.63.461l-.383-.656c.439-.116 1.352-.418 2.046-1.05a.19.19 0 0 0 .063-.13.187.187 0 0 0-.107-.18.187.187 0 0 0-.208.03c-.83.758-2.064 1.007-2.117 1.018h-.007c-.58.113-1.17.168-1.76.165a9.05 9.05 0 0 1-1.761-.16h-.006c-.013 0-1.27-.247-2.118-1.018a.189.189 0 1 0-.253.281c.695.632 1.608.938 2.047 1.05l-.383.656a7.134 7.134 0 0 1-1.63-.461 4.897 4.897 0 0 1-1.514-1.045c.031-.273.158-1.225.563-2.835.246-.959.59-1.89 1.023-2.779a8.265 8.265 0 0 1 1.313-.611 5.75 5.75 0 0 1 1.085-.3l.033.225c-.375.094-1.298.362-2.03.893a.187.187 0 1 0 .222.303c.82-.596 1.95-.845 2.047-.866l.002-.001c.451-.054.905-.08 1.36-.079.454-.002.908.025 1.36.079.085.018 1.218.265 2.049.867a.187.187 0 1 0 .221-.303c-.731-.531-1.65-.798-2.03-.893l.033-.224c.37.064.734.164 1.085.299.455.165.894.37 1.313.611.436.89.782 1.82 1.03 2.779.403 1.61.53 2.562.563 2.835-.437.44-.953.792-1.521 1.04Zm-5.863-4.19c-.578 0-1.047.526-1.047 1.17 0 .646.468 1.17 1.047 1.17.578 0 1.046-.524 1.046-1.17 0-.644-.47-1.17-1.046-1.17Zm0 1.97c-.375 0-.672-.357-.672-.794 0-.438.3-.795.672-.795.371 0 .671.356.671.795 0 .438-.3.789-.671.789v.005Zm2.473-.8c0-.644.47-1.17 1.046-1.17.578 0 1.047.526 1.047 1.17 0 .646-.47 1.17-1.047 1.17s-1.046-.524-1.046-1.17Zm.375.006c0 .437.296.793.671.793v-.004c.371 0 .672-.35.672-.79 0-.438-.302-.794-.672-.794-.37 0-.671.357-.671.795Z" clip-rule="evenodd"/>
  <path stroke="#A0AEC0" stroke-width=".533" d="M17.422 11.382a14.693 14.693 0 0 0-1.08-2.906.197.197 0 0 0-.067-.072 8.165 8.165 0 0 0-1.427-.673c-.921-.334-1.356-.34-1.374-.34a.187.187 0 0 0-.187.16l-.057.391a12.482 12.482 0 0 0-2.463 0l-.056-.39a.188.188 0 0 0-.188-.162c-.018 0-.453 0-1.373.339a8.163 8.163 0 0 0-1.424.675.197.197 0 0 0-.067.072 14.694 14.694 0 0 0-1.08 2.906c-.484 1.957-.578 2.937-.578 2.977a.187.187 0 0 0 .046.14c.482.51 1.062.917 1.706 1.195a7.155 7.155 0 0 0 1.855.508.187.187 0 0 0 .18-.093l.506-.868a9.843 9.843 0 0 0 1.707.14 9.855 9.855 0 0 0 1.706-.141l.506.869a.187.187 0 0 0 .161.093h.019a7.153 7.153 0 0 0 1.854-.504 5.174 5.174 0 0 0 1.706-1.194.186.186 0 0 0 .046-.14c.001-.045-.088-1.025-.577-2.982Zm-1.318 3.966a7.197 7.197 0 0 1-1.63.461l-.383-.656c.439-.116 1.352-.418 2.046-1.05a.19.19 0 0 0 .063-.13.187.187 0 0 0-.107-.18.187.187 0 0 0-.208.03c-.83.758-2.064 1.007-2.117 1.018h-.007c-.58.113-1.17.168-1.76.165a9.05 9.05 0 0 1-1.761-.16h-.006c-.013 0-1.27-.247-2.118-1.018a.189.189 0 1 0-.253.281c.695.632 1.608.938 2.047 1.05l-.383.656a7.134 7.134 0 0 1-1.63-.461 4.897 4.897 0 0 1-1.514-1.045c.031-.273.158-1.225.563-2.835.246-.959.59-1.89 1.023-2.779a8.265 8.265 0 0 1 1.313-.611 5.75 5.75 0 0 1 1.085-.3l.033.225c-.375.094-1.298.362-2.03.893a.187.187 0 1 0 .222.303c.82-.596 1.95-.845 2.047-.866l.002-.001c.451-.054.905-.08 1.36-.079.454-.002.908.025 1.36.079.085.018 1.218.265 2.049.867a.187.187 0 1 0 .221-.303c-.731-.531-1.65-.798-2.03-.893l.033-.224c.37.064.734.164 1.085.299.455.165.894.37 1.313.611.436.89.782 1.82 1.03 2.779.403 1.61.53 2.562.563 2.835-.437.44-.953.792-1.521 1.04Zm-5.863-4.19c-.578 0-1.047.526-1.047 1.17 0 .646.468 1.17 1.047 1.17.578 0 1.046-.524 1.046-1.17 0-.644-.47-1.17-1.046-1.17Zm0 1.97c-.375 0-.672-.357-.672-.794 0-.438.3-.795.672-.795.371 0 .671.356.671.795 0 .438-.3.789-.671.789v.005Zm2.473-.8c0-.644.47-1.17 1.046-1.17.578 0 1.047.526 1.047 1.17 0 .646-.47 1.17-1.047 1.17s-1.046-.524-1.046-1.17Zm.375.006c0 .437.296.793.671.793v-.004c.371 0 .672-.35.672-.79 0-.438-.302-.794-.672-.794-.37 0-.671.357-.671.795Z" clip-rule="evenodd"/>
</svg>
