<svg width="24" height="25" viewBox="0 0 24 25" fill="none" xmlns="http://www.w3.org/2000/svg">
<path d="M12 3.59998C16.6392 3.59998 20.4004 7.36117 20.4004 12.0004C20.4004 16.6396 16.6392 20.4008 12 20.4008C7.36081 20.4008 3.59961 16.6396 3.59961 12.0004C3.59961 7.36117 7.36081 3.59998 12 3.59998Z" stroke="#4A5568" stroke-width="1.2"/>
<path d="M12 3.59998C16.6392 3.59998 20.4004 7.36117 20.4004 12.0004C20.4004 16.6396 16.6392 20.4008 12 20.4008C7.36081 20.4008 3.59961 16.6396 3.59961 12.0004C3.59961 7.36117 7.36081 3.59998 12 3.59998Z" stroke="black" stroke-opacity="0.2" stroke-width="1.2"/>
<path fill-rule="evenodd" clip-rule="evenodd" d="M17.4218 11.3819C17.1653 10.3779 16.8033 9.40376 16.3418 8.47584C16.3261 8.44655 16.3032 8.42171 16.2753 8.40366C15.8222 8.13403 15.344 7.90892 14.8475 7.7315C13.9269 7.39683 13.4919 7.39027 13.4741 7.39027C13.4287 7.38982 13.3845 7.40593 13.3501 7.4356C13.3155 7.46527 13.293 7.50646 13.2867 7.55151L13.2304 7.94243C12.4112 7.86119 11.586 7.86119 10.7668 7.94243L10.7105 7.55151C10.7041 7.50646 10.6816 7.46527 10.6471 7.4356C10.6126 7.40593 10.5685 7.38982 10.523 7.39027C10.5052 7.39027 10.0702 7.39027 9.14967 7.72869C8.65435 7.90723 8.17746 8.13327 7.72567 8.40366C7.69775 8.42171 7.67485 8.44655 7.65911 8.47584C7.19765 9.40375 6.83565 10.3779 6.57917 11.3819C6.0945 13.3393 6.00075 14.319 6.00075 14.3593C5.99847 14.3847 6.00137 14.4102 6.00927 14.4343C6.01717 14.4585 6.0299 14.4809 6.04669 14.4999C6.5286 15.0095 7.10907 15.4159 7.75286 15.6943C8.34558 15.9463 8.96962 16.1173 9.60808 16.2023C9.64392 16.2057 9.67994 16.1985 9.71186 16.1819C9.74377 16.1653 9.77023 16.1399 9.78807 16.1086L10.2943 15.2415C10.8579 15.3375 11.4288 15.3842 12.0005 15.3811C12.5722 15.3835 13.1431 15.3362 13.7067 15.2396L14.2129 16.1086C14.2292 16.1369 14.2527 16.1605 14.281 16.1769C14.3093 16.1934 14.3414 16.2021 14.3741 16.2023H14.3929C15.0308 16.1184 15.6545 15.9487 16.2471 15.698C16.8909 15.4197 17.4714 15.0133 17.9533 14.5037C17.9701 14.4846 17.9829 14.4623 17.9907 14.4381C17.9986 14.4139 18.0015 14.3884 17.9993 14.3631C18.0002 14.319 17.9111 13.3393 17.4218 11.3819ZM16.1037 15.3483C15.5803 15.5657 15.0331 15.7205 14.4735 15.8095L14.091 15.1533C14.5297 15.0371 15.4428 14.7353 16.1375 14.1034C16.1559 14.0869 16.1709 14.0668 16.1817 14.0445C16.1924 14.0221 16.1986 13.9978 16.1999 13.9731C16.2013 13.9483 16.1978 13.9235 16.1895 13.9001C16.1813 13.8767 16.1685 13.8551 16.152 13.8367C16.1354 13.8182 16.1154 13.8032 16.0931 13.7925C16.0707 13.7817 16.0464 13.7755 16.0217 13.7742C15.9969 13.7729 15.9721 13.7764 15.9487 13.7846C15.9253 13.7929 15.9037 13.8056 15.8853 13.8221C15.0553 14.5811 13.8207 14.8303 13.7683 14.8409L13.7667 14.8412H13.761C13.1809 14.9535 12.5913 15.0087 12.0005 15.0061C11.4098 15.0106 10.8202 14.9572 10.2399 14.8468H10.2343C10.2212 14.8468 8.96405 14.5993 8.11565 13.8278C8.07836 13.7943 8.02931 13.7771 7.97929 13.7798C7.92927 13.7825 7.88239 13.805 7.84895 13.8423C7.81551 13.8796 7.79825 13.9287 7.80098 13.9787C7.8037 14.0287 7.82619 14.0756 7.86348 14.109C8.55813 14.7409 9.47121 15.0465 9.90994 15.1589L9.52746 15.8152C8.96765 15.7267 8.42038 15.5719 7.89723 15.3539C7.33106 15.1043 6.81733 14.7496 6.38324 14.3087C6.41417 14.0359 6.54073 13.0835 6.94571 11.4738C7.19221 10.5154 7.53519 9.58445 7.96941 8.69521C8.38817 8.45347 8.82733 8.24895 9.28184 8.08399C9.63305 7.94903 9.99665 7.84887 10.3674 7.78494L10.4002 8.00899C10.0253 8.10273 9.10186 8.37085 8.37064 8.90239C8.35076 8.91691 8.33393 8.93521 8.32113 8.95624C8.30831 8.97727 8.29977 9.00062 8.29599 9.02495C8.28834 9.07409 8.30053 9.12425 8.32986 9.1644C8.3592 9.20455 8.40329 9.23141 8.45243 9.23906C8.47676 9.24285 8.50159 9.2418 8.52552 9.23599C8.54945 9.23018 8.572 9.21971 8.59188 9.20518C9.41198 8.60917 10.542 8.35992 10.639 8.33852L10.6412 8.33803C11.0922 8.28399 11.5462 8.25769 12.0005 8.25929C12.4551 8.25748 12.9093 8.28377 13.3607 8.33803C13.446 8.35585 14.5794 8.60333 15.41 9.20518C15.4501 9.23452 15.5003 9.24671 15.5495 9.23906C15.5986 9.23141 15.6427 9.20455 15.672 9.1644C15.7013 9.12425 15.7135 9.07409 15.7059 9.02495C15.6983 8.97581 15.6714 8.93172 15.6312 8.90239C14.9 8.37085 13.9804 8.10367 13.6017 8.00899L13.6345 7.78494C14.0049 7.84917 14.3681 7.94932 14.7191 8.08399C15.1736 8.24895 15.6128 8.45347 16.0315 8.69521C16.4683 9.58417 16.8138 10.5151 17.0627 11.4738C17.4649 13.0835 17.5915 14.0359 17.6252 14.3087C17.1884 14.7484 16.6721 15.1012 16.1037 15.3483ZM10.2409 11.1589C9.66339 11.1589 9.19372 11.6839 9.19372 12.3289C9.19372 12.9738 9.66245 13.4979 10.2409 13.4979C10.8193 13.4979 11.2871 12.9738 11.2871 12.3289C11.2871 11.6839 10.8174 11.1589 10.2409 11.1589ZM10.2409 13.1275C9.86588 13.1275 9.56871 12.7713 9.56871 12.3335C9.56871 11.8957 9.86963 11.5385 10.2409 11.5385C10.6121 11.5385 10.9121 11.8948 10.9121 12.3335C10.9121 12.7723 10.6112 13.1229 10.2409 13.1229V13.1275ZM12.7139 12.3289C12.7139 11.6839 13.1835 11.1589 13.7601 11.1589C14.3375 11.1589 14.8072 11.6839 14.8072 12.3289C14.8072 12.9738 14.3375 13.4979 13.7601 13.4979C13.1826 13.4979 12.7139 12.9738 12.7139 12.3289ZM13.0889 12.3335C13.0889 12.7713 13.3851 13.1275 13.7601 13.1275V13.1229C14.1313 13.1229 14.4322 12.7723 14.4322 12.3335C14.4322 11.8948 14.1304 11.5385 13.7601 11.5385C13.3898 11.5385 13.0889 11.8957 13.0889 12.3335Z" stroke="#4A5568" stroke-width="0.533333"/>
<path fill-rule="evenodd" clip-rule="evenodd" d="M17.4218 11.3819C17.1653 10.3779 16.8033 9.40376 16.3418 8.47584C16.3261 8.44655 16.3032 8.42171 16.2753 8.40366C15.8222 8.13403 15.344 7.90892 14.8475 7.7315C13.9269 7.39683 13.4919 7.39027 13.4741 7.39027C13.4287 7.38982 13.3845 7.40593 13.3501 7.4356C13.3155 7.46527 13.293 7.50646 13.2867 7.55151L13.2304 7.94243C12.4112 7.86119 11.586 7.86119 10.7668 7.94243L10.7105 7.55151C10.7041 7.50646 10.6816 7.46527 10.6471 7.4356C10.6126 7.40593 10.5685 7.38982 10.523 7.39027C10.5052 7.39027 10.0702 7.39027 9.14967 7.72869C8.65435 7.90723 8.17746 8.13327 7.72567 8.40366C7.69775 8.42171 7.67485 8.44655 7.65911 8.47584C7.19765 9.40375 6.83565 10.3779 6.57917 11.3819C6.0945 13.3393 6.00075 14.319 6.00075 14.3593C5.99847 14.3847 6.00137 14.4102 6.00927 14.4343C6.01717 14.4585 6.0299 14.4809 6.04669 14.4999C6.5286 15.0095 7.10907 15.4159 7.75286 15.6943C8.34558 15.9463 8.96962 16.1173 9.60808 16.2023C9.64392 16.2057 9.67994 16.1985 9.71186 16.1819C9.74377 16.1653 9.77023 16.1399 9.78807 16.1086L10.2943 15.2415C10.8579 15.3375 11.4288 15.3842 12.0005 15.3811C12.5722 15.3835 13.1431 15.3362 13.7067 15.2396L14.2129 16.1086C14.2292 16.1369 14.2527 16.1605 14.281 16.1769C14.3093 16.1934 14.3414 16.2021 14.3741 16.2023H14.3929C15.0308 16.1184 15.6545 15.9487 16.2471 15.698C16.8909 15.4197 17.4714 15.0133 17.9533 14.5037C17.9701 14.4846 17.9829 14.4623 17.9907 14.4381C17.9986 14.4139 18.0015 14.3884 17.9993 14.3631C18.0002 14.319 17.9111 13.3393 17.4218 11.3819ZM16.1037 15.3483C15.5803 15.5657 15.0331 15.7205 14.4735 15.8095L14.091 15.1533C14.5297 15.0371 15.4428 14.7353 16.1375 14.1034C16.1559 14.0869 16.1709 14.0668 16.1817 14.0445C16.1924 14.0221 16.1986 13.9978 16.1999 13.9731C16.2013 13.9483 16.1978 13.9235 16.1895 13.9001C16.1813 13.8767 16.1685 13.8551 16.152 13.8367C16.1354 13.8182 16.1154 13.8032 16.0931 13.7925C16.0707 13.7817 16.0464 13.7755 16.0217 13.7742C15.9969 13.7729 15.9721 13.7764 15.9487 13.7846C15.9253 13.7929 15.9037 13.8056 15.8853 13.8221C15.0553 14.5811 13.8207 14.8303 13.7683 14.8409L13.7667 14.8412H13.761C13.1809 14.9535 12.5913 15.0087 12.0005 15.0061C11.4098 15.0106 10.8202 14.9572 10.2399 14.8468H10.2343C10.2212 14.8468 8.96405 14.5993 8.11565 13.8278C8.07836 13.7943 8.02931 13.7771 7.97929 13.7798C7.92927 13.7825 7.88239 13.805 7.84895 13.8423C7.81551 13.8796 7.79825 13.9287 7.80098 13.9787C7.8037 14.0287 7.82619 14.0756 7.86348 14.109C8.55813 14.7409 9.47121 15.0465 9.90994 15.1589L9.52746 15.8152C8.96765 15.7267 8.42038 15.5719 7.89723 15.3539C7.33106 15.1043 6.81733 14.7496 6.38324 14.3087C6.41417 14.0359 6.54073 13.0835 6.94571 11.4738C7.19221 10.5154 7.53519 9.58445 7.96941 8.69521C8.38817 8.45347 8.82733 8.24895 9.28184 8.08399C9.63305 7.94903 9.99665 7.84887 10.3674 7.78494L10.4002 8.00899C10.0253 8.10273 9.10186 8.37085 8.37064 8.90239C8.35076 8.91691 8.33393 8.93521 8.32113 8.95624C8.30831 8.97727 8.29977 9.00062 8.29599 9.02495C8.28834 9.07409 8.30053 9.12425 8.32986 9.1644C8.3592 9.20455 8.40329 9.23141 8.45243 9.23906C8.47676 9.24285 8.50159 9.2418 8.52552 9.23599C8.54945 9.23018 8.572 9.21971 8.59188 9.20518C9.41198 8.60917 10.542 8.35992 10.639 8.33852L10.6412 8.33803C11.0922 8.28399 11.5462 8.25769 12.0005 8.25929C12.4551 8.25748 12.9093 8.28377 13.3607 8.33803C13.446 8.35585 14.5794 8.60333 15.41 9.20518C15.4501 9.23452 15.5003 9.24671 15.5495 9.23906C15.5986 9.23141 15.6427 9.20455 15.672 9.1644C15.7013 9.12425 15.7135 9.07409 15.7059 9.02495C15.6983 8.97581 15.6714 8.93172 15.6312 8.90239C14.9 8.37085 13.9804 8.10367 13.6017 8.00899L13.6345 7.78494C14.0049 7.84917 14.3681 7.94932 14.7191 8.08399C15.1736 8.24895 15.6128 8.45347 16.0315 8.69521C16.4683 9.58417 16.8138 10.5151 17.0627 11.4738C17.4649 13.0835 17.5915 14.0359 17.6252 14.3087C17.1884 14.7484 16.6721 15.1012 16.1037 15.3483ZM10.2409 11.1589C9.66339 11.1589 9.19372 11.6839 9.19372 12.3289C9.19372 12.9738 9.66245 13.4979 10.2409 13.4979C10.8193 13.4979 11.2871 12.9738 11.2871 12.3289C11.2871 11.6839 10.8174 11.1589 10.2409 11.1589ZM10.2409 13.1275C9.86588 13.1275 9.56871 12.7713 9.56871 12.3335C9.56871 11.8957 9.86963 11.5385 10.2409 11.5385C10.6121 11.5385 10.9121 11.8948 10.9121 12.3335C10.9121 12.7723 10.6112 13.1229 10.2409 13.1229V13.1275ZM12.7139 12.3289C12.7139 11.6839 13.1835 11.1589 13.7601 11.1589C14.3375 11.1589 14.8072 11.6839 14.8072 12.3289C14.8072 12.9738 14.3375 13.4979 13.7601 13.4979C13.1826 13.4979 12.7139 12.9738 12.7139 12.3289ZM13.0889 12.3335C13.0889 12.7713 13.3851 13.1275 13.7601 13.1275V13.1229C14.1313 13.1229 14.4322 12.7723 14.4322 12.3335C14.4322 11.8948 14.1304 11.5385 13.7601 11.5385C13.3898 11.5385 13.0889 11.8957 13.0889 12.3335Z" stroke="black" stroke-opacity="0.2" stroke-width="0.533333"/>
</svg>
