<svg xmlns="http://www.w3.org/2000/svg" fill="none" viewBox="0 0 20 21">
  <path fill="rgba(16, 17, 18, 0.8)" d="m18.015 4.747.265.163-.033 3.399-.237.162-2.317 1.577-.183.124 2.702 1.622.266.16v3.631l-.277.158-7.7 4.4-.301.172-.285-.198-2.3-1.6-.236-.165v-3.287l-2.76 1.541-.27.152L1.2 14.95v-.32l.018-9.167v-.349l.313-.148 2.533-1.198.26-.123 2.853 1.636.035-3.483.267-.157L10.28 0l7.736 4.747ZM8.957 18.11l1.302.906 6.582-3.762-1.418-.85-6.466 3.706Zm-.479-2.533v1.54l6.4-3.67v-1.71l-6.4 3.84Zm-5.611-.937 1.488.854 1.427-.796-1.49-.854-1.425.796Zm4.41-8.99.17 9.044.004.216.194-.116 7.671-4.604-.21-.122-7.655-4.477-.178-.104.004.162Zm8.701 7.803 1.4.84v-1.716l-1.4-.84v1.716Zm-11.132-.56 1.484.852-.146-7.763-1.336-.766-.002 7.678Zm-2.53-7.08-.014 7.882 1.443-.806.004-7.754-1.434.678Zm6.5-.698 6.544 3.827 1.31-.892-6.427-3.772-1.427.837Zm1.98-1.788 6.363 3.734.016-1.54-6.362-3.904-.017 1.71Zm-2.491-.893-.017 1.715 1.408-.826.018-1.717-1.41.828Z"/>
</svg>
