<svg xmlns="http://www.w3.org/2000/svg" fill="none" viewBox="0 0 24 24">
  <path stroke="#A0AEC0" stroke-width="1.1" d="m12.369 2.425-.03 3m.03-3L19.824 7l-.028 2.8m-7.427-7.375L9.854 3.9l-.03 3m2.515-1.475 7.457 4.374m-7.457-4.374L9.824 6.9m9.972 2.9-2.316 1.576L9.824 6.9M17.524 12.55v3m0-3-7.5 4.5v2.8m7.5-7.3 2.5 1.5v3m-2.5-1.5-7.5 4.3m7.5-4.3 2.5 1.5m-10 2.8 2.3 1.6 7.7-4.4M8.993 16.488l-2.602-1.493m2.602 1.493-.17-9.045L6.396 6.05m2.598 10.439L6.448 17.91l-2.602-1.494m2.545-1.421.004-8.946m-.004 8.946-2.545 1.421M6.395 6.05 3.863 7.248l-.017 9.168"/>
</svg>
