<svg xmlns="http://www.w3.org/2000/svg" fill="none" viewBox="0 0 24 24">
  <path fill="#A0AEC0" d="M3.32 16.173c1.221 1.435 4.921 2.97 9.66 2.97V22c-2.733 0-6.204-.835-7.282-1.85-.312-.29-1.78-2.282-2.379-3.977Zm17.797-.139-.233.57h-5.268l-.16.479h5.248l-.25.571h-5.201l-.183.48h5.206l-.227.578H14.87L13.718 22v-3.492l.806-2.281a.31.31 0 0 1 .284-.195l6.31.002ZM6.08 19.044c.088.117.163.212.22.282l.082.093.003.003c.144.136.438.323.914.525.46.196 1.028.38 1.663.538.951.238 2.012.406 3.02.477v-.842c-2.073-.091-3.936-.458-5.47-.976a15.2 15.2 0 0 1-.486-.174l.054.074Zm8.505-7.705c4.02.377 6.995 1.722 6.995 3.321 0 .175-.066.43-.135.597l-6.644-.018h-.003a1.104 1.104 0 0 0-1.01.693l-.006.015-.753 2.13c-.243.007-.489.01-.736.01C7.164 18.088 3 16.553 3 14.66c0-1.569 2.866-2.893 6.768-3.299.425.698.964 1.444 1.702 2.386l.354.476a.636.636 0 0 0 1.074-.083l.552-1.05a6.935 6.935 0 0 1 1.134-1.751Zm-2.976-.862c-.123.73.047 1.308.283 1.999.134.394.337.904.405 1.304-1.268-1.616-1.727-2.87-1.673-3.946l.985.643Zm4.008-1.891c-.076.336-.492 1.036-.797 1.4-.964 1.147-1.466 1.636-2.292 3.363a20.6 20.6 0 0 0-.141-.532c-.23-.83-.373-1.522-.097-2.119l3.327-2.112Zm-5.65.82c.017.349.232 1.273.426 1.762-.552-.704-1.156-1.784-1.329-2.35l.903.587Zm3.28-5.837.001.001c.664 1.378 1.13 2.345.347 3.672-.387.656-.67.982-.92 1.27-.28.325-.52.603-.82 1.248l-1.125-.6c.126-.464.345-.898.635-1.32.24-.35.466-.611.668-.845.68-.787 1.104-1.276.98-3.916.08.17.158.333.234.49Zm1.469 2.468c.476.88.863 1.5.922 2.025l-2.82 1.576c.026-.036.522-.532.827-.893.714-.847 1.167-1.548 1.07-2.708ZM12.295 2c.549 1.203.283 2.373-.323 3.45-.273.483-.576.83-.865 1.162-.339.39-.658.758-.888 1.3a3.084 3.084 0 0 0-.233.85L8.95 8.209c-.037-.526.106-1.01.413-1.478.206-.311.498-.648.82-1.018.83-.957 1.86-2.142 2.113-3.712Z"/>
</svg>
