<svg xmlns="http://www.w3.org/2000/svg" fill="none" viewBox="0 0 24 25">
  <path stroke="rgba(16, 17, 18, 0.8)" stroke-width="1.2" d="M12 3.6a8.4 8.4 0 1 1 0 16.801A8.4 8.4 0 0 1 12 3.6Z"/>
  <path stroke="rgba(16, 17, 18, 0.8)" stroke-width="1.2" d="M12 3.6a8.4 8.4 0 1 1 0 16.801A8.4 8.4 0 0 1 12 3.6Z"/>
  <path fill="rgba(16, 17, 18, 0.8)" fill-rule="evenodd" d="M9.374 9a3.374 3.374 0 1 1 0 6.748 3.374 3.374 0 0 1 0-6.748Zm8.031.533c.329 0 .595 1.272.595 2.841 0 1.57-.266 2.841-.595 2.841-.328 0-.595-1.272-.595-2.84 0-1.57.267-2.842.595-2.842Zm-2.632-.267c.943 0 1.707 1.392 1.707 3.108 0 1.717-.764 3.108-1.707 3.108-.943 0-1.707-1.391-1.707-3.108 0-1.716.764-3.108 1.707-3.108Z" clip-rule="evenodd"/>
  <path fill="rgba(16, 17, 18, 0.8)" fill-rule="evenodd" d="M9.374 9a3.374 3.374 0 1 1 0 6.748 3.374 3.374 0 0 1 0-6.748Zm8.031.533c.329 0 .595 1.272.595 2.841 0 1.57-.266 2.841-.595 2.841-.328 0-.595-1.272-.595-2.84 0-1.57.267-2.842.595-2.842Zm-2.632-.267c.943 0 1.707 1.392 1.707 3.108 0 1.717-.764 3.108-1.707 3.108-.943 0-1.707-1.391-1.707-3.108 0-1.716.764-3.108 1.707-3.108Z" clip-rule="evenodd"/>
</svg>
