<svg xmlns="http://www.w3.org/2000/svg" fill="none" viewBox="0 0 24 25">
  <path stroke="rgba(16, 17, 18, 0.8)" stroke-width="1.135" d="m7.402 14.951.283.165 1.171.68v.001l.84.486-.84.489-1.171.681-.828.48-2.29-1.33V7.969l2.835-1.646v8.628ZM14.572 5.15l1.17.68 1.101.639h.001l2.588 1.5v3.285l-3.12-1.805-.851-.493v.007l-.319-.185-1.692-.982-1.164-.677L12 6.954l-.285.165L9.71 8.283V4.986L12 3.656l2.571 1.493ZM19.43 13.948v2.657l-2.582 1.5-1.107.643-.06.035-1.111.643-.001.001-2.573 1.493-2.57-1.493-.253-.146.253-.147 2.87-1.667 1.167-.68.798-.465-.012-.008.89-.516 1.172-.68.282-.164v-2.647l2.836 1.64ZM14.336 10.99v2.699l-2.338 1.35-2.337-1.35v-2.698l2.337-1.35 2.338 1.349Z"/>
</svg>
