<svg xmlns="http://www.w3.org/2000/svg" fill="none" viewBox="0 0 24 24">
  <path fill="#A0AEC0" d="M10.7 22a.4.4 0 1 1 0 .801.4.4 0 0 1 0-.801Zm1.15 0a.4.4 0 1 1-.001.801.4.4 0 0 1 0-.801ZM13 22a.4.4 0 1 1 0 .801.4.4 0 0 1 0-.801Zm1.2 0a.4.4 0 1 1 0 .801.4.4 0 0 1 0-.801Zm-4.6-.1a.4.4 0 1 1 0 .8.4.4 0 0 1 0-.8Zm5.85-.05a.4.4 0 1 1-.001.8.4.4 0 0 1 .001-.8Zm-6.95-.1a.4.4 0 1 1 0 .801.4.4 0 0 1 0-.801Zm-1.1-.25a.4.4 0 1 1 0 .799.4.4 0 0 1 0-.799Zm9.3 0a.4.4 0 1 1-.001.8.4.4 0 0 1 .001-.8ZM6.43 21a.39.39 0 1 1 0 .78.39.39 0 0 1 0-.78Zm11.37-.3a.4.4 0 1 1 0 .8.4.4 0 0 1 0-.8Zm-12.1-.6a.4.4 0 1 1-.001.8.4.4 0 0 1 .001-.8Zm12.7-1a.5.5 0 1 1 0 1 .5.5 0 0 1 0-1Zm-13-.1a.4.4 0 1 1-.001.8.4.4 0 0 1 .001-.8Zm-.1-1.2a.4.4 0 1 1 0 .801.4.4 0 0 1 0-.801Zm13.4-.7a.5.5 0 1 1 0 1 .5.5 0 0 1 0-1Zm-13.4-.6a.4.4 0 1 1 0 .801.4.4 0 0 1 0-.801Zm13.4-1.2a.5.5 0 1 1 0 1 .5.5 0 0 1 0-1Zm-13.4-.1a.4.4 0 1 1 0 .8.4.4 0 0 1 0-.8Zm0-1.2a.4.4 0 1 1 0 .801.4.4 0 0 1 0-.801Zm13.4-.5a.5.5 0 1 1 0 1 .5.5 0 0 1 0-1Zm-13.4-.7a.4.4 0 1 1 0 .801.4.4 0 0 1 0-.801Zm13.4-1.1a.5.5 0 1 1 0 1 .5.5 0 0 1 0-1Zm-13.4-.1a.4.4 0 1 1 0 .801.4.4 0 0 1 0-.801Zm0-1.3a.4.4 0 1 1 0 .801.4.4 0 0 1 0-.801Zm13.4-.4a.5.5 0 1 1 0 1 .5.5 0 0 1 0-1ZM5.3 9a.4.4 0 1 1 0 .801.4.4 0 0 1 0-.801Zm13.4-.9a.5.5 0 1 1 0 1 .5.5 0 0 1 0-1ZM5.3 7.8a.4.4 0 1 1 0 .801.4.4 0 0 1 0-.801Zm0-1.2a.4.4 0 1 1 0 .801.4.4 0 0 1 0-.801Zm13.4-.3a.5.5 0 1 1 0 1 .5.5 0 0 1 0-1ZM5.4 5.4a.4.4 0 1 1 0 .799.4.4 0 0 1 0-.799Zm13.1-.9a.5.5 0 1 1 0 1 .5.5 0 0 1 0-1ZM5.8 4.3a.4.4 0 1 1 0 .801.4.4 0 0 1 0-.801Zm.9-1.2a.5.5 0 1 1 0 1 .5.5 0 0 1 0-1Zm10.8 0a.5.5 0 1 1 0 1 .5.5 0 0 1 0-1Zm-1.4-.8a.5.5 0 1 1 0 1 .5.5 0 0 1 0-1Zm-8-.1a.5.5 0 1 1 0 1 .5.5 0 0 1 0-1Zm1.6-.3a.5.5 0 1 1 0 1 .5.5 0 0 1 0-1Zm4.8 0a.5.5 0 1 1 0 1 .5.5 0 0 1 0-1Zm-3.2-.1a.5.5 0 1 1 0 1 .5.5 0 0 1 0-1Zm1.6 0a.5.5 0 1 1 0 1 .5.5 0 0 1 0-1Z"/>
  <circle cx="12" cy="5.4" r="1.3" fill="#A0AEC0"/>
  <path stroke="#A0AEC0" stroke-linecap="round" stroke-linejoin="round" d="M10.602 7v5.635s-.02.591.087.939c.153.492.416.775.874.939.324.116.55.116.874 0 .458-.164.722-.447.874-.94.108-.347.088-.938.088-.938V7"/>
</svg>
