<svg xmlns="http://www.w3.org/2000/svg" fill="none" viewBox="0 0 24 24">
  <path fill="#A0AEC0" d="M10.8 21.61a.5.5 0 0 1 .4.49l-.01.1a.502.502 0 0 1-.39.39l-.1.01a.5.5 0 0 1-.49-.4l-.01-.1c0-.277.223-.5.5-.5l.1.01Zm1.15 0a.5.5 0 0 1 0 .98l-.101.01a.5.5 0 0 1 0-1l.1.01Zm1.15 0a.5.5 0 0 1 0 .98l-.101.01a.499.499 0 1 1 0-1l.1.01Zm1.2 0a.5.5 0 0 1 .4.49l-.01.1a.502.502 0 0 1-.39.39l-.1.01a.5.5 0 0 1-.49-.4l-.01-.1c0-.277.223-.5.5-.5l.1.01Zm-4.7-.11c.275 0 .498.224.499.5l-.01.1a.5.5 0 0 1-.98 0L9.1 22a.5.5 0 0 1 .5-.5Zm5.85-.05a.5.5 0 0 1 .498.5l-.01.1a.5.5 0 0 1-.979 0l-.01-.1a.5.5 0 0 1 .5-.5Zm-6.85-.09a.5.5 0 0 1 0 .98l-.101.01a.499.499 0 1 1 0-1l.1.01Zm-1.2-.26c.275 0 .498.223.498.5l-.01.1a.5.5 0 0 1-.979 0l-.01-.1a.5.5 0 0 1 .5-.5Zm9.3 0a.5.5 0 1 1-.001.999.5.5 0 0 1 0-.999Zm-10.27-.5c.27 0 .489.219.489.49l-.01.098a.49.49 0 0 1-.96 0l-.01-.099c0-.27.22-.489.49-.489Zm11.47-.29a.5.5 0 0 1 .399.49l-.01.1a.502.502 0 0 1-.39.39l-.1.01a.5.5 0 0 1-.49-.4l-.01-.1c0-.277.224-.5.5-.5l.1.01ZM5.7 19.7a.5.5 0 1 1-.001.998.5.5 0 0 1 0-.998Zm12.7-1a.6.6 0 0 1 .599.6l-.012.12a.6.6 0 0 1-1.175 0l-.012-.12a.6.6 0 0 1 .6-.6Zm-13-.1a.5.5 0 1 1-.002 1 .5.5 0 0 1 .001-1Zm-.1-1.2a.5.5 0 1 1-.001 1 .5.5 0 0 1 0-1Zm13.4-.7a.6.6 0 0 1 .599.6l-.012.12a.6.6 0 0 1-1.176 0l-.011-.12a.6.6 0 0 1 .6-.6Zm-13.4-.6a.5.5 0 1 1-.001 1 .5.5 0 0 1 0-1Zm13.4-1.2a.6.6 0 1 1 0 1.198.6.6 0 0 1 0-1.198Zm-13.4-.1a.5.5 0 0 1 .499.5l-.01.1a.5.5 0 0 1-.98 0l-.01-.1a.5.5 0 0 1 .5-.5Zm8.098-8.6a.5.5 0 0 1 .5.5v5.65a4.403 4.403 0 0 1-.003.346 3.055 3.055 0 0 1-.107.725 1.995 1.995 0 0 1-.434.786c-.206.222-.46.373-.748.476-.198.07-.394.116-.606.116-.212 0-.41-.045-.606-.116a1.848 1.848 0 0 1-.748-.476 1.995 1.995 0 0 1-.435-.786 3.06 3.06 0 0 1-.107-.725 5.685 5.685 0 0 1-.003-.346V6.7a.5.5 0 1 1 1 0v5.671l-.001.063c0 .055 0 .132.004.218.008.184.028.365.062.474.06.193.132.315.211.4a.858.858 0 0 0 .354.216.789.789 0 0 0 .269.057.79.79 0 0 0 .268-.057.86.86 0 0 0 .354-.216c.079-.085.15-.207.211-.4.034-.11.054-.29.063-.474.003-.086.004-.163.003-.218V6.7a.5.5 0 0 1 .5-.5ZM5.3 13.6a.5.5 0 1 1-.001 1 .5.5 0 0 1 0-1Zm13.4-.5a.6.6 0 1 1 0 1.199.6.6 0 0 1 0-1.199Zm-13.4-.7a.5.5 0 1 1-.001 1 .5.5 0 0 1 0-1Zm13.4-1.1a.6.6 0 1 1 0 1.199.6.6 0 0 1 0-1.199Zm-13.4-.1a.5.5 0 1 1-.001.999.5.5 0 0 1 0-1Zm0-1.3a.5.5 0 1 1-.001 1 .5.5 0 0 1 0-1Zm13.4-.4a.6.6 0 0 1 .599.6l-.012.12a.6.6 0 0 1-1.176 0l-.011-.12a.6.6 0 0 1 .6-.6ZM5.3 8.6a.5.5 0 1 1-.001 1 .5.5 0 0 1 0-1Zm13.4-.9a.6.6 0 0 1 .599.6l-.012.12a.6.6 0 0 1-1.176 0L18.1 8.3a.6.6 0 0 1 .6-.6ZM5.3 7.4a.5.5 0 1 1-.001 1 .5.5 0 0 1 0-1Zm0-1.2a.5.5 0 0 1 .499.5l-.01.1a.5.5 0 0 1-.98 0l-.01-.1a.5.5 0 0 1 .5-.5Zm13.4-.3a.6.6 0 1 1 0 1.199.6.6 0 0 1 0-1.2Zm-6.701-2.1a1.3 1.3 0 1 1 0 2.6 1.3 1.3 0 0 1 0-2.6ZM5.399 5c.276 0 .5.224.5.5l-.01.1a.5.5 0 0 1-.98 0l-.01-.1a.5.5 0 0 1 .5-.5Zm13.221-.888a.6.6 0 0 1 0 1.176l-.121.011a.6.6 0 0 1 0-1.199l.121.012ZM5.9 3.91a.5.5 0 0 1 0 .98l-.101.009a.5.5 0 0 1 0-1l.1.01Zm.8-1.21a.6.6 0 0 1 .599.6l-.012.12a.6.6 0 0 1-1.176 0L6.1 3.3a.6.6 0 0 1 .6-.6Zm10.92.011a.6.6 0 0 1 .479.588l-.012.121a.601.601 0 0 1-.467.467L17.5 3.9a.6.6 0 0 1-.588-.479L16.9 3.3a.6.6 0 0 1 .6-.6l.121.011ZM16.1 1.9a.6.6 0 1 1 0 1.2.6.6 0 0 1 0-1.2Zm-8-.1a.6.6 0 1 1 0 1.2.6.6 0 0 1 0-1.2Zm1.6-.3a.6.6 0 1 1 0 1.2.6.6 0 0 1 0-1.2Zm4.92.012a.6.6 0 0 1 0 1.176L14.5 2.7a.6.6 0 0 1 0-1.2l.121.012Zm-3.2-.1a.6.6 0 0 1 .478.588l-.011.12a.6.6 0 0 1-.467.467l-.121.012a.6.6 0 0 1-.588-.478L10.699 2a.6.6 0 0 1 .6-.6l.12.012ZM12.9 1.4a.6.6 0 0 1 .599.6l-.012.12a.6.6 0 0 1-1.175 0L12.3 2a.6.6 0 0 1 .6-.6Z"/>
</svg>
