<svg xmlns="http://www.w3.org/2000/svg" fill="none" viewBox="0 0 20 20">
  <path fill="rgba(16, 17, 18, 0.8)" fill-rule="evenodd" d="M8.661 19.067a.472.472 0 0 1 .378.462l-.01.095a.474.474 0 0 1-.368.368l-.095.01a.473.473 0 0 1-.462-.378l-.01-.095c0-.26.212-.471.472-.471l.095.01Zm.99-.01c.26 0 .472.212.472.472l-.01.095a.473.473 0 0 1-.925 0l-.01-.095c.001-.26.213-.471.473-.471Zm1.18.01a.472.472 0 0 1 .377.462l-.01.095a.473.473 0 0 1-.367.368l-.095.01a.473.473 0 0 1-.462-.378l-.01-.095c.001-.26.212-.471.472-.471l.095.01Zm1.132 0a.472.472 0 0 1 .378.462l-.01.095a.474.474 0 0 1-.368.368l-.095.01a.473.473 0 0 1-.462-.378l-.01-.095c0-.26.212-.471.472-.471l.095.01Zm-4.34-.094a.473.473 0 0 1 0 .925l-.095.01a.473.473 0 0 1 0-.945l.095.01Zm5.425-.057c.26 0 .471.212.472.472l-.01.094a.473.473 0 0 1-.925 0l-.01-.094c0-.26.213-.472.473-.472Zm-6.557-.095a.473.473 0 1 1-.002.946.473.473 0 0 1 .002-.946Zm7.83-.225a.473.473 0 0 1 .378.462l-.01.094a.474.474 0 0 1-.368.368l-.094.01a.473.473 0 0 1-.462-.378l-.01-.094c0-.26.211-.472.472-.472l.094.01Zm-8.773 0a.472.472 0 0 1 .377.462l-.01.094a.471.471 0 0 1-.367.367l-.095.01a.472.472 0 0 1-.462-.377l-.01-.094c0-.26.212-.472.472-.472l.095.01Zm-1.01-.482c.255 0 .463.207.463.462l-.01.093a.463.463 0 0 1-.906 0l-.01-.093c0-.255.208-.462.463-.462Zm10.727-.283c.26 0 .471.211.471.472l-.01.095a.472.472 0 0 1-.923 0l-.01-.095c0-.26.211-.472.472-.472Zm-11.322-.557a.473.473 0 0 1 0 .925l-.094.01a.473.473 0 0 1 0-.944l.094.01Zm11.888-.953c.313 0 .566.254.567.567l-.012.114a.567.567 0 0 1-1.11 0l-.011-.114c0-.313.254-.567.566-.567Zm-12.265-.094c.26 0 .472.212.472.472l-.01.095a.472.472 0 0 1-.924 0l-.01-.095c0-.26.212-.471.472-.472Zm0-1.123a.472.472 0 0 1 0 .925l-.094.01a.473.473 0 0 1 0-.944l.094.01Zm12.548-.67a.567.567 0 1 1-.001 1.135.567.567 0 0 1 .001-1.134Zm-12.548-.556a.472.472 0 0 1 0 .925l-.094.01a.472.472 0 0 1 0-.945l.094.01Zm12.548-1.142c.313 0 .566.254.567.567l-.012.114a.567.567 0 0 1-1.11 0l-.011-.114c0-.313.254-.567.566-.567Zm-12.548-.084a.473.473 0 0 1 0 .924l-.094.01a.472.472 0 0 1 0-.943l.094.01Zm7.547-8.123c.26 0 .472.212.472.472V10.407c.001.063 0 .151-.004.25-.008.187-.03.46-.1.686a1.881 1.881 0 0 1-.41.74c-.195.21-.434.353-.706.45-.186.067-.372.11-.572.11-.2 0-.385-.043-.571-.11a1.745 1.745 0 0 1-.706-.45 1.88 1.88 0 0 1-.41-.74 2.885 2.885 0 0 1-.1-.686 5.305 5.305 0 0 1-.004-.325V5.001a.472.472 0 0 1 .944 0v5.351l-.002.06c0 .05 0 .123.004.204.008.175.027.345.059.447a.946.946 0 0 0 .199.377.808.808 0 0 0 .334.205.745.745 0 0 0 .253.054c.06 0 .135-.012.254-.054a.81.81 0 0 0 .334-.205.947.947 0 0 0 .2-.377c.03-.102.05-.273.058-.447a4.41 4.41 0 0 0 .004-.205l-.001-.06v-.018l-.001-.016V5.001c0-.26.212-.472.472-.472Zm-7.547 6.99a.473.473 0 0 1 0 .925l-.094.01a.473.473 0 0 1 0-.944l.094.01Zm12.548-.48c.313 0 .566.253.567.566l-.012.114a.567.567 0 0 1-1.11 0l-.011-.114c0-.313.254-.567.566-.567Zm-12.548-.651a.473.473 0 0 1 .378.462l-.01.094a.474.474 0 0 1-.368.368l-.094.01a.473.473 0 0 1-.462-.378L3 10.85c0-.26.212-.472.472-.472l.094.01ZM16.114 9.34c.313 0 .566.254.567.566l-.012.114a.567.567 0 0 1-1.11 0l-.011-.114c0-.312.254-.566.566-.566ZM3.566 9.256a.473.473 0 0 1 .378.462l-.01.095a.474.474 0 0 1-.368.368l-.094.01a.473.473 0 0 1-.462-.379L3 9.719c0-.26.212-.472.472-.472l.094.01Zm0-1.227a.473.473 0 0 1 .378.462l-.01.095a.474.474 0 0 1-.368.368l-.094.01a.473.473 0 0 1-.462-.378L3 8.49c0-.26.212-.471.472-.471l.094.01Zm12.548-.387c.313 0 .566.254.567.566l-.012.114a.567.567 0 0 1-1.11 0l-.011-.114c0-.312.254-.566.566-.566Zm-12.548-.84a.473.473 0 0 1 .378.463l-.01.094a.474.474 0 0 1-.368.369l-.094.01a.473.473 0 0 1-.462-.379L3 7.265c0-.26.212-.472.472-.472l.094.01Zm12.548-.859c.313 0 .566.255.567.567l-.012.114a.567.567 0 0 1-1.11 0l-.011-.114c0-.312.254-.567.566-.567ZM3.566 5.671a.472.472 0 0 1 .378.462l-.01.095a.473.473 0 0 1-.368.367l-.094.01a.472.472 0 0 1-.462-.377L3 6.133c0-.26.212-.471.472-.472l.094.01Zm0-1.133a.472.472 0 0 1 0 .925l-.094.01a.473.473 0 0 1 0-.945l.094.01Zm12.548-.293c.313 0 .566.254.567.567l-.012.114a.567.567 0 0 1-1.11 0l-.011-.114c0-.313.254-.567.566-.567Zm-6.321-1.98a1.227 1.227 0 1 1 0 2.453 1.227 1.227 0 0 1 0-2.453ZM3.566 3.396c.26 0 .472.212.472.472l-.01.095a.472.472 0 0 1-.924 0l-.01-.095c0-.26.212-.471.472-.472ZM16.04 2.56a.567.567 0 0 1 .452.554l-.011.115a.567.567 0 0 1-.44.44l-.115.012a.568.568 0 0 1-.555-.452l-.012-.115c0-.312.255-.566.567-.566l.114.012Zm-12-.19a.473.473 0 0 1 0 .925l-.096.009a.473.473 0 0 1 0-.945l.095.01Zm.754-1.142a.567.567 0 1 1-.001 1.134.567.567 0 0 1 .001-1.134Zm10.303.011a.567.567 0 0 1 0 1.11l-.115.011a.567.567 0 0 1 0-1.132l.115.011ZM13.66.472c.313 0 .566.254.566.566l-.011.114a.567.567 0 0 1-1.11 0l-.011-.114c0-.312.254-.566.566-.566ZM6.228.389a.568.568 0 0 1 .452.554l-.012.115a.568.568 0 0 1-.44.441l-.115.012a.568.568 0 0 1-.554-.453L5.547.943c0-.312.254-.566.566-.566l.115.012ZM7.623.095a.567.567 0 1 1 0 1.134.567.567 0 0 1 0-1.134Zm4.643.011a.567.567 0 0 1 0 1.11l-.115.012a.567.567 0 0 1 0-1.133l.115.011ZM9.133 0c.312 0 .566.254.566.566l-.011.115a.567.567 0 0 1-1.11 0L8.566.566c0-.312.254-.566.567-.566Zm1.623.012a.567.567 0 0 1 .452.554l-.012.115a.567.567 0 0 1-.44.44l-.114.012a.568.568 0 0 1-.555-.452l-.012-.115c0-.312.255-.566.567-.566l.114.012Z" clip-rule="evenodd"/>
</svg>
