<svg xmlns="http://www.w3.org/2000/svg" fill="none" viewBox="0 0 24 24">
  <path stroke="#A0AEC0" stroke-width="1.2" d="M12 3.6A8.4 8.4 0 1 1 12 20.4 8.4 8.4 0 0 1 12 3.6Z"/>
  <path fill="#A0AEC0" d="M9.627 15.532a.194.194 0 0 0 .128.053.188.188 0 0 0 .128-.053l.432-.412a.185.185 0 0 0 .059-.134c0-.05-.022-.1-.06-.135l-2.992-2.858 2.993-2.859A.185.185 0 0 0 10.373 9c0-.05-.022-.1-.06-.135l-.43-.412a.188.188 0 0 0-.129-.053.182.182 0 0 0-.128.053L6.06 11.858a.185.185 0 0 0-.059.135c0 .05.022.1.06.134l3.567 3.405Zm7.051-3.54-2.993 2.86a.185.185 0 0 0-.059.134c0 .05.022.1.06.134l.43.412a.194.194 0 0 0 .129.053.188.188 0 0 0 .128-.053l3.568-3.405a.185.185 0 0 0 .059-.134c0-.05-.022-.1-.06-.135l-3.567-3.405a.194.194 0 0 0-.128-.053.183.183 0 0 0-.128.053l-.432.412a.185.185 0 0 0-.059.135c0 .05.022.1.06.134l2.992 2.859Z"/>
  <path fill="#A0AEC0" d="M9.603 11.643a.44.44 0 0 0 .13.325l.004.003a.437.437 0 0 0 .606.019l1.215-1.081v3.314c0 .244.2.444.444.444s.444-.2.444-.444v-3.317l1.215 1.08a.444.444 0 0 0 .61-.019l.002-.002a.448.448 0 0 0-.012-.644l-1.962-1.803a.437.437 0 0 0-.594 0l-1.962 1.803a.455.455 0 0 0-.14.322Z"/>
</svg>
