<svg xmlns="http://www.w3.org/2000/svg" fill="none" viewBox="0 0 20 20">
  <path stroke="rgba(16, 17, 18, 0.8)" stroke-width="1.2" d="M10 1.6A8.4 8.4 0 1 1 10 18.4 8.4 8.4 0 0 1 10 1.6Z"/>
  <path fill="rgba(16, 17, 18, 0.8)" d="M7.627 13.533a.194.194 0 0 0 .128.053.188.188 0 0 0 .128-.053l.432-.413a.185.185 0 0 0 .059-.134c0-.05-.022-.1-.06-.135L5.323 9.993l2.993-2.859A.185.185 0 0 0 8.374 7c0-.05-.022-.1-.06-.134l-.43-.413a.188.188 0 0 0-.129-.053.182.182 0 0 0-.128.053L4.06 9.858A.185.185 0 0 0 4 9.993c0 .05.022.1.06.134l3.567 3.405Zm7.051-3.54-2.993 2.858a.184.184 0 0 0-.059.135c0 .05.022.1.06.134l.43.413a.194.194 0 0 0 .129.053.188.188 0 0 0 .128-.053l3.568-3.406A.185.185 0 0 0 16 9.993c0-.05-.022-.1-.06-.135l-3.567-3.405a.194.194 0 0 0-.128-.053.183.183 0 0 0-.128.053l-.432.413a.185.185 0 0 0-.059.134c0 .05.022.1.06.134l2.992 2.859Z"/>
  <path fill="rgba(16, 17, 18, 0.8)" d="M7.602 9.643a.44.44 0 0 0 .131.325l.004.003a.437.437 0 0 0 .606.019l1.215-1.081v3.314c0 .244.2.444.444.444.243 0 .443-.2.443-.444V8.906l1.216 1.08a.444.444 0 0 0 .61-.019l.002-.002a.448.448 0 0 0-.013-.644l-1.962-1.803a.437.437 0 0 0-.593 0L7.743 9.321a.455.455 0 0 0-.14.322Z"/>
</svg>
