<svg xmlns="http://www.w3.org/2000/svg" fill="none" viewBox="0 0 24 25">
  <path fill="rgba(16, 17, 18, 0.8)" d="M12 3a9 9 0 1 1 0 18 9 9 0 0 1 0-18Zm0 1.2a7.8 7.8 0 1 0 0 15.6 7.8 7.8 0 0 0 0-15.6Zm3.337 3.773a.585.585 0 0 1 .344.103c.09.073.115.172.127.241.011.07.026.227.014.35-.133 1.406-.712 4.816-1.007 6.39-.124.666-.37.89-.607.912-.516.047-.908-.341-1.408-.67-.782-.512-1.225-.831-1.984-1.331-.877-.579-.308-.897.192-1.416.133-.138 2.405-2.205 2.449-2.393.005-.024.01-.111-.042-.157-.052-.046-.128-.03-.184-.018-.078.018-1.328.845-3.749 2.479-.354.244-.677.362-.964.355-.318-.007-.928-.178-1.381-.326-.557-.18-1-.277-.961-.584.02-.16.24-.324.66-.491a427.246 427.246 0 0 1 5.184-2.233c2.469-1.027 2.983-1.205 3.317-1.211Z"/>
  <path fill="rgba(16, 17, 18, 0.8)" d="M12 3a9 9 0 1 1 0 18 9 9 0 0 1 0-18Zm0 1.2a7.8 7.8 0 1 0 0 15.6 7.8 7.8 0 0 0 0-15.6Zm3.337 3.773a.585.585 0 0 1 .344.103c.09.073.115.172.127.241.011.07.026.227.014.35-.133 1.406-.712 4.816-1.007 6.39-.124.666-.37.89-.607.912-.516.047-.908-.341-1.408-.67-.782-.512-1.225-.831-1.984-1.331-.877-.579-.308-.897.192-1.416.133-.138 2.405-2.205 2.449-2.393.005-.024.01-.111-.042-.157-.052-.046-.128-.03-.184-.018-.078.018-1.328.845-3.749 2.479-.354.244-.677.362-.964.355-.318-.007-.928-.178-1.381-.326-.557-.18-1-.277-.961-.584.02-.16.24-.324.66-.491a427.246 427.246 0 0 1 5.184-2.233c2.469-1.027 2.983-1.205 3.317-1.211Z"/>
</svg>
