<svg width="24" height="25" viewBox="0 0 24 25" fill="none" xmlns="http://www.w3.org/2000/svg">
<path d="M12 3C16.9704 3 20.9998 7.02961 21 12C21 16.9706 16.9706 21 12 21C7.02944 21 3 16.9706 3 12C3.0002 7.02961 7.02956 3 12 3ZM12 4.2002C7.6923 4.2002 4.20039 7.69235 4.2002 12C4.2002 16.3078 7.69218 19.7998 12 19.7998C16.3078 19.7998 19.7998 16.3078 19.7998 12C19.7996 7.69235 16.3077 4.2002 12 4.2002ZM15.3369 7.97266C15.4106 7.97143 15.5743 7.99004 15.6807 8.07617C15.7706 8.14914 15.7958 8.2482 15.8076 8.31738C15.8194 8.38681 15.834 8.54413 15.8223 8.66699C15.6885 10.0726 15.1099 13.4834 14.8154 15.0576C14.6909 15.7235 14.4455 15.9468 14.208 15.9688C13.6918 16.0163 13.2998 15.6275 12.7998 15.2998C12.0176 14.7871 11.5755 14.468 10.8164 13.9678C9.93879 13.3894 10.5077 13.0712 11.0078 12.5518C11.1406 12.4141 13.413 10.3468 13.457 10.1592C13.4625 10.1352 13.4668 10.0479 13.415 10.002C13.3631 9.95618 13.2867 9.97184 13.2314 9.98438C13.153 10.0022 11.9034 10.8287 9.48242 12.4629C9.12767 12.7065 8.80547 12.8246 8.51758 12.8184C8.20021 12.8114 7.59031 12.6396 7.13672 12.4922C6.58027 12.3113 6.13765 12.2152 6.17578 11.9082C6.19585 11.7482 6.41621 11.5843 6.83691 11.417C9.42808 10.2881 11.1559 9.54322 12.0205 9.18359C14.489 8.15684 15.0026 7.97855 15.3369 7.97266Z" fill="#4A5568"/>
<path d="M12 3C16.9704 3 20.9998 7.02961 21 12C21 16.9706 16.9706 21 12 21C7.02944 21 3 16.9706 3 12C3.0002 7.02961 7.02956 3 12 3ZM12 4.2002C7.6923 4.2002 4.20039 7.69235 4.2002 12C4.2002 16.3078 7.69218 19.7998 12 19.7998C16.3078 19.7998 19.7998 16.3078 19.7998 12C19.7996 7.69235 16.3077 4.2002 12 4.2002ZM15.3369 7.97266C15.4106 7.97143 15.5743 7.99004 15.6807 8.07617C15.7706 8.14914 15.7958 8.2482 15.8076 8.31738C15.8194 8.38681 15.834 8.54413 15.8223 8.66699C15.6885 10.0726 15.1099 13.4834 14.8154 15.0576C14.6909 15.7235 14.4455 15.9468 14.208 15.9688C13.6918 16.0163 13.2998 15.6275 12.7998 15.2998C12.0176 14.7871 11.5755 14.468 10.8164 13.9678C9.93879 13.3894 10.5077 13.0712 11.0078 12.5518C11.1406 12.4141 13.413 10.3468 13.457 10.1592C13.4625 10.1352 13.4668 10.0479 13.415 10.002C13.3631 9.95618 13.2867 9.97184 13.2314 9.98438C13.153 10.0022 11.9034 10.8287 9.48242 12.4629C9.12767 12.7065 8.80547 12.8246 8.51758 12.8184C8.20021 12.8114 7.59031 12.6396 7.13672 12.4922C6.58027 12.3113 6.13765 12.2152 6.17578 11.9082C6.19585 11.7482 6.41621 11.5843 6.83691 11.417C9.42808 10.2881 11.1559 9.54322 12.0205 9.18359C14.489 8.15684 15.0026 7.97855 15.3369 7.97266Z" fill="black" fill-opacity="0.2"/>
</svg>
