<svg xmlns="http://www.w3.org/2000/svg" fill="none" viewBox="0 0 24 25">
  <path stroke="rgba(16, 17, 18, 0.8)" stroke-width="1.2" d="M12 3.6a8.4 8.4 0 1 1 0 16.801A8.4 8.4 0 0 1 12 3.6Z"/>
  <path stroke="rgba(16, 17, 18, 0.8)" stroke-width="1.2" d="M12 3.6a8.4 8.4 0 1 1 0 16.801A8.4 8.4 0 0 1 12 3.6Z"/>
  <path fill="rgba(16, 17, 18, 0.8)" d="m7.024 7.39 3.861 5.163L7 16.75h.874l3.402-3.675 2.748 3.675H17l-4.078-5.453 3.616-3.907h-.874l-3.133 3.385-2.53-3.385H7.023Zm1.286.644h1.367l6.037 8.072h-1.367L8.31 8.034Z"/>
  <path fill="rgba(16, 17, 18, 0.8)" d="m7.024 7.39 3.861 5.163L7 16.75h.874l3.402-3.675 2.748 3.675H17l-4.078-5.453 3.616-3.907h-.874l-3.133 3.385-2.53-3.385H7.023Zm1.286.644h1.367l6.037 8.072h-1.367L8.31 8.034Z"/>
  <path stroke="rgba(16, 17, 18, 0.8)" stroke-width=".5" d="m7.024 7.39 3.861 5.163L7 16.75h.874l3.402-3.675 2.748 3.675H17l-4.078-5.453 3.616-3.907h-.874l-3.133 3.385-2.53-3.385H7.023Zm1.286.644h1.367l6.037 8.072h-1.367L8.31 8.034Z"/>
</svg>
