<svg width="24" height="25" viewBox="0 0 24 25" fill="none" xmlns="http://www.w3.org/2000/svg">
<path d="M12 3.59998C16.6392 3.59998 20.4004 7.36117 20.4004 12.0004C20.4004 16.6396 16.6392 20.4008 12 20.4008C7.36081 20.4008 3.59961 16.6396 3.59961 12.0004C3.59961 7.36117 7.36081 3.59998 12 3.59998Z" stroke="#4A5568" stroke-width="1.2"/>
<path d="M12 3.59998C16.6392 3.59998 20.4004 7.36117 20.4004 12.0004C20.4004 16.6396 16.6392 20.4008 12 20.4008C7.36081 20.4008 3.59961 16.6396 3.59961 12.0004C3.59961 7.36117 7.36081 3.59998 12 3.59998Z" stroke="black" stroke-opacity="0.2" stroke-width="1.2"/>
<path d="M7.02438 7.39026L10.8853 12.5526L7 16.7499H7.87442L11.276 13.0751L14.0244 16.7499H17L12.9219 11.2971L16.5383 7.39026H15.6639L12.5312 10.7746L10.0001 7.39026H7.02438ZM8.31028 8.03436H9.67732L15.7139 16.1057H14.3469L8.31028 8.03436Z" fill="#4A5568"/>
<path d="M7.02438 7.39026L10.8853 12.5526L7 16.7499H7.87442L11.276 13.0751L14.0244 16.7499H17L12.9219 11.2971L16.5383 7.39026H15.6639L12.5312 10.7746L10.0001 7.39026H7.02438ZM8.31028 8.03436H9.67732L15.7139 16.1057H14.3469L8.31028 8.03436Z" fill="black" fill-opacity="0.2"/>
<path d="M7.02438 7.39026L10.8853 12.5526L7 16.7499H7.87442L11.276 13.0751L14.0244 16.7499H17L12.9219 11.2971L16.5383 7.39026H15.6639L12.5312 10.7746L10.0001 7.39026H7.02438ZM8.31028 8.03436H9.67732L15.7139 16.1057H14.3469L8.31028 8.03436Z" stroke="#3B4453" stroke-width="0.5"/>
</svg>
