<svg width="572" height="572" viewBox="0 0 572 572" fill="none" xmlns="http://www.w3.org/2000/svg">
<rect width="572" height="572" rx="286" fill="black"/>
<path d="M376.378 281.905C376.378 305.32 368.29 322.458 352.128 333.32C335.967 344.182 313.524 349.613 284.814 349.613H196.637V115.919H279.558C309.618 115.919 331.166 120.277 344.17 129.009C357.173 137.74 363.668 151.545 363.668 170.473C363.668 184.993 360.135 196.765 353.072 205.774C346.009 214.782 334.958 220.798 319.92 223.839C339.596 226.538 353.918 232.733 362.902 242.408C371.886 252.099 376.378 265.27 376.378 281.921V281.905ZM315.33 180.928C315.33 172.033 312.043 165.871 305.5 162.44C298.942 159.009 288.77 157.285 274.985 157.285H244.469V207.433H273.634C287.761 207.433 298.242 205.465 305.093 201.53C311.929 197.595 315.347 190.717 315.347 180.928H315.33ZM327.537 277.693C327.537 267.221 323.972 259.823 316.861 255.481C309.731 251.156 296.402 248.977 276.84 248.977H244.453V307.401H268.703C287.354 307.401 300.211 306.507 307.274 304.702C314.338 302.897 319.481 299.856 322.703 295.58C325.926 291.303 327.537 285.335 327.537 277.677V277.693Z" fill="white"/>
<path d="M377.221 411.762H195.781V457.081H377.221V411.762Z" fill="#EB212E"/>
</svg>
