<svg xmlns="http://www.w3.org/2000/svg" width="20" height="20" viewBox="0 0 20 20" fill="none">
  <path d="M9.69434 0.079502C9.88327 -0.0265007 10.1167 -0.0265007 10.3057 0.079502L18.6943 4.7836C18.8833 4.88962 19 5.08531 19 5.29728V14.7035C19 14.9154 18.8834 15.1112 18.6943 15.2172L10.3057 19.9213C10.1167 20.0272 9.88326 20.0272 9.69434 19.9213L1.30566 15.2172C1.11673 15.1112 1 14.9154 1 14.7035V5.29728C1 5.08528 1.11673 4.8896 1.30566 4.7836L9.69434 0.079502ZM10.3057 1.79142C10.1167 1.68542 9.88327 1.68542 9.69434 1.79142L2.83203 5.63907C2.6432 5.74502 2.52649 5.94086 2.52637 6.15274V13.8481C2.52645 14.06 2.64317 14.2559 2.83203 14.3617L9.69434 18.2094C9.88327 18.3154 10.1167 18.3154 10.3057 18.2094L17.168 14.3617C17.3568 14.2559 17.4726 14.06 17.4727 13.8481V6.15274C17.4725 5.94086 17.3568 5.74502 17.168 5.63907L10.3057 1.79142ZM9.69434 3.15177C9.88327 3.04577 10.1167 3.04577 10.3057 3.15177L15.9541 6.31876C16.1431 6.42476 16.2597 6.62047 16.2598 6.83243V13.1664C16.2597 13.3784 16.1431 13.5741 15.9541 13.6801L10.3057 16.8471C10.1167 16.9531 9.88327 16.9531 9.69434 16.8471L6.79395 15.2211C6.60514 15.1151 6.48843 14.9193 6.48828 14.7074V8.37345C6.48828 8.16143 6.60502 7.96579 6.79395 7.85978L9.69434 6.23282C9.88327 6.12682 10.1167 6.12682 10.3057 6.23282L13.2061 7.85978C13.3949 7.96581 13.5117 8.1615 13.5117 8.37345V11.6264C13.5116 11.8382 13.3949 12.0341 13.2061 12.14L10.2998 13.769C10.1117 13.8746 9.87991 13.8753 9.69141 13.7709L9.54395 13.6889C9.35402 13.5832 9.23637 13.3869 9.23633 13.1742V9.84024C9.23633 9.6816 9.32422 9.53382 9.46582 9.4545L9.84766 9.24063C9.94214 9.18793 10.0579 9.18787 10.1523 9.24063L10.458 9.41251C10.6468 9.51855 10.7637 9.71426 10.7637 9.92618V11.5414C10.7637 11.6555 10.8903 11.7272 10.9922 11.6703L11.6797 11.2846C11.8683 11.1785 11.9844 10.9827 11.9844 10.7709V9.23087C11.9844 9.01904 11.8683 8.82326 11.6797 8.7172L10.3057 7.94669C10.1167 7.84068 9.88327 7.84068 9.69434 7.94669L8.32031 8.7172C8.13157 8.82324 8.01562 9.01898 8.01562 9.23087V13.8529C8.01569 14.0649 8.13149 14.2606 8.32031 14.3666L9.69434 15.1361C9.88327 15.2422 10.1167 15.2422 10.3057 15.1361L14.4277 12.8256C14.6165 12.7195 14.7324 12.5238 14.7324 12.3119V7.68985C14.7324 7.47797 14.6165 7.28223 14.4277 7.17618L10.3057 4.86466C10.1168 4.75867 9.88326 4.75868 9.69434 4.86466L5.57227 7.17618C5.38344 7.28221 5.26758 7.47791 5.26758 7.68985V14.1088C5.26758 14.223 5.13997 14.2947 5.03809 14.2377L4.35156 13.852C3.97378 13.6404 3.74033 13.2491 3.74023 12.8256V6.83341C3.74031 6.62147 3.85703 6.4257 4.0459 6.31974L9.69434 3.15274V3.15177Z" fill="url(#paint0_linear_27805_53381)"/>
  <defs>
    <linearGradient id="paint0_linear_27805_53381" x1="5" y1="2.00037" x2="15.5" y2="18.5004" gradientUnits="userSpaceOnUse">
      <stop stop-color="#4C51FF"/>
      <stop offset="1" stop-color="#92D9FF"/>
    </linearGradient>
  </defs>
</svg>
