<svg width="1024" height="1024" viewBox="0 0 1024 1024" fill="none" xmlns="http://www.w3.org/2000/svg">
<path d="M310.905 430.757C331.424 451.215 358.781 461.444 392.979 461.444L742.731 461.444L703.34 348.925H424.896C403.618 348.925 392.979 337.559 392.979 314.828L392.979 38.0102L281.268 0L281.268 348.925C281.268 383.021 291.147 410.299 310.905 430.757Z" fill="white"/>
<path d="M310.905 993.313C331.424 1013.77 358.781 1024 392.979 1024H742.731L703.34 911.48H424.896C403.618 911.48 392.979 900.115 392.979 877.384L392.979 600.566L281.268 562.556L281.268 911.48C281.268 945.577 291.147 972.855 310.905 993.313Z" fill="white"/>
</svg>
