<svg xmlns="http://www.w3.org/2000/svg" width="20" height="20" viewBox="0 0 20 20" fill="none">
  <rect width="20" height="20" rx="4" fill="#262621"/>
  <path d="M8.85315 11.2109V14.9961C8.85328 15.3066 8.99165 15.4619 9.26819 15.4619H12.8883L13.4 17H8.85315C8.40865 17 8.05254 16.8605 7.78577 16.5811C7.52887 16.3014 7.40004 15.9281 7.40002 15.4619V10.6914L8.85315 11.2109ZM8.85315 3.51953V7.30371C8.85315 7.6145 8.99151 7.77051 9.26819 7.77051H12.8883L13.4 9.30859H8.85315C8.40867 9.30859 8.05253 9.16912 7.78577 8.88965C7.52888 8.60997 7.40005 8.23662 7.40002 7.77051V3L8.85315 3.51953Z" fill="white"/>
</svg>
